M48
; DRILL file {KiCad 7.0.9} date 
; FORMAT={-:-/ absolute / inch / decimal}
; #@! TF.CreationDate,2024-01-26T17:27:08+01:00
; #@! TF.GenerationSoftware,Kicad,Pcbnew,7.0.9
; #@! TF.FileFunction,Plated,1,2,PTH
FMAT,2
INCH
; #@! TA.AperFunction,Plated,PTH,ViaDrill
T1C0.0157
; #@! TA.AperFunction,Plated,PTH,ComponentDrill
T2C0.0197
; #@! TA.AperFunction,Plated,PTH,ComponentDrill
T3C0.0276
; #@! TA.AperFunction,Plated,PTH,ComponentDrill
T4C0.0315
; #@! TA.AperFunction,Plated,PTH,ComponentDrill
T5C0.0331
; #@! TA.AperFunction,Plated,PTH,ComponentDrill
T6C0.0354
; #@! TA.AperFunction,Plated,PTH,ComponentDrill
T7C0.0402
; #@! TA.AperFunction,Plated,PTH,ComponentDrill
T8C0.0433
; #@! TA.AperFunction,Plated,PTH,ComponentDrill
T9C0.0484
%
G90
G05
T1
X6.0787Y-4.7876
X6.1622Y-4.7916
X6.3478Y-3.2087
X6.3487Y-3.1356
X6.5487Y-3.2616
X6.6127Y-3.6336
X6.6127Y-3.7869
X6.6707Y-5.3936
X6.6747Y-4.2342
X6.6747Y-4.3396
X6.7019Y-5.1648
X6.7567Y-4.0936
X6.7667Y-3.2616
X6.7747Y-5.0136
X6.7787Y-5.3236
X6.9047Y-4.0756
X6.9581Y-3.1776
X7.0067Y-5.3556
X7.0447Y-3.1776
X7.0989Y-5.3055
T2
X6.5647Y-4.4643
X6.5647Y-4.5036
X6.8827Y-5.1648
X6.8827Y-5.2041
T3
X7.3807Y-5.3516
X7.4807Y-5.4516
X7.5807Y-5.3516
T4
X6.0339Y-3.9453
X6.0339Y-4.4729
X6.1339Y-3.9453
X6.1339Y-4.4729
X6.2339Y-3.9453
X6.2339Y-4.4729
X6.3339Y-3.9453
X6.3339Y-4.4729
T5
X5.9967Y-5.1396
X5.9967Y-5.4396
X6.0967Y-5.1396
X6.0967Y-5.4396
X6.1967Y-5.1396
X6.1967Y-5.4396
X6.2967Y-5.1396
X6.2967Y-5.4396
T6
X6.5073Y-3.4189
X6.6073Y-3.4189
T7
X7.2127Y-3.0796
X7.2127Y-3.1796
X7.2127Y-3.2796
X7.2127Y-3.3796
X7.2127Y-3.4796
X7.2127Y-3.5796
X7.2127Y-3.6796
X7.2127Y-3.7796
X7.2127Y-3.8796
X7.2127Y-3.9796
X7.2127Y-4.0796
X7.2127Y-4.1796
X7.2127Y-4.2796
X7.2127Y-4.3796
X7.2127Y-4.4796
X7.2127Y-4.5796
X7.2127Y-4.6796
X7.2127Y-4.7796
X7.2127Y-4.8796
X7.2127Y-4.9796
X7.4627Y-4.9706
X7.5627Y-4.9706
X7.6627Y-4.9706
X7.9127Y-3.0796
X7.9127Y-3.1796
X7.9127Y-3.2796
X7.9127Y-3.3796
X7.9127Y-3.4796
X7.9127Y-3.5796
X7.9127Y-3.6796
X7.9127Y-3.7796
X7.9127Y-3.8796
X7.9127Y-3.9796
X7.9127Y-4.0796
X7.9127Y-4.1796
X7.9127Y-4.2796
X7.9127Y-4.3796
X7.9127Y-4.4796
X7.9127Y-4.5796
X7.9127Y-4.6796
X7.9127Y-4.7796
X7.9127Y-4.8796
X7.9127Y-4.9796
T8
X6.1495Y-3.6837
X6.2495Y-3.6837
X6.3495Y-3.6837
T9
X6.7467Y-4.5676
X6.7467Y-4.6676
X6.7467Y-4.7676
T0
M30
