%TF.GenerationSoftware,KiCad,Pcbnew,7.0.9*%
%TF.CreationDate,2024-01-26T17:26:55+01:00*%
%TF.ProjectId,BPN,42504e2e-6b69-4636-9164-5f7063625858,rev?*%
%TF.SameCoordinates,Original*%
%TF.FileFunction,Copper,L2,Bot*%
%TF.FilePolarity,Positive*%
%FSLAX46Y46*%
G04 Gerber Fmt 4.6, Leading zero omitted, Abs format (unit mm)*
G04 Created by KiCad (PCBNEW 7.0.9) date 2024-01-26 17:26:55*
%MOMM*%
%LPD*%
G01*
G04 APERTURE LIST*
%TA.AperFunction,ComponentPad*%
%ADD10R,0.850000X0.850000*%
%TD*%
%TA.AperFunction,ComponentPad*%
%ADD11O,0.850000X0.850000*%
%TD*%
%TA.AperFunction,ComponentPad*%
%ADD12R,1.850000X1.850000*%
%TD*%
%TA.AperFunction,ComponentPad*%
%ADD13C,1.850000*%
%TD*%
%TA.AperFunction,ComponentPad*%
%ADD14R,1.348000X1.348000*%
%TD*%
%TA.AperFunction,ComponentPad*%
%ADD15C,1.348000*%
%TD*%
%TA.AperFunction,ComponentPad*%
%ADD16O,1.700000X1.700000*%
%TD*%
%TA.AperFunction,ComponentPad*%
%ADD17R,1.700000X1.700000*%
%TD*%
%TA.AperFunction,ComponentPad*%
%ADD18R,1.905000X2.000000*%
%TD*%
%TA.AperFunction,ComponentPad*%
%ADD19O,1.905000X2.000000*%
%TD*%
%TA.AperFunction,ComponentPad*%
%ADD20O,1.600000X1.200000*%
%TD*%
%TA.AperFunction,ComponentPad*%
%ADD21O,1.200000X1.200000*%
%TD*%
%TA.AperFunction,ComponentPad*%
%ADD22R,1.800000X1.800000*%
%TD*%
%TA.AperFunction,ComponentPad*%
%ADD23C,1.800000*%
%TD*%
%TA.AperFunction,ComponentPad*%
%ADD24C,1.500000*%
%TD*%
%TA.AperFunction,ViaPad*%
%ADD25C,0.800000*%
%TD*%
%TA.AperFunction,Conductor*%
%ADD26C,0.500000*%
%TD*%
G04 APERTURE END LIST*
D10*
%TO.P,J3,1,Pin_1*%
%TO.N,+3V3*%
X166744422Y-113392445D03*
D11*
%TO.P,J3,2,Pin_2*%
%TO.N,Net-(D3-A)*%
X166744422Y-114392445D03*
%TD*%
D12*
%TO.P,Q2,1,G*%
%TO.N,Net-(Q2-G)*%
X171367222Y-116018045D03*
D13*
%TO.P,Q2,2,D*%
%TO.N,Net-(D3-A)*%
X171367222Y-118558045D03*
%TO.P,Q2,3,S*%
%TO.N,GND*%
X171367222Y-121098045D03*
%TD*%
D14*
%TO.P,U4,1*%
%TO.N,Net-(Q1-B)*%
X159937222Y-130546845D03*
D15*
%TO.P,U4,2,-*%
%TO.N,Net-(U4A--)*%
X157397222Y-130546845D03*
%TO.P,U4,3,+*%
%TO.N,Net-(U4A-+)*%
X154857222Y-130546845D03*
%TO.P,U4,4,V-*%
%TO.N,GND*%
X152317222Y-130546845D03*
%TO.P,U4,5*%
%TO.N,N/C*%
X152317222Y-138166845D03*
%TO.P,U4,6*%
X154857222Y-138166845D03*
%TO.P,U4,7*%
X157397222Y-138166845D03*
%TO.P,U4,8,V+*%
%TO.N,VDD*%
X159937222Y-138166845D03*
%TD*%
D16*
%TO.P,U3,1,GPIO0*%
%TO.N,unconnected-(U3-GPIO0-Pad1)*%
X183203622Y-78222845D03*
%TO.P,U3,2,GPIO1*%
%TO.N,unconnected-(U3-GPIO1-Pad2)*%
X183203622Y-80762845D03*
D17*
%TO.P,U3,3,GND*%
%TO.N,GND*%
X183203622Y-83302845D03*
D16*
%TO.P,U3,4,GPIO2*%
%TO.N,unconnected-(U3-GPIO2-Pad4)*%
X183203622Y-85842845D03*
%TO.P,U3,5,GPIO3*%
%TO.N,unconnected-(U3-GPIO3-Pad5)*%
X183203622Y-88382845D03*
%TO.P,U3,6,GPIO4*%
%TO.N,unconnected-(U3-GPIO4-Pad6)*%
X183203622Y-90922845D03*
%TO.P,U3,7,GPIO5*%
%TO.N,unconnected-(U3-GPIO5-Pad7)*%
X183203622Y-93462845D03*
D17*
%TO.P,U3,8,GND*%
%TO.N,GND*%
X183203622Y-96002845D03*
D16*
%TO.P,U3,9,GPIO6*%
%TO.N,/SDA*%
X183203622Y-98542845D03*
%TO.P,U3,10,GPIO7*%
%TO.N,/SCL*%
X183203622Y-101082845D03*
%TO.P,U3,11,GPIO8*%
%TO.N,unconnected-(U3-GPIO8-Pad11)*%
X183203622Y-103622845D03*
%TO.P,U3,12,GPIO9*%
%TO.N,/Valve*%
X183203622Y-106162845D03*
D17*
%TO.P,U3,13,GND*%
%TO.N,GND*%
X183203622Y-108702845D03*
D16*
%TO.P,U3,14,GPIO10*%
%TO.N,unconnected-(U3-GPIO10-Pad14)*%
X183203622Y-111242845D03*
%TO.P,U3,15,GPIO11*%
%TO.N,unconnected-(U3-GPIO11-Pad15)*%
X183203622Y-113782845D03*
%TO.P,U3,16,GPIO12*%
%TO.N,unconnected-(U3-GPIO12-Pad16)*%
X183203622Y-116322845D03*
%TO.P,U3,17,GPIO13*%
%TO.N,unconnected-(U3-GPIO13-Pad17)*%
X183203622Y-118862845D03*
D17*
%TO.P,U3,18,GND*%
%TO.N,GND*%
X183203622Y-121402845D03*
D16*
%TO.P,U3,19,GPIO14*%
%TO.N,unconnected-(U3-GPIO14-Pad19)*%
X183203622Y-123942845D03*
%TO.P,U3,20,GPIO15*%
%TO.N,unconnected-(U3-GPIO15-Pad20)*%
X183203622Y-126482845D03*
%TO.P,U3,21,GPIO16*%
%TO.N,unconnected-(U3-GPIO16-Pad21)*%
X200983622Y-126482845D03*
%TO.P,U3,22,GPIO17*%
%TO.N,unconnected-(U3-GPIO17-Pad22)*%
X200983622Y-123942845D03*
D17*
%TO.P,U3,23,GND*%
%TO.N,GND*%
X200983622Y-121402845D03*
D16*
%TO.P,U3,24,GPIO18*%
%TO.N,unconnected-(U3-GPIO18-Pad24)*%
X200983622Y-118862845D03*
%TO.P,U3,25,GPIO19*%
%TO.N,unconnected-(U3-GPIO19-Pad25)*%
X200983622Y-116322845D03*
%TO.P,U3,26,GPIO20*%
%TO.N,unconnected-(U3-GPIO20-Pad26)*%
X200983622Y-113782845D03*
%TO.P,U3,27,GPIO21*%
%TO.N,unconnected-(U3-GPIO21-Pad27)*%
X200983622Y-111242845D03*
D17*
%TO.P,U3,28,GND*%
%TO.N,GND*%
X200983622Y-108702845D03*
D16*
%TO.P,U3,29,GPIO22*%
%TO.N,unconnected-(U3-GPIO22-Pad29)*%
X200983622Y-106162845D03*
%TO.P,U3,30,RUN*%
%TO.N,unconnected-(U3-RUN-Pad30)*%
X200983622Y-103622845D03*
%TO.P,U3,31,GPIO26_ADC0*%
%TO.N,/Pump*%
X200983622Y-101082845D03*
%TO.P,U3,32,GPIO27_ADC1*%
%TO.N,unconnected-(U3-GPIO27_ADC1-Pad32)*%
X200983622Y-98542845D03*
D17*
%TO.P,U3,33,AGND*%
%TO.N,unconnected-(U3-AGND-Pad33)*%
X200983622Y-96002845D03*
D16*
%TO.P,U3,34,GPIO28_ADC2*%
%TO.N,unconnected-(U3-GPIO28_ADC2-Pad34)*%
X200983622Y-93462845D03*
%TO.P,U3,35,ADC_VREF*%
%TO.N,unconnected-(U3-ADC_VREF-Pad35)*%
X200983622Y-90922845D03*
%TO.P,U3,36,3V3*%
%TO.N,unconnected-(U3-3V3-Pad36)*%
X200983622Y-88382845D03*
%TO.P,U3,37,3V3_EN*%
%TO.N,unconnected-(U3-3V3_EN-Pad37)*%
X200983622Y-85842845D03*
D17*
%TO.P,U3,38,GND*%
%TO.N,GND*%
X200983622Y-83302845D03*
D16*
%TO.P,U3,39,VSYS*%
%TO.N,unconnected-(U3-VSYS-Pad39)*%
X200983622Y-80762845D03*
%TO.P,U3,40,VBUS*%
%TO.N,unconnected-(U3-VBUS-Pad40)*%
X200983622Y-78222845D03*
%TO.P,U3,41,SWCLK*%
%TO.N,unconnected-(U3-SWCLK-Pad41)*%
X189553622Y-126252845D03*
D17*
%TO.P,U3,42,GND*%
%TO.N,GND*%
X192093622Y-126252845D03*
D16*
%TO.P,U3,43,SWDIO*%
%TO.N,unconnected-(U3-SWDIO-Pad43)*%
X194633622Y-126252845D03*
%TD*%
D18*
%TO.P,U1,1,ADJ*%
%TO.N,Net-(U1-ADJ)*%
X161278022Y-93566245D03*
D19*
%TO.P,U1,2,VO*%
%TO.N,+3V3*%
X158738022Y-93566245D03*
%TO.P,U1,3,VI*%
%TO.N,+5V*%
X156198022Y-93566245D03*
%TD*%
D20*
%TO.P,Q1,1,E*%
%TO.N,Net-(Q1-E)*%
X187470822Y-135931645D03*
D21*
%TO.P,Q1,2,B*%
%TO.N,Net-(Q1-B)*%
X190010822Y-138471645D03*
%TO.P,Q1,3,C*%
%TO.N,Net-(D2-A)*%
X192550822Y-135931645D03*
%TD*%
D10*
%TO.P,J2,1,Pin_1*%
%TO.N,+3V3*%
X174821622Y-132185345D03*
D11*
%TO.P,J2,2,Pin_2*%
%TO.N,Net-(D2-A)*%
X174821622Y-131185345D03*
%TD*%
D22*
%TO.P,D1,1,K*%
%TO.N,Net-(D1-K)*%
X165286222Y-86840445D03*
D23*
%TO.P,D1,2,A*%
%TO.N,+5V*%
X167826222Y-86840445D03*
%TD*%
D24*
%TO.P,U5,1,GND*%
%TO.N,GND*%
X153262022Y-113610845D03*
%TO.P,U5,2,VCC*%
%TO.N,+3V3*%
X155802022Y-113610845D03*
%TO.P,U5,3,SDA*%
%TO.N,/SDA*%
X158342022Y-113610845D03*
%TO.P,U5,4,SCL*%
%TO.N,/SCL*%
X160882022Y-113610845D03*
%TO.P,U5,5,NC*%
%TO.N,unconnected-(U5-NC-Pad5)*%
X160882022Y-100210845D03*
%TO.P,U5,6,NC*%
%TO.N,unconnected-(U5-NC-Pad6)*%
X158342022Y-100210845D03*
%TO.P,U5,7,NC*%
%TO.N,unconnected-(U5-NC-Pad7)*%
X155802022Y-100210845D03*
%TO.P,U5,8,NC*%
%TO.N,unconnected-(U5-NC-Pad8)*%
X153262022Y-100210845D03*
%TD*%
D25*
%TO.N,GND*%
X171875222Y-82845645D03*
X166338022Y-82845645D03*
X161258022Y-79645245D03*
X161234022Y-81500845D03*
X172180022Y-135220445D03*
X172078422Y-127346445D03*
%TO.N,Net-(U1-ADJ)*%
X167963622Y-96187145D03*
%TO.N,Net-(C4-Pad2)*%
X156519522Y-121707645D03*
X154400022Y-121606045D03*
%TO.N,VDD*%
X176736922Y-80712045D03*
%TO.N,Net-(D2-A)*%
X170227722Y-131185345D03*
%TO.N,+3V3*%
X169538422Y-110226845D03*
X169538422Y-107548545D03*
%TO.N,Net-(Q1-E)*%
X180312510Y-134758757D03*
%TO.N,/SDA*%
X171621222Y-103978445D03*
%TO.N,VDD*%
X178936422Y-80712045D03*
%TO.N,Net-(U1-ADJ)*%
X167963622Y-92294445D03*
%TO.N,/SDA*%
X175380422Y-103521245D03*
%TO.N,Net-(Q1-E)*%
X177971222Y-136033245D03*
%TO.N,Net-(D2-A)*%
X169436822Y-136998445D03*
%TD*%
D26*
%TO.N,GND*%
X166338022Y-82845645D02*
X171875222Y-82845645D01*
X161234022Y-79669245D02*
X161258022Y-79645245D01*
X161234022Y-81500845D02*
X161234022Y-79669245D01*
X172078422Y-135118845D02*
X172180022Y-135220445D01*
X172078422Y-127346445D02*
X172078422Y-135118845D01*
%TO.N,Net-(U1-ADJ)*%
X167963622Y-96187145D02*
X167963622Y-92294445D01*
%TO.N,Net-(C4-Pad2)*%
X154501622Y-121707645D02*
X154400022Y-121606045D01*
X156519522Y-121707645D02*
X154501622Y-121707645D01*
%TO.N,VDD*%
X178936422Y-80712045D02*
X176736922Y-80712045D01*
%TO.N,Net-(D2-A)*%
X170198822Y-136236445D02*
X170198822Y-131214245D01*
X170198822Y-131214245D02*
X170227722Y-131185345D01*
X169436822Y-136998445D02*
X170198822Y-136236445D01*
%TO.N,+3V3*%
X169538422Y-110226845D02*
X169538422Y-107548545D01*
%TO.N,Net-(Q1-E)*%
X177971222Y-136033245D02*
X179038022Y-136033245D01*
X179038022Y-136033245D02*
X180312510Y-134758757D01*
%TO.N,/SDA*%
X171621222Y-103978445D02*
X172078422Y-103521245D01*
X172078422Y-103521245D02*
X175380422Y-103521245D01*
%TD*%
%TA.AperFunction,Conductor*%
%TO.N,GND*%
G36*
X208542539Y-74820185D02*
G01*
X208588294Y-74872989D01*
X208599500Y-74924500D01*
X208599500Y-142875500D01*
X208579815Y-142942539D01*
X208527011Y-142988294D01*
X208475500Y-142999500D01*
X147124500Y-142999500D01*
X147057461Y-142979815D01*
X147011706Y-142927011D01*
X147000500Y-142875500D01*
X147000500Y-138166845D01*
X151488180Y-138166845D01*
X151506297Y-138339213D01*
X151506298Y-138339216D01*
X151559852Y-138504044D01*
X151559854Y-138504047D01*
X151646513Y-138654144D01*
X151762485Y-138782943D01*
X151902701Y-138884816D01*
X152061028Y-138955309D01*
X152061031Y-138955309D01*
X152061034Y-138955311D01*
X152230564Y-138991345D01*
X152403880Y-138991345D01*
X152573410Y-138955311D01*
X152573413Y-138955309D01*
X152573415Y-138955309D01*
X152626748Y-138931563D01*
X152731743Y-138884816D01*
X152871959Y-138782943D01*
X152987931Y-138654144D01*
X153074590Y-138504047D01*
X153128147Y-138339213D01*
X153146264Y-138166845D01*
X154028180Y-138166845D01*
X154046297Y-138339213D01*
X154046298Y-138339216D01*
X154099852Y-138504044D01*
X154099854Y-138504047D01*
X154186513Y-138654144D01*
X154302485Y-138782943D01*
X154442701Y-138884816D01*
X154601028Y-138955309D01*
X154601031Y-138955309D01*
X154601034Y-138955311D01*
X154770564Y-138991345D01*
X154943880Y-138991345D01*
X155113410Y-138955311D01*
X155113413Y-138955309D01*
X155113415Y-138955309D01*
X155166748Y-138931563D01*
X155271743Y-138884816D01*
X155411959Y-138782943D01*
X155527931Y-138654144D01*
X155614590Y-138504047D01*
X155668147Y-138339213D01*
X155686264Y-138166845D01*
X156568180Y-138166845D01*
X156586297Y-138339213D01*
X156586298Y-138339216D01*
X156639852Y-138504044D01*
X156639854Y-138504047D01*
X156726513Y-138654144D01*
X156842485Y-138782943D01*
X156982701Y-138884816D01*
X157141028Y-138955309D01*
X157141031Y-138955309D01*
X157141034Y-138955311D01*
X157310564Y-138991345D01*
X157483880Y-138991345D01*
X157653410Y-138955311D01*
X157653413Y-138955309D01*
X157653415Y-138955309D01*
X157706748Y-138931563D01*
X157811743Y-138884816D01*
X157951959Y-138782943D01*
X158067931Y-138654144D01*
X158154590Y-138504047D01*
X158208147Y-138339213D01*
X158226264Y-138166845D01*
X159108180Y-138166845D01*
X159126297Y-138339213D01*
X159126298Y-138339216D01*
X159179852Y-138504044D01*
X159179854Y-138504047D01*
X159266513Y-138654144D01*
X159382485Y-138782943D01*
X159522701Y-138884816D01*
X159681028Y-138955309D01*
X159681031Y-138955309D01*
X159681034Y-138955311D01*
X159850564Y-138991345D01*
X160023880Y-138991345D01*
X160193410Y-138955311D01*
X160193413Y-138955309D01*
X160193415Y-138955309D01*
X160246748Y-138931563D01*
X160351743Y-138884816D01*
X160491959Y-138782943D01*
X160607931Y-138654144D01*
X160694590Y-138504047D01*
X160705117Y-138471647D01*
X189255573Y-138471647D01*
X189274507Y-138639701D01*
X189330367Y-138799339D01*
X189330369Y-138799342D01*
X189420340Y-138942529D01*
X189420345Y-138942535D01*
X189539931Y-139062121D01*
X189539937Y-139062126D01*
X189683124Y-139152097D01*
X189683127Y-139152099D01*
X189683131Y-139152100D01*
X189683132Y-139152101D01*
X189755735Y-139177505D01*
X189842765Y-139207959D01*
X190010819Y-139226894D01*
X190010822Y-139226894D01*
X190010825Y-139226894D01*
X190178878Y-139207959D01*
X190178881Y-139207958D01*
X190338512Y-139152101D01*
X190338514Y-139152099D01*
X190338516Y-139152099D01*
X190338519Y-139152097D01*
X190481706Y-139062126D01*
X190481707Y-139062125D01*
X190481712Y-139062122D01*
X190601299Y-138942535D01*
X190601303Y-138942529D01*
X190691274Y-138799342D01*
X190691276Y-138799339D01*
X190691276Y-138799337D01*
X190691278Y-138799335D01*
X190747135Y-138639704D01*
X190747135Y-138639703D01*
X190747136Y-138639701D01*
X190766071Y-138471647D01*
X190766071Y-138471642D01*
X190747136Y-138303588D01*
X190716682Y-138216558D01*
X190691278Y-138143955D01*
X190691277Y-138143954D01*
X190691276Y-138143950D01*
X190691274Y-138143947D01*
X190601303Y-138000760D01*
X190601298Y-138000754D01*
X190481712Y-137881168D01*
X190481706Y-137881163D01*
X190338519Y-137791192D01*
X190338516Y-137791190D01*
X190178878Y-137735330D01*
X190010825Y-137716396D01*
X190010819Y-137716396D01*
X189842765Y-137735330D01*
X189683127Y-137791190D01*
X189683124Y-137791192D01*
X189539937Y-137881163D01*
X189539931Y-137881168D01*
X189420345Y-138000754D01*
X189420340Y-138000760D01*
X189330369Y-138143947D01*
X189330367Y-138143950D01*
X189274507Y-138303588D01*
X189255573Y-138471642D01*
X189255573Y-138471647D01*
X160705117Y-138471647D01*
X160748147Y-138339213D01*
X160766264Y-138166845D01*
X160748147Y-137994477D01*
X160694590Y-137829643D01*
X160607931Y-137679546D01*
X160491959Y-137550747D01*
X160351743Y-137448874D01*
X160351742Y-137448873D01*
X160193415Y-137378380D01*
X160193407Y-137378378D01*
X160023880Y-137342345D01*
X159850564Y-137342345D01*
X159681036Y-137378378D01*
X159681028Y-137378380D01*
X159522701Y-137448873D01*
X159382486Y-137550746D01*
X159382485Y-137550747D01*
X159266513Y-137679546D01*
X159266511Y-137679547D01*
X159266510Y-137679550D01*
X159179852Y-137829645D01*
X159126298Y-137994473D01*
X159126297Y-137994477D01*
X159108180Y-138166845D01*
X158226264Y-138166845D01*
X158208147Y-137994477D01*
X158154590Y-137829643D01*
X158067931Y-137679546D01*
X157951959Y-137550747D01*
X157811743Y-137448874D01*
X157811742Y-137448873D01*
X157653415Y-137378380D01*
X157653407Y-137378378D01*
X157483880Y-137342345D01*
X157310564Y-137342345D01*
X157141036Y-137378378D01*
X157141028Y-137378380D01*
X156982701Y-137448873D01*
X156842486Y-137550746D01*
X156842485Y-137550747D01*
X156726513Y-137679546D01*
X156726511Y-137679547D01*
X156726510Y-137679550D01*
X156639852Y-137829645D01*
X156586298Y-137994473D01*
X156586297Y-137994477D01*
X156568180Y-138166845D01*
X155686264Y-138166845D01*
X155668147Y-137994477D01*
X155614590Y-137829643D01*
X155527931Y-137679546D01*
X155411959Y-137550747D01*
X155271743Y-137448874D01*
X155271742Y-137448873D01*
X155113415Y-137378380D01*
X155113407Y-137378378D01*
X154943880Y-137342345D01*
X154770564Y-137342345D01*
X154601036Y-137378378D01*
X154601028Y-137378380D01*
X154442701Y-137448873D01*
X154302486Y-137550746D01*
X154302485Y-137550747D01*
X154186513Y-137679546D01*
X154186511Y-137679547D01*
X154186510Y-137679550D01*
X154099852Y-137829645D01*
X154046298Y-137994473D01*
X154046297Y-137994477D01*
X154028180Y-138166845D01*
X153146264Y-138166845D01*
X153128147Y-137994477D01*
X153074590Y-137829643D01*
X152987931Y-137679546D01*
X152871959Y-137550747D01*
X152731743Y-137448874D01*
X152731742Y-137448873D01*
X152573415Y-137378380D01*
X152573407Y-137378378D01*
X152403880Y-137342345D01*
X152230564Y-137342345D01*
X152061036Y-137378378D01*
X152061028Y-137378380D01*
X151902701Y-137448873D01*
X151762486Y-137550746D01*
X151762485Y-137550747D01*
X151646513Y-137679546D01*
X151646511Y-137679547D01*
X151646510Y-137679550D01*
X151559852Y-137829645D01*
X151506298Y-137994473D01*
X151506297Y-137994477D01*
X151488180Y-138166845D01*
X147000500Y-138166845D01*
X147000500Y-136998445D01*
X168881572Y-136998445D01*
X168900492Y-137142153D01*
X168900493Y-137142157D01*
X168955959Y-137276067D01*
X168955960Y-137276069D01*
X168955961Y-137276070D01*
X169044201Y-137391066D01*
X169159197Y-137479306D01*
X169293113Y-137534775D01*
X169414423Y-137550746D01*
X169436821Y-137553695D01*
X169436822Y-137553695D01*
X169436823Y-137553695D01*
X169451799Y-137551723D01*
X169580531Y-137534775D01*
X169714447Y-137479306D01*
X169829443Y-137391066D01*
X169917683Y-137276070D01*
X169973152Y-137142154D01*
X169984888Y-137053007D01*
X170013153Y-136989113D01*
X170020132Y-136981526D01*
X170504306Y-136497354D01*
X170504306Y-136497353D01*
X170511374Y-136490286D01*
X170511379Y-136490279D01*
X170526872Y-136474787D01*
X170536931Y-136455043D01*
X170547091Y-136438463D01*
X170560118Y-136420534D01*
X170566964Y-136399462D01*
X170574410Y-136381488D01*
X170584468Y-136361749D01*
X170587934Y-136339861D01*
X170592473Y-136320955D01*
X170599322Y-136299878D01*
X170599322Y-136173012D01*
X170599322Y-136033245D01*
X177415972Y-136033245D01*
X177422947Y-136086228D01*
X177434892Y-136176953D01*
X177434893Y-136176957D01*
X177490359Y-136310867D01*
X177490360Y-136310869D01*
X177490361Y-136310870D01*
X177578601Y-136425866D01*
X177693597Y-136514106D01*
X177693598Y-136514106D01*
X177693599Y-136514107D01*
X177712959Y-136522126D01*
X177827513Y-136569575D01*
X177954502Y-136586293D01*
X177971221Y-136588495D01*
X177971222Y-136588495D01*
X177971223Y-136588495D01*
X177986199Y-136586523D01*
X178114931Y-136569575D01*
X178248847Y-136514106D01*
X178316603Y-136462115D01*
X178320182Y-136459369D01*
X178385351Y-136434175D01*
X178395668Y-136433745D01*
X179101453Y-136433745D01*
X179101455Y-136433745D01*
X179122523Y-136426899D01*
X179141439Y-136422357D01*
X179163326Y-136418891D01*
X179183066Y-136408831D01*
X179201033Y-136401389D01*
X179222112Y-136394541D01*
X179240048Y-136381508D01*
X179256610Y-136371359D01*
X179276364Y-136361295D01*
X179291856Y-136345802D01*
X179291863Y-136345797D01*
X179406734Y-136230926D01*
X179662081Y-135975578D01*
X186516490Y-135975578D01*
X186546956Y-136148351D01*
X186546957Y-136148356D01*
X186616445Y-136309449D01*
X186616446Y-136309451D01*
X186616448Y-136309454D01*
X186708980Y-136433745D01*
X186721212Y-136450175D01*
X186855608Y-136562947D01*
X186933310Y-136601970D01*
X187012384Y-136641683D01*
X187012385Y-136641683D01*
X187012389Y-136641685D01*
X187183101Y-136682145D01*
X187183104Y-136682145D01*
X187714523Y-136682145D01*
X187714531Y-136682145D01*
X187845077Y-136666886D01*
X188009939Y-136606882D01*
X188156518Y-136510475D01*
X188276914Y-136382863D01*
X188364634Y-136230926D01*
X188414952Y-136062855D01*
X188422594Y-135931647D01*
X191795573Y-135931647D01*
X191814507Y-136099701D01*
X191870367Y-136259339D01*
X191870369Y-136259342D01*
X191960340Y-136402529D01*
X191960345Y-136402535D01*
X192079931Y-136522121D01*
X192079937Y-136522126D01*
X192223124Y-136612097D01*
X192223127Y-136612099D01*
X192223131Y-136612100D01*
X192223132Y-136612101D01*
X192295735Y-136637505D01*
X192382765Y-136667959D01*
X192550819Y-136686894D01*
X192550822Y-136686894D01*
X192550825Y-136686894D01*
X192718878Y-136667959D01*
X192718881Y-136667958D01*
X192878512Y-136612101D01*
X192878514Y-136612099D01*
X192878516Y-136612099D01*
X192878519Y-136612097D01*
X193021706Y-136522126D01*
X193021707Y-136522125D01*
X193021712Y-136522122D01*
X193141299Y-136402535D01*
X193167214Y-136361292D01*
X193231274Y-136259342D01*
X193231276Y-136259339D01*
X193231276Y-136259337D01*
X193231278Y-136259335D01*
X193287135Y-136099704D01*
X193287135Y-136099703D01*
X193287136Y-136099701D01*
X193306071Y-135931647D01*
X193306071Y-135931642D01*
X193287136Y-135763588D01*
X193231276Y-135603950D01*
X193231274Y-135603947D01*
X193141303Y-135460760D01*
X193141298Y-135460754D01*
X193021712Y-135341168D01*
X193021706Y-135341163D01*
X192878519Y-135251192D01*
X192878516Y-135251190D01*
X192718878Y-135195330D01*
X192550825Y-135176396D01*
X192550819Y-135176396D01*
X192382765Y-135195330D01*
X192223127Y-135251190D01*
X192223124Y-135251192D01*
X192079937Y-135341163D01*
X192079931Y-135341168D01*
X191960345Y-135460754D01*
X191960340Y-135460760D01*
X191870369Y-135603947D01*
X191870367Y-135603950D01*
X191814507Y-135763588D01*
X191795573Y-135931642D01*
X191795573Y-135931647D01*
X188422594Y-135931647D01*
X188425153Y-135887710D01*
X188394687Y-135714934D01*
X188325199Y-135553841D01*
X188324114Y-135552384D01*
X188220431Y-135413114D01*
X188086036Y-135300343D01*
X188086034Y-135300342D01*
X187929259Y-135221606D01*
X187929255Y-135221605D01*
X187758543Y-135181145D01*
X187227113Y-135181145D01*
X187122676Y-135193352D01*
X187096565Y-135196404D01*
X187096562Y-135196405D01*
X186931706Y-135256407D01*
X186931702Y-135256409D01*
X186785128Y-135352812D01*
X186785127Y-135352813D01*
X186664732Y-135480423D01*
X186577010Y-135632363D01*
X186526692Y-135800434D01*
X186526691Y-135800439D01*
X186516490Y-135975578D01*
X179662081Y-135975578D01*
X180295579Y-135342078D01*
X180356900Y-135308595D01*
X180367053Y-135306825D01*
X180456219Y-135295087D01*
X180590135Y-135239618D01*
X180705131Y-135151378D01*
X180793371Y-135036382D01*
X180848840Y-134902466D01*
X180867760Y-134758757D01*
X180848840Y-134615048D01*
X180793371Y-134481132D01*
X180705131Y-134366136D01*
X180590135Y-134277896D01*
X180590134Y-134277895D01*
X180590132Y-134277894D01*
X180456222Y-134222428D01*
X180456220Y-134222427D01*
X180456219Y-134222427D01*
X180384364Y-134212967D01*
X180312511Y-134203507D01*
X180312509Y-134203507D01*
X180168801Y-134222427D01*
X180168797Y-134222428D01*
X180034887Y-134277894D01*
X179919889Y-134366136D01*
X179831647Y-134481134D01*
X179776181Y-134615044D01*
X179776180Y-134615048D01*
X179764443Y-134704194D01*
X179736176Y-134768090D01*
X179729185Y-134775688D01*
X178908448Y-135596426D01*
X178847125Y-135629911D01*
X178820767Y-135632745D01*
X178395668Y-135632745D01*
X178328629Y-135613060D01*
X178320182Y-135607121D01*
X178248847Y-135552384D01*
X178248845Y-135552383D01*
X178114934Y-135496916D01*
X178114932Y-135496915D01*
X178114931Y-135496915D01*
X177989695Y-135480427D01*
X177971223Y-135477995D01*
X177971221Y-135477995D01*
X177827513Y-135496915D01*
X177827509Y-135496916D01*
X177693599Y-135552382D01*
X177578601Y-135640624D01*
X177490359Y-135755622D01*
X177434893Y-135889532D01*
X177434892Y-135889536D01*
X177417823Y-136019189D01*
X177415972Y-136033245D01*
X170599322Y-136033245D01*
X170599322Y-131647452D01*
X170619007Y-131580413D01*
X170624938Y-131571976D01*
X170708583Y-131462970D01*
X170764052Y-131329054D01*
X170782972Y-131185345D01*
X174241156Y-131185345D01*
X174260934Y-131335579D01*
X174260935Y-131335581D01*
X174318922Y-131475575D01*
X174322986Y-131482613D01*
X174321227Y-131483628D01*
X174342490Y-131538616D01*
X174328457Y-131607062D01*
X174296253Y-131642704D01*
X174296754Y-131643205D01*
X174288117Y-131651841D01*
X174254856Y-131701620D01*
X174254853Y-131701627D01*
X174246122Y-131745522D01*
X174246122Y-131745525D01*
X174246122Y-132625165D01*
X174246122Y-132625167D01*
X174246121Y-132625167D01*
X174254853Y-132669062D01*
X174254854Y-132669066D01*
X174254855Y-132669067D01*
X174288118Y-132718849D01*
X174337900Y-132752112D01*
X174337903Y-132752112D01*
X174337904Y-132752113D01*
X174381799Y-132760845D01*
X174381802Y-132760845D01*
X175261444Y-132760845D01*
X175305339Y-132752113D01*
X175305339Y-132752112D01*
X175305344Y-132752112D01*
X175355126Y-132718849D01*
X175388389Y-132669067D01*
X175397122Y-132625165D01*
X175397122Y-131745525D01*
X175397122Y-131745522D01*
X175388390Y-131701627D01*
X175388389Y-131701626D01*
X175388389Y-131701623D01*
X175355126Y-131651841D01*
X175346490Y-131643205D01*
X175347336Y-131642358D01*
X175310626Y-131598432D01*
X175301919Y-131529107D01*
X175321651Y-131483417D01*
X175320258Y-131482613D01*
X175324317Y-131475581D01*
X175324320Y-131475578D01*
X175382309Y-131335581D01*
X175402088Y-131185345D01*
X175399741Y-131167521D01*
X175382309Y-131035110D01*
X175382309Y-131035109D01*
X175324320Y-130895112D01*
X175232073Y-130774894D01*
X175111855Y-130682647D01*
X175111851Y-130682645D01*
X174971858Y-130624658D01*
X174971856Y-130624657D01*
X174821623Y-130604879D01*
X174821621Y-130604879D01*
X174671387Y-130624657D01*
X174671385Y-130624658D01*
X174531392Y-130682645D01*
X174531389Y-130682646D01*
X174531389Y-130682647D01*
X174411171Y-130774894D01*
X174322182Y-130890867D01*
X174318922Y-130895115D01*
X174260935Y-131035108D01*
X174260934Y-131035110D01*
X174241156Y-131185344D01*
X174241156Y-131185345D01*
X170782972Y-131185345D01*
X170764052Y-131041636D01*
X170708583Y-130907720D01*
X170620343Y-130792724D01*
X170505347Y-130704484D01*
X170505346Y-130704483D01*
X170505344Y-130704482D01*
X170371434Y-130649016D01*
X170371432Y-130649015D01*
X170371431Y-130649015D01*
X170299576Y-130639555D01*
X170227723Y-130630095D01*
X170227721Y-130630095D01*
X170084013Y-130649015D01*
X170084009Y-130649016D01*
X169950099Y-130704482D01*
X169835101Y-130792724D01*
X169746859Y-130907722D01*
X169691393Y-131041632D01*
X169691392Y-131041636D01*
X169672472Y-131185344D01*
X169672472Y-131185345D01*
X169691392Y-131329053D01*
X169691393Y-131329057D01*
X169746860Y-131462968D01*
X169746861Y-131462971D01*
X169772696Y-131496638D01*
X169797892Y-131561807D01*
X169798322Y-131572126D01*
X169798322Y-136019189D01*
X169778637Y-136086228D01*
X169762003Y-136106870D01*
X169453752Y-136415120D01*
X169392429Y-136448605D01*
X169382258Y-136450378D01*
X169293111Y-136462115D01*
X169159199Y-136517582D01*
X169044201Y-136605824D01*
X168955959Y-136720822D01*
X168900493Y-136854732D01*
X168900492Y-136854736D01*
X168881572Y-136998444D01*
X168881572Y-136998445D01*
X147000500Y-136998445D01*
X147000500Y-130546845D01*
X151138192Y-130546845D01*
X151158266Y-130763486D01*
X151217810Y-130972763D01*
X151314786Y-131167518D01*
X151314788Y-131167520D01*
X151326923Y-131183589D01*
X151901787Y-130608726D01*
X151912799Y-130678250D01*
X151973200Y-130796792D01*
X152067275Y-130890867D01*
X152185817Y-130951268D01*
X152255340Y-130962279D01*
X151682779Y-131534838D01*
X151791684Y-131602269D01*
X151791685Y-131602270D01*
X151994562Y-131680864D01*
X152208437Y-131720845D01*
X152426007Y-131720845D01*
X152639881Y-131680864D01*
X152842760Y-131602269D01*
X152842761Y-131602268D01*
X152951663Y-131534838D01*
X152379104Y-130962279D01*
X152448627Y-130951268D01*
X152567169Y-130890867D01*
X152661244Y-130796792D01*
X152721645Y-130678250D01*
X152732656Y-130608726D01*
X153307519Y-131183589D01*
X153307520Y-131183589D01*
X153319652Y-131167526D01*
X153319655Y-131167521D01*
X153416633Y-130972763D01*
X153476177Y-130763486D01*
X153496252Y-130546845D01*
X154028180Y-130546845D01*
X154046297Y-130719213D01*
X154046298Y-130719216D01*
X154099852Y-130884044D01*
X154113523Y-130907722D01*
X154186513Y-131034144D01*
X154302485Y-131162943D01*
X154333319Y-131185345D01*
X154442701Y-131264816D01*
X154601028Y-131335309D01*
X154601031Y-131335309D01*
X154601034Y-131335311D01*
X154770564Y-131371345D01*
X154943880Y-131371345D01*
X155113410Y-131335311D01*
X155113413Y-131335309D01*
X155113415Y-131335309D01*
X155166748Y-131311563D01*
X155271743Y-131264816D01*
X155411959Y-131162943D01*
X155527931Y-131034144D01*
X155614590Y-130884047D01*
X155668147Y-130719213D01*
X155686264Y-130546845D01*
X156568180Y-130546845D01*
X156586297Y-130719213D01*
X156586298Y-130719216D01*
X156639852Y-130884044D01*
X156653523Y-130907722D01*
X156726513Y-131034144D01*
X156842485Y-131162943D01*
X156873319Y-131185345D01*
X156982701Y-131264816D01*
X157141028Y-131335309D01*
X157141031Y-131335309D01*
X157141034Y-131335311D01*
X157310564Y-131371345D01*
X157483880Y-131371345D01*
X157653410Y-131335311D01*
X157653413Y-131335309D01*
X157653415Y-131335309D01*
X157706748Y-131311563D01*
X157811743Y-131264816D01*
X157851863Y-131235667D01*
X159112721Y-131235667D01*
X159121453Y-131279562D01*
X159121454Y-131279566D01*
X159121455Y-131279567D01*
X159154718Y-131329349D01*
X159204500Y-131362612D01*
X159204503Y-131362612D01*
X159204504Y-131362613D01*
X159248399Y-131371345D01*
X159248402Y-131371345D01*
X160626044Y-131371345D01*
X160669939Y-131362613D01*
X160669939Y-131362612D01*
X160669944Y-131362612D01*
X160719726Y-131329349D01*
X160752989Y-131279567D01*
X160761722Y-131235665D01*
X160761722Y-129858025D01*
X160761722Y-129858022D01*
X160752990Y-129814127D01*
X160752989Y-129814126D01*
X160752989Y-129814123D01*
X160719726Y-129764341D01*
X160710805Y-129758380D01*
X160669946Y-129731079D01*
X160669939Y-129731076D01*
X160626044Y-129722345D01*
X160626042Y-129722345D01*
X159248402Y-129722345D01*
X159248400Y-129722345D01*
X159204504Y-129731076D01*
X159204497Y-129731079D01*
X159154718Y-129764340D01*
X159154717Y-129764341D01*
X159121456Y-129814120D01*
X159121453Y-129814127D01*
X159112722Y-129858022D01*
X159112722Y-129858025D01*
X159112722Y-131235665D01*
X159112722Y-131235667D01*
X159112721Y-131235667D01*
X157851863Y-131235667D01*
X157951959Y-131162943D01*
X158067931Y-131034144D01*
X158154590Y-130884047D01*
X158208147Y-130719213D01*
X158226264Y-130546845D01*
X158208147Y-130374477D01*
X158154590Y-130209643D01*
X158067931Y-130059546D01*
X157951959Y-129930747D01*
X157811743Y-129828874D01*
X157811742Y-129828873D01*
X157653415Y-129758380D01*
X157653407Y-129758378D01*
X157483880Y-129722345D01*
X157310564Y-129722345D01*
X157141036Y-129758378D01*
X157141028Y-129758380D01*
X156982701Y-129828873D01*
X156848787Y-129926168D01*
X156842485Y-129930747D01*
X156726513Y-130059546D01*
X156726511Y-130059547D01*
X156726510Y-130059550D01*
X156639852Y-130209645D01*
X156600682Y-130330203D01*
X156586297Y-130374477D01*
X156568180Y-130546845D01*
X155686264Y-130546845D01*
X155668147Y-130374477D01*
X155614590Y-130209643D01*
X155527931Y-130059546D01*
X155411959Y-129930747D01*
X155271743Y-129828874D01*
X155271742Y-129828873D01*
X155113415Y-129758380D01*
X155113407Y-129758378D01*
X154943880Y-129722345D01*
X154770564Y-129722345D01*
X154601036Y-129758378D01*
X154601028Y-129758380D01*
X154442701Y-129828873D01*
X154308787Y-129926168D01*
X154302485Y-129930747D01*
X154186513Y-130059546D01*
X154186511Y-130059547D01*
X154186510Y-130059550D01*
X154099852Y-130209645D01*
X154060682Y-130330203D01*
X154046297Y-130374477D01*
X154028180Y-130546845D01*
X153496252Y-130546845D01*
X153496252Y-130546844D01*
X153476177Y-130330203D01*
X153416633Y-130120926D01*
X153319654Y-129926168D01*
X153319652Y-129926165D01*
X153307518Y-129910098D01*
X152732656Y-130484962D01*
X152721645Y-130415440D01*
X152661244Y-130296898D01*
X152567169Y-130202823D01*
X152448627Y-130142422D01*
X152379103Y-130131410D01*
X152951663Y-129558850D01*
X152951662Y-129558849D01*
X152842764Y-129491422D01*
X152842758Y-129491419D01*
X152639881Y-129412825D01*
X152426007Y-129372845D01*
X152208437Y-129372845D01*
X151994562Y-129412825D01*
X151791685Y-129491419D01*
X151791679Y-129491423D01*
X151682780Y-129558849D01*
X151682779Y-129558850D01*
X152255340Y-130131410D01*
X152185817Y-130142422D01*
X152067275Y-130202823D01*
X151973200Y-130296898D01*
X151912799Y-130415440D01*
X151901787Y-130484962D01*
X151326923Y-129910098D01*
X151314794Y-129926159D01*
X151314786Y-129926172D01*
X151217810Y-130120926D01*
X151158266Y-130330203D01*
X151138192Y-130546844D01*
X151138192Y-130546845D01*
X147000500Y-130546845D01*
X147000500Y-126482845D01*
X182198281Y-126482845D01*
X182217597Y-126678974D01*
X182217598Y-126678977D01*
X182257763Y-126811384D01*
X182274810Y-126867578D01*
X182367708Y-127041377D01*
X182367712Y-127041384D01*
X182492738Y-127193728D01*
X182645082Y-127318754D01*
X182645089Y-127318758D01*
X182818888Y-127411656D01*
X182818891Y-127411656D01*
X182818895Y-127411659D01*
X183007490Y-127468869D01*
X183203622Y-127488186D01*
X183399754Y-127468869D01*
X183588349Y-127411659D01*
X183762160Y-127318755D01*
X183914505Y-127193728D01*
X184039532Y-127041383D01*
X184132436Y-126867572D01*
X184189646Y-126678977D01*
X184208963Y-126482845D01*
X184189646Y-126286713D01*
X184179372Y-126252845D01*
X188548281Y-126252845D01*
X188567597Y-126448974D01*
X188624810Y-126637578D01*
X188717708Y-126811377D01*
X188717712Y-126811384D01*
X188842738Y-126963728D01*
X188995082Y-127088754D01*
X188995089Y-127088758D01*
X189168888Y-127181656D01*
X189168891Y-127181656D01*
X189168895Y-127181659D01*
X189357490Y-127238869D01*
X189553622Y-127258186D01*
X189749754Y-127238869D01*
X189938349Y-127181659D01*
X190112160Y-127088755D01*
X190264505Y-126963728D01*
X190389532Y-126811383D01*
X190482436Y-126637572D01*
X190500961Y-126576500D01*
X190539259Y-126518063D01*
X190603071Y-126489607D01*
X190672138Y-126500167D01*
X190724532Y-126546391D01*
X190743622Y-126612497D01*
X190743622Y-127150689D01*
X190750023Y-127210217D01*
X190750025Y-127210224D01*
X190800267Y-127344931D01*
X190800271Y-127344938D01*
X190886431Y-127460032D01*
X190886434Y-127460035D01*
X191001528Y-127546195D01*
X191001535Y-127546199D01*
X191136242Y-127596441D01*
X191136249Y-127596443D01*
X191195777Y-127602844D01*
X191195794Y-127602845D01*
X191843622Y-127602845D01*
X191843622Y-126699339D01*
X191948461Y-126747218D01*
X192057149Y-126762845D01*
X192130095Y-126762845D01*
X192238783Y-126747218D01*
X192343622Y-126699339D01*
X192343622Y-127602845D01*
X192991450Y-127602845D01*
X192991466Y-127602844D01*
X193050994Y-127596443D01*
X193051001Y-127596441D01*
X193185708Y-127546199D01*
X193185715Y-127546195D01*
X193300809Y-127460035D01*
X193300812Y-127460032D01*
X193386972Y-127344938D01*
X193386976Y-127344931D01*
X193437218Y-127210224D01*
X193437220Y-127210217D01*
X193443621Y-127150689D01*
X193443622Y-127150672D01*
X193443622Y-126612497D01*
X193463307Y-126545458D01*
X193516111Y-126499703D01*
X193585269Y-126489759D01*
X193648825Y-126518784D01*
X193686282Y-126576500D01*
X193697202Y-126612497D01*
X193704809Y-126637576D01*
X193797708Y-126811377D01*
X193797712Y-126811384D01*
X193922738Y-126963728D01*
X194075082Y-127088754D01*
X194075089Y-127088758D01*
X194248888Y-127181656D01*
X194248891Y-127181656D01*
X194248895Y-127181659D01*
X194437490Y-127238869D01*
X194633622Y-127258186D01*
X194829754Y-127238869D01*
X195018349Y-127181659D01*
X195192160Y-127088755D01*
X195344505Y-126963728D01*
X195469532Y-126811383D01*
X195515984Y-126724477D01*
X195562433Y-126637578D01*
X195562434Y-126637576D01*
X195562436Y-126637572D01*
X195609372Y-126482845D01*
X199978281Y-126482845D01*
X199997597Y-126678974D01*
X199997598Y-126678977D01*
X200037763Y-126811384D01*
X200054810Y-126867578D01*
X200147708Y-127041377D01*
X200147712Y-127041384D01*
X200272738Y-127193728D01*
X200425082Y-127318754D01*
X200425089Y-127318758D01*
X200598888Y-127411656D01*
X200598891Y-127411656D01*
X200598895Y-127411659D01*
X200787490Y-127468869D01*
X200983622Y-127488186D01*
X201179754Y-127468869D01*
X201368349Y-127411659D01*
X201542160Y-127318755D01*
X201694505Y-127193728D01*
X201819532Y-127041383D01*
X201912436Y-126867572D01*
X201969646Y-126678977D01*
X201988963Y-126482845D01*
X201969646Y-126286713D01*
X201912436Y-126098118D01*
X201912433Y-126098114D01*
X201912433Y-126098111D01*
X201819535Y-125924312D01*
X201819531Y-125924305D01*
X201694505Y-125771961D01*
X201542161Y-125646935D01*
X201542154Y-125646931D01*
X201368355Y-125554033D01*
X201368349Y-125554031D01*
X201179754Y-125496821D01*
X201179751Y-125496820D01*
X200983622Y-125477504D01*
X200787492Y-125496820D01*
X200598888Y-125554033D01*
X200425089Y-125646931D01*
X200425082Y-125646935D01*
X200272738Y-125771961D01*
X200147712Y-125924305D01*
X200147708Y-125924312D01*
X200054810Y-126098111D01*
X199997597Y-126286715D01*
X199978281Y-126482845D01*
X195609372Y-126482845D01*
X195619646Y-126448977D01*
X195638963Y-126252845D01*
X195619646Y-126056713D01*
X195562436Y-125868118D01*
X195562433Y-125868114D01*
X195562433Y-125868111D01*
X195469535Y-125694312D01*
X195469531Y-125694305D01*
X195344505Y-125541961D01*
X195192161Y-125416935D01*
X195192154Y-125416931D01*
X195018355Y-125324033D01*
X195018349Y-125324031D01*
X194829754Y-125266821D01*
X194829751Y-125266820D01*
X194633622Y-125247504D01*
X194437492Y-125266820D01*
X194248888Y-125324033D01*
X194075089Y-125416931D01*
X194075082Y-125416935D01*
X193922738Y-125541961D01*
X193797712Y-125694305D01*
X193797708Y-125694312D01*
X193704808Y-125868116D01*
X193686282Y-125929188D01*
X193647985Y-125987626D01*
X193584172Y-126016083D01*
X193515105Y-126005522D01*
X193462712Y-125959297D01*
X193443622Y-125893192D01*
X193443622Y-125355017D01*
X193443621Y-125355000D01*
X193437220Y-125295472D01*
X193437218Y-125295465D01*
X193386976Y-125160758D01*
X193386972Y-125160751D01*
X193300812Y-125045657D01*
X193300809Y-125045654D01*
X193185715Y-124959494D01*
X193185708Y-124959490D01*
X193051001Y-124909248D01*
X193050994Y-124909246D01*
X192991466Y-124902845D01*
X192343622Y-124902845D01*
X192343622Y-125806350D01*
X192238783Y-125758472D01*
X192130095Y-125742845D01*
X192057149Y-125742845D01*
X191948461Y-125758472D01*
X191843622Y-125806350D01*
X191843622Y-124902845D01*
X191195777Y-124902845D01*
X191136249Y-124909246D01*
X191136242Y-124909248D01*
X191001535Y-124959490D01*
X191001528Y-124959494D01*
X190886434Y-125045654D01*
X190886431Y-125045657D01*
X190800271Y-125160751D01*
X190800267Y-125160758D01*
X190750025Y-125295465D01*
X190750023Y-125295472D01*
X190743622Y-125355000D01*
X190743622Y-125893192D01*
X190723937Y-125960231D01*
X190671133Y-126005986D01*
X190601975Y-126015930D01*
X190538419Y-125986905D01*
X190500962Y-125929188D01*
X190482435Y-125868116D01*
X190389535Y-125694312D01*
X190389531Y-125694305D01*
X190264505Y-125541961D01*
X190112161Y-125416935D01*
X190112154Y-125416931D01*
X189938355Y-125324033D01*
X189938349Y-125324031D01*
X189749754Y-125266821D01*
X189749751Y-125266820D01*
X189553622Y-125247504D01*
X189357492Y-125266820D01*
X189168888Y-125324033D01*
X188995089Y-125416931D01*
X188995082Y-125416935D01*
X188842738Y-125541961D01*
X188717712Y-125694305D01*
X188717708Y-125694312D01*
X188624810Y-125868111D01*
X188567597Y-126056715D01*
X188548281Y-126252845D01*
X184179372Y-126252845D01*
X184132436Y-126098118D01*
X184132433Y-126098114D01*
X184132433Y-126098111D01*
X184039535Y-125924312D01*
X184039531Y-125924305D01*
X183914505Y-125771961D01*
X183762161Y-125646935D01*
X183762154Y-125646931D01*
X183588355Y-125554033D01*
X183588349Y-125554031D01*
X183399754Y-125496821D01*
X183399751Y-125496820D01*
X183203622Y-125477504D01*
X183007492Y-125496820D01*
X182818888Y-125554033D01*
X182645089Y-125646931D01*
X182645082Y-125646935D01*
X182492738Y-125771961D01*
X182367712Y-125924305D01*
X182367708Y-125924312D01*
X182274810Y-126098111D01*
X182217597Y-126286715D01*
X182198281Y-126482845D01*
X147000500Y-126482845D01*
X147000500Y-121606045D01*
X153844772Y-121606045D01*
X153863692Y-121749753D01*
X153863693Y-121749757D01*
X153919159Y-121883667D01*
X153919160Y-121883669D01*
X153919161Y-121883670D01*
X154007401Y-121998666D01*
X154122397Y-122086906D01*
X154256313Y-122142375D01*
X154383302Y-122159093D01*
X154400021Y-122161295D01*
X154400022Y-122161295D01*
X154400023Y-122161295D01*
X154414999Y-122159323D01*
X154543731Y-122142375D01*
X154603583Y-122117584D01*
X154651035Y-122108145D01*
X156095076Y-122108145D01*
X156162115Y-122127830D01*
X156170562Y-122133769D01*
X156181778Y-122142375D01*
X156241897Y-122188506D01*
X156375813Y-122243975D01*
X156502802Y-122260693D01*
X156519521Y-122262895D01*
X156519522Y-122262895D01*
X156519523Y-122262895D01*
X156534499Y-122260923D01*
X156663231Y-122243975D01*
X156797147Y-122188506D01*
X156912143Y-122100266D01*
X157000383Y-121985270D01*
X157055852Y-121851354D01*
X157074772Y-121707645D01*
X157073562Y-121698458D01*
X157067557Y-121652845D01*
X157055852Y-121563936D01*
X157000383Y-121430020D01*
X156912143Y-121315024D01*
X156797147Y-121226784D01*
X156797146Y-121226783D01*
X156797144Y-121226782D01*
X156663234Y-121171316D01*
X156663232Y-121171315D01*
X156663231Y-121171315D01*
X156591376Y-121161855D01*
X156519523Y-121152395D01*
X156519521Y-121152395D01*
X156375813Y-121171315D01*
X156375809Y-121171316D01*
X156241898Y-121226783D01*
X156241896Y-121226784D01*
X156170562Y-121281521D01*
X156105393Y-121306715D01*
X156095076Y-121307145D01*
X154925708Y-121307145D01*
X154858669Y-121287460D01*
X154827333Y-121258632D01*
X154810330Y-121236474D01*
X154792643Y-121213424D01*
X154677647Y-121125184D01*
X154677646Y-121125183D01*
X154677644Y-121125182D01*
X154612140Y-121098050D01*
X169937338Y-121098050D01*
X169956839Y-121333392D01*
X170014813Y-121562328D01*
X170109676Y-121778594D01*
X170197971Y-121913740D01*
X170792451Y-121319262D01*
X170806331Y-121361980D01*
X170889590Y-121493176D01*
X171002861Y-121599545D01*
X171139026Y-121674402D01*
X171143315Y-121675503D01*
X170550608Y-122268210D01*
X170550608Y-122268212D01*
X170585141Y-122295090D01*
X170585147Y-122295094D01*
X170792843Y-122407494D01*
X170792851Y-122407497D01*
X171016203Y-122484174D01*
X171249143Y-122523045D01*
X171485301Y-122523045D01*
X171718240Y-122484174D01*
X171941592Y-122407497D01*
X171941610Y-122407490D01*
X172138959Y-122300689D01*
X181853622Y-122300689D01*
X181860023Y-122360217D01*
X181860025Y-122360224D01*
X181910267Y-122494931D01*
X181910271Y-122494938D01*
X181996431Y-122610032D01*
X181996434Y-122610035D01*
X182111528Y-122696195D01*
X182111535Y-122696199D01*
X182246242Y-122746441D01*
X182246249Y-122746443D01*
X182305777Y-122752844D01*
X182305794Y-122752845D01*
X182843970Y-122752845D01*
X182911009Y-122772530D01*
X182956764Y-122825334D01*
X182966708Y-122894492D01*
X182937683Y-122958048D01*
X182879966Y-122995505D01*
X182850252Y-123004518D01*
X182818890Y-123014032D01*
X182645089Y-123106931D01*
X182645082Y-123106935D01*
X182492738Y-123231961D01*
X182367712Y-123384305D01*
X182367708Y-123384312D01*
X182274810Y-123558111D01*
X182217597Y-123746715D01*
X182198281Y-123942845D01*
X182217597Y-124138974D01*
X182274810Y-124327578D01*
X182367708Y-124501377D01*
X182367712Y-124501384D01*
X182492738Y-124653728D01*
X182645082Y-124778754D01*
X182645089Y-124778758D01*
X182818888Y-124871656D01*
X182818891Y-124871656D01*
X182818895Y-124871659D01*
X183007490Y-124928869D01*
X183203622Y-124948186D01*
X183399754Y-124928869D01*
X183588349Y-124871659D01*
X183762160Y-124778755D01*
X183914505Y-124653728D01*
X184039532Y-124501383D01*
X184132436Y-124327572D01*
X184189646Y-124138977D01*
X184208963Y-123942845D01*
X184189646Y-123746713D01*
X184132436Y-123558118D01*
X184132433Y-123558114D01*
X184132433Y-123558111D01*
X184039535Y-123384312D01*
X184039531Y-123384305D01*
X183914505Y-123231961D01*
X183762161Y-123106935D01*
X183762154Y-123106931D01*
X183588353Y-123014032D01*
X183569812Y-123008407D01*
X183527277Y-122995505D01*
X183468840Y-122957208D01*
X183440384Y-122893396D01*
X183450944Y-122824329D01*
X183497168Y-122771935D01*
X183563274Y-122752845D01*
X184101450Y-122752845D01*
X184101466Y-122752844D01*
X184160994Y-122746443D01*
X184161001Y-122746441D01*
X184295708Y-122696199D01*
X184295715Y-122696195D01*
X184410809Y-122610035D01*
X184410812Y-122610032D01*
X184496972Y-122494938D01*
X184496976Y-122494931D01*
X184547218Y-122360224D01*
X184547220Y-122360217D01*
X184553621Y-122300689D01*
X199633622Y-122300689D01*
X199640023Y-122360217D01*
X199640025Y-122360224D01*
X199690267Y-122494931D01*
X199690271Y-122494938D01*
X199776431Y-122610032D01*
X199776434Y-122610035D01*
X199891528Y-122696195D01*
X199891535Y-122696199D01*
X200026242Y-122746441D01*
X200026249Y-122746443D01*
X200085777Y-122752844D01*
X200085794Y-122752845D01*
X200623970Y-122752845D01*
X200691009Y-122772530D01*
X200736764Y-122825334D01*
X200746708Y-122894492D01*
X200717683Y-122958048D01*
X200659966Y-122995505D01*
X200630252Y-123004518D01*
X200598890Y-123014032D01*
X200425089Y-123106931D01*
X200425082Y-123106935D01*
X200272738Y-123231961D01*
X200147712Y-123384305D01*
X200147708Y-123384312D01*
X200054810Y-123558111D01*
X199997597Y-123746715D01*
X199978281Y-123942845D01*
X199997597Y-124138974D01*
X200054810Y-124327578D01*
X200147708Y-124501377D01*
X200147712Y-124501384D01*
X200272738Y-124653728D01*
X200425082Y-124778754D01*
X200425089Y-124778758D01*
X200598888Y-124871656D01*
X200598891Y-124871656D01*
X200598895Y-124871659D01*
X200787490Y-124928869D01*
X200983622Y-124948186D01*
X201179754Y-124928869D01*
X201368349Y-124871659D01*
X201542160Y-124778755D01*
X201694505Y-124653728D01*
X201819532Y-124501383D01*
X201912436Y-124327572D01*
X201969646Y-124138977D01*
X201988963Y-123942845D01*
X201969646Y-123746713D01*
X201912436Y-123558118D01*
X201912433Y-123558114D01*
X201912433Y-123558111D01*
X201819535Y-123384312D01*
X201819531Y-123384305D01*
X201694505Y-123231961D01*
X201542161Y-123106935D01*
X201542154Y-123106931D01*
X201368353Y-123014032D01*
X201349812Y-123008407D01*
X201307277Y-122995505D01*
X201248840Y-122957208D01*
X201220384Y-122893396D01*
X201230944Y-122824329D01*
X201277168Y-122771935D01*
X201343274Y-122752845D01*
X201881450Y-122752845D01*
X201881466Y-122752844D01*
X201940994Y-122746443D01*
X201941001Y-122746441D01*
X202075708Y-122696199D01*
X202075715Y-122696195D01*
X202190809Y-122610035D01*
X202190812Y-122610032D01*
X202276972Y-122494938D01*
X202276976Y-122494931D01*
X202327218Y-122360224D01*
X202327220Y-122360217D01*
X202333621Y-122300689D01*
X202333622Y-122300672D01*
X202333622Y-121652845D01*
X201429194Y-121652845D01*
X201452304Y-121616885D01*
X201493622Y-121476172D01*
X201493622Y-121329518D01*
X201452304Y-121188805D01*
X201429194Y-121152845D01*
X202333622Y-121152845D01*
X202333622Y-120505017D01*
X202333621Y-120505000D01*
X202327220Y-120445472D01*
X202327218Y-120445465D01*
X202276976Y-120310758D01*
X202276972Y-120310751D01*
X202190812Y-120195657D01*
X202190809Y-120195654D01*
X202075715Y-120109494D01*
X202075708Y-120109490D01*
X201941001Y-120059248D01*
X201940994Y-120059246D01*
X201881466Y-120052845D01*
X201343274Y-120052845D01*
X201276235Y-120033160D01*
X201230480Y-119980356D01*
X201220536Y-119911198D01*
X201249561Y-119847642D01*
X201307277Y-119810184D01*
X201368349Y-119791659D01*
X201374082Y-119788595D01*
X201445666Y-119750332D01*
X201542160Y-119698755D01*
X201694505Y-119573728D01*
X201819532Y-119421383D01*
X201912436Y-119247572D01*
X201969646Y-119058977D01*
X201988963Y-118862845D01*
X201969646Y-118666713D01*
X201912436Y-118478118D01*
X201912433Y-118478114D01*
X201912433Y-118478111D01*
X201819535Y-118304312D01*
X201819531Y-118304305D01*
X201694505Y-118151961D01*
X201542161Y-118026935D01*
X201542154Y-118026931D01*
X201368355Y-117934033D01*
X201368349Y-117934031D01*
X201179754Y-117876821D01*
X201179751Y-117876820D01*
X200983622Y-117857504D01*
X200787492Y-117876820D01*
X200598888Y-117934033D01*
X200425089Y-118026931D01*
X200425082Y-118026935D01*
X200272738Y-118151961D01*
X200147712Y-118304305D01*
X200147708Y-118304312D01*
X200054810Y-118478111D01*
X199997597Y-118666715D01*
X199978281Y-118862845D01*
X199997597Y-119058974D01*
X200054810Y-119247578D01*
X200147708Y-119421377D01*
X200147712Y-119421384D01*
X200272738Y-119573728D01*
X200425082Y-119698754D01*
X200425089Y-119698758D01*
X200598890Y-119791657D01*
X200598892Y-119791657D01*
X200598895Y-119791659D01*
X200659966Y-119810184D01*
X200718404Y-119848482D01*
X200746860Y-119912294D01*
X200736300Y-119981361D01*
X200690076Y-120033755D01*
X200623970Y-120052845D01*
X200085777Y-120052845D01*
X200026249Y-120059246D01*
X200026242Y-120059248D01*
X199891535Y-120109490D01*
X199891528Y-120109494D01*
X199776434Y-120195654D01*
X199776431Y-120195657D01*
X199690271Y-120310751D01*
X199690267Y-120310758D01*
X199640025Y-120445465D01*
X199640023Y-120445472D01*
X199633622Y-120505000D01*
X199633622Y-121152845D01*
X200538050Y-121152845D01*
X200514940Y-121188805D01*
X200473622Y-121329518D01*
X200473622Y-121476172D01*
X200514940Y-121616885D01*
X200538050Y-121652845D01*
X199633622Y-121652845D01*
X199633622Y-122300689D01*
X184553621Y-122300689D01*
X184553622Y-122300672D01*
X184553622Y-121652845D01*
X183649194Y-121652845D01*
X183672304Y-121616885D01*
X183713622Y-121476172D01*
X183713622Y-121329518D01*
X183672304Y-121188805D01*
X183649194Y-121152845D01*
X184553622Y-121152845D01*
X184553622Y-120505017D01*
X184553621Y-120505000D01*
X184547220Y-120445472D01*
X184547218Y-120445465D01*
X184496976Y-120310758D01*
X184496972Y-120310751D01*
X184410812Y-120195657D01*
X184410809Y-120195654D01*
X184295715Y-120109494D01*
X184295708Y-120109490D01*
X184161001Y-120059248D01*
X184160994Y-120059246D01*
X184101466Y-120052845D01*
X183563274Y-120052845D01*
X183496235Y-120033160D01*
X183450480Y-119980356D01*
X183440536Y-119911198D01*
X183469561Y-119847642D01*
X183527277Y-119810184D01*
X183588349Y-119791659D01*
X183594082Y-119788595D01*
X183665666Y-119750332D01*
X183762160Y-119698755D01*
X183914505Y-119573728D01*
X184039532Y-119421383D01*
X184132436Y-119247572D01*
X184189646Y-119058977D01*
X184208963Y-118862845D01*
X184189646Y-118666713D01*
X184132436Y-118478118D01*
X184132433Y-118478114D01*
X184132433Y-118478111D01*
X184039535Y-118304312D01*
X184039531Y-118304305D01*
X183914505Y-118151961D01*
X183762161Y-118026935D01*
X183762154Y-118026931D01*
X183588355Y-117934033D01*
X183588349Y-117934031D01*
X183399754Y-117876821D01*
X183399751Y-117876820D01*
X183203622Y-117857504D01*
X183007492Y-117876820D01*
X182818888Y-117934033D01*
X182645089Y-118026931D01*
X182645082Y-118026935D01*
X182492738Y-118151961D01*
X182367712Y-118304305D01*
X182367708Y-118304312D01*
X182274810Y-118478111D01*
X182217597Y-118666715D01*
X182198281Y-118862845D01*
X182217597Y-119058974D01*
X182274810Y-119247578D01*
X182367708Y-119421377D01*
X182367712Y-119421384D01*
X182492738Y-119573728D01*
X182645082Y-119698754D01*
X182645089Y-119698758D01*
X182818890Y-119791657D01*
X182818892Y-119791657D01*
X182818895Y-119791659D01*
X182879966Y-119810184D01*
X182938404Y-119848482D01*
X182966860Y-119912294D01*
X182956300Y-119981361D01*
X182910076Y-120033755D01*
X182843970Y-120052845D01*
X182305777Y-120052845D01*
X182246249Y-120059246D01*
X182246242Y-120059248D01*
X182111535Y-120109490D01*
X182111528Y-120109494D01*
X181996434Y-120195654D01*
X181996431Y-120195657D01*
X181910271Y-120310751D01*
X181910267Y-120310758D01*
X181860025Y-120445465D01*
X181860023Y-120445472D01*
X181853622Y-120505000D01*
X181853622Y-121152845D01*
X182758050Y-121152845D01*
X182734940Y-121188805D01*
X182693622Y-121329518D01*
X182693622Y-121476172D01*
X182734940Y-121616885D01*
X182758050Y-121652845D01*
X181853622Y-121652845D01*
X181853622Y-122300689D01*
X172138959Y-122300689D01*
X172149288Y-122295099D01*
X172149297Y-122295093D01*
X172183834Y-122268211D01*
X172183835Y-122268210D01*
X171587789Y-121672165D01*
X171665855Y-121641257D01*
X171791565Y-121549924D01*
X171890611Y-121430198D01*
X171942550Y-121319821D01*
X172536470Y-121913741D01*
X172624766Y-121778596D01*
X172719630Y-121562328D01*
X172777604Y-121333392D01*
X172797106Y-121098050D01*
X172797106Y-121098039D01*
X172777604Y-120862697D01*
X172719630Y-120633761D01*
X172624768Y-120417498D01*
X172536470Y-120282347D01*
X171941992Y-120876826D01*
X171928113Y-120834110D01*
X171844854Y-120702914D01*
X171731583Y-120596545D01*
X171595418Y-120521688D01*
X171591127Y-120520586D01*
X172183834Y-119927878D01*
X172183834Y-119927876D01*
X172149302Y-119900999D01*
X172149296Y-119900995D01*
X171941600Y-119788595D01*
X171941595Y-119788593D01*
X171852622Y-119758048D01*
X171795607Y-119717662D01*
X171769477Y-119652862D01*
X171782529Y-119584222D01*
X171830618Y-119533535D01*
X171848107Y-119525135D01*
X171848668Y-119524918D01*
X172018132Y-119419990D01*
X172165431Y-119285709D01*
X172285548Y-119126649D01*
X172374393Y-118948225D01*
X172428939Y-118756514D01*
X172447330Y-118558045D01*
X172428939Y-118359576D01*
X172374393Y-118167865D01*
X172304216Y-118026931D01*
X172285551Y-117989446D01*
X172285546Y-117989438D01*
X172165429Y-117830378D01*
X172018133Y-117696101D01*
X172018132Y-117696100D01*
X171953597Y-117656141D01*
X171848669Y-117591172D01*
X171848667Y-117591171D01*
X171766601Y-117559379D01*
X171662808Y-117519169D01*
X171662804Y-117519168D01*
X171583861Y-117504411D01*
X171466882Y-117482545D01*
X171267562Y-117482545D01*
X171177476Y-117499384D01*
X171071639Y-117519168D01*
X171071637Y-117519168D01*
X171071636Y-117519169D01*
X171019739Y-117539274D01*
X170885776Y-117591171D01*
X170885774Y-117591172D01*
X170716310Y-117696101D01*
X170569014Y-117830378D01*
X170448897Y-117989438D01*
X170448892Y-117989446D01*
X170360052Y-118167861D01*
X170305504Y-118359580D01*
X170287114Y-118558044D01*
X170287114Y-118558045D01*
X170305504Y-118756509D01*
X170360052Y-118948228D01*
X170448892Y-119126643D01*
X170448897Y-119126651D01*
X170569014Y-119285711D01*
X170695730Y-119401227D01*
X170716312Y-119419990D01*
X170885776Y-119524918D01*
X170886337Y-119525135D01*
X170886567Y-119525312D01*
X170890909Y-119527474D01*
X170890486Y-119528322D01*
X170941744Y-119567701D01*
X170965342Y-119633465D01*
X170949639Y-119701548D01*
X170899621Y-119750332D01*
X170881821Y-119758048D01*
X170792848Y-119788593D01*
X170792843Y-119788595D01*
X170585144Y-119900997D01*
X170550608Y-119927876D01*
X170550607Y-119927878D01*
X171146654Y-120523924D01*
X171068589Y-120554833D01*
X170942879Y-120646166D01*
X170843833Y-120765892D01*
X170791893Y-120876268D01*
X170197971Y-120282347D01*
X170109676Y-120417495D01*
X170014813Y-120633761D01*
X169956839Y-120862697D01*
X169937338Y-121098039D01*
X169937338Y-121098050D01*
X154612140Y-121098050D01*
X154543734Y-121069716D01*
X154543732Y-121069715D01*
X154543731Y-121069715D01*
X154463271Y-121059122D01*
X154400023Y-121050795D01*
X154400021Y-121050795D01*
X154256313Y-121069715D01*
X154256309Y-121069716D01*
X154122399Y-121125182D01*
X154007401Y-121213424D01*
X153919159Y-121328422D01*
X153863693Y-121462332D01*
X153863692Y-121462336D01*
X153844772Y-121606044D01*
X153844772Y-121606045D01*
X147000500Y-121606045D01*
X147000500Y-116957867D01*
X170291721Y-116957867D01*
X170300453Y-117001762D01*
X170300454Y-117001766D01*
X170300455Y-117001767D01*
X170333718Y-117051549D01*
X170383500Y-117084812D01*
X170383503Y-117084812D01*
X170383504Y-117084813D01*
X170427399Y-117093545D01*
X170427402Y-117093545D01*
X172307044Y-117093545D01*
X172350939Y-117084813D01*
X172350939Y-117084812D01*
X172350944Y-117084812D01*
X172400726Y-117051549D01*
X172433989Y-117001767D01*
X172442722Y-116957865D01*
X172442722Y-116322845D01*
X182198281Y-116322845D01*
X182217597Y-116518974D01*
X182274810Y-116707578D01*
X182367708Y-116881377D01*
X182367712Y-116881384D01*
X182492738Y-117033728D01*
X182645082Y-117158754D01*
X182645089Y-117158758D01*
X182818888Y-117251656D01*
X182818891Y-117251656D01*
X182818895Y-117251659D01*
X183007490Y-117308869D01*
X183203622Y-117328186D01*
X183399754Y-117308869D01*
X183588349Y-117251659D01*
X183762160Y-117158755D01*
X183914505Y-117033728D01*
X184039532Y-116881383D01*
X184132436Y-116707572D01*
X184189646Y-116518977D01*
X184208963Y-116322845D01*
X199978281Y-116322845D01*
X199997597Y-116518974D01*
X200054810Y-116707578D01*
X200147708Y-116881377D01*
X200147712Y-116881384D01*
X200272738Y-117033728D01*
X200425082Y-117158754D01*
X200425089Y-117158758D01*
X200598888Y-117251656D01*
X200598891Y-117251656D01*
X200598895Y-117251659D01*
X200787490Y-117308869D01*
X200983622Y-117328186D01*
X201179754Y-117308869D01*
X201368349Y-117251659D01*
X201542160Y-117158755D01*
X201694505Y-117033728D01*
X201819532Y-116881383D01*
X201912436Y-116707572D01*
X201969646Y-116518977D01*
X201988963Y-116322845D01*
X201969646Y-116126713D01*
X201912436Y-115938118D01*
X201912433Y-115938114D01*
X201912433Y-115938111D01*
X201819535Y-115764312D01*
X201819531Y-115764305D01*
X201694505Y-115611961D01*
X201542161Y-115486935D01*
X201542154Y-115486931D01*
X201368355Y-115394033D01*
X201368349Y-115394031D01*
X201179754Y-115336821D01*
X201179751Y-115336820D01*
X200983622Y-115317504D01*
X200787492Y-115336820D01*
X200598888Y-115394033D01*
X200425089Y-115486931D01*
X200425082Y-115486935D01*
X200272738Y-115611961D01*
X200147712Y-115764305D01*
X200147708Y-115764312D01*
X200054810Y-115938111D01*
X199997597Y-116126715D01*
X199978281Y-116322845D01*
X184208963Y-116322845D01*
X184189646Y-116126713D01*
X184132436Y-115938118D01*
X184132433Y-115938114D01*
X184132433Y-115938111D01*
X184039535Y-115764312D01*
X184039531Y-115764305D01*
X183914505Y-115611961D01*
X183762161Y-115486935D01*
X183762154Y-115486931D01*
X183588355Y-115394033D01*
X183588349Y-115394031D01*
X183399754Y-115336821D01*
X183399751Y-115336820D01*
X183203622Y-115317504D01*
X183007492Y-115336820D01*
X182818888Y-115394033D01*
X182645089Y-115486931D01*
X182645082Y-115486935D01*
X182492738Y-115611961D01*
X182367712Y-115764305D01*
X182367708Y-115764312D01*
X182274810Y-115938111D01*
X182217597Y-116126715D01*
X182198281Y-116322845D01*
X172442722Y-116322845D01*
X172442722Y-115078225D01*
X172442722Y-115078222D01*
X172433990Y-115034327D01*
X172433989Y-115034326D01*
X172433989Y-115034323D01*
X172400726Y-114984541D01*
X172400725Y-114984540D01*
X172350946Y-114951279D01*
X172350939Y-114951276D01*
X172307044Y-114942545D01*
X172307042Y-114942545D01*
X170427402Y-114942545D01*
X170427400Y-114942545D01*
X170383504Y-114951276D01*
X170383497Y-114951279D01*
X170333718Y-114984540D01*
X170333717Y-114984541D01*
X170300456Y-115034320D01*
X170300453Y-115034327D01*
X170291722Y-115078222D01*
X170291722Y-115078225D01*
X170291722Y-116957865D01*
X170291722Y-116957867D01*
X170291721Y-116957867D01*
X147000500Y-116957867D01*
X147000500Y-113610845D01*
X152007247Y-113610845D01*
X152026309Y-113828729D01*
X152026311Y-113828739D01*
X152082916Y-114039995D01*
X152082920Y-114040004D01*
X152175357Y-114238236D01*
X152218895Y-114300416D01*
X152218897Y-114300417D01*
X152864068Y-113655245D01*
X152876857Y-113735993D01*
X152934381Y-113848890D01*
X153023977Y-113938486D01*
X153136874Y-113996010D01*
X153217621Y-114008798D01*
X152572448Y-114653969D01*
X152634633Y-114697511D01*
X152634635Y-114697512D01*
X152832862Y-114789946D01*
X152832871Y-114789950D01*
X153044127Y-114846555D01*
X153044137Y-114846557D01*
X153262021Y-114865620D01*
X153262023Y-114865620D01*
X153479906Y-114846557D01*
X153479916Y-114846555D01*
X153691172Y-114789950D01*
X153691181Y-114789946D01*
X153889409Y-114697511D01*
X153951594Y-114653969D01*
X153306423Y-114008798D01*
X153387170Y-113996010D01*
X153500067Y-113938486D01*
X153589663Y-113848890D01*
X153647187Y-113735993D01*
X153659975Y-113655245D01*
X154305146Y-114300417D01*
X154348688Y-114238232D01*
X154441123Y-114040004D01*
X154441127Y-114039995D01*
X154497732Y-113828739D01*
X154497734Y-113828729D01*
X154516797Y-113610845D01*
X154896562Y-113610845D01*
X154916348Y-113799101D01*
X154916349Y-113799104D01*
X154974840Y-113979122D01*
X154974843Y-113979129D01*
X155069489Y-114143061D01*
X155196151Y-114283733D01*
X155349287Y-114394993D01*
X155349292Y-114394996D01*
X155522214Y-114471987D01*
X155522219Y-114471989D01*
X155707376Y-114511345D01*
X155707377Y-114511345D01*
X155896666Y-114511345D01*
X155896668Y-114511345D01*
X156081825Y-114471989D01*
X156254752Y-114394996D01*
X156407893Y-114283733D01*
X156534555Y-114143061D01*
X156629201Y-113979129D01*
X156687696Y-113799101D01*
X156707482Y-113610845D01*
X157436562Y-113610845D01*
X157456348Y-113799101D01*
X157456349Y-113799104D01*
X157514840Y-113979122D01*
X157514843Y-113979129D01*
X157609489Y-114143061D01*
X157736151Y-114283733D01*
X157889287Y-114394993D01*
X157889292Y-114394996D01*
X158062214Y-114471987D01*
X158062219Y-114471989D01*
X158247376Y-114511345D01*
X158247377Y-114511345D01*
X158436666Y-114511345D01*
X158436668Y-114511345D01*
X158621825Y-114471989D01*
X158794752Y-114394996D01*
X158947893Y-114283733D01*
X159074555Y-114143061D01*
X159169201Y-113979129D01*
X159227696Y-113799101D01*
X159247482Y-113610845D01*
X159976562Y-113610845D01*
X159996348Y-113799101D01*
X159996349Y-113799104D01*
X160054840Y-113979122D01*
X160054843Y-113979129D01*
X160149489Y-114143061D01*
X160276151Y-114283733D01*
X160429287Y-114394993D01*
X160429292Y-114394996D01*
X160602214Y-114471987D01*
X160602219Y-114471989D01*
X160787376Y-114511345D01*
X160787377Y-114511345D01*
X160976666Y-114511345D01*
X160976668Y-114511345D01*
X161161825Y-114471989D01*
X161334752Y-114394996D01*
X161338263Y-114392445D01*
X166163956Y-114392445D01*
X166183734Y-114542679D01*
X166183735Y-114542681D01*
X166215245Y-114618754D01*
X166241724Y-114682678D01*
X166333971Y-114802896D01*
X166454189Y-114895143D01*
X166594186Y-114953132D01*
X166669304Y-114963021D01*
X166744421Y-114972911D01*
X166744422Y-114972911D01*
X166744423Y-114972911D01*
X166794500Y-114966318D01*
X166894658Y-114953132D01*
X167034655Y-114895143D01*
X167154873Y-114802896D01*
X167247120Y-114682678D01*
X167305109Y-114542681D01*
X167324888Y-114392445D01*
X167305109Y-114242209D01*
X167247120Y-114102212D01*
X167247119Y-114102211D01*
X167243058Y-114095177D01*
X167244817Y-114094161D01*
X167223553Y-114039177D01*
X167237584Y-113970731D01*
X167269791Y-113935086D01*
X167269290Y-113934585D01*
X167277922Y-113925951D01*
X167277926Y-113925949D01*
X167311189Y-113876167D01*
X167319922Y-113832265D01*
X167319922Y-113782845D01*
X182198281Y-113782845D01*
X182217597Y-113978974D01*
X182274810Y-114167578D01*
X182367708Y-114341377D01*
X182367712Y-114341384D01*
X182492738Y-114493728D01*
X182645082Y-114618754D01*
X182645089Y-114618758D01*
X182818888Y-114711656D01*
X182818891Y-114711656D01*
X182818895Y-114711659D01*
X183007490Y-114768869D01*
X183203622Y-114788186D01*
X183399754Y-114768869D01*
X183588349Y-114711659D01*
X183762160Y-114618755D01*
X183914505Y-114493728D01*
X184039532Y-114341383D01*
X184132436Y-114167572D01*
X184189646Y-113978977D01*
X184208963Y-113782845D01*
X199978281Y-113782845D01*
X199997597Y-113978974D01*
X200054810Y-114167578D01*
X200147708Y-114341377D01*
X200147712Y-114341384D01*
X200272738Y-114493728D01*
X200425082Y-114618754D01*
X200425089Y-114618758D01*
X200598888Y-114711656D01*
X200598891Y-114711656D01*
X200598895Y-114711659D01*
X200787490Y-114768869D01*
X200983622Y-114788186D01*
X201179754Y-114768869D01*
X201368349Y-114711659D01*
X201542160Y-114618755D01*
X201694505Y-114493728D01*
X201819532Y-114341383D01*
X201912436Y-114167572D01*
X201969646Y-113978977D01*
X201988963Y-113782845D01*
X201969646Y-113586713D01*
X201912436Y-113398118D01*
X201912433Y-113398114D01*
X201912433Y-113398111D01*
X201819535Y-113224312D01*
X201819531Y-113224305D01*
X201694505Y-113071961D01*
X201542161Y-112946935D01*
X201542154Y-112946931D01*
X201368355Y-112854033D01*
X201368349Y-112854031D01*
X201179754Y-112796821D01*
X201179751Y-112796820D01*
X200983622Y-112777504D01*
X200787492Y-112796820D01*
X200598888Y-112854033D01*
X200425089Y-112946931D01*
X200425082Y-112946935D01*
X200272738Y-113071961D01*
X200147712Y-113224305D01*
X200147708Y-113224312D01*
X200054810Y-113398111D01*
X199997597Y-113586715D01*
X199978281Y-113782845D01*
X184208963Y-113782845D01*
X184189646Y-113586713D01*
X184132436Y-113398118D01*
X184132433Y-113398114D01*
X184132433Y-113398111D01*
X184039535Y-113224312D01*
X184039531Y-113224305D01*
X183914505Y-113071961D01*
X183762161Y-112946935D01*
X183762154Y-112946931D01*
X183588355Y-112854033D01*
X183588349Y-112854031D01*
X183399754Y-112796821D01*
X183399751Y-112796820D01*
X183203622Y-112777504D01*
X183007492Y-112796820D01*
X182818888Y-112854033D01*
X182645089Y-112946931D01*
X182645082Y-112946935D01*
X182492738Y-113071961D01*
X182367712Y-113224305D01*
X182367708Y-113224312D01*
X182274810Y-113398111D01*
X182217597Y-113586715D01*
X182198281Y-113782845D01*
X167319922Y-113782845D01*
X167319922Y-112952625D01*
X167319922Y-112952622D01*
X167311190Y-112908727D01*
X167311189Y-112908726D01*
X167311189Y-112908723D01*
X167277926Y-112858941D01*
X167229665Y-112826694D01*
X167228146Y-112825679D01*
X167228139Y-112825676D01*
X167184244Y-112816945D01*
X167184242Y-112816945D01*
X166304602Y-112816945D01*
X166304600Y-112816945D01*
X166260704Y-112825676D01*
X166260697Y-112825679D01*
X166210918Y-112858940D01*
X166210917Y-112858941D01*
X166177656Y-112908720D01*
X166177653Y-112908727D01*
X166168922Y-112952622D01*
X166168922Y-112952625D01*
X166168922Y-113832265D01*
X166168922Y-113832267D01*
X166168921Y-113832267D01*
X166177653Y-113876162D01*
X166177656Y-113876169D01*
X166210917Y-113925948D01*
X166219554Y-113934585D01*
X166218707Y-113935431D01*
X166255416Y-113979354D01*
X166264125Y-114048679D01*
X166244396Y-114094374D01*
X166245786Y-114095177D01*
X166241722Y-114102214D01*
X166183735Y-114242208D01*
X166183734Y-114242210D01*
X166163956Y-114392444D01*
X166163956Y-114392445D01*
X161338263Y-114392445D01*
X161487893Y-114283733D01*
X161614555Y-114143061D01*
X161709201Y-113979129D01*
X161767696Y-113799101D01*
X161787482Y-113610845D01*
X161767696Y-113422589D01*
X161709201Y-113242561D01*
X161614555Y-113078629D01*
X161487893Y-112937957D01*
X161487892Y-112937956D01*
X161334756Y-112826696D01*
X161334751Y-112826693D01*
X161161829Y-112749702D01*
X161161824Y-112749700D01*
X161016023Y-112718710D01*
X160976668Y-112710345D01*
X160787376Y-112710345D01*
X160754919Y-112717243D01*
X160602219Y-112749700D01*
X160602214Y-112749702D01*
X160429292Y-112826693D01*
X160429287Y-112826696D01*
X160276151Y-112937956D01*
X160149488Y-113078630D01*
X160054843Y-113242560D01*
X160054840Y-113242567D01*
X160005978Y-113392950D01*
X159996348Y-113422589D01*
X159976562Y-113610845D01*
X159247482Y-113610845D01*
X159227696Y-113422589D01*
X159169201Y-113242561D01*
X159074555Y-113078629D01*
X158947893Y-112937957D01*
X158947892Y-112937956D01*
X158794756Y-112826696D01*
X158794751Y-112826693D01*
X158621829Y-112749702D01*
X158621824Y-112749700D01*
X158476023Y-112718710D01*
X158436668Y-112710345D01*
X158247376Y-112710345D01*
X158214919Y-112717243D01*
X158062219Y-112749700D01*
X158062214Y-112749702D01*
X157889292Y-112826693D01*
X157889287Y-112826696D01*
X157736151Y-112937956D01*
X157609488Y-113078630D01*
X157514843Y-113242560D01*
X157514840Y-113242567D01*
X157465978Y-113392950D01*
X157456348Y-113422589D01*
X157436562Y-113610845D01*
X156707482Y-113610845D01*
X156687696Y-113422589D01*
X156629201Y-113242561D01*
X156534555Y-113078629D01*
X156407893Y-112937957D01*
X156407892Y-112937956D01*
X156254756Y-112826696D01*
X156254751Y-112826693D01*
X156081829Y-112749702D01*
X156081824Y-112749700D01*
X155936023Y-112718710D01*
X155896668Y-112710345D01*
X155707376Y-112710345D01*
X155674919Y-112717243D01*
X155522219Y-112749700D01*
X155522214Y-112749702D01*
X155349292Y-112826693D01*
X155349287Y-112826696D01*
X155196151Y-112937956D01*
X155069488Y-113078630D01*
X154974843Y-113242560D01*
X154974840Y-113242567D01*
X154925978Y-113392950D01*
X154916348Y-113422589D01*
X154896562Y-113610845D01*
X154516797Y-113610845D01*
X154516797Y-113610844D01*
X154497734Y-113392960D01*
X154497732Y-113392950D01*
X154441127Y-113181694D01*
X154441123Y-113181685D01*
X154348690Y-112983460D01*
X154305145Y-112921273D01*
X153659975Y-113566443D01*
X153647187Y-113485697D01*
X153589663Y-113372800D01*
X153500067Y-113283204D01*
X153387170Y-113225680D01*
X153306423Y-113212891D01*
X153951594Y-112567720D01*
X153951593Y-112567718D01*
X153889413Y-112524180D01*
X153691181Y-112431743D01*
X153691172Y-112431739D01*
X153479916Y-112375134D01*
X153479906Y-112375132D01*
X153262023Y-112356070D01*
X153262021Y-112356070D01*
X153044137Y-112375132D01*
X153044127Y-112375134D01*
X152832871Y-112431739D01*
X152832862Y-112431743D01*
X152634636Y-112524177D01*
X152634634Y-112524178D01*
X152572450Y-112567720D01*
X152572449Y-112567720D01*
X153217621Y-113212891D01*
X153136874Y-113225680D01*
X153023977Y-113283204D01*
X152934381Y-113372800D01*
X152876857Y-113485697D01*
X152864068Y-113566443D01*
X152218897Y-112921272D01*
X152218897Y-112921273D01*
X152175355Y-112983457D01*
X152175354Y-112983459D01*
X152082920Y-113181685D01*
X152082916Y-113181694D01*
X152026311Y-113392950D01*
X152026309Y-113392960D01*
X152007247Y-113610844D01*
X152007247Y-113610845D01*
X147000500Y-113610845D01*
X147000500Y-110226845D01*
X168983172Y-110226845D01*
X168994650Y-110314031D01*
X169002092Y-110370553D01*
X169002093Y-110370557D01*
X169057559Y-110504467D01*
X169057560Y-110504469D01*
X169057561Y-110504470D01*
X169145801Y-110619466D01*
X169260797Y-110707706D01*
X169394713Y-110763175D01*
X169521702Y-110779893D01*
X169538421Y-110782095D01*
X169538422Y-110782095D01*
X169538423Y-110782095D01*
X169553399Y-110780123D01*
X169682131Y-110763175D01*
X169816047Y-110707706D01*
X169931043Y-110619466D01*
X170019283Y-110504470D01*
X170074752Y-110370554D01*
X170093672Y-110226845D01*
X170074752Y-110083136D01*
X170019283Y-109949220D01*
X170010952Y-109938363D01*
X169964546Y-109877884D01*
X169939352Y-109812714D01*
X169938922Y-109802398D01*
X169938922Y-109600689D01*
X181853622Y-109600689D01*
X181860023Y-109660217D01*
X181860025Y-109660224D01*
X181910267Y-109794931D01*
X181910271Y-109794938D01*
X181996431Y-109910032D01*
X181996434Y-109910035D01*
X182111528Y-109996195D01*
X182111535Y-109996199D01*
X182246242Y-110046441D01*
X182246249Y-110046443D01*
X182305777Y-110052844D01*
X182305794Y-110052845D01*
X182843970Y-110052845D01*
X182911009Y-110072530D01*
X182956764Y-110125334D01*
X182966708Y-110194492D01*
X182937683Y-110258048D01*
X182879966Y-110295505D01*
X182850252Y-110304518D01*
X182818890Y-110314032D01*
X182645089Y-110406931D01*
X182645082Y-110406935D01*
X182492738Y-110531961D01*
X182367712Y-110684305D01*
X182367708Y-110684312D01*
X182274810Y-110858111D01*
X182217597Y-111046715D01*
X182198281Y-111242845D01*
X182217597Y-111438974D01*
X182274810Y-111627578D01*
X182367708Y-111801377D01*
X182367712Y-111801384D01*
X182492738Y-111953728D01*
X182645082Y-112078754D01*
X182645089Y-112078758D01*
X182818888Y-112171656D01*
X182818891Y-112171656D01*
X182818895Y-112171659D01*
X183007490Y-112228869D01*
X183203622Y-112248186D01*
X183399754Y-112228869D01*
X183588349Y-112171659D01*
X183762160Y-112078755D01*
X183914505Y-111953728D01*
X184039532Y-111801383D01*
X184132436Y-111627572D01*
X184189646Y-111438977D01*
X184208963Y-111242845D01*
X184189646Y-111046713D01*
X184132436Y-110858118D01*
X184132433Y-110858114D01*
X184132433Y-110858111D01*
X184039535Y-110684312D01*
X184039531Y-110684305D01*
X183914505Y-110531961D01*
X183762161Y-110406935D01*
X183762154Y-110406931D01*
X183588353Y-110314032D01*
X183569812Y-110308407D01*
X183527277Y-110295505D01*
X183468840Y-110257208D01*
X183440384Y-110193396D01*
X183450944Y-110124329D01*
X183497168Y-110071935D01*
X183563274Y-110052845D01*
X184101450Y-110052845D01*
X184101466Y-110052844D01*
X184160994Y-110046443D01*
X184161001Y-110046441D01*
X184295708Y-109996199D01*
X184295715Y-109996195D01*
X184410809Y-109910035D01*
X184410812Y-109910032D01*
X184496972Y-109794938D01*
X184496976Y-109794931D01*
X184547218Y-109660224D01*
X184547220Y-109660217D01*
X184553621Y-109600689D01*
X199633622Y-109600689D01*
X199640023Y-109660217D01*
X199640025Y-109660224D01*
X199690267Y-109794931D01*
X199690271Y-109794938D01*
X199776431Y-109910032D01*
X199776434Y-109910035D01*
X199891528Y-109996195D01*
X199891535Y-109996199D01*
X200026242Y-110046441D01*
X200026249Y-110046443D01*
X200085777Y-110052844D01*
X200085794Y-110052845D01*
X200623970Y-110052845D01*
X200691009Y-110072530D01*
X200736764Y-110125334D01*
X200746708Y-110194492D01*
X200717683Y-110258048D01*
X200659966Y-110295505D01*
X200630252Y-110304518D01*
X200598890Y-110314032D01*
X200425089Y-110406931D01*
X200425082Y-110406935D01*
X200272738Y-110531961D01*
X200147712Y-110684305D01*
X200147708Y-110684312D01*
X200054810Y-110858111D01*
X199997597Y-111046715D01*
X199978281Y-111242845D01*
X199997597Y-111438974D01*
X200054810Y-111627578D01*
X200147708Y-111801377D01*
X200147712Y-111801384D01*
X200272738Y-111953728D01*
X200425082Y-112078754D01*
X200425089Y-112078758D01*
X200598888Y-112171656D01*
X200598891Y-112171656D01*
X200598895Y-112171659D01*
X200787490Y-112228869D01*
X200983622Y-112248186D01*
X201179754Y-112228869D01*
X201368349Y-112171659D01*
X201542160Y-112078755D01*
X201694505Y-111953728D01*
X201819532Y-111801383D01*
X201912436Y-111627572D01*
X201969646Y-111438977D01*
X201988963Y-111242845D01*
X201969646Y-111046713D01*
X201912436Y-110858118D01*
X201912433Y-110858114D01*
X201912433Y-110858111D01*
X201819535Y-110684312D01*
X201819531Y-110684305D01*
X201694505Y-110531961D01*
X201542161Y-110406935D01*
X201542154Y-110406931D01*
X201368353Y-110314032D01*
X201349812Y-110308407D01*
X201307277Y-110295505D01*
X201248840Y-110257208D01*
X201220384Y-110193396D01*
X201230944Y-110124329D01*
X201277168Y-110071935D01*
X201343274Y-110052845D01*
X201881450Y-110052845D01*
X201881466Y-110052844D01*
X201940994Y-110046443D01*
X201941001Y-110046441D01*
X202075708Y-109996199D01*
X202075715Y-109996195D01*
X202190809Y-109910035D01*
X202190812Y-109910032D01*
X202276972Y-109794938D01*
X202276976Y-109794931D01*
X202327218Y-109660224D01*
X202327220Y-109660217D01*
X202333621Y-109600689D01*
X202333622Y-109600672D01*
X202333622Y-108952845D01*
X201429194Y-108952845D01*
X201452304Y-108916885D01*
X201493622Y-108776172D01*
X201493622Y-108629518D01*
X201452304Y-108488805D01*
X201429194Y-108452845D01*
X202333622Y-108452845D01*
X202333622Y-107805017D01*
X202333621Y-107805000D01*
X202327220Y-107745472D01*
X202327218Y-107745465D01*
X202276976Y-107610758D01*
X202276972Y-107610751D01*
X202190812Y-107495657D01*
X202190809Y-107495654D01*
X202075715Y-107409494D01*
X202075708Y-107409490D01*
X201941001Y-107359248D01*
X201940994Y-107359246D01*
X201881466Y-107352845D01*
X201343274Y-107352845D01*
X201276235Y-107333160D01*
X201230480Y-107280356D01*
X201220536Y-107211198D01*
X201249561Y-107147642D01*
X201307277Y-107110184D01*
X201368349Y-107091659D01*
X201542160Y-106998755D01*
X201694505Y-106873728D01*
X201819532Y-106721383D01*
X201912436Y-106547572D01*
X201969646Y-106358977D01*
X201988963Y-106162845D01*
X201969646Y-105966713D01*
X201912436Y-105778118D01*
X201912433Y-105778114D01*
X201912433Y-105778111D01*
X201819535Y-105604312D01*
X201819531Y-105604305D01*
X201694505Y-105451961D01*
X201542161Y-105326935D01*
X201542154Y-105326931D01*
X201368355Y-105234033D01*
X201368349Y-105234031D01*
X201179754Y-105176821D01*
X201179751Y-105176820D01*
X200983622Y-105157504D01*
X200787492Y-105176820D01*
X200598888Y-105234033D01*
X200425089Y-105326931D01*
X200425082Y-105326935D01*
X200272738Y-105451961D01*
X200147712Y-105604305D01*
X200147708Y-105604312D01*
X200054810Y-105778111D01*
X199997597Y-105966715D01*
X199978281Y-106162845D01*
X199997597Y-106358974D01*
X200054810Y-106547578D01*
X200147708Y-106721377D01*
X200147712Y-106721384D01*
X200272738Y-106873728D01*
X200425082Y-106998754D01*
X200425089Y-106998758D01*
X200598890Y-107091657D01*
X200598892Y-107091657D01*
X200598895Y-107091659D01*
X200659966Y-107110184D01*
X200718404Y-107148482D01*
X200746860Y-107212294D01*
X200736300Y-107281361D01*
X200690076Y-107333755D01*
X200623970Y-107352845D01*
X200085777Y-107352845D01*
X200026249Y-107359246D01*
X200026242Y-107359248D01*
X199891535Y-107409490D01*
X199891528Y-107409494D01*
X199776434Y-107495654D01*
X199776431Y-107495657D01*
X199690271Y-107610751D01*
X199690267Y-107610758D01*
X199640025Y-107745465D01*
X199640023Y-107745472D01*
X199633622Y-107805000D01*
X199633622Y-108452845D01*
X200538050Y-108452845D01*
X200514940Y-108488805D01*
X200473622Y-108629518D01*
X200473622Y-108776172D01*
X200514940Y-108916885D01*
X200538050Y-108952845D01*
X199633622Y-108952845D01*
X199633622Y-109600689D01*
X184553621Y-109600689D01*
X184553622Y-109600672D01*
X184553622Y-108952845D01*
X183649194Y-108952845D01*
X183672304Y-108916885D01*
X183713622Y-108776172D01*
X183713622Y-108629518D01*
X183672304Y-108488805D01*
X183649194Y-108452845D01*
X184553622Y-108452845D01*
X184553622Y-107805017D01*
X184553621Y-107805000D01*
X184547220Y-107745472D01*
X184547218Y-107745465D01*
X184496976Y-107610758D01*
X184496972Y-107610751D01*
X184410812Y-107495657D01*
X184410809Y-107495654D01*
X184295715Y-107409494D01*
X184295708Y-107409490D01*
X184161001Y-107359248D01*
X184160994Y-107359246D01*
X184101466Y-107352845D01*
X183563274Y-107352845D01*
X183496235Y-107333160D01*
X183450480Y-107280356D01*
X183440536Y-107211198D01*
X183469561Y-107147642D01*
X183527277Y-107110184D01*
X183588349Y-107091659D01*
X183762160Y-106998755D01*
X183914505Y-106873728D01*
X184039532Y-106721383D01*
X184132436Y-106547572D01*
X184189646Y-106358977D01*
X184208963Y-106162845D01*
X184189646Y-105966713D01*
X184132436Y-105778118D01*
X184132433Y-105778114D01*
X184132433Y-105778111D01*
X184039535Y-105604312D01*
X184039531Y-105604305D01*
X183914505Y-105451961D01*
X183762161Y-105326935D01*
X183762154Y-105326931D01*
X183588355Y-105234033D01*
X183588349Y-105234031D01*
X183399754Y-105176821D01*
X183399751Y-105176820D01*
X183203622Y-105157504D01*
X183007492Y-105176820D01*
X182818888Y-105234033D01*
X182645089Y-105326931D01*
X182645082Y-105326935D01*
X182492738Y-105451961D01*
X182367712Y-105604305D01*
X182367708Y-105604312D01*
X182274810Y-105778111D01*
X182217597Y-105966715D01*
X182198281Y-106162845D01*
X182217597Y-106358974D01*
X182274810Y-106547578D01*
X182367708Y-106721377D01*
X182367712Y-106721384D01*
X182492738Y-106873728D01*
X182645082Y-106998754D01*
X182645089Y-106998758D01*
X182818890Y-107091657D01*
X182818892Y-107091657D01*
X182818895Y-107091659D01*
X182879966Y-107110184D01*
X182938404Y-107148482D01*
X182966860Y-107212294D01*
X182956300Y-107281361D01*
X182910076Y-107333755D01*
X182843970Y-107352845D01*
X182305777Y-107352845D01*
X182246249Y-107359246D01*
X182246242Y-107359248D01*
X182111535Y-107409490D01*
X182111528Y-107409494D01*
X181996434Y-107495654D01*
X181996431Y-107495657D01*
X181910271Y-107610751D01*
X181910267Y-107610758D01*
X181860025Y-107745465D01*
X181860023Y-107745472D01*
X181853622Y-107805000D01*
X181853622Y-108452845D01*
X182758050Y-108452845D01*
X182734940Y-108488805D01*
X182693622Y-108629518D01*
X182693622Y-108776172D01*
X182734940Y-108916885D01*
X182758050Y-108952845D01*
X181853622Y-108952845D01*
X181853622Y-109600689D01*
X169938922Y-109600689D01*
X169938922Y-107972989D01*
X169958607Y-107905950D01*
X169964547Y-107897502D01*
X170019283Y-107826170D01*
X170074752Y-107692254D01*
X170093672Y-107548545D01*
X170074752Y-107404836D01*
X170023608Y-107281361D01*
X170019284Y-107270922D01*
X170019283Y-107270921D01*
X170019283Y-107270920D01*
X169931043Y-107155924D01*
X169816047Y-107067684D01*
X169816046Y-107067683D01*
X169816044Y-107067682D01*
X169682134Y-107012216D01*
X169682132Y-107012215D01*
X169682131Y-107012215D01*
X169579894Y-106998755D01*
X169538423Y-106993295D01*
X169538421Y-106993295D01*
X169394713Y-107012215D01*
X169394709Y-107012216D01*
X169260799Y-107067682D01*
X169145801Y-107155924D01*
X169057559Y-107270922D01*
X169002093Y-107404832D01*
X169002092Y-107404836D01*
X168983172Y-107548544D01*
X168983172Y-107548545D01*
X169002092Y-107692253D01*
X169002093Y-107692257D01*
X169057560Y-107826168D01*
X169057561Y-107826170D01*
X169112297Y-107897502D01*
X169137492Y-107962670D01*
X169137922Y-107972989D01*
X169137922Y-109802398D01*
X169118237Y-109869437D01*
X169112298Y-109877884D01*
X169057561Y-109949219D01*
X169057560Y-109949221D01*
X169002093Y-110083132D01*
X169002092Y-110083136D01*
X168983172Y-110226845D01*
X147000500Y-110226845D01*
X147000500Y-103978445D01*
X171065972Y-103978445D01*
X171084892Y-104122153D01*
X171084893Y-104122157D01*
X171140359Y-104256067D01*
X171140360Y-104256069D01*
X171140361Y-104256070D01*
X171228601Y-104371066D01*
X171343597Y-104459306D01*
X171477513Y-104514775D01*
X171604502Y-104531493D01*
X171621221Y-104533695D01*
X171621222Y-104533695D01*
X171621223Y-104533695D01*
X171636199Y-104531723D01*
X171764931Y-104514775D01*
X171898847Y-104459306D01*
X172013843Y-104371066D01*
X172102083Y-104256070D01*
X172157552Y-104122154D01*
X172169288Y-104033007D01*
X172197553Y-103969113D01*
X172204540Y-103961517D01*
X172208008Y-103958050D01*
X172269335Y-103924575D01*
X172295676Y-103921745D01*
X174955976Y-103921745D01*
X175023015Y-103941430D01*
X175031462Y-103947369D01*
X175081004Y-103985384D01*
X175102797Y-104002106D01*
X175236713Y-104057575D01*
X175363702Y-104074293D01*
X175380421Y-104076495D01*
X175380422Y-104076495D01*
X175380423Y-104076495D01*
X175395399Y-104074523D01*
X175524131Y-104057575D01*
X175658047Y-104002106D01*
X175773043Y-103913866D01*
X175861283Y-103798870D01*
X175916752Y-103664954D01*
X175922296Y-103622845D01*
X182198281Y-103622845D01*
X182217597Y-103818974D01*
X182217598Y-103818977D01*
X182265972Y-103978445D01*
X182274810Y-104007578D01*
X182367708Y-104181377D01*
X182367712Y-104181384D01*
X182492738Y-104333728D01*
X182645082Y-104458754D01*
X182645089Y-104458758D01*
X182818888Y-104551656D01*
X182818891Y-104551656D01*
X182818895Y-104551659D01*
X183007490Y-104608869D01*
X183203622Y-104628186D01*
X183399754Y-104608869D01*
X183588349Y-104551659D01*
X183762160Y-104458755D01*
X183914505Y-104333728D01*
X184039532Y-104181383D01*
X184132436Y-104007572D01*
X184189646Y-103818977D01*
X184208963Y-103622845D01*
X199978281Y-103622845D01*
X199997597Y-103818974D01*
X199997598Y-103818977D01*
X200045972Y-103978445D01*
X200054810Y-104007578D01*
X200147708Y-104181377D01*
X200147712Y-104181384D01*
X200272738Y-104333728D01*
X200425082Y-104458754D01*
X200425089Y-104458758D01*
X200598888Y-104551656D01*
X200598891Y-104551656D01*
X200598895Y-104551659D01*
X200787490Y-104608869D01*
X200983622Y-104628186D01*
X201179754Y-104608869D01*
X201368349Y-104551659D01*
X201542160Y-104458755D01*
X201694505Y-104333728D01*
X201819532Y-104181383D01*
X201912436Y-104007572D01*
X201969646Y-103818977D01*
X201988963Y-103622845D01*
X201969646Y-103426713D01*
X201912436Y-103238118D01*
X201912433Y-103238114D01*
X201912433Y-103238111D01*
X201819535Y-103064312D01*
X201819531Y-103064305D01*
X201694505Y-102911961D01*
X201542161Y-102786935D01*
X201542154Y-102786931D01*
X201368355Y-102694033D01*
X201368349Y-102694031D01*
X201179754Y-102636821D01*
X201179751Y-102636820D01*
X200983622Y-102617504D01*
X200787492Y-102636820D01*
X200598888Y-102694033D01*
X200425089Y-102786931D01*
X200425082Y-102786935D01*
X200272738Y-102911961D01*
X200147712Y-103064305D01*
X200147708Y-103064312D01*
X200054810Y-103238111D01*
X199997597Y-103426715D01*
X199978281Y-103622845D01*
X184208963Y-103622845D01*
X184189646Y-103426713D01*
X184132436Y-103238118D01*
X184132433Y-103238114D01*
X184132433Y-103238111D01*
X184039535Y-103064312D01*
X184039531Y-103064305D01*
X183914505Y-102911961D01*
X183762161Y-102786935D01*
X183762154Y-102786931D01*
X183588355Y-102694033D01*
X183588349Y-102694031D01*
X183399754Y-102636821D01*
X183399751Y-102636820D01*
X183203622Y-102617504D01*
X183007492Y-102636820D01*
X182818888Y-102694033D01*
X182645089Y-102786931D01*
X182645082Y-102786935D01*
X182492738Y-102911961D01*
X182367712Y-103064305D01*
X182367708Y-103064312D01*
X182274810Y-103238111D01*
X182217597Y-103426715D01*
X182198281Y-103622845D01*
X175922296Y-103622845D01*
X175935672Y-103521245D01*
X175916752Y-103377536D01*
X175861283Y-103243620D01*
X175773043Y-103128624D01*
X175658047Y-103040384D01*
X175658046Y-103040383D01*
X175658044Y-103040382D01*
X175524134Y-102984916D01*
X175524132Y-102984915D01*
X175524131Y-102984915D01*
X175452276Y-102975455D01*
X175380423Y-102965995D01*
X175380421Y-102965995D01*
X175236713Y-102984915D01*
X175236709Y-102984916D01*
X175102798Y-103040383D01*
X175102796Y-103040384D01*
X175031462Y-103095121D01*
X174966293Y-103120315D01*
X174955976Y-103120745D01*
X172044370Y-103120745D01*
X172044346Y-103120746D01*
X172014986Y-103120746D01*
X171993921Y-103127591D01*
X171975004Y-103132132D01*
X171953122Y-103135597D01*
X171953117Y-103135599D01*
X171933372Y-103145659D01*
X171915408Y-103153100D01*
X171894329Y-103159950D01*
X171876406Y-103172972D01*
X171859821Y-103183135D01*
X171840081Y-103193193D01*
X171828797Y-103204477D01*
X171817513Y-103215762D01*
X171660499Y-103372774D01*
X171638153Y-103395121D01*
X171576829Y-103428605D01*
X171566659Y-103430378D01*
X171477513Y-103442115D01*
X171477509Y-103442116D01*
X171343599Y-103497582D01*
X171228601Y-103585824D01*
X171140359Y-103700822D01*
X171084893Y-103834732D01*
X171084892Y-103834736D01*
X171065972Y-103978444D01*
X171065972Y-103978445D01*
X147000500Y-103978445D01*
X147000500Y-100210845D01*
X152356562Y-100210845D01*
X152376348Y-100399101D01*
X152376349Y-100399104D01*
X152434840Y-100579122D01*
X152434843Y-100579129D01*
X152529489Y-100743061D01*
X152656151Y-100883733D01*
X152809287Y-100994993D01*
X152809292Y-100994996D01*
X152982214Y-101071987D01*
X152982219Y-101071989D01*
X153167376Y-101111345D01*
X153167377Y-101111345D01*
X153356666Y-101111345D01*
X153356668Y-101111345D01*
X153541825Y-101071989D01*
X153714752Y-100994996D01*
X153867893Y-100883733D01*
X153994555Y-100743061D01*
X154089201Y-100579129D01*
X154147696Y-100399101D01*
X154167482Y-100210845D01*
X154896562Y-100210845D01*
X154916348Y-100399101D01*
X154916349Y-100399104D01*
X154974840Y-100579122D01*
X154974843Y-100579129D01*
X155069489Y-100743061D01*
X155196151Y-100883733D01*
X155349287Y-100994993D01*
X155349292Y-100994996D01*
X155522214Y-101071987D01*
X155522219Y-101071989D01*
X155707376Y-101111345D01*
X155707377Y-101111345D01*
X155896666Y-101111345D01*
X155896668Y-101111345D01*
X156081825Y-101071989D01*
X156254752Y-100994996D01*
X156407893Y-100883733D01*
X156534555Y-100743061D01*
X156629201Y-100579129D01*
X156687696Y-100399101D01*
X156707482Y-100210845D01*
X157436562Y-100210845D01*
X157456348Y-100399101D01*
X157456349Y-100399104D01*
X157514840Y-100579122D01*
X157514843Y-100579129D01*
X157609489Y-100743061D01*
X157736151Y-100883733D01*
X157889287Y-100994993D01*
X157889292Y-100994996D01*
X158062214Y-101071987D01*
X158062219Y-101071989D01*
X158247376Y-101111345D01*
X158247377Y-101111345D01*
X158436666Y-101111345D01*
X158436668Y-101111345D01*
X158621825Y-101071989D01*
X158794752Y-100994996D01*
X158947893Y-100883733D01*
X159074555Y-100743061D01*
X159169201Y-100579129D01*
X159227696Y-100399101D01*
X159247482Y-100210845D01*
X159976562Y-100210845D01*
X159996348Y-100399101D01*
X159996349Y-100399104D01*
X160054840Y-100579122D01*
X160054843Y-100579129D01*
X160149489Y-100743061D01*
X160276151Y-100883733D01*
X160429287Y-100994993D01*
X160429292Y-100994996D01*
X160602214Y-101071987D01*
X160602219Y-101071989D01*
X160787376Y-101111345D01*
X160787377Y-101111345D01*
X160976666Y-101111345D01*
X160976668Y-101111345D01*
X161110751Y-101082845D01*
X182198281Y-101082845D01*
X182217597Y-101278974D01*
X182274810Y-101467578D01*
X182367708Y-101641377D01*
X182367712Y-101641384D01*
X182492738Y-101793728D01*
X182645082Y-101918754D01*
X182645089Y-101918758D01*
X182818888Y-102011656D01*
X182818891Y-102011656D01*
X182818895Y-102011659D01*
X183007490Y-102068869D01*
X183203622Y-102088186D01*
X183399754Y-102068869D01*
X183588349Y-102011659D01*
X183762160Y-101918755D01*
X183914505Y-101793728D01*
X184039532Y-101641383D01*
X184132436Y-101467572D01*
X184189646Y-101278977D01*
X184208963Y-101082845D01*
X199978281Y-101082845D01*
X199997597Y-101278974D01*
X200054810Y-101467578D01*
X200147708Y-101641377D01*
X200147712Y-101641384D01*
X200272738Y-101793728D01*
X200425082Y-101918754D01*
X200425089Y-101918758D01*
X200598888Y-102011656D01*
X200598891Y-102011656D01*
X200598895Y-102011659D01*
X200787490Y-102068869D01*
X200983622Y-102088186D01*
X201179754Y-102068869D01*
X201368349Y-102011659D01*
X201542160Y-101918755D01*
X201694505Y-101793728D01*
X201819532Y-101641383D01*
X201912436Y-101467572D01*
X201969646Y-101278977D01*
X201988963Y-101082845D01*
X201969646Y-100886713D01*
X201912436Y-100698118D01*
X201912433Y-100698114D01*
X201912433Y-100698111D01*
X201819535Y-100524312D01*
X201819531Y-100524305D01*
X201694505Y-100371961D01*
X201542161Y-100246935D01*
X201542154Y-100246931D01*
X201368355Y-100154033D01*
X201368349Y-100154031D01*
X201179754Y-100096821D01*
X201179751Y-100096820D01*
X200983622Y-100077504D01*
X200787492Y-100096820D01*
X200598888Y-100154033D01*
X200425089Y-100246931D01*
X200425082Y-100246935D01*
X200272738Y-100371961D01*
X200147712Y-100524305D01*
X200147708Y-100524312D01*
X200054810Y-100698111D01*
X199997597Y-100886715D01*
X199978281Y-101082845D01*
X184208963Y-101082845D01*
X184189646Y-100886713D01*
X184132436Y-100698118D01*
X184132433Y-100698114D01*
X184132433Y-100698111D01*
X184039535Y-100524312D01*
X184039531Y-100524305D01*
X183914505Y-100371961D01*
X183762161Y-100246935D01*
X183762154Y-100246931D01*
X183588355Y-100154033D01*
X183588349Y-100154031D01*
X183399754Y-100096821D01*
X183399751Y-100096820D01*
X183203622Y-100077504D01*
X183007492Y-100096820D01*
X182818888Y-100154033D01*
X182645089Y-100246931D01*
X182645082Y-100246935D01*
X182492738Y-100371961D01*
X182367712Y-100524305D01*
X182367708Y-100524312D01*
X182274810Y-100698111D01*
X182217597Y-100886715D01*
X182198281Y-101082845D01*
X161110751Y-101082845D01*
X161161825Y-101071989D01*
X161334752Y-100994996D01*
X161487893Y-100883733D01*
X161614555Y-100743061D01*
X161709201Y-100579129D01*
X161767696Y-100399101D01*
X161787482Y-100210845D01*
X161767696Y-100022589D01*
X161709201Y-99842561D01*
X161614555Y-99678629D01*
X161487893Y-99537957D01*
X161487892Y-99537956D01*
X161334756Y-99426696D01*
X161334751Y-99426693D01*
X161161829Y-99349702D01*
X161161824Y-99349700D01*
X161016023Y-99318710D01*
X160976668Y-99310345D01*
X160787376Y-99310345D01*
X160754919Y-99317243D01*
X160602219Y-99349700D01*
X160602214Y-99349702D01*
X160429292Y-99426693D01*
X160429287Y-99426696D01*
X160276151Y-99537956D01*
X160149488Y-99678630D01*
X160054843Y-99842560D01*
X160054840Y-99842567D01*
X159996349Y-100022585D01*
X159996348Y-100022589D01*
X159976562Y-100210845D01*
X159247482Y-100210845D01*
X159227696Y-100022589D01*
X159169201Y-99842561D01*
X159074555Y-99678629D01*
X158947893Y-99537957D01*
X158947892Y-99537956D01*
X158794756Y-99426696D01*
X158794751Y-99426693D01*
X158621829Y-99349702D01*
X158621824Y-99349700D01*
X158476023Y-99318710D01*
X158436668Y-99310345D01*
X158247376Y-99310345D01*
X158214919Y-99317243D01*
X158062219Y-99349700D01*
X158062214Y-99349702D01*
X157889292Y-99426693D01*
X157889287Y-99426696D01*
X157736151Y-99537956D01*
X157609488Y-99678630D01*
X157514843Y-99842560D01*
X157514840Y-99842567D01*
X157456349Y-100022585D01*
X157456348Y-100022589D01*
X157436562Y-100210845D01*
X156707482Y-100210845D01*
X156687696Y-100022589D01*
X156629201Y-99842561D01*
X156534555Y-99678629D01*
X156407893Y-99537957D01*
X156407892Y-99537956D01*
X156254756Y-99426696D01*
X156254751Y-99426693D01*
X156081829Y-99349702D01*
X156081824Y-99349700D01*
X155936023Y-99318710D01*
X155896668Y-99310345D01*
X155707376Y-99310345D01*
X155674919Y-99317243D01*
X155522219Y-99349700D01*
X155522214Y-99349702D01*
X155349292Y-99426693D01*
X155349287Y-99426696D01*
X155196151Y-99537956D01*
X155069488Y-99678630D01*
X154974843Y-99842560D01*
X154974840Y-99842567D01*
X154916349Y-100022585D01*
X154916348Y-100022589D01*
X154896562Y-100210845D01*
X154167482Y-100210845D01*
X154147696Y-100022589D01*
X154089201Y-99842561D01*
X153994555Y-99678629D01*
X153867893Y-99537957D01*
X153867892Y-99537956D01*
X153714756Y-99426696D01*
X153714751Y-99426693D01*
X153541829Y-99349702D01*
X153541824Y-99349700D01*
X153396023Y-99318710D01*
X153356668Y-99310345D01*
X153167376Y-99310345D01*
X153134919Y-99317243D01*
X152982219Y-99349700D01*
X152982214Y-99349702D01*
X152809292Y-99426693D01*
X152809287Y-99426696D01*
X152656151Y-99537956D01*
X152529488Y-99678630D01*
X152434843Y-99842560D01*
X152434840Y-99842567D01*
X152376349Y-100022585D01*
X152376348Y-100022589D01*
X152356562Y-100210845D01*
X147000500Y-100210845D01*
X147000500Y-96900689D01*
X181853622Y-96900689D01*
X181860023Y-96960217D01*
X181860025Y-96960224D01*
X181910267Y-97094931D01*
X181910271Y-97094938D01*
X181996431Y-97210032D01*
X181996434Y-97210035D01*
X182111528Y-97296195D01*
X182111535Y-97296199D01*
X182246242Y-97346441D01*
X182246249Y-97346443D01*
X182305777Y-97352844D01*
X182305794Y-97352845D01*
X182843970Y-97352845D01*
X182911009Y-97372530D01*
X182956764Y-97425334D01*
X182966708Y-97494492D01*
X182937683Y-97558048D01*
X182879966Y-97595505D01*
X182850252Y-97604518D01*
X182818890Y-97614032D01*
X182645089Y-97706931D01*
X182645082Y-97706935D01*
X182492738Y-97831961D01*
X182367712Y-97984305D01*
X182367708Y-97984312D01*
X182274810Y-98158111D01*
X182217597Y-98346715D01*
X182198281Y-98542845D01*
X182217597Y-98738974D01*
X182274810Y-98927578D01*
X182367708Y-99101377D01*
X182367712Y-99101384D01*
X182492738Y-99253728D01*
X182645082Y-99378754D01*
X182645089Y-99378758D01*
X182818888Y-99471656D01*
X182818891Y-99471656D01*
X182818895Y-99471659D01*
X183007490Y-99528869D01*
X183203622Y-99548186D01*
X183399754Y-99528869D01*
X183588349Y-99471659D01*
X183762160Y-99378755D01*
X183914505Y-99253728D01*
X184039532Y-99101383D01*
X184132436Y-98927572D01*
X184189646Y-98738977D01*
X184208963Y-98542845D01*
X199978281Y-98542845D01*
X199997597Y-98738974D01*
X200054810Y-98927578D01*
X200147708Y-99101377D01*
X200147712Y-99101384D01*
X200272738Y-99253728D01*
X200425082Y-99378754D01*
X200425089Y-99378758D01*
X200598888Y-99471656D01*
X200598891Y-99471656D01*
X200598895Y-99471659D01*
X200787490Y-99528869D01*
X200983622Y-99548186D01*
X201179754Y-99528869D01*
X201368349Y-99471659D01*
X201542160Y-99378755D01*
X201694505Y-99253728D01*
X201819532Y-99101383D01*
X201912436Y-98927572D01*
X201969646Y-98738977D01*
X201988963Y-98542845D01*
X201969646Y-98346713D01*
X201912436Y-98158118D01*
X201912433Y-98158114D01*
X201912433Y-98158111D01*
X201819535Y-97984312D01*
X201819531Y-97984305D01*
X201694505Y-97831961D01*
X201542161Y-97706935D01*
X201542154Y-97706931D01*
X201368355Y-97614033D01*
X201368349Y-97614031D01*
X201179754Y-97556821D01*
X201179751Y-97556820D01*
X200983622Y-97537504D01*
X200787492Y-97556820D01*
X200598888Y-97614033D01*
X200425089Y-97706931D01*
X200425082Y-97706935D01*
X200272738Y-97831961D01*
X200147712Y-97984305D01*
X200147708Y-97984312D01*
X200054810Y-98158111D01*
X199997597Y-98346715D01*
X199978281Y-98542845D01*
X184208963Y-98542845D01*
X184189646Y-98346713D01*
X184132436Y-98158118D01*
X184132433Y-98158114D01*
X184132433Y-98158111D01*
X184039535Y-97984312D01*
X184039531Y-97984305D01*
X183914505Y-97831961D01*
X183762161Y-97706935D01*
X183762154Y-97706931D01*
X183588353Y-97614032D01*
X183569812Y-97608407D01*
X183527277Y-97595505D01*
X183468840Y-97557208D01*
X183440384Y-97493396D01*
X183450944Y-97424329D01*
X183497168Y-97371935D01*
X183563274Y-97352845D01*
X184101450Y-97352845D01*
X184101466Y-97352844D01*
X184160994Y-97346443D01*
X184161001Y-97346441D01*
X184295708Y-97296199D01*
X184295715Y-97296195D01*
X184410809Y-97210035D01*
X184410812Y-97210032D01*
X184496972Y-97094938D01*
X184496976Y-97094931D01*
X184547218Y-96960224D01*
X184547220Y-96960217D01*
X184553621Y-96900689D01*
X184553622Y-96900672D01*
X184553622Y-96867667D01*
X199983121Y-96867667D01*
X199991853Y-96911562D01*
X199991856Y-96911569D01*
X200024366Y-96960224D01*
X200025118Y-96961349D01*
X200074900Y-96994612D01*
X200074903Y-96994612D01*
X200074904Y-96994613D01*
X200118799Y-97003345D01*
X200118802Y-97003345D01*
X201848444Y-97003345D01*
X201892339Y-96994613D01*
X201892339Y-96994612D01*
X201892344Y-96994612D01*
X201942126Y-96961349D01*
X201975389Y-96911567D01*
X201984122Y-96867665D01*
X201984122Y-95138025D01*
X201984122Y-95138022D01*
X201975390Y-95094127D01*
X201975389Y-95094126D01*
X201975389Y-95094123D01*
X201942126Y-95044341D01*
X201942125Y-95044340D01*
X201892346Y-95011079D01*
X201892339Y-95011076D01*
X201848444Y-95002345D01*
X201848442Y-95002345D01*
X200118802Y-95002345D01*
X200118800Y-95002345D01*
X200074904Y-95011076D01*
X200074897Y-95011079D01*
X200025118Y-95044340D01*
X200025117Y-95044341D01*
X199991856Y-95094120D01*
X199991853Y-95094127D01*
X199983122Y-95138022D01*
X199983122Y-95138025D01*
X199983122Y-96867665D01*
X199983122Y-96867667D01*
X199983121Y-96867667D01*
X184553622Y-96867667D01*
X184553622Y-96252845D01*
X183649194Y-96252845D01*
X183672304Y-96216885D01*
X183713622Y-96076172D01*
X183713622Y-95929518D01*
X183672304Y-95788805D01*
X183649194Y-95752845D01*
X184553622Y-95752845D01*
X184553622Y-95105017D01*
X184553621Y-95105000D01*
X184547220Y-95045472D01*
X184547218Y-95045465D01*
X184496976Y-94910758D01*
X184496972Y-94910751D01*
X184410812Y-94795657D01*
X184410809Y-94795654D01*
X184295715Y-94709494D01*
X184295708Y-94709490D01*
X184161001Y-94659248D01*
X184160994Y-94659246D01*
X184101466Y-94652845D01*
X183563274Y-94652845D01*
X183496235Y-94633160D01*
X183450480Y-94580356D01*
X183440536Y-94511198D01*
X183469561Y-94447642D01*
X183527277Y-94410184D01*
X183588349Y-94391659D01*
X183762160Y-94298755D01*
X183914505Y-94173728D01*
X184039532Y-94021383D01*
X184132436Y-93847572D01*
X184189646Y-93658977D01*
X184208963Y-93462845D01*
X199978281Y-93462845D01*
X199997597Y-93658974D01*
X200054810Y-93847578D01*
X200147708Y-94021377D01*
X200147712Y-94021384D01*
X200272738Y-94173728D01*
X200425082Y-94298754D01*
X200425089Y-94298758D01*
X200598888Y-94391656D01*
X200598891Y-94391656D01*
X200598895Y-94391659D01*
X200787490Y-94448869D01*
X200983622Y-94468186D01*
X201179754Y-94448869D01*
X201368349Y-94391659D01*
X201542160Y-94298755D01*
X201694505Y-94173728D01*
X201819532Y-94021383D01*
X201912436Y-93847572D01*
X201969646Y-93658977D01*
X201988963Y-93462845D01*
X201969646Y-93266713D01*
X201912436Y-93078118D01*
X201912433Y-93078114D01*
X201912433Y-93078111D01*
X201819535Y-92904312D01*
X201819531Y-92904305D01*
X201694505Y-92751961D01*
X201542161Y-92626935D01*
X201542154Y-92626931D01*
X201368355Y-92534033D01*
X201368349Y-92534031D01*
X201179754Y-92476821D01*
X201179751Y-92476820D01*
X200983622Y-92457504D01*
X200787492Y-92476820D01*
X200598888Y-92534033D01*
X200425089Y-92626931D01*
X200425082Y-92626935D01*
X200272738Y-92751961D01*
X200147712Y-92904305D01*
X200147708Y-92904312D01*
X200054810Y-93078111D01*
X199997597Y-93266715D01*
X199978281Y-93462845D01*
X184208963Y-93462845D01*
X184189646Y-93266713D01*
X184132436Y-93078118D01*
X184132433Y-93078114D01*
X184132433Y-93078111D01*
X184039535Y-92904312D01*
X184039531Y-92904305D01*
X183914505Y-92751961D01*
X183762161Y-92626935D01*
X183762154Y-92626931D01*
X183588355Y-92534033D01*
X183588349Y-92534031D01*
X183399754Y-92476821D01*
X183399751Y-92476820D01*
X183203622Y-92457504D01*
X183007492Y-92476820D01*
X182818888Y-92534033D01*
X182645089Y-92626931D01*
X182645082Y-92626935D01*
X182492738Y-92751961D01*
X182367712Y-92904305D01*
X182367708Y-92904312D01*
X182274810Y-93078111D01*
X182217597Y-93266715D01*
X182198281Y-93462845D01*
X182217597Y-93658974D01*
X182274810Y-93847578D01*
X182367708Y-94021377D01*
X182367712Y-94021384D01*
X182492738Y-94173728D01*
X182645082Y-94298754D01*
X182645089Y-94298758D01*
X182818890Y-94391657D01*
X182818892Y-94391657D01*
X182818895Y-94391659D01*
X182879966Y-94410184D01*
X182938404Y-94448482D01*
X182966860Y-94512294D01*
X182956300Y-94581361D01*
X182910076Y-94633755D01*
X182843970Y-94652845D01*
X182305777Y-94652845D01*
X182246249Y-94659246D01*
X182246242Y-94659248D01*
X182111535Y-94709490D01*
X182111528Y-94709494D01*
X181996434Y-94795654D01*
X181996431Y-94795657D01*
X181910271Y-94910751D01*
X181910267Y-94910758D01*
X181860025Y-95045465D01*
X181860023Y-95045472D01*
X181853622Y-95105000D01*
X181853622Y-95752845D01*
X182758050Y-95752845D01*
X182734940Y-95788805D01*
X182693622Y-95929518D01*
X182693622Y-96076172D01*
X182734940Y-96216885D01*
X182758050Y-96252845D01*
X181853622Y-96252845D01*
X181853622Y-96900689D01*
X147000500Y-96900689D01*
X147000500Y-96187145D01*
X167408372Y-96187145D01*
X167427292Y-96330853D01*
X167427293Y-96330857D01*
X167482759Y-96464767D01*
X167482760Y-96464769D01*
X167482761Y-96464770D01*
X167571001Y-96579766D01*
X167685997Y-96668006D01*
X167819913Y-96723475D01*
X167946902Y-96740193D01*
X167963621Y-96742395D01*
X167963622Y-96742395D01*
X167963623Y-96742395D01*
X167978599Y-96740423D01*
X168107331Y-96723475D01*
X168241247Y-96668006D01*
X168356243Y-96579766D01*
X168444483Y-96464770D01*
X168499952Y-96330854D01*
X168518872Y-96187145D01*
X168499952Y-96043436D01*
X168444483Y-95909520D01*
X168436152Y-95898663D01*
X168389746Y-95838184D01*
X168364552Y-95773014D01*
X168364122Y-95762698D01*
X168364122Y-92718889D01*
X168383807Y-92651850D01*
X168389747Y-92643402D01*
X168402386Y-92626931D01*
X168444483Y-92572070D01*
X168499952Y-92438154D01*
X168518872Y-92294445D01*
X168499952Y-92150736D01*
X168444483Y-92016820D01*
X168356243Y-91901824D01*
X168241247Y-91813584D01*
X168241246Y-91813583D01*
X168241244Y-91813582D01*
X168107334Y-91758116D01*
X168107332Y-91758115D01*
X168107331Y-91758115D01*
X168035476Y-91748655D01*
X167963623Y-91739195D01*
X167963621Y-91739195D01*
X167819913Y-91758115D01*
X167819909Y-91758116D01*
X167685999Y-91813582D01*
X167571001Y-91901824D01*
X167482759Y-92016822D01*
X167427293Y-92150732D01*
X167427292Y-92150736D01*
X167408372Y-92294445D01*
X167425491Y-92424478D01*
X167427292Y-92438153D01*
X167427293Y-92438157D01*
X167482760Y-92572068D01*
X167482761Y-92572070D01*
X167537497Y-92643402D01*
X167562692Y-92708570D01*
X167563122Y-92718889D01*
X167563122Y-95762698D01*
X167543437Y-95829737D01*
X167537498Y-95838184D01*
X167482761Y-95909519D01*
X167482760Y-95909521D01*
X167427293Y-96043432D01*
X167427292Y-96043436D01*
X167408372Y-96187144D01*
X167408372Y-96187145D01*
X147000500Y-96187145D01*
X147000500Y-93666286D01*
X155095022Y-93666286D01*
X155100062Y-93719069D01*
X155110028Y-93823441D01*
X155169373Y-94025549D01*
X155169374Y-94025552D01*
X155169375Y-94025553D01*
X155218825Y-94121472D01*
X155265899Y-94212784D01*
X155396111Y-94378363D01*
X155396112Y-94378364D01*
X155555311Y-94516311D01*
X155737731Y-94621631D01*
X155737732Y-94621631D01*
X155737735Y-94621633D01*
X155936797Y-94690529D01*
X156145300Y-94720507D01*
X156355709Y-94710484D01*
X156560419Y-94660822D01*
X156752030Y-94573316D01*
X156752036Y-94573312D01*
X156923614Y-94451132D01*
X156923615Y-94451130D01*
X156923619Y-94451128D01*
X157068982Y-94298676D01*
X157182867Y-94121468D01*
X157261157Y-93925909D01*
X157301022Y-93719069D01*
X157301022Y-93666286D01*
X157635022Y-93666286D01*
X157640062Y-93719069D01*
X157650028Y-93823441D01*
X157709373Y-94025549D01*
X157709374Y-94025552D01*
X157709375Y-94025553D01*
X157758825Y-94121472D01*
X157805899Y-94212784D01*
X157936111Y-94378363D01*
X157936112Y-94378364D01*
X158095311Y-94516311D01*
X158277731Y-94621631D01*
X158277732Y-94621631D01*
X158277735Y-94621633D01*
X158476797Y-94690529D01*
X158685300Y-94720507D01*
X158895709Y-94710484D01*
X159100419Y-94660822D01*
X159275058Y-94581067D01*
X160175021Y-94581067D01*
X160183753Y-94624962D01*
X160183756Y-94624969D01*
X160207712Y-94660822D01*
X160217018Y-94674749D01*
X160266800Y-94708012D01*
X160266803Y-94708012D01*
X160266804Y-94708013D01*
X160310699Y-94716745D01*
X160310702Y-94716745D01*
X162245344Y-94716745D01*
X162289239Y-94708013D01*
X162289239Y-94708012D01*
X162289244Y-94708012D01*
X162339026Y-94674749D01*
X162372289Y-94624967D01*
X162372953Y-94621631D01*
X162381022Y-94581067D01*
X162381022Y-92551422D01*
X162372290Y-92507527D01*
X162372289Y-92507526D01*
X162372289Y-92507523D01*
X162339026Y-92457741D01*
X162339025Y-92457740D01*
X162289246Y-92424479D01*
X162289239Y-92424476D01*
X162245344Y-92415745D01*
X162245342Y-92415745D01*
X160310702Y-92415745D01*
X160310700Y-92415745D01*
X160266804Y-92424476D01*
X160266797Y-92424479D01*
X160217018Y-92457740D01*
X160217017Y-92457741D01*
X160183756Y-92507520D01*
X160183753Y-92507527D01*
X160175022Y-92551422D01*
X160175022Y-92551425D01*
X160175022Y-94581065D01*
X160175022Y-94581067D01*
X160175021Y-94581067D01*
X159275058Y-94581067D01*
X159292030Y-94573316D01*
X159292036Y-94573312D01*
X159463614Y-94451132D01*
X159463615Y-94451130D01*
X159463619Y-94451128D01*
X159608982Y-94298676D01*
X159722867Y-94121468D01*
X159801157Y-93925909D01*
X159841022Y-93719069D01*
X159841022Y-93466204D01*
X159826016Y-93309051D01*
X159766669Y-93106937D01*
X159670145Y-92919706D01*
X159539932Y-92754126D01*
X159537435Y-92751962D01*
X159380732Y-92616178D01*
X159198312Y-92510858D01*
X158999252Y-92441962D01*
X158999248Y-92441961D01*
X158999247Y-92441961D01*
X158790744Y-92411983D01*
X158790741Y-92411983D01*
X158760672Y-92413415D01*
X158580335Y-92422006D01*
X158375625Y-92471668D01*
X158364344Y-92476820D01*
X158184013Y-92559173D01*
X158184007Y-92559177D01*
X158012429Y-92681357D01*
X158012423Y-92681363D01*
X157867058Y-92833817D01*
X157753179Y-93011017D01*
X157674886Y-93206582D01*
X157635022Y-93413420D01*
X157635022Y-93413421D01*
X157635022Y-93666286D01*
X157301022Y-93666286D01*
X157301022Y-93466204D01*
X157286016Y-93309051D01*
X157226669Y-93106937D01*
X157130145Y-92919706D01*
X156999932Y-92754126D01*
X156997435Y-92751962D01*
X156840732Y-92616178D01*
X156658312Y-92510858D01*
X156459252Y-92441962D01*
X156459248Y-92441961D01*
X156459247Y-92441961D01*
X156250744Y-92411983D01*
X156250741Y-92411983D01*
X156220672Y-92413415D01*
X156040335Y-92422006D01*
X155835625Y-92471668D01*
X155824344Y-92476820D01*
X155644013Y-92559173D01*
X155644007Y-92559177D01*
X155472429Y-92681357D01*
X155472423Y-92681363D01*
X155327058Y-92833817D01*
X155213179Y-93011017D01*
X155134886Y-93206582D01*
X155095022Y-93413420D01*
X155095022Y-93413421D01*
X155095022Y-93666286D01*
X147000500Y-93666286D01*
X147000500Y-90922845D01*
X182198281Y-90922845D01*
X182217597Y-91118974D01*
X182274810Y-91307578D01*
X182367708Y-91481377D01*
X182367712Y-91481384D01*
X182492738Y-91633728D01*
X182645082Y-91758754D01*
X182645089Y-91758758D01*
X182818888Y-91851656D01*
X182818891Y-91851656D01*
X182818895Y-91851659D01*
X183007490Y-91908869D01*
X183203622Y-91928186D01*
X183399754Y-91908869D01*
X183588349Y-91851659D01*
X183762160Y-91758755D01*
X183914505Y-91633728D01*
X184039532Y-91481383D01*
X184132436Y-91307572D01*
X184189646Y-91118977D01*
X184208963Y-90922845D01*
X199978281Y-90922845D01*
X199997597Y-91118974D01*
X200054810Y-91307578D01*
X200147708Y-91481377D01*
X200147712Y-91481384D01*
X200272738Y-91633728D01*
X200425082Y-91758754D01*
X200425089Y-91758758D01*
X200598888Y-91851656D01*
X200598891Y-91851656D01*
X200598895Y-91851659D01*
X200787490Y-91908869D01*
X200983622Y-91928186D01*
X201179754Y-91908869D01*
X201368349Y-91851659D01*
X201542160Y-91758755D01*
X201694505Y-91633728D01*
X201819532Y-91481383D01*
X201912436Y-91307572D01*
X201969646Y-91118977D01*
X201988963Y-90922845D01*
X201969646Y-90726713D01*
X201912436Y-90538118D01*
X201912433Y-90538114D01*
X201912433Y-90538111D01*
X201819535Y-90364312D01*
X201819531Y-90364305D01*
X201694505Y-90211961D01*
X201542161Y-90086935D01*
X201542154Y-90086931D01*
X201368355Y-89994033D01*
X201368349Y-89994031D01*
X201179754Y-89936821D01*
X201179751Y-89936820D01*
X200983622Y-89917504D01*
X200787492Y-89936820D01*
X200598888Y-89994033D01*
X200425089Y-90086931D01*
X200425082Y-90086935D01*
X200272738Y-90211961D01*
X200147712Y-90364305D01*
X200147708Y-90364312D01*
X200054810Y-90538111D01*
X199997597Y-90726715D01*
X199978281Y-90922845D01*
X184208963Y-90922845D01*
X184189646Y-90726713D01*
X184132436Y-90538118D01*
X184132433Y-90538114D01*
X184132433Y-90538111D01*
X184039535Y-90364312D01*
X184039531Y-90364305D01*
X183914505Y-90211961D01*
X183762161Y-90086935D01*
X183762154Y-90086931D01*
X183588355Y-89994033D01*
X183588349Y-89994031D01*
X183399754Y-89936821D01*
X183399751Y-89936820D01*
X183203622Y-89917504D01*
X183007492Y-89936820D01*
X182818888Y-89994033D01*
X182645089Y-90086931D01*
X182645082Y-90086935D01*
X182492738Y-90211961D01*
X182367712Y-90364305D01*
X182367708Y-90364312D01*
X182274810Y-90538111D01*
X182217597Y-90726715D01*
X182198281Y-90922845D01*
X147000500Y-90922845D01*
X147000500Y-88382845D01*
X182198281Y-88382845D01*
X182217597Y-88578974D01*
X182274810Y-88767578D01*
X182367708Y-88941377D01*
X182367712Y-88941384D01*
X182492738Y-89093728D01*
X182645082Y-89218754D01*
X182645089Y-89218758D01*
X182818888Y-89311656D01*
X182818891Y-89311656D01*
X182818895Y-89311659D01*
X183007490Y-89368869D01*
X183203622Y-89388186D01*
X183399754Y-89368869D01*
X183588349Y-89311659D01*
X183762160Y-89218755D01*
X183914505Y-89093728D01*
X184039532Y-88941383D01*
X184132436Y-88767572D01*
X184189646Y-88578977D01*
X184208963Y-88382845D01*
X199978281Y-88382845D01*
X199997597Y-88578974D01*
X200054810Y-88767578D01*
X200147708Y-88941377D01*
X200147712Y-88941384D01*
X200272738Y-89093728D01*
X200425082Y-89218754D01*
X200425089Y-89218758D01*
X200598888Y-89311656D01*
X200598891Y-89311656D01*
X200598895Y-89311659D01*
X200787490Y-89368869D01*
X200983622Y-89388186D01*
X201179754Y-89368869D01*
X201368349Y-89311659D01*
X201542160Y-89218755D01*
X201694505Y-89093728D01*
X201819532Y-88941383D01*
X201912436Y-88767572D01*
X201969646Y-88578977D01*
X201988963Y-88382845D01*
X201969646Y-88186713D01*
X201912436Y-87998118D01*
X201912433Y-87998114D01*
X201912433Y-87998111D01*
X201819535Y-87824312D01*
X201819531Y-87824305D01*
X201694505Y-87671961D01*
X201542161Y-87546935D01*
X201542154Y-87546931D01*
X201368355Y-87454033D01*
X201368349Y-87454031D01*
X201179754Y-87396821D01*
X201179751Y-87396820D01*
X200983622Y-87377504D01*
X200787492Y-87396820D01*
X200598888Y-87454033D01*
X200425089Y-87546931D01*
X200425082Y-87546935D01*
X200272738Y-87671961D01*
X200147712Y-87824305D01*
X200147708Y-87824312D01*
X200054810Y-87998111D01*
X199997597Y-88186715D01*
X199978281Y-88382845D01*
X184208963Y-88382845D01*
X184189646Y-88186713D01*
X184132436Y-87998118D01*
X184132433Y-87998114D01*
X184132433Y-87998111D01*
X184039535Y-87824312D01*
X184039531Y-87824305D01*
X183914505Y-87671961D01*
X183762161Y-87546935D01*
X183762154Y-87546931D01*
X183588355Y-87454033D01*
X183588349Y-87454031D01*
X183399754Y-87396821D01*
X183399751Y-87396820D01*
X183203622Y-87377504D01*
X183007492Y-87396820D01*
X182818888Y-87454033D01*
X182645089Y-87546931D01*
X182645082Y-87546935D01*
X182492738Y-87671961D01*
X182367712Y-87824305D01*
X182367708Y-87824312D01*
X182274810Y-87998111D01*
X182217597Y-88186715D01*
X182198281Y-88382845D01*
X147000500Y-88382845D01*
X147000500Y-87755267D01*
X164235721Y-87755267D01*
X164244453Y-87799162D01*
X164244456Y-87799169D01*
X164261253Y-87824307D01*
X164277718Y-87848949D01*
X164327500Y-87882212D01*
X164327503Y-87882212D01*
X164327504Y-87882213D01*
X164371399Y-87890945D01*
X164371402Y-87890945D01*
X166201044Y-87890945D01*
X166244939Y-87882213D01*
X166244939Y-87882212D01*
X166244944Y-87882212D01*
X166294726Y-87848949D01*
X166327989Y-87799167D01*
X166336722Y-87755265D01*
X166336722Y-86840445D01*
X166770639Y-86840445D01*
X166790921Y-87046377D01*
X166790922Y-87046379D01*
X166850990Y-87244399D01*
X166948537Y-87426895D01*
X166983191Y-87469122D01*
X167079811Y-87586855D01*
X167176431Y-87666147D01*
X167239772Y-87718130D01*
X167422268Y-87815677D01*
X167620288Y-87875745D01*
X167620287Y-87875745D01*
X167638751Y-87877563D01*
X167826222Y-87896028D01*
X168032156Y-87875745D01*
X168230176Y-87815677D01*
X168412672Y-87718130D01*
X168572632Y-87586855D01*
X168703907Y-87426895D01*
X168801454Y-87244399D01*
X168861522Y-87046379D01*
X168881805Y-86840445D01*
X168861522Y-86634511D01*
X168801454Y-86436491D01*
X168703907Y-86253995D01*
X168651924Y-86190654D01*
X168572632Y-86094034D01*
X168412674Y-85962762D01*
X168412675Y-85962762D01*
X168412672Y-85962760D01*
X168230176Y-85865213D01*
X168032156Y-85805145D01*
X168032154Y-85805144D01*
X168032156Y-85805144D01*
X167826222Y-85784862D01*
X167620289Y-85805144D01*
X167422265Y-85865214D01*
X167312120Y-85924088D01*
X167239772Y-85962760D01*
X167239770Y-85962761D01*
X167239769Y-85962762D01*
X167079811Y-86094034D01*
X166948539Y-86253992D01*
X166850991Y-86436488D01*
X166790921Y-86634512D01*
X166770639Y-86840445D01*
X166336722Y-86840445D01*
X166336722Y-85925625D01*
X166336722Y-85925622D01*
X166327990Y-85881727D01*
X166327989Y-85881726D01*
X166327989Y-85881723D01*
X166294726Y-85831941D01*
X166254623Y-85805145D01*
X166244946Y-85798679D01*
X166244939Y-85798676D01*
X166201044Y-85789945D01*
X166201042Y-85789945D01*
X164371402Y-85789945D01*
X164371400Y-85789945D01*
X164327504Y-85798676D01*
X164327497Y-85798679D01*
X164277718Y-85831940D01*
X164277717Y-85831941D01*
X164244456Y-85881720D01*
X164244453Y-85881727D01*
X164235722Y-85925622D01*
X164235722Y-85925625D01*
X164235722Y-87755265D01*
X164235722Y-87755267D01*
X164235721Y-87755267D01*
X147000500Y-87755267D01*
X147000500Y-84200689D01*
X181853622Y-84200689D01*
X181860023Y-84260217D01*
X181860025Y-84260224D01*
X181910267Y-84394931D01*
X181910271Y-84394938D01*
X181996431Y-84510032D01*
X181996434Y-84510035D01*
X182111528Y-84596195D01*
X182111535Y-84596199D01*
X182246242Y-84646441D01*
X182246249Y-84646443D01*
X182305777Y-84652844D01*
X182305794Y-84652845D01*
X182843970Y-84652845D01*
X182911009Y-84672530D01*
X182956764Y-84725334D01*
X182966708Y-84794492D01*
X182937683Y-84858048D01*
X182879966Y-84895505D01*
X182850252Y-84904518D01*
X182818890Y-84914032D01*
X182645089Y-85006931D01*
X182645082Y-85006935D01*
X182492738Y-85131961D01*
X182367712Y-85284305D01*
X182367708Y-85284312D01*
X182274810Y-85458111D01*
X182217597Y-85646715D01*
X182198281Y-85842845D01*
X182217597Y-86038974D01*
X182274810Y-86227578D01*
X182367708Y-86401377D01*
X182367712Y-86401384D01*
X182492738Y-86553728D01*
X182645082Y-86678754D01*
X182645089Y-86678758D01*
X182818888Y-86771656D01*
X182818891Y-86771656D01*
X182818895Y-86771659D01*
X183007490Y-86828869D01*
X183203622Y-86848186D01*
X183399754Y-86828869D01*
X183588349Y-86771659D01*
X183762160Y-86678755D01*
X183914505Y-86553728D01*
X184039532Y-86401383D01*
X184132436Y-86227572D01*
X184189646Y-86038977D01*
X184208963Y-85842845D01*
X184189646Y-85646713D01*
X184132436Y-85458118D01*
X184132433Y-85458114D01*
X184132433Y-85458111D01*
X184039535Y-85284312D01*
X184039531Y-85284305D01*
X183914505Y-85131961D01*
X183762161Y-85006935D01*
X183762154Y-85006931D01*
X183588353Y-84914032D01*
X183569812Y-84908407D01*
X183527277Y-84895505D01*
X183468840Y-84857208D01*
X183440384Y-84793396D01*
X183450944Y-84724329D01*
X183497168Y-84671935D01*
X183563274Y-84652845D01*
X184101450Y-84652845D01*
X184101466Y-84652844D01*
X184160994Y-84646443D01*
X184161001Y-84646441D01*
X184295708Y-84596199D01*
X184295715Y-84596195D01*
X184410809Y-84510035D01*
X184410812Y-84510032D01*
X184496972Y-84394938D01*
X184496976Y-84394931D01*
X184547218Y-84260224D01*
X184547220Y-84260217D01*
X184553621Y-84200689D01*
X199633622Y-84200689D01*
X199640023Y-84260217D01*
X199640025Y-84260224D01*
X199690267Y-84394931D01*
X199690271Y-84394938D01*
X199776431Y-84510032D01*
X199776434Y-84510035D01*
X199891528Y-84596195D01*
X199891535Y-84596199D01*
X200026242Y-84646441D01*
X200026249Y-84646443D01*
X200085777Y-84652844D01*
X200085794Y-84652845D01*
X200623970Y-84652845D01*
X200691009Y-84672530D01*
X200736764Y-84725334D01*
X200746708Y-84794492D01*
X200717683Y-84858048D01*
X200659966Y-84895505D01*
X200630252Y-84904518D01*
X200598890Y-84914032D01*
X200425089Y-85006931D01*
X200425082Y-85006935D01*
X200272738Y-85131961D01*
X200147712Y-85284305D01*
X200147708Y-85284312D01*
X200054810Y-85458111D01*
X199997597Y-85646715D01*
X199978281Y-85842845D01*
X199997597Y-86038974D01*
X200054810Y-86227578D01*
X200147708Y-86401377D01*
X200147712Y-86401384D01*
X200272738Y-86553728D01*
X200425082Y-86678754D01*
X200425089Y-86678758D01*
X200598888Y-86771656D01*
X200598891Y-86771656D01*
X200598895Y-86771659D01*
X200787490Y-86828869D01*
X200983622Y-86848186D01*
X201179754Y-86828869D01*
X201368349Y-86771659D01*
X201542160Y-86678755D01*
X201694505Y-86553728D01*
X201819532Y-86401383D01*
X201912436Y-86227572D01*
X201969646Y-86038977D01*
X201988963Y-85842845D01*
X201969646Y-85646713D01*
X201912436Y-85458118D01*
X201912433Y-85458114D01*
X201912433Y-85458111D01*
X201819535Y-85284312D01*
X201819531Y-85284305D01*
X201694505Y-85131961D01*
X201542161Y-85006935D01*
X201542154Y-85006931D01*
X201368353Y-84914032D01*
X201349812Y-84908407D01*
X201307277Y-84895505D01*
X201248840Y-84857208D01*
X201220384Y-84793396D01*
X201230944Y-84724329D01*
X201277168Y-84671935D01*
X201343274Y-84652845D01*
X201881450Y-84652845D01*
X201881466Y-84652844D01*
X201940994Y-84646443D01*
X201941001Y-84646441D01*
X202075708Y-84596199D01*
X202075715Y-84596195D01*
X202190809Y-84510035D01*
X202190812Y-84510032D01*
X202276972Y-84394938D01*
X202276976Y-84394931D01*
X202327218Y-84260224D01*
X202327220Y-84260217D01*
X202333621Y-84200689D01*
X202333622Y-84200672D01*
X202333622Y-83552845D01*
X201429194Y-83552845D01*
X201452304Y-83516885D01*
X201493622Y-83376172D01*
X201493622Y-83229518D01*
X201452304Y-83088805D01*
X201429194Y-83052845D01*
X202333622Y-83052845D01*
X202333622Y-82405017D01*
X202333621Y-82405000D01*
X202327220Y-82345472D01*
X202327218Y-82345465D01*
X202276976Y-82210758D01*
X202276972Y-82210751D01*
X202190812Y-82095657D01*
X202190809Y-82095654D01*
X202075715Y-82009494D01*
X202075708Y-82009490D01*
X201941001Y-81959248D01*
X201940994Y-81959246D01*
X201881466Y-81952845D01*
X201343274Y-81952845D01*
X201276235Y-81933160D01*
X201230480Y-81880356D01*
X201220536Y-81811198D01*
X201249561Y-81747642D01*
X201307277Y-81710184D01*
X201368349Y-81691659D01*
X201542160Y-81598755D01*
X201694505Y-81473728D01*
X201819532Y-81321383D01*
X201888204Y-81192907D01*
X201912433Y-81147578D01*
X201912433Y-81147577D01*
X201912436Y-81147572D01*
X201969646Y-80958977D01*
X201988963Y-80762845D01*
X201969646Y-80566713D01*
X201912436Y-80378118D01*
X201912433Y-80378114D01*
X201912433Y-80378111D01*
X201819535Y-80204312D01*
X201819531Y-80204305D01*
X201694505Y-80051961D01*
X201542161Y-79926935D01*
X201542154Y-79926931D01*
X201368355Y-79834033D01*
X201368349Y-79834031D01*
X201179754Y-79776821D01*
X201179751Y-79776820D01*
X200983622Y-79757504D01*
X200787492Y-79776820D01*
X200598888Y-79834033D01*
X200425089Y-79926931D01*
X200425082Y-79926935D01*
X200272738Y-80051961D01*
X200147712Y-80204305D01*
X200147708Y-80204312D01*
X200054810Y-80378111D01*
X199997597Y-80566715D01*
X199978281Y-80762845D01*
X199997597Y-80958974D01*
X199997598Y-80958977D01*
X200049714Y-81130781D01*
X200054810Y-81147578D01*
X200147708Y-81321377D01*
X200147712Y-81321384D01*
X200272738Y-81473728D01*
X200425082Y-81598754D01*
X200425089Y-81598758D01*
X200598890Y-81691657D01*
X200598892Y-81691657D01*
X200598895Y-81691659D01*
X200659966Y-81710184D01*
X200718404Y-81748482D01*
X200746860Y-81812294D01*
X200736300Y-81881361D01*
X200690076Y-81933755D01*
X200623970Y-81952845D01*
X200085777Y-81952845D01*
X200026249Y-81959246D01*
X200026242Y-81959248D01*
X199891535Y-82009490D01*
X199891528Y-82009494D01*
X199776434Y-82095654D01*
X199776431Y-82095657D01*
X199690271Y-82210751D01*
X199690267Y-82210758D01*
X199640025Y-82345465D01*
X199640023Y-82345472D01*
X199633622Y-82405000D01*
X199633622Y-83052845D01*
X200538050Y-83052845D01*
X200514940Y-83088805D01*
X200473622Y-83229518D01*
X200473622Y-83376172D01*
X200514940Y-83516885D01*
X200538050Y-83552845D01*
X199633622Y-83552845D01*
X199633622Y-84200689D01*
X184553621Y-84200689D01*
X184553622Y-84200672D01*
X184553622Y-83552845D01*
X183649194Y-83552845D01*
X183672304Y-83516885D01*
X183713622Y-83376172D01*
X183713622Y-83229518D01*
X183672304Y-83088805D01*
X183649194Y-83052845D01*
X184553622Y-83052845D01*
X184553622Y-82405017D01*
X184553621Y-82405000D01*
X184547220Y-82345472D01*
X184547218Y-82345465D01*
X184496976Y-82210758D01*
X184496972Y-82210751D01*
X184410812Y-82095657D01*
X184410809Y-82095654D01*
X184295715Y-82009494D01*
X184295708Y-82009490D01*
X184161001Y-81959248D01*
X184160994Y-81959246D01*
X184101466Y-81952845D01*
X183563274Y-81952845D01*
X183496235Y-81933160D01*
X183450480Y-81880356D01*
X183440536Y-81811198D01*
X183469561Y-81747642D01*
X183527277Y-81710184D01*
X183588349Y-81691659D01*
X183762160Y-81598755D01*
X183914505Y-81473728D01*
X183947289Y-81433781D01*
X188664253Y-81433781D01*
X188695064Y-81634908D01*
X188695067Y-81634920D01*
X188765733Y-81825726D01*
X188765737Y-81825733D01*
X188873367Y-81998412D01*
X188873369Y-81998414D01*
X188873370Y-81998416D01*
X189013563Y-82145898D01*
X189141966Y-82235269D01*
X189180571Y-82262139D01*
X189180572Y-82262139D01*
X189180573Y-82262140D01*
X189367564Y-82342385D01*
X189566881Y-82383345D01*
X189719365Y-82383345D01*
X189871061Y-82367919D01*
X190065201Y-82307007D01*
X190065202Y-82307006D01*
X190065210Y-82307004D01*
X190243124Y-82208254D01*
X190397517Y-82075711D01*
X190522070Y-81914803D01*
X190611682Y-81732116D01*
X190662685Y-81535130D01*
X190667825Y-81433781D01*
X193514253Y-81433781D01*
X193545064Y-81634908D01*
X193545067Y-81634920D01*
X193615733Y-81825726D01*
X193615737Y-81825733D01*
X193723367Y-81998412D01*
X193723369Y-81998414D01*
X193723370Y-81998416D01*
X193863563Y-82145898D01*
X193991966Y-82235269D01*
X194030571Y-82262139D01*
X194030572Y-82262139D01*
X194030573Y-82262140D01*
X194217564Y-82342385D01*
X194416881Y-82383345D01*
X194569365Y-82383345D01*
X194721061Y-82367919D01*
X194915201Y-82307007D01*
X194915202Y-82307006D01*
X194915210Y-82307004D01*
X195093124Y-82208254D01*
X195247517Y-82075711D01*
X195372070Y-81914803D01*
X195461682Y-81732116D01*
X195512685Y-81535130D01*
X195522991Y-81331909D01*
X195492178Y-81130774D01*
X195421508Y-80939958D01*
X195313874Y-80767274D01*
X195173681Y-80619792D01*
X195075209Y-80551254D01*
X195006672Y-80503550D01*
X194819678Y-80423304D01*
X194620363Y-80382345D01*
X194467880Y-80382345D01*
X194467879Y-80382345D01*
X194316182Y-80397770D01*
X194122042Y-80458682D01*
X194122027Y-80458689D01*
X193944122Y-80557434D01*
X193944117Y-80557437D01*
X193789728Y-80689977D01*
X193789726Y-80689979D01*
X193665176Y-80850882D01*
X193665175Y-80850885D01*
X193575562Y-81033573D01*
X193524559Y-81230559D01*
X193514253Y-81433781D01*
X190667825Y-81433781D01*
X190672991Y-81331909D01*
X190642178Y-81130774D01*
X190571508Y-80939958D01*
X190463874Y-80767274D01*
X190323681Y-80619792D01*
X190225209Y-80551254D01*
X190156672Y-80503550D01*
X189969678Y-80423304D01*
X189770363Y-80382345D01*
X189617880Y-80382345D01*
X189617879Y-80382345D01*
X189466182Y-80397770D01*
X189272042Y-80458682D01*
X189272027Y-80458689D01*
X189094122Y-80557434D01*
X189094117Y-80557437D01*
X188939728Y-80689977D01*
X188939726Y-80689979D01*
X188815176Y-80850882D01*
X188815175Y-80850885D01*
X188725562Y-81033573D01*
X188674559Y-81230559D01*
X188664253Y-81433781D01*
X183947289Y-81433781D01*
X184039532Y-81321383D01*
X184108204Y-81192907D01*
X184132433Y-81147578D01*
X184132433Y-81147577D01*
X184132436Y-81147572D01*
X184189646Y-80958977D01*
X184208963Y-80762845D01*
X184189646Y-80566713D01*
X184132436Y-80378118D01*
X184132433Y-80378114D01*
X184132433Y-80378111D01*
X184039535Y-80204312D01*
X184039531Y-80204305D01*
X183914505Y-80051961D01*
X183762161Y-79926935D01*
X183762154Y-79926931D01*
X183588355Y-79834033D01*
X183588349Y-79834031D01*
X183399754Y-79776821D01*
X183399751Y-79776820D01*
X183203622Y-79757504D01*
X183007492Y-79776820D01*
X182818888Y-79834033D01*
X182645089Y-79926931D01*
X182645082Y-79926935D01*
X182492738Y-80051961D01*
X182367712Y-80204305D01*
X182367708Y-80204312D01*
X182274810Y-80378111D01*
X182217597Y-80566715D01*
X182198281Y-80762845D01*
X182217597Y-80958974D01*
X182217598Y-80958977D01*
X182269714Y-81130781D01*
X182274810Y-81147578D01*
X182367708Y-81321377D01*
X182367712Y-81321384D01*
X182492738Y-81473728D01*
X182645082Y-81598754D01*
X182645089Y-81598758D01*
X182818890Y-81691657D01*
X182818892Y-81691657D01*
X182818895Y-81691659D01*
X182879966Y-81710184D01*
X182938404Y-81748482D01*
X182966860Y-81812294D01*
X182956300Y-81881361D01*
X182910076Y-81933755D01*
X182843970Y-81952845D01*
X182305777Y-81952845D01*
X182246249Y-81959246D01*
X182246242Y-81959248D01*
X182111535Y-82009490D01*
X182111528Y-82009494D01*
X181996434Y-82095654D01*
X181996431Y-82095657D01*
X181910271Y-82210751D01*
X181910267Y-82210758D01*
X181860025Y-82345465D01*
X181860023Y-82345472D01*
X181853622Y-82405000D01*
X181853622Y-83052845D01*
X182758050Y-83052845D01*
X182734940Y-83088805D01*
X182693622Y-83229518D01*
X182693622Y-83376172D01*
X182734940Y-83516885D01*
X182758050Y-83552845D01*
X181853622Y-83552845D01*
X181853622Y-84200689D01*
X147000500Y-84200689D01*
X147000500Y-80712045D01*
X176181672Y-80712045D01*
X176200592Y-80855753D01*
X176200593Y-80855757D01*
X176256059Y-80989667D01*
X176256060Y-80989669D01*
X176256061Y-80989670D01*
X176344301Y-81104666D01*
X176459297Y-81192906D01*
X176593213Y-81248375D01*
X176720202Y-81265093D01*
X176736921Y-81267295D01*
X176736922Y-81267295D01*
X176736923Y-81267295D01*
X176751899Y-81265323D01*
X176880631Y-81248375D01*
X177014547Y-81192906D01*
X177061202Y-81157105D01*
X177085882Y-81138169D01*
X177151051Y-81112975D01*
X177161368Y-81112545D01*
X178511976Y-81112545D01*
X178579015Y-81132230D01*
X178587462Y-81138169D01*
X178637004Y-81176184D01*
X178658797Y-81192906D01*
X178792713Y-81248375D01*
X178919702Y-81265093D01*
X178936421Y-81267295D01*
X178936422Y-81267295D01*
X178936423Y-81267295D01*
X178951399Y-81265323D01*
X179080131Y-81248375D01*
X179214047Y-81192906D01*
X179329043Y-81104666D01*
X179417283Y-80989670D01*
X179472752Y-80855754D01*
X179491672Y-80712045D01*
X179472752Y-80568336D01*
X179417283Y-80434420D01*
X179329043Y-80319424D01*
X179214047Y-80231184D01*
X179214046Y-80231183D01*
X179214044Y-80231182D01*
X179080134Y-80175716D01*
X179080132Y-80175715D01*
X179080131Y-80175715D01*
X179008276Y-80166255D01*
X178936423Y-80156795D01*
X178936421Y-80156795D01*
X178792713Y-80175715D01*
X178792709Y-80175716D01*
X178658798Y-80231183D01*
X178658796Y-80231184D01*
X178587462Y-80285921D01*
X178522293Y-80311115D01*
X178511976Y-80311545D01*
X177161368Y-80311545D01*
X177094329Y-80291860D01*
X177085882Y-80285921D01*
X177014547Y-80231184D01*
X177014545Y-80231183D01*
X176880634Y-80175716D01*
X176880632Y-80175715D01*
X176880631Y-80175715D01*
X176808776Y-80166255D01*
X176736923Y-80156795D01*
X176736921Y-80156795D01*
X176593213Y-80175715D01*
X176593209Y-80175716D01*
X176459299Y-80231182D01*
X176344301Y-80319424D01*
X176256059Y-80434422D01*
X176200593Y-80568332D01*
X176200592Y-80568336D01*
X176181672Y-80712044D01*
X176181672Y-80712045D01*
X147000500Y-80712045D01*
X147000500Y-78222845D01*
X182198281Y-78222845D01*
X182217597Y-78418974D01*
X182274810Y-78607578D01*
X182367708Y-78781377D01*
X182367712Y-78781384D01*
X182492738Y-78933728D01*
X182645082Y-79058754D01*
X182645089Y-79058758D01*
X182818888Y-79151656D01*
X182818891Y-79151656D01*
X182818895Y-79151659D01*
X183007490Y-79208869D01*
X183203622Y-79228186D01*
X183399754Y-79208869D01*
X183588349Y-79151659D01*
X183762160Y-79058755D01*
X183914505Y-78933728D01*
X184039532Y-78781383D01*
X184132436Y-78607572D01*
X184177367Y-78459455D01*
X188218122Y-78459455D01*
X188257301Y-78669043D01*
X188334324Y-78867864D01*
X188446570Y-79049147D01*
X188455332Y-79058758D01*
X188590215Y-79206717D01*
X188760368Y-79335212D01*
X188951228Y-79430248D01*
X188951230Y-79430248D01*
X188951233Y-79430250D01*
X189156312Y-79488601D01*
X189315428Y-79503345D01*
X189315432Y-79503345D01*
X189421812Y-79503345D01*
X189421816Y-79503345D01*
X189580932Y-79488601D01*
X189786011Y-79430250D01*
X189786015Y-79430248D01*
X189786016Y-79430248D01*
X189976875Y-79335212D01*
X189976875Y-79335211D01*
X189976877Y-79335211D01*
X190147029Y-79206717D01*
X190290674Y-79049147D01*
X190402920Y-78867864D01*
X190479943Y-78669043D01*
X190519122Y-78459455D01*
X193668122Y-78459455D01*
X193707301Y-78669043D01*
X193784324Y-78867864D01*
X193896570Y-79049147D01*
X193905332Y-79058758D01*
X194040215Y-79206717D01*
X194210368Y-79335212D01*
X194401228Y-79430248D01*
X194401230Y-79430248D01*
X194401233Y-79430250D01*
X194606312Y-79488601D01*
X194765428Y-79503345D01*
X194765432Y-79503345D01*
X194871812Y-79503345D01*
X194871816Y-79503345D01*
X195030932Y-79488601D01*
X195236011Y-79430250D01*
X195236015Y-79430248D01*
X195236016Y-79430248D01*
X195426875Y-79335212D01*
X195426875Y-79335211D01*
X195426877Y-79335211D01*
X195597029Y-79206717D01*
X195740674Y-79049147D01*
X195852920Y-78867864D01*
X195929943Y-78669043D01*
X195969122Y-78459455D01*
X195969122Y-78246235D01*
X195964750Y-78222845D01*
X199978281Y-78222845D01*
X199997597Y-78418974D01*
X200054810Y-78607578D01*
X200147708Y-78781377D01*
X200147712Y-78781384D01*
X200272738Y-78933728D01*
X200425082Y-79058754D01*
X200425089Y-79058758D01*
X200598888Y-79151656D01*
X200598891Y-79151656D01*
X200598895Y-79151659D01*
X200787490Y-79208869D01*
X200983622Y-79228186D01*
X201179754Y-79208869D01*
X201368349Y-79151659D01*
X201542160Y-79058755D01*
X201694505Y-78933728D01*
X201819532Y-78781383D01*
X201912436Y-78607572D01*
X201969646Y-78418977D01*
X201988963Y-78222845D01*
X201969646Y-78026713D01*
X201912436Y-77838118D01*
X201912433Y-77838114D01*
X201912433Y-77838111D01*
X201819535Y-77664312D01*
X201819531Y-77664305D01*
X201694505Y-77511961D01*
X201542161Y-77386935D01*
X201542154Y-77386931D01*
X201368355Y-77294033D01*
X201368349Y-77294031D01*
X201179754Y-77236821D01*
X201179751Y-77236820D01*
X200983622Y-77217504D01*
X200787492Y-77236820D01*
X200598888Y-77294033D01*
X200425089Y-77386931D01*
X200425082Y-77386935D01*
X200272738Y-77511961D01*
X200147712Y-77664305D01*
X200147708Y-77664312D01*
X200054810Y-77838111D01*
X199997597Y-78026715D01*
X199978281Y-78222845D01*
X195964750Y-78222845D01*
X195929943Y-78036647D01*
X195852920Y-77837826D01*
X195740674Y-77656543D01*
X195597029Y-77498973D01*
X195597028Y-77498972D01*
X195426875Y-77370477D01*
X195236015Y-77275441D01*
X195030932Y-77217089D01*
X194871816Y-77202345D01*
X194765428Y-77202345D01*
X194638135Y-77214140D01*
X194606311Y-77217089D01*
X194401229Y-77275441D01*
X194401227Y-77275441D01*
X194210368Y-77370477D01*
X194040215Y-77498972D01*
X193896569Y-77656544D01*
X193784324Y-77837825D01*
X193784323Y-77837827D01*
X193707302Y-78036644D01*
X193707301Y-78036647D01*
X193668122Y-78246235D01*
X193668122Y-78459455D01*
X190519122Y-78459455D01*
X190519122Y-78246235D01*
X190479943Y-78036647D01*
X190402920Y-77837826D01*
X190290674Y-77656543D01*
X190147029Y-77498973D01*
X190147028Y-77498972D01*
X189976875Y-77370477D01*
X189786015Y-77275441D01*
X189580932Y-77217089D01*
X189421816Y-77202345D01*
X189315428Y-77202345D01*
X189188135Y-77214140D01*
X189156311Y-77217089D01*
X188951229Y-77275441D01*
X188951227Y-77275441D01*
X188760368Y-77370477D01*
X188590215Y-77498972D01*
X188446569Y-77656544D01*
X188334324Y-77837825D01*
X188334323Y-77837827D01*
X188257302Y-78036644D01*
X188257301Y-78036647D01*
X188218122Y-78246235D01*
X188218122Y-78459455D01*
X184177367Y-78459455D01*
X184189646Y-78418977D01*
X184208963Y-78222845D01*
X184189646Y-78026713D01*
X184132436Y-77838118D01*
X184132433Y-77838114D01*
X184132433Y-77838111D01*
X184039535Y-77664312D01*
X184039531Y-77664305D01*
X183914505Y-77511961D01*
X183762161Y-77386935D01*
X183762154Y-77386931D01*
X183588355Y-77294033D01*
X183588349Y-77294031D01*
X183399754Y-77236821D01*
X183399751Y-77236820D01*
X183203622Y-77217504D01*
X183007492Y-77236820D01*
X182818888Y-77294033D01*
X182645089Y-77386931D01*
X182645082Y-77386935D01*
X182492738Y-77511961D01*
X182367712Y-77664305D01*
X182367708Y-77664312D01*
X182274810Y-77838111D01*
X182217597Y-78026715D01*
X182198281Y-78222845D01*
X147000500Y-78222845D01*
X147000500Y-74924500D01*
X147020185Y-74857461D01*
X147072989Y-74811706D01*
X147124500Y-74800500D01*
X208475500Y-74800500D01*
X208542539Y-74820185D01*
G37*
%TD.AperFunction*%
%TD*%
M02*
