%TF.GenerationSoftware,KiCad,Pcbnew,7.0.9*%
%TF.CreationDate,2024-02-03T19:56:04+01:00*%
%TF.ProjectId,BPN,42504e2e-6b69-4636-9164-5f7063625858,29.01.2024*%
%TF.SameCoordinates,Original*%
%TF.FileFunction,Paste,Top*%
%TF.FilePolarity,Positive*%
%FSLAX46Y46*%
G04 Gerber Fmt 4.6, Leading zero omitted, Abs format (unit mm)*
G04 Created by KiCad (PCBNEW 7.0.9) date 2024-02-03 19:56:04*
%MOMM*%
%LPD*%
G01*
G04 APERTURE LIST*
G04 Aperture macros list*
%AMRoundRect*
0 Rectangle with rounded corners*
0 $1 Rounding radius*
0 $2 $3 $4 $5 $6 $7 $8 $9 X,Y pos of 4 corners*
0 Add a 4 corners polygon primitive as box body*
4,1,4,$2,$3,$4,$5,$6,$7,$8,$9,$2,$3,0*
0 Add four circle primitives for the rounded corners*
1,1,$1+$1,$2,$3*
1,1,$1+$1,$4,$5*
1,1,$1+$1,$6,$7*
1,1,$1+$1,$8,$9*
0 Add four rect primitives between the rounded corners*
20,1,$1+$1,$2,$3,$4,$5,0*
20,1,$1+$1,$4,$5,$6,$7,0*
20,1,$1+$1,$6,$7,$8,$9,0*
20,1,$1+$1,$8,$9,$2,$3,0*%
G04 Aperture macros list end*
%ADD10RoundRect,0.237500X0.237500X-0.250000X0.237500X0.250000X-0.237500X0.250000X-0.237500X-0.250000X0*%
%ADD11RoundRect,0.250000X-0.475000X0.337500X-0.475000X-0.337500X0.475000X-0.337500X0.475000X0.337500X0*%
%ADD12RoundRect,0.250000X0.337500X0.475000X-0.337500X0.475000X-0.337500X-0.475000X0.337500X-0.475000X0*%
%ADD13RoundRect,0.237500X0.250000X0.237500X-0.250000X0.237500X-0.250000X-0.237500X0.250000X-0.237500X0*%
%ADD14RoundRect,0.237500X-0.250000X-0.237500X0.250000X-0.237500X0.250000X0.237500X-0.250000X0.237500X0*%
%ADD15RoundRect,0.250000X-0.337500X-0.475000X0.337500X-0.475000X0.337500X0.475000X-0.337500X0.475000X0*%
%ADD16RoundRect,0.175000X0.175000X0.425000X-0.175000X0.425000X-0.175000X-0.425000X0.175000X-0.425000X0*%
%ADD17RoundRect,0.190000X-0.190000X-0.410000X0.190000X-0.410000X0.190000X0.410000X-0.190000X0.410000X0*%
%ADD18RoundRect,0.200000X-0.200000X-0.400000X0.200000X-0.400000X0.200000X0.400000X-0.200000X0.400000X0*%
%ADD19RoundRect,0.175000X-0.175000X-0.425000X0.175000X-0.425000X0.175000X0.425000X-0.175000X0.425000X0*%
%ADD20RoundRect,0.190000X0.190000X0.410000X-0.190000X0.410000X-0.190000X-0.410000X0.190000X-0.410000X0*%
%ADD21RoundRect,0.200000X0.200000X0.400000X-0.200000X0.400000X-0.200000X-0.400000X0.200000X-0.400000X0*%
%ADD22O,1.100000X1.700000*%
%ADD23RoundRect,0.250000X0.475000X-0.337500X0.475000X0.337500X-0.475000X0.337500X-0.475000X-0.337500X0*%
G04 APERTURE END LIST*
D10*
%TO.C,R8*%
X160385000Y-69287500D03*
X160385000Y-67462500D03*
%TD*%
D11*
%TO.C,C3*%
X152335000Y-63937500D03*
X152335000Y-66012500D03*
%TD*%
D12*
%TO.C,C1*%
X160772500Y-62925000D03*
X158697500Y-62925000D03*
%TD*%
D13*
%TO.C,R10*%
X157535000Y-66625000D03*
X155710000Y-66625000D03*
%TD*%
%TO.C,R1*%
X144207500Y-55736409D03*
X142382500Y-55736409D03*
%TD*%
D10*
%TO.C,R7*%
X151385000Y-91987500D03*
X151385000Y-90162500D03*
%TD*%
D14*
%TO.C,R4*%
X161035000Y-50056409D03*
X162860000Y-50056409D03*
%TD*%
%TO.C,R2*%
X145822500Y-55736409D03*
X147647500Y-55736409D03*
%TD*%
D15*
%TO.C,C2*%
X161147500Y-56156409D03*
X163222500Y-56156409D03*
%TD*%
D13*
%TO.C,R12*%
X160497500Y-72925000D03*
X158672500Y-72925000D03*
%TD*%
D14*
%TO.C,R13*%
X163285000Y-76725000D03*
X165110000Y-76725000D03*
%TD*%
D12*
%TO.C,C6*%
X164272500Y-72675000D03*
X162197500Y-72675000D03*
%TD*%
D14*
%TO.C,R3*%
X145872500Y-59075000D03*
X147697500Y-59075000D03*
%TD*%
D16*
%TO.C,J1*%
X147515000Y-52560000D03*
D17*
X145495000Y-52560000D03*
D18*
X144265000Y-52560000D03*
D19*
X146515000Y-52560000D03*
D20*
X148535000Y-52560000D03*
D21*
X149765000Y-52560000D03*
D22*
X151335000Y-52480000D03*
X151335000Y-48680000D03*
X142695000Y-52480000D03*
X142695000Y-48680000D03*
%TD*%
D23*
%TO.C,C5*%
X152485000Y-70562500D03*
X152485000Y-68487500D03*
%TD*%
D14*
%TO.C,R9*%
X155710000Y-64925000D03*
X157535000Y-64925000D03*
%TD*%
D10*
%TO.C,R6*%
X147535000Y-91887500D03*
X147535000Y-90062500D03*
%TD*%
D14*
%TO.C,R5*%
X161072500Y-52956409D03*
X162897500Y-52956409D03*
%TD*%
%TO.C,R11*%
X155260000Y-72925000D03*
X157085000Y-72925000D03*
%TD*%
D15*
%TO.C,C4*%
X155747500Y-69775000D03*
X157822500Y-69775000D03*
%TD*%
M02*
