%TF.GenerationSoftware,KiCad,Pcbnew,7.0.9*%
%TF.CreationDate,2024-01-26T17:26:55+01:00*%
%TF.ProjectId,BPN,42504e2e-6b69-4636-9164-5f7063625858,rev?*%
%TF.SameCoordinates,Original*%
%TF.FileFunction,Legend,Top*%
%TF.FilePolarity,Positive*%
%FSLAX46Y46*%
G04 Gerber Fmt 4.6, Leading zero omitted, Abs format (unit mm)*
G04 Created by KiCad (PCBNEW 7.0.9) date 2024-01-26 17:26:55*
%MOMM*%
%LPD*%
G01*
G04 APERTURE LIST*
G04 Aperture macros list*
%AMRoundRect*
0 Rectangle with rounded corners*
0 $1 Rounding radius*
0 $2 $3 $4 $5 $6 $7 $8 $9 X,Y pos of 4 corners*
0 Add a 4 corners polygon primitive as box body*
4,1,4,$2,$3,$4,$5,$6,$7,$8,$9,$2,$3,0*
0 Add four circle primitives for the rounded corners*
1,1,$1+$1,$2,$3*
1,1,$1+$1,$4,$5*
1,1,$1+$1,$6,$7*
1,1,$1+$1,$8,$9*
0 Add four rect primitives between the rounded corners*
20,1,$1+$1,$2,$3,$4,$5,0*
20,1,$1+$1,$4,$5,$6,$7,0*
20,1,$1+$1,$6,$7,$8,$9,0*
20,1,$1+$1,$8,$9,$2,$3,0*%
G04 Aperture macros list end*
%ADD10C,0.150000*%
%ADD11C,0.120000*%
%ADD12C,0.127000*%
%ADD13C,0.200000*%
%ADD14C,0.400000*%
%ADD15RoundRect,0.250000X0.275000X-0.200000X0.275000X0.200000X-0.275000X0.200000X-0.275000X-0.200000X0*%
%ADD16RoundRect,0.050000X-0.425000X-0.425000X0.425000X-0.425000X0.425000X0.425000X-0.425000X0.425000X0*%
%ADD17O,0.950000X0.950000*%
%ADD18RoundRect,0.300000X-0.987500X-2.325000X0.987500X-2.325000X0.987500X2.325000X-0.987500X2.325000X0*%
%ADD19RoundRect,0.050000X-1.100000X-0.800000X1.100000X-0.800000X1.100000X0.800000X-1.100000X0.800000X0*%
%ADD20RoundRect,0.050000X-0.800000X1.100000X-0.800000X-1.100000X0.800000X-1.100000X0.800000X1.100000X0*%
%ADD21RoundRect,0.102000X-0.925000X0.925000X-0.925000X-0.925000X0.925000X-0.925000X0.925000X0.925000X0*%
%ADD22C,2.054000*%
%ADD23RoundRect,0.102000X-0.674000X0.674000X-0.674000X-0.674000X0.674000X-0.674000X0.674000X0.674000X0*%
%ADD24C,1.552000*%
%ADD25RoundRect,0.250000X0.200000X0.275000X-0.200000X0.275000X-0.200000X-0.275000X0.200000X-0.275000X0*%
%ADD26RoundRect,0.050000X1.100000X0.800000X-1.100000X0.800000X-1.100000X-0.800000X1.100000X-0.800000X0*%
%ADD27RoundRect,0.050000X1.000000X0.750000X-1.000000X0.750000X-1.000000X-0.750000X1.000000X-0.750000X0*%
%ADD28RoundRect,0.050000X1.000000X1.900000X-1.000000X1.900000X-1.000000X-1.900000X1.000000X-1.900000X0*%
%ADD29O,1.900000X1.900000*%
%ADD30O,1.600000X1.600000*%
%ADD31O,1.800000X1.800000*%
%ADD32RoundRect,0.050000X-1.750000X-0.850000X1.750000X-0.850000X1.750000X0.850000X-1.750000X0.850000X0*%
%ADD33RoundRect,0.050000X-0.850000X-0.850000X0.850000X-0.850000X0.850000X0.850000X-0.850000X0.850000X0*%
%ADD34RoundRect,0.050000X0.850000X-1.750000X0.850000X1.750000X-0.850000X1.750000X-0.850000X-1.750000X0*%
%ADD35RoundRect,0.050000X0.952500X1.000000X-0.952500X1.000000X-0.952500X-1.000000X0.952500X-1.000000X0*%
%ADD36O,2.005000X2.100000*%
%ADD37RoundRect,0.250000X-0.275000X0.200000X-0.275000X-0.200000X0.275000X-0.200000X0.275000X0.200000X0*%
%ADD38O,1.700000X1.300000*%
%ADD39O,1.300000X1.300000*%
%ADD40RoundRect,0.225000X0.175000X0.425000X-0.175000X0.425000X-0.175000X-0.425000X0.175000X-0.425000X0*%
%ADD41RoundRect,0.240000X-0.190000X-0.410000X0.190000X-0.410000X0.190000X0.410000X-0.190000X0.410000X0*%
%ADD42RoundRect,0.250000X-0.200000X-0.400000X0.200000X-0.400000X0.200000X0.400000X-0.200000X0.400000X0*%
%ADD43RoundRect,0.225000X-0.175000X-0.425000X0.175000X-0.425000X0.175000X0.425000X-0.175000X0.425000X0*%
%ADD44RoundRect,0.240000X0.190000X0.410000X-0.190000X0.410000X-0.190000X-0.410000X0.190000X-0.410000X0*%
%ADD45RoundRect,0.250000X0.200000X0.400000X-0.200000X0.400000X-0.200000X-0.400000X0.200000X-0.400000X0*%
%ADD46RoundRect,0.300000X0.650000X0.425000X-0.650000X0.425000X-0.650000X-0.425000X0.650000X-0.425000X0*%
%ADD47RoundRect,0.300000X0.650000X0.500000X-0.650000X0.500000X-0.650000X-0.500000X0.650000X-0.500000X0*%
%ADD48RoundRect,0.050000X0.425000X0.425000X-0.425000X0.425000X-0.425000X-0.425000X0.425000X-0.425000X0*%
%ADD49RoundRect,0.050000X-0.900000X-0.900000X0.900000X-0.900000X0.900000X0.900000X-0.900000X0.900000X0*%
%ADD50C,1.900000*%
%ADD51C,1.600000*%
%ADD52RoundRect,0.300000X-2.325000X0.987500X-2.325000X-0.987500X2.325000X-0.987500X2.325000X0.987500X0*%
G04 APERTURE END LIST*
D10*
X196656344Y-132921864D02*
X196989677Y-133921864D01*
X196989677Y-133921864D02*
X197323010Y-132921864D01*
X198037296Y-133874245D02*
X197942058Y-133921864D01*
X197942058Y-133921864D02*
X197751582Y-133921864D01*
X197751582Y-133921864D02*
X197656344Y-133874245D01*
X197656344Y-133874245D02*
X197608725Y-133779006D01*
X197608725Y-133779006D02*
X197608725Y-133398054D01*
X197608725Y-133398054D02*
X197656344Y-133302816D01*
X197656344Y-133302816D02*
X197751582Y-133255197D01*
X197751582Y-133255197D02*
X197942058Y-133255197D01*
X197942058Y-133255197D02*
X198037296Y-133302816D01*
X198037296Y-133302816D02*
X198084915Y-133398054D01*
X198084915Y-133398054D02*
X198084915Y-133493292D01*
X198084915Y-133493292D02*
X197608725Y-133588530D01*
X198513487Y-133921864D02*
X198513487Y-133255197D01*
X198513487Y-133445673D02*
X198561106Y-133350435D01*
X198561106Y-133350435D02*
X198608725Y-133302816D01*
X198608725Y-133302816D02*
X198703963Y-133255197D01*
X198703963Y-133255197D02*
X198799201Y-133255197D01*
X199084916Y-133874245D02*
X199180154Y-133921864D01*
X199180154Y-133921864D02*
X199370630Y-133921864D01*
X199370630Y-133921864D02*
X199465868Y-133874245D01*
X199465868Y-133874245D02*
X199513487Y-133779006D01*
X199513487Y-133779006D02*
X199513487Y-133731387D01*
X199513487Y-133731387D02*
X199465868Y-133636149D01*
X199465868Y-133636149D02*
X199370630Y-133588530D01*
X199370630Y-133588530D02*
X199227773Y-133588530D01*
X199227773Y-133588530D02*
X199132535Y-133540911D01*
X199132535Y-133540911D02*
X199084916Y-133445673D01*
X199084916Y-133445673D02*
X199084916Y-133398054D01*
X199084916Y-133398054D02*
X199132535Y-133302816D01*
X199132535Y-133302816D02*
X199227773Y-133255197D01*
X199227773Y-133255197D02*
X199370630Y-133255197D01*
X199370630Y-133255197D02*
X199465868Y-133302816D01*
X199942059Y-133921864D02*
X199942059Y-133255197D01*
X199942059Y-132921864D02*
X199894440Y-132969483D01*
X199894440Y-132969483D02*
X199942059Y-133017102D01*
X199942059Y-133017102D02*
X199989678Y-132969483D01*
X199989678Y-132969483D02*
X199942059Y-132921864D01*
X199942059Y-132921864D02*
X199942059Y-133017102D01*
X200561106Y-133921864D02*
X200465868Y-133874245D01*
X200465868Y-133874245D02*
X200418249Y-133826625D01*
X200418249Y-133826625D02*
X200370630Y-133731387D01*
X200370630Y-133731387D02*
X200370630Y-133445673D01*
X200370630Y-133445673D02*
X200418249Y-133350435D01*
X200418249Y-133350435D02*
X200465868Y-133302816D01*
X200465868Y-133302816D02*
X200561106Y-133255197D01*
X200561106Y-133255197D02*
X200703963Y-133255197D01*
X200703963Y-133255197D02*
X200799201Y-133302816D01*
X200799201Y-133302816D02*
X200846820Y-133350435D01*
X200846820Y-133350435D02*
X200894439Y-133445673D01*
X200894439Y-133445673D02*
X200894439Y-133731387D01*
X200894439Y-133731387D02*
X200846820Y-133826625D01*
X200846820Y-133826625D02*
X200799201Y-133874245D01*
X200799201Y-133874245D02*
X200703963Y-133921864D01*
X200703963Y-133921864D02*
X200561106Y-133921864D01*
X201323011Y-133255197D02*
X201323011Y-133921864D01*
X201323011Y-133350435D02*
X201370630Y-133302816D01*
X201370630Y-133302816D02*
X201465868Y-133255197D01*
X201465868Y-133255197D02*
X201608725Y-133255197D01*
X201608725Y-133255197D02*
X201703963Y-133302816D01*
X201703963Y-133302816D02*
X201751582Y-133398054D01*
X201751582Y-133398054D02*
X201751582Y-133921864D01*
X203513487Y-133921864D02*
X202942059Y-133921864D01*
X203227773Y-133921864D02*
X203227773Y-132921864D01*
X203227773Y-132921864D02*
X203132535Y-133064721D01*
X203132535Y-133064721D02*
X203037297Y-133159959D01*
X203037297Y-133159959D02*
X202942059Y-133207578D01*
X175382641Y-137025611D02*
X174906450Y-137358944D01*
X175382641Y-137597039D02*
X174382641Y-137597039D01*
X174382641Y-137597039D02*
X174382641Y-137216087D01*
X174382641Y-137216087D02*
X174430260Y-137120849D01*
X174430260Y-137120849D02*
X174477879Y-137073230D01*
X174477879Y-137073230D02*
X174573117Y-137025611D01*
X174573117Y-137025611D02*
X174715974Y-137025611D01*
X174715974Y-137025611D02*
X174811212Y-137073230D01*
X174811212Y-137073230D02*
X174858831Y-137120849D01*
X174858831Y-137120849D02*
X174906450Y-137216087D01*
X174906450Y-137216087D02*
X174906450Y-137597039D01*
X175382641Y-136549420D02*
X175382641Y-136358944D01*
X175382641Y-136358944D02*
X175335022Y-136263706D01*
X175335022Y-136263706D02*
X175287402Y-136216087D01*
X175287402Y-136216087D02*
X175144545Y-136120849D01*
X175144545Y-136120849D02*
X174954069Y-136073230D01*
X174954069Y-136073230D02*
X174573117Y-136073230D01*
X174573117Y-136073230D02*
X174477879Y-136120849D01*
X174477879Y-136120849D02*
X174430260Y-136168468D01*
X174430260Y-136168468D02*
X174382641Y-136263706D01*
X174382641Y-136263706D02*
X174382641Y-136454182D01*
X174382641Y-136454182D02*
X174430260Y-136549420D01*
X174430260Y-136549420D02*
X174477879Y-136597039D01*
X174477879Y-136597039D02*
X174573117Y-136644658D01*
X174573117Y-136644658D02*
X174811212Y-136644658D01*
X174811212Y-136644658D02*
X174906450Y-136597039D01*
X174906450Y-136597039D02*
X174954069Y-136549420D01*
X174954069Y-136549420D02*
X175001688Y-136454182D01*
X175001688Y-136454182D02*
X175001688Y-136263706D01*
X175001688Y-136263706D02*
X174954069Y-136168468D01*
X174954069Y-136168468D02*
X174906450Y-136120849D01*
X174906450Y-136120849D02*
X174811212Y-136073230D01*
X166411088Y-111287264D02*
X166411088Y-112001549D01*
X166411088Y-112001549D02*
X166363469Y-112144406D01*
X166363469Y-112144406D02*
X166268231Y-112239645D01*
X166268231Y-112239645D02*
X166125374Y-112287264D01*
X166125374Y-112287264D02*
X166030136Y-112287264D01*
X166792041Y-111287264D02*
X167411088Y-111287264D01*
X167411088Y-111287264D02*
X167077755Y-111668216D01*
X167077755Y-111668216D02*
X167220612Y-111668216D01*
X167220612Y-111668216D02*
X167315850Y-111715835D01*
X167315850Y-111715835D02*
X167363469Y-111763454D01*
X167363469Y-111763454D02*
X167411088Y-111858692D01*
X167411088Y-111858692D02*
X167411088Y-112096787D01*
X167411088Y-112096787D02*
X167363469Y-112192025D01*
X167363469Y-112192025D02*
X167315850Y-112239645D01*
X167315850Y-112239645D02*
X167220612Y-112287264D01*
X167220612Y-112287264D02*
X166934898Y-112287264D01*
X166934898Y-112287264D02*
X166839660Y-112239645D01*
X166839660Y-112239645D02*
X166792041Y-112192025D01*
X163949127Y-117969864D02*
X163949127Y-116969864D01*
X163949127Y-116969864D02*
X164187222Y-116969864D01*
X164187222Y-116969864D02*
X164330079Y-117017483D01*
X164330079Y-117017483D02*
X164425317Y-117112721D01*
X164425317Y-117112721D02*
X164472936Y-117207959D01*
X164472936Y-117207959D02*
X164520555Y-117398435D01*
X164520555Y-117398435D02*
X164520555Y-117541292D01*
X164520555Y-117541292D02*
X164472936Y-117731768D01*
X164472936Y-117731768D02*
X164425317Y-117827006D01*
X164425317Y-117827006D02*
X164330079Y-117922245D01*
X164330079Y-117922245D02*
X164187222Y-117969864D01*
X164187222Y-117969864D02*
X163949127Y-117969864D01*
X164853889Y-116969864D02*
X165472936Y-116969864D01*
X165472936Y-116969864D02*
X165139603Y-117350816D01*
X165139603Y-117350816D02*
X165282460Y-117350816D01*
X165282460Y-117350816D02*
X165377698Y-117398435D01*
X165377698Y-117398435D02*
X165425317Y-117446054D01*
X165425317Y-117446054D02*
X165472936Y-117541292D01*
X165472936Y-117541292D02*
X165472936Y-117779387D01*
X165472936Y-117779387D02*
X165425317Y-117874625D01*
X165425317Y-117874625D02*
X165377698Y-117922245D01*
X165377698Y-117922245D02*
X165282460Y-117969864D01*
X165282460Y-117969864D02*
X164996746Y-117969864D01*
X164996746Y-117969864D02*
X164901508Y-117922245D01*
X164901508Y-117922245D02*
X164853889Y-117874625D01*
X175721755Y-98851625D02*
X175674136Y-98899245D01*
X175674136Y-98899245D02*
X175531279Y-98946864D01*
X175531279Y-98946864D02*
X175436041Y-98946864D01*
X175436041Y-98946864D02*
X175293184Y-98899245D01*
X175293184Y-98899245D02*
X175197946Y-98804006D01*
X175197946Y-98804006D02*
X175150327Y-98708768D01*
X175150327Y-98708768D02*
X175102708Y-98518292D01*
X175102708Y-98518292D02*
X175102708Y-98375435D01*
X175102708Y-98375435D02*
X175150327Y-98184959D01*
X175150327Y-98184959D02*
X175197946Y-98089721D01*
X175197946Y-98089721D02*
X175293184Y-97994483D01*
X175293184Y-97994483D02*
X175436041Y-97946864D01*
X175436041Y-97946864D02*
X175531279Y-97946864D01*
X175531279Y-97946864D02*
X175674136Y-97994483D01*
X175674136Y-97994483D02*
X175721755Y-98042102D01*
X176674136Y-98946864D02*
X176102708Y-98946864D01*
X176388422Y-98946864D02*
X176388422Y-97946864D01*
X176388422Y-97946864D02*
X176293184Y-98089721D01*
X176293184Y-98089721D02*
X176197946Y-98184959D01*
X176197946Y-98184959D02*
X176102708Y-98232578D01*
X176529602Y-94731511D02*
X176577222Y-94779130D01*
X176577222Y-94779130D02*
X176624841Y-94921987D01*
X176624841Y-94921987D02*
X176624841Y-95017225D01*
X176624841Y-95017225D02*
X176577222Y-95160082D01*
X176577222Y-95160082D02*
X176481983Y-95255320D01*
X176481983Y-95255320D02*
X176386745Y-95302939D01*
X176386745Y-95302939D02*
X176196269Y-95350558D01*
X176196269Y-95350558D02*
X176053412Y-95350558D01*
X176053412Y-95350558D02*
X175862936Y-95302939D01*
X175862936Y-95302939D02*
X175767698Y-95255320D01*
X175767698Y-95255320D02*
X175672460Y-95160082D01*
X175672460Y-95160082D02*
X175624841Y-95017225D01*
X175624841Y-95017225D02*
X175624841Y-94921987D01*
X175624841Y-94921987D02*
X175672460Y-94779130D01*
X175672460Y-94779130D02*
X175720079Y-94731511D01*
X175720079Y-94350558D02*
X175672460Y-94302939D01*
X175672460Y-94302939D02*
X175624841Y-94207701D01*
X175624841Y-94207701D02*
X175624841Y-93969606D01*
X175624841Y-93969606D02*
X175672460Y-93874368D01*
X175672460Y-93874368D02*
X175720079Y-93826749D01*
X175720079Y-93826749D02*
X175815317Y-93779130D01*
X175815317Y-93779130D02*
X175910555Y-93779130D01*
X175910555Y-93779130D02*
X176053412Y-93826749D01*
X176053412Y-93826749D02*
X176624841Y-94398177D01*
X176624841Y-94398177D02*
X176624841Y-93779130D01*
X176540079Y-118704083D02*
X176492460Y-118799321D01*
X176492460Y-118799321D02*
X176397222Y-118894559D01*
X176397222Y-118894559D02*
X176254364Y-119037416D01*
X176254364Y-119037416D02*
X176206745Y-119132654D01*
X176206745Y-119132654D02*
X176206745Y-119227892D01*
X176444841Y-119180273D02*
X176397222Y-119275511D01*
X176397222Y-119275511D02*
X176301983Y-119370749D01*
X176301983Y-119370749D02*
X176111507Y-119418368D01*
X176111507Y-119418368D02*
X175778174Y-119418368D01*
X175778174Y-119418368D02*
X175587698Y-119370749D01*
X175587698Y-119370749D02*
X175492460Y-119275511D01*
X175492460Y-119275511D02*
X175444841Y-119180273D01*
X175444841Y-119180273D02*
X175444841Y-118989797D01*
X175444841Y-118989797D02*
X175492460Y-118894559D01*
X175492460Y-118894559D02*
X175587698Y-118799321D01*
X175587698Y-118799321D02*
X175778174Y-118751702D01*
X175778174Y-118751702D02*
X176111507Y-118751702D01*
X176111507Y-118751702D02*
X176301983Y-118799321D01*
X176301983Y-118799321D02*
X176397222Y-118894559D01*
X176397222Y-118894559D02*
X176444841Y-118989797D01*
X176444841Y-118989797D02*
X176444841Y-119180273D01*
X175540079Y-118370749D02*
X175492460Y-118323130D01*
X175492460Y-118323130D02*
X175444841Y-118227892D01*
X175444841Y-118227892D02*
X175444841Y-117989797D01*
X175444841Y-117989797D02*
X175492460Y-117894559D01*
X175492460Y-117894559D02*
X175540079Y-117846940D01*
X175540079Y-117846940D02*
X175635317Y-117799321D01*
X175635317Y-117799321D02*
X175730555Y-117799321D01*
X175730555Y-117799321D02*
X175873412Y-117846940D01*
X175873412Y-117846940D02*
X176444841Y-118418368D01*
X176444841Y-118418368D02*
X176444841Y-117799321D01*
X149028841Y-134763149D02*
X149838364Y-134763149D01*
X149838364Y-134763149D02*
X149933602Y-134715530D01*
X149933602Y-134715530D02*
X149981222Y-134667911D01*
X149981222Y-134667911D02*
X150028841Y-134572673D01*
X150028841Y-134572673D02*
X150028841Y-134382197D01*
X150028841Y-134382197D02*
X149981222Y-134286959D01*
X149981222Y-134286959D02*
X149933602Y-134239340D01*
X149933602Y-134239340D02*
X149838364Y-134191721D01*
X149838364Y-134191721D02*
X149028841Y-134191721D01*
X149362174Y-133286959D02*
X150028841Y-133286959D01*
X148981222Y-133525054D02*
X149695507Y-133763149D01*
X149695507Y-133763149D02*
X149695507Y-133144102D01*
X155472555Y-88891464D02*
X155139222Y-88415273D01*
X154901127Y-88891464D02*
X154901127Y-87891464D01*
X154901127Y-87891464D02*
X155282079Y-87891464D01*
X155282079Y-87891464D02*
X155377317Y-87939083D01*
X155377317Y-87939083D02*
X155424936Y-87986702D01*
X155424936Y-87986702D02*
X155472555Y-88081940D01*
X155472555Y-88081940D02*
X155472555Y-88224797D01*
X155472555Y-88224797D02*
X155424936Y-88320035D01*
X155424936Y-88320035D02*
X155377317Y-88367654D01*
X155377317Y-88367654D02*
X155282079Y-88415273D01*
X155282079Y-88415273D02*
X154901127Y-88415273D01*
X156424936Y-88891464D02*
X155853508Y-88891464D01*
X156139222Y-88891464D02*
X156139222Y-87891464D01*
X156139222Y-87891464D02*
X156043984Y-88034321D01*
X156043984Y-88034321D02*
X155948746Y-88129559D01*
X155948746Y-88129559D02*
X155853508Y-88177178D01*
X184586802Y-138638311D02*
X184634422Y-138685930D01*
X184634422Y-138685930D02*
X184682041Y-138828787D01*
X184682041Y-138828787D02*
X184682041Y-138924025D01*
X184682041Y-138924025D02*
X184634422Y-139066882D01*
X184634422Y-139066882D02*
X184539183Y-139162120D01*
X184539183Y-139162120D02*
X184443945Y-139209739D01*
X184443945Y-139209739D02*
X184253469Y-139257358D01*
X184253469Y-139257358D02*
X184110612Y-139257358D01*
X184110612Y-139257358D02*
X183920136Y-139209739D01*
X183920136Y-139209739D02*
X183824898Y-139162120D01*
X183824898Y-139162120D02*
X183729660Y-139066882D01*
X183729660Y-139066882D02*
X183682041Y-138924025D01*
X183682041Y-138924025D02*
X183682041Y-138828787D01*
X183682041Y-138828787D02*
X183729660Y-138685930D01*
X183729660Y-138685930D02*
X183777279Y-138638311D01*
X183682041Y-137781168D02*
X183682041Y-137971644D01*
X183682041Y-137971644D02*
X183729660Y-138066882D01*
X183729660Y-138066882D02*
X183777279Y-138114501D01*
X183777279Y-138114501D02*
X183920136Y-138209739D01*
X183920136Y-138209739D02*
X184110612Y-138257358D01*
X184110612Y-138257358D02*
X184491564Y-138257358D01*
X184491564Y-138257358D02*
X184586802Y-138209739D01*
X184586802Y-138209739D02*
X184634422Y-138162120D01*
X184634422Y-138162120D02*
X184682041Y-138066882D01*
X184682041Y-138066882D02*
X184682041Y-137876406D01*
X184682041Y-137876406D02*
X184634422Y-137781168D01*
X184634422Y-137781168D02*
X184586802Y-137733549D01*
X184586802Y-137733549D02*
X184491564Y-137685930D01*
X184491564Y-137685930D02*
X184253469Y-137685930D01*
X184253469Y-137685930D02*
X184158231Y-137733549D01*
X184158231Y-137733549D02*
X184110612Y-137781168D01*
X184110612Y-137781168D02*
X184062993Y-137876406D01*
X184062993Y-137876406D02*
X184062993Y-138066882D01*
X184062993Y-138066882D02*
X184110612Y-138162120D01*
X184110612Y-138162120D02*
X184158231Y-138209739D01*
X184158231Y-138209739D02*
X184253469Y-138257358D01*
X172322441Y-137488902D02*
X171846250Y-137822235D01*
X172322441Y-138060330D02*
X171322441Y-138060330D01*
X171322441Y-138060330D02*
X171322441Y-137679378D01*
X171322441Y-137679378D02*
X171370060Y-137584140D01*
X171370060Y-137584140D02*
X171417679Y-137536521D01*
X171417679Y-137536521D02*
X171512917Y-137488902D01*
X171512917Y-137488902D02*
X171655774Y-137488902D01*
X171655774Y-137488902D02*
X171751012Y-137536521D01*
X171751012Y-137536521D02*
X171798631Y-137584140D01*
X171798631Y-137584140D02*
X171846250Y-137679378D01*
X171846250Y-137679378D02*
X171846250Y-138060330D01*
X172322441Y-136536521D02*
X172322441Y-137107949D01*
X172322441Y-136822235D02*
X171322441Y-136822235D01*
X171322441Y-136822235D02*
X171465298Y-136917473D01*
X171465298Y-136917473D02*
X171560536Y-137012711D01*
X171560536Y-137012711D02*
X171608155Y-137107949D01*
X171322441Y-135917473D02*
X171322441Y-135822235D01*
X171322441Y-135822235D02*
X171370060Y-135726997D01*
X171370060Y-135726997D02*
X171417679Y-135679378D01*
X171417679Y-135679378D02*
X171512917Y-135631759D01*
X171512917Y-135631759D02*
X171703393Y-135584140D01*
X171703393Y-135584140D02*
X171941488Y-135584140D01*
X171941488Y-135584140D02*
X172131964Y-135631759D01*
X172131964Y-135631759D02*
X172227202Y-135679378D01*
X172227202Y-135679378D02*
X172274822Y-135726997D01*
X172274822Y-135726997D02*
X172322441Y-135822235D01*
X172322441Y-135822235D02*
X172322441Y-135917473D01*
X172322441Y-135917473D02*
X172274822Y-136012711D01*
X172274822Y-136012711D02*
X172227202Y-136060330D01*
X172227202Y-136060330D02*
X172131964Y-136107949D01*
X172131964Y-136107949D02*
X171941488Y-136155568D01*
X171941488Y-136155568D02*
X171703393Y-136155568D01*
X171703393Y-136155568D02*
X171512917Y-136107949D01*
X171512917Y-136107949D02*
X171417679Y-136060330D01*
X171417679Y-136060330D02*
X171370060Y-136012711D01*
X171370060Y-136012711D02*
X171322441Y-135917473D01*
X176478802Y-88686311D02*
X176526422Y-88733930D01*
X176526422Y-88733930D02*
X176574041Y-88876787D01*
X176574041Y-88876787D02*
X176574041Y-88972025D01*
X176574041Y-88972025D02*
X176526422Y-89114882D01*
X176526422Y-89114882D02*
X176431183Y-89210120D01*
X176431183Y-89210120D02*
X176335945Y-89257739D01*
X176335945Y-89257739D02*
X176145469Y-89305358D01*
X176145469Y-89305358D02*
X176002612Y-89305358D01*
X176002612Y-89305358D02*
X175812136Y-89257739D01*
X175812136Y-89257739D02*
X175716898Y-89210120D01*
X175716898Y-89210120D02*
X175621660Y-89114882D01*
X175621660Y-89114882D02*
X175574041Y-88972025D01*
X175574041Y-88972025D02*
X175574041Y-88876787D01*
X175574041Y-88876787D02*
X175621660Y-88733930D01*
X175621660Y-88733930D02*
X175669279Y-88686311D01*
X175574041Y-88352977D02*
X175574041Y-87733930D01*
X175574041Y-87733930D02*
X175954993Y-88067263D01*
X175954993Y-88067263D02*
X175954993Y-87924406D01*
X175954993Y-87924406D02*
X176002612Y-87829168D01*
X176002612Y-87829168D02*
X176050231Y-87781549D01*
X176050231Y-87781549D02*
X176145469Y-87733930D01*
X176145469Y-87733930D02*
X176383564Y-87733930D01*
X176383564Y-87733930D02*
X176478802Y-87781549D01*
X176478802Y-87781549D02*
X176526422Y-87829168D01*
X176526422Y-87829168D02*
X176574041Y-87924406D01*
X176574041Y-87924406D02*
X176574041Y-88210120D01*
X176574041Y-88210120D02*
X176526422Y-88305358D01*
X176526422Y-88305358D02*
X176478802Y-88352977D01*
X161619355Y-88879264D02*
X161286022Y-88403073D01*
X161047927Y-88879264D02*
X161047927Y-87879264D01*
X161047927Y-87879264D02*
X161428879Y-87879264D01*
X161428879Y-87879264D02*
X161524117Y-87926883D01*
X161524117Y-87926883D02*
X161571736Y-87974502D01*
X161571736Y-87974502D02*
X161619355Y-88069740D01*
X161619355Y-88069740D02*
X161619355Y-88212597D01*
X161619355Y-88212597D02*
X161571736Y-88307835D01*
X161571736Y-88307835D02*
X161524117Y-88355454D01*
X161524117Y-88355454D02*
X161428879Y-88403073D01*
X161428879Y-88403073D02*
X161047927Y-88403073D01*
X161952689Y-87879264D02*
X162571736Y-87879264D01*
X162571736Y-87879264D02*
X162238403Y-88260216D01*
X162238403Y-88260216D02*
X162381260Y-88260216D01*
X162381260Y-88260216D02*
X162476498Y-88307835D01*
X162476498Y-88307835D02*
X162524117Y-88355454D01*
X162524117Y-88355454D02*
X162571736Y-88450692D01*
X162571736Y-88450692D02*
X162571736Y-88688787D01*
X162571736Y-88688787D02*
X162524117Y-88784025D01*
X162524117Y-88784025D02*
X162476498Y-88831645D01*
X162476498Y-88831645D02*
X162381260Y-88879264D01*
X162381260Y-88879264D02*
X162095546Y-88879264D01*
X162095546Y-88879264D02*
X162000308Y-88831645D01*
X162000308Y-88831645D02*
X161952689Y-88784025D01*
X172208641Y-110971302D02*
X171732450Y-111304635D01*
X172208641Y-111542730D02*
X171208641Y-111542730D01*
X171208641Y-111542730D02*
X171208641Y-111161778D01*
X171208641Y-111161778D02*
X171256260Y-111066540D01*
X171256260Y-111066540D02*
X171303879Y-111018921D01*
X171303879Y-111018921D02*
X171399117Y-110971302D01*
X171399117Y-110971302D02*
X171541974Y-110971302D01*
X171541974Y-110971302D02*
X171637212Y-111018921D01*
X171637212Y-111018921D02*
X171684831Y-111066540D01*
X171684831Y-111066540D02*
X171732450Y-111161778D01*
X171732450Y-111161778D02*
X171732450Y-111542730D01*
X172208641Y-110018921D02*
X172208641Y-110590349D01*
X172208641Y-110304635D02*
X171208641Y-110304635D01*
X171208641Y-110304635D02*
X171351498Y-110399873D01*
X171351498Y-110399873D02*
X171446736Y-110495111D01*
X171446736Y-110495111D02*
X171494355Y-110590349D01*
X171208641Y-109685587D02*
X171208641Y-109066540D01*
X171208641Y-109066540D02*
X171589593Y-109399873D01*
X171589593Y-109399873D02*
X171589593Y-109257016D01*
X171589593Y-109257016D02*
X171637212Y-109161778D01*
X171637212Y-109161778D02*
X171684831Y-109114159D01*
X171684831Y-109114159D02*
X171780069Y-109066540D01*
X171780069Y-109066540D02*
X172018164Y-109066540D01*
X172018164Y-109066540D02*
X172113402Y-109114159D01*
X172113402Y-109114159D02*
X172161022Y-109161778D01*
X172161022Y-109161778D02*
X172208641Y-109257016D01*
X172208641Y-109257016D02*
X172208641Y-109542730D01*
X172208641Y-109542730D02*
X172161022Y-109637968D01*
X172161022Y-109637968D02*
X172113402Y-109685587D01*
X169884041Y-106411502D02*
X169407850Y-106744835D01*
X169884041Y-106982930D02*
X168884041Y-106982930D01*
X168884041Y-106982930D02*
X168884041Y-106601978D01*
X168884041Y-106601978D02*
X168931660Y-106506740D01*
X168931660Y-106506740D02*
X168979279Y-106459121D01*
X168979279Y-106459121D02*
X169074517Y-106411502D01*
X169074517Y-106411502D02*
X169217374Y-106411502D01*
X169217374Y-106411502D02*
X169312612Y-106459121D01*
X169312612Y-106459121D02*
X169360231Y-106506740D01*
X169360231Y-106506740D02*
X169407850Y-106601978D01*
X169407850Y-106601978D02*
X169407850Y-106982930D01*
X169884041Y-105459121D02*
X169884041Y-106030549D01*
X169884041Y-105744835D02*
X168884041Y-105744835D01*
X168884041Y-105744835D02*
X169026898Y-105840073D01*
X169026898Y-105840073D02*
X169122136Y-105935311D01*
X169122136Y-105935311D02*
X169169755Y-106030549D01*
X168979279Y-105078168D02*
X168931660Y-105030549D01*
X168931660Y-105030549D02*
X168884041Y-104935311D01*
X168884041Y-104935311D02*
X168884041Y-104697216D01*
X168884041Y-104697216D02*
X168931660Y-104601978D01*
X168931660Y-104601978D02*
X168979279Y-104554359D01*
X168979279Y-104554359D02*
X169074517Y-104506740D01*
X169074517Y-104506740D02*
X169169755Y-104506740D01*
X169169755Y-104506740D02*
X169312612Y-104554359D01*
X169312612Y-104554359D02*
X169884041Y-105125787D01*
X169884041Y-105125787D02*
X169884041Y-104506740D01*
X152428555Y-126900825D02*
X152380936Y-126948445D01*
X152380936Y-126948445D02*
X152238079Y-126996064D01*
X152238079Y-126996064D02*
X152142841Y-126996064D01*
X152142841Y-126996064D02*
X151999984Y-126948445D01*
X151999984Y-126948445D02*
X151904746Y-126853206D01*
X151904746Y-126853206D02*
X151857127Y-126757968D01*
X151857127Y-126757968D02*
X151809508Y-126567492D01*
X151809508Y-126567492D02*
X151809508Y-126424635D01*
X151809508Y-126424635D02*
X151857127Y-126234159D01*
X151857127Y-126234159D02*
X151904746Y-126138921D01*
X151904746Y-126138921D02*
X151999984Y-126043683D01*
X151999984Y-126043683D02*
X152142841Y-125996064D01*
X152142841Y-125996064D02*
X152238079Y-125996064D01*
X152238079Y-125996064D02*
X152380936Y-126043683D01*
X152380936Y-126043683D02*
X152428555Y-126091302D01*
X153333317Y-125996064D02*
X152857127Y-125996064D01*
X152857127Y-125996064D02*
X152809508Y-126472254D01*
X152809508Y-126472254D02*
X152857127Y-126424635D01*
X152857127Y-126424635D02*
X152952365Y-126377016D01*
X152952365Y-126377016D02*
X153190460Y-126377016D01*
X153190460Y-126377016D02*
X153285698Y-126424635D01*
X153285698Y-126424635D02*
X153333317Y-126472254D01*
X153333317Y-126472254D02*
X153380936Y-126567492D01*
X153380936Y-126567492D02*
X153380936Y-126805587D01*
X153380936Y-126805587D02*
X153333317Y-126900825D01*
X153333317Y-126900825D02*
X153285698Y-126948445D01*
X153285698Y-126948445D02*
X153190460Y-126996064D01*
X153190460Y-126996064D02*
X152952365Y-126996064D01*
X152952365Y-126996064D02*
X152857127Y-126948445D01*
X152857127Y-126948445D02*
X152809508Y-126900825D01*
X156661441Y-121061511D02*
X156185250Y-121394844D01*
X156661441Y-121632939D02*
X155661441Y-121632939D01*
X155661441Y-121632939D02*
X155661441Y-121251987D01*
X155661441Y-121251987D02*
X155709060Y-121156749D01*
X155709060Y-121156749D02*
X155756679Y-121109130D01*
X155756679Y-121109130D02*
X155851917Y-121061511D01*
X155851917Y-121061511D02*
X155994774Y-121061511D01*
X155994774Y-121061511D02*
X156090012Y-121109130D01*
X156090012Y-121109130D02*
X156137631Y-121156749D01*
X156137631Y-121156749D02*
X156185250Y-121251987D01*
X156185250Y-121251987D02*
X156185250Y-121632939D01*
X155661441Y-120728177D02*
X155661441Y-120061511D01*
X155661441Y-120061511D02*
X156661441Y-120490082D01*
X171384117Y-84205264D02*
X171384117Y-85014787D01*
X171384117Y-85014787D02*
X171431736Y-85110025D01*
X171431736Y-85110025D02*
X171479355Y-85157645D01*
X171479355Y-85157645D02*
X171574593Y-85205264D01*
X171574593Y-85205264D02*
X171765069Y-85205264D01*
X171765069Y-85205264D02*
X171860307Y-85157645D01*
X171860307Y-85157645D02*
X171907926Y-85110025D01*
X171907926Y-85110025D02*
X171955545Y-85014787D01*
X171955545Y-85014787D02*
X171955545Y-84205264D01*
X172384117Y-84300502D02*
X172431736Y-84252883D01*
X172431736Y-84252883D02*
X172526974Y-84205264D01*
X172526974Y-84205264D02*
X172765069Y-84205264D01*
X172765069Y-84205264D02*
X172860307Y-84252883D01*
X172860307Y-84252883D02*
X172907926Y-84300502D01*
X172907926Y-84300502D02*
X172955545Y-84395740D01*
X172955545Y-84395740D02*
X172955545Y-84490978D01*
X172955545Y-84490978D02*
X172907926Y-84633835D01*
X172907926Y-84633835D02*
X172336498Y-85205264D01*
X172336498Y-85205264D02*
X172955545Y-85205264D01*
X191331717Y-101807664D02*
X191331717Y-102617187D01*
X191331717Y-102617187D02*
X191379336Y-102712425D01*
X191379336Y-102712425D02*
X191426955Y-102760045D01*
X191426955Y-102760045D02*
X191522193Y-102807664D01*
X191522193Y-102807664D02*
X191712669Y-102807664D01*
X191712669Y-102807664D02*
X191807907Y-102760045D01*
X191807907Y-102760045D02*
X191855526Y-102712425D01*
X191855526Y-102712425D02*
X191903145Y-102617187D01*
X191903145Y-102617187D02*
X191903145Y-101807664D01*
X192284098Y-101807664D02*
X192903145Y-101807664D01*
X192903145Y-101807664D02*
X192569812Y-102188616D01*
X192569812Y-102188616D02*
X192712669Y-102188616D01*
X192712669Y-102188616D02*
X192807907Y-102236235D01*
X192807907Y-102236235D02*
X192855526Y-102283854D01*
X192855526Y-102283854D02*
X192903145Y-102379092D01*
X192903145Y-102379092D02*
X192903145Y-102617187D01*
X192903145Y-102617187D02*
X192855526Y-102712425D01*
X192855526Y-102712425D02*
X192807907Y-102760045D01*
X192807907Y-102760045D02*
X192712669Y-102807664D01*
X192712669Y-102807664D02*
X192426955Y-102807664D01*
X192426955Y-102807664D02*
X192331717Y-102760045D01*
X192331717Y-102760045D02*
X192284098Y-102712425D01*
X178606994Y-88504339D02*
X178526182Y-88531276D01*
X178526182Y-88531276D02*
X178445370Y-88612088D01*
X178445370Y-88612088D02*
X178391495Y-88719838D01*
X178391495Y-88719838D02*
X178391495Y-88827587D01*
X178391495Y-88827587D02*
X178418432Y-88908400D01*
X178418432Y-88908400D02*
X178499245Y-89043087D01*
X178499245Y-89043087D02*
X178580057Y-89123899D01*
X178580057Y-89123899D02*
X178714744Y-89204711D01*
X178714744Y-89204711D02*
X178795556Y-89231648D01*
X178795556Y-89231648D02*
X178903306Y-89231648D01*
X178903306Y-89231648D02*
X179011055Y-89177774D01*
X179011055Y-89177774D02*
X179064930Y-89123899D01*
X179064930Y-89123899D02*
X179118805Y-89016149D01*
X179118805Y-89016149D02*
X179118805Y-88962274D01*
X179118805Y-88962274D02*
X178930243Y-88773713D01*
X178930243Y-88773713D02*
X178822493Y-88881462D01*
X179415116Y-88773713D02*
X178849431Y-88208027D01*
X178849431Y-88208027D02*
X179064930Y-87992528D01*
X179064930Y-87992528D02*
X179145742Y-87965591D01*
X179145742Y-87965591D02*
X179199617Y-87965591D01*
X179199617Y-87965591D02*
X179280429Y-87992528D01*
X179280429Y-87992528D02*
X179361241Y-88073340D01*
X179361241Y-88073340D02*
X179388179Y-88154152D01*
X179388179Y-88154152D02*
X179388179Y-88208027D01*
X179388179Y-88208027D02*
X179361241Y-88288839D01*
X179361241Y-88288839D02*
X179145742Y-88504339D01*
X179361241Y-87696217D02*
X179711428Y-87346030D01*
X179711428Y-87346030D02*
X179738365Y-87750091D01*
X179738365Y-87750091D02*
X179819177Y-87669279D01*
X179819177Y-87669279D02*
X179899989Y-87642342D01*
X179899989Y-87642342D02*
X179953864Y-87642342D01*
X179953864Y-87642342D02*
X180034676Y-87669279D01*
X180034676Y-87669279D02*
X180169363Y-87803966D01*
X180169363Y-87803966D02*
X180196301Y-87884778D01*
X180196301Y-87884778D02*
X180196301Y-87938653D01*
X180196301Y-87938653D02*
X180169363Y-88019465D01*
X180169363Y-88019465D02*
X180007739Y-88181090D01*
X180007739Y-88181090D02*
X179926927Y-88208027D01*
X179926927Y-88208027D02*
X179873052Y-88208027D01*
X177937620Y-116713713D02*
X177856807Y-116740650D01*
X177856807Y-116740650D02*
X177775995Y-116821463D01*
X177775995Y-116821463D02*
X177722120Y-116929212D01*
X177722120Y-116929212D02*
X177722120Y-117036962D01*
X177722120Y-117036962D02*
X177749058Y-117117774D01*
X177749058Y-117117774D02*
X177829870Y-117252461D01*
X177829870Y-117252461D02*
X177910682Y-117333273D01*
X177910682Y-117333273D02*
X178045369Y-117414086D01*
X178045369Y-117414086D02*
X178126182Y-117441023D01*
X178126182Y-117441023D02*
X178233931Y-117441023D01*
X178233931Y-117441023D02*
X178341681Y-117387148D01*
X178341681Y-117387148D02*
X178395556Y-117333273D01*
X178395556Y-117333273D02*
X178449430Y-117225524D01*
X178449430Y-117225524D02*
X178449430Y-117171649D01*
X178449430Y-117171649D02*
X178260869Y-116983087D01*
X178260869Y-116983087D02*
X178153119Y-117090837D01*
X178745742Y-116983087D02*
X178180056Y-116417402D01*
X178180056Y-116417402D02*
X178395556Y-116201902D01*
X178395556Y-116201902D02*
X178476368Y-116174965D01*
X178476368Y-116174965D02*
X178530243Y-116174965D01*
X178530243Y-116174965D02*
X178611055Y-116201902D01*
X178611055Y-116201902D02*
X178691867Y-116282715D01*
X178691867Y-116282715D02*
X178718804Y-116363527D01*
X178718804Y-116363527D02*
X178718804Y-116417402D01*
X178718804Y-116417402D02*
X178691867Y-116498214D01*
X178691867Y-116498214D02*
X178476368Y-116713713D01*
X179607739Y-116121090D02*
X179284490Y-116444339D01*
X179446114Y-116282715D02*
X178880429Y-115717029D01*
X178880429Y-115717029D02*
X178907366Y-115851716D01*
X178907366Y-115851716D02*
X178907366Y-115959466D01*
X178907366Y-115959466D02*
X178880429Y-116040278D01*
X179311427Y-115393780D02*
X179311427Y-115339905D01*
X179311427Y-115339905D02*
X179338365Y-115259093D01*
X179338365Y-115259093D02*
X179473052Y-115124406D01*
X179473052Y-115124406D02*
X179553864Y-115097469D01*
X179553864Y-115097469D02*
X179607739Y-115097469D01*
X179607739Y-115097469D02*
X179688551Y-115124406D01*
X179688551Y-115124406D02*
X179742426Y-115178281D01*
X179742426Y-115178281D02*
X179796301Y-115286031D01*
X179796301Y-115286031D02*
X179796301Y-115932528D01*
X179796301Y-115932528D02*
X180146487Y-115582342D01*
X204191620Y-119253713D02*
X204110807Y-119280650D01*
X204110807Y-119280650D02*
X204029995Y-119361463D01*
X204029995Y-119361463D02*
X203976120Y-119469212D01*
X203976120Y-119469212D02*
X203976120Y-119576962D01*
X203976120Y-119576962D02*
X204003058Y-119657774D01*
X204003058Y-119657774D02*
X204083870Y-119792461D01*
X204083870Y-119792461D02*
X204164682Y-119873273D01*
X204164682Y-119873273D02*
X204299369Y-119954086D01*
X204299369Y-119954086D02*
X204380182Y-119981023D01*
X204380182Y-119981023D02*
X204487931Y-119981023D01*
X204487931Y-119981023D02*
X204595681Y-119927148D01*
X204595681Y-119927148D02*
X204649556Y-119873273D01*
X204649556Y-119873273D02*
X204703430Y-119765524D01*
X204703430Y-119765524D02*
X204703430Y-119711649D01*
X204703430Y-119711649D02*
X204514869Y-119523087D01*
X204514869Y-119523087D02*
X204407119Y-119630837D01*
X204999742Y-119523087D02*
X204434056Y-118957402D01*
X204434056Y-118957402D02*
X204649556Y-118741902D01*
X204649556Y-118741902D02*
X204730368Y-118714965D01*
X204730368Y-118714965D02*
X204784243Y-118714965D01*
X204784243Y-118714965D02*
X204865055Y-118741902D01*
X204865055Y-118741902D02*
X204945867Y-118822715D01*
X204945867Y-118822715D02*
X204972804Y-118903527D01*
X204972804Y-118903527D02*
X204972804Y-118957402D01*
X204972804Y-118957402D02*
X204945867Y-119038214D01*
X204945867Y-119038214D02*
X204730368Y-119253713D01*
X205861739Y-118661090D02*
X205538490Y-118984339D01*
X205700114Y-118822715D02*
X205134429Y-118257029D01*
X205134429Y-118257029D02*
X205161366Y-118391716D01*
X205161366Y-118391716D02*
X205161366Y-118499466D01*
X205161366Y-118499466D02*
X205134429Y-118580278D01*
X205861739Y-118014592D02*
X205780927Y-118041530D01*
X205780927Y-118041530D02*
X205727052Y-118041530D01*
X205727052Y-118041530D02*
X205646240Y-118014592D01*
X205646240Y-118014592D02*
X205619302Y-117987655D01*
X205619302Y-117987655D02*
X205592365Y-117906843D01*
X205592365Y-117906843D02*
X205592365Y-117852968D01*
X205592365Y-117852968D02*
X205619302Y-117772156D01*
X205619302Y-117772156D02*
X205727052Y-117664406D01*
X205727052Y-117664406D02*
X205807864Y-117637469D01*
X205807864Y-117637469D02*
X205861739Y-117637469D01*
X205861739Y-117637469D02*
X205942551Y-117664406D01*
X205942551Y-117664406D02*
X205969488Y-117691344D01*
X205969488Y-117691344D02*
X205996426Y-117772156D01*
X205996426Y-117772156D02*
X205996426Y-117826031D01*
X205996426Y-117826031D02*
X205969488Y-117906843D01*
X205969488Y-117906843D02*
X205861739Y-118014592D01*
X205861739Y-118014592D02*
X205834801Y-118095405D01*
X205834801Y-118095405D02*
X205834801Y-118149279D01*
X205834801Y-118149279D02*
X205861739Y-118230092D01*
X205861739Y-118230092D02*
X205969488Y-118337841D01*
X205969488Y-118337841D02*
X206050301Y-118364779D01*
X206050301Y-118364779D02*
X206104175Y-118364779D01*
X206104175Y-118364779D02*
X206184988Y-118337841D01*
X206184988Y-118337841D02*
X206292737Y-118230092D01*
X206292737Y-118230092D02*
X206319675Y-118149279D01*
X206319675Y-118149279D02*
X206319675Y-118095405D01*
X206319675Y-118095405D02*
X206292737Y-118014592D01*
X206292737Y-118014592D02*
X206184988Y-117906843D01*
X206184988Y-117906843D02*
X206104175Y-117879905D01*
X206104175Y-117879905D02*
X206050301Y-117879905D01*
X206050301Y-117879905D02*
X205969488Y-117906843D01*
X204248686Y-91886894D02*
X204518060Y-91617520D01*
X204356435Y-92102394D02*
X203979312Y-91348146D01*
X203979312Y-91348146D02*
X204733559Y-91725270D01*
X204922121Y-91536708D02*
X204356435Y-90971023D01*
X204356435Y-90971023D02*
X204491122Y-90836336D01*
X204491122Y-90836336D02*
X204598872Y-90782461D01*
X204598872Y-90782461D02*
X204706621Y-90782461D01*
X204706621Y-90782461D02*
X204787434Y-90809398D01*
X204787434Y-90809398D02*
X204922121Y-90890211D01*
X204922121Y-90890211D02*
X205002933Y-90971023D01*
X205002933Y-90971023D02*
X205083745Y-91105710D01*
X205083745Y-91105710D02*
X205110682Y-91186522D01*
X205110682Y-91186522D02*
X205110682Y-91294272D01*
X205110682Y-91294272D02*
X205056808Y-91402021D01*
X205056808Y-91402021D02*
X204922121Y-91536708D01*
X205757180Y-90593899D02*
X205757180Y-90647774D01*
X205757180Y-90647774D02*
X205703305Y-90755524D01*
X205703305Y-90755524D02*
X205649430Y-90809398D01*
X205649430Y-90809398D02*
X205541681Y-90863273D01*
X205541681Y-90863273D02*
X205433931Y-90863273D01*
X205433931Y-90863273D02*
X205353119Y-90836336D01*
X205353119Y-90836336D02*
X205218432Y-90755524D01*
X205218432Y-90755524D02*
X205137620Y-90674711D01*
X205137620Y-90674711D02*
X205056808Y-90540024D01*
X205056808Y-90540024D02*
X205029870Y-90459212D01*
X205029870Y-90459212D02*
X205029870Y-90351463D01*
X205029870Y-90351463D02*
X205083745Y-90243713D01*
X205083745Y-90243713D02*
X205137620Y-90189838D01*
X205137620Y-90189838D02*
X205245369Y-90135963D01*
X205245369Y-90135963D02*
X205299244Y-90135963D01*
X205972679Y-90593899D02*
X206403678Y-90162901D01*
X205837992Y-89489466D02*
X206592240Y-89866589D01*
X206592240Y-89866589D02*
X206215116Y-89112342D01*
X207292612Y-89166217D02*
X206834676Y-89085405D01*
X206969363Y-89489466D02*
X206403678Y-88923780D01*
X206403678Y-88923780D02*
X206619177Y-88708281D01*
X206619177Y-88708281D02*
X206699989Y-88681344D01*
X206699989Y-88681344D02*
X206753864Y-88681344D01*
X206753864Y-88681344D02*
X206834676Y-88708281D01*
X206834676Y-88708281D02*
X206915488Y-88789093D01*
X206915488Y-88789093D02*
X206942426Y-88869906D01*
X206942426Y-88869906D02*
X206942426Y-88923780D01*
X206942426Y-88923780D02*
X206915488Y-89004593D01*
X206915488Y-89004593D02*
X206699989Y-89220092D01*
X207238737Y-88627469D02*
X207427299Y-88438907D01*
X207804422Y-88654406D02*
X207535048Y-88923780D01*
X207535048Y-88923780D02*
X206969363Y-88358095D01*
X206969363Y-88358095D02*
X207238737Y-88088721D01*
X207939110Y-87927096D02*
X207750548Y-88115658D01*
X208046859Y-88411970D02*
X207481174Y-87846284D01*
X207481174Y-87846284D02*
X207750548Y-87576910D01*
X196341983Y-129397845D02*
X196456269Y-129435940D01*
X196456269Y-129435940D02*
X196646745Y-129435940D01*
X196646745Y-129435940D02*
X196722936Y-129397845D01*
X196722936Y-129397845D02*
X196761031Y-129359749D01*
X196761031Y-129359749D02*
X196799126Y-129283559D01*
X196799126Y-129283559D02*
X196799126Y-129207368D01*
X196799126Y-129207368D02*
X196761031Y-129131178D01*
X196761031Y-129131178D02*
X196722936Y-129093083D01*
X196722936Y-129093083D02*
X196646745Y-129054987D01*
X196646745Y-129054987D02*
X196494364Y-129016892D01*
X196494364Y-129016892D02*
X196418174Y-128978797D01*
X196418174Y-128978797D02*
X196380079Y-128940702D01*
X196380079Y-128940702D02*
X196341983Y-128864511D01*
X196341983Y-128864511D02*
X196341983Y-128788321D01*
X196341983Y-128788321D02*
X196380079Y-128712130D01*
X196380079Y-128712130D02*
X196418174Y-128674035D01*
X196418174Y-128674035D02*
X196494364Y-128635940D01*
X196494364Y-128635940D02*
X196684841Y-128635940D01*
X196684841Y-128635940D02*
X196799126Y-128674035D01*
X197065793Y-128635940D02*
X197256269Y-129435940D01*
X197256269Y-129435940D02*
X197408650Y-128864511D01*
X197408650Y-128864511D02*
X197561031Y-129435940D01*
X197561031Y-129435940D02*
X197751508Y-128635940D01*
X198056270Y-129435940D02*
X198056270Y-128635940D01*
X198056270Y-128635940D02*
X198246746Y-128635940D01*
X198246746Y-128635940D02*
X198361032Y-128674035D01*
X198361032Y-128674035D02*
X198437222Y-128750225D01*
X198437222Y-128750225D02*
X198475317Y-128826416D01*
X198475317Y-128826416D02*
X198513413Y-128978797D01*
X198513413Y-128978797D02*
X198513413Y-129093083D01*
X198513413Y-129093083D02*
X198475317Y-129245464D01*
X198475317Y-129245464D02*
X198437222Y-129321654D01*
X198437222Y-129321654D02*
X198361032Y-129397845D01*
X198361032Y-129397845D02*
X198246746Y-129435940D01*
X198246746Y-129435940D02*
X198056270Y-129435940D01*
X198856270Y-129435940D02*
X198856270Y-128635940D01*
X199389603Y-128635940D02*
X199541984Y-128635940D01*
X199541984Y-128635940D02*
X199618174Y-128674035D01*
X199618174Y-128674035D02*
X199694365Y-128750225D01*
X199694365Y-128750225D02*
X199732460Y-128902606D01*
X199732460Y-128902606D02*
X199732460Y-129169273D01*
X199732460Y-129169273D02*
X199694365Y-129321654D01*
X199694365Y-129321654D02*
X199618174Y-129397845D01*
X199618174Y-129397845D02*
X199541984Y-129435940D01*
X199541984Y-129435940D02*
X199389603Y-129435940D01*
X199389603Y-129435940D02*
X199313412Y-129397845D01*
X199313412Y-129397845D02*
X199237222Y-129321654D01*
X199237222Y-129321654D02*
X199199126Y-129169273D01*
X199199126Y-129169273D02*
X199199126Y-128902606D01*
X199199126Y-128902606D02*
X199237222Y-128750225D01*
X199237222Y-128750225D02*
X199313412Y-128674035D01*
X199313412Y-128674035D02*
X199389603Y-128635940D01*
X204047028Y-78880430D02*
X204801275Y-79257554D01*
X204801275Y-79257554D02*
X204424151Y-78503307D01*
X205070649Y-78395557D02*
X205178398Y-78341683D01*
X205178398Y-78341683D02*
X205232273Y-78341683D01*
X205232273Y-78341683D02*
X205313085Y-78368620D01*
X205313085Y-78368620D02*
X205393898Y-78449432D01*
X205393898Y-78449432D02*
X205420835Y-78530244D01*
X205420835Y-78530244D02*
X205420835Y-78584119D01*
X205420835Y-78584119D02*
X205393898Y-78664931D01*
X205393898Y-78664931D02*
X205178398Y-78880431D01*
X205178398Y-78880431D02*
X204612713Y-78314745D01*
X204612713Y-78314745D02*
X204801275Y-78126183D01*
X204801275Y-78126183D02*
X204882087Y-78099246D01*
X204882087Y-78099246D02*
X204935962Y-78099246D01*
X204935962Y-78099246D02*
X205016774Y-78126183D01*
X205016774Y-78126183D02*
X205070649Y-78180058D01*
X205070649Y-78180058D02*
X205097586Y-78260870D01*
X205097586Y-78260870D02*
X205097586Y-78314745D01*
X205097586Y-78314745D02*
X205070649Y-78395557D01*
X205070649Y-78395557D02*
X204882087Y-78584119D01*
X205178398Y-77749060D02*
X205636334Y-78206996D01*
X205636334Y-78206996D02*
X205717146Y-78233933D01*
X205717146Y-78233933D02*
X205771021Y-78233933D01*
X205771021Y-78233933D02*
X205851833Y-78206996D01*
X205851833Y-78206996D02*
X205959583Y-78099246D01*
X205959583Y-78099246D02*
X205986520Y-78018434D01*
X205986520Y-78018434D02*
X205986520Y-77964559D01*
X205986520Y-77964559D02*
X205959583Y-77883747D01*
X205959583Y-77883747D02*
X205501647Y-77425811D01*
X206282832Y-77722122D02*
X206390581Y-77668248D01*
X206390581Y-77668248D02*
X206525268Y-77533561D01*
X206525268Y-77533561D02*
X206552206Y-77452748D01*
X206552206Y-77452748D02*
X206552206Y-77398874D01*
X206552206Y-77398874D02*
X206525268Y-77318061D01*
X206525268Y-77318061D02*
X206471393Y-77264187D01*
X206471393Y-77264187D02*
X206390581Y-77237249D01*
X206390581Y-77237249D02*
X206336706Y-77237249D01*
X206336706Y-77237249D02*
X206255894Y-77264187D01*
X206255894Y-77264187D02*
X206121207Y-77344999D01*
X206121207Y-77344999D02*
X206040395Y-77371936D01*
X206040395Y-77371936D02*
X205986520Y-77371936D01*
X205986520Y-77371936D02*
X205905708Y-77344999D01*
X205905708Y-77344999D02*
X205851833Y-77291124D01*
X205851833Y-77291124D02*
X205824896Y-77210312D01*
X205824896Y-77210312D02*
X205824896Y-77156437D01*
X205824896Y-77156437D02*
X205851833Y-77075625D01*
X205851833Y-77075625D02*
X205986520Y-76940938D01*
X205986520Y-76940938D02*
X206094270Y-76887063D01*
X204014371Y-81423087D02*
X204768618Y-81800211D01*
X204768618Y-81800211D02*
X204391495Y-81045963D01*
X205091867Y-81423087D02*
X205199617Y-81369212D01*
X205199617Y-81369212D02*
X205334304Y-81234525D01*
X205334304Y-81234525D02*
X205361241Y-81153713D01*
X205361241Y-81153713D02*
X205361241Y-81099838D01*
X205361241Y-81099838D02*
X205334304Y-81019026D01*
X205334304Y-81019026D02*
X205280429Y-80965151D01*
X205280429Y-80965151D02*
X205199617Y-80938214D01*
X205199617Y-80938214D02*
X205145742Y-80938214D01*
X205145742Y-80938214D02*
X205064930Y-80965151D01*
X205064930Y-80965151D02*
X204930243Y-81045963D01*
X204930243Y-81045963D02*
X204849430Y-81072901D01*
X204849430Y-81072901D02*
X204795556Y-81072901D01*
X204795556Y-81072901D02*
X204714743Y-81045963D01*
X204714743Y-81045963D02*
X204660869Y-80992089D01*
X204660869Y-80992089D02*
X204633931Y-80911276D01*
X204633931Y-80911276D02*
X204633931Y-80857402D01*
X204633931Y-80857402D02*
X204660869Y-80776589D01*
X204660869Y-80776589D02*
X204795556Y-80641902D01*
X204795556Y-80641902D02*
X204903305Y-80588028D01*
X205522866Y-80507215D02*
X205792240Y-80776589D01*
X205037992Y-80399466D02*
X205522866Y-80507215D01*
X205522866Y-80507215D02*
X205415116Y-80022342D01*
X206115488Y-80399466D02*
X206223238Y-80345591D01*
X206223238Y-80345591D02*
X206357925Y-80210904D01*
X206357925Y-80210904D02*
X206384862Y-80130092D01*
X206384862Y-80130092D02*
X206384862Y-80076217D01*
X206384862Y-80076217D02*
X206357925Y-79995405D01*
X206357925Y-79995405D02*
X206304050Y-79941530D01*
X206304050Y-79941530D02*
X206223238Y-79914593D01*
X206223238Y-79914593D02*
X206169363Y-79914593D01*
X206169363Y-79914593D02*
X206088551Y-79941530D01*
X206088551Y-79941530D02*
X205953864Y-80022342D01*
X205953864Y-80022342D02*
X205873052Y-80049280D01*
X205873052Y-80049280D02*
X205819177Y-80049280D01*
X205819177Y-80049280D02*
X205738365Y-80022342D01*
X205738365Y-80022342D02*
X205684490Y-79968467D01*
X205684490Y-79968467D02*
X205657552Y-79887655D01*
X205657552Y-79887655D02*
X205657552Y-79833780D01*
X205657552Y-79833780D02*
X205684490Y-79752968D01*
X205684490Y-79752968D02*
X205819177Y-79618281D01*
X205819177Y-79618281D02*
X205926926Y-79564406D01*
X204191620Y-98943713D02*
X204110807Y-98970650D01*
X204110807Y-98970650D02*
X204029995Y-99051463D01*
X204029995Y-99051463D02*
X203976120Y-99159212D01*
X203976120Y-99159212D02*
X203976120Y-99266962D01*
X203976120Y-99266962D02*
X204003058Y-99347774D01*
X204003058Y-99347774D02*
X204083870Y-99482461D01*
X204083870Y-99482461D02*
X204164682Y-99563273D01*
X204164682Y-99563273D02*
X204299369Y-99644086D01*
X204299369Y-99644086D02*
X204380182Y-99671023D01*
X204380182Y-99671023D02*
X204487931Y-99671023D01*
X204487931Y-99671023D02*
X204595681Y-99617148D01*
X204595681Y-99617148D02*
X204649556Y-99563273D01*
X204649556Y-99563273D02*
X204703430Y-99455524D01*
X204703430Y-99455524D02*
X204703430Y-99401649D01*
X204703430Y-99401649D02*
X204514869Y-99213087D01*
X204514869Y-99213087D02*
X204407119Y-99320837D01*
X204999742Y-99213087D02*
X204434056Y-98647402D01*
X204434056Y-98647402D02*
X204649556Y-98431902D01*
X204649556Y-98431902D02*
X204730368Y-98404965D01*
X204730368Y-98404965D02*
X204784243Y-98404965D01*
X204784243Y-98404965D02*
X204865055Y-98431902D01*
X204865055Y-98431902D02*
X204945867Y-98512715D01*
X204945867Y-98512715D02*
X204972804Y-98593527D01*
X204972804Y-98593527D02*
X204972804Y-98647402D01*
X204972804Y-98647402D02*
X204945867Y-98728214D01*
X204945867Y-98728214D02*
X204730368Y-98943713D01*
X205026679Y-98162528D02*
X205026679Y-98108654D01*
X205026679Y-98108654D02*
X205053617Y-98027841D01*
X205053617Y-98027841D02*
X205188304Y-97893154D01*
X205188304Y-97893154D02*
X205269116Y-97866217D01*
X205269116Y-97866217D02*
X205322991Y-97866217D01*
X205322991Y-97866217D02*
X205403803Y-97893154D01*
X205403803Y-97893154D02*
X205457678Y-97947029D01*
X205457678Y-97947029D02*
X205511552Y-98054779D01*
X205511552Y-98054779D02*
X205511552Y-98701276D01*
X205511552Y-98701276D02*
X205861739Y-98351090D01*
X205484615Y-97596843D02*
X205861739Y-97219719D01*
X205861739Y-97219719D02*
X206184988Y-98027841D01*
X178606994Y-93584339D02*
X178526182Y-93611276D01*
X178526182Y-93611276D02*
X178445370Y-93692088D01*
X178445370Y-93692088D02*
X178391495Y-93799838D01*
X178391495Y-93799838D02*
X178391495Y-93907587D01*
X178391495Y-93907587D02*
X178418432Y-93988400D01*
X178418432Y-93988400D02*
X178499245Y-94123087D01*
X178499245Y-94123087D02*
X178580057Y-94203899D01*
X178580057Y-94203899D02*
X178714744Y-94284711D01*
X178714744Y-94284711D02*
X178795556Y-94311648D01*
X178795556Y-94311648D02*
X178903306Y-94311648D01*
X178903306Y-94311648D02*
X179011055Y-94257774D01*
X179011055Y-94257774D02*
X179064930Y-94203899D01*
X179064930Y-94203899D02*
X179118805Y-94096149D01*
X179118805Y-94096149D02*
X179118805Y-94042274D01*
X179118805Y-94042274D02*
X178930243Y-93853713D01*
X178930243Y-93853713D02*
X178822493Y-93961462D01*
X179415116Y-93853713D02*
X178849431Y-93288027D01*
X178849431Y-93288027D02*
X179064930Y-93072528D01*
X179064930Y-93072528D02*
X179145742Y-93045591D01*
X179145742Y-93045591D02*
X179199617Y-93045591D01*
X179199617Y-93045591D02*
X179280429Y-93072528D01*
X179280429Y-93072528D02*
X179361241Y-93153340D01*
X179361241Y-93153340D02*
X179388179Y-93234152D01*
X179388179Y-93234152D02*
X179388179Y-93288027D01*
X179388179Y-93288027D02*
X179361241Y-93368839D01*
X179361241Y-93368839D02*
X179145742Y-93584339D01*
X179684490Y-92452968D02*
X179415116Y-92722342D01*
X179415116Y-92722342D02*
X179657553Y-93018653D01*
X179657553Y-93018653D02*
X179657553Y-92964778D01*
X179657553Y-92964778D02*
X179684490Y-92883966D01*
X179684490Y-92883966D02*
X179819177Y-92749279D01*
X179819177Y-92749279D02*
X179899989Y-92722342D01*
X179899989Y-92722342D02*
X179953864Y-92722342D01*
X179953864Y-92722342D02*
X180034676Y-92749279D01*
X180034676Y-92749279D02*
X180169363Y-92883966D01*
X180169363Y-92883966D02*
X180196301Y-92964778D01*
X180196301Y-92964778D02*
X180196301Y-93018653D01*
X180196301Y-93018653D02*
X180169363Y-93099465D01*
X180169363Y-93099465D02*
X180034676Y-93234152D01*
X180034676Y-93234152D02*
X179953864Y-93261090D01*
X179953864Y-93261090D02*
X179899989Y-93261090D01*
X178580057Y-83451276D02*
X178499245Y-83478213D01*
X178499245Y-83478213D02*
X178418433Y-83559025D01*
X178418433Y-83559025D02*
X178364558Y-83666775D01*
X178364558Y-83666775D02*
X178364558Y-83774525D01*
X178364558Y-83774525D02*
X178391495Y-83855337D01*
X178391495Y-83855337D02*
X178472307Y-83990024D01*
X178472307Y-83990024D02*
X178553120Y-84070836D01*
X178553120Y-84070836D02*
X178687807Y-84151648D01*
X178687807Y-84151648D02*
X178768619Y-84178586D01*
X178768619Y-84178586D02*
X178876368Y-84178586D01*
X178876368Y-84178586D02*
X178984118Y-84124711D01*
X178984118Y-84124711D02*
X179037993Y-84070836D01*
X179037993Y-84070836D02*
X179091868Y-83963086D01*
X179091868Y-83963086D02*
X179091868Y-83909212D01*
X179091868Y-83909212D02*
X178903306Y-83720650D01*
X178903306Y-83720650D02*
X178795556Y-83828399D01*
X179388179Y-83720650D02*
X178822494Y-83154964D01*
X178822494Y-83154964D02*
X179711428Y-83397401D01*
X179711428Y-83397401D02*
X179145742Y-82831716D01*
X179980802Y-83128027D02*
X179415116Y-82562342D01*
X179415116Y-82562342D02*
X179549803Y-82427655D01*
X179549803Y-82427655D02*
X179657553Y-82373780D01*
X179657553Y-82373780D02*
X179765302Y-82373780D01*
X179765302Y-82373780D02*
X179846115Y-82400717D01*
X179846115Y-82400717D02*
X179980802Y-82481530D01*
X179980802Y-82481530D02*
X180061614Y-82562342D01*
X180061614Y-82562342D02*
X180142426Y-82697029D01*
X180142426Y-82697029D02*
X180169363Y-82777841D01*
X180169363Y-82777841D02*
X180169363Y-82885591D01*
X180169363Y-82885591D02*
X180115489Y-82993340D01*
X180115489Y-82993340D02*
X179980802Y-83128027D01*
X178037620Y-124333713D02*
X177956807Y-124360650D01*
X177956807Y-124360650D02*
X177875995Y-124441463D01*
X177875995Y-124441463D02*
X177822120Y-124549212D01*
X177822120Y-124549212D02*
X177822120Y-124656962D01*
X177822120Y-124656962D02*
X177849058Y-124737774D01*
X177849058Y-124737774D02*
X177929870Y-124872461D01*
X177929870Y-124872461D02*
X178010682Y-124953273D01*
X178010682Y-124953273D02*
X178145369Y-125034086D01*
X178145369Y-125034086D02*
X178226182Y-125061023D01*
X178226182Y-125061023D02*
X178333931Y-125061023D01*
X178333931Y-125061023D02*
X178441681Y-125007148D01*
X178441681Y-125007148D02*
X178495556Y-124953273D01*
X178495556Y-124953273D02*
X178549430Y-124845524D01*
X178549430Y-124845524D02*
X178549430Y-124791649D01*
X178549430Y-124791649D02*
X178360869Y-124603087D01*
X178360869Y-124603087D02*
X178253119Y-124710837D01*
X178845742Y-124603087D02*
X178280056Y-124037402D01*
X178280056Y-124037402D02*
X178495556Y-123821902D01*
X178495556Y-123821902D02*
X178576368Y-123794965D01*
X178576368Y-123794965D02*
X178630243Y-123794965D01*
X178630243Y-123794965D02*
X178711055Y-123821902D01*
X178711055Y-123821902D02*
X178791867Y-123902715D01*
X178791867Y-123902715D02*
X178818804Y-123983527D01*
X178818804Y-123983527D02*
X178818804Y-124037402D01*
X178818804Y-124037402D02*
X178791867Y-124118214D01*
X178791867Y-124118214D02*
X178576368Y-124333713D01*
X179707739Y-123741090D02*
X179384490Y-124064339D01*
X179546114Y-123902715D02*
X178980429Y-123337029D01*
X178980429Y-123337029D02*
X179007366Y-123471716D01*
X179007366Y-123471716D02*
X179007366Y-123579466D01*
X179007366Y-123579466D02*
X178980429Y-123660278D01*
X179815488Y-122879093D02*
X180192612Y-123256217D01*
X179465302Y-122798281D02*
X179734676Y-123337029D01*
X179734676Y-123337029D02*
X180084862Y-122986843D01*
X178606994Y-78344339D02*
X178526182Y-78371276D01*
X178526182Y-78371276D02*
X178445370Y-78452088D01*
X178445370Y-78452088D02*
X178391495Y-78559838D01*
X178391495Y-78559838D02*
X178391495Y-78667587D01*
X178391495Y-78667587D02*
X178418432Y-78748400D01*
X178418432Y-78748400D02*
X178499245Y-78883087D01*
X178499245Y-78883087D02*
X178580057Y-78963899D01*
X178580057Y-78963899D02*
X178714744Y-79044711D01*
X178714744Y-79044711D02*
X178795556Y-79071648D01*
X178795556Y-79071648D02*
X178903306Y-79071648D01*
X178903306Y-79071648D02*
X179011055Y-79017774D01*
X179011055Y-79017774D02*
X179064930Y-78963899D01*
X179064930Y-78963899D02*
X179118805Y-78856149D01*
X179118805Y-78856149D02*
X179118805Y-78802274D01*
X179118805Y-78802274D02*
X178930243Y-78613713D01*
X178930243Y-78613713D02*
X178822493Y-78721462D01*
X179415116Y-78613713D02*
X178849431Y-78048027D01*
X178849431Y-78048027D02*
X179064930Y-77832528D01*
X179064930Y-77832528D02*
X179145742Y-77805591D01*
X179145742Y-77805591D02*
X179199617Y-77805591D01*
X179199617Y-77805591D02*
X179280429Y-77832528D01*
X179280429Y-77832528D02*
X179361241Y-77913340D01*
X179361241Y-77913340D02*
X179388179Y-77994152D01*
X179388179Y-77994152D02*
X179388179Y-78048027D01*
X179388179Y-78048027D02*
X179361241Y-78128839D01*
X179361241Y-78128839D02*
X179145742Y-78344339D01*
X179522866Y-77374592D02*
X179576741Y-77320717D01*
X179576741Y-77320717D02*
X179657553Y-77293780D01*
X179657553Y-77293780D02*
X179711428Y-77293780D01*
X179711428Y-77293780D02*
X179792240Y-77320717D01*
X179792240Y-77320717D02*
X179926927Y-77401530D01*
X179926927Y-77401530D02*
X180061614Y-77536217D01*
X180061614Y-77536217D02*
X180142426Y-77670904D01*
X180142426Y-77670904D02*
X180169363Y-77751716D01*
X180169363Y-77751716D02*
X180169363Y-77805591D01*
X180169363Y-77805591D02*
X180142426Y-77886403D01*
X180142426Y-77886403D02*
X180088551Y-77940278D01*
X180088551Y-77940278D02*
X180007739Y-77967215D01*
X180007739Y-77967215D02*
X179953864Y-77967215D01*
X179953864Y-77967215D02*
X179873052Y-77940278D01*
X179873052Y-77940278D02*
X179738365Y-77859465D01*
X179738365Y-77859465D02*
X179603678Y-77724778D01*
X179603678Y-77724778D02*
X179522866Y-77590091D01*
X179522866Y-77590091D02*
X179495928Y-77509279D01*
X179495928Y-77509279D02*
X179495928Y-77455404D01*
X179495928Y-77455404D02*
X179522866Y-77374592D01*
X178706994Y-101174339D02*
X178626182Y-101201276D01*
X178626182Y-101201276D02*
X178545370Y-101282088D01*
X178545370Y-101282088D02*
X178491495Y-101389838D01*
X178491495Y-101389838D02*
X178491495Y-101497587D01*
X178491495Y-101497587D02*
X178518432Y-101578400D01*
X178518432Y-101578400D02*
X178599245Y-101713087D01*
X178599245Y-101713087D02*
X178680057Y-101793899D01*
X178680057Y-101793899D02*
X178814744Y-101874711D01*
X178814744Y-101874711D02*
X178895556Y-101901648D01*
X178895556Y-101901648D02*
X179003306Y-101901648D01*
X179003306Y-101901648D02*
X179111055Y-101847774D01*
X179111055Y-101847774D02*
X179164930Y-101793899D01*
X179164930Y-101793899D02*
X179218805Y-101686149D01*
X179218805Y-101686149D02*
X179218805Y-101632274D01*
X179218805Y-101632274D02*
X179030243Y-101443713D01*
X179030243Y-101443713D02*
X178922493Y-101551462D01*
X179515116Y-101443713D02*
X178949431Y-100878027D01*
X178949431Y-100878027D02*
X179164930Y-100662528D01*
X179164930Y-100662528D02*
X179245742Y-100635591D01*
X179245742Y-100635591D02*
X179299617Y-100635591D01*
X179299617Y-100635591D02*
X179380429Y-100662528D01*
X179380429Y-100662528D02*
X179461241Y-100743340D01*
X179461241Y-100743340D02*
X179488179Y-100824152D01*
X179488179Y-100824152D02*
X179488179Y-100878027D01*
X179488179Y-100878027D02*
X179461241Y-100958839D01*
X179461241Y-100958839D02*
X179245742Y-101174339D01*
X179461241Y-100366217D02*
X179838365Y-99989093D01*
X179838365Y-99989093D02*
X180161614Y-100797215D01*
X204191620Y-124333713D02*
X204110807Y-124360650D01*
X204110807Y-124360650D02*
X204029995Y-124441463D01*
X204029995Y-124441463D02*
X203976120Y-124549212D01*
X203976120Y-124549212D02*
X203976120Y-124656962D01*
X203976120Y-124656962D02*
X204003058Y-124737774D01*
X204003058Y-124737774D02*
X204083870Y-124872461D01*
X204083870Y-124872461D02*
X204164682Y-124953273D01*
X204164682Y-124953273D02*
X204299369Y-125034086D01*
X204299369Y-125034086D02*
X204380182Y-125061023D01*
X204380182Y-125061023D02*
X204487931Y-125061023D01*
X204487931Y-125061023D02*
X204595681Y-125007148D01*
X204595681Y-125007148D02*
X204649556Y-124953273D01*
X204649556Y-124953273D02*
X204703430Y-124845524D01*
X204703430Y-124845524D02*
X204703430Y-124791649D01*
X204703430Y-124791649D02*
X204514869Y-124603087D01*
X204514869Y-124603087D02*
X204407119Y-124710837D01*
X204999742Y-124603087D02*
X204434056Y-124037402D01*
X204434056Y-124037402D02*
X204649556Y-123821902D01*
X204649556Y-123821902D02*
X204730368Y-123794965D01*
X204730368Y-123794965D02*
X204784243Y-123794965D01*
X204784243Y-123794965D02*
X204865055Y-123821902D01*
X204865055Y-123821902D02*
X204945867Y-123902715D01*
X204945867Y-123902715D02*
X204972804Y-123983527D01*
X204972804Y-123983527D02*
X204972804Y-124037402D01*
X204972804Y-124037402D02*
X204945867Y-124118214D01*
X204945867Y-124118214D02*
X204730368Y-124333713D01*
X205861739Y-123741090D02*
X205538490Y-124064339D01*
X205700114Y-123902715D02*
X205134429Y-123337029D01*
X205134429Y-123337029D02*
X205161366Y-123471716D01*
X205161366Y-123471716D02*
X205161366Y-123579466D01*
X205161366Y-123579466D02*
X205134429Y-123660278D01*
X205484615Y-122986843D02*
X205861739Y-122609719D01*
X205861739Y-122609719D02*
X206184988Y-123417841D01*
X204191620Y-116713713D02*
X204110807Y-116740650D01*
X204110807Y-116740650D02*
X204029995Y-116821463D01*
X204029995Y-116821463D02*
X203976120Y-116929212D01*
X203976120Y-116929212D02*
X203976120Y-117036962D01*
X203976120Y-117036962D02*
X204003058Y-117117774D01*
X204003058Y-117117774D02*
X204083870Y-117252461D01*
X204083870Y-117252461D02*
X204164682Y-117333273D01*
X204164682Y-117333273D02*
X204299369Y-117414086D01*
X204299369Y-117414086D02*
X204380182Y-117441023D01*
X204380182Y-117441023D02*
X204487931Y-117441023D01*
X204487931Y-117441023D02*
X204595681Y-117387148D01*
X204595681Y-117387148D02*
X204649556Y-117333273D01*
X204649556Y-117333273D02*
X204703430Y-117225524D01*
X204703430Y-117225524D02*
X204703430Y-117171649D01*
X204703430Y-117171649D02*
X204514869Y-116983087D01*
X204514869Y-116983087D02*
X204407119Y-117090837D01*
X204999742Y-116983087D02*
X204434056Y-116417402D01*
X204434056Y-116417402D02*
X204649556Y-116201902D01*
X204649556Y-116201902D02*
X204730368Y-116174965D01*
X204730368Y-116174965D02*
X204784243Y-116174965D01*
X204784243Y-116174965D02*
X204865055Y-116201902D01*
X204865055Y-116201902D02*
X204945867Y-116282715D01*
X204945867Y-116282715D02*
X204972804Y-116363527D01*
X204972804Y-116363527D02*
X204972804Y-116417402D01*
X204972804Y-116417402D02*
X204945867Y-116498214D01*
X204945867Y-116498214D02*
X204730368Y-116713713D01*
X205861739Y-116121090D02*
X205538490Y-116444339D01*
X205700114Y-116282715D02*
X205134429Y-115717029D01*
X205134429Y-115717029D02*
X205161366Y-115851716D01*
X205161366Y-115851716D02*
X205161366Y-115959466D01*
X205161366Y-115959466D02*
X205134429Y-116040278D01*
X206131113Y-115851716D02*
X206238862Y-115743966D01*
X206238862Y-115743966D02*
X206265800Y-115663154D01*
X206265800Y-115663154D02*
X206265800Y-115609279D01*
X206265800Y-115609279D02*
X206238862Y-115474592D01*
X206238862Y-115474592D02*
X206158050Y-115339905D01*
X206158050Y-115339905D02*
X205942551Y-115124406D01*
X205942551Y-115124406D02*
X205861739Y-115097469D01*
X205861739Y-115097469D02*
X205807864Y-115097469D01*
X205807864Y-115097469D02*
X205727052Y-115124406D01*
X205727052Y-115124406D02*
X205619302Y-115232156D01*
X205619302Y-115232156D02*
X205592365Y-115312968D01*
X205592365Y-115312968D02*
X205592365Y-115366843D01*
X205592365Y-115366843D02*
X205619302Y-115447655D01*
X205619302Y-115447655D02*
X205753989Y-115582342D01*
X205753989Y-115582342D02*
X205834801Y-115609279D01*
X205834801Y-115609279D02*
X205888676Y-115609279D01*
X205888676Y-115609279D02*
X205969488Y-115582342D01*
X205969488Y-115582342D02*
X206077238Y-115474592D01*
X206077238Y-115474592D02*
X206104175Y-115393780D01*
X206104175Y-115393780D02*
X206104175Y-115339905D01*
X206104175Y-115339905D02*
X206077238Y-115259093D01*
X178580057Y-108851276D02*
X178499245Y-108878213D01*
X178499245Y-108878213D02*
X178418433Y-108959025D01*
X178418433Y-108959025D02*
X178364558Y-109066775D01*
X178364558Y-109066775D02*
X178364558Y-109174525D01*
X178364558Y-109174525D02*
X178391495Y-109255337D01*
X178391495Y-109255337D02*
X178472307Y-109390024D01*
X178472307Y-109390024D02*
X178553120Y-109470836D01*
X178553120Y-109470836D02*
X178687807Y-109551648D01*
X178687807Y-109551648D02*
X178768619Y-109578586D01*
X178768619Y-109578586D02*
X178876368Y-109578586D01*
X178876368Y-109578586D02*
X178984118Y-109524711D01*
X178984118Y-109524711D02*
X179037993Y-109470836D01*
X179037993Y-109470836D02*
X179091868Y-109363086D01*
X179091868Y-109363086D02*
X179091868Y-109309212D01*
X179091868Y-109309212D02*
X178903306Y-109120650D01*
X178903306Y-109120650D02*
X178795556Y-109228399D01*
X179388179Y-109120650D02*
X178822494Y-108554964D01*
X178822494Y-108554964D02*
X179711428Y-108797401D01*
X179711428Y-108797401D02*
X179145742Y-108231716D01*
X179980802Y-108528027D02*
X179415116Y-107962342D01*
X179415116Y-107962342D02*
X179549803Y-107827655D01*
X179549803Y-107827655D02*
X179657553Y-107773780D01*
X179657553Y-107773780D02*
X179765302Y-107773780D01*
X179765302Y-107773780D02*
X179846115Y-107800717D01*
X179846115Y-107800717D02*
X179980802Y-107881530D01*
X179980802Y-107881530D02*
X180061614Y-107962342D01*
X180061614Y-107962342D02*
X180142426Y-108097029D01*
X180142426Y-108097029D02*
X180169363Y-108177841D01*
X180169363Y-108177841D02*
X180169363Y-108285591D01*
X180169363Y-108285591D02*
X180115489Y-108393340D01*
X180115489Y-108393340D02*
X179980802Y-108528027D01*
X178580057Y-96151276D02*
X178499245Y-96178213D01*
X178499245Y-96178213D02*
X178418433Y-96259025D01*
X178418433Y-96259025D02*
X178364558Y-96366775D01*
X178364558Y-96366775D02*
X178364558Y-96474525D01*
X178364558Y-96474525D02*
X178391495Y-96555337D01*
X178391495Y-96555337D02*
X178472307Y-96690024D01*
X178472307Y-96690024D02*
X178553120Y-96770836D01*
X178553120Y-96770836D02*
X178687807Y-96851648D01*
X178687807Y-96851648D02*
X178768619Y-96878586D01*
X178768619Y-96878586D02*
X178876368Y-96878586D01*
X178876368Y-96878586D02*
X178984118Y-96824711D01*
X178984118Y-96824711D02*
X179037993Y-96770836D01*
X179037993Y-96770836D02*
X179091868Y-96663086D01*
X179091868Y-96663086D02*
X179091868Y-96609212D01*
X179091868Y-96609212D02*
X178903306Y-96420650D01*
X178903306Y-96420650D02*
X178795556Y-96528399D01*
X179388179Y-96420650D02*
X178822494Y-95854964D01*
X178822494Y-95854964D02*
X179711428Y-96097401D01*
X179711428Y-96097401D02*
X179145742Y-95531716D01*
X179980802Y-95828027D02*
X179415116Y-95262342D01*
X179415116Y-95262342D02*
X179549803Y-95127655D01*
X179549803Y-95127655D02*
X179657553Y-95073780D01*
X179657553Y-95073780D02*
X179765302Y-95073780D01*
X179765302Y-95073780D02*
X179846115Y-95100717D01*
X179846115Y-95100717D02*
X179980802Y-95181530D01*
X179980802Y-95181530D02*
X180061614Y-95262342D01*
X180061614Y-95262342D02*
X180142426Y-95397029D01*
X180142426Y-95397029D02*
X180169363Y-95477841D01*
X180169363Y-95477841D02*
X180169363Y-95585591D01*
X180169363Y-95585591D02*
X180115489Y-95693340D01*
X180115489Y-95693340D02*
X179980802Y-95828027D01*
X178506994Y-80874339D02*
X178426182Y-80901276D01*
X178426182Y-80901276D02*
X178345370Y-80982088D01*
X178345370Y-80982088D02*
X178291495Y-81089838D01*
X178291495Y-81089838D02*
X178291495Y-81197587D01*
X178291495Y-81197587D02*
X178318432Y-81278400D01*
X178318432Y-81278400D02*
X178399245Y-81413087D01*
X178399245Y-81413087D02*
X178480057Y-81493899D01*
X178480057Y-81493899D02*
X178614744Y-81574711D01*
X178614744Y-81574711D02*
X178695556Y-81601648D01*
X178695556Y-81601648D02*
X178803306Y-81601648D01*
X178803306Y-81601648D02*
X178911055Y-81547774D01*
X178911055Y-81547774D02*
X178964930Y-81493899D01*
X178964930Y-81493899D02*
X179018805Y-81386149D01*
X179018805Y-81386149D02*
X179018805Y-81332274D01*
X179018805Y-81332274D02*
X178830243Y-81143713D01*
X178830243Y-81143713D02*
X178722493Y-81251462D01*
X179315116Y-81143713D02*
X178749431Y-80578027D01*
X178749431Y-80578027D02*
X178964930Y-80362528D01*
X178964930Y-80362528D02*
X179045742Y-80335591D01*
X179045742Y-80335591D02*
X179099617Y-80335591D01*
X179099617Y-80335591D02*
X179180429Y-80362528D01*
X179180429Y-80362528D02*
X179261241Y-80443340D01*
X179261241Y-80443340D02*
X179288179Y-80524152D01*
X179288179Y-80524152D02*
X179288179Y-80578027D01*
X179288179Y-80578027D02*
X179261241Y-80658839D01*
X179261241Y-80658839D02*
X179045742Y-80874339D01*
X180177113Y-80281716D02*
X179853864Y-80604965D01*
X180015489Y-80443340D02*
X179449803Y-79877655D01*
X179449803Y-79877655D02*
X179476741Y-80012342D01*
X179476741Y-80012342D02*
X179476741Y-80120091D01*
X179476741Y-80120091D02*
X179449803Y-80200904D01*
X204245495Y-97094085D02*
X204514869Y-96824711D01*
X204353245Y-97309584D02*
X203976121Y-96555337D01*
X203976121Y-96555337D02*
X204730368Y-96932460D01*
X204676493Y-95908839D02*
X204595681Y-95935777D01*
X204595681Y-95935777D02*
X204514869Y-96016589D01*
X204514869Y-96016589D02*
X204460994Y-96124339D01*
X204460994Y-96124339D02*
X204460994Y-96232088D01*
X204460994Y-96232088D02*
X204487932Y-96312900D01*
X204487932Y-96312900D02*
X204568744Y-96447587D01*
X204568744Y-96447587D02*
X204649556Y-96528400D01*
X204649556Y-96528400D02*
X204784243Y-96609212D01*
X204784243Y-96609212D02*
X204865055Y-96636149D01*
X204865055Y-96636149D02*
X204972805Y-96636149D01*
X204972805Y-96636149D02*
X205080554Y-96582274D01*
X205080554Y-96582274D02*
X205134429Y-96528400D01*
X205134429Y-96528400D02*
X205188304Y-96420650D01*
X205188304Y-96420650D02*
X205188304Y-96366775D01*
X205188304Y-96366775D02*
X204999742Y-96178213D01*
X204999742Y-96178213D02*
X204891993Y-96285963D01*
X205484615Y-96178213D02*
X204918930Y-95612528D01*
X204918930Y-95612528D02*
X205807864Y-95854965D01*
X205807864Y-95854965D02*
X205242179Y-95289279D01*
X206077238Y-95585591D02*
X205511553Y-95019905D01*
X205511553Y-95019905D02*
X205646240Y-94885218D01*
X205646240Y-94885218D02*
X205753989Y-94831343D01*
X205753989Y-94831343D02*
X205861739Y-94831343D01*
X205861739Y-94831343D02*
X205942551Y-94858281D01*
X205942551Y-94858281D02*
X206077238Y-94939093D01*
X206077238Y-94939093D02*
X206158050Y-95019905D01*
X206158050Y-95019905D02*
X206238863Y-95154592D01*
X206238863Y-95154592D02*
X206265800Y-95235405D01*
X206265800Y-95235405D02*
X206265800Y-95343154D01*
X206265800Y-95343154D02*
X206211925Y-95450904D01*
X206211925Y-95450904D02*
X206077238Y-95585591D01*
X178580057Y-121551276D02*
X178499245Y-121578213D01*
X178499245Y-121578213D02*
X178418433Y-121659025D01*
X178418433Y-121659025D02*
X178364558Y-121766775D01*
X178364558Y-121766775D02*
X178364558Y-121874525D01*
X178364558Y-121874525D02*
X178391495Y-121955337D01*
X178391495Y-121955337D02*
X178472307Y-122090024D01*
X178472307Y-122090024D02*
X178553120Y-122170836D01*
X178553120Y-122170836D02*
X178687807Y-122251648D01*
X178687807Y-122251648D02*
X178768619Y-122278586D01*
X178768619Y-122278586D02*
X178876368Y-122278586D01*
X178876368Y-122278586D02*
X178984118Y-122224711D01*
X178984118Y-122224711D02*
X179037993Y-122170836D01*
X179037993Y-122170836D02*
X179091868Y-122063086D01*
X179091868Y-122063086D02*
X179091868Y-122009212D01*
X179091868Y-122009212D02*
X178903306Y-121820650D01*
X178903306Y-121820650D02*
X178795556Y-121928399D01*
X179388179Y-121820650D02*
X178822494Y-121254964D01*
X178822494Y-121254964D02*
X179711428Y-121497401D01*
X179711428Y-121497401D02*
X179145742Y-120931716D01*
X179980802Y-121228027D02*
X179415116Y-120662342D01*
X179415116Y-120662342D02*
X179549803Y-120527655D01*
X179549803Y-120527655D02*
X179657553Y-120473780D01*
X179657553Y-120473780D02*
X179765302Y-120473780D01*
X179765302Y-120473780D02*
X179846115Y-120500717D01*
X179846115Y-120500717D02*
X179980802Y-120581530D01*
X179980802Y-120581530D02*
X180061614Y-120662342D01*
X180061614Y-120662342D02*
X180142426Y-120797029D01*
X180142426Y-120797029D02*
X180169363Y-120877841D01*
X180169363Y-120877841D02*
X180169363Y-120985591D01*
X180169363Y-120985591D02*
X180115489Y-121093340D01*
X180115489Y-121093340D02*
X179980802Y-121228027D01*
X178083620Y-126873713D02*
X178002807Y-126900650D01*
X178002807Y-126900650D02*
X177921995Y-126981463D01*
X177921995Y-126981463D02*
X177868120Y-127089212D01*
X177868120Y-127089212D02*
X177868120Y-127196962D01*
X177868120Y-127196962D02*
X177895058Y-127277774D01*
X177895058Y-127277774D02*
X177975870Y-127412461D01*
X177975870Y-127412461D02*
X178056682Y-127493273D01*
X178056682Y-127493273D02*
X178191369Y-127574086D01*
X178191369Y-127574086D02*
X178272182Y-127601023D01*
X178272182Y-127601023D02*
X178379931Y-127601023D01*
X178379931Y-127601023D02*
X178487681Y-127547148D01*
X178487681Y-127547148D02*
X178541556Y-127493273D01*
X178541556Y-127493273D02*
X178595430Y-127385524D01*
X178595430Y-127385524D02*
X178595430Y-127331649D01*
X178595430Y-127331649D02*
X178406869Y-127143087D01*
X178406869Y-127143087D02*
X178299119Y-127250837D01*
X178891742Y-127143087D02*
X178326056Y-126577402D01*
X178326056Y-126577402D02*
X178541556Y-126361902D01*
X178541556Y-126361902D02*
X178622368Y-126334965D01*
X178622368Y-126334965D02*
X178676243Y-126334965D01*
X178676243Y-126334965D02*
X178757055Y-126361902D01*
X178757055Y-126361902D02*
X178837867Y-126442715D01*
X178837867Y-126442715D02*
X178864804Y-126523527D01*
X178864804Y-126523527D02*
X178864804Y-126577402D01*
X178864804Y-126577402D02*
X178837867Y-126658214D01*
X178837867Y-126658214D02*
X178622368Y-126873713D01*
X179753739Y-126281090D02*
X179430490Y-126604339D01*
X179592114Y-126442715D02*
X179026429Y-125877029D01*
X179026429Y-125877029D02*
X179053366Y-126011716D01*
X179053366Y-126011716D02*
X179053366Y-126119466D01*
X179053366Y-126119466D02*
X179026429Y-126200278D01*
X179699864Y-125203594D02*
X179430490Y-125472968D01*
X179430490Y-125472968D02*
X179672927Y-125769279D01*
X179672927Y-125769279D02*
X179672927Y-125715405D01*
X179672927Y-125715405D02*
X179699864Y-125634592D01*
X179699864Y-125634592D02*
X179834551Y-125499905D01*
X179834551Y-125499905D02*
X179915363Y-125472968D01*
X179915363Y-125472968D02*
X179969238Y-125472968D01*
X179969238Y-125472968D02*
X180050050Y-125499905D01*
X180050050Y-125499905D02*
X180184737Y-125634592D01*
X180184737Y-125634592D02*
X180211675Y-125715405D01*
X180211675Y-125715405D02*
X180211675Y-125769279D01*
X180211675Y-125769279D02*
X180184737Y-125850092D01*
X180184737Y-125850092D02*
X180050050Y-125984779D01*
X180050050Y-125984779D02*
X179969238Y-126011716D01*
X179969238Y-126011716D02*
X179915363Y-126011716D01*
X204932273Y-104296555D02*
X204474338Y-104215743D01*
X204609025Y-104619804D02*
X204043339Y-104054119D01*
X204043339Y-104054119D02*
X204258838Y-103838620D01*
X204258838Y-103838620D02*
X204339651Y-103811682D01*
X204339651Y-103811682D02*
X204393525Y-103811682D01*
X204393525Y-103811682D02*
X204474338Y-103838620D01*
X204474338Y-103838620D02*
X204555150Y-103919432D01*
X204555150Y-103919432D02*
X204582087Y-104000244D01*
X204582087Y-104000244D02*
X204582087Y-104054119D01*
X204582087Y-104054119D02*
X204555150Y-104134931D01*
X204555150Y-104134931D02*
X204339651Y-104350430D01*
X204609025Y-103488433D02*
X205066960Y-103946369D01*
X205066960Y-103946369D02*
X205147773Y-103973307D01*
X205147773Y-103973307D02*
X205201647Y-103973307D01*
X205201647Y-103973307D02*
X205282460Y-103946369D01*
X205282460Y-103946369D02*
X205390209Y-103838620D01*
X205390209Y-103838620D02*
X205417147Y-103757807D01*
X205417147Y-103757807D02*
X205417147Y-103703933D01*
X205417147Y-103703933D02*
X205390209Y-103623120D01*
X205390209Y-103623120D02*
X204932273Y-103165185D01*
X205767333Y-103461496D02*
X205201647Y-102895811D01*
X205201647Y-102895811D02*
X206090581Y-103138247D01*
X206090581Y-103138247D02*
X205524896Y-102572562D01*
X178606994Y-98664339D02*
X178526182Y-98691276D01*
X178526182Y-98691276D02*
X178445370Y-98772088D01*
X178445370Y-98772088D02*
X178391495Y-98879838D01*
X178391495Y-98879838D02*
X178391495Y-98987587D01*
X178391495Y-98987587D02*
X178418432Y-99068400D01*
X178418432Y-99068400D02*
X178499245Y-99203087D01*
X178499245Y-99203087D02*
X178580057Y-99283899D01*
X178580057Y-99283899D02*
X178714744Y-99364711D01*
X178714744Y-99364711D02*
X178795556Y-99391648D01*
X178795556Y-99391648D02*
X178903306Y-99391648D01*
X178903306Y-99391648D02*
X179011055Y-99337774D01*
X179011055Y-99337774D02*
X179064930Y-99283899D01*
X179064930Y-99283899D02*
X179118805Y-99176149D01*
X179118805Y-99176149D02*
X179118805Y-99122274D01*
X179118805Y-99122274D02*
X178930243Y-98933713D01*
X178930243Y-98933713D02*
X178822493Y-99041462D01*
X179415116Y-98933713D02*
X178849431Y-98368027D01*
X178849431Y-98368027D02*
X179064930Y-98152528D01*
X179064930Y-98152528D02*
X179145742Y-98125591D01*
X179145742Y-98125591D02*
X179199617Y-98125591D01*
X179199617Y-98125591D02*
X179280429Y-98152528D01*
X179280429Y-98152528D02*
X179361241Y-98233340D01*
X179361241Y-98233340D02*
X179388179Y-98314152D01*
X179388179Y-98314152D02*
X179388179Y-98368027D01*
X179388179Y-98368027D02*
X179361241Y-98448839D01*
X179361241Y-98448839D02*
X179145742Y-98664339D01*
X179657553Y-97559905D02*
X179549803Y-97667655D01*
X179549803Y-97667655D02*
X179522866Y-97748467D01*
X179522866Y-97748467D02*
X179522866Y-97802342D01*
X179522866Y-97802342D02*
X179549803Y-97937029D01*
X179549803Y-97937029D02*
X179630615Y-98071716D01*
X179630615Y-98071716D02*
X179846115Y-98287215D01*
X179846115Y-98287215D02*
X179926927Y-98314152D01*
X179926927Y-98314152D02*
X179980802Y-98314152D01*
X179980802Y-98314152D02*
X180061614Y-98287215D01*
X180061614Y-98287215D02*
X180169363Y-98179465D01*
X180169363Y-98179465D02*
X180196301Y-98098653D01*
X180196301Y-98098653D02*
X180196301Y-98044778D01*
X180196301Y-98044778D02*
X180169363Y-97963966D01*
X180169363Y-97963966D02*
X180034676Y-97829279D01*
X180034676Y-97829279D02*
X179953864Y-97802342D01*
X179953864Y-97802342D02*
X179899989Y-97802342D01*
X179899989Y-97802342D02*
X179819177Y-97829279D01*
X179819177Y-97829279D02*
X179711428Y-97937029D01*
X179711428Y-97937029D02*
X179684490Y-98017841D01*
X179684490Y-98017841D02*
X179684490Y-98071716D01*
X179684490Y-98071716D02*
X179711428Y-98152528D01*
X203983745Y-88843713D02*
X204333931Y-88493527D01*
X204333931Y-88493527D02*
X204360869Y-88897588D01*
X204360869Y-88897588D02*
X204441681Y-88816776D01*
X204441681Y-88816776D02*
X204522493Y-88789838D01*
X204522493Y-88789838D02*
X204576368Y-88789838D01*
X204576368Y-88789838D02*
X204657180Y-88816776D01*
X204657180Y-88816776D02*
X204791867Y-88951463D01*
X204791867Y-88951463D02*
X204818804Y-89032275D01*
X204818804Y-89032275D02*
X204818804Y-89086150D01*
X204818804Y-89086150D02*
X204791867Y-89166962D01*
X204791867Y-89166962D02*
X204630243Y-89328586D01*
X204630243Y-89328586D02*
X204549430Y-89355524D01*
X204549430Y-89355524D02*
X204495556Y-89355524D01*
X204495556Y-88331902D02*
X205249803Y-88709026D01*
X205249803Y-88709026D02*
X204872679Y-87954779D01*
X205007366Y-87820092D02*
X205357552Y-87469906D01*
X205357552Y-87469906D02*
X205384490Y-87873967D01*
X205384490Y-87873967D02*
X205465302Y-87793154D01*
X205465302Y-87793154D02*
X205546114Y-87766217D01*
X205546114Y-87766217D02*
X205599989Y-87766217D01*
X205599989Y-87766217D02*
X205680801Y-87793154D01*
X205680801Y-87793154D02*
X205815488Y-87927841D01*
X205815488Y-87927841D02*
X205842426Y-88008654D01*
X205842426Y-88008654D02*
X205842426Y-88062528D01*
X205842426Y-88062528D02*
X205815488Y-88143341D01*
X205815488Y-88143341D02*
X205653864Y-88304965D01*
X205653864Y-88304965D02*
X205573052Y-88331902D01*
X205573052Y-88331902D02*
X205519177Y-88331902D01*
X178606994Y-103744339D02*
X178526182Y-103771276D01*
X178526182Y-103771276D02*
X178445370Y-103852088D01*
X178445370Y-103852088D02*
X178391495Y-103959838D01*
X178391495Y-103959838D02*
X178391495Y-104067587D01*
X178391495Y-104067587D02*
X178418432Y-104148400D01*
X178418432Y-104148400D02*
X178499245Y-104283087D01*
X178499245Y-104283087D02*
X178580057Y-104363899D01*
X178580057Y-104363899D02*
X178714744Y-104444711D01*
X178714744Y-104444711D02*
X178795556Y-104471648D01*
X178795556Y-104471648D02*
X178903306Y-104471648D01*
X178903306Y-104471648D02*
X179011055Y-104417774D01*
X179011055Y-104417774D02*
X179064930Y-104363899D01*
X179064930Y-104363899D02*
X179118805Y-104256149D01*
X179118805Y-104256149D02*
X179118805Y-104202274D01*
X179118805Y-104202274D02*
X178930243Y-104013713D01*
X178930243Y-104013713D02*
X178822493Y-104121462D01*
X179415116Y-104013713D02*
X178849431Y-103448027D01*
X178849431Y-103448027D02*
X179064930Y-103232528D01*
X179064930Y-103232528D02*
X179145742Y-103205591D01*
X179145742Y-103205591D02*
X179199617Y-103205591D01*
X179199617Y-103205591D02*
X179280429Y-103232528D01*
X179280429Y-103232528D02*
X179361241Y-103313340D01*
X179361241Y-103313340D02*
X179388179Y-103394152D01*
X179388179Y-103394152D02*
X179388179Y-103448027D01*
X179388179Y-103448027D02*
X179361241Y-103528839D01*
X179361241Y-103528839D02*
X179145742Y-103744339D01*
X179738365Y-103043966D02*
X179657553Y-103070904D01*
X179657553Y-103070904D02*
X179603678Y-103070904D01*
X179603678Y-103070904D02*
X179522866Y-103043966D01*
X179522866Y-103043966D02*
X179495928Y-103017029D01*
X179495928Y-103017029D02*
X179468991Y-102936217D01*
X179468991Y-102936217D02*
X179468991Y-102882342D01*
X179468991Y-102882342D02*
X179495928Y-102801530D01*
X179495928Y-102801530D02*
X179603678Y-102693780D01*
X179603678Y-102693780D02*
X179684490Y-102666843D01*
X179684490Y-102666843D02*
X179738365Y-102666843D01*
X179738365Y-102666843D02*
X179819177Y-102693780D01*
X179819177Y-102693780D02*
X179846115Y-102720717D01*
X179846115Y-102720717D02*
X179873052Y-102801530D01*
X179873052Y-102801530D02*
X179873052Y-102855404D01*
X179873052Y-102855404D02*
X179846115Y-102936217D01*
X179846115Y-102936217D02*
X179738365Y-103043966D01*
X179738365Y-103043966D02*
X179711428Y-103124778D01*
X179711428Y-103124778D02*
X179711428Y-103178653D01*
X179711428Y-103178653D02*
X179738365Y-103259465D01*
X179738365Y-103259465D02*
X179846115Y-103367215D01*
X179846115Y-103367215D02*
X179926927Y-103394152D01*
X179926927Y-103394152D02*
X179980802Y-103394152D01*
X179980802Y-103394152D02*
X180061614Y-103367215D01*
X180061614Y-103367215D02*
X180169363Y-103259465D01*
X180169363Y-103259465D02*
X180196301Y-103178653D01*
X180196301Y-103178653D02*
X180196301Y-103124778D01*
X180196301Y-103124778D02*
X180169363Y-103043966D01*
X180169363Y-103043966D02*
X180061614Y-102936217D01*
X180061614Y-102936217D02*
X179980802Y-102909279D01*
X179980802Y-102909279D02*
X179926927Y-102909279D01*
X179926927Y-102909279D02*
X179846115Y-102936217D01*
X204016029Y-86311429D02*
X204366215Y-85961243D01*
X204366215Y-85961243D02*
X204393153Y-86365304D01*
X204393153Y-86365304D02*
X204473965Y-86284491D01*
X204473965Y-86284491D02*
X204554777Y-86257554D01*
X204554777Y-86257554D02*
X204608652Y-86257554D01*
X204608652Y-86257554D02*
X204689464Y-86284491D01*
X204689464Y-86284491D02*
X204824151Y-86419178D01*
X204824151Y-86419178D02*
X204851089Y-86499991D01*
X204851089Y-86499991D02*
X204851089Y-86553865D01*
X204851089Y-86553865D02*
X204824151Y-86634678D01*
X204824151Y-86634678D02*
X204662527Y-86796302D01*
X204662527Y-86796302D02*
X204581715Y-86823239D01*
X204581715Y-86823239D02*
X204527840Y-86823239D01*
X204527840Y-85799618D02*
X205282087Y-86176742D01*
X205282087Y-86176742D02*
X204904964Y-85422494D01*
X205039650Y-85287808D02*
X205389837Y-84937621D01*
X205389837Y-84937621D02*
X205416774Y-85341682D01*
X205416774Y-85341682D02*
X205497586Y-85260870D01*
X205497586Y-85260870D02*
X205578398Y-85233933D01*
X205578398Y-85233933D02*
X205632273Y-85233933D01*
X205632273Y-85233933D02*
X205713086Y-85260870D01*
X205713086Y-85260870D02*
X205847773Y-85395557D01*
X205847773Y-85395557D02*
X205874710Y-85476369D01*
X205874710Y-85476369D02*
X205874710Y-85530244D01*
X205874710Y-85530244D02*
X205847773Y-85611056D01*
X205847773Y-85611056D02*
X205686148Y-85772681D01*
X205686148Y-85772681D02*
X205605336Y-85799618D01*
X205605336Y-85799618D02*
X205551461Y-85799618D01*
X206117147Y-85449432D02*
X206548145Y-85018433D01*
X206332646Y-84533560D02*
X206521208Y-84344998D01*
X206898331Y-84560497D02*
X206628957Y-84829871D01*
X206628957Y-84829871D02*
X206063272Y-84264186D01*
X206063272Y-84264186D02*
X206332646Y-83994812D01*
X207140768Y-84318060D02*
X206575083Y-83752375D01*
X206575083Y-83752375D02*
X207464017Y-83994812D01*
X207464017Y-83994812D02*
X206898332Y-83429126D01*
X204191620Y-111643713D02*
X204110807Y-111670650D01*
X204110807Y-111670650D02*
X204029995Y-111751463D01*
X204029995Y-111751463D02*
X203976120Y-111859212D01*
X203976120Y-111859212D02*
X203976120Y-111966962D01*
X203976120Y-111966962D02*
X204003058Y-112047774D01*
X204003058Y-112047774D02*
X204083870Y-112182461D01*
X204083870Y-112182461D02*
X204164682Y-112263273D01*
X204164682Y-112263273D02*
X204299369Y-112344086D01*
X204299369Y-112344086D02*
X204380182Y-112371023D01*
X204380182Y-112371023D02*
X204487931Y-112371023D01*
X204487931Y-112371023D02*
X204595681Y-112317148D01*
X204595681Y-112317148D02*
X204649556Y-112263273D01*
X204649556Y-112263273D02*
X204703430Y-112155524D01*
X204703430Y-112155524D02*
X204703430Y-112101649D01*
X204703430Y-112101649D02*
X204514869Y-111913087D01*
X204514869Y-111913087D02*
X204407119Y-112020837D01*
X204999742Y-111913087D02*
X204434056Y-111347402D01*
X204434056Y-111347402D02*
X204649556Y-111131902D01*
X204649556Y-111131902D02*
X204730368Y-111104965D01*
X204730368Y-111104965D02*
X204784243Y-111104965D01*
X204784243Y-111104965D02*
X204865055Y-111131902D01*
X204865055Y-111131902D02*
X204945867Y-111212715D01*
X204945867Y-111212715D02*
X204972804Y-111293527D01*
X204972804Y-111293527D02*
X204972804Y-111347402D01*
X204972804Y-111347402D02*
X204945867Y-111428214D01*
X204945867Y-111428214D02*
X204730368Y-111643713D01*
X205026679Y-110862528D02*
X205026679Y-110808654D01*
X205026679Y-110808654D02*
X205053617Y-110727841D01*
X205053617Y-110727841D02*
X205188304Y-110593154D01*
X205188304Y-110593154D02*
X205269116Y-110566217D01*
X205269116Y-110566217D02*
X205322991Y-110566217D01*
X205322991Y-110566217D02*
X205403803Y-110593154D01*
X205403803Y-110593154D02*
X205457678Y-110647029D01*
X205457678Y-110647029D02*
X205511552Y-110754779D01*
X205511552Y-110754779D02*
X205511552Y-111401276D01*
X205511552Y-111401276D02*
X205861739Y-111051090D01*
X206400487Y-110512342D02*
X206077238Y-110835591D01*
X206238862Y-110673966D02*
X205673177Y-110108281D01*
X205673177Y-110108281D02*
X205700114Y-110242968D01*
X205700114Y-110242968D02*
X205700114Y-110350718D01*
X205700114Y-110350718D02*
X205673177Y-110431530D01*
X178606994Y-91044339D02*
X178526182Y-91071276D01*
X178526182Y-91071276D02*
X178445370Y-91152088D01*
X178445370Y-91152088D02*
X178391495Y-91259838D01*
X178391495Y-91259838D02*
X178391495Y-91367587D01*
X178391495Y-91367587D02*
X178418432Y-91448400D01*
X178418432Y-91448400D02*
X178499245Y-91583087D01*
X178499245Y-91583087D02*
X178580057Y-91663899D01*
X178580057Y-91663899D02*
X178714744Y-91744711D01*
X178714744Y-91744711D02*
X178795556Y-91771648D01*
X178795556Y-91771648D02*
X178903306Y-91771648D01*
X178903306Y-91771648D02*
X179011055Y-91717774D01*
X179011055Y-91717774D02*
X179064930Y-91663899D01*
X179064930Y-91663899D02*
X179118805Y-91556149D01*
X179118805Y-91556149D02*
X179118805Y-91502274D01*
X179118805Y-91502274D02*
X178930243Y-91313713D01*
X178930243Y-91313713D02*
X178822493Y-91421462D01*
X179415116Y-91313713D02*
X178849431Y-90748027D01*
X178849431Y-90748027D02*
X179064930Y-90532528D01*
X179064930Y-90532528D02*
X179145742Y-90505591D01*
X179145742Y-90505591D02*
X179199617Y-90505591D01*
X179199617Y-90505591D02*
X179280429Y-90532528D01*
X179280429Y-90532528D02*
X179361241Y-90613340D01*
X179361241Y-90613340D02*
X179388179Y-90694152D01*
X179388179Y-90694152D02*
X179388179Y-90748027D01*
X179388179Y-90748027D02*
X179361241Y-90828839D01*
X179361241Y-90828839D02*
X179145742Y-91044339D01*
X179846115Y-90128467D02*
X180223238Y-90505591D01*
X179495928Y-90047655D02*
X179765302Y-90586403D01*
X179765302Y-90586403D02*
X180115489Y-90236217D01*
X178606994Y-106284339D02*
X178526182Y-106311276D01*
X178526182Y-106311276D02*
X178445370Y-106392088D01*
X178445370Y-106392088D02*
X178391495Y-106499838D01*
X178391495Y-106499838D02*
X178391495Y-106607587D01*
X178391495Y-106607587D02*
X178418432Y-106688400D01*
X178418432Y-106688400D02*
X178499245Y-106823087D01*
X178499245Y-106823087D02*
X178580057Y-106903899D01*
X178580057Y-106903899D02*
X178714744Y-106984711D01*
X178714744Y-106984711D02*
X178795556Y-107011648D01*
X178795556Y-107011648D02*
X178903306Y-107011648D01*
X178903306Y-107011648D02*
X179011055Y-106957774D01*
X179011055Y-106957774D02*
X179064930Y-106903899D01*
X179064930Y-106903899D02*
X179118805Y-106796149D01*
X179118805Y-106796149D02*
X179118805Y-106742274D01*
X179118805Y-106742274D02*
X178930243Y-106553713D01*
X178930243Y-106553713D02*
X178822493Y-106661462D01*
X179415116Y-106553713D02*
X178849431Y-105988027D01*
X178849431Y-105988027D02*
X179064930Y-105772528D01*
X179064930Y-105772528D02*
X179145742Y-105745591D01*
X179145742Y-105745591D02*
X179199617Y-105745591D01*
X179199617Y-105745591D02*
X179280429Y-105772528D01*
X179280429Y-105772528D02*
X179361241Y-105853340D01*
X179361241Y-105853340D02*
X179388179Y-105934152D01*
X179388179Y-105934152D02*
X179388179Y-105988027D01*
X179388179Y-105988027D02*
X179361241Y-106068839D01*
X179361241Y-106068839D02*
X179145742Y-106284339D01*
X180007739Y-105961090D02*
X180115489Y-105853340D01*
X180115489Y-105853340D02*
X180142426Y-105772528D01*
X180142426Y-105772528D02*
X180142426Y-105718653D01*
X180142426Y-105718653D02*
X180115489Y-105583966D01*
X180115489Y-105583966D02*
X180034676Y-105449279D01*
X180034676Y-105449279D02*
X179819177Y-105233780D01*
X179819177Y-105233780D02*
X179738365Y-105206843D01*
X179738365Y-105206843D02*
X179684490Y-105206843D01*
X179684490Y-105206843D02*
X179603678Y-105233780D01*
X179603678Y-105233780D02*
X179495928Y-105341530D01*
X179495928Y-105341530D02*
X179468991Y-105422342D01*
X179468991Y-105422342D02*
X179468991Y-105476217D01*
X179468991Y-105476217D02*
X179495928Y-105557029D01*
X179495928Y-105557029D02*
X179630615Y-105691716D01*
X179630615Y-105691716D02*
X179711428Y-105718653D01*
X179711428Y-105718653D02*
X179765302Y-105718653D01*
X179765302Y-105718653D02*
X179846115Y-105691716D01*
X179846115Y-105691716D02*
X179953864Y-105583966D01*
X179953864Y-105583966D02*
X179980802Y-105503154D01*
X179980802Y-105503154D02*
X179980802Y-105449279D01*
X179980802Y-105449279D02*
X179953864Y-105368467D01*
X178083620Y-119253713D02*
X178002807Y-119280650D01*
X178002807Y-119280650D02*
X177921995Y-119361463D01*
X177921995Y-119361463D02*
X177868120Y-119469212D01*
X177868120Y-119469212D02*
X177868120Y-119576962D01*
X177868120Y-119576962D02*
X177895058Y-119657774D01*
X177895058Y-119657774D02*
X177975870Y-119792461D01*
X177975870Y-119792461D02*
X178056682Y-119873273D01*
X178056682Y-119873273D02*
X178191369Y-119954086D01*
X178191369Y-119954086D02*
X178272182Y-119981023D01*
X178272182Y-119981023D02*
X178379931Y-119981023D01*
X178379931Y-119981023D02*
X178487681Y-119927148D01*
X178487681Y-119927148D02*
X178541556Y-119873273D01*
X178541556Y-119873273D02*
X178595430Y-119765524D01*
X178595430Y-119765524D02*
X178595430Y-119711649D01*
X178595430Y-119711649D02*
X178406869Y-119523087D01*
X178406869Y-119523087D02*
X178299119Y-119630837D01*
X178891742Y-119523087D02*
X178326056Y-118957402D01*
X178326056Y-118957402D02*
X178541556Y-118741902D01*
X178541556Y-118741902D02*
X178622368Y-118714965D01*
X178622368Y-118714965D02*
X178676243Y-118714965D01*
X178676243Y-118714965D02*
X178757055Y-118741902D01*
X178757055Y-118741902D02*
X178837867Y-118822715D01*
X178837867Y-118822715D02*
X178864804Y-118903527D01*
X178864804Y-118903527D02*
X178864804Y-118957402D01*
X178864804Y-118957402D02*
X178837867Y-119038214D01*
X178837867Y-119038214D02*
X178622368Y-119253713D01*
X179753739Y-118661090D02*
X179430490Y-118984339D01*
X179592114Y-118822715D02*
X179026429Y-118257029D01*
X179026429Y-118257029D02*
X179053366Y-118391716D01*
X179053366Y-118391716D02*
X179053366Y-118499466D01*
X179053366Y-118499466D02*
X179026429Y-118580278D01*
X179376615Y-117906843D02*
X179726801Y-117556657D01*
X179726801Y-117556657D02*
X179753739Y-117960718D01*
X179753739Y-117960718D02*
X179834551Y-117879905D01*
X179834551Y-117879905D02*
X179915363Y-117852968D01*
X179915363Y-117852968D02*
X179969238Y-117852968D01*
X179969238Y-117852968D02*
X180050050Y-117879905D01*
X180050050Y-117879905D02*
X180184737Y-118014592D01*
X180184737Y-118014592D02*
X180211675Y-118095405D01*
X180211675Y-118095405D02*
X180211675Y-118149279D01*
X180211675Y-118149279D02*
X180184737Y-118230092D01*
X180184737Y-118230092D02*
X180023113Y-118391716D01*
X180023113Y-118391716D02*
X179942301Y-118418653D01*
X179942301Y-118418653D02*
X179888426Y-118418653D01*
X178083620Y-111633713D02*
X178002807Y-111660650D01*
X178002807Y-111660650D02*
X177921995Y-111741463D01*
X177921995Y-111741463D02*
X177868120Y-111849212D01*
X177868120Y-111849212D02*
X177868120Y-111956962D01*
X177868120Y-111956962D02*
X177895058Y-112037774D01*
X177895058Y-112037774D02*
X177975870Y-112172461D01*
X177975870Y-112172461D02*
X178056682Y-112253273D01*
X178056682Y-112253273D02*
X178191369Y-112334086D01*
X178191369Y-112334086D02*
X178272182Y-112361023D01*
X178272182Y-112361023D02*
X178379931Y-112361023D01*
X178379931Y-112361023D02*
X178487681Y-112307148D01*
X178487681Y-112307148D02*
X178541556Y-112253273D01*
X178541556Y-112253273D02*
X178595430Y-112145524D01*
X178595430Y-112145524D02*
X178595430Y-112091649D01*
X178595430Y-112091649D02*
X178406869Y-111903087D01*
X178406869Y-111903087D02*
X178299119Y-112010837D01*
X178891742Y-111903087D02*
X178326056Y-111337402D01*
X178326056Y-111337402D02*
X178541556Y-111121902D01*
X178541556Y-111121902D02*
X178622368Y-111094965D01*
X178622368Y-111094965D02*
X178676243Y-111094965D01*
X178676243Y-111094965D02*
X178757055Y-111121902D01*
X178757055Y-111121902D02*
X178837867Y-111202715D01*
X178837867Y-111202715D02*
X178864804Y-111283527D01*
X178864804Y-111283527D02*
X178864804Y-111337402D01*
X178864804Y-111337402D02*
X178837867Y-111418214D01*
X178837867Y-111418214D02*
X178622368Y-111633713D01*
X179753739Y-111041090D02*
X179430490Y-111364339D01*
X179592114Y-111202715D02*
X179026429Y-110637029D01*
X179026429Y-110637029D02*
X179053366Y-110771716D01*
X179053366Y-110771716D02*
X179053366Y-110879466D01*
X179053366Y-110879466D02*
X179026429Y-110960278D01*
X179538240Y-110125218D02*
X179592114Y-110071344D01*
X179592114Y-110071344D02*
X179672927Y-110044406D01*
X179672927Y-110044406D02*
X179726801Y-110044406D01*
X179726801Y-110044406D02*
X179807614Y-110071344D01*
X179807614Y-110071344D02*
X179942301Y-110152156D01*
X179942301Y-110152156D02*
X180076988Y-110286843D01*
X180076988Y-110286843D02*
X180157800Y-110421530D01*
X180157800Y-110421530D02*
X180184737Y-110502342D01*
X180184737Y-110502342D02*
X180184737Y-110556217D01*
X180184737Y-110556217D02*
X180157800Y-110637029D01*
X180157800Y-110637029D02*
X180103925Y-110690904D01*
X180103925Y-110690904D02*
X180023113Y-110717841D01*
X180023113Y-110717841D02*
X179969238Y-110717841D01*
X179969238Y-110717841D02*
X179888426Y-110690904D01*
X179888426Y-110690904D02*
X179753739Y-110610092D01*
X179753739Y-110610092D02*
X179619052Y-110475405D01*
X179619052Y-110475405D02*
X179538240Y-110340718D01*
X179538240Y-110340718D02*
X179511302Y-110259905D01*
X179511302Y-110259905D02*
X179511302Y-110206031D01*
X179511302Y-110206031D02*
X179538240Y-110125218D01*
X204180057Y-108851276D02*
X204099245Y-108878213D01*
X204099245Y-108878213D02*
X204018433Y-108959025D01*
X204018433Y-108959025D02*
X203964558Y-109066775D01*
X203964558Y-109066775D02*
X203964558Y-109174525D01*
X203964558Y-109174525D02*
X203991495Y-109255337D01*
X203991495Y-109255337D02*
X204072307Y-109390024D01*
X204072307Y-109390024D02*
X204153120Y-109470836D01*
X204153120Y-109470836D02*
X204287807Y-109551648D01*
X204287807Y-109551648D02*
X204368619Y-109578586D01*
X204368619Y-109578586D02*
X204476368Y-109578586D01*
X204476368Y-109578586D02*
X204584118Y-109524711D01*
X204584118Y-109524711D02*
X204637993Y-109470836D01*
X204637993Y-109470836D02*
X204691868Y-109363086D01*
X204691868Y-109363086D02*
X204691868Y-109309212D01*
X204691868Y-109309212D02*
X204503306Y-109120650D01*
X204503306Y-109120650D02*
X204395556Y-109228399D01*
X204988179Y-109120650D02*
X204422494Y-108554964D01*
X204422494Y-108554964D02*
X205311428Y-108797401D01*
X205311428Y-108797401D02*
X204745742Y-108231716D01*
X205580802Y-108528027D02*
X205015116Y-107962342D01*
X205015116Y-107962342D02*
X205149803Y-107827655D01*
X205149803Y-107827655D02*
X205257553Y-107773780D01*
X205257553Y-107773780D02*
X205365302Y-107773780D01*
X205365302Y-107773780D02*
X205446115Y-107800717D01*
X205446115Y-107800717D02*
X205580802Y-107881530D01*
X205580802Y-107881530D02*
X205661614Y-107962342D01*
X205661614Y-107962342D02*
X205742426Y-108097029D01*
X205742426Y-108097029D02*
X205769363Y-108177841D01*
X205769363Y-108177841D02*
X205769363Y-108285591D01*
X205769363Y-108285591D02*
X205715489Y-108393340D01*
X205715489Y-108393340D02*
X205580802Y-108528027D01*
X204191620Y-106553713D02*
X204110807Y-106580650D01*
X204110807Y-106580650D02*
X204029995Y-106661463D01*
X204029995Y-106661463D02*
X203976120Y-106769212D01*
X203976120Y-106769212D02*
X203976120Y-106876962D01*
X203976120Y-106876962D02*
X204003058Y-106957774D01*
X204003058Y-106957774D02*
X204083870Y-107092461D01*
X204083870Y-107092461D02*
X204164682Y-107173273D01*
X204164682Y-107173273D02*
X204299369Y-107254086D01*
X204299369Y-107254086D02*
X204380182Y-107281023D01*
X204380182Y-107281023D02*
X204487931Y-107281023D01*
X204487931Y-107281023D02*
X204595681Y-107227148D01*
X204595681Y-107227148D02*
X204649556Y-107173273D01*
X204649556Y-107173273D02*
X204703430Y-107065524D01*
X204703430Y-107065524D02*
X204703430Y-107011649D01*
X204703430Y-107011649D02*
X204514869Y-106823087D01*
X204514869Y-106823087D02*
X204407119Y-106930837D01*
X204999742Y-106823087D02*
X204434056Y-106257402D01*
X204434056Y-106257402D02*
X204649556Y-106041902D01*
X204649556Y-106041902D02*
X204730368Y-106014965D01*
X204730368Y-106014965D02*
X204784243Y-106014965D01*
X204784243Y-106014965D02*
X204865055Y-106041902D01*
X204865055Y-106041902D02*
X204945867Y-106122715D01*
X204945867Y-106122715D02*
X204972804Y-106203527D01*
X204972804Y-106203527D02*
X204972804Y-106257402D01*
X204972804Y-106257402D02*
X204945867Y-106338214D01*
X204945867Y-106338214D02*
X204730368Y-106553713D01*
X205026679Y-105772528D02*
X205026679Y-105718654D01*
X205026679Y-105718654D02*
X205053617Y-105637841D01*
X205053617Y-105637841D02*
X205188304Y-105503154D01*
X205188304Y-105503154D02*
X205269116Y-105476217D01*
X205269116Y-105476217D02*
X205322991Y-105476217D01*
X205322991Y-105476217D02*
X205403803Y-105503154D01*
X205403803Y-105503154D02*
X205457678Y-105557029D01*
X205457678Y-105557029D02*
X205511552Y-105664779D01*
X205511552Y-105664779D02*
X205511552Y-106311276D01*
X205511552Y-106311276D02*
X205861739Y-105961090D01*
X205565427Y-105233780D02*
X205565427Y-105179905D01*
X205565427Y-105179905D02*
X205592365Y-105099093D01*
X205592365Y-105099093D02*
X205727052Y-104964406D01*
X205727052Y-104964406D02*
X205807864Y-104937469D01*
X205807864Y-104937469D02*
X205861739Y-104937469D01*
X205861739Y-104937469D02*
X205942551Y-104964406D01*
X205942551Y-104964406D02*
X205996426Y-105018281D01*
X205996426Y-105018281D02*
X206050301Y-105126031D01*
X206050301Y-105126031D02*
X206050301Y-105772528D01*
X206050301Y-105772528D02*
X206400487Y-105422342D01*
X184289697Y-129550245D02*
X184403983Y-129588340D01*
X184403983Y-129588340D02*
X184594459Y-129588340D01*
X184594459Y-129588340D02*
X184670650Y-129550245D01*
X184670650Y-129550245D02*
X184708745Y-129512149D01*
X184708745Y-129512149D02*
X184746840Y-129435959D01*
X184746840Y-129435959D02*
X184746840Y-129359768D01*
X184746840Y-129359768D02*
X184708745Y-129283578D01*
X184708745Y-129283578D02*
X184670650Y-129245483D01*
X184670650Y-129245483D02*
X184594459Y-129207387D01*
X184594459Y-129207387D02*
X184442078Y-129169292D01*
X184442078Y-129169292D02*
X184365888Y-129131197D01*
X184365888Y-129131197D02*
X184327793Y-129093102D01*
X184327793Y-129093102D02*
X184289697Y-129016911D01*
X184289697Y-129016911D02*
X184289697Y-128940721D01*
X184289697Y-128940721D02*
X184327793Y-128864530D01*
X184327793Y-128864530D02*
X184365888Y-128826435D01*
X184365888Y-128826435D02*
X184442078Y-128788340D01*
X184442078Y-128788340D02*
X184632555Y-128788340D01*
X184632555Y-128788340D02*
X184746840Y-128826435D01*
X185013507Y-128788340D02*
X185203983Y-129588340D01*
X185203983Y-129588340D02*
X185356364Y-129016911D01*
X185356364Y-129016911D02*
X185508745Y-129588340D01*
X185508745Y-129588340D02*
X185699222Y-128788340D01*
X186461127Y-129512149D02*
X186423031Y-129550245D01*
X186423031Y-129550245D02*
X186308746Y-129588340D01*
X186308746Y-129588340D02*
X186232555Y-129588340D01*
X186232555Y-129588340D02*
X186118269Y-129550245D01*
X186118269Y-129550245D02*
X186042079Y-129474054D01*
X186042079Y-129474054D02*
X186003984Y-129397864D01*
X186003984Y-129397864D02*
X185965888Y-129245483D01*
X185965888Y-129245483D02*
X185965888Y-129131197D01*
X185965888Y-129131197D02*
X186003984Y-128978816D01*
X186003984Y-128978816D02*
X186042079Y-128902625D01*
X186042079Y-128902625D02*
X186118269Y-128826435D01*
X186118269Y-128826435D02*
X186232555Y-128788340D01*
X186232555Y-128788340D02*
X186308746Y-128788340D01*
X186308746Y-128788340D02*
X186423031Y-128826435D01*
X186423031Y-128826435D02*
X186461127Y-128864530D01*
X187184936Y-129588340D02*
X186803984Y-129588340D01*
X186803984Y-129588340D02*
X186803984Y-128788340D01*
X187451603Y-129588340D02*
X187451603Y-128788340D01*
X187908746Y-129588340D02*
X187565888Y-129131197D01*
X187908746Y-128788340D02*
X187451603Y-129245483D01*
X204191620Y-114173713D02*
X204110807Y-114200650D01*
X204110807Y-114200650D02*
X204029995Y-114281463D01*
X204029995Y-114281463D02*
X203976120Y-114389212D01*
X203976120Y-114389212D02*
X203976120Y-114496962D01*
X203976120Y-114496962D02*
X204003058Y-114577774D01*
X204003058Y-114577774D02*
X204083870Y-114712461D01*
X204083870Y-114712461D02*
X204164682Y-114793273D01*
X204164682Y-114793273D02*
X204299369Y-114874086D01*
X204299369Y-114874086D02*
X204380182Y-114901023D01*
X204380182Y-114901023D02*
X204487931Y-114901023D01*
X204487931Y-114901023D02*
X204595681Y-114847148D01*
X204595681Y-114847148D02*
X204649556Y-114793273D01*
X204649556Y-114793273D02*
X204703430Y-114685524D01*
X204703430Y-114685524D02*
X204703430Y-114631649D01*
X204703430Y-114631649D02*
X204514869Y-114443087D01*
X204514869Y-114443087D02*
X204407119Y-114550837D01*
X204999742Y-114443087D02*
X204434056Y-113877402D01*
X204434056Y-113877402D02*
X204649556Y-113661902D01*
X204649556Y-113661902D02*
X204730368Y-113634965D01*
X204730368Y-113634965D02*
X204784243Y-113634965D01*
X204784243Y-113634965D02*
X204865055Y-113661902D01*
X204865055Y-113661902D02*
X204945867Y-113742715D01*
X204945867Y-113742715D02*
X204972804Y-113823527D01*
X204972804Y-113823527D02*
X204972804Y-113877402D01*
X204972804Y-113877402D02*
X204945867Y-113958214D01*
X204945867Y-113958214D02*
X204730368Y-114173713D01*
X205026679Y-113392528D02*
X205026679Y-113338654D01*
X205026679Y-113338654D02*
X205053617Y-113257841D01*
X205053617Y-113257841D02*
X205188304Y-113123154D01*
X205188304Y-113123154D02*
X205269116Y-113096217D01*
X205269116Y-113096217D02*
X205322991Y-113096217D01*
X205322991Y-113096217D02*
X205403803Y-113123154D01*
X205403803Y-113123154D02*
X205457678Y-113177029D01*
X205457678Y-113177029D02*
X205511552Y-113284779D01*
X205511552Y-113284779D02*
X205511552Y-113931276D01*
X205511552Y-113931276D02*
X205861739Y-113581090D01*
X205646240Y-112665218D02*
X205700114Y-112611344D01*
X205700114Y-112611344D02*
X205780927Y-112584406D01*
X205780927Y-112584406D02*
X205834801Y-112584406D01*
X205834801Y-112584406D02*
X205915614Y-112611344D01*
X205915614Y-112611344D02*
X206050301Y-112692156D01*
X206050301Y-112692156D02*
X206184988Y-112826843D01*
X206184988Y-112826843D02*
X206265800Y-112961530D01*
X206265800Y-112961530D02*
X206292737Y-113042342D01*
X206292737Y-113042342D02*
X206292737Y-113096217D01*
X206292737Y-113096217D02*
X206265800Y-113177029D01*
X206265800Y-113177029D02*
X206211925Y-113230904D01*
X206211925Y-113230904D02*
X206131113Y-113257841D01*
X206131113Y-113257841D02*
X206077238Y-113257841D01*
X206077238Y-113257841D02*
X205996426Y-113230904D01*
X205996426Y-113230904D02*
X205861739Y-113150092D01*
X205861739Y-113150092D02*
X205727052Y-113015405D01*
X205727052Y-113015405D02*
X205646240Y-112880718D01*
X205646240Y-112880718D02*
X205619302Y-112799905D01*
X205619302Y-112799905D02*
X205619302Y-112746031D01*
X205619302Y-112746031D02*
X205646240Y-112665218D01*
X204191620Y-93599713D02*
X204110807Y-93626650D01*
X204110807Y-93626650D02*
X204029995Y-93707463D01*
X204029995Y-93707463D02*
X203976120Y-93815212D01*
X203976120Y-93815212D02*
X203976120Y-93922962D01*
X203976120Y-93922962D02*
X204003058Y-94003774D01*
X204003058Y-94003774D02*
X204083870Y-94138461D01*
X204083870Y-94138461D02*
X204164682Y-94219273D01*
X204164682Y-94219273D02*
X204299369Y-94300086D01*
X204299369Y-94300086D02*
X204380182Y-94327023D01*
X204380182Y-94327023D02*
X204487931Y-94327023D01*
X204487931Y-94327023D02*
X204595681Y-94273148D01*
X204595681Y-94273148D02*
X204649556Y-94219273D01*
X204649556Y-94219273D02*
X204703430Y-94111524D01*
X204703430Y-94111524D02*
X204703430Y-94057649D01*
X204703430Y-94057649D02*
X204514869Y-93869087D01*
X204514869Y-93869087D02*
X204407119Y-93976837D01*
X204999742Y-93869087D02*
X204434056Y-93303402D01*
X204434056Y-93303402D02*
X204649556Y-93087902D01*
X204649556Y-93087902D02*
X204730368Y-93060965D01*
X204730368Y-93060965D02*
X204784243Y-93060965D01*
X204784243Y-93060965D02*
X204865055Y-93087902D01*
X204865055Y-93087902D02*
X204945867Y-93168715D01*
X204945867Y-93168715D02*
X204972804Y-93249527D01*
X204972804Y-93249527D02*
X204972804Y-93303402D01*
X204972804Y-93303402D02*
X204945867Y-93384214D01*
X204945867Y-93384214D02*
X204730368Y-93599713D01*
X205026679Y-92818528D02*
X205026679Y-92764654D01*
X205026679Y-92764654D02*
X205053617Y-92683841D01*
X205053617Y-92683841D02*
X205188304Y-92549154D01*
X205188304Y-92549154D02*
X205269116Y-92522217D01*
X205269116Y-92522217D02*
X205322991Y-92522217D01*
X205322991Y-92522217D02*
X205403803Y-92549154D01*
X205403803Y-92549154D02*
X205457678Y-92603029D01*
X205457678Y-92603029D02*
X205511552Y-92710779D01*
X205511552Y-92710779D02*
X205511552Y-93357276D01*
X205511552Y-93357276D02*
X205861739Y-93007090D01*
X205861739Y-92360592D02*
X205780927Y-92387530D01*
X205780927Y-92387530D02*
X205727052Y-92387530D01*
X205727052Y-92387530D02*
X205646240Y-92360592D01*
X205646240Y-92360592D02*
X205619302Y-92333655D01*
X205619302Y-92333655D02*
X205592365Y-92252843D01*
X205592365Y-92252843D02*
X205592365Y-92198968D01*
X205592365Y-92198968D02*
X205619302Y-92118156D01*
X205619302Y-92118156D02*
X205727052Y-92010406D01*
X205727052Y-92010406D02*
X205807864Y-91983469D01*
X205807864Y-91983469D02*
X205861739Y-91983469D01*
X205861739Y-91983469D02*
X205942551Y-92010406D01*
X205942551Y-92010406D02*
X205969488Y-92037344D01*
X205969488Y-92037344D02*
X205996426Y-92118156D01*
X205996426Y-92118156D02*
X205996426Y-92172031D01*
X205996426Y-92172031D02*
X205969488Y-92252843D01*
X205969488Y-92252843D02*
X205861739Y-92360592D01*
X205861739Y-92360592D02*
X205834801Y-92441405D01*
X205834801Y-92441405D02*
X205834801Y-92495279D01*
X205834801Y-92495279D02*
X205861739Y-92576092D01*
X205861739Y-92576092D02*
X205969488Y-92683841D01*
X205969488Y-92683841D02*
X206050301Y-92710779D01*
X206050301Y-92710779D02*
X206104175Y-92710779D01*
X206104175Y-92710779D02*
X206184988Y-92683841D01*
X206184988Y-92683841D02*
X206292737Y-92576092D01*
X206292737Y-92576092D02*
X206319675Y-92495279D01*
X206319675Y-92495279D02*
X206319675Y-92441405D01*
X206319675Y-92441405D02*
X206292737Y-92360592D01*
X206292737Y-92360592D02*
X206184988Y-92252843D01*
X206184988Y-92252843D02*
X206104175Y-92225905D01*
X206104175Y-92225905D02*
X206050301Y-92225905D01*
X206050301Y-92225905D02*
X205969488Y-92252843D01*
X204191620Y-126873713D02*
X204110807Y-126900650D01*
X204110807Y-126900650D02*
X204029995Y-126981463D01*
X204029995Y-126981463D02*
X203976120Y-127089212D01*
X203976120Y-127089212D02*
X203976120Y-127196962D01*
X203976120Y-127196962D02*
X204003058Y-127277774D01*
X204003058Y-127277774D02*
X204083870Y-127412461D01*
X204083870Y-127412461D02*
X204164682Y-127493273D01*
X204164682Y-127493273D02*
X204299369Y-127574086D01*
X204299369Y-127574086D02*
X204380182Y-127601023D01*
X204380182Y-127601023D02*
X204487931Y-127601023D01*
X204487931Y-127601023D02*
X204595681Y-127547148D01*
X204595681Y-127547148D02*
X204649556Y-127493273D01*
X204649556Y-127493273D02*
X204703430Y-127385524D01*
X204703430Y-127385524D02*
X204703430Y-127331649D01*
X204703430Y-127331649D02*
X204514869Y-127143087D01*
X204514869Y-127143087D02*
X204407119Y-127250837D01*
X204999742Y-127143087D02*
X204434056Y-126577402D01*
X204434056Y-126577402D02*
X204649556Y-126361902D01*
X204649556Y-126361902D02*
X204730368Y-126334965D01*
X204730368Y-126334965D02*
X204784243Y-126334965D01*
X204784243Y-126334965D02*
X204865055Y-126361902D01*
X204865055Y-126361902D02*
X204945867Y-126442715D01*
X204945867Y-126442715D02*
X204972804Y-126523527D01*
X204972804Y-126523527D02*
X204972804Y-126577402D01*
X204972804Y-126577402D02*
X204945867Y-126658214D01*
X204945867Y-126658214D02*
X204730368Y-126873713D01*
X205861739Y-126281090D02*
X205538490Y-126604339D01*
X205700114Y-126442715D02*
X205134429Y-125877029D01*
X205134429Y-125877029D02*
X205161366Y-126011716D01*
X205161366Y-126011716D02*
X205161366Y-126119466D01*
X205161366Y-126119466D02*
X205134429Y-126200278D01*
X205780927Y-125230531D02*
X205673177Y-125338281D01*
X205673177Y-125338281D02*
X205646240Y-125419093D01*
X205646240Y-125419093D02*
X205646240Y-125472968D01*
X205646240Y-125472968D02*
X205673177Y-125607655D01*
X205673177Y-125607655D02*
X205753989Y-125742342D01*
X205753989Y-125742342D02*
X205969488Y-125957841D01*
X205969488Y-125957841D02*
X206050301Y-125984779D01*
X206050301Y-125984779D02*
X206104175Y-125984779D01*
X206104175Y-125984779D02*
X206184988Y-125957841D01*
X206184988Y-125957841D02*
X206292737Y-125850092D01*
X206292737Y-125850092D02*
X206319675Y-125769279D01*
X206319675Y-125769279D02*
X206319675Y-125715405D01*
X206319675Y-125715405D02*
X206292737Y-125634592D01*
X206292737Y-125634592D02*
X206158050Y-125499905D01*
X206158050Y-125499905D02*
X206077238Y-125472968D01*
X206077238Y-125472968D02*
X206023363Y-125472968D01*
X206023363Y-125472968D02*
X205942551Y-125499905D01*
X205942551Y-125499905D02*
X205834801Y-125607655D01*
X205834801Y-125607655D02*
X205807864Y-125688467D01*
X205807864Y-125688467D02*
X205807864Y-125742342D01*
X205807864Y-125742342D02*
X205834801Y-125823154D01*
X204180057Y-83451276D02*
X204099245Y-83478213D01*
X204099245Y-83478213D02*
X204018433Y-83559025D01*
X204018433Y-83559025D02*
X203964558Y-83666775D01*
X203964558Y-83666775D02*
X203964558Y-83774525D01*
X203964558Y-83774525D02*
X203991495Y-83855337D01*
X203991495Y-83855337D02*
X204072307Y-83990024D01*
X204072307Y-83990024D02*
X204153120Y-84070836D01*
X204153120Y-84070836D02*
X204287807Y-84151648D01*
X204287807Y-84151648D02*
X204368619Y-84178586D01*
X204368619Y-84178586D02*
X204476368Y-84178586D01*
X204476368Y-84178586D02*
X204584118Y-84124711D01*
X204584118Y-84124711D02*
X204637993Y-84070836D01*
X204637993Y-84070836D02*
X204691868Y-83963086D01*
X204691868Y-83963086D02*
X204691868Y-83909212D01*
X204691868Y-83909212D02*
X204503306Y-83720650D01*
X204503306Y-83720650D02*
X204395556Y-83828399D01*
X204988179Y-83720650D02*
X204422494Y-83154964D01*
X204422494Y-83154964D02*
X205311428Y-83397401D01*
X205311428Y-83397401D02*
X204745742Y-82831716D01*
X205580802Y-83128027D02*
X205015116Y-82562342D01*
X205015116Y-82562342D02*
X205149803Y-82427655D01*
X205149803Y-82427655D02*
X205257553Y-82373780D01*
X205257553Y-82373780D02*
X205365302Y-82373780D01*
X205365302Y-82373780D02*
X205446115Y-82400717D01*
X205446115Y-82400717D02*
X205580802Y-82481530D01*
X205580802Y-82481530D02*
X205661614Y-82562342D01*
X205661614Y-82562342D02*
X205742426Y-82697029D01*
X205742426Y-82697029D02*
X205769363Y-82777841D01*
X205769363Y-82777841D02*
X205769363Y-82885591D01*
X205769363Y-82885591D02*
X205715489Y-82993340D01*
X205715489Y-82993340D02*
X205580802Y-83128027D01*
X177937620Y-114173713D02*
X177856807Y-114200650D01*
X177856807Y-114200650D02*
X177775995Y-114281463D01*
X177775995Y-114281463D02*
X177722120Y-114389212D01*
X177722120Y-114389212D02*
X177722120Y-114496962D01*
X177722120Y-114496962D02*
X177749058Y-114577774D01*
X177749058Y-114577774D02*
X177829870Y-114712461D01*
X177829870Y-114712461D02*
X177910682Y-114793273D01*
X177910682Y-114793273D02*
X178045369Y-114874086D01*
X178045369Y-114874086D02*
X178126182Y-114901023D01*
X178126182Y-114901023D02*
X178233931Y-114901023D01*
X178233931Y-114901023D02*
X178341681Y-114847148D01*
X178341681Y-114847148D02*
X178395556Y-114793273D01*
X178395556Y-114793273D02*
X178449430Y-114685524D01*
X178449430Y-114685524D02*
X178449430Y-114631649D01*
X178449430Y-114631649D02*
X178260869Y-114443087D01*
X178260869Y-114443087D02*
X178153119Y-114550837D01*
X178745742Y-114443087D02*
X178180056Y-113877402D01*
X178180056Y-113877402D02*
X178395556Y-113661902D01*
X178395556Y-113661902D02*
X178476368Y-113634965D01*
X178476368Y-113634965D02*
X178530243Y-113634965D01*
X178530243Y-113634965D02*
X178611055Y-113661902D01*
X178611055Y-113661902D02*
X178691867Y-113742715D01*
X178691867Y-113742715D02*
X178718804Y-113823527D01*
X178718804Y-113823527D02*
X178718804Y-113877402D01*
X178718804Y-113877402D02*
X178691867Y-113958214D01*
X178691867Y-113958214D02*
X178476368Y-114173713D01*
X179607739Y-113581090D02*
X179284490Y-113904339D01*
X179446114Y-113742715D02*
X178880429Y-113177029D01*
X178880429Y-113177029D02*
X178907366Y-113311716D01*
X178907366Y-113311716D02*
X178907366Y-113419466D01*
X178907366Y-113419466D02*
X178880429Y-113500278D01*
X180146487Y-113042342D02*
X179823238Y-113365591D01*
X179984862Y-113203966D02*
X179419177Y-112638281D01*
X179419177Y-112638281D02*
X179446114Y-112772968D01*
X179446114Y-112772968D02*
X179446114Y-112880718D01*
X179446114Y-112880718D02*
X179419177Y-112961530D01*
X204180057Y-121551276D02*
X204099245Y-121578213D01*
X204099245Y-121578213D02*
X204018433Y-121659025D01*
X204018433Y-121659025D02*
X203964558Y-121766775D01*
X203964558Y-121766775D02*
X203964558Y-121874525D01*
X203964558Y-121874525D02*
X203991495Y-121955337D01*
X203991495Y-121955337D02*
X204072307Y-122090024D01*
X204072307Y-122090024D02*
X204153120Y-122170836D01*
X204153120Y-122170836D02*
X204287807Y-122251648D01*
X204287807Y-122251648D02*
X204368619Y-122278586D01*
X204368619Y-122278586D02*
X204476368Y-122278586D01*
X204476368Y-122278586D02*
X204584118Y-122224711D01*
X204584118Y-122224711D02*
X204637993Y-122170836D01*
X204637993Y-122170836D02*
X204691868Y-122063086D01*
X204691868Y-122063086D02*
X204691868Y-122009212D01*
X204691868Y-122009212D02*
X204503306Y-121820650D01*
X204503306Y-121820650D02*
X204395556Y-121928399D01*
X204988179Y-121820650D02*
X204422494Y-121254964D01*
X204422494Y-121254964D02*
X205311428Y-121497401D01*
X205311428Y-121497401D02*
X204745742Y-120931716D01*
X205580802Y-121228027D02*
X205015116Y-120662342D01*
X205015116Y-120662342D02*
X205149803Y-120527655D01*
X205149803Y-120527655D02*
X205257553Y-120473780D01*
X205257553Y-120473780D02*
X205365302Y-120473780D01*
X205365302Y-120473780D02*
X205446115Y-120500717D01*
X205446115Y-120500717D02*
X205580802Y-120581530D01*
X205580802Y-120581530D02*
X205661614Y-120662342D01*
X205661614Y-120662342D02*
X205742426Y-120797029D01*
X205742426Y-120797029D02*
X205769363Y-120877841D01*
X205769363Y-120877841D02*
X205769363Y-120985591D01*
X205769363Y-120985591D02*
X205715489Y-121093340D01*
X205715489Y-121093340D02*
X205580802Y-121228027D01*
X204191620Y-101473713D02*
X204110807Y-101500650D01*
X204110807Y-101500650D02*
X204029995Y-101581463D01*
X204029995Y-101581463D02*
X203976120Y-101689212D01*
X203976120Y-101689212D02*
X203976120Y-101796962D01*
X203976120Y-101796962D02*
X204003058Y-101877774D01*
X204003058Y-101877774D02*
X204083870Y-102012461D01*
X204083870Y-102012461D02*
X204164682Y-102093273D01*
X204164682Y-102093273D02*
X204299369Y-102174086D01*
X204299369Y-102174086D02*
X204380182Y-102201023D01*
X204380182Y-102201023D02*
X204487931Y-102201023D01*
X204487931Y-102201023D02*
X204595681Y-102147148D01*
X204595681Y-102147148D02*
X204649556Y-102093273D01*
X204649556Y-102093273D02*
X204703430Y-101985524D01*
X204703430Y-101985524D02*
X204703430Y-101931649D01*
X204703430Y-101931649D02*
X204514869Y-101743087D01*
X204514869Y-101743087D02*
X204407119Y-101850837D01*
X204999742Y-101743087D02*
X204434056Y-101177402D01*
X204434056Y-101177402D02*
X204649556Y-100961902D01*
X204649556Y-100961902D02*
X204730368Y-100934965D01*
X204730368Y-100934965D02*
X204784243Y-100934965D01*
X204784243Y-100934965D02*
X204865055Y-100961902D01*
X204865055Y-100961902D02*
X204945867Y-101042715D01*
X204945867Y-101042715D02*
X204972804Y-101123527D01*
X204972804Y-101123527D02*
X204972804Y-101177402D01*
X204972804Y-101177402D02*
X204945867Y-101258214D01*
X204945867Y-101258214D02*
X204730368Y-101473713D01*
X205026679Y-100692528D02*
X205026679Y-100638654D01*
X205026679Y-100638654D02*
X205053617Y-100557841D01*
X205053617Y-100557841D02*
X205188304Y-100423154D01*
X205188304Y-100423154D02*
X205269116Y-100396217D01*
X205269116Y-100396217D02*
X205322991Y-100396217D01*
X205322991Y-100396217D02*
X205403803Y-100423154D01*
X205403803Y-100423154D02*
X205457678Y-100477029D01*
X205457678Y-100477029D02*
X205511552Y-100584779D01*
X205511552Y-100584779D02*
X205511552Y-101231276D01*
X205511552Y-101231276D02*
X205861739Y-100881090D01*
X205780927Y-99830531D02*
X205673177Y-99938281D01*
X205673177Y-99938281D02*
X205646240Y-100019093D01*
X205646240Y-100019093D02*
X205646240Y-100072968D01*
X205646240Y-100072968D02*
X205673177Y-100207655D01*
X205673177Y-100207655D02*
X205753989Y-100342342D01*
X205753989Y-100342342D02*
X205969488Y-100557841D01*
X205969488Y-100557841D02*
X206050301Y-100584779D01*
X206050301Y-100584779D02*
X206104175Y-100584779D01*
X206104175Y-100584779D02*
X206184988Y-100557841D01*
X206184988Y-100557841D02*
X206292737Y-100450092D01*
X206292737Y-100450092D02*
X206319675Y-100369279D01*
X206319675Y-100369279D02*
X206319675Y-100315405D01*
X206319675Y-100315405D02*
X206292737Y-100234592D01*
X206292737Y-100234592D02*
X206158050Y-100099905D01*
X206158050Y-100099905D02*
X206077238Y-100072968D01*
X206077238Y-100072968D02*
X206023363Y-100072968D01*
X206023363Y-100072968D02*
X205942551Y-100099905D01*
X205942551Y-100099905D02*
X205834801Y-100207655D01*
X205834801Y-100207655D02*
X205807864Y-100288467D01*
X205807864Y-100288467D02*
X205807864Y-100342342D01*
X205807864Y-100342342D02*
X205834801Y-100423154D01*
X178506994Y-85964339D02*
X178426182Y-85991276D01*
X178426182Y-85991276D02*
X178345370Y-86072088D01*
X178345370Y-86072088D02*
X178291495Y-86179838D01*
X178291495Y-86179838D02*
X178291495Y-86287587D01*
X178291495Y-86287587D02*
X178318432Y-86368400D01*
X178318432Y-86368400D02*
X178399245Y-86503087D01*
X178399245Y-86503087D02*
X178480057Y-86583899D01*
X178480057Y-86583899D02*
X178614744Y-86664711D01*
X178614744Y-86664711D02*
X178695556Y-86691648D01*
X178695556Y-86691648D02*
X178803306Y-86691648D01*
X178803306Y-86691648D02*
X178911055Y-86637774D01*
X178911055Y-86637774D02*
X178964930Y-86583899D01*
X178964930Y-86583899D02*
X179018805Y-86476149D01*
X179018805Y-86476149D02*
X179018805Y-86422274D01*
X179018805Y-86422274D02*
X178830243Y-86233713D01*
X178830243Y-86233713D02*
X178722493Y-86341462D01*
X179315116Y-86233713D02*
X178749431Y-85668027D01*
X178749431Y-85668027D02*
X178964930Y-85452528D01*
X178964930Y-85452528D02*
X179045742Y-85425591D01*
X179045742Y-85425591D02*
X179099617Y-85425591D01*
X179099617Y-85425591D02*
X179180429Y-85452528D01*
X179180429Y-85452528D02*
X179261241Y-85533340D01*
X179261241Y-85533340D02*
X179288179Y-85614152D01*
X179288179Y-85614152D02*
X179288179Y-85668027D01*
X179288179Y-85668027D02*
X179261241Y-85748839D01*
X179261241Y-85748839D02*
X179045742Y-85964339D01*
X179342054Y-85183154D02*
X179342054Y-85129279D01*
X179342054Y-85129279D02*
X179368991Y-85048467D01*
X179368991Y-85048467D02*
X179503678Y-84913780D01*
X179503678Y-84913780D02*
X179584490Y-84886843D01*
X179584490Y-84886843D02*
X179638365Y-84886843D01*
X179638365Y-84886843D02*
X179719177Y-84913780D01*
X179719177Y-84913780D02*
X179773052Y-84967655D01*
X179773052Y-84967655D02*
X179826927Y-85075404D01*
X179826927Y-85075404D02*
X179826927Y-85721902D01*
X179826927Y-85721902D02*
X180177113Y-85371716D01*
X156649241Y-124160311D02*
X156173050Y-124493644D01*
X156649241Y-124731739D02*
X155649241Y-124731739D01*
X155649241Y-124731739D02*
X155649241Y-124350787D01*
X155649241Y-124350787D02*
X155696860Y-124255549D01*
X155696860Y-124255549D02*
X155744479Y-124207930D01*
X155744479Y-124207930D02*
X155839717Y-124160311D01*
X155839717Y-124160311D02*
X155982574Y-124160311D01*
X155982574Y-124160311D02*
X156077812Y-124207930D01*
X156077812Y-124207930D02*
X156125431Y-124255549D01*
X156125431Y-124255549D02*
X156173050Y-124350787D01*
X156173050Y-124350787D02*
X156173050Y-124731739D01*
X156077812Y-123588882D02*
X156030193Y-123684120D01*
X156030193Y-123684120D02*
X155982574Y-123731739D01*
X155982574Y-123731739D02*
X155887336Y-123779358D01*
X155887336Y-123779358D02*
X155839717Y-123779358D01*
X155839717Y-123779358D02*
X155744479Y-123731739D01*
X155744479Y-123731739D02*
X155696860Y-123684120D01*
X155696860Y-123684120D02*
X155649241Y-123588882D01*
X155649241Y-123588882D02*
X155649241Y-123398406D01*
X155649241Y-123398406D02*
X155696860Y-123303168D01*
X155696860Y-123303168D02*
X155744479Y-123255549D01*
X155744479Y-123255549D02*
X155839717Y-123207930D01*
X155839717Y-123207930D02*
X155887336Y-123207930D01*
X155887336Y-123207930D02*
X155982574Y-123255549D01*
X155982574Y-123255549D02*
X156030193Y-123303168D01*
X156030193Y-123303168D02*
X156077812Y-123398406D01*
X156077812Y-123398406D02*
X156077812Y-123588882D01*
X156077812Y-123588882D02*
X156125431Y-123684120D01*
X156125431Y-123684120D02*
X156173050Y-123731739D01*
X156173050Y-123731739D02*
X156268288Y-123779358D01*
X156268288Y-123779358D02*
X156458764Y-123779358D01*
X156458764Y-123779358D02*
X156554002Y-123731739D01*
X156554002Y-123731739D02*
X156601622Y-123684120D01*
X156601622Y-123684120D02*
X156649241Y-123588882D01*
X156649241Y-123588882D02*
X156649241Y-123398406D01*
X156649241Y-123398406D02*
X156601622Y-123303168D01*
X156601622Y-123303168D02*
X156554002Y-123255549D01*
X156554002Y-123255549D02*
X156458764Y-123207930D01*
X156458764Y-123207930D02*
X156268288Y-123207930D01*
X156268288Y-123207930D02*
X156173050Y-123255549D01*
X156173050Y-123255549D02*
X156125431Y-123303168D01*
X156125431Y-123303168D02*
X156077812Y-123398406D01*
X158520555Y-88879264D02*
X158187222Y-88403073D01*
X157949127Y-88879264D02*
X157949127Y-87879264D01*
X157949127Y-87879264D02*
X158330079Y-87879264D01*
X158330079Y-87879264D02*
X158425317Y-87926883D01*
X158425317Y-87926883D02*
X158472936Y-87974502D01*
X158472936Y-87974502D02*
X158520555Y-88069740D01*
X158520555Y-88069740D02*
X158520555Y-88212597D01*
X158520555Y-88212597D02*
X158472936Y-88307835D01*
X158472936Y-88307835D02*
X158425317Y-88355454D01*
X158425317Y-88355454D02*
X158330079Y-88403073D01*
X158330079Y-88403073D02*
X157949127Y-88403073D01*
X158901508Y-87974502D02*
X158949127Y-87926883D01*
X158949127Y-87926883D02*
X159044365Y-87879264D01*
X159044365Y-87879264D02*
X159282460Y-87879264D01*
X159282460Y-87879264D02*
X159377698Y-87926883D01*
X159377698Y-87926883D02*
X159425317Y-87974502D01*
X159425317Y-87974502D02*
X159472936Y-88069740D01*
X159472936Y-88069740D02*
X159472936Y-88164978D01*
X159472936Y-88164978D02*
X159425317Y-88307835D01*
X159425317Y-88307835D02*
X158853889Y-88879264D01*
X158853889Y-88879264D02*
X159472936Y-88879264D01*
X157976117Y-97291064D02*
X157976117Y-98100587D01*
X157976117Y-98100587D02*
X158023736Y-98195825D01*
X158023736Y-98195825D02*
X158071355Y-98243445D01*
X158071355Y-98243445D02*
X158166593Y-98291064D01*
X158166593Y-98291064D02*
X158357069Y-98291064D01*
X158357069Y-98291064D02*
X158452307Y-98243445D01*
X158452307Y-98243445D02*
X158499926Y-98195825D01*
X158499926Y-98195825D02*
X158547545Y-98100587D01*
X158547545Y-98100587D02*
X158547545Y-97291064D01*
X159547545Y-98291064D02*
X158976117Y-98291064D01*
X159261831Y-98291064D02*
X159261831Y-97291064D01*
X159261831Y-97291064D02*
X159166593Y-97433921D01*
X159166593Y-97433921D02*
X159071355Y-97529159D01*
X159071355Y-97529159D02*
X158976117Y-97576778D01*
X168222841Y-93286111D02*
X167746650Y-93619444D01*
X168222841Y-93857539D02*
X167222841Y-93857539D01*
X167222841Y-93857539D02*
X167222841Y-93476587D01*
X167222841Y-93476587D02*
X167270460Y-93381349D01*
X167270460Y-93381349D02*
X167318079Y-93333730D01*
X167318079Y-93333730D02*
X167413317Y-93286111D01*
X167413317Y-93286111D02*
X167556174Y-93286111D01*
X167556174Y-93286111D02*
X167651412Y-93333730D01*
X167651412Y-93333730D02*
X167699031Y-93381349D01*
X167699031Y-93381349D02*
X167746650Y-93476587D01*
X167746650Y-93476587D02*
X167746650Y-93857539D01*
X167556174Y-92428968D02*
X168222841Y-92428968D01*
X167175222Y-92667063D02*
X167889507Y-92905158D01*
X167889507Y-92905158D02*
X167889507Y-92286111D01*
X190067983Y-142272902D02*
X189972745Y-142225283D01*
X189972745Y-142225283D02*
X189877507Y-142130045D01*
X189877507Y-142130045D02*
X189734650Y-141987187D01*
X189734650Y-141987187D02*
X189639412Y-141939568D01*
X189639412Y-141939568D02*
X189544174Y-141939568D01*
X189591793Y-142177664D02*
X189496555Y-142130045D01*
X189496555Y-142130045D02*
X189401317Y-142034806D01*
X189401317Y-142034806D02*
X189353698Y-141844330D01*
X189353698Y-141844330D02*
X189353698Y-141510997D01*
X189353698Y-141510997D02*
X189401317Y-141320521D01*
X189401317Y-141320521D02*
X189496555Y-141225283D01*
X189496555Y-141225283D02*
X189591793Y-141177664D01*
X189591793Y-141177664D02*
X189782269Y-141177664D01*
X189782269Y-141177664D02*
X189877507Y-141225283D01*
X189877507Y-141225283D02*
X189972745Y-141320521D01*
X189972745Y-141320521D02*
X190020364Y-141510997D01*
X190020364Y-141510997D02*
X190020364Y-141844330D01*
X190020364Y-141844330D02*
X189972745Y-142034806D01*
X189972745Y-142034806D02*
X189877507Y-142130045D01*
X189877507Y-142130045D02*
X189782269Y-142177664D01*
X189782269Y-142177664D02*
X189591793Y-142177664D01*
X190972745Y-142177664D02*
X190401317Y-142177664D01*
X190687031Y-142177664D02*
X190687031Y-141177664D01*
X190687031Y-141177664D02*
X190591793Y-141320521D01*
X190591793Y-141320521D02*
X190496555Y-141415759D01*
X190496555Y-141415759D02*
X190401317Y-141463378D01*
X156649241Y-117861111D02*
X156173050Y-118194444D01*
X156649241Y-118432539D02*
X155649241Y-118432539D01*
X155649241Y-118432539D02*
X155649241Y-118051587D01*
X155649241Y-118051587D02*
X155696860Y-117956349D01*
X155696860Y-117956349D02*
X155744479Y-117908730D01*
X155744479Y-117908730D02*
X155839717Y-117861111D01*
X155839717Y-117861111D02*
X155982574Y-117861111D01*
X155982574Y-117861111D02*
X156077812Y-117908730D01*
X156077812Y-117908730D02*
X156125431Y-117956349D01*
X156125431Y-117956349D02*
X156173050Y-118051587D01*
X156173050Y-118051587D02*
X156173050Y-118432539D01*
X155649241Y-117003968D02*
X155649241Y-117194444D01*
X155649241Y-117194444D02*
X155696860Y-117289682D01*
X155696860Y-117289682D02*
X155744479Y-117337301D01*
X155744479Y-117337301D02*
X155887336Y-117432539D01*
X155887336Y-117432539D02*
X156077812Y-117480158D01*
X156077812Y-117480158D02*
X156458764Y-117480158D01*
X156458764Y-117480158D02*
X156554002Y-117432539D01*
X156554002Y-117432539D02*
X156601622Y-117384920D01*
X156601622Y-117384920D02*
X156649241Y-117289682D01*
X156649241Y-117289682D02*
X156649241Y-117099206D01*
X156649241Y-117099206D02*
X156601622Y-117003968D01*
X156601622Y-117003968D02*
X156554002Y-116956349D01*
X156554002Y-116956349D02*
X156458764Y-116908730D01*
X156458764Y-116908730D02*
X156220669Y-116908730D01*
X156220669Y-116908730D02*
X156125431Y-116956349D01*
X156125431Y-116956349D02*
X156077812Y-117003968D01*
X156077812Y-117003968D02*
X156030193Y-117099206D01*
X156030193Y-117099206D02*
X156030193Y-117289682D01*
X156030193Y-117289682D02*
X156077812Y-117384920D01*
X156077812Y-117384920D02*
X156125431Y-117432539D01*
X156125431Y-117432539D02*
X156220669Y-117480158D01*
X152401755Y-120754025D02*
X152354136Y-120801645D01*
X152354136Y-120801645D02*
X152211279Y-120849264D01*
X152211279Y-120849264D02*
X152116041Y-120849264D01*
X152116041Y-120849264D02*
X151973184Y-120801645D01*
X151973184Y-120801645D02*
X151877946Y-120706406D01*
X151877946Y-120706406D02*
X151830327Y-120611168D01*
X151830327Y-120611168D02*
X151782708Y-120420692D01*
X151782708Y-120420692D02*
X151782708Y-120277835D01*
X151782708Y-120277835D02*
X151830327Y-120087359D01*
X151830327Y-120087359D02*
X151877946Y-119992121D01*
X151877946Y-119992121D02*
X151973184Y-119896883D01*
X151973184Y-119896883D02*
X152116041Y-119849264D01*
X152116041Y-119849264D02*
X152211279Y-119849264D01*
X152211279Y-119849264D02*
X152354136Y-119896883D01*
X152354136Y-119896883D02*
X152401755Y-119944502D01*
X153258898Y-120182597D02*
X153258898Y-120849264D01*
X153020803Y-119801645D02*
X152782708Y-120515930D01*
X152782708Y-120515930D02*
X153401755Y-120515930D01*
X184536002Y-132464711D02*
X184583622Y-132512330D01*
X184583622Y-132512330D02*
X184631241Y-132655187D01*
X184631241Y-132655187D02*
X184631241Y-132750425D01*
X184631241Y-132750425D02*
X184583622Y-132893282D01*
X184583622Y-132893282D02*
X184488383Y-132988520D01*
X184488383Y-132988520D02*
X184393145Y-133036139D01*
X184393145Y-133036139D02*
X184202669Y-133083758D01*
X184202669Y-133083758D02*
X184059812Y-133083758D01*
X184059812Y-133083758D02*
X183869336Y-133036139D01*
X183869336Y-133036139D02*
X183774098Y-132988520D01*
X183774098Y-132988520D02*
X183678860Y-132893282D01*
X183678860Y-132893282D02*
X183631241Y-132750425D01*
X183631241Y-132750425D02*
X183631241Y-132655187D01*
X183631241Y-132655187D02*
X183678860Y-132512330D01*
X183678860Y-132512330D02*
X183726479Y-132464711D01*
X183631241Y-132131377D02*
X183631241Y-131464711D01*
X183631241Y-131464711D02*
X184631241Y-131893282D01*
X176046041Y-106360702D02*
X175569850Y-106694035D01*
X176046041Y-106932130D02*
X175046041Y-106932130D01*
X175046041Y-106932130D02*
X175046041Y-106551178D01*
X175046041Y-106551178D02*
X175093660Y-106455940D01*
X175093660Y-106455940D02*
X175141279Y-106408321D01*
X175141279Y-106408321D02*
X175236517Y-106360702D01*
X175236517Y-106360702D02*
X175379374Y-106360702D01*
X175379374Y-106360702D02*
X175474612Y-106408321D01*
X175474612Y-106408321D02*
X175522231Y-106455940D01*
X175522231Y-106455940D02*
X175569850Y-106551178D01*
X175569850Y-106551178D02*
X175569850Y-106932130D01*
X176046041Y-105408321D02*
X176046041Y-105979749D01*
X176046041Y-105694035D02*
X175046041Y-105694035D01*
X175046041Y-105694035D02*
X175188898Y-105789273D01*
X175188898Y-105789273D02*
X175284136Y-105884511D01*
X175284136Y-105884511D02*
X175331755Y-105979749D01*
X176046041Y-104455940D02*
X176046041Y-105027368D01*
X176046041Y-104741654D02*
X175046041Y-104741654D01*
X175046041Y-104741654D02*
X175188898Y-104836892D01*
X175188898Y-104836892D02*
X175284136Y-104932130D01*
X175284136Y-104932130D02*
X175331755Y-105027368D01*
X158817355Y-84876825D02*
X158817355Y-84162540D01*
X158817355Y-84162540D02*
X158864974Y-84019683D01*
X158864974Y-84019683D02*
X158960212Y-83924445D01*
X158960212Y-83924445D02*
X159103069Y-83876825D01*
X159103069Y-83876825D02*
X159198307Y-83876825D01*
X157817355Y-83876825D02*
X158388783Y-83876825D01*
X158103069Y-83876825D02*
X158103069Y-84876825D01*
X158103069Y-84876825D02*
X158198307Y-84733968D01*
X158198307Y-84733968D02*
X158293545Y-84638730D01*
X158293545Y-84638730D02*
X158388783Y-84591111D01*
X174488288Y-133200164D02*
X174488288Y-133914449D01*
X174488288Y-133914449D02*
X174440669Y-134057306D01*
X174440669Y-134057306D02*
X174345431Y-134152545D01*
X174345431Y-134152545D02*
X174202574Y-134200164D01*
X174202574Y-134200164D02*
X174107336Y-134200164D01*
X174916860Y-133295402D02*
X174964479Y-133247783D01*
X174964479Y-133247783D02*
X175059717Y-133200164D01*
X175059717Y-133200164D02*
X175297812Y-133200164D01*
X175297812Y-133200164D02*
X175393050Y-133247783D01*
X175393050Y-133247783D02*
X175440669Y-133295402D01*
X175440669Y-133295402D02*
X175488288Y-133390640D01*
X175488288Y-133390640D02*
X175488288Y-133485878D01*
X175488288Y-133485878D02*
X175440669Y-133628735D01*
X175440669Y-133628735D02*
X174869241Y-134200164D01*
X174869241Y-134200164D02*
X175488288Y-134200164D01*
X168242841Y-96329311D02*
X167766650Y-96662644D01*
X168242841Y-96900739D02*
X167242841Y-96900739D01*
X167242841Y-96900739D02*
X167242841Y-96519787D01*
X167242841Y-96519787D02*
X167290460Y-96424549D01*
X167290460Y-96424549D02*
X167338079Y-96376930D01*
X167338079Y-96376930D02*
X167433317Y-96329311D01*
X167433317Y-96329311D02*
X167576174Y-96329311D01*
X167576174Y-96329311D02*
X167671412Y-96376930D01*
X167671412Y-96376930D02*
X167719031Y-96424549D01*
X167719031Y-96424549D02*
X167766650Y-96519787D01*
X167766650Y-96519787D02*
X167766650Y-96900739D01*
X167242841Y-95424549D02*
X167242841Y-95900739D01*
X167242841Y-95900739D02*
X167719031Y-95948358D01*
X167719031Y-95948358D02*
X167671412Y-95900739D01*
X167671412Y-95900739D02*
X167623793Y-95805501D01*
X167623793Y-95805501D02*
X167623793Y-95567406D01*
X167623793Y-95567406D02*
X167671412Y-95472168D01*
X167671412Y-95472168D02*
X167719031Y-95424549D01*
X167719031Y-95424549D02*
X167814269Y-95376930D01*
X167814269Y-95376930D02*
X168052364Y-95376930D01*
X168052364Y-95376930D02*
X168147602Y-95424549D01*
X168147602Y-95424549D02*
X168195222Y-95472168D01*
X168195222Y-95472168D02*
X168242841Y-95567406D01*
X168242841Y-95567406D02*
X168242841Y-95805501D01*
X168242841Y-95805501D02*
X168195222Y-95900739D01*
X168195222Y-95900739D02*
X168147602Y-95948358D01*
X165818127Y-84335264D02*
X165818127Y-83335264D01*
X165818127Y-83335264D02*
X166056222Y-83335264D01*
X166056222Y-83335264D02*
X166199079Y-83382883D01*
X166199079Y-83382883D02*
X166294317Y-83478121D01*
X166294317Y-83478121D02*
X166341936Y-83573359D01*
X166341936Y-83573359D02*
X166389555Y-83763835D01*
X166389555Y-83763835D02*
X166389555Y-83906692D01*
X166389555Y-83906692D02*
X166341936Y-84097168D01*
X166341936Y-84097168D02*
X166294317Y-84192406D01*
X166294317Y-84192406D02*
X166199079Y-84287645D01*
X166199079Y-84287645D02*
X166056222Y-84335264D01*
X166056222Y-84335264D02*
X165818127Y-84335264D01*
X167341936Y-84335264D02*
X166770508Y-84335264D01*
X167056222Y-84335264D02*
X167056222Y-83335264D01*
X167056222Y-83335264D02*
X166960984Y-83478121D01*
X166960984Y-83478121D02*
X166865746Y-83573359D01*
X166865746Y-83573359D02*
X166770508Y-83620978D01*
X162643241Y-104029149D02*
X163452764Y-104029149D01*
X163452764Y-104029149D02*
X163548002Y-103981530D01*
X163548002Y-103981530D02*
X163595622Y-103933911D01*
X163595622Y-103933911D02*
X163643241Y-103838673D01*
X163643241Y-103838673D02*
X163643241Y-103648197D01*
X163643241Y-103648197D02*
X163595622Y-103552959D01*
X163595622Y-103552959D02*
X163548002Y-103505340D01*
X163548002Y-103505340D02*
X163452764Y-103457721D01*
X163452764Y-103457721D02*
X162643241Y-103457721D01*
X162643241Y-102505340D02*
X162643241Y-102981530D01*
X162643241Y-102981530D02*
X163119431Y-103029149D01*
X163119431Y-103029149D02*
X163071812Y-102981530D01*
X163071812Y-102981530D02*
X163024193Y-102886292D01*
X163024193Y-102886292D02*
X163024193Y-102648197D01*
X163024193Y-102648197D02*
X163071812Y-102552959D01*
X163071812Y-102552959D02*
X163119431Y-102505340D01*
X163119431Y-102505340D02*
X163214669Y-102457721D01*
X163214669Y-102457721D02*
X163452764Y-102457721D01*
X163452764Y-102457721D02*
X163548002Y-102505340D01*
X163548002Y-102505340D02*
X163595622Y-102552959D01*
X163595622Y-102552959D02*
X163643241Y-102648197D01*
X163643241Y-102648197D02*
X163643241Y-102886292D01*
X163643241Y-102886292D02*
X163595622Y-102981530D01*
X163595622Y-102981530D02*
X163548002Y-103029149D01*
X169957241Y-134447439D02*
X168957241Y-134447439D01*
X168957241Y-134447439D02*
X168957241Y-134209344D01*
X168957241Y-134209344D02*
X169004860Y-134066487D01*
X169004860Y-134066487D02*
X169100098Y-133971249D01*
X169100098Y-133971249D02*
X169195336Y-133923630D01*
X169195336Y-133923630D02*
X169385812Y-133876011D01*
X169385812Y-133876011D02*
X169528669Y-133876011D01*
X169528669Y-133876011D02*
X169719145Y-133923630D01*
X169719145Y-133923630D02*
X169814383Y-133971249D01*
X169814383Y-133971249D02*
X169909622Y-134066487D01*
X169909622Y-134066487D02*
X169957241Y-134209344D01*
X169957241Y-134209344D02*
X169957241Y-134447439D01*
X169052479Y-133495058D02*
X169004860Y-133447439D01*
X169004860Y-133447439D02*
X168957241Y-133352201D01*
X168957241Y-133352201D02*
X168957241Y-133114106D01*
X168957241Y-133114106D02*
X169004860Y-133018868D01*
X169004860Y-133018868D02*
X169052479Y-132971249D01*
X169052479Y-132971249D02*
X169147717Y-132923630D01*
X169147717Y-132923630D02*
X169242955Y-132923630D01*
X169242955Y-132923630D02*
X169385812Y-132971249D01*
X169385812Y-132971249D02*
X169957241Y-133542677D01*
X169957241Y-133542677D02*
X169957241Y-132923630D01*
D11*
%TO.C,R9*%
X175835322Y-137096203D02*
X175835322Y-136621687D01*
X176880322Y-137096203D02*
X176880322Y-136621687D01*
%TO.C,J3*%
X166049422Y-112707445D02*
X166744422Y-112707445D01*
X166049422Y-113392445D02*
X166049422Y-112707445D01*
X166049422Y-114077445D02*
X166049422Y-114952445D01*
X166049422Y-114077445D02*
X166136146Y-114077445D01*
X166049422Y-114952445D02*
X166349929Y-114952445D01*
X167138915Y-114952445D02*
X167439422Y-114952445D01*
X167352698Y-114077445D02*
X167439422Y-114077445D01*
X167439422Y-114077445D02*
X167439422Y-114952445D01*
%TO.C,D3*%
X160002222Y-118200045D02*
X160002222Y-123870045D01*
X160002222Y-123870045D02*
X168687222Y-123870045D01*
X168687222Y-118200045D02*
X160002222Y-118200045D01*
%TO.C,C1*%
X170387822Y-98987445D02*
X170762822Y-98987445D01*
X170575322Y-98799945D02*
X170575322Y-99174945D01*
X171192259Y-99362445D02*
X171892259Y-98662445D01*
X171192259Y-101482445D02*
X171892259Y-102182445D01*
X171892259Y-98662445D02*
X174522822Y-98662445D01*
X171892259Y-102182445D02*
X174522822Y-102182445D01*
X174522822Y-98662445D02*
X174522822Y-99362445D01*
X174522822Y-102182445D02*
X174522822Y-101482445D01*
%TO.C,C2*%
X174905022Y-92189845D02*
X174905022Y-92564845D01*
X175092522Y-92377345D02*
X174717522Y-92377345D01*
X174530022Y-92994282D02*
X175230022Y-93694282D01*
X172410022Y-92994282D02*
X171710022Y-93694282D01*
X175230022Y-93694282D02*
X175230022Y-96324845D01*
X171710022Y-93694282D02*
X171710022Y-96324845D01*
X175230022Y-96324845D02*
X174530022Y-96324845D01*
X171710022Y-96324845D02*
X172410022Y-96324845D01*
D12*
%TO.C,Q2*%
X174657222Y-113288045D02*
X169957222Y-113288045D01*
X169957222Y-113288045D02*
X169957222Y-123828045D01*
X174657222Y-123828045D02*
X174657222Y-113288045D01*
X169957222Y-123828045D02*
X174657222Y-123828045D01*
D13*
X169547222Y-116018045D02*
G75*
G03*
X169547222Y-116018045I-100000J0D01*
G01*
D12*
%TO.C,U4*%
X161207222Y-131756845D02*
X161207222Y-136956845D01*
X151047222Y-131756845D02*
X161207222Y-131756845D01*
X161207222Y-136956845D02*
X151047222Y-136956845D01*
X151047222Y-136956845D02*
X151047222Y-131756845D01*
D13*
X161327222Y-130506845D02*
G75*
G03*
X161327222Y-130506845I-100000J0D01*
G01*
D14*
X160607222Y-132506845D02*
G75*
G03*
X160607222Y-132506845I-250000J0D01*
G01*
D11*
%TO.C,R1*%
X155876480Y-87529145D02*
X155401964Y-87529145D01*
X155876480Y-86484145D02*
X155401964Y-86484145D01*
%TO.C,C6*%
X182962222Y-136299845D02*
X182962222Y-136674845D01*
X183149722Y-136487345D02*
X182774722Y-136487345D01*
X182587222Y-137104282D02*
X183287222Y-137804282D01*
X180467222Y-137104282D02*
X179767222Y-137804282D01*
X183287222Y-137804282D02*
X183287222Y-140434845D01*
X179767222Y-137804282D02*
X179767222Y-140434845D01*
X183287222Y-140434845D02*
X182587222Y-140434845D01*
X179767222Y-140434845D02*
X180467222Y-140434845D01*
%TO.C,R10*%
X173820122Y-137083303D02*
X173820122Y-136608787D01*
X172775122Y-137083303D02*
X172775122Y-136608787D01*
%TO.C,C3*%
X174854222Y-86144645D02*
X174854222Y-86519645D01*
X175041722Y-86332145D02*
X174666722Y-86332145D01*
X174479222Y-86949082D02*
X175179222Y-87649082D01*
X172359222Y-86949082D02*
X171659222Y-87649082D01*
X175179222Y-87649082D02*
X175179222Y-90279645D01*
X171659222Y-87649082D02*
X171659222Y-90279645D01*
X175179222Y-90279645D02*
X174479222Y-90279645D01*
X171659222Y-90279645D02*
X172359222Y-90279645D01*
%TO.C,R3*%
X162023280Y-87516945D02*
X161548764Y-87516945D01*
X162023280Y-86471945D02*
X161548764Y-86471945D01*
%TO.C,R13*%
X172661322Y-110565703D02*
X172661322Y-110091187D01*
X173706322Y-110565703D02*
X173706322Y-110091187D01*
%TO.C,R12*%
X170336722Y-106005903D02*
X170336722Y-105531387D01*
X171381722Y-106005903D02*
X171381722Y-105531387D01*
%TO.C,C5*%
X154970222Y-125276245D02*
X154595222Y-125276245D01*
X154782722Y-125463745D02*
X154782722Y-125088745D01*
X154165785Y-124901245D02*
X153465785Y-125601245D01*
X154165785Y-122781245D02*
X153465785Y-122081245D01*
X153465785Y-125601245D02*
X150835222Y-125601245D01*
X153465785Y-122081245D02*
X150835222Y-122081245D01*
X150835222Y-125601245D02*
X150835222Y-124901245D01*
X150835222Y-122081245D02*
X150835222Y-122781245D01*
%TO.C,R7*%
X157114122Y-121132103D02*
X157114122Y-120657587D01*
X158159122Y-121132103D02*
X158159122Y-120657587D01*
%TO.C,U2*%
X176246022Y-83660445D02*
X170236022Y-83660445D01*
X173996022Y-76840445D02*
X170236022Y-76840445D01*
X170236022Y-83660445D02*
X170236022Y-82400445D01*
X170236022Y-76840445D02*
X170236022Y-78100445D01*
%TO.C,U3*%
X181593622Y-76852845D02*
X181593622Y-77152845D01*
X181593622Y-76852845D02*
X202593622Y-76852845D01*
X181593622Y-79252845D02*
X181593622Y-79652845D01*
X181593622Y-79519845D02*
X184600622Y-79519845D01*
X181593622Y-81852845D02*
X181593622Y-82252845D01*
X181593622Y-84352845D02*
X181593622Y-84752845D01*
X181593622Y-86952845D02*
X181593622Y-87352845D01*
X181593622Y-89452845D02*
X181593622Y-89852845D01*
X181593622Y-91952845D02*
X181593622Y-92352845D01*
X181593622Y-94552845D02*
X181593622Y-94952845D01*
X181593622Y-97052845D02*
X181593622Y-97452845D01*
X181593622Y-99652845D02*
X181593622Y-100052845D01*
X181593622Y-102152845D02*
X181593622Y-102552845D01*
X181593622Y-104652845D02*
X181593622Y-105052845D01*
X181593622Y-107252845D02*
X181593622Y-107652845D01*
X181593622Y-109752845D02*
X181593622Y-110152845D01*
X181593622Y-112352845D02*
X181593622Y-112752845D01*
X181593622Y-114852845D02*
X181593622Y-115252845D01*
X181593622Y-117452845D02*
X181593622Y-117852845D01*
X181593622Y-119952845D02*
X181593622Y-120352845D01*
X181593622Y-122452845D02*
X181593622Y-122852845D01*
X181593622Y-125052845D02*
X181593622Y-125452845D01*
X184600622Y-79519845D02*
X184600622Y-76852845D01*
X188393622Y-127852845D02*
X181593622Y-127852845D01*
X190593622Y-127852845D02*
X190993622Y-127852845D01*
X193193622Y-127852845D02*
X193593622Y-127852845D01*
X202593622Y-76852845D02*
X202593622Y-77152845D01*
X202593622Y-79252845D02*
X202593622Y-79652845D01*
X202593622Y-81852845D02*
X202593622Y-82252845D01*
X202593622Y-84352845D02*
X202593622Y-84752845D01*
X202593622Y-86952845D02*
X202593622Y-87352845D01*
X202593622Y-89452845D02*
X202593622Y-89852845D01*
X202593622Y-91952845D02*
X202593622Y-92352845D01*
X202593622Y-94552845D02*
X202593622Y-94952845D01*
X202593622Y-97052845D02*
X202593622Y-97452845D01*
X202593622Y-99652845D02*
X202593622Y-100052845D01*
X202593622Y-102152845D02*
X202593622Y-102552845D01*
X202593622Y-104652845D02*
X202593622Y-105052845D01*
X202593622Y-107252845D02*
X202593622Y-107652845D01*
X202593622Y-109752845D02*
X202593622Y-110152845D01*
X202593622Y-112352845D02*
X202593622Y-112752845D01*
X202593622Y-114852845D02*
X202593622Y-115252845D01*
X202593622Y-117452845D02*
X202593622Y-117852845D01*
X202593622Y-119952845D02*
X202593622Y-120352845D01*
X202593622Y-122452845D02*
X202593622Y-122852845D01*
X202593622Y-125052845D02*
X202593622Y-125452845D01*
X202593622Y-127852845D02*
X195793622Y-127852845D01*
%TO.C,R8*%
X157101922Y-124230903D02*
X157101922Y-123756387D01*
X158146922Y-124230903D02*
X158146922Y-123756387D01*
%TO.C,R2*%
X158924480Y-87516945D02*
X158449964Y-87516945D01*
X158924480Y-86471945D02*
X158449964Y-86471945D01*
%TO.C,U1*%
X163858022Y-96836245D02*
X163858022Y-92195245D01*
X163858022Y-96836245D02*
X153618022Y-96836245D01*
X163858022Y-95326245D02*
X153618022Y-95326245D01*
X163858022Y-92195245D02*
X153618022Y-92195245D01*
X160588022Y-96836245D02*
X160588022Y-95326245D01*
X156887022Y-96836245D02*
X156887022Y-95326245D01*
X153618022Y-96836245D02*
X153618022Y-92195245D01*
%TO.C,R4*%
X166860522Y-92882187D02*
X166860522Y-93356703D01*
X165815522Y-92882187D02*
X165815522Y-93356703D01*
%TO.C,Q1*%
X185344966Y-132043606D02*
X186235920Y-132934561D01*
X186122783Y-131265789D02*
X185344966Y-132043606D01*
X187013738Y-132156743D02*
X186122783Y-131265789D01*
X186236149Y-132934274D02*
G75*
G03*
X187013738Y-132156744I3774673J-2997371D01*
G01*
%TO.C,R6*%
X157101922Y-117931703D02*
X157101922Y-117457187D01*
X158146922Y-117931703D02*
X158146922Y-117457187D01*
%TO.C,C4*%
X154943422Y-119129445D02*
X154568422Y-119129445D01*
X154755922Y-119316945D02*
X154755922Y-118941945D01*
X154138985Y-118754445D02*
X153438985Y-119454445D01*
X154138985Y-116634445D02*
X153438985Y-115934445D01*
X153438985Y-119454445D02*
X150808422Y-119454445D01*
X153438985Y-115934445D02*
X150808422Y-115934445D01*
X150808422Y-119454445D02*
X150808422Y-118754445D01*
X150808422Y-115934445D02*
X150808422Y-116634445D01*
%TO.C,C7*%
X182911422Y-129923045D02*
X182911422Y-130298045D01*
X183098922Y-130110545D02*
X182723922Y-130110545D01*
X182536422Y-130727482D02*
X183236422Y-131427482D01*
X180416422Y-130727482D02*
X179716422Y-131427482D01*
X183236422Y-131427482D02*
X183236422Y-134058045D01*
X179716422Y-131427482D02*
X179716422Y-134058045D01*
X183236422Y-134058045D02*
X182536422Y-134058045D01*
X179716422Y-134058045D02*
X180416422Y-134058045D01*
%TO.C,R11*%
X174683722Y-105480587D02*
X174683722Y-105955103D01*
X173638722Y-105480587D02*
X173638722Y-105955103D01*
%TO.C,J1*%
X163084022Y-81871645D02*
X163084022Y-80241645D01*
X153884022Y-81871645D02*
X153884022Y-80241645D01*
%TO.C,J2*%
X175516622Y-132870345D02*
X174821622Y-132870345D01*
X175516622Y-132185345D02*
X175516622Y-132870345D01*
X175516622Y-131500345D02*
X175516622Y-130625345D01*
X175516622Y-131500345D02*
X175429898Y-131500345D01*
X175516622Y-130625345D02*
X175216115Y-130625345D01*
X174427129Y-130625345D02*
X174126622Y-130625345D01*
X174213346Y-131500345D02*
X174126622Y-131500345D01*
X174126622Y-131500345D02*
X174126622Y-130625345D01*
%TO.C,R5*%
X166880522Y-95925387D02*
X166880522Y-96399903D01*
X165835522Y-95925387D02*
X165835522Y-96399903D01*
%TO.C,D1*%
X164996222Y-85604445D02*
X164996222Y-85760445D01*
X164996222Y-87920445D02*
X164996222Y-88076445D01*
X168228556Y-85761837D02*
G75*
G03*
X164996223Y-85604930I-1672334J-1078608D01*
G01*
X167597351Y-85760609D02*
G75*
G03*
X165515262Y-85760446I-1041129J-1079836D01*
G01*
X165515262Y-87920444D02*
G75*
G03*
X167597351Y-87920281I1040960J1079999D01*
G01*
X164996223Y-88075960D02*
G75*
G03*
X168228556Y-87919053I1559999J1235515D01*
G01*
%TO.C,U5*%
X152262022Y-113310845D02*
X162162022Y-113310845D01*
X162162022Y-113310845D02*
X162162022Y-100410845D01*
X162162022Y-100410845D02*
X152262022Y-100410845D01*
X152262022Y-100410845D02*
X152262022Y-113310845D01*
%TO.C,D2*%
X168817422Y-129024345D02*
X163147422Y-129024345D01*
X163147422Y-129024345D02*
X163147422Y-137709345D01*
X168817422Y-137709345D02*
X168817422Y-129024345D01*
%TD*%
%LPC*%
D15*
%TO.C,R9*%
X176357822Y-137683945D03*
X176357822Y-136033945D03*
%TD*%
D16*
%TO.C,J3*%
X166744422Y-113392445D03*
D17*
X166744422Y-114392445D03*
%TD*%
D18*
%TO.C,D3*%
X161499722Y-121035045D03*
X167874722Y-121035045D03*
%TD*%
D19*
%TO.C,C1*%
X171262822Y-100422445D03*
X174262822Y-100422445D03*
%TD*%
D20*
%TO.C,C2*%
X173470022Y-93064845D03*
X173470022Y-96064845D03*
%TD*%
D21*
%TO.C,Q2*%
X171367222Y-116018045D03*
D22*
X171367222Y-118558045D03*
X171367222Y-121098045D03*
%TD*%
D23*
%TO.C,U4*%
X159937222Y-130546845D03*
D24*
X157397222Y-130546845D03*
X154857222Y-130546845D03*
X152317222Y-130546845D03*
X152317222Y-138166845D03*
X154857222Y-138166845D03*
X157397222Y-138166845D03*
X159937222Y-138166845D03*
%TD*%
D25*
%TO.C,R1*%
X156464222Y-87006645D03*
X154814222Y-87006645D03*
%TD*%
D20*
%TO.C,C6*%
X181527222Y-137174845D03*
X181527222Y-140174845D03*
%TD*%
D15*
%TO.C,R10*%
X173297622Y-136021045D03*
X173297622Y-137671045D03*
%TD*%
D20*
%TO.C,C3*%
X173419222Y-87019645D03*
X173419222Y-90019645D03*
%TD*%
D25*
%TO.C,R3*%
X162611022Y-86994445D03*
X160961022Y-86994445D03*
%TD*%
D15*
%TO.C,R13*%
X173183822Y-111153445D03*
X173183822Y-109503445D03*
%TD*%
%TO.C,R12*%
X170859222Y-106593645D03*
X170859222Y-104943645D03*
%TD*%
D26*
%TO.C,C5*%
X154095222Y-123841245D03*
X151095222Y-123841245D03*
%TD*%
D15*
%TO.C,R7*%
X157636622Y-121719845D03*
X157636622Y-120069845D03*
%TD*%
D27*
%TO.C,U2*%
X175296022Y-82550445D03*
X175296022Y-80250445D03*
X175296022Y-77950445D03*
D28*
X168996022Y-80250445D03*
%TD*%
D29*
%TO.C,U3*%
X189368622Y-78352845D03*
D30*
X189668622Y-81382845D03*
X194518622Y-81382845D03*
D29*
X194818622Y-78352845D03*
D31*
X183203622Y-78222845D03*
D32*
X182303622Y-78222845D03*
D31*
X183203622Y-80762845D03*
D32*
X182303622Y-80762845D03*
D33*
X183203622Y-83302845D03*
D32*
X182303622Y-83302845D03*
D31*
X183203622Y-85842845D03*
D32*
X182303622Y-85842845D03*
D31*
X183203622Y-88382845D03*
D32*
X182303622Y-88382845D03*
D31*
X183203622Y-90922845D03*
D32*
X182303622Y-90922845D03*
D31*
X183203622Y-93462845D03*
D32*
X182303622Y-93462845D03*
D33*
X183203622Y-96002845D03*
D32*
X182303622Y-96002845D03*
D31*
X183203622Y-98542845D03*
D32*
X182303622Y-98542845D03*
D31*
X183203622Y-101082845D03*
D32*
X182303622Y-101082845D03*
D31*
X183203622Y-103622845D03*
D32*
X182303622Y-103622845D03*
D31*
X183203622Y-106162845D03*
D32*
X182303622Y-106162845D03*
D33*
X183203622Y-108702845D03*
D32*
X182303622Y-108702845D03*
D31*
X183203622Y-111242845D03*
D32*
X182303622Y-111242845D03*
D31*
X183203622Y-113782845D03*
D32*
X182303622Y-113782845D03*
D31*
X183203622Y-116322845D03*
D32*
X182303622Y-116322845D03*
D31*
X183203622Y-118862845D03*
D32*
X182303622Y-118862845D03*
D33*
X183203622Y-121402845D03*
D32*
X182303622Y-121402845D03*
D31*
X183203622Y-123942845D03*
D32*
X182303622Y-123942845D03*
D31*
X183203622Y-126482845D03*
D32*
X182303622Y-126482845D03*
D31*
X200983622Y-126482845D03*
D32*
X201883622Y-126482845D03*
D31*
X200983622Y-123942845D03*
D32*
X201883622Y-123942845D03*
D33*
X200983622Y-121402845D03*
D32*
X201883622Y-121402845D03*
D31*
X200983622Y-118862845D03*
D32*
X201883622Y-118862845D03*
D31*
X200983622Y-116322845D03*
D32*
X201883622Y-116322845D03*
D31*
X200983622Y-113782845D03*
D32*
X201883622Y-113782845D03*
D31*
X200983622Y-111242845D03*
D32*
X201883622Y-111242845D03*
D33*
X200983622Y-108702845D03*
D32*
X201883622Y-108702845D03*
D31*
X200983622Y-106162845D03*
D32*
X201883622Y-106162845D03*
D31*
X200983622Y-103622845D03*
D32*
X201883622Y-103622845D03*
D31*
X200983622Y-101082845D03*
D32*
X201883622Y-101082845D03*
D31*
X200983622Y-98542845D03*
D32*
X201883622Y-98542845D03*
D33*
X200983622Y-96002845D03*
D32*
X201883622Y-96002845D03*
D31*
X200983622Y-93462845D03*
D32*
X201883622Y-93462845D03*
D31*
X200983622Y-90922845D03*
D32*
X201883622Y-90922845D03*
D31*
X200983622Y-88382845D03*
D32*
X201883622Y-88382845D03*
D31*
X200983622Y-85842845D03*
D32*
X201883622Y-85842845D03*
D33*
X200983622Y-83302845D03*
D32*
X201883622Y-83302845D03*
D31*
X200983622Y-80762845D03*
D32*
X201883622Y-80762845D03*
D31*
X200983622Y-78222845D03*
D32*
X201883622Y-78222845D03*
D31*
X189553622Y-126252845D03*
D34*
X189553622Y-127152845D03*
D33*
X192093622Y-126252845D03*
D34*
X192093622Y-127152845D03*
D31*
X194633622Y-126252845D03*
D34*
X194633622Y-127152845D03*
%TD*%
D15*
%TO.C,R8*%
X157624422Y-124818645D03*
X157624422Y-123168645D03*
%TD*%
D25*
%TO.C,R2*%
X159512222Y-86994445D03*
X157862222Y-86994445D03*
%TD*%
D35*
%TO.C,U1*%
X161278022Y-93566245D03*
D36*
X158738022Y-93566245D03*
X156198022Y-93566245D03*
%TD*%
D37*
%TO.C,R4*%
X166338022Y-92294445D03*
X166338022Y-93944445D03*
%TD*%
D38*
%TO.C,Q1*%
X187470822Y-135931645D03*
D39*
X190010822Y-138471645D03*
X192550822Y-135931645D03*
%TD*%
D15*
%TO.C,R6*%
X157624422Y-118519445D03*
X157624422Y-116869445D03*
%TD*%
D26*
%TO.C,C4*%
X154068422Y-117694445D03*
X151068422Y-117694445D03*
%TD*%
D20*
%TO.C,C7*%
X181476422Y-130798045D03*
X181476422Y-133798045D03*
%TD*%
D37*
%TO.C,R11*%
X174161222Y-104892845D03*
X174161222Y-106542845D03*
%TD*%
D40*
%TO.C,J1*%
X158984022Y-82864145D03*
D41*
X156964022Y-82864145D03*
D42*
X155734022Y-82864145D03*
D43*
X157984022Y-82864145D03*
D44*
X160004022Y-82864145D03*
D45*
X161234022Y-82864145D03*
D46*
X163609022Y-82809145D03*
D47*
X163609022Y-79229145D03*
D46*
X153359022Y-82809145D03*
D47*
X153359022Y-79229145D03*
%TD*%
D48*
%TO.C,J2*%
X174821622Y-132185345D03*
D17*
X174821622Y-131185345D03*
%TD*%
D37*
%TO.C,R5*%
X166358022Y-95337645D03*
X166358022Y-96987645D03*
%TD*%
D49*
%TO.C,D1*%
X165286222Y-86840445D03*
D50*
X167826222Y-86840445D03*
%TD*%
D51*
%TO.C,U5*%
X153262022Y-113610845D03*
X155802022Y-113610845D03*
X158342022Y-113610845D03*
X160882022Y-113610845D03*
X160882022Y-100210845D03*
X158342022Y-100210845D03*
X155802022Y-100210845D03*
X153262022Y-100210845D03*
%TD*%
D52*
%TO.C,D2*%
X165982422Y-130521845D03*
X165982422Y-136896845D03*
%TD*%
%LPD*%
M02*
