M48
; DRILL file {KiCad 7.0.9} date 
; FORMAT={-:-/ absolute / metric / decimal}
; #@! TF.CreationDate,2024-02-03T19:56:07+01:00
; #@! TF.GenerationSoftware,Kicad,Pcbnew,7.0.9
; #@! TF.FileFunction,Plated,1,2,PTH
FMAT,2
METRIC
; #@! TA.AperFunction,Plated,PTH,ViaDrill
T1C0.400
; #@! TA.AperFunction,Plated,PTH,ComponentDrill
T2C0.600
; #@! TA.AperFunction,Plated,PTH,ComponentDrill
T3C0.750
; #@! TA.AperFunction,Plated,PTH,ComponentDrill
T4C0.800
; #@! TA.AperFunction,Plated,PTH,ComponentDrill
T5C0.900
; #@! TA.AperFunction,Plated,PTH,ComponentDrill
T6C1.000
; #@! TA.AperFunction,Plated,PTH,ComponentDrill
T7C1.020
; #@! TA.AperFunction,Plated,PTH,ComponentDrill
T8C1.100
; #@! TA.AperFunction,Plated,PTH,ComponentDrill
T9C1.230
%
G90
G05
T1
X145.435Y-84.025
X147.835Y-84.075
X149.985Y-84.025
X154.185Y-69.825
X162.235Y-70.875
X165.635Y-71.925
T3
X162.785Y-68.3
X164.055Y-67.03
X165.325Y-68.3
T4
X141.915Y-63.255
X141.915Y-65.795
X141.915Y-68.335
X141.915Y-70.875
X142.435Y-74.825
X142.435Y-88.225
X144.975Y-74.825
X144.975Y-88.225
X147.515Y-74.825
X147.515Y-88.225
X149.535Y-63.255
X149.535Y-65.795
X149.535Y-68.335
X149.535Y-70.875
X150.055Y-74.825
X150.055Y-88.225
T5
X150.51Y-58.225
X153.05Y-58.225
T6
X143.86Y-94.75
X146.4Y-94.75
X148.94Y-94.75
X151.48Y-94.75
X153.595Y-79.275
X154.02Y-94.75
X156.135Y-79.275
X156.56Y-94.75
X161.745Y-90.975
X164.285Y-90.975
T7
X172.235Y-48.215
X172.235Y-50.755
X172.235Y-53.295
X172.235Y-55.835
X172.235Y-58.375
X172.235Y-60.915
X172.235Y-63.455
X172.235Y-65.995
X172.235Y-68.535
X172.235Y-71.075
X172.235Y-73.615
X172.235Y-76.155
X172.235Y-78.695
X172.235Y-81.235
X172.235Y-83.775
X172.235Y-86.315
X172.235Y-88.855
X172.235Y-91.395
X172.235Y-93.935
X172.235Y-96.475
X178.585Y-96.245
X181.125Y-96.245
X183.665Y-96.245
X190.015Y-48.215
X190.015Y-50.755
X190.015Y-53.295
X190.015Y-55.835
X190.015Y-58.375
X190.015Y-60.915
X190.015Y-63.455
X190.015Y-65.995
X190.015Y-68.535
X190.015Y-71.075
X190.015Y-73.615
X190.015Y-76.155
X190.015Y-78.695
X190.015Y-81.235
X190.015Y-83.775
X190.015Y-86.315
X190.015Y-88.855
X190.015Y-91.395
X190.015Y-93.935
X190.015Y-96.475
T8
X153.6Y-82.602
X153.6Y-86.412
X156.785Y-50.526
X156.785Y-53.066
X156.785Y-55.606
X157.85Y-82.627
X157.85Y-86.437
X162.163Y-59.8
X165.973Y-59.8
T9
X162.045Y-80.735
X162.045Y-83.275
X162.045Y-85.815
T2
G00X142.695Y-48.98
M15
G01X142.695Y-48.38
M16
G05
G00X142.695Y-52.78
M15
G01X142.695Y-52.18
M16
G05
G00X151.335Y-48.98
M15
G01X151.335Y-48.38
M16
G05
G00X151.335Y-52.78
M15
G01X151.335Y-52.18
M16
G05
T0
M30
