%TF.GenerationSoftware,KiCad,Pcbnew,7.0.9*%
%TF.CreationDate,2024-06-06T15:59:11+02:00*%
%TF.ProjectId,Differential,44696666-6572-4656-9e74-69616c2e6b69,rev?*%
%TF.SameCoordinates,Original*%
%TF.FileFunction,Paste,Top*%
%TF.FilePolarity,Positive*%
%FSLAX46Y46*%
G04 Gerber Fmt 4.6, Leading zero omitted, Abs format (unit mm)*
G04 Created by KiCad (PCBNEW 7.0.9) date 2024-06-06 15:59:11*
%MOMM*%
%LPD*%
G01*
G04 APERTURE LIST*
G04 Aperture macros list*
%AMRoundRect*
0 Rectangle with rounded corners*
0 $1 Rounding radius*
0 $2 $3 $4 $5 $6 $7 $8 $9 X,Y pos of 4 corners*
0 Add a 4 corners polygon primitive as box body*
4,1,4,$2,$3,$4,$5,$6,$7,$8,$9,$2,$3,0*
0 Add four circle primitives for the rounded corners*
1,1,$1+$1,$2,$3*
1,1,$1+$1,$4,$5*
1,1,$1+$1,$6,$7*
1,1,$1+$1,$8,$9*
0 Add four rect primitives between the rounded corners*
20,1,$1+$1,$2,$3,$4,$5,0*
20,1,$1+$1,$4,$5,$6,$7,0*
20,1,$1+$1,$6,$7,$8,$9,0*
20,1,$1+$1,$8,$9,$2,$3,0*%
G04 Aperture macros list end*
%ADD10RoundRect,0.237500X-0.250000X-0.237500X0.250000X-0.237500X0.250000X0.237500X-0.250000X0.237500X0*%
%ADD11RoundRect,0.250000X-0.337500X-0.475000X0.337500X-0.475000X0.337500X0.475000X-0.337500X0.475000X0*%
%ADD12RoundRect,0.237500X0.250000X0.237500X-0.250000X0.237500X-0.250000X-0.237500X0.250000X-0.237500X0*%
%ADD13RoundRect,0.175000X0.175000X0.425000X-0.175000X0.425000X-0.175000X-0.425000X0.175000X-0.425000X0*%
%ADD14RoundRect,0.190000X-0.190000X-0.410000X0.190000X-0.410000X0.190000X0.410000X-0.190000X0.410000X0*%
%ADD15RoundRect,0.200000X-0.200000X-0.400000X0.200000X-0.400000X0.200000X0.400000X-0.200000X0.400000X0*%
%ADD16RoundRect,0.175000X-0.175000X-0.425000X0.175000X-0.425000X0.175000X0.425000X-0.175000X0.425000X0*%
%ADD17RoundRect,0.190000X0.190000X0.410000X-0.190000X0.410000X-0.190000X-0.410000X0.190000X-0.410000X0*%
%ADD18RoundRect,0.200000X0.200000X0.400000X-0.200000X0.400000X-0.200000X-0.400000X0.200000X-0.400000X0*%
%ADD19O,1.100000X1.700000*%
%ADD20RoundRect,0.250000X0.337500X0.475000X-0.337500X0.475000X-0.337500X-0.475000X0.337500X-0.475000X0*%
G04 APERTURE END LIST*
D10*
%TO.C,R17*%
X225197500Y-134445000D03*
X227022500Y-134445000D03*
%TD*%
D11*
%TO.C,C2*%
X245097500Y-100495000D03*
X247172500Y-100495000D03*
%TD*%
D10*
%TO.C,R15*%
X237135000Y-119595000D03*
X238960000Y-119595000D03*
%TD*%
D11*
%TO.C,C4*%
X241722500Y-113795000D03*
X243797500Y-113795000D03*
%TD*%
D10*
%TO.C,R19*%
X225197500Y-140645000D03*
X227022500Y-140645000D03*
%TD*%
%TO.C,R14*%
X237135000Y-116325000D03*
X238960000Y-116325000D03*
%TD*%
D12*
%TO.C,R1*%
X226267500Y-100995000D03*
X224442500Y-100995000D03*
%TD*%
D13*
%TO.C,J1*%
X229625000Y-97425000D03*
D14*
X227605000Y-97425000D03*
D15*
X226375000Y-97425000D03*
D16*
X228625000Y-97425000D03*
D17*
X230645000Y-97425000D03*
D18*
X231875000Y-97425000D03*
D19*
X233445000Y-97345000D03*
X233445000Y-93545000D03*
X224805000Y-97345000D03*
X224805000Y-93545000D03*
%TD*%
D10*
%TO.C,R4*%
X244992500Y-94095000D03*
X246817500Y-94095000D03*
%TD*%
D20*
%TO.C,C5*%
X243935000Y-117345000D03*
X241860000Y-117345000D03*
%TD*%
D10*
%TO.C,R12*%
X237135000Y-109895000D03*
X238960000Y-109895000D03*
%TD*%
%TO.C,R13*%
X237135000Y-113095000D03*
X238960000Y-113095000D03*
%TD*%
D11*
%TO.C,C9*%
X230472500Y-124595000D03*
X232547500Y-124595000D03*
%TD*%
D20*
%TO.C,C10*%
X232347500Y-136195000D03*
X230272500Y-136195000D03*
%TD*%
D10*
%TO.C,R18*%
X225197500Y-137545000D03*
X227022500Y-137545000D03*
%TD*%
%TO.C,R2*%
X228142500Y-100995000D03*
X229967500Y-100995000D03*
%TD*%
D12*
%TO.C,R20*%
X227022500Y-128245000D03*
X225197500Y-128245000D03*
%TD*%
D10*
%TO.C,R6*%
X182835000Y-115845000D03*
X184660000Y-115845000D03*
%TD*%
%TO.C,R7*%
X182885000Y-111345000D03*
X184710000Y-111345000D03*
%TD*%
%TO.C,R8*%
X182747500Y-124385000D03*
X184572500Y-124385000D03*
%TD*%
%TO.C,R3*%
X228142500Y-104445000D03*
X229967500Y-104445000D03*
%TD*%
%TO.C,R9*%
X182697500Y-128895000D03*
X184522500Y-128895000D03*
%TD*%
D11*
%TO.C,C3*%
X241665000Y-110145000D03*
X243740000Y-110145000D03*
%TD*%
D20*
%TO.C,C1*%
X242042500Y-105945000D03*
X239967500Y-105945000D03*
%TD*%
D10*
%TO.C,R10*%
X182947500Y-107545000D03*
X184772500Y-107545000D03*
%TD*%
%TO.C,R11*%
X182697500Y-120845000D03*
X184522500Y-120845000D03*
%TD*%
%TO.C,R21*%
X225197500Y-131295000D03*
X227022500Y-131295000D03*
%TD*%
%TO.C,R5*%
X244992500Y-97145000D03*
X246817500Y-97145000D03*
%TD*%
D20*
%TO.C,C6*%
X243885000Y-121045000D03*
X241810000Y-121045000D03*
%TD*%
D11*
%TO.C,C7*%
X230310000Y-128395000D03*
X232385000Y-128395000D03*
%TD*%
D10*
%TO.C,R16*%
X237135000Y-122945000D03*
X238960000Y-122945000D03*
%TD*%
D11*
%TO.C,C8*%
X230360000Y-132195000D03*
X232435000Y-132195000D03*
%TD*%
M02*
