M48
; DRILL file {KiCad 7.0.9} date 
; FORMAT={-:-/ absolute / metric / decimal}
; #@! TF.CreationDate,2024-06-06T15:59:14+02:00
; #@! TF.GenerationSoftware,Kicad,Pcbnew,7.0.9
; #@! TF.FileFunction,Plated,1,2,PTH
FMAT,2
METRIC
; #@! TA.AperFunction,Plated,PTH,ViaDrill
T1C0.400
; #@! TA.AperFunction,Plated,PTH,ComponentDrill
T2C0.600
; #@! TA.AperFunction,Plated,PTH,ComponentDrill
T3C0.750
; #@! TA.AperFunction,Plated,PTH,ComponentDrill
T4C0.800
; #@! TA.AperFunction,Plated,PTH,ComponentDrill
T5C0.900
; #@! TA.AperFunction,Plated,PTH,ComponentDrill
T6C1.000
; #@! TA.AperFunction,Plated,PTH,ComponentDrill
T7C1.020
; #@! TA.AperFunction,Plated,PTH,ComponentDrill
T8C1.100
; #@! TA.AperFunction,Plated,PTH,ComponentDrill
T9C1.230
%
G90
G05
T1
X158.4Y-138.425
X158.45Y-144.925
X162.5Y-148.625
X166.15Y-114.1
X166.5Y-147.475
X169.31Y-113.685
X184.55Y-127.325
X186.0Y-122.875
X186.15Y-120.625
X187.15Y-116.575
X187.55Y-122.075
X189.0Y-128.475
X220.428Y-100.078
X225.55Y-142.475
X226.95Y-126.725
X227.35Y-114.075
X228.25Y-111.525
X228.5Y-139.225
X229.194Y-131.981
X230.5Y-121.875
X230.95Y-138.925
X232.25Y-126.475
X232.35Y-133.675
X233.75Y-135.725
X234.85Y-108.625
X235.0Y-114.825
X235.05Y-112.025
X236.0Y-95.7
X236.85Y-114.625
X238.85Y-117.825
X240.4Y-113.225
X240.4Y-114.075
X240.45Y-116.275
X241.4Y-112.025
T3
X225.11Y-123.495
X226.38Y-122.225
X227.65Y-123.495
X247.62Y-115.845
X248.89Y-114.575
X250.16Y-115.845
T4
X152.0Y-114.125
X152.0Y-127.525
X152.1Y-133.375
X152.1Y-146.775
X152.3Y-93.775
X152.3Y-107.175
X154.54Y-114.125
X154.54Y-127.525
X154.64Y-133.375
X154.64Y-146.775
X154.84Y-93.775
X154.84Y-107.175
X157.08Y-114.125
X157.08Y-127.525
X157.18Y-133.375
X157.18Y-146.775
X157.38Y-93.775
X157.38Y-107.175
X159.62Y-114.125
X159.62Y-127.525
X159.72Y-133.375
X159.72Y-146.775
X159.92Y-93.775
X159.92Y-107.175
X224.95Y-108.875
X224.95Y-111.415
X224.95Y-113.955
X224.95Y-116.495
X232.57Y-108.875
X232.57Y-111.415
X232.57Y-113.955
X232.57Y-116.495
T5
X232.96Y-103.525
X235.5Y-103.525
T6
X169.0Y-134.0
X169.0Y-136.54
X173.38Y-140.0
X174.4Y-126.61
X174.4Y-129.15
X175.92Y-140.0
X178.46Y-140.0
X181.0Y-140.0
X183.36Y-96.105
X183.36Y-98.645
X183.36Y-101.185
X183.54Y-140.0
X186.08Y-140.0
X237.395Y-134.595
X239.935Y-134.595
X242.145Y-126.795
X244.685Y-126.795
T7
X194.42Y-95.965
X194.42Y-98.505
X194.42Y-101.045
X194.42Y-103.585
X194.42Y-106.125
X194.42Y-108.665
X194.42Y-111.205
X194.42Y-113.745
X194.42Y-116.285
X194.42Y-118.825
X194.42Y-121.365
X194.42Y-123.905
X194.42Y-126.445
X194.42Y-128.985
X194.42Y-131.525
X194.42Y-134.065
X194.42Y-136.605
X194.42Y-139.145
X194.42Y-141.685
X194.42Y-144.225
X200.77Y-143.995
X203.31Y-143.995
X205.85Y-143.995
X212.2Y-95.965
X212.2Y-98.505
X212.2Y-101.045
X212.2Y-103.585
X212.2Y-106.125
X212.2Y-108.665
X212.2Y-111.205
X212.2Y-113.745
X212.2Y-116.285
X212.2Y-118.825
X212.2Y-121.365
X212.2Y-123.905
X212.2Y-126.445
X212.2Y-128.985
X212.2Y-131.525
X212.2Y-134.065
X212.2Y-136.605
X212.2Y-139.145
X212.2Y-141.685
X212.2Y-144.225
T8
X172.35Y-105.475
X172.54Y-110.675
X176.16Y-105.475
X176.35Y-110.675
X236.822Y-138.995
X240.21Y-94.555
X240.21Y-97.095
X240.21Y-99.635
X240.632Y-138.995
X245.818Y-105.245
X249.628Y-105.245
X249.66Y-123.122
X249.66Y-126.932
T9
X169.31Y-116.765
X171.0Y-98.0
X171.85Y-116.765
X173.54Y-98.0
X174.39Y-116.765
X176.08Y-98.0
T2
G00X224.805Y-93.845
M15
G01X224.805Y-93.245
M16
G05
G00X224.805Y-97.645
M15
G01X224.805Y-97.045
M16
G05
G00X233.445Y-93.845
M15
G01X233.445Y-93.245
M16
G05
G00X233.445Y-97.645
M15
G01X233.445Y-97.045
M16
G05
T0
M30
