%TF.GenerationSoftware,KiCad,Pcbnew,7.0.9*%
%TF.CreationDate,2024-06-04T21:04:57+02:00*%
%TF.ProjectId,Differential,44696666-6572-4656-9e74-69616c2e6b69,rev?*%
%TF.SameCoordinates,Original*%
%TF.FileFunction,Paste,Top*%
%TF.FilePolarity,Positive*%
%FSLAX46Y46*%
G04 Gerber Fmt 4.6, Leading zero omitted, Abs format (unit mm)*
G04 Created by KiCad (PCBNEW 7.0.9) date 2024-06-04 21:04:57*
%MOMM*%
%LPD*%
G01*
G04 APERTURE LIST*
G04 Aperture macros list*
%AMRoundRect*
0 Rectangle with rounded corners*
0 $1 Rounding radius*
0 $2 $3 $4 $5 $6 $7 $8 $9 X,Y pos of 4 corners*
0 Add a 4 corners polygon primitive as box body*
4,1,4,$2,$3,$4,$5,$6,$7,$8,$9,$2,$3,0*
0 Add four circle primitives for the rounded corners*
1,1,$1+$1,$2,$3*
1,1,$1+$1,$4,$5*
1,1,$1+$1,$6,$7*
1,1,$1+$1,$8,$9*
0 Add four rect primitives between the rounded corners*
20,1,$1+$1,$2,$3,$4,$5,0*
20,1,$1+$1,$4,$5,$6,$7,0*
20,1,$1+$1,$6,$7,$8,$9,0*
20,1,$1+$1,$8,$9,$2,$3,0*%
G04 Aperture macros list end*
%ADD10RoundRect,0.237500X-0.250000X-0.237500X0.250000X-0.237500X0.250000X0.237500X-0.250000X0.237500X0*%
%ADD11RoundRect,0.250000X-0.337500X-0.475000X0.337500X-0.475000X0.337500X0.475000X-0.337500X0.475000X0*%
%ADD12RoundRect,0.237500X0.250000X0.237500X-0.250000X0.237500X-0.250000X-0.237500X0.250000X-0.237500X0*%
%ADD13RoundRect,0.175000X0.175000X0.425000X-0.175000X0.425000X-0.175000X-0.425000X0.175000X-0.425000X0*%
%ADD14RoundRect,0.190000X-0.190000X-0.410000X0.190000X-0.410000X0.190000X0.410000X-0.190000X0.410000X0*%
%ADD15RoundRect,0.200000X-0.200000X-0.400000X0.200000X-0.400000X0.200000X0.400000X-0.200000X0.400000X0*%
%ADD16RoundRect,0.175000X-0.175000X-0.425000X0.175000X-0.425000X0.175000X0.425000X-0.175000X0.425000X0*%
%ADD17RoundRect,0.190000X0.190000X0.410000X-0.190000X0.410000X-0.190000X-0.410000X0.190000X-0.410000X0*%
%ADD18RoundRect,0.200000X0.200000X0.400000X-0.200000X0.400000X-0.200000X-0.400000X0.200000X-0.400000X0*%
%ADD19O,1.100000X1.700000*%
%ADD20RoundRect,0.250000X0.337500X0.475000X-0.337500X0.475000X-0.337500X-0.475000X0.337500X-0.475000X0*%
G04 APERTURE END LIST*
D10*
%TO.C,R17*%
X214047500Y-134520000D03*
X215872500Y-134520000D03*
%TD*%
D11*
%TO.C,C2*%
X233947500Y-100570000D03*
X236022500Y-100570000D03*
%TD*%
D10*
%TO.C,R15*%
X225985000Y-119670000D03*
X227810000Y-119670000D03*
%TD*%
D11*
%TO.C,C4*%
X230572500Y-113870000D03*
X232647500Y-113870000D03*
%TD*%
D10*
%TO.C,R19*%
X214047500Y-140720000D03*
X215872500Y-140720000D03*
%TD*%
%TO.C,R14*%
X225985000Y-116400000D03*
X227810000Y-116400000D03*
%TD*%
D12*
%TO.C,R1*%
X215117500Y-101070000D03*
X213292500Y-101070000D03*
%TD*%
D13*
%TO.C,J1*%
X218475000Y-97500000D03*
D14*
X216455000Y-97500000D03*
D15*
X215225000Y-97500000D03*
D16*
X217475000Y-97500000D03*
D17*
X219495000Y-97500000D03*
D18*
X220725000Y-97500000D03*
D19*
X222295000Y-97420000D03*
X222295000Y-93620000D03*
X213655000Y-97420000D03*
X213655000Y-93620000D03*
%TD*%
D10*
%TO.C,R4*%
X233842500Y-94170000D03*
X235667500Y-94170000D03*
%TD*%
D20*
%TO.C,C5*%
X232785000Y-117420000D03*
X230710000Y-117420000D03*
%TD*%
D10*
%TO.C,R12*%
X225985000Y-109970000D03*
X227810000Y-109970000D03*
%TD*%
%TO.C,R13*%
X225985000Y-113170000D03*
X227810000Y-113170000D03*
%TD*%
D11*
%TO.C,C9*%
X219322500Y-124670000D03*
X221397500Y-124670000D03*
%TD*%
D20*
%TO.C,C10*%
X221197500Y-136270000D03*
X219122500Y-136270000D03*
%TD*%
D10*
%TO.C,R18*%
X214047500Y-137620000D03*
X215872500Y-137620000D03*
%TD*%
%TO.C,R2*%
X216992500Y-101070000D03*
X218817500Y-101070000D03*
%TD*%
D12*
%TO.C,R20*%
X215872500Y-128320000D03*
X214047500Y-128320000D03*
%TD*%
D10*
%TO.C,R6*%
X171685000Y-115920000D03*
X173510000Y-115920000D03*
%TD*%
%TO.C,R7*%
X171735000Y-111420000D03*
X173560000Y-111420000D03*
%TD*%
%TO.C,R8*%
X171597500Y-124460000D03*
X173422500Y-124460000D03*
%TD*%
%TO.C,R3*%
X216992500Y-104520000D03*
X218817500Y-104520000D03*
%TD*%
%TO.C,R9*%
X171547500Y-128970000D03*
X173372500Y-128970000D03*
%TD*%
D11*
%TO.C,C3*%
X230515000Y-110220000D03*
X232590000Y-110220000D03*
%TD*%
D20*
%TO.C,C1*%
X230892500Y-106020000D03*
X228817500Y-106020000D03*
%TD*%
D10*
%TO.C,R10*%
X171797500Y-107620000D03*
X173622500Y-107620000D03*
%TD*%
%TO.C,R11*%
X171547500Y-120920000D03*
X173372500Y-120920000D03*
%TD*%
%TO.C,R21*%
X214047500Y-131370000D03*
X215872500Y-131370000D03*
%TD*%
%TO.C,R5*%
X233842500Y-97220000D03*
X235667500Y-97220000D03*
%TD*%
D20*
%TO.C,C6*%
X232735000Y-121120000D03*
X230660000Y-121120000D03*
%TD*%
D11*
%TO.C,C7*%
X219160000Y-128470000D03*
X221235000Y-128470000D03*
%TD*%
D10*
%TO.C,R16*%
X225985000Y-123020000D03*
X227810000Y-123020000D03*
%TD*%
D11*
%TO.C,C8*%
X219210000Y-132270000D03*
X221285000Y-132270000D03*
%TD*%
M02*
