%TF.GenerationSoftware,KiCad,Pcbnew,7.0.9*%
%TF.CreationDate,2024-06-04T21:04:58+02:00*%
%TF.ProjectId,Differential,44696666-6572-4656-9e74-69616c2e6b69,rev?*%
%TF.SameCoordinates,Original*%
%TF.FileFunction,Legend,Bot*%
%TF.FilePolarity,Positive*%
%FSLAX46Y46*%
G04 Gerber Fmt 4.6, Leading zero omitted, Abs format (unit mm)*
G04 Created by KiCad (PCBNEW 7.0.9) date 2024-06-04 21:04:58*
%MOMM*%
%LPD*%
G01*
G04 APERTURE LIST*
G04 Aperture macros list*
%AMRoundRect*
0 Rectangle with rounded corners*
0 $1 Rounding radius*
0 $2 $3 $4 $5 $6 $7 $8 $9 X,Y pos of 4 corners*
0 Add a 4 corners polygon primitive as box body*
4,1,4,$2,$3,$4,$5,$6,$7,$8,$9,$2,$3,0*
0 Add four circle primitives for the rounded corners*
1,1,$1+$1,$2,$3*
1,1,$1+$1,$4,$5*
1,1,$1+$1,$6,$7*
1,1,$1+$1,$8,$9*
0 Add four rect primitives between the rounded corners*
20,1,$1+$1,$2,$3,$4,$5,0*
20,1,$1+$1,$4,$5,$6,$7,0*
20,1,$1+$1,$6,$7,$8,$9,0*
20,1,$1+$1,$8,$9,$2,$3,0*%
G04 Aperture macros list end*
%ADD10C,0.150000*%
%ADD11RoundRect,0.050000X1.100000X1.100000X-1.100000X1.100000X-1.100000X-1.100000X1.100000X-1.100000X0*%
%ADD12O,2.300000X2.300000*%
%ADD13RoundRect,0.050000X-0.900000X-0.900000X0.900000X-0.900000X0.900000X0.900000X-0.900000X0.900000X0*%
%ADD14C,1.900000*%
%ADD15RoundRect,0.102000X0.925000X0.925000X-0.925000X0.925000X-0.925000X-0.925000X0.925000X-0.925000X0*%
%ADD16C,2.054000*%
%ADD17RoundRect,0.050000X-1.100000X-1.100000X1.100000X-1.100000X1.100000X1.100000X-1.100000X1.100000X0*%
%ADD18RoundRect,0.050000X0.850000X0.850000X-0.850000X0.850000X-0.850000X-0.850000X0.850000X-0.850000X0*%
%ADD19O,1.800000X1.800000*%
%ADD20RoundRect,0.050000X0.850000X-0.850000X0.850000X0.850000X-0.850000X0.850000X-0.850000X-0.850000X0*%
%ADD21RoundRect,0.050000X-0.650000X-0.650000X0.650000X-0.650000X0.650000X0.650000X-0.650000X0.650000X0*%
%ADD22C,1.400000*%
%ADD23O,1.200000X1.800000*%
%ADD24RoundRect,0.050000X-0.850000X-0.850000X0.850000X-0.850000X0.850000X0.850000X-0.850000X0.850000X0*%
%ADD25O,1.900000X1.900000*%
%ADD26O,1.600000X1.600000*%
%ADD27RoundRect,0.050000X-0.850000X0.850000X-0.850000X-0.850000X0.850000X-0.850000X0.850000X0.850000X0*%
%ADD28RoundRect,0.050000X-1.000000X0.952500X-1.000000X-0.952500X1.000000X-0.952500X1.000000X0.952500X0*%
%ADD29O,2.100000X2.005000*%
%ADD30RoundRect,0.050000X1.100000X-1.100000X1.100000X1.100000X-1.100000X1.100000X-1.100000X-1.100000X0*%
%ADD31O,1.700000X1.700000*%
%ADD32RoundRect,0.050000X-0.800000X-0.800000X0.800000X-0.800000X0.800000X0.800000X-0.800000X0.800000X0*%
G04 APERTURE END LIST*
D10*
X175656077Y-94469819D02*
X175084649Y-94469819D01*
X175370363Y-95469819D02*
X175370363Y-94469819D01*
X174846553Y-94469819D02*
X174179887Y-95469819D01*
X174179887Y-94469819D02*
X174846553Y-95469819D01*
X154469819Y-135186779D02*
X153469819Y-135186779D01*
X153469819Y-135186779D02*
X154184104Y-135520112D01*
X154184104Y-135520112D02*
X153469819Y-135853445D01*
X153469819Y-135853445D02*
X154469819Y-135853445D01*
X154469819Y-136329636D02*
X153803152Y-136329636D01*
X153469819Y-136329636D02*
X153517438Y-136282017D01*
X153517438Y-136282017D02*
X153565057Y-136329636D01*
X153565057Y-136329636D02*
X153517438Y-136377255D01*
X153517438Y-136377255D02*
X153469819Y-136329636D01*
X153469819Y-136329636D02*
X153565057Y-136329636D01*
X154469819Y-137234397D02*
X153469819Y-137234397D01*
X154422200Y-137234397D02*
X154469819Y-137139159D01*
X154469819Y-137139159D02*
X154469819Y-136948683D01*
X154469819Y-136948683D02*
X154422200Y-136853445D01*
X154422200Y-136853445D02*
X154374580Y-136805826D01*
X154374580Y-136805826D02*
X154279342Y-136758207D01*
X154279342Y-136758207D02*
X153993628Y-136758207D01*
X153993628Y-136758207D02*
X153898390Y-136805826D01*
X153898390Y-136805826D02*
X153850771Y-136853445D01*
X153850771Y-136853445D02*
X153803152Y-136948683D01*
X153803152Y-136948683D02*
X153803152Y-137139159D01*
X153803152Y-137139159D02*
X153850771Y-137234397D01*
X154469819Y-138139159D02*
X153469819Y-138139159D01*
X154422200Y-138139159D02*
X154469819Y-138043921D01*
X154469819Y-138043921D02*
X154469819Y-137853445D01*
X154469819Y-137853445D02*
X154422200Y-137758207D01*
X154422200Y-137758207D02*
X154374580Y-137710588D01*
X154374580Y-137710588D02*
X154279342Y-137662969D01*
X154279342Y-137662969D02*
X153993628Y-137662969D01*
X153993628Y-137662969D02*
X153898390Y-137710588D01*
X153898390Y-137710588D02*
X153850771Y-137758207D01*
X153850771Y-137758207D02*
X153803152Y-137853445D01*
X153803152Y-137853445D02*
X153803152Y-138043921D01*
X153803152Y-138043921D02*
X153850771Y-138139159D01*
X154469819Y-138758207D02*
X154422200Y-138662969D01*
X154422200Y-138662969D02*
X154326961Y-138615350D01*
X154326961Y-138615350D02*
X153469819Y-138615350D01*
X154422200Y-139520112D02*
X154469819Y-139424874D01*
X154469819Y-139424874D02*
X154469819Y-139234398D01*
X154469819Y-139234398D02*
X154422200Y-139139160D01*
X154422200Y-139139160D02*
X154326961Y-139091541D01*
X154326961Y-139091541D02*
X153946009Y-139091541D01*
X153946009Y-139091541D02*
X153850771Y-139139160D01*
X153850771Y-139139160D02*
X153803152Y-139234398D01*
X153803152Y-139234398D02*
X153803152Y-139424874D01*
X153803152Y-139424874D02*
X153850771Y-139520112D01*
X153850771Y-139520112D02*
X153946009Y-139567731D01*
X153946009Y-139567731D02*
X154041247Y-139567731D01*
X154041247Y-139567731D02*
X154136485Y-139091541D01*
X153469819Y-140615351D02*
X154469819Y-140948684D01*
X154469819Y-140948684D02*
X153469819Y-141282017D01*
X154469819Y-142043922D02*
X153946009Y-142043922D01*
X153946009Y-142043922D02*
X153850771Y-141996303D01*
X153850771Y-141996303D02*
X153803152Y-141901065D01*
X153803152Y-141901065D02*
X153803152Y-141710589D01*
X153803152Y-141710589D02*
X153850771Y-141615351D01*
X154422200Y-142043922D02*
X154469819Y-141948684D01*
X154469819Y-141948684D02*
X154469819Y-141710589D01*
X154469819Y-141710589D02*
X154422200Y-141615351D01*
X154422200Y-141615351D02*
X154326961Y-141567732D01*
X154326961Y-141567732D02*
X154231723Y-141567732D01*
X154231723Y-141567732D02*
X154136485Y-141615351D01*
X154136485Y-141615351D02*
X154088866Y-141710589D01*
X154088866Y-141710589D02*
X154088866Y-141948684D01*
X154088866Y-141948684D02*
X154041247Y-142043922D01*
X154469819Y-142662970D02*
X154422200Y-142567732D01*
X154422200Y-142567732D02*
X154326961Y-142520113D01*
X154326961Y-142520113D02*
X153469819Y-142520113D01*
X153803152Y-142948685D02*
X154469819Y-143186780D01*
X154469819Y-143186780D02*
X153803152Y-143424875D01*
X154422200Y-144186780D02*
X154469819Y-144091542D01*
X154469819Y-144091542D02*
X154469819Y-143901066D01*
X154469819Y-143901066D02*
X154422200Y-143805828D01*
X154422200Y-143805828D02*
X154326961Y-143758209D01*
X154326961Y-143758209D02*
X153946009Y-143758209D01*
X153946009Y-143758209D02*
X153850771Y-143805828D01*
X153850771Y-143805828D02*
X153803152Y-143901066D01*
X153803152Y-143901066D02*
X153803152Y-144091542D01*
X153803152Y-144091542D02*
X153850771Y-144186780D01*
X153850771Y-144186780D02*
X153946009Y-144234399D01*
X153946009Y-144234399D02*
X154041247Y-144234399D01*
X154041247Y-144234399D02*
X154136485Y-143758209D01*
X175191792Y-98069819D02*
X175525125Y-97593628D01*
X175763220Y-98069819D02*
X175763220Y-97069819D01*
X175763220Y-97069819D02*
X175382268Y-97069819D01*
X175382268Y-97069819D02*
X175287030Y-97117438D01*
X175287030Y-97117438D02*
X175239411Y-97165057D01*
X175239411Y-97165057D02*
X175191792Y-97260295D01*
X175191792Y-97260295D02*
X175191792Y-97403152D01*
X175191792Y-97403152D02*
X175239411Y-97498390D01*
X175239411Y-97498390D02*
X175287030Y-97546009D01*
X175287030Y-97546009D02*
X175382268Y-97593628D01*
X175382268Y-97593628D02*
X175763220Y-97593628D01*
X174858458Y-97069819D02*
X174191792Y-98069819D01*
X174191792Y-97069819D02*
X174858458Y-98069819D01*
X241006077Y-132669819D02*
X240672744Y-133669819D01*
X240672744Y-133669819D02*
X240339411Y-132669819D01*
X239577506Y-133669819D02*
X239577506Y-133146009D01*
X239577506Y-133146009D02*
X239625125Y-133050771D01*
X239625125Y-133050771D02*
X239720363Y-133003152D01*
X239720363Y-133003152D02*
X239910839Y-133003152D01*
X239910839Y-133003152D02*
X240006077Y-133050771D01*
X239577506Y-133622200D02*
X239672744Y-133669819D01*
X239672744Y-133669819D02*
X239910839Y-133669819D01*
X239910839Y-133669819D02*
X240006077Y-133622200D01*
X240006077Y-133622200D02*
X240053696Y-133526961D01*
X240053696Y-133526961D02*
X240053696Y-133431723D01*
X240053696Y-133431723D02*
X240006077Y-133336485D01*
X240006077Y-133336485D02*
X239910839Y-133288866D01*
X239910839Y-133288866D02*
X239672744Y-133288866D01*
X239672744Y-133288866D02*
X239577506Y-133241247D01*
X238958458Y-133669819D02*
X239053696Y-133622200D01*
X239053696Y-133622200D02*
X239101315Y-133526961D01*
X239101315Y-133526961D02*
X239101315Y-132669819D01*
X238672743Y-133003152D02*
X238434648Y-133669819D01*
X238434648Y-133669819D02*
X238196553Y-133003152D01*
X237434648Y-133622200D02*
X237529886Y-133669819D01*
X237529886Y-133669819D02*
X237720362Y-133669819D01*
X237720362Y-133669819D02*
X237815600Y-133622200D01*
X237815600Y-133622200D02*
X237863219Y-133526961D01*
X237863219Y-133526961D02*
X237863219Y-133146009D01*
X237863219Y-133146009D02*
X237815600Y-133050771D01*
X237815600Y-133050771D02*
X237720362Y-133003152D01*
X237720362Y-133003152D02*
X237529886Y-133003152D01*
X237529886Y-133003152D02*
X237434648Y-133050771D01*
X237434648Y-133050771D02*
X237387029Y-133146009D01*
X237387029Y-133146009D02*
X237387029Y-133241247D01*
X237387029Y-133241247D02*
X237863219Y-133336485D01*
X235863219Y-133146009D02*
X235720362Y-133193628D01*
X235720362Y-133193628D02*
X235672743Y-133241247D01*
X235672743Y-133241247D02*
X235625124Y-133336485D01*
X235625124Y-133336485D02*
X235625124Y-133479342D01*
X235625124Y-133479342D02*
X235672743Y-133574580D01*
X235672743Y-133574580D02*
X235720362Y-133622200D01*
X235720362Y-133622200D02*
X235815600Y-133669819D01*
X235815600Y-133669819D02*
X236196552Y-133669819D01*
X236196552Y-133669819D02*
X236196552Y-132669819D01*
X236196552Y-132669819D02*
X235863219Y-132669819D01*
X235863219Y-132669819D02*
X235767981Y-132717438D01*
X235767981Y-132717438D02*
X235720362Y-132765057D01*
X235720362Y-132765057D02*
X235672743Y-132860295D01*
X235672743Y-132860295D02*
X235672743Y-132955533D01*
X235672743Y-132955533D02*
X235720362Y-133050771D01*
X235720362Y-133050771D02*
X235767981Y-133098390D01*
X235767981Y-133098390D02*
X235863219Y-133146009D01*
X235863219Y-133146009D02*
X236196552Y-133146009D01*
X234767981Y-133669819D02*
X234767981Y-133146009D01*
X234767981Y-133146009D02*
X234815600Y-133050771D01*
X234815600Y-133050771D02*
X234910838Y-133003152D01*
X234910838Y-133003152D02*
X235101314Y-133003152D01*
X235101314Y-133003152D02*
X235196552Y-133050771D01*
X234767981Y-133622200D02*
X234863219Y-133669819D01*
X234863219Y-133669819D02*
X235101314Y-133669819D01*
X235101314Y-133669819D02*
X235196552Y-133622200D01*
X235196552Y-133622200D02*
X235244171Y-133526961D01*
X235244171Y-133526961D02*
X235244171Y-133431723D01*
X235244171Y-133431723D02*
X235196552Y-133336485D01*
X235196552Y-133336485D02*
X235101314Y-133288866D01*
X235101314Y-133288866D02*
X234863219Y-133288866D01*
X234863219Y-133288866D02*
X234767981Y-133241247D01*
X234339409Y-133622200D02*
X234244171Y-133669819D01*
X234244171Y-133669819D02*
X234053695Y-133669819D01*
X234053695Y-133669819D02*
X233958457Y-133622200D01*
X233958457Y-133622200D02*
X233910838Y-133526961D01*
X233910838Y-133526961D02*
X233910838Y-133479342D01*
X233910838Y-133479342D02*
X233958457Y-133384104D01*
X233958457Y-133384104D02*
X234053695Y-133336485D01*
X234053695Y-133336485D02*
X234196552Y-133336485D01*
X234196552Y-133336485D02*
X234291790Y-133288866D01*
X234291790Y-133288866D02*
X234339409Y-133193628D01*
X234339409Y-133193628D02*
X234339409Y-133146009D01*
X234339409Y-133146009D02*
X234291790Y-133050771D01*
X234291790Y-133050771D02*
X234196552Y-133003152D01*
X234196552Y-133003152D02*
X234053695Y-133003152D01*
X234053695Y-133003152D02*
X233958457Y-133050771D01*
X233101314Y-133622200D02*
X233196552Y-133669819D01*
X233196552Y-133669819D02*
X233387028Y-133669819D01*
X233387028Y-133669819D02*
X233482266Y-133622200D01*
X233482266Y-133622200D02*
X233529885Y-133526961D01*
X233529885Y-133526961D02*
X233529885Y-133146009D01*
X233529885Y-133146009D02*
X233482266Y-133050771D01*
X233482266Y-133050771D02*
X233387028Y-133003152D01*
X233387028Y-133003152D02*
X233196552Y-133003152D01*
X233196552Y-133003152D02*
X233101314Y-133050771D01*
X233101314Y-133050771D02*
X233053695Y-133146009D01*
X233053695Y-133146009D02*
X233053695Y-133241247D01*
X233053695Y-133241247D02*
X233529885Y-133336485D01*
X232482266Y-133669819D02*
X232577504Y-133622200D01*
X232577504Y-133622200D02*
X232625123Y-133526961D01*
X232625123Y-133526961D02*
X232625123Y-132669819D01*
X232101313Y-133669819D02*
X232101313Y-133003152D01*
X232101313Y-132669819D02*
X232148932Y-132717438D01*
X232148932Y-132717438D02*
X232101313Y-132765057D01*
X232101313Y-132765057D02*
X232053694Y-132717438D01*
X232053694Y-132717438D02*
X232101313Y-132669819D01*
X232101313Y-132669819D02*
X232101313Y-132765057D01*
X231625123Y-133003152D02*
X231625123Y-133669819D01*
X231625123Y-133098390D02*
X231577504Y-133050771D01*
X231577504Y-133050771D02*
X231482266Y-133003152D01*
X231482266Y-133003152D02*
X231339409Y-133003152D01*
X231339409Y-133003152D02*
X231244171Y-133050771D01*
X231244171Y-133050771D02*
X231196552Y-133146009D01*
X231196552Y-133146009D02*
X231196552Y-133669819D01*
X230339409Y-133622200D02*
X230434647Y-133669819D01*
X230434647Y-133669819D02*
X230625123Y-133669819D01*
X230625123Y-133669819D02*
X230720361Y-133622200D01*
X230720361Y-133622200D02*
X230767980Y-133526961D01*
X230767980Y-133526961D02*
X230767980Y-133146009D01*
X230767980Y-133146009D02*
X230720361Y-133050771D01*
X230720361Y-133050771D02*
X230625123Y-133003152D01*
X230625123Y-133003152D02*
X230434647Y-133003152D01*
X230434647Y-133003152D02*
X230339409Y-133050771D01*
X230339409Y-133050771D02*
X230291790Y-133146009D01*
X230291790Y-133146009D02*
X230291790Y-133241247D01*
X230291790Y-133241247D02*
X230767980Y-133336485D01*
X235106077Y-123769819D02*
X234772744Y-124769819D01*
X234772744Y-124769819D02*
X234439411Y-123769819D01*
X233677506Y-124769819D02*
X233677506Y-124246009D01*
X233677506Y-124246009D02*
X233725125Y-124150771D01*
X233725125Y-124150771D02*
X233820363Y-124103152D01*
X233820363Y-124103152D02*
X234010839Y-124103152D01*
X234010839Y-124103152D02*
X234106077Y-124150771D01*
X233677506Y-124722200D02*
X233772744Y-124769819D01*
X233772744Y-124769819D02*
X234010839Y-124769819D01*
X234010839Y-124769819D02*
X234106077Y-124722200D01*
X234106077Y-124722200D02*
X234153696Y-124626961D01*
X234153696Y-124626961D02*
X234153696Y-124531723D01*
X234153696Y-124531723D02*
X234106077Y-124436485D01*
X234106077Y-124436485D02*
X234010839Y-124388866D01*
X234010839Y-124388866D02*
X233772744Y-124388866D01*
X233772744Y-124388866D02*
X233677506Y-124341247D01*
X233058458Y-124769819D02*
X233153696Y-124722200D01*
X233153696Y-124722200D02*
X233201315Y-124626961D01*
X233201315Y-124626961D02*
X233201315Y-123769819D01*
X232772743Y-124103152D02*
X232534648Y-124769819D01*
X232534648Y-124769819D02*
X232296553Y-124103152D01*
X231534648Y-124722200D02*
X231629886Y-124769819D01*
X231629886Y-124769819D02*
X231820362Y-124769819D01*
X231820362Y-124769819D02*
X231915600Y-124722200D01*
X231915600Y-124722200D02*
X231963219Y-124626961D01*
X231963219Y-124626961D02*
X231963219Y-124246009D01*
X231963219Y-124246009D02*
X231915600Y-124150771D01*
X231915600Y-124150771D02*
X231820362Y-124103152D01*
X231820362Y-124103152D02*
X231629886Y-124103152D01*
X231629886Y-124103152D02*
X231534648Y-124150771D01*
X231534648Y-124150771D02*
X231487029Y-124246009D01*
X231487029Y-124246009D02*
X231487029Y-124341247D01*
X231487029Y-124341247D02*
X231963219Y-124436485D01*
X229725124Y-124674580D02*
X229772743Y-124722200D01*
X229772743Y-124722200D02*
X229915600Y-124769819D01*
X229915600Y-124769819D02*
X230010838Y-124769819D01*
X230010838Y-124769819D02*
X230153695Y-124722200D01*
X230153695Y-124722200D02*
X230248933Y-124626961D01*
X230248933Y-124626961D02*
X230296552Y-124531723D01*
X230296552Y-124531723D02*
X230344171Y-124341247D01*
X230344171Y-124341247D02*
X230344171Y-124198390D01*
X230344171Y-124198390D02*
X230296552Y-124007914D01*
X230296552Y-124007914D02*
X230248933Y-123912676D01*
X230248933Y-123912676D02*
X230153695Y-123817438D01*
X230153695Y-123817438D02*
X230010838Y-123769819D01*
X230010838Y-123769819D02*
X229915600Y-123769819D01*
X229915600Y-123769819D02*
X229772743Y-123817438D01*
X229772743Y-123817438D02*
X229725124Y-123865057D01*
X228867981Y-124103152D02*
X228867981Y-124769819D01*
X229296552Y-124103152D02*
X229296552Y-124626961D01*
X229296552Y-124626961D02*
X229248933Y-124722200D01*
X229248933Y-124722200D02*
X229153695Y-124769819D01*
X229153695Y-124769819D02*
X229010838Y-124769819D01*
X229010838Y-124769819D02*
X228915600Y-124722200D01*
X228915600Y-124722200D02*
X228867981Y-124674580D01*
X228534647Y-124103152D02*
X228153695Y-124103152D01*
X228391790Y-124769819D02*
X228391790Y-123912676D01*
X228391790Y-123912676D02*
X228344171Y-123817438D01*
X228344171Y-123817438D02*
X228248933Y-123769819D01*
X228248933Y-123769819D02*
X228153695Y-123769819D01*
X227963218Y-124103152D02*
X227582266Y-124103152D01*
X227820361Y-124769819D02*
X227820361Y-123912676D01*
X227820361Y-123912676D02*
X227772742Y-123817438D01*
X227772742Y-123817438D02*
X227677504Y-123769819D01*
X227677504Y-123769819D02*
X227582266Y-123769819D01*
X154619819Y-126186779D02*
X153619819Y-126186779D01*
X153619819Y-126186779D02*
X153619819Y-126567731D01*
X153619819Y-126567731D02*
X153667438Y-126662969D01*
X153667438Y-126662969D02*
X153715057Y-126710588D01*
X153715057Y-126710588D02*
X153810295Y-126758207D01*
X153810295Y-126758207D02*
X153953152Y-126758207D01*
X153953152Y-126758207D02*
X154048390Y-126710588D01*
X154048390Y-126710588D02*
X154096009Y-126662969D01*
X154096009Y-126662969D02*
X154143628Y-126567731D01*
X154143628Y-126567731D02*
X154143628Y-126186779D01*
X153953152Y-127615350D02*
X154619819Y-127615350D01*
X153953152Y-127186779D02*
X154476961Y-127186779D01*
X154476961Y-127186779D02*
X154572200Y-127234398D01*
X154572200Y-127234398D02*
X154619819Y-127329636D01*
X154619819Y-127329636D02*
X154619819Y-127472493D01*
X154619819Y-127472493D02*
X154572200Y-127567731D01*
X154572200Y-127567731D02*
X154524580Y-127615350D01*
X154619819Y-128091541D02*
X153953152Y-128091541D01*
X154048390Y-128091541D02*
X154000771Y-128139160D01*
X154000771Y-128139160D02*
X153953152Y-128234398D01*
X153953152Y-128234398D02*
X153953152Y-128377255D01*
X153953152Y-128377255D02*
X154000771Y-128472493D01*
X154000771Y-128472493D02*
X154096009Y-128520112D01*
X154096009Y-128520112D02*
X154619819Y-128520112D01*
X154096009Y-128520112D02*
X154000771Y-128567731D01*
X154000771Y-128567731D02*
X153953152Y-128662969D01*
X153953152Y-128662969D02*
X153953152Y-128805826D01*
X153953152Y-128805826D02*
X154000771Y-128901065D01*
X154000771Y-128901065D02*
X154096009Y-128948684D01*
X154096009Y-128948684D02*
X154619819Y-128948684D01*
X153953152Y-129424874D02*
X154953152Y-129424874D01*
X154000771Y-129424874D02*
X153953152Y-129520112D01*
X153953152Y-129520112D02*
X153953152Y-129710588D01*
X153953152Y-129710588D02*
X154000771Y-129805826D01*
X154000771Y-129805826D02*
X154048390Y-129853445D01*
X154048390Y-129853445D02*
X154143628Y-129901064D01*
X154143628Y-129901064D02*
X154429342Y-129901064D01*
X154429342Y-129901064D02*
X154524580Y-129853445D01*
X154524580Y-129853445D02*
X154572200Y-129805826D01*
X154572200Y-129805826D02*
X154619819Y-129710588D01*
X154619819Y-129710588D02*
X154619819Y-129520112D01*
X154619819Y-129520112D02*
X154572200Y-129424874D01*
%LPC*%
D11*
%TO.C,D6*%
X229482183Y-139070000D03*
D12*
X225672183Y-139070000D03*
%TD*%
%TO.C,D3*%
X161200000Y-105550000D03*
D11*
X165010000Y-105550000D03*
%TD*%
D13*
%TO.C,D1*%
X221810000Y-103600000D03*
D14*
X224350000Y-103600000D03*
%TD*%
D15*
%TO.C,Q2*%
X163240000Y-116840000D03*
D16*
X160700000Y-116840000D03*
X158160000Y-116840000D03*
%TD*%
D17*
%TO.C,D2*%
X234667818Y-105320000D03*
D12*
X238477818Y-105320000D03*
%TD*%
D18*
%TO.C,J3*%
X156885000Y-128990000D03*
D19*
X156885000Y-126450000D03*
%TD*%
D20*
%TO.C,J5*%
X162570000Y-142820000D03*
D19*
X165110000Y-142820000D03*
X167650000Y-142820000D03*
X170190000Y-142820000D03*
X172730000Y-142820000D03*
X175270000Y-142820000D03*
%TD*%
D21*
%TO.C,Q3*%
X236470000Y-115920000D03*
D22*
X237740000Y-114650000D03*
X239010000Y-115920000D03*
%TD*%
D23*
%TO.C,J1*%
X222295000Y-97420000D03*
X222295000Y-93620000D03*
X213655000Y-97420000D03*
X213655000Y-93620000D03*
%TD*%
D24*
%TO.C,J4*%
X164635000Y-126570000D03*
D19*
X164635000Y-129110000D03*
X164635000Y-131650000D03*
X164635000Y-134190000D03*
%TD*%
%TO.C,U2*%
X194700000Y-144070000D03*
D24*
X192160000Y-144070000D03*
D19*
X189620000Y-144070000D03*
X201050000Y-96040000D03*
X201050000Y-98580000D03*
D24*
X201050000Y-101120000D03*
D19*
X201050000Y-103660000D03*
X201050000Y-106200000D03*
X201050000Y-108740000D03*
X201050000Y-111280000D03*
D24*
X201050000Y-113820000D03*
D19*
X201050000Y-116360000D03*
X201050000Y-118900000D03*
X201050000Y-121440000D03*
X201050000Y-123980000D03*
D24*
X201050000Y-126520000D03*
D19*
X201050000Y-129060000D03*
X201050000Y-131600000D03*
X201050000Y-134140000D03*
X201050000Y-136680000D03*
D24*
X201050000Y-139220000D03*
D19*
X201050000Y-141760000D03*
X201050000Y-144300000D03*
X183270000Y-144300000D03*
X183270000Y-141760000D03*
D24*
X183270000Y-139220000D03*
D19*
X183270000Y-136680000D03*
X183270000Y-134140000D03*
X183270000Y-131600000D03*
X183270000Y-129060000D03*
D24*
X183270000Y-126520000D03*
D19*
X183270000Y-123980000D03*
X183270000Y-121440000D03*
X183270000Y-118900000D03*
X183270000Y-116360000D03*
D24*
X183270000Y-113820000D03*
D19*
X183270000Y-111280000D03*
X183270000Y-108740000D03*
X183270000Y-106200000D03*
X183270000Y-103660000D03*
D24*
X183270000Y-101120000D03*
D19*
X183270000Y-98580000D03*
X183270000Y-96040000D03*
D25*
X194885000Y-96170000D03*
D26*
X194585000Y-99200000D03*
X189735000Y-99200000D03*
D25*
X189435000Y-96170000D03*
%TD*%
D21*
%TO.C,Q4*%
X213960000Y-123570000D03*
D22*
X215230000Y-122300000D03*
X216500000Y-123570000D03*
%TD*%
D27*
%TO.C,J7*%
X228785000Y-134670000D03*
D19*
X226245000Y-134670000D03*
%TD*%
D28*
%TO.C,U1*%
X229060000Y-94630000D03*
D29*
X229060000Y-97170000D03*
X229060000Y-99710000D03*
%TD*%
D27*
%TO.C,J6*%
X233535000Y-126870000D03*
D19*
X230995000Y-126870000D03*
%TD*%
D15*
%TO.C,Q1*%
X163990000Y-97260000D03*
D16*
X161450000Y-97260000D03*
X158910000Y-97260000D03*
%TD*%
D24*
%TO.C,J2*%
X157035000Y-137250000D03*
D19*
X157035000Y-139790000D03*
%TD*%
D30*
%TO.C,D5*%
X238510000Y-127007183D03*
D12*
X238510000Y-123197183D03*
%TD*%
D17*
%TO.C,D4*%
X161390000Y-110750000D03*
D12*
X165200000Y-110750000D03*
%TD*%
D31*
%TO.C,U3*%
X221420000Y-108950000D03*
X221420000Y-111490000D03*
X221420000Y-114030000D03*
X221420000Y-116570000D03*
X213800000Y-116570000D03*
X213800000Y-114030000D03*
X213800000Y-111490000D03*
D32*
X213800000Y-108950000D03*
%TD*%
D24*
%TO.C,J8*%
X172210000Y-96180000D03*
D19*
X172210000Y-98720000D03*
X172210000Y-101260000D03*
%TD*%
%LPD*%
M02*
