M48
; DRILL file {KiCad 7.0.9} date 
; FORMAT={-:-/ absolute / metric / decimal}
; #@! TF.CreationDate,2024-06-04T21:05:09+02:00
; #@! TF.GenerationSoftware,Kicad,Pcbnew,7.0.9
; #@! TF.FileFunction,Plated,1,2,PTH
FMAT,2
METRIC
; #@! TA.AperFunction,Plated,PTH,ViaDrill
T1C0.400
; #@! TA.AperFunction,Plated,PTH,ComponentDrill
T2C0.600
; #@! TA.AperFunction,Plated,PTH,ComponentDrill
T3C0.750
; #@! TA.AperFunction,Plated,PTH,ComponentDrill
T4C0.800
; #@! TA.AperFunction,Plated,PTH,ComponentDrill
T5C0.900
; #@! TA.AperFunction,Plated,PTH,ComponentDrill
T6C1.000
; #@! TA.AperFunction,Plated,PTH,ComponentDrill
T7C1.020
; #@! TA.AperFunction,Plated,PTH,ComponentDrill
T8C1.100
; #@! TA.AperFunction,Plated,PTH,ComponentDrill
T9C1.230
%
G90
G05
T1
X157.1Y-119.05
X168.25Y-131.1
X168.4Y-134.05
X173.4Y-127.4
X174.85Y-122.95
X175.0Y-120.7
X176.0Y-116.65
X176.4Y-122.15
X177.85Y-128.55
X214.4Y-142.55
X215.8Y-126.8
X216.2Y-114.15
X217.1Y-111.6
X217.35Y-139.3
X218.044Y-132.056
X219.35Y-121.95
X219.8Y-139.0
X221.1Y-126.55
X221.2Y-133.75
X222.6Y-135.8
X223.7Y-108.7
X223.85Y-114.9
X223.9Y-112.1
X225.7Y-114.7
X227.7Y-117.9
X229.25Y-113.3
X229.25Y-114.15
X229.3Y-116.35
X230.25Y-112.1
T3
X213.96Y-123.57
X215.23Y-122.3
X216.5Y-123.57
X236.47Y-115.92
X237.74Y-114.65
X239.01Y-115.92
T4
X213.8Y-108.95
X213.8Y-111.49
X213.8Y-114.03
X213.8Y-116.57
X221.42Y-108.95
X221.42Y-111.49
X221.42Y-114.03
X221.42Y-116.57
T5
X221.81Y-103.6
X224.35Y-103.6
T6
X156.885Y-126.45
X156.885Y-128.99
X157.035Y-137.25
X157.035Y-139.79
X162.57Y-142.82
X164.635Y-126.57
X164.635Y-129.11
X164.635Y-131.65
X164.635Y-134.19
X165.11Y-142.82
X167.65Y-142.82
X170.19Y-142.82
X172.21Y-96.18
X172.21Y-98.72
X172.21Y-101.26
X172.73Y-142.82
X175.27Y-142.82
X226.245Y-134.67
X228.785Y-134.67
X230.995Y-126.87
X233.535Y-126.87
T7
X183.27Y-96.04
X183.27Y-98.58
X183.27Y-101.12
X183.27Y-103.66
X183.27Y-106.2
X183.27Y-108.74
X183.27Y-111.28
X183.27Y-113.82
X183.27Y-116.36
X183.27Y-118.9
X183.27Y-121.44
X183.27Y-123.98
X183.27Y-126.52
X183.27Y-129.06
X183.27Y-131.6
X183.27Y-134.14
X183.27Y-136.68
X183.27Y-139.22
X183.27Y-141.76
X183.27Y-144.3
X189.62Y-144.07
X192.16Y-144.07
X194.7Y-144.07
X201.05Y-96.04
X201.05Y-98.58
X201.05Y-101.12
X201.05Y-103.66
X201.05Y-106.2
X201.05Y-108.74
X201.05Y-111.28
X201.05Y-113.82
X201.05Y-116.36
X201.05Y-118.9
X201.05Y-121.44
X201.05Y-123.98
X201.05Y-126.52
X201.05Y-129.06
X201.05Y-131.6
X201.05Y-134.14
X201.05Y-136.68
X201.05Y-139.22
X201.05Y-141.76
X201.05Y-144.3
T8
X161.2Y-105.55
X161.39Y-110.75
X165.01Y-105.55
X165.2Y-110.75
X225.672Y-139.07
X229.06Y-94.63
X229.06Y-97.17
X229.06Y-99.71
X229.482Y-139.07
X234.668Y-105.32
X238.478Y-105.32
X238.51Y-123.197
X238.51Y-127.007
T9
X158.16Y-116.84
X158.91Y-97.26
X160.7Y-116.84
X161.45Y-97.26
X163.24Y-116.84
X163.99Y-97.26
T2
G00X213.655Y-93.92
M15
G01X213.655Y-93.32
M16
G05
G00X213.655Y-97.72
M15
G01X213.655Y-97.12
M16
G05
G00X222.295Y-93.92
M15
G01X222.295Y-93.32
M16
G05
G00X222.295Y-97.72
M15
G01X222.295Y-97.12
M16
G05
T0
M30
