%TF.GenerationSoftware,KiCad,Pcbnew,7.0.9*%
%TF.CreationDate,2024-06-04T21:04:57+02:00*%
%TF.ProjectId,Differential,44696666-6572-4656-9e74-69616c2e6b69,rev?*%
%TF.SameCoordinates,Original*%
%TF.FileFunction,Copper,L2,Bot*%
%TF.FilePolarity,Positive*%
%FSLAX46Y46*%
G04 Gerber Fmt 4.6, Leading zero omitted, Abs format (unit mm)*
G04 Created by KiCad (PCBNEW 7.0.9) date 2024-06-04 21:04:57*
%MOMM*%
%LPD*%
G01*
G04 APERTURE LIST*
%TA.AperFunction,ComponentPad*%
%ADD10R,2.200000X2.200000*%
%TD*%
%TA.AperFunction,ComponentPad*%
%ADD11O,2.200000X2.200000*%
%TD*%
%TA.AperFunction,ComponentPad*%
%ADD12R,1.800000X1.800000*%
%TD*%
%TA.AperFunction,ComponentPad*%
%ADD13C,1.800000*%
%TD*%
%TA.AperFunction,ComponentPad*%
%ADD14R,1.850000X1.850000*%
%TD*%
%TA.AperFunction,ComponentPad*%
%ADD15C,1.850000*%
%TD*%
%TA.AperFunction,ComponentPad*%
%ADD16R,1.700000X1.700000*%
%TD*%
%TA.AperFunction,ComponentPad*%
%ADD17O,1.700000X1.700000*%
%TD*%
%TA.AperFunction,ComponentPad*%
%ADD18R,1.300000X1.300000*%
%TD*%
%TA.AperFunction,ComponentPad*%
%ADD19C,1.300000*%
%TD*%
%TA.AperFunction,ComponentPad*%
%ADD20O,1.100000X1.700000*%
%TD*%
%TA.AperFunction,ComponentPad*%
%ADD21R,2.000000X1.905000*%
%TD*%
%TA.AperFunction,ComponentPad*%
%ADD22O,2.000000X1.905000*%
%TD*%
%TA.AperFunction,ComponentPad*%
%ADD23O,1.600000X1.600000*%
%TD*%
%TA.AperFunction,ComponentPad*%
%ADD24R,1.600000X1.600000*%
%TD*%
%TA.AperFunction,ViaPad*%
%ADD25C,0.700000*%
%TD*%
%TA.AperFunction,Conductor*%
%ADD26C,0.250000*%
%TD*%
%TA.AperFunction,Conductor*%
%ADD27C,0.500000*%
%TD*%
G04 APERTURE END LIST*
D10*
%TO.P,D6,1,K*%
%TO.N,+3.3V*%
X229482183Y-139070000D03*
D11*
%TO.P,D6,2,A*%
%TO.N,Net-(D6-A)*%
X225672183Y-139070000D03*
%TD*%
%TO.P,D3,2,A*%
%TO.N,Net-(D3-A)*%
X161200000Y-105550000D03*
D10*
%TO.P,D3,1,K*%
%TO.N,+3.3V*%
X165010000Y-105550000D03*
%TD*%
D12*
%TO.P,D1,1,K*%
%TO.N,Net-(D1-K)*%
X221810000Y-103600000D03*
D13*
%TO.P,D1,2,A*%
%TO.N,+5V*%
X224350000Y-103600000D03*
%TD*%
D14*
%TO.P,Q2,1,G*%
%TO.N,Net-(Q2-G)*%
X163240000Y-116840000D03*
D15*
%TO.P,Q2,2,D*%
%TO.N,Net-(D4-A)*%
X160700000Y-116840000D03*
%TO.P,Q2,3,S*%
%TO.N,GND*%
X158160000Y-116840000D03*
%TD*%
D10*
%TO.P,D2,1,K*%
%TO.N,+5V*%
X234667818Y-105320000D03*
D11*
%TO.P,D2,2,A*%
%TO.N,+3.3V*%
X238477818Y-105320000D03*
%TD*%
D16*
%TO.P,J3,1,Pin_1*%
%TO.N,+3.3V*%
X156885000Y-128990000D03*
D17*
%TO.P,J3,2,Pin_2*%
%TO.N,Net-(D4-A)*%
X156885000Y-126450000D03*
%TD*%
D16*
%TO.P,J5,1,Pin_1*%
%TO.N,+3.3V*%
X162570000Y-142820000D03*
D17*
%TO.P,J5,2,Pin_2*%
%TO.N,/SDA0*%
X165110000Y-142820000D03*
%TO.P,J5,3,Pin_3*%
%TO.N,/SCL0*%
X167650000Y-142820000D03*
%TO.P,J5,4,Pin_4*%
%TO.N,unconnected-(J5-Pin_4-Pad4)*%
X170190000Y-142820000D03*
%TO.P,J5,5,Pin_5*%
%TO.N,unconnected-(J5-Pin_5-Pad5)*%
X172730000Y-142820000D03*
%TO.P,J5,6,Pin_6*%
%TO.N,GND*%
X175270000Y-142820000D03*
%TD*%
D18*
%TO.P,Q3,1,E*%
%TO.N,Net-(Q3-E)*%
X236470000Y-115920000D03*
D19*
%TO.P,Q3,2,B*%
%TO.N,Net-(Q3-B)*%
X237740000Y-114650000D03*
%TO.P,Q3,3,C*%
%TO.N,Net-(D5-A)*%
X239010000Y-115920000D03*
%TD*%
D20*
%TO.P,J1,S1,SHIELD*%
%TO.N,GND*%
X222295000Y-97420000D03*
X222295000Y-93620000D03*
X213655000Y-97420000D03*
X213655000Y-93620000D03*
%TD*%
D16*
%TO.P,J4,1,Pin_1*%
%TO.N,GND*%
X164635000Y-126570000D03*
D17*
%TO.P,J4,2,Pin_2*%
%TO.N,+3.3V*%
X164635000Y-129110000D03*
%TO.P,J4,3,Pin_3*%
%TO.N,/SDA1*%
X164635000Y-131650000D03*
%TO.P,J4,4,Pin_4*%
%TO.N,/SCL1*%
X164635000Y-134190000D03*
%TD*%
%TO.P,U2,43,SWDIO*%
%TO.N,unconnected-(U2-SWDIO-Pad43)*%
X194700000Y-144070000D03*
D16*
%TO.P,U2,42,GND*%
%TO.N,GND*%
X192160000Y-144070000D03*
D17*
%TO.P,U2,41,SWCLK*%
%TO.N,unconnected-(U2-SWCLK-Pad41)*%
X189620000Y-144070000D03*
%TO.P,U2,40,VBUS*%
%TO.N,unconnected-(U2-VBUS-Pad40)*%
X201050000Y-96040000D03*
%TO.P,U2,39,VSYS*%
%TO.N,unconnected-(U2-VSYS-Pad39)*%
X201050000Y-98580000D03*
D16*
%TO.P,U2,38,GND*%
%TO.N,GND*%
X201050000Y-101120000D03*
D17*
%TO.P,U2,37,3V3_EN*%
%TO.N,unconnected-(U2-3V3_EN-Pad37)*%
X201050000Y-103660000D03*
%TO.P,U2,36,3V3*%
%TO.N,unconnected-(U2-3V3-Pad36)*%
X201050000Y-106200000D03*
%TO.P,U2,35,ADC_VREF*%
%TO.N,unconnected-(U2-ADC_VREF-Pad35)*%
X201050000Y-108740000D03*
%TO.P,U2,34,GPIO28_ADC2*%
%TO.N,unconnected-(U2-GPIO28_ADC2-Pad34)*%
X201050000Y-111280000D03*
D16*
%TO.P,U2,33,AGND*%
%TO.N,unconnected-(U2-AGND-Pad33)*%
X201050000Y-113820000D03*
D17*
%TO.P,U2,32,GPIO27_ADC1*%
%TO.N,unconnected-(U2-GPIO27_ADC1-Pad32)*%
X201050000Y-116360000D03*
%TO.P,U2,31,GPIO26_ADC0*%
%TO.N,unconnected-(U2-GPIO26_ADC0-Pad31)*%
X201050000Y-118900000D03*
%TO.P,U2,30,RUN*%
%TO.N,unconnected-(U2-RUN-Pad30)*%
X201050000Y-121440000D03*
%TO.P,U2,29,GPIO22*%
%TO.N,unconnected-(U2-GPIO22-Pad29)*%
X201050000Y-123980000D03*
D16*
%TO.P,U2,28,GND*%
%TO.N,GND*%
X201050000Y-126520000D03*
D17*
%TO.P,U2,27,GPIO21*%
%TO.N,unconnected-(U2-GPIO21-Pad27)*%
X201050000Y-129060000D03*
%TO.P,U2,26,GPIO20*%
%TO.N,unconnected-(U2-GPIO20-Pad26)*%
X201050000Y-131600000D03*
%TO.P,U2,25,GPIO19*%
%TO.N,unconnected-(U2-GPIO19-Pad25)*%
X201050000Y-134140000D03*
%TO.P,U2,24,GPIO18*%
%TO.N,unconnected-(U2-GPIO18-Pad24)*%
X201050000Y-136680000D03*
D16*
%TO.P,U2,23,GND*%
%TO.N,GND*%
X201050000Y-139220000D03*
D17*
%TO.P,U2,22,GPIO17*%
%TO.N,unconnected-(U2-GPIO17-Pad22)*%
X201050000Y-141760000D03*
%TO.P,U2,21,GPIO16*%
%TO.N,Baseline_Valve*%
X201050000Y-144300000D03*
%TO.P,U2,20,GPIO15*%
%TO.N,Cuff_Valve*%
X183270000Y-144300000D03*
%TO.P,U2,19,GPIO14*%
%TO.N,unconnected-(U2-GPIO14-Pad19)*%
X183270000Y-141760000D03*
D16*
%TO.P,U2,18,GND*%
%TO.N,GND*%
X183270000Y-139220000D03*
D17*
%TO.P,U2,17,GPIO13*%
%TO.N,unconnected-(U2-GPIO13-Pad17)*%
X183270000Y-136680000D03*
%TO.P,U2,16,GPIO12*%
%TO.N,unconnected-(U2-GPIO12-Pad16)*%
X183270000Y-134140000D03*
%TO.P,U2,15,GPIO11*%
%TO.N,/Middle_Valve*%
X183270000Y-131600000D03*
%TO.P,U2,14,GPIO10*%
%TO.N,/Pump*%
X183270000Y-129060000D03*
D16*
%TO.P,U2,13,GND*%
%TO.N,GND*%
X183270000Y-126520000D03*
D17*
%TO.P,U2,12,GPIO9*%
%TO.N,/SCL0*%
X183270000Y-123980000D03*
%TO.P,U2,11,GPIO8*%
%TO.N,/SDA0*%
X183270000Y-121440000D03*
%TO.P,U2,10,GPIO7*%
%TO.N,/SCL1*%
X183270000Y-118900000D03*
%TO.P,U2,9,GPIO6*%
%TO.N,/SDA1*%
X183270000Y-116360000D03*
D16*
%TO.P,U2,8,GND*%
%TO.N,GND*%
X183270000Y-113820000D03*
D17*
%TO.P,U2,7,GPIO5*%
%TO.N,unconnected-(U2-GPIO5-Pad7)*%
X183270000Y-111280000D03*
%TO.P,U2,6,GPIO4*%
%TO.N,unconnected-(U2-GPIO4-Pad6)*%
X183270000Y-108740000D03*
%TO.P,U2,5,GPIO3*%
%TO.N,unconnected-(U2-GPIO3-Pad5)*%
X183270000Y-106200000D03*
%TO.P,U2,4,GPIO2*%
%TO.N,unconnected-(U2-GPIO2-Pad4)*%
X183270000Y-103660000D03*
D16*
%TO.P,U2,3,GND*%
%TO.N,GND*%
X183270000Y-101120000D03*
D17*
%TO.P,U2,2,GPIO1*%
%TO.N,/RX*%
X183270000Y-98580000D03*
%TO.P,U2,1,GPIO0*%
%TO.N,/TX*%
X183270000Y-96040000D03*
%TD*%
D18*
%TO.P,Q4,1,E*%
%TO.N,Net-(Q4-E)*%
X213960000Y-123570000D03*
D19*
%TO.P,Q4,2,B*%
%TO.N,Net-(Q4-B)*%
X215230000Y-122300000D03*
%TO.P,Q4,3,C*%
%TO.N,Net-(D6-A)*%
X216500000Y-123570000D03*
%TD*%
D16*
%TO.P,J7,1,Pin_1*%
%TO.N,+3.3V*%
X228785000Y-134670000D03*
D17*
%TO.P,J7,2,Pin_2*%
%TO.N,Net-(D6-A)*%
X226245000Y-134670000D03*
%TD*%
D21*
%TO.P,U1,1,ADJ*%
%TO.N,Net-(U1-ADJ)*%
X229060000Y-94630000D03*
D22*
%TO.P,U1,2,VO*%
%TO.N,+3.3V*%
X229060000Y-97170000D03*
%TO.P,U1,3,VI*%
%TO.N,+5V*%
X229060000Y-99710000D03*
%TD*%
D16*
%TO.P,J6,1,Pin_1*%
%TO.N,+3.3V*%
X233535000Y-126870000D03*
D17*
%TO.P,J6,2,Pin_2*%
%TO.N,Net-(D5-A)*%
X230995000Y-126870000D03*
%TD*%
D14*
%TO.P,Q1,1,G*%
%TO.N,Net-(Q1-G)*%
X163990000Y-97260000D03*
D15*
%TO.P,Q1,2,D*%
%TO.N,Net-(D3-A)*%
X161450000Y-97260000D03*
%TO.P,Q1,3,S*%
%TO.N,GND*%
X158910000Y-97260000D03*
%TD*%
D16*
%TO.P,J2,1,Pin_1*%
%TO.N,+3.3V*%
X157035000Y-137250000D03*
D17*
%TO.P,J2,2,Pin_2*%
%TO.N,Net-(D3-A)*%
X157035000Y-139790000D03*
%TD*%
D10*
%TO.P,D5,1,K*%
%TO.N,+3.3V*%
X238510000Y-127007183D03*
D11*
%TO.P,D5,2,A*%
%TO.N,Net-(D5-A)*%
X238510000Y-123197183D03*
%TD*%
D10*
%TO.P,D4,1,K*%
%TO.N,+3.3V*%
X161390000Y-110750000D03*
D11*
%TO.P,D4,2,A*%
%TO.N,Net-(D4-A)*%
X165200000Y-110750000D03*
%TD*%
D23*
%TO.P,U3,8,V+*%
%TO.N,+5V*%
X221420000Y-108950000D03*
%TO.P,U3,7*%
%TO.N,Net-(Q4-B)*%
X221420000Y-111490000D03*
%TO.P,U3,6,-*%
%TO.N,Net-(U3B--)*%
X221420000Y-114030000D03*
%TO.P,U3,5,+*%
%TO.N,Net-(U3B-+)*%
X221420000Y-116570000D03*
%TO.P,U3,4,V-*%
%TO.N,GND*%
X213800000Y-116570000D03*
%TO.P,U3,3,+*%
%TO.N,Net-(U3A-+)*%
X213800000Y-114030000D03*
%TO.P,U3,2,-*%
%TO.N,Net-(U3A--)*%
X213800000Y-111490000D03*
D24*
%TO.P,U3,1*%
%TO.N,Net-(Q3-B)*%
X213800000Y-108950000D03*
%TD*%
D16*
%TO.P,J8,1,Pin_1*%
%TO.N,/TX*%
X172210000Y-96180000D03*
D17*
%TO.P,J8,2,Pin_2*%
%TO.N,/RX*%
X172210000Y-98720000D03*
%TO.P,J8,3,Pin_3*%
%TO.N,GND*%
X172210000Y-101260000D03*
%TD*%
D25*
%TO.N,GND*%
X157100000Y-119050000D03*
%TO.N,Net-(C3-Pad1)*%
X229250000Y-113300000D03*
X225700000Y-114700000D03*
%TO.N,Net-(C3-Pad2)*%
X223900000Y-112100000D03*
X230250000Y-112100000D03*
%TO.N,Net-(U3A-+)*%
X227700000Y-117900000D03*
X229250000Y-114149503D03*
X216200000Y-114150000D03*
X229300000Y-116350000D03*
%TO.N,Net-(U3A--)*%
X223850000Y-114900000D03*
X217100000Y-111600000D03*
%TO.N,Net-(C7-Pad1)*%
X222600000Y-135800000D03*
X214400000Y-142550000D03*
%TO.N,Net-(C7-Pad2)*%
X219800000Y-139000000D03*
X221200000Y-133750000D03*
%TO.N,Net-(U3B-+)*%
X217350000Y-139300000D03*
X218043727Y-132056273D03*
%TO.N,Net-(Q4-B)*%
X219350000Y-121950000D03*
%TO.N,Net-(U3B--)*%
X215800000Y-126800000D03*
X221100000Y-126550000D03*
%TO.N,/SDA1*%
X176000000Y-116650000D03*
X168250000Y-131100000D03*
%TO.N,/SCL1*%
X176400000Y-122150000D03*
X168400000Y-134050000D03*
%TO.N,/SDA0*%
X173400000Y-127400000D03*
X174850000Y-122950000D03*
%TO.N,/Pump*%
X177850000Y-128550000D03*
X175000000Y-120700000D03*
%TO.N,Cuff_Valve*%
X223700000Y-108700000D03*
%TD*%
D26*
%TO.N,GND*%
X157100000Y-119050000D02*
X164620000Y-126570000D01*
X164620000Y-126570000D02*
X164635000Y-126570000D01*
D27*
%TO.N,+3.3V*%
X228785000Y-134670000D02*
X228785000Y-118365000D01*
X228785000Y-118365000D02*
X238477818Y-108672182D01*
X238477818Y-108672182D02*
X238477818Y-105320000D01*
%TO.N,Net-(C3-Pad1)*%
X229250000Y-113300000D02*
X227100000Y-113300000D01*
X227100000Y-113300000D02*
X225700000Y-114700000D01*
%TO.N,Net-(C3-Pad2)*%
X223900000Y-112100000D02*
X230250000Y-112100000D01*
%TO.N,Net-(U3A-+)*%
X227700000Y-117900000D02*
X224447057Y-117900000D01*
X229300000Y-116350000D02*
X229300000Y-114199503D01*
X217420000Y-115370000D02*
X216200000Y-114150000D01*
X224447057Y-117900000D02*
X221917057Y-115370000D01*
X229300000Y-114199503D02*
X229250000Y-114149503D01*
X221917057Y-115370000D02*
X217420000Y-115370000D01*
%TO.N,Net-(U3A--)*%
X218330000Y-112830000D02*
X221917057Y-112830000D01*
X221917057Y-112830000D02*
X223850000Y-114762943D01*
X223850000Y-114762943D02*
X223850000Y-114900000D01*
X217100000Y-111600000D02*
X218330000Y-112830000D01*
%TO.N,Net-(C7-Pad1)*%
X222600000Y-137260661D02*
X222600000Y-135800000D01*
X215150000Y-141800000D02*
X218060661Y-141800000D01*
X218060661Y-141800000D02*
X222600000Y-137260661D01*
X214400000Y-142550000D02*
X215150000Y-141800000D01*
%TO.N,Net-(C7-Pad2)*%
X219800000Y-135150000D02*
X221200000Y-133750000D01*
X219800000Y-139000000D02*
X219800000Y-135150000D01*
%TO.N,Net-(U3B-+)*%
X217350000Y-132750000D02*
X218043727Y-132056273D01*
X217350000Y-139300000D02*
X217350000Y-132750000D01*
%TO.N,Net-(Q4-B)*%
X219350000Y-121950000D02*
X215580000Y-121950000D01*
X215580000Y-121950000D02*
X215230000Y-122300000D01*
%TO.N,Net-(U3B--)*%
X220850000Y-126800000D02*
X221100000Y-126550000D01*
X215800000Y-126800000D02*
X220850000Y-126800000D01*
%TO.N,/SDA1*%
X168250000Y-131100000D02*
X168250000Y-124400000D01*
X168250000Y-124400000D02*
X176000000Y-116650000D01*
%TO.N,/SCL1*%
X168400000Y-134050000D02*
X176400000Y-126050000D01*
X176400000Y-126050000D02*
X176400000Y-122150000D01*
%TO.N,/SDA0*%
X174850000Y-122950000D02*
X174850000Y-125950000D01*
X174850000Y-125950000D02*
X173400000Y-127400000D01*
%TO.N,/Pump*%
X177850000Y-128550000D02*
X177850000Y-122539339D01*
X177850000Y-122539339D02*
X176010661Y-120700000D01*
X176010661Y-120700000D02*
X175000000Y-120700000D01*
%TO.N,Cuff_Valve*%
X202300000Y-123750000D02*
X202300000Y-132117767D01*
X201567767Y-132850000D02*
X194720000Y-132850000D01*
X214770000Y-112830000D02*
X213220000Y-112830000D01*
X222250000Y-110150000D02*
X217450000Y-110150000D01*
X202300000Y-132117767D02*
X201567767Y-132850000D01*
X194720000Y-132850000D02*
X183270000Y-144300000D01*
X217450000Y-110150000D02*
X214770000Y-112830000D01*
X213220000Y-112830000D02*
X202300000Y-123750000D01*
X223700000Y-108700000D02*
X222250000Y-110150000D01*
%TD*%
%TA.AperFunction,Conductor*%
%TO.N,GND*%
G36*
X245942539Y-90920185D02*
G01*
X245988294Y-90972989D01*
X245999500Y-91024500D01*
X245999500Y-149676000D01*
X245979815Y-149743039D01*
X245927011Y-149788794D01*
X245875500Y-149800000D01*
X150224500Y-149800000D01*
X150157461Y-149780315D01*
X150111706Y-149727511D01*
X150100500Y-149676000D01*
X150100500Y-144300000D01*
X182264659Y-144300000D01*
X182283975Y-144496129D01*
X182283976Y-144496132D01*
X182324141Y-144628539D01*
X182341188Y-144684733D01*
X182434086Y-144858532D01*
X182434090Y-144858539D01*
X182559116Y-145010883D01*
X182711460Y-145135909D01*
X182711467Y-145135913D01*
X182885266Y-145228811D01*
X182885269Y-145228811D01*
X182885273Y-145228814D01*
X183073868Y-145286024D01*
X183270000Y-145305341D01*
X183466132Y-145286024D01*
X183654727Y-145228814D01*
X183828538Y-145135910D01*
X183980883Y-145010883D01*
X184105910Y-144858538D01*
X184198814Y-144684727D01*
X184256024Y-144496132D01*
X184275341Y-144300000D01*
X184256024Y-144103868D01*
X184245750Y-144070000D01*
X188614659Y-144070000D01*
X188633975Y-144266129D01*
X188691188Y-144454733D01*
X188784086Y-144628532D01*
X188784090Y-144628539D01*
X188909116Y-144780883D01*
X189061460Y-144905909D01*
X189061467Y-144905913D01*
X189235266Y-144998811D01*
X189235269Y-144998811D01*
X189235273Y-144998814D01*
X189423868Y-145056024D01*
X189620000Y-145075341D01*
X189816132Y-145056024D01*
X190004727Y-144998814D01*
X190178538Y-144905910D01*
X190330883Y-144780883D01*
X190455910Y-144628538D01*
X190548814Y-144454727D01*
X190567339Y-144393655D01*
X190605637Y-144335218D01*
X190669449Y-144306762D01*
X190738516Y-144317322D01*
X190790910Y-144363546D01*
X190810000Y-144429652D01*
X190810000Y-144967844D01*
X190816401Y-145027372D01*
X190816403Y-145027379D01*
X190866645Y-145162086D01*
X190866649Y-145162093D01*
X190952809Y-145277187D01*
X190952812Y-145277190D01*
X191067906Y-145363350D01*
X191067913Y-145363354D01*
X191202620Y-145413596D01*
X191202627Y-145413598D01*
X191262155Y-145419999D01*
X191262172Y-145420000D01*
X191910000Y-145420000D01*
X191910000Y-144516494D01*
X192014839Y-144564373D01*
X192123527Y-144580000D01*
X192196473Y-144580000D01*
X192305161Y-144564373D01*
X192410000Y-144516494D01*
X192410000Y-145420000D01*
X193057828Y-145420000D01*
X193057844Y-145419999D01*
X193117372Y-145413598D01*
X193117379Y-145413596D01*
X193252086Y-145363354D01*
X193252093Y-145363350D01*
X193367187Y-145277190D01*
X193367190Y-145277187D01*
X193453350Y-145162093D01*
X193453354Y-145162086D01*
X193503596Y-145027379D01*
X193503598Y-145027372D01*
X193509999Y-144967844D01*
X193510000Y-144967827D01*
X193510000Y-144429652D01*
X193529685Y-144362613D01*
X193582489Y-144316858D01*
X193651647Y-144306914D01*
X193715203Y-144335939D01*
X193752660Y-144393655D01*
X193763580Y-144429652D01*
X193771187Y-144454731D01*
X193864086Y-144628532D01*
X193864090Y-144628539D01*
X193989116Y-144780883D01*
X194141460Y-144905909D01*
X194141467Y-144905913D01*
X194315266Y-144998811D01*
X194315269Y-144998811D01*
X194315273Y-144998814D01*
X194503868Y-145056024D01*
X194700000Y-145075341D01*
X194896132Y-145056024D01*
X195084727Y-144998814D01*
X195258538Y-144905910D01*
X195410883Y-144780883D01*
X195535910Y-144628538D01*
X195582362Y-144541632D01*
X195628811Y-144454733D01*
X195628812Y-144454731D01*
X195628814Y-144454727D01*
X195675750Y-144300000D01*
X200044659Y-144300000D01*
X200063975Y-144496129D01*
X200063976Y-144496132D01*
X200104141Y-144628539D01*
X200121188Y-144684733D01*
X200214086Y-144858532D01*
X200214090Y-144858539D01*
X200339116Y-145010883D01*
X200491460Y-145135909D01*
X200491467Y-145135913D01*
X200665266Y-145228811D01*
X200665269Y-145228811D01*
X200665273Y-145228814D01*
X200853868Y-145286024D01*
X201050000Y-145305341D01*
X201246132Y-145286024D01*
X201434727Y-145228814D01*
X201608538Y-145135910D01*
X201760883Y-145010883D01*
X201885910Y-144858538D01*
X201978814Y-144684727D01*
X202036024Y-144496132D01*
X202055341Y-144300000D01*
X202036024Y-144103868D01*
X201978814Y-143915273D01*
X201978811Y-143915269D01*
X201978811Y-143915266D01*
X201885913Y-143741467D01*
X201885909Y-143741460D01*
X201760883Y-143589116D01*
X201608539Y-143464090D01*
X201608532Y-143464086D01*
X201434733Y-143371188D01*
X201434727Y-143371186D01*
X201308997Y-143333046D01*
X201246129Y-143313975D01*
X201050000Y-143294659D01*
X200853870Y-143313975D01*
X200665266Y-143371188D01*
X200491467Y-143464086D01*
X200491460Y-143464090D01*
X200339116Y-143589116D01*
X200214090Y-143741460D01*
X200214086Y-143741467D01*
X200121188Y-143915266D01*
X200063975Y-144103870D01*
X200044659Y-144300000D01*
X195675750Y-144300000D01*
X195686024Y-144266132D01*
X195705341Y-144070000D01*
X195686024Y-143873868D01*
X195628814Y-143685273D01*
X195628811Y-143685269D01*
X195628811Y-143685266D01*
X195535913Y-143511467D01*
X195535909Y-143511460D01*
X195410883Y-143359116D01*
X195258539Y-143234090D01*
X195258532Y-143234086D01*
X195084733Y-143141188D01*
X195084727Y-143141186D01*
X194896132Y-143083976D01*
X194896129Y-143083975D01*
X194700000Y-143064659D01*
X194503870Y-143083975D01*
X194315266Y-143141188D01*
X194141467Y-143234086D01*
X194141460Y-143234090D01*
X193989116Y-143359116D01*
X193864090Y-143511460D01*
X193864086Y-143511467D01*
X193771186Y-143685271D01*
X193752660Y-143746343D01*
X193714363Y-143804781D01*
X193650550Y-143833238D01*
X193581483Y-143822677D01*
X193529090Y-143776452D01*
X193510000Y-143710347D01*
X193510000Y-143172172D01*
X193509999Y-143172155D01*
X193503598Y-143112627D01*
X193503596Y-143112620D01*
X193453354Y-142977913D01*
X193453350Y-142977906D01*
X193367190Y-142862812D01*
X193367187Y-142862809D01*
X193252093Y-142776649D01*
X193252086Y-142776645D01*
X193117379Y-142726403D01*
X193117372Y-142726401D01*
X193057844Y-142720000D01*
X192410000Y-142720000D01*
X192410000Y-143623505D01*
X192305161Y-143575627D01*
X192196473Y-143560000D01*
X192123527Y-143560000D01*
X192014839Y-143575627D01*
X191910000Y-143623505D01*
X191910000Y-142720000D01*
X191262155Y-142720000D01*
X191202627Y-142726401D01*
X191202620Y-142726403D01*
X191067913Y-142776645D01*
X191067906Y-142776649D01*
X190952812Y-142862809D01*
X190952809Y-142862812D01*
X190866649Y-142977906D01*
X190866645Y-142977913D01*
X190816403Y-143112620D01*
X190816401Y-143112627D01*
X190810000Y-143172155D01*
X190810000Y-143710347D01*
X190790315Y-143777386D01*
X190737511Y-143823141D01*
X190668353Y-143833085D01*
X190604797Y-143804060D01*
X190567340Y-143746343D01*
X190548813Y-143685271D01*
X190455913Y-143511467D01*
X190455909Y-143511460D01*
X190330883Y-143359116D01*
X190178539Y-143234090D01*
X190178532Y-143234086D01*
X190004733Y-143141188D01*
X190004727Y-143141186D01*
X189816132Y-143083976D01*
X189816129Y-143083975D01*
X189620000Y-143064659D01*
X189423870Y-143083975D01*
X189235266Y-143141188D01*
X189061467Y-143234086D01*
X189061460Y-143234090D01*
X188909116Y-143359116D01*
X188784090Y-143511460D01*
X188784086Y-143511467D01*
X188691188Y-143685266D01*
X188633975Y-143873870D01*
X188614659Y-144070000D01*
X184245750Y-144070000D01*
X184225580Y-144003509D01*
X184224956Y-143933642D01*
X184256557Y-143879834D01*
X188018547Y-140117844D01*
X199700000Y-140117844D01*
X199706401Y-140177372D01*
X199706403Y-140177379D01*
X199756645Y-140312086D01*
X199756649Y-140312093D01*
X199842809Y-140427187D01*
X199842812Y-140427190D01*
X199957906Y-140513350D01*
X199957913Y-140513354D01*
X200092620Y-140563596D01*
X200092627Y-140563598D01*
X200152155Y-140569999D01*
X200152172Y-140570000D01*
X200690348Y-140570000D01*
X200757387Y-140589685D01*
X200803142Y-140642489D01*
X200813086Y-140711647D01*
X200784061Y-140775203D01*
X200726344Y-140812660D01*
X200696630Y-140821673D01*
X200665268Y-140831187D01*
X200491467Y-140924086D01*
X200491460Y-140924090D01*
X200339116Y-141049116D01*
X200214090Y-141201460D01*
X200214086Y-141201467D01*
X200121188Y-141375266D01*
X200063975Y-141563870D01*
X200044659Y-141760000D01*
X200063975Y-141956129D01*
X200063976Y-141956132D01*
X200111428Y-142112561D01*
X200121188Y-142144733D01*
X200214086Y-142318532D01*
X200214090Y-142318539D01*
X200339116Y-142470883D01*
X200491460Y-142595909D01*
X200491467Y-142595913D01*
X200665266Y-142688811D01*
X200665269Y-142688811D01*
X200665273Y-142688814D01*
X200853868Y-142746024D01*
X201050000Y-142765341D01*
X201246132Y-142746024D01*
X201434727Y-142688814D01*
X201608538Y-142595910D01*
X201664479Y-142550000D01*
X213894353Y-142550000D01*
X213914834Y-142692456D01*
X213974622Y-142823371D01*
X213974623Y-142823373D01*
X214068872Y-142932143D01*
X214189947Y-143009953D01*
X214189950Y-143009954D01*
X214189949Y-143009954D01*
X214328036Y-143050499D01*
X214328038Y-143050500D01*
X214328039Y-143050500D01*
X214471962Y-143050500D01*
X214471962Y-143050499D01*
X214610053Y-143009953D01*
X214731128Y-142932143D01*
X214825377Y-142823373D01*
X214885165Y-142692457D01*
X214889573Y-142661797D01*
X214918597Y-142598241D01*
X214924616Y-142591775D01*
X215279573Y-142236819D01*
X215340896Y-142203334D01*
X215367254Y-142200500D01*
X218124092Y-142200500D01*
X218124094Y-142200500D01*
X218145162Y-142193654D01*
X218164078Y-142189112D01*
X218185965Y-142185646D01*
X218205705Y-142175586D01*
X218223672Y-142168144D01*
X218244751Y-142161296D01*
X218262687Y-142148263D01*
X218279249Y-142138114D01*
X218299003Y-142128050D01*
X218314495Y-142112557D01*
X218314502Y-142112552D01*
X221357052Y-139070002D01*
X224416906Y-139070002D01*
X224423245Y-139142456D01*
X224434698Y-139273373D01*
X224435976Y-139287975D01*
X224435976Y-139287979D01*
X224492605Y-139499322D01*
X224492607Y-139499326D01*
X224492608Y-139499330D01*
X224536692Y-139593868D01*
X224585080Y-139697638D01*
X224585081Y-139697639D01*
X224710585Y-139876877D01*
X224865306Y-140031598D01*
X225044544Y-140157102D01*
X225242853Y-140249575D01*
X225454206Y-140306207D01*
X225637109Y-140322208D01*
X225672181Y-140325277D01*
X225672183Y-140325277D01*
X225672185Y-140325277D01*
X225700437Y-140322805D01*
X225890160Y-140306207D01*
X226101513Y-140249575D01*
X226240376Y-140184822D01*
X228231682Y-140184822D01*
X228240414Y-140228717D01*
X228240417Y-140228724D01*
X228273678Y-140278503D01*
X228273679Y-140278504D01*
X228323461Y-140311767D01*
X228323464Y-140311767D01*
X228323465Y-140311768D01*
X228367360Y-140320500D01*
X228367363Y-140320500D01*
X230597005Y-140320500D01*
X230640900Y-140311768D01*
X230640900Y-140311767D01*
X230640905Y-140311767D01*
X230690687Y-140278504D01*
X230723950Y-140228722D01*
X230732683Y-140184820D01*
X230732683Y-137955180D01*
X230732683Y-137955177D01*
X230723951Y-137911282D01*
X230723950Y-137911281D01*
X230723950Y-137911278D01*
X230690687Y-137861496D01*
X230674844Y-137850910D01*
X230640907Y-137828234D01*
X230640900Y-137828231D01*
X230597005Y-137819500D01*
X230597003Y-137819500D01*
X228367363Y-137819500D01*
X228367361Y-137819500D01*
X228323465Y-137828231D01*
X228323458Y-137828234D01*
X228273679Y-137861495D01*
X228273678Y-137861496D01*
X228240417Y-137911275D01*
X228240414Y-137911282D01*
X228231683Y-137955177D01*
X228231683Y-137955180D01*
X228231683Y-140184820D01*
X228231683Y-140184822D01*
X228231682Y-140184822D01*
X226240376Y-140184822D01*
X226299822Y-140157102D01*
X226479060Y-140031598D01*
X226633781Y-139876877D01*
X226759285Y-139697639D01*
X226851758Y-139499330D01*
X226908390Y-139287977D01*
X226924988Y-139098254D01*
X226927460Y-139070002D01*
X226927460Y-139069997D01*
X226921154Y-138997917D01*
X226908390Y-138852023D01*
X226851758Y-138640670D01*
X226759285Y-138442362D01*
X226759283Y-138442359D01*
X226759282Y-138442357D01*
X226633782Y-138263124D01*
X226579161Y-138208503D01*
X226479060Y-138108402D01*
X226299822Y-137982898D01*
X226299823Y-137982898D01*
X226299821Y-137982897D01*
X226200667Y-137936661D01*
X226101513Y-137890425D01*
X226101509Y-137890424D01*
X226101505Y-137890422D01*
X225890160Y-137833793D01*
X225672185Y-137814723D01*
X225672181Y-137814723D01*
X225526865Y-137827436D01*
X225454206Y-137833793D01*
X225454203Y-137833793D01*
X225242860Y-137890422D01*
X225242851Y-137890426D01*
X225044544Y-137982898D01*
X225044540Y-137982900D01*
X224865304Y-138108402D01*
X224710585Y-138263121D01*
X224585083Y-138442357D01*
X224585081Y-138442361D01*
X224492609Y-138640668D01*
X224492605Y-138640677D01*
X224435976Y-138852020D01*
X224435976Y-138852024D01*
X224416906Y-139069997D01*
X224416906Y-139070002D01*
X221357052Y-139070002D01*
X222912552Y-137514502D01*
X222912557Y-137514495D01*
X222928050Y-137499003D01*
X222938109Y-137479259D01*
X222948269Y-137462679D01*
X222961296Y-137444750D01*
X222968142Y-137423678D01*
X222975588Y-137405704D01*
X222985645Y-137385966D01*
X222985646Y-137385965D01*
X222989112Y-137364077D01*
X222993651Y-137345171D01*
X223000500Y-137324094D01*
X223000500Y-137197228D01*
X223000500Y-136148332D01*
X223020185Y-136081293D01*
X223020901Y-136080336D01*
X223025368Y-136073382D01*
X223025377Y-136073373D01*
X223085165Y-135942457D01*
X223105647Y-135800000D01*
X223085165Y-135657543D01*
X223025377Y-135526627D01*
X222931128Y-135417857D01*
X222810053Y-135340047D01*
X222810051Y-135340046D01*
X222810049Y-135340045D01*
X222810050Y-135340045D01*
X222671963Y-135299500D01*
X222671961Y-135299500D01*
X222528039Y-135299500D01*
X222528036Y-135299500D01*
X222389949Y-135340045D01*
X222268873Y-135417856D01*
X222174623Y-135526626D01*
X222174622Y-135526628D01*
X222114834Y-135657543D01*
X222094353Y-135800000D01*
X222114834Y-135942456D01*
X222127010Y-135969116D01*
X222174623Y-136073373D01*
X222174627Y-136073378D01*
X222179418Y-136080833D01*
X222176364Y-136082795D01*
X222198235Y-136130663D01*
X222199500Y-136148332D01*
X222199500Y-137043405D01*
X222179815Y-137110444D01*
X222163181Y-137131086D01*
X220458964Y-138835302D01*
X220397641Y-138868787D01*
X220327949Y-138863803D01*
X220272016Y-138821931D01*
X220258493Y-138799141D01*
X220225377Y-138726627D01*
X220225374Y-138726623D01*
X220220582Y-138719166D01*
X220223621Y-138717212D01*
X220201749Y-138669224D01*
X220200500Y-138651667D01*
X220200500Y-135367255D01*
X220220185Y-135300216D01*
X220236819Y-135279574D01*
X220665510Y-134850883D01*
X220846393Y-134670000D01*
X225239659Y-134670000D01*
X225258975Y-134866129D01*
X225258976Y-134866132D01*
X225307444Y-135025910D01*
X225316188Y-135054733D01*
X225409086Y-135228532D01*
X225409090Y-135228539D01*
X225534116Y-135380883D01*
X225686460Y-135505909D01*
X225686467Y-135505913D01*
X225860266Y-135598811D01*
X225860269Y-135598811D01*
X225860273Y-135598814D01*
X226048868Y-135656024D01*
X226245000Y-135675341D01*
X226441132Y-135656024D01*
X226629727Y-135598814D01*
X226667317Y-135578722D01*
X226716632Y-135552362D01*
X226803538Y-135505910D01*
X226955883Y-135380883D01*
X227080910Y-135228538D01*
X227156795Y-135086567D01*
X227173811Y-135054733D01*
X227173811Y-135054732D01*
X227173814Y-135054727D01*
X227231024Y-134866132D01*
X227250341Y-134670000D01*
X227231024Y-134473868D01*
X227173814Y-134285273D01*
X227173811Y-134285269D01*
X227173811Y-134285266D01*
X227080913Y-134111467D01*
X227080909Y-134111460D01*
X226955883Y-133959116D01*
X226803539Y-133834090D01*
X226803532Y-133834086D01*
X226629733Y-133741188D01*
X226629727Y-133741186D01*
X226441132Y-133683976D01*
X226441129Y-133683975D01*
X226245000Y-133664659D01*
X226048870Y-133683975D01*
X225860266Y-133741188D01*
X225686467Y-133834086D01*
X225686460Y-133834090D01*
X225534116Y-133959116D01*
X225409090Y-134111460D01*
X225409086Y-134111467D01*
X225316188Y-134285266D01*
X225258975Y-134473870D01*
X225239659Y-134670000D01*
X220846393Y-134670000D01*
X221240992Y-134275400D01*
X221293737Y-134244106D01*
X221410050Y-134209954D01*
X221410050Y-134209953D01*
X221410053Y-134209953D01*
X221531128Y-134132143D01*
X221625377Y-134023373D01*
X221685165Y-133892457D01*
X221705647Y-133750000D01*
X221699642Y-133708236D01*
X221685165Y-133607543D01*
X221658657Y-133549500D01*
X221625377Y-133476627D01*
X221531128Y-133367857D01*
X221410053Y-133290047D01*
X221410051Y-133290046D01*
X221410049Y-133290045D01*
X221410050Y-133290045D01*
X221271963Y-133249500D01*
X221271961Y-133249500D01*
X221128039Y-133249500D01*
X221128036Y-133249500D01*
X220989949Y-133290045D01*
X220868873Y-133367856D01*
X220774623Y-133476626D01*
X220774622Y-133476628D01*
X220714835Y-133607541D01*
X220714834Y-133607545D01*
X220710426Y-133638204D01*
X220681400Y-133701759D01*
X220675369Y-133708236D01*
X219494516Y-134889091D01*
X219494513Y-134889094D01*
X219471949Y-134911659D01*
X219471948Y-134911660D01*
X219461891Y-134931397D01*
X219451731Y-134947977D01*
X219438706Y-134965905D01*
X219438703Y-134965910D01*
X219431854Y-134986988D01*
X219424413Y-135004952D01*
X219414354Y-135024695D01*
X219410887Y-135046582D01*
X219406347Y-135065491D01*
X219399500Y-135086567D01*
X219399500Y-138651667D01*
X219379815Y-138718706D01*
X219379094Y-138719669D01*
X219374622Y-138726628D01*
X219314834Y-138857543D01*
X219294353Y-139000000D01*
X219314834Y-139142456D01*
X219355485Y-139231467D01*
X219374623Y-139273373D01*
X219468872Y-139382143D01*
X219589947Y-139459953D01*
X219589954Y-139459955D01*
X219595246Y-139462372D01*
X219648051Y-139508126D01*
X219667737Y-139575165D01*
X219648054Y-139642205D01*
X219631418Y-139662849D01*
X217931087Y-141363181D01*
X217869764Y-141396666D01*
X217843406Y-141399500D01*
X215086567Y-141399500D01*
X215065491Y-141406347D01*
X215046582Y-141410887D01*
X215024696Y-141414354D01*
X215004955Y-141424412D01*
X214986987Y-141431854D01*
X214965912Y-141438702D01*
X214965909Y-141438704D01*
X214947984Y-141451727D01*
X214931399Y-141461890D01*
X214911659Y-141471948D01*
X214900375Y-141483232D01*
X214889091Y-141494517D01*
X214737209Y-141646399D01*
X214359009Y-142024597D01*
X214306263Y-142055893D01*
X214189949Y-142090045D01*
X214068873Y-142167856D01*
X213974623Y-142276626D01*
X213974622Y-142276628D01*
X213914834Y-142407543D01*
X213894353Y-142550000D01*
X201664479Y-142550000D01*
X201760883Y-142470883D01*
X201885910Y-142318538D01*
X201949003Y-142200499D01*
X201978811Y-142144733D01*
X201978811Y-142144732D01*
X201978814Y-142144727D01*
X202036024Y-141956132D01*
X202055341Y-141760000D01*
X202036024Y-141563868D01*
X201978814Y-141375273D01*
X201978811Y-141375269D01*
X201978811Y-141375266D01*
X201885913Y-141201467D01*
X201885909Y-141201460D01*
X201760883Y-141049116D01*
X201608539Y-140924090D01*
X201608532Y-140924086D01*
X201434731Y-140831187D01*
X201416190Y-140825562D01*
X201373655Y-140812660D01*
X201315218Y-140774363D01*
X201286762Y-140710551D01*
X201297322Y-140641484D01*
X201343546Y-140589090D01*
X201409652Y-140570000D01*
X201947828Y-140570000D01*
X201947844Y-140569999D01*
X202007372Y-140563598D01*
X202007379Y-140563596D01*
X202142086Y-140513354D01*
X202142093Y-140513350D01*
X202257187Y-140427190D01*
X202257190Y-140427187D01*
X202343350Y-140312093D01*
X202343354Y-140312086D01*
X202393596Y-140177379D01*
X202393598Y-140177372D01*
X202399999Y-140117844D01*
X202400000Y-140117827D01*
X202400000Y-139470000D01*
X201495572Y-139470000D01*
X201518682Y-139434040D01*
X201558041Y-139300000D01*
X216844353Y-139300000D01*
X216864834Y-139442456D01*
X216894825Y-139508126D01*
X216924623Y-139573373D01*
X217018872Y-139682143D01*
X217139947Y-139759953D01*
X217139950Y-139759954D01*
X217139949Y-139759954D01*
X217278036Y-139800499D01*
X217278038Y-139800500D01*
X217278039Y-139800500D01*
X217421962Y-139800500D01*
X217421962Y-139800499D01*
X217560053Y-139759953D01*
X217681128Y-139682143D01*
X217775377Y-139573373D01*
X217835165Y-139442457D01*
X217855647Y-139300000D01*
X217835165Y-139157543D01*
X217775377Y-139026627D01*
X217775374Y-139026624D01*
X217770582Y-139019166D01*
X217773621Y-139017212D01*
X217751749Y-138969224D01*
X217750500Y-138951667D01*
X217750500Y-132967254D01*
X217770185Y-132900215D01*
X217786819Y-132879573D01*
X218084718Y-132581673D01*
X218137458Y-132550380D01*
X218253780Y-132516226D01*
X218374855Y-132438416D01*
X218469104Y-132329646D01*
X218528892Y-132198730D01*
X218549374Y-132056273D01*
X218528892Y-131913816D01*
X218469104Y-131782900D01*
X218374855Y-131674130D01*
X218253780Y-131596320D01*
X218253778Y-131596319D01*
X218253776Y-131596318D01*
X218253777Y-131596318D01*
X218115690Y-131555773D01*
X218115688Y-131555773D01*
X217971766Y-131555773D01*
X217971763Y-131555773D01*
X217833676Y-131596318D01*
X217712600Y-131674129D01*
X217618350Y-131782899D01*
X217618349Y-131782901D01*
X217558562Y-131913814D01*
X217558561Y-131913818D01*
X217554153Y-131944478D01*
X217525127Y-132008033D01*
X217519096Y-132014510D01*
X217044516Y-132489091D01*
X217044513Y-132489094D01*
X217021949Y-132511659D01*
X217021948Y-132511660D01*
X217011891Y-132531397D01*
X217001731Y-132547977D01*
X216988706Y-132565905D01*
X216988703Y-132565910D01*
X216981854Y-132586988D01*
X216974413Y-132604952D01*
X216964354Y-132624695D01*
X216960887Y-132646582D01*
X216956347Y-132665491D01*
X216949500Y-132686567D01*
X216949500Y-138951667D01*
X216929815Y-139018706D01*
X216929094Y-139019669D01*
X216924622Y-139026628D01*
X216864834Y-139157543D01*
X216844353Y-139300000D01*
X201558041Y-139300000D01*
X201560000Y-139293327D01*
X201560000Y-139146673D01*
X201518682Y-139005960D01*
X201495572Y-138970000D01*
X202400000Y-138970000D01*
X202400000Y-138322172D01*
X202399999Y-138322155D01*
X202393598Y-138262627D01*
X202393596Y-138262620D01*
X202343354Y-138127913D01*
X202343350Y-138127906D01*
X202257190Y-138012812D01*
X202257187Y-138012809D01*
X202142093Y-137926649D01*
X202142086Y-137926645D01*
X202007379Y-137876403D01*
X202007372Y-137876401D01*
X201947844Y-137870000D01*
X201409652Y-137870000D01*
X201342613Y-137850315D01*
X201296858Y-137797511D01*
X201286914Y-137728353D01*
X201315939Y-137664797D01*
X201373655Y-137627339D01*
X201434727Y-137608814D01*
X201608538Y-137515910D01*
X201760883Y-137390883D01*
X201885910Y-137238538D01*
X201978814Y-137064727D01*
X202036024Y-136876132D01*
X202055341Y-136680000D01*
X202036024Y-136483868D01*
X201978814Y-136295273D01*
X201978811Y-136295269D01*
X201978811Y-136295266D01*
X201885913Y-136121467D01*
X201885909Y-136121460D01*
X201760883Y-135969116D01*
X201608539Y-135844090D01*
X201608532Y-135844086D01*
X201434733Y-135751188D01*
X201434727Y-135751186D01*
X201246132Y-135693976D01*
X201246129Y-135693975D01*
X201050000Y-135674659D01*
X200853870Y-135693975D01*
X200665266Y-135751188D01*
X200491467Y-135844086D01*
X200491460Y-135844090D01*
X200339116Y-135969116D01*
X200214090Y-136121460D01*
X200214086Y-136121467D01*
X200121188Y-136295266D01*
X200063975Y-136483870D01*
X200044659Y-136680000D01*
X200063975Y-136876129D01*
X200121188Y-137064733D01*
X200214086Y-137238532D01*
X200214090Y-137238539D01*
X200339116Y-137390883D01*
X200491460Y-137515909D01*
X200491467Y-137515913D01*
X200665268Y-137608812D01*
X200665270Y-137608812D01*
X200665273Y-137608814D01*
X200726344Y-137627339D01*
X200784782Y-137665637D01*
X200813238Y-137729449D01*
X200802678Y-137798516D01*
X200756454Y-137850910D01*
X200690348Y-137870000D01*
X200152155Y-137870000D01*
X200092627Y-137876401D01*
X200092620Y-137876403D01*
X199957913Y-137926645D01*
X199957906Y-137926649D01*
X199842812Y-138012809D01*
X199842809Y-138012812D01*
X199756649Y-138127906D01*
X199756645Y-138127913D01*
X199706403Y-138262620D01*
X199706401Y-138262627D01*
X199700000Y-138322155D01*
X199700000Y-138970000D01*
X200604428Y-138970000D01*
X200581318Y-139005960D01*
X200540000Y-139146673D01*
X200540000Y-139293327D01*
X200581318Y-139434040D01*
X200604428Y-139470000D01*
X199700000Y-139470000D01*
X199700000Y-140117844D01*
X188018547Y-140117844D01*
X194849573Y-133286819D01*
X194910896Y-133253334D01*
X194937254Y-133250500D01*
X200223528Y-133250500D01*
X200290567Y-133270185D01*
X200336322Y-133322989D01*
X200346266Y-133392147D01*
X200319381Y-133453165D01*
X200214090Y-133581460D01*
X200214086Y-133581467D01*
X200121188Y-133755266D01*
X200063975Y-133943870D01*
X200044659Y-134140000D01*
X200063975Y-134336129D01*
X200121188Y-134524733D01*
X200214086Y-134698532D01*
X200214090Y-134698539D01*
X200339116Y-134850883D01*
X200491460Y-134975909D01*
X200491467Y-134975913D01*
X200665266Y-135068811D01*
X200665269Y-135068811D01*
X200665273Y-135068814D01*
X200853868Y-135126024D01*
X201050000Y-135145341D01*
X201246132Y-135126024D01*
X201434727Y-135068814D01*
X201608538Y-134975910D01*
X201760883Y-134850883D01*
X201885910Y-134698538D01*
X201952085Y-134574733D01*
X201978811Y-134524733D01*
X201978811Y-134524732D01*
X201978814Y-134524727D01*
X202036024Y-134336132D01*
X202055341Y-134140000D01*
X202036024Y-133943868D01*
X201978814Y-133755273D01*
X201978811Y-133755269D01*
X201978811Y-133755266D01*
X201885913Y-133581467D01*
X201885909Y-133581460D01*
X201760884Y-133429117D01*
X201739938Y-133411928D01*
X201700603Y-133354183D01*
X201698732Y-133284338D01*
X201734918Y-133224570D01*
X201745714Y-133215758D01*
X201751853Y-133211297D01*
X201751857Y-133211296D01*
X201769791Y-133198265D01*
X201786355Y-133188114D01*
X201806109Y-133178050D01*
X201821601Y-133162557D01*
X201821608Y-133162552D01*
X202612552Y-132371608D01*
X202612557Y-132371601D01*
X202628050Y-132356109D01*
X202638109Y-132336365D01*
X202648269Y-132319785D01*
X202661296Y-132301856D01*
X202668142Y-132280784D01*
X202675588Y-132262810D01*
X202685645Y-132243072D01*
X202685646Y-132243071D01*
X202689112Y-132221183D01*
X202693651Y-132202277D01*
X202700500Y-132181200D01*
X202700500Y-132054334D01*
X202700500Y-126800000D01*
X215294353Y-126800000D01*
X215314834Y-126942456D01*
X215374622Y-127073371D01*
X215374623Y-127073373D01*
X215468872Y-127182143D01*
X215589947Y-127259953D01*
X215589950Y-127259954D01*
X215589949Y-127259954D01*
X215728036Y-127300499D01*
X215728038Y-127300500D01*
X215728039Y-127300500D01*
X215871962Y-127300500D01*
X215871962Y-127300499D01*
X216010050Y-127259954D01*
X216010051Y-127259954D01*
X216018176Y-127254733D01*
X216028949Y-127247809D01*
X216071936Y-127220184D01*
X216138974Y-127200500D01*
X220913431Y-127200500D01*
X220913433Y-127200500D01*
X220934501Y-127193654D01*
X220953417Y-127189112D01*
X220975304Y-127185646D01*
X220995044Y-127175586D01*
X221013011Y-127168144D01*
X221034090Y-127161296D01*
X221052026Y-127148263D01*
X221068588Y-127138114D01*
X221088342Y-127128050D01*
X221103835Y-127112555D01*
X221103839Y-127112553D01*
X221110907Y-127105485D01*
X221110909Y-127105484D01*
X221140991Y-127075401D01*
X221193737Y-127044106D01*
X221310050Y-127009954D01*
X221310050Y-127009953D01*
X221310053Y-127009953D01*
X221431128Y-126932143D01*
X221525377Y-126823373D01*
X221585165Y-126692457D01*
X221605647Y-126550000D01*
X221585165Y-126407543D01*
X221525377Y-126276627D01*
X221431128Y-126167857D01*
X221310053Y-126090047D01*
X221310051Y-126090046D01*
X221310049Y-126090045D01*
X221310050Y-126090045D01*
X221171963Y-126049500D01*
X221171961Y-126049500D01*
X221028039Y-126049500D01*
X221028036Y-126049500D01*
X220889949Y-126090045D01*
X220768873Y-126167856D01*
X220674623Y-126276626D01*
X220674620Y-126276630D01*
X220651613Y-126327011D01*
X220605859Y-126379815D01*
X220538819Y-126399500D01*
X216138974Y-126399500D01*
X216071936Y-126379816D01*
X216010050Y-126340045D01*
X215871963Y-126299500D01*
X215871961Y-126299500D01*
X215728039Y-126299500D01*
X215728036Y-126299500D01*
X215589949Y-126340045D01*
X215468873Y-126417856D01*
X215374623Y-126526626D01*
X215374622Y-126526628D01*
X215314834Y-126657543D01*
X215294353Y-126800000D01*
X202700500Y-126800000D01*
X202700500Y-124234822D01*
X213159499Y-124234822D01*
X213168231Y-124278717D01*
X213168234Y-124278724D01*
X213186603Y-124306215D01*
X213201496Y-124328504D01*
X213251278Y-124361767D01*
X213251281Y-124361767D01*
X213251282Y-124361768D01*
X213295177Y-124370500D01*
X213295180Y-124370500D01*
X214624822Y-124370500D01*
X214668717Y-124361768D01*
X214668717Y-124361767D01*
X214668722Y-124361767D01*
X214718504Y-124328504D01*
X214751767Y-124278722D01*
X214752568Y-124274695D01*
X214760500Y-124234822D01*
X214760500Y-123158569D01*
X214780185Y-123091530D01*
X214832989Y-123045775D01*
X214902147Y-123035831D01*
X214925455Y-123041528D01*
X215050737Y-123085366D01*
X215050743Y-123085367D01*
X215050745Y-123085368D01*
X215050746Y-123085368D01*
X215050750Y-123085369D01*
X215229996Y-123105565D01*
X215230000Y-123105565D01*
X215230004Y-123105565D01*
X215409249Y-123085369D01*
X215409252Y-123085368D01*
X215409255Y-123085368D01*
X215579522Y-123025789D01*
X215643352Y-122985681D01*
X215710587Y-122966681D01*
X215777423Y-122987048D01*
X215822637Y-123040315D01*
X215831876Y-123109571D01*
X215814318Y-123156647D01*
X215774211Y-123220476D01*
X215714631Y-123390745D01*
X215714630Y-123390750D01*
X215694435Y-123569996D01*
X215694435Y-123570003D01*
X215714630Y-123749249D01*
X215714631Y-123749254D01*
X215774211Y-123919523D01*
X215804202Y-123967253D01*
X215870184Y-124072262D01*
X215997738Y-124199816D01*
X216053450Y-124234822D01*
X216132169Y-124284285D01*
X216150478Y-124295789D01*
X216243972Y-124328504D01*
X216320745Y-124355368D01*
X216320750Y-124355369D01*
X216499996Y-124375565D01*
X216500000Y-124375565D01*
X216500004Y-124375565D01*
X216679249Y-124355369D01*
X216679252Y-124355368D01*
X216679255Y-124355368D01*
X216849522Y-124295789D01*
X217002262Y-124199816D01*
X217129816Y-124072262D01*
X217225789Y-123919522D01*
X217285368Y-123749255D01*
X217285369Y-123749249D01*
X217305565Y-123570003D01*
X217305565Y-123569996D01*
X217285369Y-123390750D01*
X217285368Y-123390745D01*
X217253031Y-123298332D01*
X217225789Y-123220478D01*
X217129816Y-123067738D01*
X217002262Y-122940184D01*
X216849523Y-122844211D01*
X216679254Y-122784631D01*
X216679249Y-122784630D01*
X216500004Y-122764435D01*
X216499996Y-122764435D01*
X216320750Y-122784630D01*
X216320745Y-122784631D01*
X216150476Y-122844211D01*
X216086647Y-122884318D01*
X216019410Y-122903318D01*
X215952575Y-122882950D01*
X215907361Y-122829682D01*
X215898124Y-122760426D01*
X215915681Y-122713353D01*
X215955789Y-122649522D01*
X216015368Y-122479255D01*
X216015369Y-122479249D01*
X216017469Y-122460615D01*
X216044536Y-122396201D01*
X216102132Y-122356647D01*
X216140689Y-122350500D01*
X219011026Y-122350500D01*
X219078064Y-122370184D01*
X219139949Y-122409954D01*
X219228349Y-122435910D01*
X219274633Y-122449500D01*
X219278036Y-122450499D01*
X219278038Y-122450500D01*
X219278039Y-122450500D01*
X219421962Y-122450500D01*
X219421962Y-122450499D01*
X219560053Y-122409953D01*
X219681128Y-122332143D01*
X219775377Y-122223373D01*
X219835165Y-122092457D01*
X219855647Y-121950000D01*
X219835165Y-121807543D01*
X219775377Y-121676627D01*
X219681128Y-121567857D01*
X219560053Y-121490047D01*
X219560051Y-121490046D01*
X219560049Y-121490045D01*
X219560050Y-121490045D01*
X219421963Y-121449500D01*
X219421961Y-121449500D01*
X219278039Y-121449500D01*
X219278036Y-121449500D01*
X219139950Y-121490045D01*
X219139948Y-121490045D01*
X219078064Y-121529816D01*
X219011026Y-121549500D01*
X215529972Y-121549500D01*
X215489018Y-121542542D01*
X215452649Y-121529816D01*
X215409254Y-121514631D01*
X215409249Y-121514630D01*
X215230004Y-121494435D01*
X215229996Y-121494435D01*
X215050750Y-121514630D01*
X215050745Y-121514631D01*
X214880476Y-121574211D01*
X214727737Y-121670184D01*
X214600184Y-121797737D01*
X214504211Y-121950476D01*
X214444631Y-122120745D01*
X214444630Y-122120750D01*
X214424435Y-122299996D01*
X214424435Y-122300003D01*
X214444630Y-122479249D01*
X214444633Y-122479262D01*
X214488472Y-122604545D01*
X214492034Y-122674324D01*
X214457306Y-122734951D01*
X214395312Y-122767179D01*
X214371431Y-122769500D01*
X213295178Y-122769500D01*
X213251282Y-122778231D01*
X213251275Y-122778234D01*
X213201496Y-122811495D01*
X213201495Y-122811496D01*
X213168234Y-122861275D01*
X213168231Y-122861282D01*
X213159500Y-122905177D01*
X213159500Y-122905180D01*
X213159500Y-124234820D01*
X213159500Y-124234822D01*
X213159499Y-124234822D01*
X202700500Y-124234822D01*
X202700500Y-123967253D01*
X202720185Y-123900214D01*
X202736814Y-123879577D01*
X210296391Y-116319999D01*
X212521127Y-116319999D01*
X212521128Y-116320000D01*
X213484314Y-116320000D01*
X213472359Y-116331955D01*
X213414835Y-116444852D01*
X213395014Y-116570000D01*
X213414835Y-116695148D01*
X213472359Y-116808045D01*
X213484314Y-116820000D01*
X212521128Y-116820000D01*
X212573730Y-117016317D01*
X212573734Y-117016326D01*
X212669865Y-117222482D01*
X212800342Y-117408820D01*
X212961179Y-117569657D01*
X213147517Y-117700134D01*
X213353673Y-117796265D01*
X213353682Y-117796269D01*
X213549999Y-117848872D01*
X213550000Y-117848871D01*
X213550000Y-116885686D01*
X213561955Y-116897641D01*
X213674852Y-116955165D01*
X213768519Y-116970000D01*
X213831481Y-116970000D01*
X213925148Y-116955165D01*
X214038045Y-116897641D01*
X214050000Y-116885686D01*
X214050000Y-117848872D01*
X214246317Y-117796269D01*
X214246326Y-117796265D01*
X214452482Y-117700134D01*
X214638820Y-117569657D01*
X214799657Y-117408820D01*
X214930134Y-117222482D01*
X215026265Y-117016326D01*
X215026269Y-117016317D01*
X215078872Y-116820000D01*
X214115686Y-116820000D01*
X214127641Y-116808045D01*
X214185165Y-116695148D01*
X214204986Y-116570000D01*
X214185165Y-116444852D01*
X214127641Y-116331955D01*
X214115686Y-116320000D01*
X215078872Y-116320000D01*
X215078872Y-116319999D01*
X215026269Y-116123682D01*
X215026265Y-116123673D01*
X214930134Y-115917517D01*
X214799657Y-115731179D01*
X214638820Y-115570342D01*
X214452482Y-115439865D01*
X214246328Y-115343734D01*
X214050000Y-115291127D01*
X214050000Y-116254314D01*
X214038045Y-116242359D01*
X213925148Y-116184835D01*
X213831481Y-116170000D01*
X213768519Y-116170000D01*
X213674852Y-116184835D01*
X213561955Y-116242359D01*
X213550000Y-116254314D01*
X213550000Y-115291127D01*
X213353671Y-115343734D01*
X213147517Y-115439865D01*
X212961179Y-115570342D01*
X212800342Y-115731179D01*
X212669865Y-115917517D01*
X212573734Y-116123673D01*
X212573730Y-116123682D01*
X212521127Y-116319999D01*
X210296391Y-116319999D01*
X212636338Y-113980052D01*
X212697659Y-113946569D01*
X212767351Y-113951553D01*
X212823284Y-113993425D01*
X212847420Y-114055581D01*
X212863252Y-114216331D01*
X212863253Y-114216333D01*
X212917604Y-114395502D01*
X213005862Y-114560623D01*
X213005864Y-114560626D01*
X213124642Y-114705357D01*
X213269373Y-114824135D01*
X213269376Y-114824137D01*
X213433919Y-114912086D01*
X213434499Y-114912396D01*
X213573445Y-114954545D01*
X213613666Y-114966746D01*
X213613668Y-114966747D01*
X213623558Y-114967721D01*
X213800000Y-114985099D01*
X213986331Y-114966747D01*
X214165501Y-114912396D01*
X214330625Y-114824136D01*
X214475357Y-114705357D01*
X214594136Y-114560625D01*
X214682396Y-114395501D01*
X214736747Y-114216331D01*
X214755099Y-114030000D01*
X214738392Y-113860374D01*
X214736747Y-113843668D01*
X214736746Y-113843666D01*
X214736285Y-113842147D01*
X214682396Y-113664499D01*
X214671198Y-113643548D01*
X214594137Y-113499376D01*
X214594135Y-113499373D01*
X214539799Y-113433165D01*
X214512486Y-113368855D01*
X214524277Y-113299988D01*
X214571429Y-113248427D01*
X214635652Y-113230500D01*
X214833431Y-113230500D01*
X214833433Y-113230500D01*
X214854501Y-113223654D01*
X214873417Y-113219112D01*
X214895304Y-113215646D01*
X214915044Y-113205586D01*
X214933011Y-113198144D01*
X214954090Y-113191296D01*
X214972026Y-113178263D01*
X214988588Y-113168114D01*
X215008342Y-113158050D01*
X215023834Y-113142557D01*
X215023841Y-113142552D01*
X215366893Y-112799500D01*
X216428703Y-111737688D01*
X216490024Y-111704205D01*
X216559715Y-111709189D01*
X216615649Y-111751060D01*
X216629175Y-111773858D01*
X216674623Y-111873373D01*
X216768872Y-111982143D01*
X216889947Y-112059953D01*
X216889950Y-112059954D01*
X216889949Y-112059954D01*
X217006262Y-112094106D01*
X217059009Y-112125402D01*
X218070986Y-113137380D01*
X218071006Y-113137398D01*
X218091658Y-113158050D01*
X218111390Y-113168104D01*
X218111398Y-113168108D01*
X218127987Y-113178274D01*
X218145909Y-113191295D01*
X218145910Y-113191295D01*
X218145911Y-113191296D01*
X218166980Y-113198142D01*
X218184949Y-113205584D01*
X218204696Y-113215646D01*
X218226582Y-113219112D01*
X218245497Y-113223653D01*
X218266567Y-113230500D01*
X218298481Y-113230500D01*
X220584348Y-113230500D01*
X220651387Y-113250185D01*
X220697142Y-113302989D01*
X220707086Y-113372147D01*
X220680201Y-113433165D01*
X220625864Y-113499373D01*
X220625862Y-113499376D01*
X220537604Y-113664497D01*
X220483253Y-113843666D01*
X220483252Y-113843668D01*
X220464901Y-114030000D01*
X220483252Y-114216331D01*
X220483253Y-114216333D01*
X220537604Y-114395502D01*
X220625862Y-114560623D01*
X220625864Y-114560626D01*
X220744642Y-114705357D01*
X220798610Y-114749647D01*
X220837944Y-114807392D01*
X220839815Y-114877237D01*
X220803628Y-114937005D01*
X220740872Y-114967721D01*
X220719945Y-114969500D01*
X217637255Y-114969500D01*
X217570216Y-114949815D01*
X217549574Y-114933181D01*
X216724629Y-114108236D01*
X216691144Y-114046913D01*
X216689572Y-114038198D01*
X216688974Y-114034040D01*
X216685165Y-114007543D01*
X216678717Y-113993425D01*
X216647108Y-113924211D01*
X216625377Y-113876627D01*
X216531128Y-113767857D01*
X216410053Y-113690047D01*
X216410051Y-113690046D01*
X216410049Y-113690045D01*
X216410050Y-113690045D01*
X216271963Y-113649500D01*
X216271961Y-113649500D01*
X216128039Y-113649500D01*
X216128036Y-113649500D01*
X215989949Y-113690045D01*
X215868873Y-113767856D01*
X215774623Y-113876626D01*
X215774622Y-113876628D01*
X215714834Y-114007543D01*
X215694353Y-114150000D01*
X215714834Y-114292456D01*
X215774396Y-114422876D01*
X215774623Y-114423373D01*
X215868872Y-114532143D01*
X215989947Y-114609953D01*
X215989950Y-114609954D01*
X215989949Y-114609954D01*
X216106262Y-114644106D01*
X216159009Y-114675402D01*
X217161225Y-115677619D01*
X217161247Y-115677639D01*
X217181658Y-115698050D01*
X217201389Y-115708103D01*
X217217976Y-115718266D01*
X217235911Y-115731297D01*
X217256985Y-115738144D01*
X217274953Y-115745586D01*
X217294696Y-115755646D01*
X217316582Y-115759112D01*
X217335489Y-115763651D01*
X217356567Y-115770500D01*
X217388481Y-115770500D01*
X220584348Y-115770500D01*
X220651387Y-115790185D01*
X220697142Y-115842989D01*
X220707086Y-115912147D01*
X220680201Y-115973165D01*
X220625864Y-116039373D01*
X220625862Y-116039376D01*
X220537604Y-116204497D01*
X220483253Y-116383666D01*
X220483252Y-116383668D01*
X220464901Y-116570000D01*
X220483252Y-116756331D01*
X220483253Y-116756333D01*
X220537604Y-116935502D01*
X220625862Y-117100623D01*
X220625864Y-117100626D01*
X220744642Y-117245357D01*
X220889373Y-117364135D01*
X220889376Y-117364137D01*
X220972558Y-117408598D01*
X221054499Y-117452396D01*
X221209779Y-117499500D01*
X221233666Y-117506746D01*
X221233668Y-117506747D01*
X221250374Y-117508392D01*
X221420000Y-117525099D01*
X221606331Y-117506747D01*
X221785501Y-117452396D01*
X221950625Y-117364136D01*
X222095357Y-117245357D01*
X222214136Y-117100625D01*
X222302396Y-116935501D01*
X222356747Y-116756331D01*
X222365142Y-116671088D01*
X222391302Y-116606302D01*
X222448336Y-116565943D01*
X222518136Y-116562826D01*
X222576226Y-116595562D01*
X223363877Y-117383212D01*
X224119007Y-118138342D01*
X224208715Y-118228050D01*
X224228452Y-118238106D01*
X224245038Y-118248269D01*
X224262967Y-118261296D01*
X224262969Y-118261296D01*
X224262970Y-118261297D01*
X224284031Y-118268140D01*
X224302010Y-118275586D01*
X224321753Y-118285646D01*
X224343642Y-118289112D01*
X224362558Y-118293653D01*
X224383624Y-118300499D01*
X224412981Y-118300499D01*
X224413005Y-118300500D01*
X224415538Y-118300500D01*
X227361026Y-118300500D01*
X227428064Y-118320184D01*
X227489949Y-118359954D01*
X227628036Y-118400499D01*
X227628038Y-118400500D01*
X227628039Y-118400500D01*
X227771962Y-118400500D01*
X227771962Y-118400499D01*
X227910053Y-118359953D01*
X228031128Y-118282143D01*
X228125377Y-118173373D01*
X228185165Y-118042457D01*
X228205647Y-117900000D01*
X228185165Y-117757543D01*
X228125377Y-117626627D01*
X228031128Y-117517857D01*
X227910053Y-117440047D01*
X227910051Y-117440046D01*
X227910049Y-117440045D01*
X227910050Y-117440045D01*
X227771963Y-117399500D01*
X227771961Y-117399500D01*
X227628039Y-117399500D01*
X227628036Y-117399500D01*
X227489950Y-117440045D01*
X227489948Y-117440045D01*
X227428064Y-117479816D01*
X227361026Y-117499500D01*
X224664311Y-117499500D01*
X224597272Y-117479815D01*
X224576630Y-117463181D01*
X222176344Y-115062893D01*
X222176313Y-115062864D01*
X222155399Y-115041950D01*
X222155398Y-115041949D01*
X222135657Y-115031890D01*
X222119071Y-115021726D01*
X222101147Y-115008704D01*
X222101148Y-115008704D01*
X222080075Y-115001857D01*
X222062101Y-114994412D01*
X222034236Y-114980214D01*
X221983440Y-114932239D01*
X221966645Y-114864418D01*
X221989183Y-114798283D01*
X222011863Y-114773878D01*
X222095357Y-114705357D01*
X222214136Y-114560625D01*
X222302396Y-114395501D01*
X222356747Y-114216331D01*
X222365142Y-114131088D01*
X222391302Y-114066302D01*
X222448336Y-114025943D01*
X222518136Y-114022826D01*
X222576226Y-114055562D01*
X223310055Y-114789390D01*
X223343540Y-114850713D01*
X223345113Y-114894711D01*
X223344353Y-114899999D01*
X223364834Y-115042456D01*
X223424622Y-115173371D01*
X223424623Y-115173373D01*
X223518872Y-115282143D01*
X223639947Y-115359953D01*
X223639950Y-115359954D01*
X223639949Y-115359954D01*
X223778036Y-115400499D01*
X223778038Y-115400500D01*
X223778039Y-115400500D01*
X223921962Y-115400500D01*
X223921962Y-115400499D01*
X224060053Y-115359953D01*
X224181128Y-115282143D01*
X224275377Y-115173373D01*
X224335165Y-115042457D01*
X224355647Y-114900000D01*
X224335165Y-114757543D01*
X224308886Y-114700000D01*
X225194353Y-114700000D01*
X225214834Y-114842456D01*
X225271597Y-114966747D01*
X225274623Y-114973373D01*
X225368872Y-115082143D01*
X225489947Y-115159953D01*
X225489950Y-115159954D01*
X225489949Y-115159954D01*
X225589180Y-115189090D01*
X225606620Y-115194211D01*
X225628036Y-115200499D01*
X225628038Y-115200500D01*
X225628039Y-115200500D01*
X225771962Y-115200500D01*
X225771962Y-115200499D01*
X225904798Y-115161496D01*
X225910050Y-115159954D01*
X225910050Y-115159953D01*
X225910053Y-115159953D01*
X226031128Y-115082143D01*
X226125377Y-114973373D01*
X226185165Y-114842457D01*
X226189573Y-114811795D01*
X226218594Y-114748244D01*
X226224615Y-114741776D01*
X227229574Y-113736819D01*
X227290897Y-113703334D01*
X227317255Y-113700500D01*
X228711883Y-113700500D01*
X228778922Y-113720185D01*
X228824677Y-113772989D01*
X228834621Y-113842147D01*
X228824677Y-113876012D01*
X228824623Y-113876129D01*
X228824623Y-113876130D01*
X228824396Y-113876627D01*
X228764834Y-114007046D01*
X228744353Y-114149503D01*
X228764834Y-114291959D01*
X228824622Y-114422874D01*
X228824623Y-114422876D01*
X228869213Y-114474336D01*
X228898238Y-114537891D01*
X228899500Y-114555538D01*
X228899500Y-116001667D01*
X228879815Y-116068706D01*
X228879094Y-116069669D01*
X228874622Y-116076628D01*
X228814834Y-116207543D01*
X228794353Y-116350000D01*
X228814834Y-116492456D01*
X228870746Y-116614884D01*
X228874623Y-116623373D01*
X228968872Y-116732143D01*
X229089947Y-116809953D01*
X229089950Y-116809954D01*
X229089949Y-116809954D01*
X229228036Y-116850499D01*
X229228038Y-116850500D01*
X229228039Y-116850500D01*
X229371961Y-116850500D01*
X229407721Y-116840000D01*
X229417080Y-116837252D01*
X229486950Y-116837252D01*
X229545728Y-116875026D01*
X229574753Y-116938582D01*
X229564809Y-117007740D01*
X229539696Y-117043910D01*
X228479516Y-118104091D01*
X228479513Y-118104094D01*
X228456949Y-118126659D01*
X228456948Y-118126660D01*
X228446891Y-118146397D01*
X228436731Y-118162977D01*
X228423706Y-118180905D01*
X228423703Y-118180910D01*
X228416854Y-118201988D01*
X228409413Y-118219952D01*
X228399354Y-118239695D01*
X228395887Y-118261582D01*
X228391347Y-118280491D01*
X228384500Y-118301567D01*
X228384500Y-133545500D01*
X228364815Y-133612539D01*
X228312011Y-133658294D01*
X228260500Y-133669500D01*
X227920178Y-133669500D01*
X227876282Y-133678231D01*
X227876275Y-133678234D01*
X227826496Y-133711495D01*
X227826495Y-133711496D01*
X227793234Y-133761275D01*
X227793231Y-133761282D01*
X227784500Y-133805177D01*
X227784500Y-133805180D01*
X227784500Y-135534820D01*
X227784500Y-135534822D01*
X227784499Y-135534822D01*
X227793231Y-135578717D01*
X227793232Y-135578721D01*
X227793233Y-135578722D01*
X227826496Y-135628504D01*
X227876278Y-135661767D01*
X227876281Y-135661767D01*
X227876282Y-135661768D01*
X227920177Y-135670500D01*
X227920180Y-135670500D01*
X229649822Y-135670500D01*
X229693717Y-135661768D01*
X229693717Y-135661767D01*
X229693722Y-135661767D01*
X229743504Y-135628504D01*
X229776767Y-135578722D01*
X229785500Y-135534820D01*
X229785500Y-133805180D01*
X229785500Y-133805177D01*
X229776768Y-133761282D01*
X229776767Y-133761281D01*
X229776767Y-133761278D01*
X229743504Y-133711496D01*
X229743503Y-133711495D01*
X229693724Y-133678234D01*
X229693717Y-133678231D01*
X229649822Y-133669500D01*
X229649820Y-133669500D01*
X229309500Y-133669500D01*
X229242461Y-133649815D01*
X229196706Y-133597011D01*
X229185500Y-133545500D01*
X229185500Y-128122005D01*
X237259499Y-128122005D01*
X237268231Y-128165900D01*
X237268232Y-128165904D01*
X237268233Y-128165905D01*
X237301496Y-128215687D01*
X237351278Y-128248950D01*
X237351281Y-128248950D01*
X237351282Y-128248951D01*
X237395177Y-128257683D01*
X237395180Y-128257683D01*
X239624822Y-128257683D01*
X239668717Y-128248951D01*
X239668717Y-128248950D01*
X239668722Y-128248950D01*
X239718504Y-128215687D01*
X239751767Y-128165905D01*
X239758673Y-128131187D01*
X239760500Y-128122005D01*
X239760500Y-125892360D01*
X239751768Y-125848465D01*
X239751767Y-125848464D01*
X239751767Y-125848461D01*
X239718504Y-125798679D01*
X239718503Y-125798678D01*
X239668724Y-125765417D01*
X239668717Y-125765414D01*
X239624822Y-125756683D01*
X239624820Y-125756683D01*
X237395180Y-125756683D01*
X237395178Y-125756683D01*
X237351282Y-125765414D01*
X237351275Y-125765417D01*
X237301496Y-125798678D01*
X237301495Y-125798679D01*
X237268234Y-125848458D01*
X237268231Y-125848465D01*
X237259500Y-125892360D01*
X237259500Y-125892363D01*
X237259500Y-128122003D01*
X237259500Y-128122005D01*
X237259499Y-128122005D01*
X229185500Y-128122005D01*
X229185500Y-126870000D01*
X229989659Y-126870000D01*
X230008975Y-127066129D01*
X230011788Y-127075403D01*
X230055707Y-127220184D01*
X230066188Y-127254733D01*
X230159086Y-127428532D01*
X230159090Y-127428539D01*
X230284116Y-127580883D01*
X230436460Y-127705909D01*
X230436467Y-127705913D01*
X230610266Y-127798811D01*
X230610269Y-127798811D01*
X230610273Y-127798814D01*
X230798868Y-127856024D01*
X230995000Y-127875341D01*
X231191132Y-127856024D01*
X231379727Y-127798814D01*
X231417317Y-127778722D01*
X231466632Y-127752362D01*
X231499447Y-127734822D01*
X232534499Y-127734822D01*
X232543231Y-127778717D01*
X232543234Y-127778724D01*
X232566373Y-127813354D01*
X232576496Y-127828504D01*
X232626278Y-127861767D01*
X232626281Y-127861767D01*
X232626282Y-127861768D01*
X232670177Y-127870500D01*
X232670180Y-127870500D01*
X234399822Y-127870500D01*
X234443717Y-127861768D01*
X234443717Y-127861767D01*
X234443722Y-127861767D01*
X234493504Y-127828504D01*
X234526767Y-127778722D01*
X234535500Y-127734820D01*
X234535500Y-126005180D01*
X234535500Y-126005177D01*
X234526768Y-125961282D01*
X234526767Y-125961281D01*
X234526767Y-125961278D01*
X234493504Y-125911496D01*
X234475976Y-125899784D01*
X234443724Y-125878234D01*
X234443717Y-125878231D01*
X234399822Y-125869500D01*
X234399820Y-125869500D01*
X232670180Y-125869500D01*
X232670178Y-125869500D01*
X232626282Y-125878231D01*
X232626275Y-125878234D01*
X232576496Y-125911495D01*
X232576495Y-125911496D01*
X232543234Y-125961275D01*
X232543231Y-125961282D01*
X232534500Y-126005177D01*
X232534500Y-126005180D01*
X232534500Y-127734820D01*
X232534500Y-127734822D01*
X232534499Y-127734822D01*
X231499447Y-127734822D01*
X231553538Y-127705910D01*
X231705883Y-127580883D01*
X231830910Y-127428538D01*
X231923814Y-127254727D01*
X231981024Y-127066132D01*
X232000341Y-126870000D01*
X231981024Y-126673868D01*
X231923814Y-126485273D01*
X231923811Y-126485269D01*
X231923811Y-126485266D01*
X231830913Y-126311467D01*
X231830909Y-126311460D01*
X231705883Y-126159116D01*
X231553539Y-126034090D01*
X231553532Y-126034086D01*
X231379733Y-125941188D01*
X231379727Y-125941186D01*
X231218770Y-125892360D01*
X231191129Y-125883975D01*
X230995000Y-125864659D01*
X230798870Y-125883975D01*
X230610266Y-125941188D01*
X230436467Y-126034086D01*
X230436460Y-126034090D01*
X230284116Y-126159116D01*
X230159090Y-126311460D01*
X230159086Y-126311467D01*
X230066188Y-126485266D01*
X230008975Y-126673870D01*
X229989659Y-126870000D01*
X229185500Y-126870000D01*
X229185500Y-123197185D01*
X237254723Y-123197185D01*
X237259526Y-123252082D01*
X237271657Y-123390750D01*
X237273793Y-123415158D01*
X237273793Y-123415162D01*
X237330422Y-123626505D01*
X237330424Y-123626509D01*
X237330425Y-123626513D01*
X237376661Y-123725667D01*
X237422897Y-123824821D01*
X237422898Y-123824822D01*
X237548402Y-124004060D01*
X237703123Y-124158781D01*
X237882361Y-124284285D01*
X238080670Y-124376758D01*
X238292023Y-124433390D01*
X238474926Y-124449391D01*
X238509998Y-124452460D01*
X238510000Y-124452460D01*
X238510002Y-124452460D01*
X238538254Y-124449988D01*
X238727977Y-124433390D01*
X238939330Y-124376758D01*
X239137639Y-124284285D01*
X239316877Y-124158781D01*
X239471598Y-124004060D01*
X239597102Y-123824822D01*
X239689575Y-123626513D01*
X239746207Y-123415160D01*
X239765277Y-123197183D01*
X239746207Y-122979206D01*
X239689575Y-122767853D01*
X239597102Y-122569545D01*
X239597100Y-122569542D01*
X239597099Y-122569540D01*
X239471599Y-122390307D01*
X239395988Y-122314696D01*
X239316877Y-122235585D01*
X239137639Y-122110081D01*
X239137640Y-122110081D01*
X239137638Y-122110080D01*
X239038484Y-122063844D01*
X238939330Y-122017608D01*
X238939326Y-122017607D01*
X238939322Y-122017605D01*
X238727977Y-121960976D01*
X238510002Y-121941906D01*
X238509998Y-121941906D01*
X238364682Y-121954619D01*
X238292023Y-121960976D01*
X238292020Y-121960976D01*
X238080677Y-122017605D01*
X238080668Y-122017609D01*
X237882361Y-122110081D01*
X237882357Y-122110083D01*
X237703121Y-122235585D01*
X237548402Y-122390304D01*
X237422900Y-122569540D01*
X237422898Y-122569544D01*
X237330426Y-122767851D01*
X237330422Y-122767860D01*
X237273793Y-122979203D01*
X237273793Y-122979206D01*
X237273107Y-122987048D01*
X237254723Y-123197180D01*
X237254723Y-123197185D01*
X229185500Y-123197185D01*
X229185500Y-118582255D01*
X229205185Y-118515216D01*
X229221819Y-118494574D01*
X231131571Y-116584822D01*
X235669499Y-116584822D01*
X235678231Y-116628717D01*
X235678234Y-116628724D01*
X235692450Y-116650000D01*
X235711496Y-116678504D01*
X235761278Y-116711767D01*
X235761281Y-116711767D01*
X235761282Y-116711768D01*
X235805177Y-116720500D01*
X235805180Y-116720500D01*
X237134822Y-116720500D01*
X237178717Y-116711768D01*
X237178717Y-116711767D01*
X237178722Y-116711767D01*
X237228504Y-116678504D01*
X237261767Y-116628722D01*
X237266555Y-116604652D01*
X237270500Y-116584822D01*
X237270500Y-115508569D01*
X237290185Y-115441530D01*
X237342989Y-115395775D01*
X237412147Y-115385831D01*
X237435455Y-115391528D01*
X237560737Y-115435366D01*
X237560743Y-115435367D01*
X237560745Y-115435368D01*
X237560746Y-115435368D01*
X237560750Y-115435369D01*
X237739996Y-115455565D01*
X237740000Y-115455565D01*
X237740004Y-115455565D01*
X237919249Y-115435369D01*
X237919252Y-115435368D01*
X237919255Y-115435368D01*
X238089522Y-115375789D01*
X238091792Y-115374363D01*
X238140537Y-115343734D01*
X238153352Y-115335681D01*
X238220587Y-115316681D01*
X238287423Y-115337048D01*
X238332637Y-115390315D01*
X238341876Y-115459571D01*
X238324318Y-115506647D01*
X238284211Y-115570476D01*
X238224631Y-115740745D01*
X238224630Y-115740750D01*
X238204435Y-115919996D01*
X238204435Y-115920003D01*
X238224630Y-116099249D01*
X238224631Y-116099254D01*
X238284211Y-116269523D01*
X238355934Y-116383668D01*
X238380184Y-116422262D01*
X238507738Y-116549816D01*
X238563450Y-116584822D01*
X238653707Y-116641535D01*
X238660478Y-116645789D01*
X238753972Y-116678504D01*
X238830745Y-116705368D01*
X238830750Y-116705369D01*
X239009996Y-116725565D01*
X239010000Y-116725565D01*
X239010004Y-116725565D01*
X239189249Y-116705369D01*
X239189252Y-116705368D01*
X239189255Y-116705368D01*
X239359522Y-116645789D01*
X239512262Y-116549816D01*
X239639816Y-116422262D01*
X239735789Y-116269522D01*
X239795368Y-116099255D01*
X239795369Y-116099249D01*
X239815565Y-115920003D01*
X239815565Y-115919996D01*
X239795369Y-115740750D01*
X239795368Y-115740745D01*
X239763306Y-115649117D01*
X239735789Y-115570478D01*
X239706641Y-115524090D01*
X239662519Y-115453870D01*
X239639816Y-115417738D01*
X239512262Y-115290184D01*
X239499465Y-115282143D01*
X239359523Y-115194211D01*
X239189254Y-115134631D01*
X239189249Y-115134630D01*
X239010004Y-115114435D01*
X239009996Y-115114435D01*
X238830750Y-115134630D01*
X238830745Y-115134631D01*
X238660476Y-115194211D01*
X238596647Y-115234318D01*
X238529410Y-115253318D01*
X238462575Y-115232950D01*
X238417361Y-115179682D01*
X238408124Y-115110426D01*
X238425681Y-115063353D01*
X238465789Y-114999522D01*
X238525368Y-114829255D01*
X238525945Y-114824135D01*
X238545565Y-114650003D01*
X238545565Y-114649996D01*
X238525369Y-114470750D01*
X238525368Y-114470745D01*
X238508618Y-114422876D01*
X238465789Y-114300478D01*
X238460748Y-114292456D01*
X238402340Y-114199500D01*
X238369816Y-114147738D01*
X238242262Y-114020184D01*
X238221353Y-114007046D01*
X238089523Y-113924211D01*
X237919254Y-113864631D01*
X237919249Y-113864630D01*
X237740004Y-113844435D01*
X237739996Y-113844435D01*
X237560750Y-113864630D01*
X237560745Y-113864631D01*
X237390476Y-113924211D01*
X237237737Y-114020184D01*
X237110184Y-114147737D01*
X237014211Y-114300476D01*
X236954631Y-114470745D01*
X236954630Y-114470750D01*
X236934435Y-114649996D01*
X236934435Y-114650003D01*
X236954630Y-114829249D01*
X236954633Y-114829262D01*
X236998472Y-114954545D01*
X237002034Y-115024324D01*
X236967306Y-115084951D01*
X236905312Y-115117179D01*
X236881431Y-115119500D01*
X235805178Y-115119500D01*
X235761282Y-115128231D01*
X235761275Y-115128234D01*
X235711496Y-115161495D01*
X235711495Y-115161496D01*
X235678234Y-115211275D01*
X235678231Y-115211282D01*
X235669500Y-115255177D01*
X235669500Y-115255180D01*
X235669500Y-116584820D01*
X235669500Y-116584822D01*
X235669499Y-116584822D01*
X231131571Y-116584822D01*
X238790370Y-108926023D01*
X238790375Y-108926016D01*
X238805868Y-108910524D01*
X238815927Y-108890780D01*
X238826087Y-108874200D01*
X238839114Y-108856271D01*
X238845960Y-108835199D01*
X238853406Y-108817225D01*
X238863463Y-108797487D01*
X238863464Y-108797486D01*
X238866930Y-108775598D01*
X238871469Y-108756692D01*
X238878318Y-108735615D01*
X238878318Y-108608749D01*
X238878318Y-106592015D01*
X238898003Y-106524976D01*
X238949912Y-106479633D01*
X239105457Y-106407102D01*
X239284695Y-106281598D01*
X239439416Y-106126877D01*
X239564920Y-105947639D01*
X239657393Y-105749330D01*
X239714025Y-105537977D01*
X239732043Y-105332023D01*
X239733095Y-105320002D01*
X239733095Y-105319997D01*
X239722129Y-105194659D01*
X239714025Y-105102023D01*
X239657393Y-104890670D01*
X239564920Y-104692362D01*
X239564918Y-104692359D01*
X239564917Y-104692357D01*
X239439417Y-104513124D01*
X239389190Y-104462897D01*
X239284695Y-104358402D01*
X239105457Y-104232898D01*
X239105458Y-104232898D01*
X239105456Y-104232897D01*
X239005849Y-104186450D01*
X238907148Y-104140425D01*
X238907144Y-104140424D01*
X238907140Y-104140422D01*
X238695795Y-104083793D01*
X238477820Y-104064723D01*
X238477816Y-104064723D01*
X238332500Y-104077436D01*
X238259841Y-104083793D01*
X238259838Y-104083793D01*
X238048495Y-104140422D01*
X238048486Y-104140426D01*
X237850179Y-104232898D01*
X237850175Y-104232900D01*
X237670939Y-104358402D01*
X237516220Y-104513121D01*
X237390718Y-104692357D01*
X237390716Y-104692361D01*
X237298244Y-104890668D01*
X237298240Y-104890677D01*
X237241611Y-105102020D01*
X237241611Y-105102024D01*
X237222541Y-105319997D01*
X237222541Y-105320002D01*
X237223593Y-105332023D01*
X237237336Y-105489117D01*
X237241611Y-105537975D01*
X237241611Y-105537979D01*
X237298240Y-105749322D01*
X237298242Y-105749326D01*
X237298243Y-105749330D01*
X237328993Y-105815273D01*
X237390715Y-105947638D01*
X237390716Y-105947639D01*
X237516220Y-106126877D01*
X237670941Y-106281598D01*
X237850179Y-106407102D01*
X238005723Y-106479633D01*
X238058162Y-106525805D01*
X238077318Y-106592015D01*
X238077318Y-108454927D01*
X238057633Y-108521966D01*
X238040999Y-108542608D01*
X229997223Y-116586383D01*
X229935900Y-116619868D01*
X229866208Y-116614884D01*
X229810275Y-116573012D01*
X229785858Y-116507548D01*
X229786804Y-116481055D01*
X229791295Y-116449820D01*
X229805647Y-116350000D01*
X229785165Y-116207543D01*
X229725377Y-116076627D01*
X229725374Y-116076624D01*
X229720582Y-116069166D01*
X229723621Y-116067212D01*
X229701749Y-116019224D01*
X229700500Y-116001667D01*
X229700500Y-114394838D01*
X229711705Y-114343328D01*
X229735165Y-114291960D01*
X229755647Y-114149503D01*
X229735165Y-114007046D01*
X229675377Y-113876130D01*
X229614568Y-113805952D01*
X229585544Y-113742398D01*
X229595488Y-113673240D01*
X229614570Y-113643548D01*
X229675374Y-113573377D01*
X229675374Y-113573375D01*
X229675377Y-113573373D01*
X229735165Y-113442457D01*
X229755647Y-113300000D01*
X229735165Y-113157543D01*
X229675377Y-113026627D01*
X229581128Y-112917857D01*
X229460053Y-112840047D01*
X229460051Y-112840046D01*
X229460049Y-112840045D01*
X229460050Y-112840045D01*
X229321963Y-112799500D01*
X229321961Y-112799500D01*
X229178039Y-112799500D01*
X229178036Y-112799500D01*
X229039950Y-112840045D01*
X229039948Y-112840045D01*
X228978064Y-112879816D01*
X228911026Y-112899500D01*
X227036567Y-112899500D01*
X227015491Y-112906347D01*
X226996582Y-112910887D01*
X226974695Y-112914354D01*
X226954952Y-112924413D01*
X226936988Y-112931854D01*
X226915910Y-112938703D01*
X226915905Y-112938706D01*
X226897977Y-112951731D01*
X226881397Y-112961891D01*
X226861660Y-112971948D01*
X226861659Y-112971949D01*
X226839094Y-112994513D01*
X226839091Y-112994516D01*
X225659009Y-114174597D01*
X225606263Y-114205893D01*
X225489949Y-114240045D01*
X225368873Y-114317856D01*
X225274623Y-114426626D01*
X225274622Y-114426628D01*
X225214834Y-114557543D01*
X225194353Y-114700000D01*
X224308886Y-114700000D01*
X224275377Y-114626627D01*
X224275375Y-114626625D01*
X224275374Y-114626622D01*
X224181133Y-114517862D01*
X224181129Y-114517858D01*
X224181128Y-114517857D01*
X224164850Y-114507395D01*
X224144213Y-114490764D01*
X224088342Y-114434893D01*
X222176344Y-112522893D01*
X222176313Y-112522864D01*
X222155399Y-112501950D01*
X222155398Y-112501949D01*
X222135657Y-112491890D01*
X222119071Y-112481726D01*
X222101147Y-112468704D01*
X222101148Y-112468704D01*
X222080075Y-112461857D01*
X222062101Y-112454412D01*
X222034236Y-112440214D01*
X221983440Y-112392239D01*
X221966645Y-112324418D01*
X221989183Y-112258283D01*
X222011863Y-112233878D01*
X222095357Y-112165357D01*
X222148994Y-112100000D01*
X223394353Y-112100000D01*
X223414834Y-112242456D01*
X223474177Y-112372396D01*
X223474623Y-112373373D01*
X223568872Y-112482143D01*
X223689947Y-112559953D01*
X223689950Y-112559954D01*
X223689949Y-112559954D01*
X223828036Y-112600499D01*
X223828038Y-112600500D01*
X223828039Y-112600500D01*
X223971962Y-112600500D01*
X223971962Y-112600499D01*
X224110050Y-112559954D01*
X224110051Y-112559954D01*
X224171936Y-112520184D01*
X224238974Y-112500500D01*
X229911026Y-112500500D01*
X229978064Y-112520184D01*
X230039949Y-112559954D01*
X230178036Y-112600499D01*
X230178038Y-112600500D01*
X230178039Y-112600500D01*
X230321962Y-112600500D01*
X230321962Y-112600499D01*
X230460053Y-112559953D01*
X230581128Y-112482143D01*
X230675377Y-112373373D01*
X230735165Y-112242457D01*
X230755647Y-112100000D01*
X230735165Y-111957543D01*
X230675377Y-111826627D01*
X230581128Y-111717857D01*
X230460053Y-111640047D01*
X230460051Y-111640046D01*
X230460049Y-111640045D01*
X230460050Y-111640045D01*
X230321963Y-111599500D01*
X230321961Y-111599500D01*
X230178039Y-111599500D01*
X230178036Y-111599500D01*
X230039950Y-111640045D01*
X230039948Y-111640045D01*
X229978064Y-111679816D01*
X229911026Y-111699500D01*
X224238974Y-111699500D01*
X224171936Y-111679816D01*
X224110050Y-111640045D01*
X223971963Y-111599500D01*
X223971961Y-111599500D01*
X223828039Y-111599500D01*
X223828036Y-111599500D01*
X223689949Y-111640045D01*
X223568873Y-111717856D01*
X223474623Y-111826626D01*
X223474622Y-111826628D01*
X223414834Y-111957543D01*
X223394353Y-112100000D01*
X222148994Y-112100000D01*
X222214136Y-112020625D01*
X222302396Y-111855501D01*
X222356747Y-111676331D01*
X222375099Y-111490000D01*
X222356747Y-111303669D01*
X222302396Y-111124499D01*
X222287567Y-111096756D01*
X222214137Y-110959376D01*
X222214135Y-110959373D01*
X222095357Y-110814642D01*
X222041390Y-110770353D01*
X222002056Y-110712608D01*
X222000185Y-110642763D01*
X222036372Y-110582995D01*
X222099128Y-110552279D01*
X222120055Y-110550500D01*
X222313431Y-110550500D01*
X222313433Y-110550500D01*
X222334501Y-110543654D01*
X222353417Y-110539112D01*
X222375304Y-110535646D01*
X222395044Y-110525586D01*
X222413011Y-110518144D01*
X222434090Y-110511296D01*
X222452026Y-110498263D01*
X222468588Y-110488114D01*
X222488342Y-110478050D01*
X222503834Y-110462557D01*
X222503841Y-110462552D01*
X223121876Y-109844517D01*
X223740992Y-109225400D01*
X223793737Y-109194106D01*
X223910050Y-109159954D01*
X223910050Y-109159953D01*
X223910053Y-109159953D01*
X224031128Y-109082143D01*
X224125377Y-108973373D01*
X224185165Y-108842457D01*
X224205647Y-108700000D01*
X224185165Y-108557543D01*
X224125377Y-108426627D01*
X224031128Y-108317857D01*
X223910053Y-108240047D01*
X223910051Y-108240046D01*
X223910049Y-108240045D01*
X223910050Y-108240045D01*
X223771963Y-108199500D01*
X223771961Y-108199500D01*
X223628039Y-108199500D01*
X223628036Y-108199500D01*
X223489949Y-108240045D01*
X223368873Y-108317856D01*
X223274623Y-108426626D01*
X223274622Y-108426628D01*
X223214835Y-108557541D01*
X223214834Y-108557545D01*
X223210426Y-108588204D01*
X223181400Y-108651759D01*
X223175369Y-108658236D01*
X222558511Y-109275094D01*
X222497188Y-109308579D01*
X222427496Y-109303595D01*
X222371563Y-109261723D01*
X222347146Y-109196259D01*
X222352170Y-109151418D01*
X222356747Y-109136331D01*
X222375099Y-108950000D01*
X222358392Y-108780374D01*
X222356747Y-108763668D01*
X222356746Y-108763666D01*
X222302395Y-108584497D01*
X222214137Y-108419376D01*
X222214135Y-108419373D01*
X222095357Y-108274642D01*
X221950626Y-108155864D01*
X221950623Y-108155862D01*
X221785502Y-108067604D01*
X221606333Y-108013253D01*
X221606331Y-108013252D01*
X221420000Y-107994901D01*
X221233668Y-108013252D01*
X221233666Y-108013253D01*
X221054497Y-108067604D01*
X220889376Y-108155862D01*
X220889373Y-108155864D01*
X220744642Y-108274642D01*
X220625864Y-108419373D01*
X220625862Y-108419376D01*
X220537604Y-108584497D01*
X220483253Y-108763666D01*
X220483252Y-108763668D01*
X220464901Y-108950000D01*
X220483252Y-109136331D01*
X220483253Y-109136333D01*
X220537604Y-109315502D01*
X220625862Y-109480623D01*
X220625864Y-109480626D01*
X220680201Y-109546835D01*
X220707514Y-109611145D01*
X220695723Y-109680012D01*
X220648571Y-109731573D01*
X220584348Y-109749500D01*
X217415948Y-109749500D01*
X217415924Y-109749501D01*
X217386564Y-109749501D01*
X217365499Y-109756346D01*
X217346582Y-109760887D01*
X217324700Y-109764352D01*
X217324695Y-109764354D01*
X217304950Y-109774414D01*
X217286986Y-109781855D01*
X217265907Y-109788705D01*
X217247984Y-109801727D01*
X217231399Y-109811890D01*
X217211659Y-109821948D01*
X217200375Y-109833232D01*
X217189091Y-109844517D01*
X215259748Y-111773859D01*
X214640426Y-112393181D01*
X214579103Y-112426666D01*
X214552745Y-112429500D01*
X214500055Y-112429500D01*
X214433016Y-112409815D01*
X214387261Y-112357011D01*
X214377317Y-112287853D01*
X214406342Y-112224297D01*
X214421390Y-112209647D01*
X214475357Y-112165357D01*
X214594135Y-112020626D01*
X214594137Y-112020623D01*
X214627340Y-111958504D01*
X214682396Y-111855501D01*
X214736747Y-111676331D01*
X214755099Y-111490000D01*
X214736747Y-111303669D01*
X214682396Y-111124499D01*
X214667567Y-111096756D01*
X214594137Y-110959376D01*
X214594135Y-110959373D01*
X214475357Y-110814642D01*
X214330626Y-110695864D01*
X214330623Y-110695862D01*
X214165502Y-110607604D01*
X213986333Y-110553253D01*
X213986331Y-110553252D01*
X213800000Y-110534901D01*
X213613668Y-110553252D01*
X213613666Y-110553253D01*
X213434497Y-110607604D01*
X213269376Y-110695862D01*
X213269373Y-110695864D01*
X213124642Y-110814642D01*
X213005864Y-110959373D01*
X213005862Y-110959376D01*
X212917604Y-111124497D01*
X212863253Y-111303666D01*
X212863252Y-111303668D01*
X212844901Y-111490000D01*
X212863252Y-111676331D01*
X212863253Y-111676333D01*
X212917604Y-111855502D01*
X213005862Y-112020623D01*
X213005864Y-112020626D01*
X213124642Y-112165357D01*
X213189098Y-112218255D01*
X213228432Y-112276001D01*
X213230303Y-112345846D01*
X213194115Y-112405614D01*
X213148747Y-112432040D01*
X213135493Y-112436346D01*
X213116582Y-112440887D01*
X213094696Y-112444354D01*
X213074955Y-112454412D01*
X213056987Y-112461854D01*
X213035912Y-112468702D01*
X213035909Y-112468704D01*
X213017984Y-112481727D01*
X213001399Y-112491890D01*
X212981659Y-112501948D01*
X212959093Y-112524515D01*
X212959091Y-112524517D01*
X202062090Y-123421516D01*
X202000767Y-123455001D01*
X201931075Y-123450017D01*
X201878556Y-123412500D01*
X201760883Y-123269116D01*
X201608539Y-123144090D01*
X201608532Y-123144086D01*
X201434733Y-123051188D01*
X201434727Y-123051186D01*
X201246132Y-122993976D01*
X201246129Y-122993975D01*
X201050000Y-122974659D01*
X200853870Y-122993975D01*
X200665266Y-123051188D01*
X200491467Y-123144086D01*
X200491460Y-123144090D01*
X200339116Y-123269116D01*
X200214090Y-123421460D01*
X200214086Y-123421467D01*
X200121188Y-123595266D01*
X200063975Y-123783870D01*
X200044659Y-123980000D01*
X200063975Y-124176129D01*
X200076041Y-124215905D01*
X200120288Y-124361768D01*
X200121188Y-124364733D01*
X200214086Y-124538532D01*
X200214090Y-124538539D01*
X200339116Y-124690883D01*
X200491460Y-124815909D01*
X200491467Y-124815913D01*
X200665268Y-124908812D01*
X200665270Y-124908812D01*
X200665273Y-124908814D01*
X200726344Y-124927339D01*
X200784782Y-124965637D01*
X200813238Y-125029449D01*
X200802678Y-125098516D01*
X200756454Y-125150910D01*
X200690348Y-125170000D01*
X200152155Y-125170000D01*
X200092627Y-125176401D01*
X200092620Y-125176403D01*
X199957913Y-125226645D01*
X199957906Y-125226649D01*
X199842812Y-125312809D01*
X199842809Y-125312812D01*
X199756649Y-125427906D01*
X199756645Y-125427913D01*
X199706403Y-125562620D01*
X199706401Y-125562627D01*
X199700000Y-125622155D01*
X199700000Y-126270000D01*
X200604428Y-126270000D01*
X200581318Y-126305960D01*
X200540000Y-126446673D01*
X200540000Y-126593327D01*
X200581318Y-126734040D01*
X200604428Y-126770000D01*
X199700000Y-126770000D01*
X199700000Y-127417844D01*
X199706401Y-127477372D01*
X199706403Y-127477379D01*
X199756645Y-127612086D01*
X199756649Y-127612093D01*
X199842809Y-127727187D01*
X199842812Y-127727190D01*
X199957906Y-127813350D01*
X199957913Y-127813354D01*
X200092620Y-127863596D01*
X200092627Y-127863598D01*
X200152155Y-127869999D01*
X200152172Y-127870000D01*
X200690348Y-127870000D01*
X200757387Y-127889685D01*
X200803142Y-127942489D01*
X200813086Y-128011647D01*
X200784061Y-128075203D01*
X200726344Y-128112660D01*
X200696630Y-128121673D01*
X200665268Y-128131187D01*
X200491467Y-128224086D01*
X200491460Y-128224090D01*
X200339116Y-128349116D01*
X200214090Y-128501460D01*
X200214086Y-128501467D01*
X200121188Y-128675266D01*
X200063975Y-128863870D01*
X200044659Y-129060000D01*
X200063975Y-129256129D01*
X200121188Y-129444733D01*
X200214086Y-129618532D01*
X200214090Y-129618539D01*
X200339116Y-129770883D01*
X200491460Y-129895909D01*
X200491467Y-129895913D01*
X200665266Y-129988811D01*
X200665269Y-129988811D01*
X200665273Y-129988814D01*
X200853868Y-130046024D01*
X201050000Y-130065341D01*
X201246132Y-130046024D01*
X201434727Y-129988814D01*
X201608538Y-129895910D01*
X201696835Y-129823445D01*
X201761144Y-129796133D01*
X201830012Y-129807924D01*
X201881572Y-129855076D01*
X201899500Y-129919299D01*
X201899500Y-130740700D01*
X201879815Y-130807739D01*
X201827011Y-130853494D01*
X201757853Y-130863438D01*
X201696835Y-130836553D01*
X201608539Y-130764090D01*
X201608532Y-130764086D01*
X201434733Y-130671188D01*
X201434727Y-130671186D01*
X201246132Y-130613976D01*
X201246129Y-130613975D01*
X201050000Y-130594659D01*
X200853870Y-130613975D01*
X200665266Y-130671188D01*
X200491467Y-130764086D01*
X200491460Y-130764090D01*
X200339116Y-130889116D01*
X200214090Y-131041460D01*
X200214086Y-131041467D01*
X200121188Y-131215266D01*
X200063975Y-131403870D01*
X200044659Y-131600000D01*
X200063975Y-131796129D01*
X200121188Y-131984733D01*
X200214086Y-132158532D01*
X200214090Y-132158539D01*
X200286553Y-132246835D01*
X200313866Y-132311145D01*
X200302075Y-132380013D01*
X200254923Y-132431573D01*
X200190700Y-132449500D01*
X194685948Y-132449500D01*
X194685924Y-132449501D01*
X194656564Y-132449501D01*
X194635499Y-132456346D01*
X194616582Y-132460887D01*
X194594700Y-132464352D01*
X194594695Y-132464354D01*
X194574950Y-132474414D01*
X194556986Y-132481855D01*
X194535907Y-132488705D01*
X194517984Y-132501727D01*
X194501399Y-132511890D01*
X194481659Y-132521948D01*
X194474797Y-132528811D01*
X194459091Y-132544517D01*
X190323607Y-136680000D01*
X183690166Y-143313439D01*
X183628843Y-143346924D01*
X183566490Y-143344419D01*
X183466130Y-143313975D01*
X183270000Y-143294659D01*
X183073870Y-143313975D01*
X182885266Y-143371188D01*
X182711467Y-143464086D01*
X182711460Y-143464090D01*
X182559116Y-143589116D01*
X182434090Y-143741460D01*
X182434086Y-143741467D01*
X182341188Y-143915266D01*
X182283975Y-144103870D01*
X182264659Y-144300000D01*
X150100500Y-144300000D01*
X150100500Y-143684822D01*
X161569499Y-143684822D01*
X161578231Y-143728717D01*
X161578234Y-143728724D01*
X161586749Y-143741467D01*
X161611496Y-143778504D01*
X161661278Y-143811767D01*
X161661281Y-143811767D01*
X161661282Y-143811768D01*
X161705177Y-143820500D01*
X161705180Y-143820500D01*
X163434822Y-143820500D01*
X163478717Y-143811768D01*
X163478717Y-143811767D01*
X163478722Y-143811767D01*
X163528504Y-143778504D01*
X163561767Y-143728722D01*
X163565422Y-143710347D01*
X163570500Y-143684822D01*
X163570500Y-142820000D01*
X164104659Y-142820000D01*
X164123975Y-143016129D01*
X164129966Y-143035879D01*
X164171310Y-143172172D01*
X164181188Y-143204733D01*
X164274086Y-143378532D01*
X164274090Y-143378539D01*
X164399116Y-143530883D01*
X164551460Y-143655909D01*
X164551467Y-143655913D01*
X164725266Y-143748811D01*
X164725269Y-143748811D01*
X164725273Y-143748814D01*
X164913868Y-143806024D01*
X165110000Y-143825341D01*
X165306132Y-143806024D01*
X165494727Y-143748814D01*
X165508473Y-143741467D01*
X165613617Y-143685266D01*
X165668538Y-143655910D01*
X165820883Y-143530883D01*
X165945910Y-143378538D01*
X166038814Y-143204727D01*
X166096024Y-143016132D01*
X166115341Y-142820000D01*
X166644659Y-142820000D01*
X166663975Y-143016129D01*
X166669966Y-143035879D01*
X166711310Y-143172172D01*
X166721188Y-143204733D01*
X166814086Y-143378532D01*
X166814090Y-143378539D01*
X166939116Y-143530883D01*
X167091460Y-143655909D01*
X167091467Y-143655913D01*
X167265266Y-143748811D01*
X167265269Y-143748811D01*
X167265273Y-143748814D01*
X167453868Y-143806024D01*
X167650000Y-143825341D01*
X167846132Y-143806024D01*
X168034727Y-143748814D01*
X168048473Y-143741467D01*
X168153617Y-143685266D01*
X168208538Y-143655910D01*
X168360883Y-143530883D01*
X168485910Y-143378538D01*
X168578814Y-143204727D01*
X168636024Y-143016132D01*
X168655341Y-142820000D01*
X169184659Y-142820000D01*
X169203975Y-143016129D01*
X169209966Y-143035879D01*
X169251310Y-143172172D01*
X169261188Y-143204733D01*
X169354086Y-143378532D01*
X169354090Y-143378539D01*
X169479116Y-143530883D01*
X169631460Y-143655909D01*
X169631467Y-143655913D01*
X169805266Y-143748811D01*
X169805269Y-143748811D01*
X169805273Y-143748814D01*
X169993868Y-143806024D01*
X170190000Y-143825341D01*
X170386132Y-143806024D01*
X170574727Y-143748814D01*
X170588473Y-143741467D01*
X170693617Y-143685266D01*
X170748538Y-143655910D01*
X170900883Y-143530883D01*
X171025910Y-143378538D01*
X171118814Y-143204727D01*
X171176024Y-143016132D01*
X171195341Y-142820000D01*
X171724659Y-142820000D01*
X171743975Y-143016129D01*
X171749966Y-143035879D01*
X171791310Y-143172172D01*
X171801188Y-143204733D01*
X171894086Y-143378532D01*
X171894090Y-143378539D01*
X172019116Y-143530883D01*
X172171460Y-143655909D01*
X172171467Y-143655913D01*
X172345266Y-143748811D01*
X172345269Y-143748811D01*
X172345273Y-143748814D01*
X172533868Y-143806024D01*
X172730000Y-143825341D01*
X172926132Y-143806024D01*
X173114727Y-143748814D01*
X173128473Y-143741467D01*
X173233617Y-143685266D01*
X173288538Y-143655910D01*
X173440883Y-143530883D01*
X173565910Y-143378538D01*
X173658814Y-143204727D01*
X173700900Y-143065988D01*
X173739197Y-143007551D01*
X173803009Y-142979095D01*
X173872076Y-142989655D01*
X173924470Y-143035879D01*
X173939335Y-143069891D01*
X173996567Y-143283486D01*
X173996570Y-143283492D01*
X174096399Y-143497578D01*
X174231894Y-143691082D01*
X174398917Y-143858105D01*
X174592421Y-143993600D01*
X174806507Y-144093429D01*
X174806516Y-144093433D01*
X175020000Y-144150634D01*
X175020000Y-143255501D01*
X175127685Y-143304680D01*
X175234237Y-143320000D01*
X175305763Y-143320000D01*
X175412315Y-143304680D01*
X175520000Y-143255501D01*
X175520000Y-144150633D01*
X175733483Y-144093433D01*
X175733492Y-144093429D01*
X175947578Y-143993600D01*
X176141082Y-143858105D01*
X176308105Y-143691082D01*
X176443600Y-143497578D01*
X176543429Y-143283492D01*
X176543432Y-143283486D01*
X176600636Y-143070000D01*
X175703686Y-143070000D01*
X175729493Y-143029844D01*
X175770000Y-142891889D01*
X175770000Y-142748111D01*
X175729493Y-142610156D01*
X175703686Y-142570000D01*
X176600636Y-142570000D01*
X176600635Y-142569999D01*
X176543432Y-142356513D01*
X176543429Y-142356507D01*
X176443600Y-142142422D01*
X176443599Y-142142420D01*
X176308113Y-141948926D01*
X176308108Y-141948920D01*
X176141082Y-141781894D01*
X175947578Y-141646399D01*
X175733492Y-141546570D01*
X175733486Y-141546567D01*
X175520000Y-141489364D01*
X175520000Y-142384498D01*
X175412315Y-142335320D01*
X175305763Y-142320000D01*
X175234237Y-142320000D01*
X175127685Y-142335320D01*
X175020000Y-142384498D01*
X175020000Y-141489364D01*
X175019999Y-141489364D01*
X174806513Y-141546567D01*
X174806507Y-141546570D01*
X174592422Y-141646399D01*
X174592420Y-141646400D01*
X174398926Y-141781886D01*
X174398920Y-141781891D01*
X174231891Y-141948920D01*
X174231886Y-141948926D01*
X174096400Y-142142420D01*
X174096399Y-142142422D01*
X173996570Y-142356507D01*
X173996567Y-142356513D01*
X173939335Y-142570108D01*
X173902970Y-142629768D01*
X173840123Y-142660297D01*
X173770747Y-142652002D01*
X173716869Y-142607517D01*
X173700900Y-142574013D01*
X173658814Y-142435273D01*
X173658811Y-142435269D01*
X173658811Y-142435266D01*
X173565913Y-142261467D01*
X173565909Y-142261460D01*
X173440883Y-142109116D01*
X173288539Y-141984090D01*
X173288532Y-141984086D01*
X173114733Y-141891188D01*
X173114727Y-141891186D01*
X172926132Y-141833976D01*
X172926129Y-141833975D01*
X172730000Y-141814659D01*
X172533870Y-141833975D01*
X172345266Y-141891188D01*
X172171467Y-141984086D01*
X172171460Y-141984090D01*
X172019116Y-142109116D01*
X171894090Y-142261460D01*
X171894086Y-142261467D01*
X171801188Y-142435266D01*
X171743975Y-142623870D01*
X171724659Y-142820000D01*
X171195341Y-142820000D01*
X171176024Y-142623868D01*
X171118814Y-142435273D01*
X171118811Y-142435269D01*
X171118811Y-142435266D01*
X171025913Y-142261467D01*
X171025909Y-142261460D01*
X170900883Y-142109116D01*
X170748539Y-141984090D01*
X170748532Y-141984086D01*
X170574733Y-141891188D01*
X170574727Y-141891186D01*
X170386132Y-141833976D01*
X170386129Y-141833975D01*
X170190000Y-141814659D01*
X169993870Y-141833975D01*
X169805266Y-141891188D01*
X169631467Y-141984086D01*
X169631460Y-141984090D01*
X169479116Y-142109116D01*
X169354090Y-142261460D01*
X169354086Y-142261467D01*
X169261188Y-142435266D01*
X169203975Y-142623870D01*
X169184659Y-142820000D01*
X168655341Y-142820000D01*
X168636024Y-142623868D01*
X168578814Y-142435273D01*
X168578811Y-142435269D01*
X168578811Y-142435266D01*
X168485913Y-142261467D01*
X168485909Y-142261460D01*
X168360883Y-142109116D01*
X168208539Y-141984090D01*
X168208532Y-141984086D01*
X168034733Y-141891188D01*
X168034727Y-141891186D01*
X167846132Y-141833976D01*
X167846129Y-141833975D01*
X167650000Y-141814659D01*
X167453870Y-141833975D01*
X167265266Y-141891188D01*
X167091467Y-141984086D01*
X167091460Y-141984090D01*
X166939116Y-142109116D01*
X166814090Y-142261460D01*
X166814086Y-142261467D01*
X166721188Y-142435266D01*
X166663975Y-142623870D01*
X166644659Y-142820000D01*
X166115341Y-142820000D01*
X166096024Y-142623868D01*
X166038814Y-142435273D01*
X166038811Y-142435269D01*
X166038811Y-142435266D01*
X165945913Y-142261467D01*
X165945909Y-142261460D01*
X165820883Y-142109116D01*
X165668539Y-141984090D01*
X165668532Y-141984086D01*
X165494733Y-141891188D01*
X165494727Y-141891186D01*
X165306132Y-141833976D01*
X165306129Y-141833975D01*
X165110000Y-141814659D01*
X164913870Y-141833975D01*
X164725266Y-141891188D01*
X164551467Y-141984086D01*
X164551460Y-141984090D01*
X164399116Y-142109116D01*
X164274090Y-142261460D01*
X164274086Y-142261467D01*
X164181188Y-142435266D01*
X164123975Y-142623870D01*
X164104659Y-142820000D01*
X163570500Y-142820000D01*
X163570500Y-141955177D01*
X163561768Y-141911282D01*
X163561767Y-141911281D01*
X163561767Y-141911278D01*
X163528504Y-141861496D01*
X163528503Y-141861495D01*
X163478724Y-141828234D01*
X163478717Y-141828231D01*
X163434822Y-141819500D01*
X163434820Y-141819500D01*
X161705180Y-141819500D01*
X161705178Y-141819500D01*
X161661282Y-141828231D01*
X161661275Y-141828234D01*
X161611496Y-141861495D01*
X161611495Y-141861496D01*
X161578234Y-141911275D01*
X161578231Y-141911282D01*
X161569500Y-141955177D01*
X161569500Y-141955180D01*
X161569500Y-143684820D01*
X161569500Y-143684822D01*
X161569499Y-143684822D01*
X150100500Y-143684822D01*
X150100500Y-139790000D01*
X156029659Y-139790000D01*
X156048975Y-139986129D01*
X156062768Y-140031598D01*
X156100839Y-140157102D01*
X156106188Y-140174733D01*
X156199086Y-140348532D01*
X156199090Y-140348539D01*
X156324116Y-140500883D01*
X156476460Y-140625909D01*
X156476467Y-140625913D01*
X156650266Y-140718811D01*
X156650269Y-140718811D01*
X156650273Y-140718814D01*
X156838868Y-140776024D01*
X157035000Y-140795341D01*
X157231132Y-140776024D01*
X157419727Y-140718814D01*
X157593538Y-140625910D01*
X157745883Y-140500883D01*
X157870910Y-140348538D01*
X157958419Y-140184820D01*
X157963811Y-140174733D01*
X157963811Y-140174732D01*
X157963814Y-140174727D01*
X157981069Y-140117844D01*
X181920000Y-140117844D01*
X181926401Y-140177372D01*
X181926403Y-140177379D01*
X181976645Y-140312086D01*
X181976649Y-140312093D01*
X182062809Y-140427187D01*
X182062812Y-140427190D01*
X182177906Y-140513350D01*
X182177913Y-140513354D01*
X182312620Y-140563596D01*
X182312627Y-140563598D01*
X182372155Y-140569999D01*
X182372172Y-140570000D01*
X182910348Y-140570000D01*
X182977387Y-140589685D01*
X183023142Y-140642489D01*
X183033086Y-140711647D01*
X183004061Y-140775203D01*
X182946344Y-140812660D01*
X182916630Y-140821673D01*
X182885268Y-140831187D01*
X182711467Y-140924086D01*
X182711460Y-140924090D01*
X182559116Y-141049116D01*
X182434090Y-141201460D01*
X182434086Y-141201467D01*
X182341188Y-141375266D01*
X182283975Y-141563870D01*
X182264659Y-141760000D01*
X182283975Y-141956129D01*
X182283976Y-141956132D01*
X182331428Y-142112561D01*
X182341188Y-142144733D01*
X182434086Y-142318532D01*
X182434090Y-142318539D01*
X182559116Y-142470883D01*
X182711460Y-142595909D01*
X182711467Y-142595913D01*
X182885266Y-142688811D01*
X182885269Y-142688811D01*
X182885273Y-142688814D01*
X183073868Y-142746024D01*
X183270000Y-142765341D01*
X183466132Y-142746024D01*
X183654727Y-142688814D01*
X183828538Y-142595910D01*
X183980883Y-142470883D01*
X184105910Y-142318538D01*
X184169003Y-142200499D01*
X184198811Y-142144733D01*
X184198811Y-142144732D01*
X184198814Y-142144727D01*
X184256024Y-141956132D01*
X184275341Y-141760000D01*
X184256024Y-141563868D01*
X184198814Y-141375273D01*
X184198811Y-141375269D01*
X184198811Y-141375266D01*
X184105913Y-141201467D01*
X184105909Y-141201460D01*
X183980883Y-141049116D01*
X183828539Y-140924090D01*
X183828532Y-140924086D01*
X183654731Y-140831187D01*
X183636190Y-140825562D01*
X183593655Y-140812660D01*
X183535218Y-140774363D01*
X183506762Y-140710551D01*
X183517322Y-140641484D01*
X183563546Y-140589090D01*
X183629652Y-140570000D01*
X184167828Y-140570000D01*
X184167844Y-140569999D01*
X184227372Y-140563598D01*
X184227379Y-140563596D01*
X184362086Y-140513354D01*
X184362093Y-140513350D01*
X184477187Y-140427190D01*
X184477190Y-140427187D01*
X184563350Y-140312093D01*
X184563354Y-140312086D01*
X184613596Y-140177379D01*
X184613598Y-140177372D01*
X184619999Y-140117844D01*
X184620000Y-140117827D01*
X184620000Y-139470000D01*
X183715572Y-139470000D01*
X183738682Y-139434040D01*
X183780000Y-139293327D01*
X183780000Y-139146673D01*
X183738682Y-139005960D01*
X183715572Y-138970000D01*
X184620000Y-138970000D01*
X184620000Y-138322172D01*
X184619999Y-138322155D01*
X184613598Y-138262627D01*
X184613596Y-138262620D01*
X184563354Y-138127913D01*
X184563350Y-138127906D01*
X184477190Y-138012812D01*
X184477187Y-138012809D01*
X184362093Y-137926649D01*
X184362086Y-137926645D01*
X184227379Y-137876403D01*
X184227372Y-137876401D01*
X184167844Y-137870000D01*
X183629652Y-137870000D01*
X183562613Y-137850315D01*
X183516858Y-137797511D01*
X183506914Y-137728353D01*
X183535939Y-137664797D01*
X183593655Y-137627339D01*
X183654727Y-137608814D01*
X183828538Y-137515910D01*
X183980883Y-137390883D01*
X184105910Y-137238538D01*
X184198814Y-137064727D01*
X184256024Y-136876132D01*
X184275341Y-136680000D01*
X184256024Y-136483868D01*
X184198814Y-136295273D01*
X184198811Y-136295269D01*
X184198811Y-136295266D01*
X184105913Y-136121467D01*
X184105909Y-136121460D01*
X183980883Y-135969116D01*
X183828539Y-135844090D01*
X183828532Y-135844086D01*
X183654733Y-135751188D01*
X183654727Y-135751186D01*
X183466132Y-135693976D01*
X183466129Y-135693975D01*
X183270000Y-135674659D01*
X183073870Y-135693975D01*
X182885266Y-135751188D01*
X182711467Y-135844086D01*
X182711460Y-135844090D01*
X182559116Y-135969116D01*
X182434090Y-136121460D01*
X182434086Y-136121467D01*
X182341188Y-136295266D01*
X182283975Y-136483870D01*
X182264659Y-136680000D01*
X182283975Y-136876129D01*
X182341188Y-137064733D01*
X182434086Y-137238532D01*
X182434090Y-137238539D01*
X182559116Y-137390883D01*
X182711460Y-137515909D01*
X182711467Y-137515913D01*
X182885268Y-137608812D01*
X182885270Y-137608812D01*
X182885273Y-137608814D01*
X182946344Y-137627339D01*
X183004782Y-137665637D01*
X183033238Y-137729449D01*
X183022678Y-137798516D01*
X182976454Y-137850910D01*
X182910348Y-137870000D01*
X182372155Y-137870000D01*
X182312627Y-137876401D01*
X182312620Y-137876403D01*
X182177913Y-137926645D01*
X182177906Y-137926649D01*
X182062812Y-138012809D01*
X182062809Y-138012812D01*
X181976649Y-138127906D01*
X181976645Y-138127913D01*
X181926403Y-138262620D01*
X181926401Y-138262627D01*
X181920000Y-138322155D01*
X181920000Y-138970000D01*
X182824428Y-138970000D01*
X182801318Y-139005960D01*
X182760000Y-139146673D01*
X182760000Y-139293327D01*
X182801318Y-139434040D01*
X182824428Y-139470000D01*
X181920000Y-139470000D01*
X181920000Y-140117844D01*
X157981069Y-140117844D01*
X158021024Y-139986132D01*
X158040341Y-139790000D01*
X158021024Y-139593868D01*
X157963814Y-139405273D01*
X157963811Y-139405269D01*
X157963811Y-139405266D01*
X157870913Y-139231467D01*
X157870909Y-139231460D01*
X157745883Y-139079116D01*
X157593539Y-138954090D01*
X157593532Y-138954086D01*
X157419733Y-138861188D01*
X157419727Y-138861186D01*
X157231132Y-138803976D01*
X157231129Y-138803975D01*
X157035000Y-138784659D01*
X156838870Y-138803975D01*
X156650266Y-138861188D01*
X156476467Y-138954086D01*
X156476460Y-138954090D01*
X156324116Y-139079116D01*
X156199090Y-139231460D01*
X156199086Y-139231467D01*
X156106188Y-139405266D01*
X156048975Y-139593870D01*
X156029659Y-139790000D01*
X150100500Y-139790000D01*
X150100500Y-138114822D01*
X156034499Y-138114822D01*
X156043231Y-138158717D01*
X156043232Y-138158721D01*
X156043233Y-138158722D01*
X156076496Y-138208504D01*
X156126278Y-138241767D01*
X156126281Y-138241767D01*
X156126282Y-138241768D01*
X156170177Y-138250500D01*
X156170180Y-138250500D01*
X157899822Y-138250500D01*
X157943717Y-138241768D01*
X157943717Y-138241767D01*
X157943722Y-138241767D01*
X157993504Y-138208504D01*
X158026767Y-138158722D01*
X158035500Y-138114820D01*
X158035500Y-136385180D01*
X158035500Y-136385177D01*
X158026768Y-136341282D01*
X158026767Y-136341281D01*
X158026767Y-136341278D01*
X157993504Y-136291496D01*
X157993503Y-136291495D01*
X157943724Y-136258234D01*
X157943717Y-136258231D01*
X157899822Y-136249500D01*
X157899820Y-136249500D01*
X156170180Y-136249500D01*
X156170178Y-136249500D01*
X156126282Y-136258231D01*
X156126275Y-136258234D01*
X156076496Y-136291495D01*
X156076495Y-136291496D01*
X156043234Y-136341275D01*
X156043231Y-136341282D01*
X156034500Y-136385177D01*
X156034500Y-136385180D01*
X156034500Y-138114820D01*
X156034500Y-138114822D01*
X156034499Y-138114822D01*
X150100500Y-138114822D01*
X150100500Y-134190000D01*
X163629659Y-134190000D01*
X163648975Y-134386129D01*
X163648976Y-134386132D01*
X163698836Y-134550499D01*
X163706188Y-134574733D01*
X163799086Y-134748532D01*
X163799090Y-134748539D01*
X163924116Y-134900883D01*
X164076460Y-135025909D01*
X164076467Y-135025913D01*
X164250266Y-135118811D01*
X164250269Y-135118811D01*
X164250273Y-135118814D01*
X164438868Y-135176024D01*
X164635000Y-135195341D01*
X164831132Y-135176024D01*
X165019727Y-135118814D01*
X165193538Y-135025910D01*
X165345883Y-134900883D01*
X165470910Y-134748538D01*
X165563814Y-134574727D01*
X165621024Y-134386132D01*
X165640341Y-134190000D01*
X165626552Y-134050000D01*
X167894353Y-134050000D01*
X167914834Y-134192456D01*
X167952715Y-134275402D01*
X167974623Y-134323373D01*
X168068872Y-134432143D01*
X168189947Y-134509953D01*
X168189950Y-134509954D01*
X168189949Y-134509954D01*
X168328036Y-134550499D01*
X168328038Y-134550500D01*
X168328039Y-134550500D01*
X168471962Y-134550500D01*
X168471962Y-134550499D01*
X168610053Y-134509953D01*
X168731128Y-134432143D01*
X168825377Y-134323373D01*
X168885165Y-134192457D01*
X168889573Y-134161797D01*
X168899527Y-134140000D01*
X182264659Y-134140000D01*
X182283975Y-134336129D01*
X182341188Y-134524733D01*
X182434086Y-134698532D01*
X182434090Y-134698539D01*
X182559116Y-134850883D01*
X182711460Y-134975909D01*
X182711467Y-134975913D01*
X182885266Y-135068811D01*
X182885269Y-135068811D01*
X182885273Y-135068814D01*
X183073868Y-135126024D01*
X183270000Y-135145341D01*
X183466132Y-135126024D01*
X183654727Y-135068814D01*
X183828538Y-134975910D01*
X183980883Y-134850883D01*
X184105910Y-134698538D01*
X184172085Y-134574733D01*
X184198811Y-134524733D01*
X184198811Y-134524732D01*
X184198814Y-134524727D01*
X184256024Y-134336132D01*
X184275341Y-134140000D01*
X184256024Y-133943868D01*
X184198814Y-133755273D01*
X184198811Y-133755269D01*
X184198811Y-133755266D01*
X184105913Y-133581467D01*
X184105909Y-133581460D01*
X183980883Y-133429116D01*
X183828539Y-133304090D01*
X183828532Y-133304086D01*
X183654733Y-133211188D01*
X183654727Y-133211186D01*
X183466132Y-133153976D01*
X183466129Y-133153975D01*
X183270000Y-133134659D01*
X183073870Y-133153975D01*
X182885266Y-133211188D01*
X182711467Y-133304086D01*
X182711460Y-133304090D01*
X182559116Y-133429116D01*
X182434090Y-133581460D01*
X182434086Y-133581467D01*
X182341188Y-133755266D01*
X182283975Y-133943870D01*
X182264659Y-134140000D01*
X168899527Y-134140000D01*
X168918597Y-134098241D01*
X168924616Y-134091775D01*
X171416391Y-131600000D01*
X182264659Y-131600000D01*
X182283975Y-131796129D01*
X182341188Y-131984733D01*
X182434086Y-132158532D01*
X182434090Y-132158539D01*
X182559116Y-132310883D01*
X182711460Y-132435909D01*
X182711467Y-132435913D01*
X182885266Y-132528811D01*
X182885269Y-132528811D01*
X182885273Y-132528814D01*
X183073868Y-132586024D01*
X183270000Y-132605341D01*
X183466132Y-132586024D01*
X183654727Y-132528814D01*
X183667573Y-132521948D01*
X183803113Y-132449500D01*
X183828538Y-132435910D01*
X183980883Y-132310883D01*
X184105910Y-132158538D01*
X184172085Y-132034733D01*
X184198811Y-131984733D01*
X184198811Y-131984732D01*
X184198814Y-131984727D01*
X184256024Y-131796132D01*
X184275341Y-131600000D01*
X184256024Y-131403868D01*
X184198814Y-131215273D01*
X184198811Y-131215269D01*
X184198811Y-131215266D01*
X184105913Y-131041467D01*
X184105909Y-131041460D01*
X183980883Y-130889116D01*
X183828539Y-130764090D01*
X183828532Y-130764086D01*
X183654733Y-130671188D01*
X183654727Y-130671186D01*
X183466132Y-130613976D01*
X183466129Y-130613975D01*
X183270000Y-130594659D01*
X183073870Y-130613975D01*
X182885266Y-130671188D01*
X182711467Y-130764086D01*
X182711460Y-130764090D01*
X182559116Y-130889116D01*
X182434090Y-131041460D01*
X182434086Y-131041467D01*
X182341188Y-131215266D01*
X182283975Y-131403870D01*
X182264659Y-131600000D01*
X171416391Y-131600000D01*
X176705483Y-126310909D01*
X176728050Y-126288342D01*
X176738109Y-126268597D01*
X176748271Y-126252014D01*
X176761296Y-126234090D01*
X176768141Y-126213022D01*
X176775586Y-126195045D01*
X176785646Y-126175304D01*
X176789112Y-126153415D01*
X176793652Y-126134501D01*
X176800499Y-126113433D01*
X176800499Y-126084076D01*
X176800500Y-126084051D01*
X176800500Y-122498332D01*
X176820185Y-122431293D01*
X176820901Y-122430336D01*
X176825370Y-122423380D01*
X176825377Y-122423373D01*
X176858491Y-122350863D01*
X176904244Y-122298062D01*
X176971284Y-122278377D01*
X177038323Y-122298061D01*
X177058961Y-122314693D01*
X177177064Y-122432795D01*
X177413181Y-122668912D01*
X177446666Y-122730235D01*
X177449500Y-122756593D01*
X177449500Y-128201667D01*
X177429815Y-128268706D01*
X177429094Y-128269669D01*
X177424622Y-128276628D01*
X177364834Y-128407543D01*
X177344353Y-128550000D01*
X177364834Y-128692456D01*
X177424622Y-128823371D01*
X177424623Y-128823373D01*
X177518872Y-128932143D01*
X177639947Y-129009953D01*
X177639950Y-129009954D01*
X177639949Y-129009954D01*
X177778036Y-129050499D01*
X177778038Y-129050500D01*
X177778039Y-129050500D01*
X177921962Y-129050500D01*
X177921962Y-129050499D01*
X178060053Y-129009953D01*
X178181128Y-128932143D01*
X178275377Y-128823373D01*
X178335165Y-128692457D01*
X178355647Y-128550000D01*
X178335165Y-128407543D01*
X178275377Y-128276627D01*
X178275374Y-128276624D01*
X178270582Y-128269166D01*
X178273621Y-128267212D01*
X178251749Y-128219224D01*
X178250500Y-128201667D01*
X178250500Y-127417844D01*
X181920000Y-127417844D01*
X181926401Y-127477372D01*
X181926403Y-127477379D01*
X181976645Y-127612086D01*
X181976649Y-127612093D01*
X182062809Y-127727187D01*
X182062812Y-127727190D01*
X182177906Y-127813350D01*
X182177913Y-127813354D01*
X182312620Y-127863596D01*
X182312627Y-127863598D01*
X182372155Y-127869999D01*
X182372172Y-127870000D01*
X182910348Y-127870000D01*
X182977387Y-127889685D01*
X183023142Y-127942489D01*
X183033086Y-128011647D01*
X183004061Y-128075203D01*
X182946344Y-128112660D01*
X182916630Y-128121673D01*
X182885268Y-128131187D01*
X182711467Y-128224086D01*
X182711460Y-128224090D01*
X182559116Y-128349116D01*
X182434090Y-128501460D01*
X182434086Y-128501467D01*
X182341188Y-128675266D01*
X182283975Y-128863870D01*
X182264659Y-129060000D01*
X182283975Y-129256129D01*
X182341188Y-129444733D01*
X182434086Y-129618532D01*
X182434090Y-129618539D01*
X182559116Y-129770883D01*
X182711460Y-129895909D01*
X182711467Y-129895913D01*
X182885266Y-129988811D01*
X182885269Y-129988811D01*
X182885273Y-129988814D01*
X183073868Y-130046024D01*
X183270000Y-130065341D01*
X183466132Y-130046024D01*
X183654727Y-129988814D01*
X183828538Y-129895910D01*
X183980883Y-129770883D01*
X184105910Y-129618538D01*
X184172085Y-129494733D01*
X184198811Y-129444733D01*
X184198811Y-129444732D01*
X184198814Y-129444727D01*
X184256024Y-129256132D01*
X184275341Y-129060000D01*
X184256024Y-128863868D01*
X184198814Y-128675273D01*
X184198811Y-128675269D01*
X184198811Y-128675266D01*
X184105913Y-128501467D01*
X184105909Y-128501460D01*
X183980883Y-128349116D01*
X183828539Y-128224090D01*
X183828532Y-128224086D01*
X183654731Y-128131187D01*
X183624461Y-128122005D01*
X183593655Y-128112660D01*
X183535218Y-128074363D01*
X183506762Y-128010551D01*
X183517322Y-127941484D01*
X183563546Y-127889090D01*
X183629652Y-127870000D01*
X184167828Y-127870000D01*
X184167844Y-127869999D01*
X184227372Y-127863598D01*
X184227379Y-127863596D01*
X184362086Y-127813354D01*
X184362093Y-127813350D01*
X184477187Y-127727190D01*
X184477190Y-127727187D01*
X184563350Y-127612093D01*
X184563354Y-127612086D01*
X184613596Y-127477379D01*
X184613598Y-127477372D01*
X184619999Y-127417844D01*
X184620000Y-127417827D01*
X184620000Y-126770000D01*
X183715572Y-126770000D01*
X183738682Y-126734040D01*
X183780000Y-126593327D01*
X183780000Y-126446673D01*
X183738682Y-126305960D01*
X183715572Y-126270000D01*
X184620000Y-126270000D01*
X184620000Y-125622172D01*
X184619999Y-125622155D01*
X184613598Y-125562627D01*
X184613596Y-125562620D01*
X184563354Y-125427913D01*
X184563350Y-125427906D01*
X184477190Y-125312812D01*
X184477187Y-125312809D01*
X184362093Y-125226649D01*
X184362086Y-125226645D01*
X184227379Y-125176403D01*
X184227372Y-125176401D01*
X184167844Y-125170000D01*
X183629652Y-125170000D01*
X183562613Y-125150315D01*
X183516858Y-125097511D01*
X183506914Y-125028353D01*
X183535939Y-124964797D01*
X183593655Y-124927339D01*
X183654727Y-124908814D01*
X183828538Y-124815910D01*
X183980883Y-124690883D01*
X184105910Y-124538538D01*
X184192383Y-124376758D01*
X184198811Y-124364733D01*
X184198811Y-124364732D01*
X184198814Y-124364727D01*
X184256024Y-124176132D01*
X184275341Y-123980000D01*
X184256024Y-123783868D01*
X184198814Y-123595273D01*
X184198811Y-123595269D01*
X184198811Y-123595266D01*
X184105913Y-123421467D01*
X184105909Y-123421460D01*
X183980883Y-123269116D01*
X183828539Y-123144090D01*
X183828532Y-123144086D01*
X183654733Y-123051188D01*
X183654727Y-123051186D01*
X183466132Y-122993976D01*
X183466129Y-122993975D01*
X183270000Y-122974659D01*
X183073870Y-122993975D01*
X182885266Y-123051188D01*
X182711467Y-123144086D01*
X182711460Y-123144090D01*
X182559116Y-123269116D01*
X182434090Y-123421460D01*
X182434086Y-123421467D01*
X182341188Y-123595266D01*
X182283975Y-123783870D01*
X182264659Y-123980000D01*
X182283975Y-124176129D01*
X182296041Y-124215905D01*
X182340288Y-124361768D01*
X182341188Y-124364733D01*
X182434086Y-124538532D01*
X182434090Y-124538539D01*
X182559116Y-124690883D01*
X182711460Y-124815909D01*
X182711467Y-124815913D01*
X182885268Y-124908812D01*
X182885270Y-124908812D01*
X182885273Y-124908814D01*
X182946344Y-124927339D01*
X183004782Y-124965637D01*
X183033238Y-125029449D01*
X183022678Y-125098516D01*
X182976454Y-125150910D01*
X182910348Y-125170000D01*
X182372155Y-125170000D01*
X182312627Y-125176401D01*
X182312620Y-125176403D01*
X182177913Y-125226645D01*
X182177906Y-125226649D01*
X182062812Y-125312809D01*
X182062809Y-125312812D01*
X181976649Y-125427906D01*
X181976645Y-125427913D01*
X181926403Y-125562620D01*
X181926401Y-125562627D01*
X181920000Y-125622155D01*
X181920000Y-126270000D01*
X182824428Y-126270000D01*
X182801318Y-126305960D01*
X182760000Y-126446673D01*
X182760000Y-126593327D01*
X182801318Y-126734040D01*
X182824428Y-126770000D01*
X181920000Y-126770000D01*
X181920000Y-127417844D01*
X178250500Y-127417844D01*
X178250500Y-122475907D01*
X178250500Y-122475906D01*
X178243652Y-122454830D01*
X178239111Y-122435917D01*
X178235646Y-122414035D01*
X178225588Y-122394297D01*
X178218142Y-122376320D01*
X178211296Y-122355249D01*
X178198269Y-122337320D01*
X178188104Y-122320731D01*
X178185029Y-122314696D01*
X178178050Y-122300997D01*
X178088342Y-122211289D01*
X177644909Y-121767856D01*
X177317053Y-121440000D01*
X182264659Y-121440000D01*
X182283975Y-121636129D01*
X182341188Y-121824733D01*
X182434086Y-121998532D01*
X182434090Y-121998539D01*
X182559116Y-122150883D01*
X182711460Y-122275909D01*
X182711467Y-122275913D01*
X182885266Y-122368811D01*
X182885269Y-122368811D01*
X182885273Y-122368814D01*
X183073868Y-122426024D01*
X183270000Y-122445341D01*
X183466132Y-122426024D01*
X183654727Y-122368814D01*
X183680106Y-122355249D01*
X183755975Y-122314696D01*
X183828538Y-122275910D01*
X183980883Y-122150883D01*
X184105910Y-121998538D01*
X184198814Y-121824727D01*
X184256024Y-121636132D01*
X184275341Y-121440000D01*
X200044659Y-121440000D01*
X200063975Y-121636129D01*
X200121188Y-121824733D01*
X200214086Y-121998532D01*
X200214090Y-121998539D01*
X200339116Y-122150883D01*
X200491460Y-122275909D01*
X200491467Y-122275913D01*
X200665266Y-122368811D01*
X200665269Y-122368811D01*
X200665273Y-122368814D01*
X200853868Y-122426024D01*
X201050000Y-122445341D01*
X201246132Y-122426024D01*
X201434727Y-122368814D01*
X201460106Y-122355249D01*
X201535975Y-122314696D01*
X201608538Y-122275910D01*
X201760883Y-122150883D01*
X201885910Y-121998538D01*
X201978814Y-121824727D01*
X202036024Y-121636132D01*
X202055341Y-121440000D01*
X202036024Y-121243868D01*
X201978814Y-121055273D01*
X201978811Y-121055269D01*
X201978811Y-121055266D01*
X201885913Y-120881467D01*
X201885909Y-120881460D01*
X201760883Y-120729116D01*
X201608539Y-120604090D01*
X201608532Y-120604086D01*
X201434733Y-120511188D01*
X201434727Y-120511186D01*
X201246132Y-120453976D01*
X201246129Y-120453975D01*
X201050000Y-120434659D01*
X200853870Y-120453975D01*
X200665266Y-120511188D01*
X200491467Y-120604086D01*
X200491460Y-120604090D01*
X200339116Y-120729116D01*
X200214090Y-120881460D01*
X200214086Y-120881467D01*
X200121188Y-121055266D01*
X200063975Y-121243870D01*
X200044659Y-121440000D01*
X184275341Y-121440000D01*
X184256024Y-121243868D01*
X184198814Y-121055273D01*
X184198811Y-121055269D01*
X184198811Y-121055266D01*
X184105913Y-120881467D01*
X184105909Y-120881460D01*
X183980883Y-120729116D01*
X183828539Y-120604090D01*
X183828532Y-120604086D01*
X183654733Y-120511188D01*
X183654727Y-120511186D01*
X183466132Y-120453976D01*
X183466129Y-120453975D01*
X183270000Y-120434659D01*
X183073870Y-120453975D01*
X182885266Y-120511188D01*
X182711467Y-120604086D01*
X182711460Y-120604090D01*
X182559116Y-120729116D01*
X182434090Y-120881460D01*
X182434086Y-120881467D01*
X182341188Y-121055266D01*
X182283975Y-121243870D01*
X182264659Y-121440000D01*
X177317053Y-121440000D01*
X176269948Y-120392893D01*
X176269917Y-120392864D01*
X176249003Y-120371950D01*
X176249002Y-120371949D01*
X176229261Y-120361890D01*
X176212675Y-120351726D01*
X176194751Y-120338704D01*
X176194752Y-120338704D01*
X176173679Y-120331857D01*
X176155706Y-120324412D01*
X176135968Y-120314355D01*
X176135965Y-120314354D01*
X176114079Y-120310887D01*
X176095168Y-120306346D01*
X176074100Y-120299501D01*
X176074095Y-120299500D01*
X176074094Y-120299500D01*
X176074090Y-120299500D01*
X175338974Y-120299500D01*
X175271936Y-120279816D01*
X175210050Y-120240045D01*
X175071963Y-120199500D01*
X175071961Y-120199500D01*
X174928039Y-120199500D01*
X174928036Y-120199500D01*
X174789949Y-120240045D01*
X174668873Y-120317856D01*
X174574623Y-120426626D01*
X174574622Y-120426628D01*
X174514834Y-120557543D01*
X174494353Y-120700000D01*
X174514834Y-120842456D01*
X174532647Y-120881460D01*
X174574623Y-120973373D01*
X174668872Y-121082143D01*
X174789947Y-121159953D01*
X174789950Y-121159954D01*
X174789949Y-121159954D01*
X174928036Y-121200499D01*
X174928038Y-121200500D01*
X174928039Y-121200500D01*
X175071962Y-121200500D01*
X175071962Y-121200499D01*
X175210050Y-121159954D01*
X175210051Y-121159954D01*
X175271936Y-121120184D01*
X175338974Y-121100500D01*
X175793406Y-121100500D01*
X175860445Y-121120185D01*
X175881087Y-121136819D01*
X176231418Y-121487150D01*
X176264903Y-121548473D01*
X176259919Y-121618165D01*
X176218047Y-121674098D01*
X176195253Y-121687624D01*
X176189946Y-121690047D01*
X176068873Y-121767856D01*
X175974623Y-121876626D01*
X175974622Y-121876628D01*
X175914834Y-122007543D01*
X175894353Y-122150000D01*
X175914834Y-122292456D01*
X175941510Y-122350866D01*
X175974623Y-122423373D01*
X175974627Y-122423378D01*
X175979418Y-122430833D01*
X175976364Y-122432795D01*
X175998235Y-122480663D01*
X175999500Y-122498332D01*
X175999500Y-125832745D01*
X175979815Y-125899784D01*
X175963181Y-125920426D01*
X168359009Y-133524597D01*
X168306263Y-133555893D01*
X168189949Y-133590045D01*
X168068873Y-133667856D01*
X167974623Y-133776626D01*
X167974622Y-133776628D01*
X167914834Y-133907543D01*
X167894353Y-134050000D01*
X165626552Y-134050000D01*
X165621024Y-133993868D01*
X165563814Y-133805273D01*
X165563811Y-133805269D01*
X165563811Y-133805266D01*
X165470913Y-133631467D01*
X165470909Y-133631460D01*
X165345883Y-133479116D01*
X165193539Y-133354090D01*
X165193532Y-133354086D01*
X165019733Y-133261188D01*
X165019727Y-133261186D01*
X164831132Y-133203976D01*
X164831129Y-133203975D01*
X164635000Y-133184659D01*
X164438870Y-133203975D01*
X164250266Y-133261188D01*
X164076467Y-133354086D01*
X164076460Y-133354090D01*
X163924116Y-133479116D01*
X163799090Y-133631460D01*
X163799086Y-133631467D01*
X163706188Y-133805266D01*
X163648975Y-133993870D01*
X163629659Y-134190000D01*
X150100500Y-134190000D01*
X150100500Y-131650000D01*
X163629659Y-131650000D01*
X163648975Y-131846129D01*
X163648976Y-131846132D01*
X163698088Y-132008033D01*
X163706188Y-132034733D01*
X163799086Y-132208532D01*
X163799090Y-132208539D01*
X163924116Y-132360883D01*
X164076460Y-132485909D01*
X164076467Y-132485913D01*
X164250266Y-132578811D01*
X164250269Y-132578811D01*
X164250273Y-132578814D01*
X164438868Y-132636024D01*
X164635000Y-132655341D01*
X164831132Y-132636024D01*
X165019727Y-132578814D01*
X165092175Y-132540090D01*
X165153217Y-132507462D01*
X165193538Y-132485910D01*
X165345883Y-132360883D01*
X165470910Y-132208538D01*
X165517362Y-132121632D01*
X165563811Y-132034733D01*
X165563811Y-132034732D01*
X165563814Y-132034727D01*
X165621024Y-131846132D01*
X165640341Y-131650000D01*
X165621024Y-131453868D01*
X165563814Y-131265273D01*
X165563811Y-131265269D01*
X165563811Y-131265266D01*
X165475474Y-131100000D01*
X167744353Y-131100000D01*
X167764834Y-131242456D01*
X167824622Y-131373371D01*
X167824623Y-131373373D01*
X167918872Y-131482143D01*
X168039947Y-131559953D01*
X168039950Y-131559954D01*
X168039949Y-131559954D01*
X168147107Y-131591417D01*
X168176336Y-131600000D01*
X168178036Y-131600499D01*
X168178038Y-131600500D01*
X168178039Y-131600500D01*
X168321962Y-131600500D01*
X168321962Y-131600499D01*
X168460053Y-131559953D01*
X168581128Y-131482143D01*
X168675377Y-131373373D01*
X168735165Y-131242457D01*
X168755647Y-131100000D01*
X168735165Y-130957543D01*
X168675377Y-130826627D01*
X168675374Y-130826624D01*
X168670582Y-130819166D01*
X168673621Y-130817212D01*
X168651749Y-130769224D01*
X168650500Y-130751667D01*
X168650500Y-127400000D01*
X172894353Y-127400000D01*
X172914834Y-127542456D01*
X172974622Y-127673371D01*
X172974623Y-127673373D01*
X173068872Y-127782143D01*
X173189947Y-127859953D01*
X173189950Y-127859954D01*
X173189949Y-127859954D01*
X173328036Y-127900499D01*
X173328038Y-127900500D01*
X173328039Y-127900500D01*
X173471962Y-127900500D01*
X173471962Y-127900499D01*
X173610053Y-127859953D01*
X173731128Y-127782143D01*
X173825377Y-127673373D01*
X173885165Y-127542457D01*
X173889573Y-127511795D01*
X173918594Y-127448244D01*
X173924615Y-127441776D01*
X175155484Y-126210909D01*
X175155484Y-126210908D01*
X175162552Y-126203841D01*
X175162557Y-126203834D01*
X175178050Y-126188342D01*
X175188109Y-126168598D01*
X175198269Y-126152018D01*
X175211296Y-126134089D01*
X175218142Y-126113017D01*
X175225588Y-126095043D01*
X175235645Y-126075305D01*
X175235646Y-126075304D01*
X175239112Y-126053416D01*
X175243651Y-126034510D01*
X175250500Y-126013433D01*
X175250500Y-125886567D01*
X175250500Y-123298332D01*
X175270185Y-123231293D01*
X175270901Y-123230336D01*
X175275368Y-123223382D01*
X175275377Y-123223373D01*
X175335165Y-123092457D01*
X175355647Y-122950000D01*
X175335165Y-122807543D01*
X175275377Y-122676627D01*
X175181128Y-122567857D01*
X175060053Y-122490047D01*
X175060051Y-122490046D01*
X175060049Y-122490045D01*
X175060050Y-122490045D01*
X174921963Y-122449500D01*
X174921961Y-122449500D01*
X174778039Y-122449500D01*
X174778036Y-122449500D01*
X174639949Y-122490045D01*
X174518873Y-122567856D01*
X174424623Y-122676626D01*
X174424622Y-122676628D01*
X174364834Y-122807543D01*
X174344353Y-122950000D01*
X174364834Y-123092456D01*
X174388413Y-123144086D01*
X174424623Y-123223373D01*
X174424627Y-123223378D01*
X174429418Y-123230833D01*
X174426364Y-123232795D01*
X174448235Y-123280663D01*
X174449500Y-123298332D01*
X174449500Y-125732745D01*
X174429815Y-125799784D01*
X174413181Y-125820426D01*
X173359009Y-126874597D01*
X173306263Y-126905893D01*
X173189949Y-126940045D01*
X173068873Y-127017856D01*
X172974623Y-127126626D01*
X172974622Y-127126628D01*
X172914834Y-127257543D01*
X172894353Y-127400000D01*
X168650500Y-127400000D01*
X168650500Y-124617254D01*
X168670185Y-124550215D01*
X168686819Y-124529573D01*
X172334932Y-120881460D01*
X174316391Y-118900000D01*
X182264659Y-118900000D01*
X182283975Y-119096129D01*
X182341188Y-119284733D01*
X182434086Y-119458532D01*
X182434090Y-119458539D01*
X182559116Y-119610883D01*
X182711460Y-119735909D01*
X182711467Y-119735913D01*
X182885266Y-119828811D01*
X182885269Y-119828811D01*
X182885273Y-119828814D01*
X183073868Y-119886024D01*
X183270000Y-119905341D01*
X183466132Y-119886024D01*
X183654727Y-119828814D01*
X183828538Y-119735910D01*
X183980883Y-119610883D01*
X184105910Y-119458538D01*
X184198814Y-119284727D01*
X184256024Y-119096132D01*
X184275341Y-118900000D01*
X200044659Y-118900000D01*
X200063975Y-119096129D01*
X200121188Y-119284733D01*
X200214086Y-119458532D01*
X200214090Y-119458539D01*
X200339116Y-119610883D01*
X200491460Y-119735909D01*
X200491467Y-119735913D01*
X200665266Y-119828811D01*
X200665269Y-119828811D01*
X200665273Y-119828814D01*
X200853868Y-119886024D01*
X201050000Y-119905341D01*
X201246132Y-119886024D01*
X201434727Y-119828814D01*
X201608538Y-119735910D01*
X201760883Y-119610883D01*
X201885910Y-119458538D01*
X201978814Y-119284727D01*
X202036024Y-119096132D01*
X202055341Y-118900000D01*
X202036024Y-118703868D01*
X201978814Y-118515273D01*
X201978811Y-118515269D01*
X201978811Y-118515266D01*
X201885913Y-118341467D01*
X201885909Y-118341460D01*
X201760883Y-118189116D01*
X201608539Y-118064090D01*
X201608532Y-118064086D01*
X201434733Y-117971188D01*
X201434727Y-117971186D01*
X201246132Y-117913976D01*
X201246129Y-117913975D01*
X201050000Y-117894659D01*
X200853870Y-117913975D01*
X200665266Y-117971188D01*
X200491467Y-118064086D01*
X200491460Y-118064090D01*
X200339116Y-118189116D01*
X200214090Y-118341460D01*
X200214086Y-118341467D01*
X200121188Y-118515266D01*
X200063975Y-118703870D01*
X200044659Y-118900000D01*
X184275341Y-118900000D01*
X184256024Y-118703868D01*
X184198814Y-118515273D01*
X184198811Y-118515269D01*
X184198811Y-118515266D01*
X184105913Y-118341467D01*
X184105909Y-118341460D01*
X183980883Y-118189116D01*
X183828539Y-118064090D01*
X183828532Y-118064086D01*
X183654733Y-117971188D01*
X183654727Y-117971186D01*
X183466132Y-117913976D01*
X183466129Y-117913975D01*
X183270000Y-117894659D01*
X183073870Y-117913975D01*
X182885266Y-117971188D01*
X182711467Y-118064086D01*
X182711460Y-118064090D01*
X182559116Y-118189116D01*
X182434090Y-118341460D01*
X182434086Y-118341467D01*
X182341188Y-118515266D01*
X182283975Y-118703870D01*
X182264659Y-118900000D01*
X174316391Y-118900000D01*
X176040991Y-117175400D01*
X176093731Y-117144107D01*
X176210053Y-117109953D01*
X176331128Y-117032143D01*
X176425377Y-116923373D01*
X176485165Y-116792457D01*
X176505647Y-116650000D01*
X176485165Y-116507543D01*
X176425377Y-116376627D01*
X176331128Y-116267857D01*
X176210053Y-116190047D01*
X176210051Y-116190046D01*
X176210049Y-116190045D01*
X176210050Y-116190045D01*
X176071963Y-116149500D01*
X176071961Y-116149500D01*
X175928039Y-116149500D01*
X175928036Y-116149500D01*
X175789949Y-116190045D01*
X175668873Y-116267856D01*
X175668872Y-116267856D01*
X175668872Y-116267857D01*
X175665805Y-116271397D01*
X175574623Y-116376626D01*
X175574622Y-116376628D01*
X175514835Y-116507541D01*
X175514834Y-116507545D01*
X175510426Y-116538205D01*
X175481400Y-116601760D01*
X175475369Y-116608237D01*
X167944516Y-124139091D01*
X167944513Y-124139094D01*
X167921949Y-124161659D01*
X167921948Y-124161660D01*
X167911891Y-124181397D01*
X167901731Y-124197977D01*
X167888706Y-124215905D01*
X167888703Y-124215910D01*
X167881854Y-124236988D01*
X167874413Y-124254952D01*
X167864354Y-124274695D01*
X167860887Y-124296582D01*
X167856347Y-124315491D01*
X167849500Y-124336567D01*
X167849500Y-130751667D01*
X167829815Y-130818706D01*
X167829094Y-130819669D01*
X167824622Y-130826628D01*
X167764834Y-130957543D01*
X167744353Y-131100000D01*
X165475474Y-131100000D01*
X165470913Y-131091467D01*
X165470909Y-131091460D01*
X165345883Y-130939116D01*
X165193539Y-130814090D01*
X165193532Y-130814086D01*
X165019733Y-130721188D01*
X165019727Y-130721186D01*
X164831132Y-130663976D01*
X164831129Y-130663975D01*
X164635000Y-130644659D01*
X164438870Y-130663975D01*
X164250266Y-130721188D01*
X164076467Y-130814086D01*
X164076460Y-130814090D01*
X163924116Y-130939116D01*
X163799090Y-131091460D01*
X163799086Y-131091467D01*
X163706188Y-131265266D01*
X163648975Y-131453870D01*
X163629659Y-131650000D01*
X150100500Y-131650000D01*
X150100500Y-129854822D01*
X155884499Y-129854822D01*
X155893231Y-129898717D01*
X155893234Y-129898724D01*
X155926495Y-129948503D01*
X155926496Y-129948504D01*
X155976278Y-129981767D01*
X155976281Y-129981767D01*
X155976282Y-129981768D01*
X156020177Y-129990500D01*
X156020180Y-129990500D01*
X157749822Y-129990500D01*
X157793717Y-129981768D01*
X157793717Y-129981767D01*
X157793722Y-129981767D01*
X157843504Y-129948504D01*
X157876767Y-129898722D01*
X157885500Y-129854820D01*
X157885500Y-128125180D01*
X157885500Y-128125177D01*
X157876768Y-128081282D01*
X157876767Y-128081281D01*
X157876767Y-128081278D01*
X157843504Y-128031496D01*
X157813798Y-128011647D01*
X157793724Y-127998234D01*
X157793717Y-127998231D01*
X157749822Y-127989500D01*
X157749820Y-127989500D01*
X156020180Y-127989500D01*
X156020178Y-127989500D01*
X155976282Y-127998231D01*
X155976275Y-127998234D01*
X155926496Y-128031495D01*
X155926495Y-128031496D01*
X155893234Y-128081275D01*
X155893231Y-128081282D01*
X155884500Y-128125177D01*
X155884500Y-128125180D01*
X155884500Y-129854820D01*
X155884500Y-129854822D01*
X155884499Y-129854822D01*
X150100500Y-129854822D01*
X150100500Y-127467844D01*
X163285000Y-127467844D01*
X163291401Y-127527372D01*
X163291403Y-127527379D01*
X163341645Y-127662086D01*
X163341649Y-127662093D01*
X163427809Y-127777187D01*
X163427812Y-127777190D01*
X163542906Y-127863350D01*
X163542913Y-127863354D01*
X163677620Y-127913596D01*
X163677627Y-127913598D01*
X163737155Y-127919999D01*
X163737172Y-127920000D01*
X164275348Y-127920000D01*
X164342387Y-127939685D01*
X164388142Y-127992489D01*
X164398086Y-128061647D01*
X164369061Y-128125203D01*
X164311344Y-128162660D01*
X164281630Y-128171673D01*
X164250268Y-128181187D01*
X164076467Y-128274086D01*
X164076460Y-128274090D01*
X163924116Y-128399116D01*
X163799090Y-128551460D01*
X163799086Y-128551467D01*
X163706188Y-128725266D01*
X163648975Y-128913870D01*
X163629659Y-129110000D01*
X163648975Y-129306129D01*
X163648976Y-129306132D01*
X163691020Y-129444733D01*
X163706188Y-129494733D01*
X163799086Y-129668532D01*
X163799090Y-129668539D01*
X163924116Y-129820883D01*
X164076460Y-129945909D01*
X164076467Y-129945913D01*
X164250266Y-130038811D01*
X164250269Y-130038811D01*
X164250273Y-130038814D01*
X164438868Y-130096024D01*
X164635000Y-130115341D01*
X164831132Y-130096024D01*
X165019727Y-130038814D01*
X165193538Y-129945910D01*
X165345883Y-129820883D01*
X165470910Y-129668538D01*
X165563814Y-129494727D01*
X165621024Y-129306132D01*
X165640341Y-129110000D01*
X165621024Y-128913868D01*
X165563814Y-128725273D01*
X165563811Y-128725269D01*
X165563811Y-128725266D01*
X165470913Y-128551467D01*
X165470909Y-128551460D01*
X165345883Y-128399116D01*
X165193539Y-128274090D01*
X165193532Y-128274086D01*
X165019731Y-128181187D01*
X165001190Y-128175562D01*
X164958655Y-128162660D01*
X164900218Y-128124363D01*
X164871762Y-128060551D01*
X164882322Y-127991484D01*
X164928546Y-127939090D01*
X164994652Y-127920000D01*
X165532828Y-127920000D01*
X165532844Y-127919999D01*
X165592372Y-127913598D01*
X165592379Y-127913596D01*
X165727086Y-127863354D01*
X165727093Y-127863350D01*
X165842187Y-127777190D01*
X165842190Y-127777187D01*
X165928350Y-127662093D01*
X165928354Y-127662086D01*
X165978596Y-127527379D01*
X165978598Y-127527372D01*
X165984999Y-127467844D01*
X165985000Y-127467827D01*
X165985000Y-126820000D01*
X165068686Y-126820000D01*
X165094493Y-126779844D01*
X165135000Y-126641889D01*
X165135000Y-126498111D01*
X165094493Y-126360156D01*
X165068686Y-126320000D01*
X165985000Y-126320000D01*
X165985000Y-125672172D01*
X165984999Y-125672155D01*
X165978598Y-125612627D01*
X165978596Y-125612620D01*
X165928354Y-125477913D01*
X165928350Y-125477906D01*
X165842190Y-125362812D01*
X165842187Y-125362809D01*
X165727093Y-125276649D01*
X165727086Y-125276645D01*
X165592379Y-125226403D01*
X165592372Y-125226401D01*
X165532844Y-125220000D01*
X164885000Y-125220000D01*
X164885000Y-126134498D01*
X164777315Y-126085320D01*
X164670763Y-126070000D01*
X164599237Y-126070000D01*
X164492685Y-126085320D01*
X164385000Y-126134498D01*
X164385000Y-125220000D01*
X163737155Y-125220000D01*
X163677627Y-125226401D01*
X163677620Y-125226403D01*
X163542913Y-125276645D01*
X163542906Y-125276649D01*
X163427812Y-125362809D01*
X163427809Y-125362812D01*
X163341649Y-125477906D01*
X163341645Y-125477913D01*
X163291403Y-125612620D01*
X163291401Y-125612627D01*
X163285000Y-125672155D01*
X163285000Y-126320000D01*
X164201314Y-126320000D01*
X164175507Y-126360156D01*
X164135000Y-126498111D01*
X164135000Y-126641889D01*
X164175507Y-126779844D01*
X164201314Y-126820000D01*
X163285000Y-126820000D01*
X163285000Y-127467844D01*
X150100500Y-127467844D01*
X150100500Y-126450000D01*
X155879659Y-126450000D01*
X155898975Y-126646129D01*
X155956188Y-126834733D01*
X156049086Y-127008532D01*
X156049090Y-127008539D01*
X156174116Y-127160883D01*
X156326460Y-127285909D01*
X156326467Y-127285913D01*
X156500266Y-127378811D01*
X156500269Y-127378811D01*
X156500273Y-127378814D01*
X156688868Y-127436024D01*
X156885000Y-127455341D01*
X157081132Y-127436024D01*
X157269727Y-127378814D01*
X157443538Y-127285910D01*
X157595883Y-127160883D01*
X157720910Y-127008538D01*
X157813814Y-126834727D01*
X157871024Y-126646132D01*
X157890341Y-126450000D01*
X157871024Y-126253868D01*
X157813814Y-126065273D01*
X157813811Y-126065269D01*
X157813811Y-126065266D01*
X157720913Y-125891467D01*
X157720909Y-125891460D01*
X157595883Y-125739116D01*
X157443539Y-125614090D01*
X157443532Y-125614086D01*
X157269733Y-125521188D01*
X157269727Y-125521186D01*
X157081132Y-125463976D01*
X157081129Y-125463975D01*
X156885000Y-125444659D01*
X156688870Y-125463975D01*
X156500266Y-125521188D01*
X156326467Y-125614086D01*
X156326460Y-125614090D01*
X156174116Y-125739116D01*
X156049090Y-125891460D01*
X156049086Y-125891467D01*
X155956188Y-126065266D01*
X155898975Y-126253870D01*
X155879659Y-126450000D01*
X150100500Y-126450000D01*
X150100500Y-116840005D01*
X156730116Y-116840005D01*
X156749617Y-117075347D01*
X156807591Y-117304283D01*
X156902454Y-117520549D01*
X156990749Y-117655695D01*
X157585229Y-117061217D01*
X157599109Y-117103935D01*
X157682368Y-117235131D01*
X157795639Y-117341500D01*
X157931804Y-117416357D01*
X157936093Y-117417458D01*
X157343386Y-118010165D01*
X157343386Y-118010167D01*
X157377919Y-118037045D01*
X157377925Y-118037049D01*
X157585621Y-118149449D01*
X157585629Y-118149452D01*
X157808981Y-118226129D01*
X158041921Y-118265000D01*
X158278079Y-118265000D01*
X158511018Y-118226129D01*
X158734370Y-118149452D01*
X158734388Y-118149445D01*
X158942066Y-118037054D01*
X158942075Y-118037048D01*
X158976612Y-118010166D01*
X158976613Y-118010165D01*
X158380567Y-117414120D01*
X158458633Y-117383212D01*
X158584343Y-117291879D01*
X158683389Y-117172153D01*
X158735328Y-117061775D01*
X159329248Y-117655696D01*
X159417544Y-117520551D01*
X159507745Y-117314914D01*
X159552701Y-117261428D01*
X159619437Y-117240738D01*
X159686765Y-117259413D01*
X159732301Y-117309452D01*
X159781670Y-117408598D01*
X159781675Y-117408606D01*
X159901792Y-117567666D01*
X159966469Y-117626626D01*
X160049090Y-117701945D01*
X160138884Y-117757543D01*
X160201421Y-117796265D01*
X160218554Y-117806873D01*
X160404414Y-117878876D01*
X160600340Y-117915500D01*
X160600342Y-117915500D01*
X160799658Y-117915500D01*
X160799660Y-117915500D01*
X160995586Y-117878876D01*
X161181446Y-117806873D01*
X161225135Y-117779822D01*
X162164499Y-117779822D01*
X162173231Y-117823717D01*
X162173234Y-117823724D01*
X162206495Y-117873503D01*
X162206496Y-117873504D01*
X162256278Y-117906767D01*
X162256281Y-117906767D01*
X162256282Y-117906768D01*
X162300177Y-117915500D01*
X162300180Y-117915500D01*
X164179822Y-117915500D01*
X164223717Y-117906768D01*
X164223717Y-117906767D01*
X164223722Y-117906767D01*
X164273504Y-117873504D01*
X164306767Y-117823722D01*
X164315500Y-117779820D01*
X164315500Y-115900180D01*
X164315500Y-115900177D01*
X164306768Y-115856282D01*
X164306767Y-115856281D01*
X164306767Y-115856278D01*
X164273504Y-115806496D01*
X164265978Y-115801467D01*
X164223724Y-115773234D01*
X164223717Y-115773231D01*
X164179822Y-115764500D01*
X164179820Y-115764500D01*
X162300180Y-115764500D01*
X162300178Y-115764500D01*
X162256282Y-115773231D01*
X162256275Y-115773234D01*
X162206496Y-115806495D01*
X162206495Y-115806496D01*
X162173234Y-115856275D01*
X162173231Y-115856282D01*
X162164500Y-115900177D01*
X162164500Y-115900180D01*
X162164500Y-117779820D01*
X162164500Y-117779822D01*
X162164499Y-117779822D01*
X161225135Y-117779822D01*
X161350910Y-117701945D01*
X161498209Y-117567664D01*
X161618326Y-117408604D01*
X161707171Y-117230180D01*
X161761717Y-117038469D01*
X161780108Y-116840000D01*
X161780107Y-116839994D01*
X161771280Y-116744733D01*
X161761717Y-116641531D01*
X161707171Y-116449820D01*
X161693211Y-116421784D01*
X161618329Y-116271401D01*
X161618324Y-116271393D01*
X161498207Y-116112333D01*
X161350911Y-115978056D01*
X161350910Y-115978055D01*
X161257153Y-115920003D01*
X161181447Y-115873127D01*
X161181445Y-115873126D01*
X161099379Y-115841334D01*
X160995586Y-115801124D01*
X160995582Y-115801123D01*
X160916639Y-115786366D01*
X160799660Y-115764500D01*
X160600340Y-115764500D01*
X160510254Y-115781339D01*
X160404417Y-115801123D01*
X160404415Y-115801123D01*
X160404414Y-115801124D01*
X160352517Y-115821229D01*
X160218554Y-115873126D01*
X160218552Y-115873127D01*
X160049088Y-115978056D01*
X159901792Y-116112333D01*
X159781675Y-116271393D01*
X159781673Y-116271397D01*
X159732301Y-116370548D01*
X159684797Y-116421784D01*
X159617134Y-116439205D01*
X159550794Y-116417279D01*
X159507745Y-116365085D01*
X159417546Y-116159453D01*
X159329248Y-116024302D01*
X158734770Y-116618781D01*
X158720891Y-116576065D01*
X158637632Y-116444869D01*
X158524361Y-116338500D01*
X158388196Y-116263643D01*
X158383905Y-116262541D01*
X158976612Y-115669833D01*
X158976612Y-115669831D01*
X158942080Y-115642954D01*
X158942074Y-115642950D01*
X158734378Y-115530550D01*
X158734370Y-115530547D01*
X158511018Y-115453870D01*
X158278079Y-115415000D01*
X158041921Y-115415000D01*
X157808981Y-115453870D01*
X157585629Y-115530547D01*
X157585621Y-115530550D01*
X157377922Y-115642952D01*
X157343386Y-115669831D01*
X157343385Y-115669833D01*
X157939432Y-116265879D01*
X157861367Y-116296788D01*
X157735657Y-116388121D01*
X157636611Y-116507847D01*
X157584671Y-116618224D01*
X156990749Y-116024302D01*
X156902454Y-116159450D01*
X156807591Y-116375716D01*
X156749617Y-116604652D01*
X156730116Y-116839994D01*
X156730116Y-116840005D01*
X150100500Y-116840005D01*
X150100500Y-114717844D01*
X181920000Y-114717844D01*
X181926401Y-114777372D01*
X181926403Y-114777379D01*
X181976645Y-114912086D01*
X181976649Y-114912093D01*
X182062809Y-115027187D01*
X182062812Y-115027190D01*
X182177906Y-115113350D01*
X182177913Y-115113354D01*
X182312620Y-115163596D01*
X182312627Y-115163598D01*
X182372155Y-115169999D01*
X182372172Y-115170000D01*
X182910348Y-115170000D01*
X182977387Y-115189685D01*
X183023142Y-115242489D01*
X183033086Y-115311647D01*
X183004061Y-115375203D01*
X182946344Y-115412660D01*
X182916630Y-115421673D01*
X182885268Y-115431187D01*
X182711467Y-115524086D01*
X182711460Y-115524090D01*
X182559116Y-115649116D01*
X182434090Y-115801460D01*
X182434086Y-115801467D01*
X182341188Y-115975266D01*
X182283975Y-116163870D01*
X182264659Y-116360000D01*
X182283975Y-116556129D01*
X182290023Y-116576065D01*
X182334851Y-116723845D01*
X182341188Y-116744733D01*
X182434086Y-116918532D01*
X182434090Y-116918539D01*
X182559116Y-117070883D01*
X182711460Y-117195909D01*
X182711467Y-117195913D01*
X182885266Y-117288811D01*
X182885269Y-117288811D01*
X182885273Y-117288814D01*
X183073868Y-117346024D01*
X183270000Y-117365341D01*
X183466132Y-117346024D01*
X183654727Y-117288814D01*
X183828538Y-117195910D01*
X183980883Y-117070883D01*
X184105910Y-116918538D01*
X184173302Y-116792456D01*
X184198811Y-116744733D01*
X184198811Y-116744732D01*
X184198814Y-116744727D01*
X184256024Y-116556132D01*
X184275341Y-116360000D01*
X200044659Y-116360000D01*
X200063975Y-116556129D01*
X200070023Y-116576065D01*
X200114851Y-116723845D01*
X200121188Y-116744733D01*
X200214086Y-116918532D01*
X200214090Y-116918539D01*
X200339116Y-117070883D01*
X200491460Y-117195909D01*
X200491467Y-117195913D01*
X200665266Y-117288811D01*
X200665269Y-117288811D01*
X200665273Y-117288814D01*
X200853868Y-117346024D01*
X201050000Y-117365341D01*
X201246132Y-117346024D01*
X201434727Y-117288814D01*
X201608538Y-117195910D01*
X201760883Y-117070883D01*
X201885910Y-116918538D01*
X201953302Y-116792456D01*
X201978811Y-116744733D01*
X201978811Y-116744732D01*
X201978814Y-116744727D01*
X202036024Y-116556132D01*
X202055341Y-116360000D01*
X202036024Y-116163868D01*
X201978814Y-115975273D01*
X201978811Y-115975269D01*
X201978811Y-115975266D01*
X201885913Y-115801467D01*
X201885909Y-115801460D01*
X201760883Y-115649116D01*
X201608539Y-115524090D01*
X201608532Y-115524086D01*
X201434733Y-115431188D01*
X201434727Y-115431186D01*
X201299994Y-115390315D01*
X201246129Y-115373975D01*
X201050000Y-115354659D01*
X200853870Y-115373975D01*
X200665266Y-115431188D01*
X200491467Y-115524086D01*
X200491460Y-115524090D01*
X200339116Y-115649116D01*
X200214090Y-115801460D01*
X200214086Y-115801467D01*
X200121188Y-115975266D01*
X200063975Y-116163870D01*
X200044659Y-116360000D01*
X184275341Y-116360000D01*
X184256024Y-116163868D01*
X184198814Y-115975273D01*
X184198811Y-115975269D01*
X184198811Y-115975266D01*
X184105913Y-115801467D01*
X184105909Y-115801460D01*
X183980883Y-115649116D01*
X183828539Y-115524090D01*
X183828532Y-115524086D01*
X183654731Y-115431187D01*
X183636190Y-115425562D01*
X183593655Y-115412660D01*
X183535218Y-115374363D01*
X183506762Y-115310551D01*
X183517322Y-115241484D01*
X183563546Y-115189090D01*
X183629652Y-115170000D01*
X184167828Y-115170000D01*
X184167844Y-115169999D01*
X184227372Y-115163598D01*
X184227379Y-115163596D01*
X184362086Y-115113354D01*
X184362093Y-115113350D01*
X184477187Y-115027190D01*
X184477190Y-115027187D01*
X184563350Y-114912093D01*
X184563354Y-114912086D01*
X184613596Y-114777379D01*
X184613598Y-114777372D01*
X184619999Y-114717844D01*
X184620000Y-114717827D01*
X184620000Y-114684822D01*
X200049499Y-114684822D01*
X200058231Y-114728717D01*
X200058234Y-114728724D01*
X200090744Y-114777379D01*
X200091496Y-114778504D01*
X200141278Y-114811767D01*
X200141281Y-114811767D01*
X200141282Y-114811768D01*
X200185177Y-114820500D01*
X200185180Y-114820500D01*
X201914822Y-114820500D01*
X201958717Y-114811768D01*
X201958717Y-114811767D01*
X201958722Y-114811767D01*
X202008504Y-114778504D01*
X202041767Y-114728722D01*
X202046415Y-114705356D01*
X202050500Y-114684822D01*
X202050500Y-112955177D01*
X202041768Y-112911282D01*
X202041767Y-112911281D01*
X202041767Y-112911278D01*
X202008504Y-112861496D01*
X202008503Y-112861495D01*
X201958724Y-112828234D01*
X201958717Y-112828231D01*
X201914822Y-112819500D01*
X201914820Y-112819500D01*
X200185180Y-112819500D01*
X200185178Y-112819500D01*
X200141282Y-112828231D01*
X200141275Y-112828234D01*
X200091496Y-112861495D01*
X200091495Y-112861496D01*
X200058234Y-112911275D01*
X200058231Y-112911282D01*
X200049500Y-112955177D01*
X200049500Y-112955180D01*
X200049500Y-114684820D01*
X200049500Y-114684822D01*
X200049499Y-114684822D01*
X184620000Y-114684822D01*
X184620000Y-114070000D01*
X183715572Y-114070000D01*
X183738682Y-114034040D01*
X183780000Y-113893327D01*
X183780000Y-113746673D01*
X183738682Y-113605960D01*
X183715572Y-113570000D01*
X184620000Y-113570000D01*
X184620000Y-112922172D01*
X184619999Y-112922155D01*
X184613598Y-112862627D01*
X184613596Y-112862620D01*
X184563354Y-112727913D01*
X184563350Y-112727906D01*
X184477190Y-112612812D01*
X184477187Y-112612809D01*
X184362093Y-112526649D01*
X184362086Y-112526645D01*
X184227379Y-112476403D01*
X184227372Y-112476401D01*
X184167844Y-112470000D01*
X183629652Y-112470000D01*
X183562613Y-112450315D01*
X183516858Y-112397511D01*
X183506914Y-112328353D01*
X183535939Y-112264797D01*
X183593655Y-112227339D01*
X183654727Y-112208814D01*
X183828538Y-112115910D01*
X183980883Y-111990883D01*
X184105910Y-111838538D01*
X184177713Y-111704205D01*
X184198811Y-111664733D01*
X184198811Y-111664732D01*
X184198814Y-111664727D01*
X184256024Y-111476132D01*
X184275341Y-111280000D01*
X200044659Y-111280000D01*
X200063975Y-111476129D01*
X200083046Y-111538997D01*
X200113699Y-111640047D01*
X200121188Y-111664733D01*
X200214086Y-111838532D01*
X200214090Y-111838539D01*
X200339116Y-111990883D01*
X200491460Y-112115909D01*
X200491467Y-112115913D01*
X200665266Y-112208811D01*
X200665269Y-112208811D01*
X200665273Y-112208814D01*
X200853868Y-112266024D01*
X201050000Y-112285341D01*
X201246132Y-112266024D01*
X201434727Y-112208814D01*
X201608538Y-112115910D01*
X201760883Y-111990883D01*
X201885910Y-111838538D01*
X201957713Y-111704205D01*
X201978811Y-111664733D01*
X201978811Y-111664732D01*
X201978814Y-111664727D01*
X202036024Y-111476132D01*
X202055341Y-111280000D01*
X202036024Y-111083868D01*
X201978814Y-110895273D01*
X201978811Y-110895269D01*
X201978811Y-110895266D01*
X201885913Y-110721467D01*
X201885909Y-110721460D01*
X201760883Y-110569116D01*
X201608539Y-110444090D01*
X201608532Y-110444086D01*
X201434733Y-110351188D01*
X201434727Y-110351186D01*
X201246132Y-110293976D01*
X201246129Y-110293975D01*
X201050000Y-110274659D01*
X200853870Y-110293975D01*
X200665266Y-110351188D01*
X200491467Y-110444086D01*
X200491460Y-110444090D01*
X200339116Y-110569116D01*
X200214090Y-110721460D01*
X200214086Y-110721467D01*
X200121188Y-110895266D01*
X200063975Y-111083870D01*
X200044659Y-111280000D01*
X184275341Y-111280000D01*
X184256024Y-111083868D01*
X184198814Y-110895273D01*
X184198811Y-110895269D01*
X184198811Y-110895266D01*
X184105913Y-110721467D01*
X184105909Y-110721460D01*
X183980883Y-110569116D01*
X183828539Y-110444090D01*
X183828532Y-110444086D01*
X183654733Y-110351188D01*
X183654727Y-110351186D01*
X183466132Y-110293976D01*
X183466129Y-110293975D01*
X183270000Y-110274659D01*
X183073870Y-110293975D01*
X182885266Y-110351188D01*
X182711467Y-110444086D01*
X182711460Y-110444090D01*
X182559116Y-110569116D01*
X182434090Y-110721460D01*
X182434086Y-110721467D01*
X182341188Y-110895266D01*
X182283975Y-111083870D01*
X182264659Y-111280000D01*
X182283975Y-111476129D01*
X182303046Y-111538997D01*
X182333699Y-111640047D01*
X182341188Y-111664733D01*
X182434086Y-111838532D01*
X182434090Y-111838539D01*
X182559116Y-111990883D01*
X182711460Y-112115909D01*
X182711467Y-112115913D01*
X182885268Y-112208812D01*
X182885270Y-112208812D01*
X182885273Y-112208814D01*
X182946344Y-112227339D01*
X183004782Y-112265637D01*
X183033238Y-112329449D01*
X183022678Y-112398516D01*
X182976454Y-112450910D01*
X182910348Y-112470000D01*
X182372155Y-112470000D01*
X182312627Y-112476401D01*
X182312620Y-112476403D01*
X182177913Y-112526645D01*
X182177906Y-112526649D01*
X182062812Y-112612809D01*
X182062809Y-112612812D01*
X181976649Y-112727906D01*
X181976645Y-112727913D01*
X181926403Y-112862620D01*
X181926401Y-112862627D01*
X181920000Y-112922155D01*
X181920000Y-113570000D01*
X182824428Y-113570000D01*
X182801318Y-113605960D01*
X182760000Y-113746673D01*
X182760000Y-113893327D01*
X182801318Y-114034040D01*
X182824428Y-114070000D01*
X181920000Y-114070000D01*
X181920000Y-114717844D01*
X150100500Y-114717844D01*
X150100500Y-111864822D01*
X160139499Y-111864822D01*
X160148231Y-111908717D01*
X160148234Y-111908724D01*
X160180854Y-111957543D01*
X160181496Y-111958504D01*
X160231278Y-111991767D01*
X160231281Y-111991767D01*
X160231282Y-111991768D01*
X160275177Y-112000500D01*
X160275180Y-112000500D01*
X162504822Y-112000500D01*
X162548717Y-111991768D01*
X162548717Y-111991767D01*
X162548722Y-111991767D01*
X162598504Y-111958504D01*
X162631767Y-111908722D01*
X162640500Y-111864820D01*
X162640500Y-110750002D01*
X163944723Y-110750002D01*
X163950378Y-110814642D01*
X163963040Y-110959375D01*
X163963793Y-110967975D01*
X163963793Y-110967979D01*
X164020422Y-111179322D01*
X164020424Y-111179326D01*
X164020425Y-111179330D01*
X164066661Y-111278484D01*
X164112897Y-111377638D01*
X164112898Y-111377639D01*
X164238402Y-111556877D01*
X164393123Y-111711598D01*
X164572361Y-111837102D01*
X164770670Y-111929575D01*
X164982023Y-111986207D01*
X165164926Y-112002208D01*
X165199998Y-112005277D01*
X165200000Y-112005277D01*
X165200002Y-112005277D01*
X165228254Y-112002805D01*
X165417977Y-111986207D01*
X165629330Y-111929575D01*
X165827639Y-111837102D01*
X166006877Y-111711598D01*
X166161598Y-111556877D01*
X166287102Y-111377639D01*
X166379575Y-111179330D01*
X166436207Y-110967977D01*
X166455277Y-110750000D01*
X166436207Y-110532023D01*
X166379575Y-110320670D01*
X166287102Y-110122362D01*
X166287100Y-110122359D01*
X166287099Y-110122357D01*
X166161599Y-109943124D01*
X166110240Y-109891765D01*
X166006877Y-109788402D01*
X165973201Y-109764822D01*
X212849499Y-109764822D01*
X212858231Y-109808717D01*
X212858234Y-109808724D01*
X212882150Y-109844517D01*
X212891496Y-109858504D01*
X212941278Y-109891767D01*
X212941281Y-109891767D01*
X212941282Y-109891768D01*
X212985177Y-109900500D01*
X212985180Y-109900500D01*
X214614822Y-109900500D01*
X214658717Y-109891768D01*
X214658717Y-109891767D01*
X214658722Y-109891767D01*
X214708504Y-109858504D01*
X214741767Y-109808722D01*
X214742018Y-109807462D01*
X214750500Y-109764822D01*
X214750500Y-108135177D01*
X214741768Y-108091282D01*
X214741767Y-108091281D01*
X214741767Y-108091278D01*
X214708504Y-108041496D01*
X214708503Y-108041495D01*
X214658724Y-108008234D01*
X214658717Y-108008231D01*
X214614822Y-107999500D01*
X214614820Y-107999500D01*
X212985180Y-107999500D01*
X212985178Y-107999500D01*
X212941282Y-108008231D01*
X212941275Y-108008234D01*
X212891496Y-108041495D01*
X212891495Y-108041496D01*
X212858234Y-108091275D01*
X212858231Y-108091282D01*
X212849500Y-108135177D01*
X212849500Y-108135180D01*
X212849500Y-109764820D01*
X212849500Y-109764822D01*
X212849499Y-109764822D01*
X165973201Y-109764822D01*
X165827639Y-109662898D01*
X165827640Y-109662898D01*
X165827638Y-109662897D01*
X165716654Y-109611145D01*
X165629330Y-109570425D01*
X165629326Y-109570424D01*
X165629322Y-109570422D01*
X165417977Y-109513793D01*
X165200002Y-109494723D01*
X165199998Y-109494723D01*
X165054682Y-109507436D01*
X164982023Y-109513793D01*
X164982020Y-109513793D01*
X164770677Y-109570422D01*
X164770670Y-109570424D01*
X164770670Y-109570425D01*
X164758901Y-109575913D01*
X164572361Y-109662898D01*
X164572357Y-109662900D01*
X164393121Y-109788402D01*
X164238402Y-109943121D01*
X164112900Y-110122357D01*
X164112898Y-110122361D01*
X164020426Y-110320668D01*
X164020422Y-110320677D01*
X163963793Y-110532020D01*
X163963793Y-110532024D01*
X163944723Y-110749997D01*
X163944723Y-110750002D01*
X162640500Y-110750002D01*
X162640500Y-109635180D01*
X162640500Y-109635177D01*
X162631768Y-109591282D01*
X162631767Y-109591281D01*
X162631767Y-109591278D01*
X162598504Y-109541496D01*
X162598503Y-109541495D01*
X162548724Y-109508234D01*
X162548717Y-109508231D01*
X162504822Y-109499500D01*
X162504820Y-109499500D01*
X160275180Y-109499500D01*
X160275178Y-109499500D01*
X160231282Y-109508231D01*
X160231275Y-109508234D01*
X160181496Y-109541495D01*
X160181495Y-109541496D01*
X160148234Y-109591275D01*
X160148231Y-109591282D01*
X160139500Y-109635177D01*
X160139500Y-109635180D01*
X160139500Y-111864820D01*
X160139500Y-111864822D01*
X160139499Y-111864822D01*
X150100500Y-111864822D01*
X150100500Y-108740000D01*
X182264659Y-108740000D01*
X182283975Y-108936129D01*
X182341188Y-109124733D01*
X182434086Y-109298532D01*
X182434090Y-109298539D01*
X182559116Y-109450883D01*
X182711460Y-109575909D01*
X182711467Y-109575913D01*
X182885266Y-109668811D01*
X182885269Y-109668811D01*
X182885273Y-109668814D01*
X183073868Y-109726024D01*
X183270000Y-109745341D01*
X183466132Y-109726024D01*
X183654727Y-109668814D01*
X183665792Y-109662900D01*
X183799779Y-109591282D01*
X183828538Y-109575910D01*
X183980883Y-109450883D01*
X184105910Y-109298538D01*
X184184551Y-109151411D01*
X184198811Y-109124733D01*
X184198811Y-109124732D01*
X184198814Y-109124727D01*
X184256024Y-108936132D01*
X184275341Y-108740000D01*
X200044659Y-108740000D01*
X200063975Y-108936129D01*
X200121188Y-109124733D01*
X200214086Y-109298532D01*
X200214090Y-109298539D01*
X200339116Y-109450883D01*
X200491460Y-109575909D01*
X200491467Y-109575913D01*
X200665266Y-109668811D01*
X200665269Y-109668811D01*
X200665273Y-109668814D01*
X200853868Y-109726024D01*
X201050000Y-109745341D01*
X201246132Y-109726024D01*
X201434727Y-109668814D01*
X201445792Y-109662900D01*
X201579779Y-109591282D01*
X201608538Y-109575910D01*
X201760883Y-109450883D01*
X201885910Y-109298538D01*
X201964551Y-109151411D01*
X201978811Y-109124733D01*
X201978811Y-109124732D01*
X201978814Y-109124727D01*
X202036024Y-108936132D01*
X202055341Y-108740000D01*
X202036024Y-108543868D01*
X201978814Y-108355273D01*
X201978811Y-108355269D01*
X201978811Y-108355266D01*
X201885913Y-108181467D01*
X201885909Y-108181460D01*
X201760883Y-108029116D01*
X201608539Y-107904090D01*
X201608532Y-107904086D01*
X201434733Y-107811188D01*
X201434727Y-107811186D01*
X201246132Y-107753976D01*
X201246129Y-107753975D01*
X201050000Y-107734659D01*
X200853870Y-107753975D01*
X200665266Y-107811188D01*
X200491467Y-107904086D01*
X200491460Y-107904090D01*
X200339116Y-108029116D01*
X200214090Y-108181460D01*
X200214086Y-108181467D01*
X200121188Y-108355266D01*
X200063975Y-108543870D01*
X200044659Y-108740000D01*
X184275341Y-108740000D01*
X184256024Y-108543868D01*
X184198814Y-108355273D01*
X184198811Y-108355269D01*
X184198811Y-108355266D01*
X184105913Y-108181467D01*
X184105909Y-108181460D01*
X183980883Y-108029116D01*
X183828539Y-107904090D01*
X183828532Y-107904086D01*
X183654733Y-107811188D01*
X183654727Y-107811186D01*
X183466132Y-107753976D01*
X183466129Y-107753975D01*
X183270000Y-107734659D01*
X183073870Y-107753975D01*
X182885266Y-107811188D01*
X182711467Y-107904086D01*
X182711460Y-107904090D01*
X182559116Y-108029116D01*
X182434090Y-108181460D01*
X182434086Y-108181467D01*
X182341188Y-108355266D01*
X182283975Y-108543870D01*
X182264659Y-108740000D01*
X150100500Y-108740000D01*
X150100500Y-105550002D01*
X159944723Y-105550002D01*
X159963793Y-105767975D01*
X159963793Y-105767979D01*
X160020422Y-105979322D01*
X160020424Y-105979326D01*
X160020425Y-105979330D01*
X160066661Y-106078484D01*
X160112897Y-106177638D01*
X160112898Y-106177639D01*
X160238402Y-106356877D01*
X160393123Y-106511598D01*
X160572361Y-106637102D01*
X160770670Y-106729575D01*
X160982023Y-106786207D01*
X161164926Y-106802208D01*
X161199998Y-106805277D01*
X161200000Y-106805277D01*
X161200002Y-106805277D01*
X161228254Y-106802805D01*
X161417977Y-106786207D01*
X161629330Y-106729575D01*
X161768193Y-106664822D01*
X163759499Y-106664822D01*
X163768231Y-106708717D01*
X163768234Y-106708724D01*
X163801495Y-106758503D01*
X163801496Y-106758504D01*
X163851278Y-106791767D01*
X163851281Y-106791767D01*
X163851282Y-106791768D01*
X163895177Y-106800500D01*
X163895180Y-106800500D01*
X166124822Y-106800500D01*
X166168717Y-106791768D01*
X166168717Y-106791767D01*
X166168722Y-106791767D01*
X166218504Y-106758504D01*
X166251767Y-106708722D01*
X166260500Y-106664820D01*
X166260500Y-106200000D01*
X182264659Y-106200000D01*
X182283975Y-106396129D01*
X182283976Y-106396132D01*
X182334221Y-106561768D01*
X182341188Y-106584733D01*
X182434086Y-106758532D01*
X182434090Y-106758539D01*
X182559116Y-106910883D01*
X182711460Y-107035909D01*
X182711467Y-107035913D01*
X182885266Y-107128811D01*
X182885269Y-107128811D01*
X182885273Y-107128814D01*
X183073868Y-107186024D01*
X183270000Y-107205341D01*
X183466132Y-107186024D01*
X183654727Y-107128814D01*
X183828538Y-107035910D01*
X183980883Y-106910883D01*
X184105910Y-106758538D01*
X184170819Y-106637102D01*
X184198811Y-106584733D01*
X184198811Y-106584732D01*
X184198814Y-106584727D01*
X184256024Y-106396132D01*
X184275341Y-106200000D01*
X200044659Y-106200000D01*
X200063975Y-106396129D01*
X200063976Y-106396132D01*
X200114221Y-106561768D01*
X200121188Y-106584733D01*
X200214086Y-106758532D01*
X200214090Y-106758539D01*
X200339116Y-106910883D01*
X200491460Y-107035909D01*
X200491467Y-107035913D01*
X200665266Y-107128811D01*
X200665269Y-107128811D01*
X200665273Y-107128814D01*
X200853868Y-107186024D01*
X201050000Y-107205341D01*
X201246132Y-107186024D01*
X201434727Y-107128814D01*
X201608538Y-107035910D01*
X201760883Y-106910883D01*
X201885910Y-106758538D01*
X201950819Y-106637102D01*
X201978811Y-106584733D01*
X201978811Y-106584732D01*
X201978814Y-106584727D01*
X202024287Y-106434822D01*
X233417317Y-106434822D01*
X233426049Y-106478717D01*
X233426052Y-106478724D01*
X233459313Y-106528503D01*
X233459314Y-106528504D01*
X233509096Y-106561767D01*
X233509099Y-106561767D01*
X233509100Y-106561768D01*
X233552995Y-106570500D01*
X233552998Y-106570500D01*
X235782640Y-106570500D01*
X235826535Y-106561768D01*
X235826535Y-106561767D01*
X235826540Y-106561767D01*
X235876322Y-106528504D01*
X235909585Y-106478722D01*
X235918318Y-106434820D01*
X235918318Y-104205180D01*
X235918318Y-104205177D01*
X235909586Y-104161282D01*
X235909585Y-104161281D01*
X235909585Y-104161278D01*
X235876322Y-104111496D01*
X235876321Y-104111495D01*
X235826542Y-104078234D01*
X235826535Y-104078231D01*
X235782640Y-104069500D01*
X235782638Y-104069500D01*
X233552998Y-104069500D01*
X233552996Y-104069500D01*
X233509100Y-104078231D01*
X233509093Y-104078234D01*
X233459314Y-104111495D01*
X233459313Y-104111496D01*
X233426052Y-104161275D01*
X233426049Y-104161282D01*
X233417318Y-104205177D01*
X233417318Y-104205180D01*
X233417318Y-106434820D01*
X233417318Y-106434822D01*
X233417317Y-106434822D01*
X202024287Y-106434822D01*
X202036024Y-106396132D01*
X202055341Y-106200000D01*
X202036024Y-106003868D01*
X201978814Y-105815273D01*
X201978811Y-105815269D01*
X201978811Y-105815266D01*
X201885913Y-105641467D01*
X201885909Y-105641460D01*
X201760883Y-105489116D01*
X201608539Y-105364090D01*
X201608532Y-105364086D01*
X201434733Y-105271188D01*
X201434727Y-105271186D01*
X201246132Y-105213976D01*
X201246129Y-105213975D01*
X201050000Y-105194659D01*
X200853870Y-105213975D01*
X200665266Y-105271188D01*
X200491467Y-105364086D01*
X200491460Y-105364090D01*
X200339116Y-105489116D01*
X200214090Y-105641460D01*
X200214086Y-105641467D01*
X200121188Y-105815266D01*
X200063975Y-106003870D01*
X200044659Y-106200000D01*
X184275341Y-106200000D01*
X184256024Y-106003868D01*
X184198814Y-105815273D01*
X184198811Y-105815269D01*
X184198811Y-105815266D01*
X184105913Y-105641467D01*
X184105909Y-105641460D01*
X183980883Y-105489116D01*
X183828539Y-105364090D01*
X183828532Y-105364086D01*
X183654733Y-105271188D01*
X183654727Y-105271186D01*
X183466132Y-105213976D01*
X183466129Y-105213975D01*
X183270000Y-105194659D01*
X183073870Y-105213975D01*
X182885266Y-105271188D01*
X182711467Y-105364086D01*
X182711460Y-105364090D01*
X182559116Y-105489116D01*
X182434090Y-105641460D01*
X182434086Y-105641467D01*
X182341188Y-105815266D01*
X182283975Y-106003870D01*
X182264659Y-106200000D01*
X166260500Y-106200000D01*
X166260500Y-104435180D01*
X166260500Y-104435177D01*
X166251768Y-104391282D01*
X166251767Y-104391281D01*
X166251767Y-104391278D01*
X166218504Y-104341496D01*
X166218503Y-104341495D01*
X166168724Y-104308234D01*
X166168717Y-104308231D01*
X166124822Y-104299500D01*
X166124820Y-104299500D01*
X163895180Y-104299500D01*
X163895178Y-104299500D01*
X163851282Y-104308231D01*
X163851275Y-104308234D01*
X163801496Y-104341495D01*
X163801495Y-104341496D01*
X163768234Y-104391275D01*
X163768231Y-104391282D01*
X163759500Y-104435177D01*
X163759500Y-104435180D01*
X163759500Y-106664820D01*
X163759500Y-106664822D01*
X163759499Y-106664822D01*
X161768193Y-106664822D01*
X161827639Y-106637102D01*
X162006877Y-106511598D01*
X162161598Y-106356877D01*
X162287102Y-106177639D01*
X162379575Y-105979330D01*
X162436207Y-105767977D01*
X162455277Y-105550000D01*
X162454225Y-105537979D01*
X162451569Y-105507618D01*
X162436207Y-105332023D01*
X162379575Y-105120670D01*
X162287102Y-104922362D01*
X162287100Y-104922359D01*
X162287099Y-104922357D01*
X162161599Y-104743124D01*
X162110832Y-104692357D01*
X162006877Y-104588402D01*
X161827639Y-104462898D01*
X161827640Y-104462898D01*
X161827638Y-104462897D01*
X161728484Y-104416661D01*
X161629330Y-104370425D01*
X161629326Y-104370424D01*
X161629322Y-104370422D01*
X161417977Y-104313793D01*
X161200002Y-104294723D01*
X161199998Y-104294723D01*
X161054682Y-104307436D01*
X160982023Y-104313793D01*
X160982020Y-104313793D01*
X160770677Y-104370422D01*
X160770668Y-104370426D01*
X160572361Y-104462898D01*
X160572357Y-104462900D01*
X160393121Y-104588402D01*
X160238402Y-104743121D01*
X160112900Y-104922357D01*
X160112898Y-104922361D01*
X160020426Y-105120668D01*
X160020422Y-105120677D01*
X159963793Y-105332020D01*
X159963793Y-105332024D01*
X159944723Y-105549997D01*
X159944723Y-105550002D01*
X150100500Y-105550002D01*
X150100500Y-101510000D01*
X170879364Y-101510000D01*
X170936567Y-101723486D01*
X170936570Y-101723492D01*
X171036399Y-101937578D01*
X171171894Y-102131082D01*
X171338917Y-102298105D01*
X171532421Y-102433600D01*
X171746507Y-102533429D01*
X171746516Y-102533433D01*
X171960000Y-102590634D01*
X171960000Y-101695501D01*
X172067685Y-101744680D01*
X172174237Y-101760000D01*
X172245763Y-101760000D01*
X172352315Y-101744680D01*
X172460000Y-101695501D01*
X172460000Y-102590633D01*
X172673483Y-102533433D01*
X172673492Y-102533429D01*
X172887578Y-102433600D01*
X173081082Y-102298105D01*
X173248105Y-102131082D01*
X173327396Y-102017844D01*
X181920000Y-102017844D01*
X181926401Y-102077372D01*
X181926403Y-102077379D01*
X181976645Y-102212086D01*
X181976649Y-102212093D01*
X182062809Y-102327187D01*
X182062812Y-102327190D01*
X182177906Y-102413350D01*
X182177913Y-102413354D01*
X182312620Y-102463596D01*
X182312627Y-102463598D01*
X182372155Y-102469999D01*
X182372172Y-102470000D01*
X182910348Y-102470000D01*
X182977387Y-102489685D01*
X183023142Y-102542489D01*
X183033086Y-102611647D01*
X183004061Y-102675203D01*
X182946344Y-102712660D01*
X182916630Y-102721673D01*
X182885268Y-102731187D01*
X182711467Y-102824086D01*
X182711460Y-102824090D01*
X182559116Y-102949116D01*
X182434090Y-103101460D01*
X182434086Y-103101467D01*
X182341188Y-103275266D01*
X182283975Y-103463870D01*
X182264659Y-103660000D01*
X182283975Y-103856129D01*
X182341188Y-104044733D01*
X182434086Y-104218532D01*
X182434090Y-104218539D01*
X182559116Y-104370883D01*
X182711460Y-104495909D01*
X182711467Y-104495913D01*
X182885266Y-104588811D01*
X182885269Y-104588811D01*
X182885273Y-104588814D01*
X183073868Y-104646024D01*
X183270000Y-104665341D01*
X183466132Y-104646024D01*
X183654727Y-104588814D01*
X183711022Y-104558724D01*
X183796335Y-104513123D01*
X183828538Y-104495910D01*
X183980883Y-104370883D01*
X184105910Y-104218538D01*
X184198814Y-104044727D01*
X184256024Y-103856132D01*
X184275341Y-103660000D01*
X184256024Y-103463868D01*
X184198814Y-103275273D01*
X184198811Y-103275269D01*
X184198811Y-103275266D01*
X184105913Y-103101467D01*
X184105909Y-103101460D01*
X183980883Y-102949116D01*
X183828539Y-102824090D01*
X183828532Y-102824086D01*
X183654731Y-102731187D01*
X183625483Y-102722315D01*
X183593655Y-102712660D01*
X183535218Y-102674363D01*
X183506762Y-102610551D01*
X183517322Y-102541484D01*
X183563546Y-102489090D01*
X183629652Y-102470000D01*
X184167828Y-102470000D01*
X184167844Y-102469999D01*
X184227372Y-102463598D01*
X184227379Y-102463596D01*
X184362086Y-102413354D01*
X184362093Y-102413350D01*
X184477187Y-102327190D01*
X184477190Y-102327187D01*
X184563350Y-102212093D01*
X184563354Y-102212086D01*
X184613596Y-102077379D01*
X184613598Y-102077372D01*
X184619999Y-102017844D01*
X199700000Y-102017844D01*
X199706401Y-102077372D01*
X199706403Y-102077379D01*
X199756645Y-102212086D01*
X199756649Y-102212093D01*
X199842809Y-102327187D01*
X199842812Y-102327190D01*
X199957906Y-102413350D01*
X199957913Y-102413354D01*
X200092620Y-102463596D01*
X200092627Y-102463598D01*
X200152155Y-102469999D01*
X200152172Y-102470000D01*
X200690348Y-102470000D01*
X200757387Y-102489685D01*
X200803142Y-102542489D01*
X200813086Y-102611647D01*
X200784061Y-102675203D01*
X200726344Y-102712660D01*
X200696630Y-102721673D01*
X200665268Y-102731187D01*
X200491467Y-102824086D01*
X200491460Y-102824090D01*
X200339116Y-102949116D01*
X200214090Y-103101460D01*
X200214086Y-103101467D01*
X200121188Y-103275266D01*
X200063975Y-103463870D01*
X200044659Y-103660000D01*
X200063975Y-103856129D01*
X200121188Y-104044733D01*
X200214086Y-104218532D01*
X200214090Y-104218539D01*
X200339116Y-104370883D01*
X200491460Y-104495909D01*
X200491467Y-104495913D01*
X200665266Y-104588811D01*
X200665269Y-104588811D01*
X200665273Y-104588814D01*
X200853868Y-104646024D01*
X201050000Y-104665341D01*
X201246132Y-104646024D01*
X201434727Y-104588814D01*
X201491022Y-104558724D01*
X201573156Y-104514822D01*
X220759499Y-104514822D01*
X220768231Y-104558717D01*
X220768234Y-104558724D01*
X220801495Y-104608503D01*
X220801496Y-104608504D01*
X220851278Y-104641767D01*
X220851281Y-104641767D01*
X220851282Y-104641768D01*
X220895177Y-104650500D01*
X220895180Y-104650500D01*
X222724822Y-104650500D01*
X222768717Y-104641768D01*
X222768717Y-104641767D01*
X222768722Y-104641767D01*
X222818504Y-104608504D01*
X222851767Y-104558722D01*
X222860500Y-104514820D01*
X222860500Y-103600000D01*
X223294417Y-103600000D01*
X223314699Y-103805932D01*
X223314700Y-103805934D01*
X223374768Y-104003954D01*
X223472315Y-104186450D01*
X223472317Y-104186452D01*
X223603589Y-104346410D01*
X223658258Y-104391275D01*
X223763550Y-104477685D01*
X223946046Y-104575232D01*
X224144066Y-104635300D01*
X224144065Y-104635300D01*
X224162529Y-104637118D01*
X224350000Y-104655583D01*
X224555934Y-104635300D01*
X224753954Y-104575232D01*
X224936450Y-104477685D01*
X225096410Y-104346410D01*
X225227685Y-104186450D01*
X225325232Y-104003954D01*
X225385300Y-103805934D01*
X225405583Y-103600000D01*
X225385300Y-103394066D01*
X225325232Y-103196046D01*
X225227685Y-103013550D01*
X225174806Y-102949116D01*
X225096410Y-102853589D01*
X224978677Y-102756969D01*
X224936450Y-102722315D01*
X224753954Y-102624768D01*
X224555934Y-102564700D01*
X224555932Y-102564699D01*
X224555934Y-102564699D01*
X224350000Y-102544417D01*
X224144067Y-102564699D01*
X223946043Y-102624769D01*
X223835898Y-102683643D01*
X223763550Y-102722315D01*
X223763548Y-102722316D01*
X223763547Y-102722317D01*
X223603589Y-102853589D01*
X223472317Y-103013547D01*
X223374769Y-103196043D01*
X223314699Y-103394067D01*
X223294417Y-103600000D01*
X222860500Y-103600000D01*
X222860500Y-102685180D01*
X222860500Y-102685177D01*
X222851768Y-102641282D01*
X222851767Y-102641281D01*
X222851767Y-102641278D01*
X222818504Y-102591496D01*
X222817214Y-102590634D01*
X222768724Y-102558234D01*
X222768717Y-102558231D01*
X222724822Y-102549500D01*
X222724820Y-102549500D01*
X220895180Y-102549500D01*
X220895178Y-102549500D01*
X220851282Y-102558231D01*
X220851275Y-102558234D01*
X220801496Y-102591495D01*
X220801495Y-102591496D01*
X220768234Y-102641275D01*
X220768231Y-102641282D01*
X220759500Y-102685177D01*
X220759500Y-102685180D01*
X220759500Y-104514820D01*
X220759500Y-104514822D01*
X220759499Y-104514822D01*
X201573156Y-104514822D01*
X201576335Y-104513123D01*
X201608538Y-104495910D01*
X201760883Y-104370883D01*
X201885910Y-104218538D01*
X201978814Y-104044727D01*
X202036024Y-103856132D01*
X202055341Y-103660000D01*
X202036024Y-103463868D01*
X201978814Y-103275273D01*
X201978811Y-103275269D01*
X201978811Y-103275266D01*
X201885913Y-103101467D01*
X201885909Y-103101460D01*
X201760883Y-102949116D01*
X201608539Y-102824090D01*
X201608532Y-102824086D01*
X201434731Y-102731187D01*
X201405483Y-102722315D01*
X201373655Y-102712660D01*
X201315218Y-102674363D01*
X201286762Y-102610551D01*
X201297322Y-102541484D01*
X201343546Y-102489090D01*
X201409652Y-102470000D01*
X201947828Y-102470000D01*
X201947844Y-102469999D01*
X202007372Y-102463598D01*
X202007379Y-102463596D01*
X202142086Y-102413354D01*
X202142093Y-102413350D01*
X202257187Y-102327190D01*
X202257190Y-102327187D01*
X202343350Y-102212093D01*
X202343354Y-102212086D01*
X202393596Y-102077379D01*
X202393598Y-102077372D01*
X202399999Y-102017844D01*
X202400000Y-102017827D01*
X202400000Y-101370000D01*
X201495572Y-101370000D01*
X201518682Y-101334040D01*
X201560000Y-101193327D01*
X201560000Y-101046673D01*
X201518682Y-100905960D01*
X201495572Y-100870000D01*
X202400000Y-100870000D01*
X202400000Y-100222172D01*
X202399999Y-100222155D01*
X202393598Y-100162627D01*
X202393596Y-100162620D01*
X202343354Y-100027913D01*
X202343350Y-100027906D01*
X202257190Y-99912812D01*
X202257187Y-99912809D01*
X202142093Y-99826649D01*
X202142086Y-99826645D01*
X202007379Y-99776403D01*
X202007372Y-99776401D01*
X201947844Y-99770000D01*
X201409652Y-99770000D01*
X201342613Y-99750315D01*
X201296858Y-99697511D01*
X201291073Y-99657278D01*
X227905738Y-99657278D01*
X227915761Y-99867687D01*
X227965423Y-100072397D01*
X228005220Y-100159540D01*
X228052928Y-100264008D01*
X228052932Y-100264014D01*
X228175112Y-100435592D01*
X228175118Y-100435598D01*
X228327572Y-100580963D01*
X228491868Y-100686549D01*
X228504777Y-100694845D01*
X228700336Y-100773135D01*
X228749378Y-100782587D01*
X228907175Y-100813000D01*
X228907176Y-100813000D01*
X229160034Y-100813000D01*
X229160041Y-100813000D01*
X229317194Y-100797994D01*
X229519308Y-100738647D01*
X229706539Y-100642123D01*
X229872119Y-100511910D01*
X230010064Y-100352713D01*
X230115388Y-100170287D01*
X230184284Y-99971225D01*
X230214262Y-99762722D01*
X230204239Y-99552313D01*
X230154577Y-99347603D01*
X230067071Y-99155992D01*
X230067071Y-99155991D01*
X230067067Y-99155985D01*
X229944887Y-98984407D01*
X229944881Y-98984401D01*
X229792427Y-98839036D01*
X229615227Y-98725157D01*
X229615224Y-98725156D01*
X229615223Y-98725155D01*
X229419664Y-98646865D01*
X229419662Y-98646864D01*
X229212825Y-98607000D01*
X229212824Y-98607000D01*
X228959959Y-98607000D01*
X228849951Y-98617504D01*
X228802803Y-98622006D01*
X228600695Y-98681351D01*
X228413460Y-98777877D01*
X228247881Y-98908089D01*
X228247880Y-98908090D01*
X228109933Y-99067289D01*
X228004613Y-99249709D01*
X227935717Y-99448769D01*
X227935716Y-99448774D01*
X227935716Y-99448775D01*
X227905738Y-99657278D01*
X201291073Y-99657278D01*
X201286914Y-99628353D01*
X201315939Y-99564797D01*
X201373655Y-99527339D01*
X201434727Y-99508814D01*
X201608538Y-99415910D01*
X201760883Y-99290883D01*
X201885910Y-99138538D01*
X201978814Y-98964727D01*
X202036024Y-98776132D01*
X202055341Y-98580000D01*
X202036024Y-98383868D01*
X201978814Y-98195273D01*
X201978811Y-98195269D01*
X201978811Y-98195266D01*
X201885913Y-98021467D01*
X201885909Y-98021460D01*
X201760883Y-97869116D01*
X201642040Y-97771584D01*
X212605000Y-97771584D01*
X212620191Y-97925834D01*
X212680233Y-98123766D01*
X212777728Y-98306166D01*
X212777732Y-98306173D01*
X212908944Y-98466055D01*
X213068826Y-98597267D01*
X213068833Y-98597271D01*
X213251233Y-98694766D01*
X213405000Y-98741410D01*
X213405000Y-97886110D01*
X213429457Y-97925610D01*
X213518962Y-97993201D01*
X213626840Y-98023895D01*
X213738521Y-98013546D01*
X213838922Y-97963552D01*
X213905000Y-97891069D01*
X213905000Y-98741410D01*
X214058766Y-98694766D01*
X214241166Y-98597271D01*
X214241173Y-98597267D01*
X214401055Y-98466055D01*
X214532267Y-98306173D01*
X214532271Y-98306166D01*
X214629766Y-98123766D01*
X214689808Y-97925834D01*
X214705000Y-97771584D01*
X221245000Y-97771584D01*
X221260191Y-97925834D01*
X221320233Y-98123766D01*
X221417728Y-98306166D01*
X221417732Y-98306173D01*
X221548944Y-98466055D01*
X221708826Y-98597267D01*
X221708833Y-98597271D01*
X221891233Y-98694766D01*
X222045000Y-98741410D01*
X222045000Y-97886110D01*
X222069457Y-97925610D01*
X222158962Y-97993201D01*
X222266840Y-98023895D01*
X222378521Y-98013546D01*
X222478922Y-97963552D01*
X222545000Y-97891069D01*
X222545000Y-98741410D01*
X222698766Y-98694766D01*
X222881166Y-98597271D01*
X222881173Y-98597267D01*
X223041055Y-98466055D01*
X223172267Y-98306173D01*
X223172271Y-98306166D01*
X223269766Y-98123766D01*
X223329808Y-97925834D01*
X223345000Y-97771584D01*
X223345000Y-97670000D01*
X222595000Y-97670000D01*
X222595000Y-97170000D01*
X223345000Y-97170000D01*
X223345000Y-97117278D01*
X227905738Y-97117278D01*
X227915761Y-97327687D01*
X227965423Y-97532397D01*
X228002486Y-97613553D01*
X228052928Y-97724008D01*
X228052932Y-97724014D01*
X228175112Y-97895592D01*
X228175118Y-97895598D01*
X228327572Y-98040963D01*
X228456417Y-98123766D01*
X228504777Y-98154845D01*
X228700336Y-98233135D01*
X228803756Y-98253067D01*
X228907175Y-98273000D01*
X228907176Y-98273000D01*
X229160034Y-98273000D01*
X229160041Y-98273000D01*
X229317194Y-98257994D01*
X229519308Y-98198647D01*
X229706539Y-98102123D01*
X229872119Y-97971910D01*
X230010064Y-97812713D01*
X230015550Y-97803212D01*
X230087025Y-97679413D01*
X230115388Y-97630287D01*
X230184284Y-97431225D01*
X230214262Y-97222722D01*
X230204239Y-97012313D01*
X230154577Y-96807603D01*
X230067071Y-96615992D01*
X230067071Y-96615991D01*
X230067067Y-96615985D01*
X229944887Y-96444407D01*
X229944881Y-96444401D01*
X229792427Y-96299036D01*
X229615227Y-96185157D01*
X229615224Y-96185156D01*
X229615223Y-96185155D01*
X229419664Y-96106865D01*
X229419662Y-96106864D01*
X229212825Y-96067000D01*
X229212824Y-96067000D01*
X228959959Y-96067000D01*
X228849951Y-96077504D01*
X228802803Y-96082006D01*
X228600695Y-96141351D01*
X228413460Y-96237877D01*
X228247881Y-96368089D01*
X228247880Y-96368090D01*
X228109933Y-96527289D01*
X228004613Y-96709709D01*
X227935717Y-96908769D01*
X227935716Y-96908774D01*
X227935716Y-96908775D01*
X227905738Y-97117278D01*
X223345000Y-97117278D01*
X223345000Y-97068415D01*
X223329808Y-96914165D01*
X223269766Y-96716233D01*
X223172271Y-96533833D01*
X223172267Y-96533826D01*
X223041055Y-96373944D01*
X222881173Y-96242732D01*
X222881166Y-96242728D01*
X222698763Y-96145232D01*
X222545000Y-96098587D01*
X222545000Y-96953889D01*
X222520543Y-96914390D01*
X222431038Y-96846799D01*
X222323160Y-96816105D01*
X222211479Y-96826454D01*
X222111078Y-96876448D01*
X222045000Y-96948930D01*
X222045000Y-96098587D01*
X221891236Y-96145232D01*
X221708833Y-96242728D01*
X221708826Y-96242732D01*
X221548944Y-96373944D01*
X221417732Y-96533826D01*
X221417728Y-96533833D01*
X221320233Y-96716233D01*
X221260191Y-96914165D01*
X221245000Y-97068415D01*
X221245000Y-97170000D01*
X221995000Y-97170000D01*
X221995000Y-97670000D01*
X221245000Y-97670000D01*
X221245000Y-97771584D01*
X214705000Y-97771584D01*
X214705000Y-97670000D01*
X213955000Y-97670000D01*
X213955000Y-97170000D01*
X214705000Y-97170000D01*
X214705000Y-97068415D01*
X214689808Y-96914165D01*
X214629766Y-96716233D01*
X214532271Y-96533833D01*
X214532267Y-96533826D01*
X214401055Y-96373944D01*
X214241173Y-96242732D01*
X214241166Y-96242728D01*
X214058763Y-96145232D01*
X213905000Y-96098587D01*
X213905000Y-96953889D01*
X213880543Y-96914390D01*
X213791038Y-96846799D01*
X213683160Y-96816105D01*
X213571479Y-96826454D01*
X213471078Y-96876448D01*
X213405000Y-96948930D01*
X213405000Y-96098587D01*
X213251236Y-96145232D01*
X213068833Y-96242728D01*
X213068826Y-96242732D01*
X212908944Y-96373944D01*
X212777732Y-96533826D01*
X212777728Y-96533833D01*
X212680233Y-96716233D01*
X212620191Y-96914165D01*
X212605000Y-97068415D01*
X212605000Y-97170000D01*
X213355000Y-97170000D01*
X213355000Y-97670000D01*
X212605000Y-97670000D01*
X212605000Y-97771584D01*
X201642040Y-97771584D01*
X201608539Y-97744090D01*
X201608532Y-97744086D01*
X201434733Y-97651188D01*
X201434727Y-97651186D01*
X201246132Y-97593976D01*
X201246129Y-97593975D01*
X201050000Y-97574659D01*
X200853870Y-97593975D01*
X200665266Y-97651188D01*
X200491467Y-97744086D01*
X200491460Y-97744090D01*
X200339116Y-97869116D01*
X200214090Y-98021460D01*
X200214086Y-98021467D01*
X200121188Y-98195266D01*
X200063975Y-98383870D01*
X200044659Y-98580000D01*
X200063975Y-98776129D01*
X200063976Y-98776132D01*
X200116092Y-98947936D01*
X200121188Y-98964733D01*
X200214086Y-99138532D01*
X200214090Y-99138539D01*
X200339116Y-99290883D01*
X200491460Y-99415909D01*
X200491467Y-99415913D01*
X200665268Y-99508812D01*
X200665270Y-99508812D01*
X200665273Y-99508814D01*
X200726344Y-99527339D01*
X200784782Y-99565637D01*
X200813238Y-99629449D01*
X200802678Y-99698516D01*
X200756454Y-99750910D01*
X200690348Y-99770000D01*
X200152155Y-99770000D01*
X200092627Y-99776401D01*
X200092620Y-99776403D01*
X199957913Y-99826645D01*
X199957906Y-99826649D01*
X199842812Y-99912809D01*
X199842809Y-99912812D01*
X199756649Y-100027906D01*
X199756645Y-100027913D01*
X199706403Y-100162620D01*
X199706401Y-100162627D01*
X199700000Y-100222155D01*
X199700000Y-100870000D01*
X200604428Y-100870000D01*
X200581318Y-100905960D01*
X200540000Y-101046673D01*
X200540000Y-101193327D01*
X200581318Y-101334040D01*
X200604428Y-101370000D01*
X199700000Y-101370000D01*
X199700000Y-102017844D01*
X184619999Y-102017844D01*
X184620000Y-102017827D01*
X184620000Y-101370000D01*
X183715572Y-101370000D01*
X183738682Y-101334040D01*
X183780000Y-101193327D01*
X183780000Y-101046673D01*
X183738682Y-100905960D01*
X183715572Y-100870000D01*
X184620000Y-100870000D01*
X184620000Y-100222172D01*
X184619999Y-100222155D01*
X184613598Y-100162627D01*
X184613596Y-100162620D01*
X184563354Y-100027913D01*
X184563350Y-100027906D01*
X184477190Y-99912812D01*
X184477187Y-99912809D01*
X184362093Y-99826649D01*
X184362086Y-99826645D01*
X184227379Y-99776403D01*
X184227372Y-99776401D01*
X184167844Y-99770000D01*
X183629652Y-99770000D01*
X183562613Y-99750315D01*
X183516858Y-99697511D01*
X183506914Y-99628353D01*
X183535939Y-99564797D01*
X183593655Y-99527339D01*
X183654727Y-99508814D01*
X183828538Y-99415910D01*
X183980883Y-99290883D01*
X184013667Y-99250936D01*
X188730631Y-99250936D01*
X188761442Y-99452063D01*
X188761445Y-99452075D01*
X188832111Y-99642881D01*
X188832113Y-99642884D01*
X188832114Y-99642887D01*
X188841084Y-99657278D01*
X188939745Y-99815567D01*
X188939747Y-99815569D01*
X188939748Y-99815571D01*
X189079941Y-99963053D01*
X189208344Y-100052424D01*
X189246949Y-100079294D01*
X189246950Y-100079294D01*
X189246951Y-100079295D01*
X189433942Y-100159540D01*
X189633259Y-100200500D01*
X189785743Y-100200500D01*
X189937439Y-100185074D01*
X190131579Y-100124162D01*
X190131580Y-100124161D01*
X190131588Y-100124159D01*
X190309502Y-100025409D01*
X190463895Y-99892866D01*
X190588448Y-99731958D01*
X190678060Y-99549271D01*
X190729063Y-99352285D01*
X190734203Y-99250936D01*
X193580631Y-99250936D01*
X193611442Y-99452063D01*
X193611445Y-99452075D01*
X193682111Y-99642881D01*
X193682113Y-99642884D01*
X193682114Y-99642887D01*
X193691084Y-99657278D01*
X193789745Y-99815567D01*
X193789747Y-99815569D01*
X193789748Y-99815571D01*
X193929941Y-99963053D01*
X194058344Y-100052424D01*
X194096949Y-100079294D01*
X194096950Y-100079294D01*
X194096951Y-100079295D01*
X194283942Y-100159540D01*
X194483259Y-100200500D01*
X194635743Y-100200500D01*
X194787439Y-100185074D01*
X194981579Y-100124162D01*
X194981580Y-100124161D01*
X194981588Y-100124159D01*
X195159502Y-100025409D01*
X195313895Y-99892866D01*
X195438448Y-99731958D01*
X195528060Y-99549271D01*
X195579063Y-99352285D01*
X195589369Y-99149064D01*
X195558556Y-98947929D01*
X195487886Y-98757113D01*
X195380252Y-98584429D01*
X195259172Y-98457054D01*
X195240061Y-98436949D01*
X195240060Y-98436948D01*
X195240059Y-98436947D01*
X195094306Y-98335500D01*
X195073050Y-98320705D01*
X194886056Y-98240459D01*
X194686741Y-98199500D01*
X194534258Y-98199500D01*
X194534257Y-98199500D01*
X194382560Y-98214925D01*
X194188420Y-98275837D01*
X194188405Y-98275844D01*
X194010500Y-98374589D01*
X194010495Y-98374592D01*
X193856106Y-98507132D01*
X193856104Y-98507134D01*
X193731554Y-98668037D01*
X193731553Y-98668040D01*
X193641940Y-98850728D01*
X193590937Y-99047714D01*
X193580631Y-99250936D01*
X190734203Y-99250936D01*
X190739369Y-99149064D01*
X190708556Y-98947929D01*
X190637886Y-98757113D01*
X190530252Y-98584429D01*
X190409172Y-98457054D01*
X190390061Y-98436949D01*
X190390060Y-98436948D01*
X190390059Y-98436947D01*
X190244306Y-98335500D01*
X190223050Y-98320705D01*
X190036056Y-98240459D01*
X189836741Y-98199500D01*
X189684258Y-98199500D01*
X189684257Y-98199500D01*
X189532560Y-98214925D01*
X189338420Y-98275837D01*
X189338405Y-98275844D01*
X189160500Y-98374589D01*
X189160495Y-98374592D01*
X189006106Y-98507132D01*
X189006104Y-98507134D01*
X188881554Y-98668037D01*
X188881553Y-98668040D01*
X188791940Y-98850728D01*
X188740937Y-99047714D01*
X188730631Y-99250936D01*
X184013667Y-99250936D01*
X184105910Y-99138538D01*
X184198814Y-98964727D01*
X184256024Y-98776132D01*
X184275341Y-98580000D01*
X184256024Y-98383868D01*
X184198814Y-98195273D01*
X184198811Y-98195269D01*
X184198811Y-98195266D01*
X184105913Y-98021467D01*
X184105909Y-98021460D01*
X183980883Y-97869116D01*
X183828539Y-97744090D01*
X183828532Y-97744086D01*
X183654733Y-97651188D01*
X183654727Y-97651186D01*
X183466132Y-97593976D01*
X183466129Y-97593975D01*
X183270000Y-97574659D01*
X183073870Y-97593975D01*
X182885266Y-97651188D01*
X182711467Y-97744086D01*
X182711460Y-97744090D01*
X182559116Y-97869116D01*
X182434090Y-98021460D01*
X182434086Y-98021467D01*
X182341188Y-98195266D01*
X182283975Y-98383870D01*
X182264659Y-98580000D01*
X182283975Y-98776129D01*
X182283976Y-98776132D01*
X182336092Y-98947936D01*
X182341188Y-98964733D01*
X182434086Y-99138532D01*
X182434090Y-99138539D01*
X182559116Y-99290883D01*
X182711460Y-99415909D01*
X182711467Y-99415913D01*
X182885268Y-99508812D01*
X182885270Y-99508812D01*
X182885273Y-99508814D01*
X182946344Y-99527339D01*
X183004782Y-99565637D01*
X183033238Y-99629449D01*
X183022678Y-99698516D01*
X182976454Y-99750910D01*
X182910348Y-99770000D01*
X182372155Y-99770000D01*
X182312627Y-99776401D01*
X182312620Y-99776403D01*
X182177913Y-99826645D01*
X182177906Y-99826649D01*
X182062812Y-99912809D01*
X182062809Y-99912812D01*
X181976649Y-100027906D01*
X181976645Y-100027913D01*
X181926403Y-100162620D01*
X181926401Y-100162627D01*
X181920000Y-100222155D01*
X181920000Y-100870000D01*
X182824428Y-100870000D01*
X182801318Y-100905960D01*
X182760000Y-101046673D01*
X182760000Y-101193327D01*
X182801318Y-101334040D01*
X182824428Y-101370000D01*
X181920000Y-101370000D01*
X181920000Y-102017844D01*
X173327396Y-102017844D01*
X173383600Y-101937578D01*
X173483429Y-101723492D01*
X173483432Y-101723486D01*
X173540636Y-101510000D01*
X172643686Y-101510000D01*
X172669493Y-101469844D01*
X172710000Y-101331889D01*
X172710000Y-101188111D01*
X172669493Y-101050156D01*
X172643686Y-101010000D01*
X173540636Y-101010000D01*
X173540635Y-101009999D01*
X173483432Y-100796513D01*
X173483429Y-100796507D01*
X173383600Y-100582422D01*
X173383599Y-100582420D01*
X173248113Y-100388926D01*
X173248108Y-100388920D01*
X173081082Y-100221894D01*
X172887578Y-100086399D01*
X172673492Y-99986570D01*
X172673486Y-99986567D01*
X172459891Y-99929335D01*
X172400231Y-99892970D01*
X172369702Y-99830123D01*
X172377997Y-99760747D01*
X172422482Y-99706870D01*
X172455986Y-99690900D01*
X172594727Y-99648814D01*
X172768538Y-99555910D01*
X172920883Y-99430883D01*
X173045910Y-99278538D01*
X173138814Y-99104727D01*
X173196024Y-98916132D01*
X173215341Y-98720000D01*
X173196024Y-98523868D01*
X173138814Y-98335273D01*
X173138811Y-98335269D01*
X173138811Y-98335266D01*
X173045913Y-98161467D01*
X173045909Y-98161460D01*
X172920883Y-98009116D01*
X172768539Y-97884090D01*
X172768532Y-97884086D01*
X172594733Y-97791188D01*
X172594727Y-97791186D01*
X172406132Y-97733976D01*
X172406129Y-97733975D01*
X172210000Y-97714659D01*
X172013870Y-97733975D01*
X171825266Y-97791188D01*
X171651467Y-97884086D01*
X171651460Y-97884090D01*
X171499116Y-98009116D01*
X171374090Y-98161460D01*
X171374086Y-98161467D01*
X171281188Y-98335266D01*
X171223975Y-98523870D01*
X171204659Y-98720000D01*
X171223975Y-98916129D01*
X171223976Y-98916132D01*
X171263891Y-99047715D01*
X171281188Y-99104733D01*
X171374086Y-99278532D01*
X171374090Y-99278539D01*
X171499116Y-99430883D01*
X171651460Y-99555909D01*
X171651467Y-99555913D01*
X171825266Y-99648811D01*
X171825269Y-99648811D01*
X171825273Y-99648814D01*
X171964011Y-99690900D01*
X172022448Y-99729197D01*
X172050905Y-99793009D01*
X172040344Y-99862076D01*
X171994120Y-99914470D01*
X171960108Y-99929335D01*
X171746513Y-99986567D01*
X171746507Y-99986570D01*
X171532422Y-100086399D01*
X171532420Y-100086400D01*
X171338926Y-100221886D01*
X171338920Y-100221891D01*
X171171891Y-100388920D01*
X171171886Y-100388926D01*
X171036400Y-100582420D01*
X171036399Y-100582422D01*
X170936570Y-100796507D01*
X170936567Y-100796513D01*
X170879364Y-101009999D01*
X170879364Y-101010000D01*
X171776314Y-101010000D01*
X171750507Y-101050156D01*
X171710000Y-101188111D01*
X171710000Y-101331889D01*
X171750507Y-101469844D01*
X171776314Y-101510000D01*
X170879364Y-101510000D01*
X150100500Y-101510000D01*
X150100500Y-97260005D01*
X157480116Y-97260005D01*
X157499617Y-97495347D01*
X157557591Y-97724283D01*
X157652454Y-97940549D01*
X157740749Y-98075695D01*
X158335229Y-97481217D01*
X158349109Y-97523935D01*
X158432368Y-97655131D01*
X158545639Y-97761500D01*
X158681804Y-97836357D01*
X158686093Y-97837458D01*
X158093386Y-98430165D01*
X158093386Y-98430167D01*
X158127919Y-98457045D01*
X158127925Y-98457049D01*
X158335621Y-98569449D01*
X158335629Y-98569452D01*
X158558981Y-98646129D01*
X158791921Y-98685000D01*
X159028079Y-98685000D01*
X159261018Y-98646129D01*
X159484370Y-98569452D01*
X159484388Y-98569445D01*
X159692066Y-98457054D01*
X159692075Y-98457048D01*
X159726612Y-98430166D01*
X159726613Y-98430165D01*
X159130567Y-97834120D01*
X159208633Y-97803212D01*
X159334343Y-97711879D01*
X159433389Y-97592153D01*
X159485328Y-97481776D01*
X160079248Y-98075696D01*
X160167544Y-97940551D01*
X160257745Y-97734914D01*
X160302701Y-97681428D01*
X160369437Y-97660738D01*
X160436765Y-97679413D01*
X160482301Y-97729452D01*
X160531670Y-97828598D01*
X160531675Y-97828606D01*
X160651792Y-97987666D01*
X160748356Y-98075695D01*
X160799090Y-98121945D01*
X160968554Y-98226873D01*
X161154414Y-98298876D01*
X161350340Y-98335500D01*
X161350342Y-98335500D01*
X161549658Y-98335500D01*
X161549660Y-98335500D01*
X161745586Y-98298876D01*
X161931446Y-98226873D01*
X161975135Y-98199822D01*
X162914499Y-98199822D01*
X162923231Y-98243717D01*
X162923234Y-98243724D01*
X162956495Y-98293503D01*
X162956496Y-98293504D01*
X162997205Y-98320705D01*
X163006278Y-98326767D01*
X163006281Y-98326767D01*
X163006282Y-98326768D01*
X163050177Y-98335500D01*
X163050180Y-98335500D01*
X164929822Y-98335500D01*
X164973717Y-98326768D01*
X164973717Y-98326767D01*
X164973722Y-98326767D01*
X165023504Y-98293504D01*
X165056767Y-98243722D01*
X165062495Y-98214926D01*
X165065500Y-98199822D01*
X165065500Y-97044822D01*
X171209499Y-97044822D01*
X171218231Y-97088717D01*
X171218234Y-97088724D01*
X171251495Y-97138503D01*
X171251496Y-97138504D01*
X171301278Y-97171767D01*
X171301281Y-97171767D01*
X171301282Y-97171768D01*
X171345177Y-97180500D01*
X171345180Y-97180500D01*
X173074822Y-97180500D01*
X173118717Y-97171768D01*
X173118717Y-97171767D01*
X173118722Y-97171767D01*
X173168504Y-97138504D01*
X173201767Y-97088722D01*
X173205801Y-97068444D01*
X173210500Y-97044822D01*
X173210500Y-96040000D01*
X182264659Y-96040000D01*
X182283975Y-96236129D01*
X182283976Y-96236132D01*
X182333095Y-96398056D01*
X182341188Y-96424733D01*
X182434086Y-96598532D01*
X182434090Y-96598539D01*
X182559116Y-96750883D01*
X182711460Y-96875909D01*
X182711467Y-96875913D01*
X182885266Y-96968811D01*
X182885269Y-96968811D01*
X182885273Y-96968814D01*
X183073868Y-97026024D01*
X183270000Y-97045341D01*
X183466132Y-97026024D01*
X183654727Y-96968814D01*
X183828538Y-96875910D01*
X183980883Y-96750883D01*
X184105910Y-96598538D01*
X184198814Y-96424727D01*
X184243745Y-96276610D01*
X188284500Y-96276610D01*
X188323679Y-96486198D01*
X188400702Y-96685019D01*
X188512948Y-96866302D01*
X188643719Y-97009750D01*
X188656593Y-97023872D01*
X188826746Y-97152367D01*
X189017606Y-97247403D01*
X189017608Y-97247403D01*
X189017611Y-97247405D01*
X189222690Y-97305756D01*
X189381806Y-97320500D01*
X189381810Y-97320500D01*
X189488190Y-97320500D01*
X189488194Y-97320500D01*
X189647310Y-97305756D01*
X189852389Y-97247405D01*
X189852393Y-97247403D01*
X189852394Y-97247403D01*
X190043253Y-97152367D01*
X190043253Y-97152366D01*
X190043255Y-97152366D01*
X190213407Y-97023872D01*
X190357052Y-96866302D01*
X190469298Y-96685019D01*
X190546321Y-96486198D01*
X190585500Y-96276610D01*
X193734500Y-96276610D01*
X193773679Y-96486198D01*
X193850702Y-96685019D01*
X193962948Y-96866302D01*
X194093719Y-97009750D01*
X194106593Y-97023872D01*
X194276746Y-97152367D01*
X194467606Y-97247403D01*
X194467608Y-97247403D01*
X194467611Y-97247405D01*
X194672690Y-97305756D01*
X194831806Y-97320500D01*
X194831810Y-97320500D01*
X194938190Y-97320500D01*
X194938194Y-97320500D01*
X195097310Y-97305756D01*
X195302389Y-97247405D01*
X195302393Y-97247403D01*
X195302394Y-97247403D01*
X195493253Y-97152367D01*
X195493253Y-97152366D01*
X195493255Y-97152366D01*
X195663407Y-97023872D01*
X195807052Y-96866302D01*
X195919298Y-96685019D01*
X195996321Y-96486198D01*
X196035500Y-96276610D01*
X196035500Y-96063390D01*
X196031128Y-96040000D01*
X200044659Y-96040000D01*
X200063975Y-96236129D01*
X200063976Y-96236132D01*
X200113095Y-96398056D01*
X200121188Y-96424733D01*
X200214086Y-96598532D01*
X200214090Y-96598539D01*
X200339116Y-96750883D01*
X200491460Y-96875909D01*
X200491467Y-96875913D01*
X200665266Y-96968811D01*
X200665269Y-96968811D01*
X200665273Y-96968814D01*
X200853868Y-97026024D01*
X201050000Y-97045341D01*
X201246132Y-97026024D01*
X201434727Y-96968814D01*
X201608538Y-96875910D01*
X201760883Y-96750883D01*
X201885910Y-96598538D01*
X201978814Y-96424727D01*
X202036024Y-96236132D01*
X202055341Y-96040000D01*
X202036024Y-95843868D01*
X201978814Y-95655273D01*
X201978811Y-95655269D01*
X201978811Y-95655266D01*
X201947839Y-95597322D01*
X227909499Y-95597322D01*
X227918231Y-95641217D01*
X227918234Y-95641224D01*
X227951495Y-95691003D01*
X227951496Y-95691004D01*
X228001278Y-95724267D01*
X228001281Y-95724267D01*
X228001282Y-95724268D01*
X228045177Y-95733000D01*
X228045180Y-95733000D01*
X230074822Y-95733000D01*
X230118717Y-95724268D01*
X230118717Y-95724267D01*
X230118722Y-95724267D01*
X230168504Y-95691004D01*
X230201767Y-95641222D01*
X230210500Y-95597320D01*
X230210500Y-93662680D01*
X230210500Y-93662677D01*
X230201768Y-93618782D01*
X230201767Y-93618781D01*
X230201767Y-93618778D01*
X230168504Y-93568996D01*
X230168503Y-93568995D01*
X230118724Y-93535734D01*
X230118717Y-93535731D01*
X230074822Y-93527000D01*
X230074820Y-93527000D01*
X228045180Y-93527000D01*
X228045178Y-93527000D01*
X228001282Y-93535731D01*
X228001275Y-93535734D01*
X227951496Y-93568995D01*
X227951495Y-93568996D01*
X227918234Y-93618775D01*
X227918231Y-93618782D01*
X227909500Y-93662677D01*
X227909500Y-93662680D01*
X227909500Y-95597320D01*
X227909500Y-95597322D01*
X227909499Y-95597322D01*
X201947839Y-95597322D01*
X201885913Y-95481467D01*
X201885909Y-95481460D01*
X201760883Y-95329116D01*
X201608539Y-95204090D01*
X201608532Y-95204086D01*
X201434733Y-95111188D01*
X201434727Y-95111186D01*
X201246132Y-95053976D01*
X201246129Y-95053975D01*
X201050000Y-95034659D01*
X200853870Y-95053975D01*
X200665266Y-95111188D01*
X200491467Y-95204086D01*
X200491460Y-95204090D01*
X200339116Y-95329116D01*
X200214090Y-95481460D01*
X200214086Y-95481467D01*
X200121188Y-95655266D01*
X200063975Y-95843870D01*
X200044659Y-96040000D01*
X196031128Y-96040000D01*
X195996321Y-95853802D01*
X195919298Y-95654981D01*
X195807052Y-95473698D01*
X195663407Y-95316128D01*
X195604013Y-95271275D01*
X195493253Y-95187632D01*
X195302393Y-95092596D01*
X195097310Y-95034244D01*
X194938194Y-95019500D01*
X194831806Y-95019500D01*
X194704513Y-95031295D01*
X194672689Y-95034244D01*
X194467607Y-95092596D01*
X194467605Y-95092596D01*
X194276746Y-95187632D01*
X194106593Y-95316127D01*
X193962947Y-95473699D01*
X193850702Y-95654980D01*
X193850701Y-95654982D01*
X193773680Y-95853799D01*
X193773679Y-95853802D01*
X193734500Y-96063390D01*
X193734500Y-96276610D01*
X190585500Y-96276610D01*
X190585500Y-96063390D01*
X190546321Y-95853802D01*
X190469298Y-95654981D01*
X190357052Y-95473698D01*
X190213407Y-95316128D01*
X190154013Y-95271275D01*
X190043253Y-95187632D01*
X189852393Y-95092596D01*
X189647310Y-95034244D01*
X189488194Y-95019500D01*
X189381806Y-95019500D01*
X189254513Y-95031295D01*
X189222689Y-95034244D01*
X189017607Y-95092596D01*
X189017605Y-95092596D01*
X188826746Y-95187632D01*
X188656593Y-95316127D01*
X188512947Y-95473699D01*
X188400702Y-95654980D01*
X188400701Y-95654982D01*
X188323680Y-95853799D01*
X188323679Y-95853802D01*
X188284500Y-96063390D01*
X188284500Y-96276610D01*
X184243745Y-96276610D01*
X184256024Y-96236132D01*
X184275341Y-96040000D01*
X184256024Y-95843868D01*
X184198814Y-95655273D01*
X184198811Y-95655269D01*
X184198811Y-95655266D01*
X184105913Y-95481467D01*
X184105909Y-95481460D01*
X183980883Y-95329116D01*
X183828539Y-95204090D01*
X183828532Y-95204086D01*
X183654733Y-95111188D01*
X183654727Y-95111186D01*
X183466132Y-95053976D01*
X183466129Y-95053975D01*
X183270000Y-95034659D01*
X183073870Y-95053975D01*
X182885266Y-95111188D01*
X182711467Y-95204086D01*
X182711460Y-95204090D01*
X182559116Y-95329116D01*
X182434090Y-95481460D01*
X182434086Y-95481467D01*
X182341188Y-95655266D01*
X182283975Y-95843870D01*
X182264659Y-96040000D01*
X173210500Y-96040000D01*
X173210500Y-95315177D01*
X173201768Y-95271282D01*
X173201767Y-95271281D01*
X173201767Y-95271278D01*
X173168504Y-95221496D01*
X173142448Y-95204086D01*
X173118724Y-95188234D01*
X173118717Y-95188231D01*
X173074822Y-95179500D01*
X173074820Y-95179500D01*
X171345180Y-95179500D01*
X171345178Y-95179500D01*
X171301282Y-95188231D01*
X171301275Y-95188234D01*
X171251496Y-95221495D01*
X171251495Y-95221496D01*
X171218234Y-95271275D01*
X171218231Y-95271282D01*
X171209500Y-95315177D01*
X171209500Y-95315180D01*
X171209500Y-97044820D01*
X171209500Y-97044822D01*
X171209499Y-97044822D01*
X165065500Y-97044822D01*
X165065500Y-96320177D01*
X165056768Y-96276282D01*
X165056767Y-96276281D01*
X165056767Y-96276278D01*
X165023504Y-96226496D01*
X165023503Y-96226495D01*
X164973724Y-96193234D01*
X164973717Y-96193231D01*
X164929822Y-96184500D01*
X164929820Y-96184500D01*
X163050180Y-96184500D01*
X163050178Y-96184500D01*
X163006282Y-96193231D01*
X163006275Y-96193234D01*
X162956496Y-96226495D01*
X162956495Y-96226496D01*
X162923234Y-96276275D01*
X162923231Y-96276282D01*
X162914500Y-96320177D01*
X162914500Y-96320180D01*
X162914500Y-98199820D01*
X162914500Y-98199822D01*
X162914499Y-98199822D01*
X161975135Y-98199822D01*
X162100910Y-98121945D01*
X162248209Y-97987664D01*
X162368326Y-97828604D01*
X162457171Y-97650180D01*
X162511717Y-97458469D01*
X162530108Y-97260000D01*
X162530107Y-97259994D01*
X162520134Y-97152366D01*
X162511717Y-97061531D01*
X162457171Y-96869820D01*
X162443211Y-96841784D01*
X162368329Y-96691401D01*
X162368324Y-96691393D01*
X162248207Y-96532333D01*
X162100911Y-96398056D01*
X162100910Y-96398055D01*
X162036375Y-96358096D01*
X161931447Y-96293127D01*
X161931445Y-96293126D01*
X161849379Y-96261334D01*
X161745586Y-96221124D01*
X161745582Y-96221123D01*
X161666639Y-96206366D01*
X161549660Y-96184500D01*
X161350340Y-96184500D01*
X161260254Y-96201339D01*
X161154417Y-96221123D01*
X161154415Y-96221123D01*
X161154414Y-96221124D01*
X161115682Y-96236129D01*
X160968554Y-96293126D01*
X160968552Y-96293127D01*
X160799088Y-96398056D01*
X160651792Y-96532333D01*
X160531675Y-96691393D01*
X160531673Y-96691397D01*
X160482301Y-96790548D01*
X160434797Y-96841784D01*
X160367134Y-96859205D01*
X160300794Y-96837279D01*
X160257745Y-96785085D01*
X160167546Y-96579453D01*
X160079248Y-96444302D01*
X159484770Y-97038781D01*
X159470891Y-96996065D01*
X159387632Y-96864869D01*
X159274361Y-96758500D01*
X159138196Y-96683643D01*
X159133905Y-96682541D01*
X159726612Y-96089833D01*
X159726612Y-96089831D01*
X159692080Y-96062954D01*
X159692074Y-96062950D01*
X159484378Y-95950550D01*
X159484370Y-95950547D01*
X159261018Y-95873870D01*
X159028079Y-95835000D01*
X158791921Y-95835000D01*
X158558981Y-95873870D01*
X158335629Y-95950547D01*
X158335621Y-95950550D01*
X158127922Y-96062952D01*
X158093386Y-96089831D01*
X158093385Y-96089833D01*
X158689432Y-96685879D01*
X158611367Y-96716788D01*
X158485657Y-96808121D01*
X158386611Y-96927847D01*
X158334671Y-97038223D01*
X157740749Y-96444302D01*
X157652454Y-96579450D01*
X157557591Y-96795716D01*
X157499617Y-97024652D01*
X157480116Y-97259994D01*
X157480116Y-97260005D01*
X150100500Y-97260005D01*
X150100500Y-93971584D01*
X212605000Y-93971584D01*
X212620191Y-94125834D01*
X212680233Y-94323766D01*
X212777728Y-94506166D01*
X212777732Y-94506173D01*
X212908944Y-94666055D01*
X213068826Y-94797267D01*
X213068833Y-94797271D01*
X213251233Y-94894766D01*
X213405000Y-94941410D01*
X213405000Y-94086110D01*
X213429457Y-94125610D01*
X213518962Y-94193201D01*
X213626840Y-94223895D01*
X213738521Y-94213546D01*
X213838922Y-94163552D01*
X213905000Y-94091069D01*
X213905000Y-94941410D01*
X214058766Y-94894766D01*
X214241166Y-94797271D01*
X214241173Y-94797267D01*
X214401055Y-94666055D01*
X214532267Y-94506173D01*
X214532271Y-94506166D01*
X214629766Y-94323766D01*
X214689808Y-94125834D01*
X214705000Y-93971584D01*
X221245000Y-93971584D01*
X221260191Y-94125834D01*
X221320233Y-94323766D01*
X221417728Y-94506166D01*
X221417732Y-94506173D01*
X221548944Y-94666055D01*
X221708826Y-94797267D01*
X221708833Y-94797271D01*
X221891233Y-94894766D01*
X222045000Y-94941410D01*
X222045000Y-94086110D01*
X222069457Y-94125610D01*
X222158962Y-94193201D01*
X222266840Y-94223895D01*
X222378521Y-94213546D01*
X222478922Y-94163552D01*
X222545000Y-94091069D01*
X222545000Y-94941410D01*
X222698766Y-94894766D01*
X222881166Y-94797271D01*
X222881173Y-94797267D01*
X223041055Y-94666055D01*
X223172267Y-94506173D01*
X223172271Y-94506166D01*
X223269766Y-94323766D01*
X223329808Y-94125834D01*
X223345000Y-93971584D01*
X223345000Y-93870000D01*
X222595000Y-93870000D01*
X222595000Y-93370000D01*
X223345000Y-93370000D01*
X223345000Y-93268415D01*
X223329808Y-93114165D01*
X223269766Y-92916233D01*
X223172271Y-92733833D01*
X223172267Y-92733826D01*
X223041055Y-92573944D01*
X222881173Y-92442732D01*
X222881166Y-92442728D01*
X222698763Y-92345232D01*
X222545000Y-92298587D01*
X222545000Y-93153889D01*
X222520543Y-93114390D01*
X222431038Y-93046799D01*
X222323160Y-93016105D01*
X222211479Y-93026454D01*
X222111078Y-93076448D01*
X222045000Y-93148930D01*
X222045000Y-92298587D01*
X221891236Y-92345232D01*
X221708833Y-92442728D01*
X221708826Y-92442732D01*
X221548944Y-92573944D01*
X221417732Y-92733826D01*
X221417728Y-92733833D01*
X221320233Y-92916233D01*
X221260191Y-93114165D01*
X221245000Y-93268415D01*
X221245000Y-93370000D01*
X221995000Y-93370000D01*
X221995000Y-93870000D01*
X221245000Y-93870000D01*
X221245000Y-93971584D01*
X214705000Y-93971584D01*
X214705000Y-93870000D01*
X213955000Y-93870000D01*
X213955000Y-93370000D01*
X214705000Y-93370000D01*
X214705000Y-93268415D01*
X214689808Y-93114165D01*
X214629766Y-92916233D01*
X214532271Y-92733833D01*
X214532267Y-92733826D01*
X214401055Y-92573944D01*
X214241173Y-92442732D01*
X214241166Y-92442728D01*
X214058763Y-92345232D01*
X213905000Y-92298587D01*
X213905000Y-93153889D01*
X213880543Y-93114390D01*
X213791038Y-93046799D01*
X213683160Y-93016105D01*
X213571479Y-93026454D01*
X213471078Y-93076448D01*
X213405000Y-93148930D01*
X213405000Y-92298587D01*
X213251236Y-92345232D01*
X213068833Y-92442728D01*
X213068826Y-92442732D01*
X212908944Y-92573944D01*
X212777732Y-92733826D01*
X212777728Y-92733833D01*
X212680233Y-92916233D01*
X212620191Y-93114165D01*
X212605000Y-93268415D01*
X212605000Y-93370000D01*
X213355000Y-93370000D01*
X213355000Y-93870000D01*
X212605000Y-93870000D01*
X212605000Y-93971584D01*
X150100500Y-93971584D01*
X150100500Y-91024500D01*
X150120185Y-90957461D01*
X150172989Y-90911706D01*
X150224500Y-90900500D01*
X245875500Y-90900500D01*
X245942539Y-90920185D01*
G37*
%TD.AperFunction*%
%TD*%
M02*
