%TF.GenerationSoftware,KiCad,Pcbnew,7.0.9*%
%TF.CreationDate,2024-02-04T13:54:49+01:00*%
%TF.ProjectId,BPN,42504e2e-6b69-4636-9164-5f7063625858,29.01.2024*%
%TF.SameCoordinates,Original*%
%TF.FileFunction,Copper,L1,Top*%
%TF.FilePolarity,Positive*%
%FSLAX46Y46*%
G04 Gerber Fmt 4.6, Leading zero omitted, Abs format (unit mm)*
G04 Created by KiCad (PCBNEW 7.0.9) date 2024-02-04 13:54:49*
%MOMM*%
%LPD*%
G01*
G04 APERTURE LIST*
G04 Aperture macros list*
%AMRoundRect*
0 Rectangle with rounded corners*
0 $1 Rounding radius*
0 $2 $3 $4 $5 $6 $7 $8 $9 X,Y pos of 4 corners*
0 Add a 4 corners polygon primitive as box body*
4,1,4,$2,$3,$4,$5,$6,$7,$8,$9,$2,$3,0*
0 Add four circle primitives for the rounded corners*
1,1,$1+$1,$2,$3*
1,1,$1+$1,$4,$5*
1,1,$1+$1,$6,$7*
1,1,$1+$1,$8,$9*
0 Add four rect primitives between the rounded corners*
20,1,$1+$1,$2,$3,$4,$5,0*
20,1,$1+$1,$4,$5,$6,$7,0*
20,1,$1+$1,$6,$7,$8,$9,0*
20,1,$1+$1,$8,$9,$2,$3,0*%
G04 Aperture macros list end*
%TA.AperFunction,SMDPad,CuDef*%
%ADD10RoundRect,0.237500X0.237500X-0.250000X0.237500X0.250000X-0.237500X0.250000X-0.237500X-0.250000X0*%
%TD*%
%TA.AperFunction,SMDPad,CuDef*%
%ADD11RoundRect,0.250000X-0.475000X0.337500X-0.475000X-0.337500X0.475000X-0.337500X0.475000X0.337500X0*%
%TD*%
%TA.AperFunction,ComponentPad*%
%ADD12R,1.600000X1.600000*%
%TD*%
%TA.AperFunction,ComponentPad*%
%ADD13O,1.600000X1.600000*%
%TD*%
%TA.AperFunction,SMDPad,CuDef*%
%ADD14RoundRect,0.250000X0.337500X0.475000X-0.337500X0.475000X-0.337500X-0.475000X0.337500X-0.475000X0*%
%TD*%
%TA.AperFunction,SMDPad,CuDef*%
%ADD15RoundRect,0.237500X0.250000X0.237500X-0.250000X0.237500X-0.250000X-0.237500X0.250000X-0.237500X0*%
%TD*%
%TA.AperFunction,ComponentPad*%
%ADD16R,2.200000X2.200000*%
%TD*%
%TA.AperFunction,ComponentPad*%
%ADD17O,2.200000X2.200000*%
%TD*%
%TA.AperFunction,ComponentPad*%
%ADD18R,2.000000X1.905000*%
%TD*%
%TA.AperFunction,ComponentPad*%
%ADD19O,2.000000X1.905000*%
%TD*%
%TA.AperFunction,ComponentPad*%
%ADD20R,1.300000X1.300000*%
%TD*%
%TA.AperFunction,ComponentPad*%
%ADD21C,1.300000*%
%TD*%
%TA.AperFunction,SMDPad,CuDef*%
%ADD22RoundRect,0.237500X-0.250000X-0.237500X0.250000X-0.237500X0.250000X0.237500X-0.250000X0.237500X0*%
%TD*%
%TA.AperFunction,SMDPad,CuDef*%
%ADD23RoundRect,0.250000X-0.337500X-0.475000X0.337500X-0.475000X0.337500X0.475000X-0.337500X0.475000X0*%
%TD*%
%TA.AperFunction,SMDPad,CuDef*%
%ADD24RoundRect,0.237500X-0.237500X0.250000X-0.237500X-0.250000X0.237500X-0.250000X0.237500X0.250000X0*%
%TD*%
%TA.AperFunction,ComponentPad*%
%ADD25R,1.800000X1.800000*%
%TD*%
%TA.AperFunction,ComponentPad*%
%ADD26C,1.800000*%
%TD*%
%TA.AperFunction,ComponentPad*%
%ADD27R,1.700000X1.700000*%
%TD*%
%TA.AperFunction,ComponentPad*%
%ADD28O,1.700000X1.700000*%
%TD*%
%TA.AperFunction,SMDPad,CuDef*%
%ADD29RoundRect,0.175000X0.175000X0.425000X-0.175000X0.425000X-0.175000X-0.425000X0.175000X-0.425000X0*%
%TD*%
%TA.AperFunction,SMDPad,CuDef*%
%ADD30RoundRect,0.190000X-0.190000X-0.410000X0.190000X-0.410000X0.190000X0.410000X-0.190000X0.410000X0*%
%TD*%
%TA.AperFunction,SMDPad,CuDef*%
%ADD31RoundRect,0.200000X-0.200000X-0.400000X0.200000X-0.400000X0.200000X0.400000X-0.200000X0.400000X0*%
%TD*%
%TA.AperFunction,SMDPad,CuDef*%
%ADD32RoundRect,0.175000X-0.175000X-0.425000X0.175000X-0.425000X0.175000X0.425000X-0.175000X0.425000X0*%
%TD*%
%TA.AperFunction,SMDPad,CuDef*%
%ADD33RoundRect,0.190000X0.190000X0.410000X-0.190000X0.410000X-0.190000X-0.410000X0.190000X-0.410000X0*%
%TD*%
%TA.AperFunction,SMDPad,CuDef*%
%ADD34RoundRect,0.200000X0.200000X0.400000X-0.200000X0.400000X-0.200000X-0.400000X0.200000X-0.400000X0*%
%TD*%
%TA.AperFunction,ComponentPad*%
%ADD35O,1.100000X1.700000*%
%TD*%
%TA.AperFunction,SMDPad,CuDef*%
%ADD36RoundRect,0.250000X0.475000X-0.337500X0.475000X0.337500X-0.475000X0.337500X-0.475000X-0.337500X0*%
%TD*%
%TA.AperFunction,ComponentPad*%
%ADD37C,1.500000*%
%TD*%
%TA.AperFunction,ComponentPad*%
%ADD38R,1.850000X1.850000*%
%TD*%
%TA.AperFunction,ComponentPad*%
%ADD39C,1.850000*%
%TD*%
%TA.AperFunction,SMDPad,CuDef*%
%ADD40R,3.500000X1.700000*%
%TD*%
%TA.AperFunction,SMDPad,CuDef*%
%ADD41R,1.700000X3.500000*%
%TD*%
%TA.AperFunction,ViaPad*%
%ADD42C,0.700000*%
%TD*%
%TA.AperFunction,Conductor*%
%ADD43C,0.500000*%
%TD*%
%TA.AperFunction,Conductor*%
%ADD44C,1.000000*%
%TD*%
%TA.AperFunction,Conductor*%
%ADD45C,0.250000*%
%TD*%
G04 APERTURE END LIST*
D10*
%TO.P,R8,1*%
%TO.N,/Valve*%
X160385000Y-69287500D03*
%TO.P,R8,2*%
%TO.N,Net-(C3-Pad1)*%
X160385000Y-67462500D03*
%TD*%
D11*
%TO.P,C3,1*%
%TO.N,Net-(C3-Pad1)*%
X152335000Y-63937500D03*
%TO.P,C3,2*%
%TO.N,Net-(C3-Pad2)*%
X152335000Y-66012500D03*
%TD*%
D12*
%TO.P,U3,1*%
%TO.N,Net-(Q1-B)*%
X149535000Y-70875000D03*
D13*
%TO.P,U3,2,-*%
%TO.N,Net-(U3A--)*%
X149535000Y-68335000D03*
%TO.P,U3,3,+*%
%TO.N,Net-(U3A-+)*%
X149535000Y-65795000D03*
%TO.P,U3,4,V-*%
%TO.N,GND*%
X149535000Y-63255000D03*
%TO.P,U3,5*%
%TO.N,N/C*%
X141915000Y-63255000D03*
%TO.P,U3,6*%
X141915000Y-65795000D03*
%TO.P,U3,7*%
X141915000Y-68335000D03*
%TO.P,U3,8,V+*%
%TO.N,+5V*%
X141915000Y-70875000D03*
%TD*%
D14*
%TO.P,C1,1*%
%TO.N,+5V*%
X160772500Y-62925000D03*
%TO.P,C1,2*%
%TO.N,GND*%
X158697500Y-62925000D03*
%TD*%
D15*
%TO.P,R10,1*%
%TO.N,Net-(C3-Pad1)*%
X157535000Y-66625000D03*
%TO.P,R10,2*%
%TO.N,Net-(U3A-+)*%
X155710000Y-66625000D03*
%TD*%
D16*
%TO.P,D3,1,K*%
%TO.N,+3.3V*%
X153600000Y-86412183D03*
D17*
%TO.P,D3,2,A*%
%TO.N,Net-(D3-A)*%
X153600000Y-82602183D03*
%TD*%
D18*
%TO.P,U1,1,ADJ*%
%TO.N,Net-(U1-ADJ)*%
X156785000Y-50526409D03*
D19*
%TO.P,U1,2,VO*%
%TO.N,+3.3V*%
X156785000Y-53066409D03*
%TO.P,U1,3,VI*%
%TO.N,+5V*%
X156785000Y-55606409D03*
%TD*%
D15*
%TO.P,R1,1*%
%TO.N,Net-(J1-CC2)*%
X144207500Y-55736409D03*
%TO.P,R1,2*%
%TO.N,GND*%
X142382500Y-55736409D03*
%TD*%
D20*
%TO.P,Q1,1,E*%
%TO.N,Net-(Q1-E)*%
X162785000Y-68300000D03*
D21*
%TO.P,Q1,2,B*%
%TO.N,Net-(Q1-B)*%
X164055000Y-67030000D03*
%TO.P,Q1,3,C*%
%TO.N,Net-(D3-A)*%
X165325000Y-68300000D03*
%TD*%
D10*
%TO.P,R7,1*%
%TO.N,+3.3V*%
X151385000Y-91987500D03*
%TO.P,R7,2*%
%TO.N,/SCL1*%
X151385000Y-90162500D03*
%TD*%
D22*
%TO.P,R4,1*%
%TO.N,Net-(U1-ADJ)*%
X161035000Y-50056409D03*
%TO.P,R4,2*%
%TO.N,GND*%
X162860000Y-50056409D03*
%TD*%
%TO.P,R2,1*%
%TO.N,Net-(J1-CC1)*%
X145822500Y-55736409D03*
%TO.P,R2,2*%
%TO.N,GND*%
X147647500Y-55736409D03*
%TD*%
D23*
%TO.P,C2,1*%
%TO.N,+3.3V*%
X161147500Y-56156409D03*
%TO.P,C2,2*%
%TO.N,GND*%
X163222500Y-56156409D03*
%TD*%
D24*
%TO.P,R14,1*%
%TO.N,+3.3V*%
X165550000Y-95375000D03*
%TO.P,R14,2*%
%TO.N,/SCL0*%
X165550000Y-97200000D03*
%TD*%
D25*
%TO.P,D1,1,K*%
%TO.N,Net-(D1-K)*%
X150510000Y-58225000D03*
D26*
%TO.P,D1,2,A*%
%TO.N,+5V*%
X153050000Y-58225000D03*
%TD*%
D15*
%TO.P,R12,1*%
%TO.N,GND*%
X160497500Y-72925000D03*
%TO.P,R12,2*%
%TO.N,Net-(Q1-E)*%
X158672500Y-72925000D03*
%TD*%
D27*
%TO.P,J3,1,Pin_1*%
%TO.N,+3.3V*%
X161745000Y-90975000D03*
D28*
%TO.P,J3,2,Pin_2*%
%TO.N,Net-(D4-A)*%
X164285000Y-90975000D03*
%TD*%
D22*
%TO.P,R13,1*%
%TO.N,Net-(Q2-G)*%
X163285000Y-76725000D03*
%TO.P,R13,2*%
%TO.N,/Pump*%
X165110000Y-76725000D03*
%TD*%
D14*
%TO.P,C6,1*%
%TO.N,Net-(D3-A)*%
X164272500Y-72675000D03*
%TO.P,C6,2*%
%TO.N,Net-(Q1-E)*%
X162197500Y-72675000D03*
%TD*%
D22*
%TO.P,R3,1*%
%TO.N,GND*%
X145872500Y-59075000D03*
%TO.P,R3,2*%
%TO.N,Net-(D1-K)*%
X147697500Y-59075000D03*
%TD*%
D29*
%TO.P,J1,A5,CC1*%
%TO.N,Net-(J1-CC1)*%
X147515000Y-52560000D03*
D30*
%TO.P,J1,A9,VBUS*%
%TO.N,+5V*%
X145495000Y-52560000D03*
D31*
%TO.P,J1,A12,GND*%
%TO.N,GND*%
X144265000Y-52560000D03*
D32*
%TO.P,J1,B5,CC2*%
%TO.N,Net-(J1-CC2)*%
X146515000Y-52560000D03*
D33*
%TO.P,J1,B9,VBUS*%
%TO.N,+5V*%
X148535000Y-52560000D03*
D34*
%TO.P,J1,B12,GND*%
%TO.N,GND*%
X149765000Y-52560000D03*
D35*
%TO.P,J1,S1,SHIELD*%
X151335000Y-52480000D03*
X151335000Y-48680000D03*
X142695000Y-52480000D03*
X142695000Y-48680000D03*
%TD*%
D36*
%TO.P,C5,1*%
%TO.N,Net-(Q1-B)*%
X152485000Y-70562500D03*
%TO.P,C5,2*%
%TO.N,Net-(U3A--)*%
X152485000Y-68487500D03*
%TD*%
D27*
%TO.P,J4,1,Pin_1*%
%TO.N,+3.3V*%
X156560000Y-94750000D03*
D28*
%TO.P,J4,2,Pin_2*%
%TO.N,/SDA0*%
X154020000Y-94750000D03*
%TO.P,J4,3,Pin_3*%
%TO.N,/SCL0*%
X151480000Y-94750000D03*
%TO.P,J4,4,Pin_4*%
%TO.N,unconnected-(J4-Pin_4-Pad4)*%
X148940000Y-94750000D03*
%TO.P,J4,5,Pin_5*%
%TO.N,unconnected-(J4-Pin_5-Pad5)*%
X146400000Y-94750000D03*
%TO.P,J4,6,Pin_6*%
%TO.N,GND*%
X143860000Y-94750000D03*
%TD*%
D22*
%TO.P,R9,1*%
%TO.N,Net-(C3-Pad2)*%
X155710000Y-64925000D03*
%TO.P,R9,2*%
%TO.N,Net-(C3-Pad1)*%
X157535000Y-64925000D03*
%TD*%
D37*
%TO.P,U4,1,GND*%
%TO.N,GND*%
X142435000Y-88225000D03*
%TO.P,U4,2,VCC*%
%TO.N,+3.3V*%
X144975000Y-88225000D03*
%TO.P,U4,3,SDA*%
%TO.N,/SDA1*%
X147515000Y-88225000D03*
%TO.P,U4,4,SCL*%
%TO.N,/SCL1*%
X150055000Y-88225000D03*
%TO.P,U4,5,NC*%
%TO.N,unconnected-(U4-NC-Pad5)*%
X150055000Y-74825000D03*
%TO.P,U4,6,NC*%
%TO.N,unconnected-(U4-NC-Pad6)*%
X147515000Y-74825000D03*
%TO.P,U4,7,NC*%
%TO.N,unconnected-(U4-NC-Pad7)*%
X144975000Y-74825000D03*
%TO.P,U4,8,NC*%
%TO.N,unconnected-(U4-NC-Pad8)*%
X142435000Y-74825000D03*
%TD*%
D38*
%TO.P,Q2,1,G*%
%TO.N,Net-(Q2-G)*%
X162045000Y-80735000D03*
D39*
%TO.P,Q2,2,D*%
%TO.N,Net-(D4-A)*%
X162045000Y-83275000D03*
%TO.P,Q2,3,S*%
%TO.N,GND*%
X162045000Y-85815000D03*
%TD*%
D10*
%TO.P,R6,1*%
%TO.N,+3.3V*%
X147535000Y-91887500D03*
%TO.P,R6,2*%
%TO.N,/SDA1*%
X147535000Y-90062500D03*
%TD*%
D22*
%TO.P,R5,1*%
%TO.N,+3.3V*%
X161072500Y-52956409D03*
%TO.P,R5,2*%
%TO.N,Net-(U1-ADJ)*%
X162897500Y-52956409D03*
%TD*%
D28*
%TO.P,U2,1,GPIO0*%
%TO.N,unconnected-(U2-GPIO0-Pad1)*%
X172235000Y-48215000D03*
D40*
X171335000Y-48215000D03*
D28*
%TO.P,U2,2,GPIO1*%
%TO.N,unconnected-(U2-GPIO1-Pad2)*%
X172235000Y-50755000D03*
D40*
X171335000Y-50755000D03*
D27*
%TO.P,U2,3,GND*%
%TO.N,GND*%
X172235000Y-53295000D03*
D40*
X171335000Y-53295000D03*
D28*
%TO.P,U2,4,GPIO2*%
%TO.N,unconnected-(U2-GPIO2-Pad4)*%
X172235000Y-55835000D03*
D40*
X171335000Y-55835000D03*
D28*
%TO.P,U2,5,GPIO3*%
%TO.N,unconnected-(U2-GPIO3-Pad5)*%
X172235000Y-58375000D03*
D40*
X171335000Y-58375000D03*
D28*
%TO.P,U2,6,GPIO4*%
%TO.N,unconnected-(U2-GPIO4-Pad6)*%
X172235000Y-60915000D03*
D40*
X171335000Y-60915000D03*
D28*
%TO.P,U2,7,GPIO5*%
%TO.N,unconnected-(U2-GPIO5-Pad7)*%
X172235000Y-63455000D03*
D40*
X171335000Y-63455000D03*
D27*
%TO.P,U2,8,GND*%
%TO.N,GND*%
X172235000Y-65995000D03*
D40*
X171335000Y-65995000D03*
D28*
%TO.P,U2,9,GPIO6*%
%TO.N,/SDA1*%
X172235000Y-68535000D03*
D40*
X171335000Y-68535000D03*
D28*
%TO.P,U2,10,GPIO7*%
%TO.N,/SCL1*%
X172235000Y-71075000D03*
D40*
X171335000Y-71075000D03*
D28*
%TO.P,U2,11,GPIO8*%
%TO.N,/SDA0*%
X172235000Y-73615000D03*
D40*
X171335000Y-73615000D03*
D28*
%TO.P,U2,12,GPIO9*%
%TO.N,/SCL0*%
X172235000Y-76155000D03*
D40*
X171335000Y-76155000D03*
D27*
%TO.P,U2,13,GND*%
%TO.N,GND*%
X172235000Y-78695000D03*
D40*
X171335000Y-78695000D03*
D28*
%TO.P,U2,14,GPIO10*%
%TO.N,/Pump*%
X172235000Y-81235000D03*
D40*
X171335000Y-81235000D03*
D28*
%TO.P,U2,15,GPIO11*%
%TO.N,/Valve*%
X172235000Y-83775000D03*
D40*
X171335000Y-83775000D03*
D28*
%TO.P,U2,16,GPIO12*%
%TO.N,unconnected-(U2-GPIO12-Pad16)*%
X172235000Y-86315000D03*
D40*
X171335000Y-86315000D03*
D28*
%TO.P,U2,17,GPIO13*%
%TO.N,unconnected-(U2-GPIO13-Pad17)*%
X172235000Y-88855000D03*
D40*
X171335000Y-88855000D03*
D27*
%TO.P,U2,18,GND*%
%TO.N,GND*%
X172235000Y-91395000D03*
D40*
X171335000Y-91395000D03*
D28*
%TO.P,U2,19,GPIO14*%
%TO.N,unconnected-(U2-GPIO14-Pad19)*%
X172235000Y-93935000D03*
D40*
X171335000Y-93935000D03*
D28*
%TO.P,U2,20,GPIO15*%
%TO.N,unconnected-(U2-GPIO15-Pad20)*%
X172235000Y-96475000D03*
D40*
X171335000Y-96475000D03*
D28*
%TO.P,U2,21,GPIO16*%
%TO.N,unconnected-(U2-GPIO16-Pad21)*%
X190015000Y-96475000D03*
D40*
X190915000Y-96475000D03*
D28*
%TO.P,U2,22,GPIO17*%
%TO.N,unconnected-(U2-GPIO17-Pad22)*%
X190015000Y-93935000D03*
D40*
X190915000Y-93935000D03*
D27*
%TO.P,U2,23,GND*%
%TO.N,GND*%
X190015000Y-91395000D03*
D40*
X190915000Y-91395000D03*
D28*
%TO.P,U2,24,GPIO18*%
%TO.N,unconnected-(U2-GPIO18-Pad24)*%
X190015000Y-88855000D03*
D40*
X190915000Y-88855000D03*
D28*
%TO.P,U2,25,GPIO19*%
%TO.N,unconnected-(U2-GPIO19-Pad25)*%
X190015000Y-86315000D03*
D40*
X190915000Y-86315000D03*
D28*
%TO.P,U2,26,GPIO20*%
%TO.N,unconnected-(U2-GPIO20-Pad26)*%
X190015000Y-83775000D03*
D40*
X190915000Y-83775000D03*
D28*
%TO.P,U2,27,GPIO21*%
%TO.N,unconnected-(U2-GPIO21-Pad27)*%
X190015000Y-81235000D03*
D40*
X190915000Y-81235000D03*
D27*
%TO.P,U2,28,GND*%
%TO.N,GND*%
X190015000Y-78695000D03*
D40*
X190915000Y-78695000D03*
D28*
%TO.P,U2,29,GPIO22*%
%TO.N,unconnected-(U2-GPIO22-Pad29)*%
X190015000Y-76155000D03*
D40*
X190915000Y-76155000D03*
D28*
%TO.P,U2,30,RUN*%
%TO.N,unconnected-(U2-RUN-Pad30)*%
X190015000Y-73615000D03*
D40*
X190915000Y-73615000D03*
D28*
%TO.P,U2,31,GPIO26_ADC0*%
%TO.N,unconnected-(U2-GPIO26_ADC0-Pad31)*%
X190015000Y-71075000D03*
D40*
X190915000Y-71075000D03*
D28*
%TO.P,U2,32,GPIO27_ADC1*%
%TO.N,unconnected-(U2-GPIO27_ADC1-Pad32)*%
X190015000Y-68535000D03*
D40*
X190915000Y-68535000D03*
D27*
%TO.P,U2,33,AGND*%
%TO.N,unconnected-(U2-AGND-Pad33)*%
X190015000Y-65995000D03*
D40*
X190915000Y-65995000D03*
D28*
%TO.P,U2,34,GPIO28_ADC2*%
%TO.N,unconnected-(U2-GPIO28_ADC2-Pad34)*%
X190015000Y-63455000D03*
D40*
X190915000Y-63455000D03*
D28*
%TO.P,U2,35,ADC_VREF*%
%TO.N,unconnected-(U2-ADC_VREF-Pad35)*%
X190015000Y-60915000D03*
D40*
X190915000Y-60915000D03*
D28*
%TO.P,U2,36,3V3*%
%TO.N,unconnected-(U2-3V3-Pad36)*%
X190015000Y-58375000D03*
D40*
X190915000Y-58375000D03*
D28*
%TO.P,U2,37,3V3_EN*%
%TO.N,unconnected-(U2-3V3_EN-Pad37)*%
X190015000Y-55835000D03*
D40*
X190915000Y-55835000D03*
D27*
%TO.P,U2,38,GND*%
%TO.N,GND*%
X190015000Y-53295000D03*
D40*
X190915000Y-53295000D03*
D28*
%TO.P,U2,39,VSYS*%
%TO.N,unconnected-(U2-VSYS-Pad39)*%
X190015000Y-50755000D03*
D40*
X190915000Y-50755000D03*
D28*
%TO.P,U2,40,VBUS*%
%TO.N,unconnected-(U2-VBUS-Pad40)*%
X190015000Y-48215000D03*
D40*
X190915000Y-48215000D03*
D28*
%TO.P,U2,41,SWCLK*%
%TO.N,unconnected-(U2-SWCLK-Pad41)*%
X178585000Y-96245000D03*
D41*
X178585000Y-97145000D03*
D27*
%TO.P,U2,42,GND*%
%TO.N,GND*%
X181125000Y-96245000D03*
D41*
X181125000Y-97145000D03*
D28*
%TO.P,U2,43,SWDIO*%
%TO.N,unconnected-(U2-SWDIO-Pad43)*%
X183665000Y-96245000D03*
D41*
X183665000Y-97145000D03*
%TD*%
D22*
%TO.P,R11,1*%
%TO.N,Net-(U3A--)*%
X155260000Y-72925000D03*
%TO.P,R11,2*%
%TO.N,Net-(Q1-E)*%
X157085000Y-72925000D03*
%TD*%
D24*
%TO.P,R15,1*%
%TO.N,+3.3V*%
X161200000Y-95387500D03*
%TO.P,R15,2*%
%TO.N,/SDA0*%
X161200000Y-97212500D03*
%TD*%
D16*
%TO.P,D2,1,K*%
%TO.N,+5V*%
X162162818Y-59800000D03*
D17*
%TO.P,D2,2,A*%
%TO.N,+3.3V*%
X165972818Y-59800000D03*
%TD*%
D27*
%TO.P,J2,1,Pin_1*%
%TO.N,+3.3V*%
X153595000Y-79275000D03*
D28*
%TO.P,J2,2,Pin_2*%
%TO.N,Net-(D3-A)*%
X156135000Y-79275000D03*
%TD*%
D23*
%TO.P,C4,1*%
%TO.N,Net-(U3A-+)*%
X155747500Y-69775000D03*
%TO.P,C4,2*%
%TO.N,Net-(C3-Pad2)*%
X157822500Y-69775000D03*
%TD*%
D16*
%TO.P,D4,1,K*%
%TO.N,+3.3V*%
X157850000Y-86437183D03*
D17*
%TO.P,D4,2,A*%
%TO.N,Net-(D4-A)*%
X157850000Y-82627183D03*
%TD*%
D42*
%TO.N,Net-(Q1-B)*%
X154185000Y-69825000D03*
%TO.N,/SDA0*%
X162450000Y-96137000D03*
%TO.N,/SCL1*%
X149985000Y-84025000D03*
%TO.N,/Valve*%
X174350000Y-70600000D03*
%TO.N,/SDA1*%
X147835000Y-84075000D03*
%TO.N,/SCL0*%
X166400000Y-83100000D03*
%TO.N,Net-(Q1-E)*%
X162235000Y-70875000D03*
%TO.N,Net-(D3-A)*%
X165635000Y-71925000D03*
%TO.N,+3.3V*%
X145435000Y-84025000D03*
%TD*%
D43*
%TO.N,/SDA0*%
X162450000Y-96137000D02*
X161374500Y-97212500D01*
X161374500Y-97212500D02*
X161200000Y-97212500D01*
%TO.N,Net-(U1-ADJ)*%
X160565000Y-50526409D02*
X161035000Y-50056409D01*
X161035000Y-50056409D02*
X161035000Y-51093909D01*
X161035000Y-51093909D02*
X162897500Y-52956409D01*
X156785000Y-50526409D02*
X160565000Y-50526409D01*
D44*
%TO.N,+5V*%
X148535000Y-54136409D02*
X148535000Y-52130000D01*
X162162818Y-59427844D02*
X162162818Y-59800000D01*
X152720000Y-60200000D02*
X150539390Y-60200000D01*
X153050000Y-57340000D02*
X153050000Y-58225000D01*
X162162818Y-59800000D02*
X162162818Y-61534682D01*
X156785000Y-55606409D02*
X157969227Y-55606409D01*
X148535000Y-52130000D02*
X148535000Y-52560000D01*
X153050000Y-58225000D02*
X154166409Y-58225000D01*
X143365000Y-69425000D02*
X141915000Y-70875000D01*
X160772500Y-62907780D02*
X160772500Y-62925000D01*
X157969227Y-55606409D02*
X162162818Y-59800000D01*
X145495000Y-52560000D02*
X145495000Y-51808424D01*
X151073591Y-56675000D02*
X152385000Y-56675000D01*
X154166409Y-58225000D02*
X156785000Y-55606409D01*
X143365000Y-67374390D02*
X143365000Y-69425000D01*
X148535000Y-54136409D02*
X151073591Y-56675000D01*
X145993424Y-51310000D02*
X148036576Y-51310000D01*
X148036576Y-51310000D02*
X148535000Y-51808424D01*
X162162818Y-61534682D02*
X160772500Y-62925000D01*
X145495000Y-51808424D02*
X145993424Y-51310000D01*
X150539390Y-60200000D02*
X143365000Y-67374390D01*
X148535000Y-51808424D02*
X148535000Y-52130000D01*
X153050000Y-58225000D02*
X153050000Y-59870000D01*
X152385000Y-56675000D02*
X153050000Y-57340000D01*
X153050000Y-59870000D02*
X152720000Y-60200000D01*
D43*
%TO.N,GND*%
X146772500Y-56611409D02*
X143257500Y-56611409D01*
X149865000Y-62925000D02*
X158697500Y-62925000D01*
X148775000Y-73575000D02*
X147600000Y-72400000D01*
X147600000Y-72400000D02*
X147600000Y-65190000D01*
X160497500Y-72925000D02*
X159622500Y-73800000D01*
X152275000Y-73800000D02*
X152050000Y-73575000D01*
X152050000Y-73575000D02*
X148775000Y-73575000D01*
X147647500Y-55736409D02*
X146772500Y-56611409D01*
X149535000Y-63255000D02*
X149865000Y-62925000D01*
X143257500Y-56611409D02*
X142382500Y-55736409D01*
X147600000Y-65190000D02*
X149535000Y-63255000D01*
X159622500Y-73800000D02*
X152275000Y-73800000D01*
%TO.N,Net-(Q1-B)*%
X149535000Y-70875000D02*
X152172500Y-70875000D01*
X152485000Y-70562500D02*
X153447500Y-70562500D01*
X152172500Y-70875000D02*
X152485000Y-70562500D01*
X153447500Y-70562500D02*
X154185000Y-69825000D01*
X151922500Y-70875000D02*
X152485000Y-70312500D01*
%TO.N,Net-(C3-Pad1)*%
X157535000Y-66625000D02*
X158085000Y-67175000D01*
X157647500Y-66300000D02*
X157672500Y-66325000D01*
X156547500Y-63937500D02*
X157535000Y-64925000D01*
X158085000Y-67175000D02*
X160097500Y-67175000D01*
X152335000Y-63937500D02*
X156547500Y-63937500D01*
X160097500Y-67175000D02*
X160385000Y-67462500D01*
X157535000Y-64925000D02*
X157535000Y-66625000D01*
X157810000Y-66462500D02*
X157672500Y-66325000D01*
%TO.N,Net-(C3-Pad2)*%
X156597500Y-65812500D02*
X156597500Y-68550000D01*
X155710000Y-64925000D02*
X156597500Y-65812500D01*
X154622500Y-66012500D02*
X155710000Y-64925000D01*
X156597500Y-68550000D02*
X157822500Y-69775000D01*
X152335000Y-66012500D02*
X154622500Y-66012500D01*
%TO.N,Net-(U3A-+)*%
X155747500Y-66662500D02*
X155710000Y-66625000D01*
X155710000Y-69737500D02*
X155747500Y-69775000D01*
X155710000Y-66625000D02*
X155710000Y-69737500D01*
X149535000Y-65795000D02*
X150873142Y-67133142D01*
X155201858Y-67133142D02*
X155710000Y-66625000D01*
X150873142Y-67133142D02*
X155201858Y-67133142D01*
%TO.N,Net-(U3A--)*%
X149185000Y-72925000D02*
X155260000Y-72925000D01*
X149535000Y-68335000D02*
X152332500Y-68335000D01*
X148335000Y-72075000D02*
X149185000Y-72925000D01*
X149522500Y-68487500D02*
X148335000Y-69675000D01*
X148335000Y-69675000D02*
X148335000Y-72075000D01*
X152332500Y-68335000D02*
X152485000Y-68487500D01*
X152485000Y-68487500D02*
X149522500Y-68487500D01*
X149535000Y-68335000D02*
X148335000Y-69535000D01*
X152387500Y-68335000D02*
X152485000Y-68237500D01*
X148335000Y-69535000D02*
X148335000Y-72075000D01*
X155035000Y-72700000D02*
X155260000Y-72925000D01*
%TO.N,/SDA0*%
X160362500Y-98050000D02*
X161200000Y-97212500D01*
X157320000Y-98050000D02*
X160362500Y-98050000D01*
X154020000Y-94750000D02*
X157320000Y-98050000D01*
%TO.N,/SCL1*%
X150055000Y-88225000D02*
X150055000Y-84095000D01*
X150055000Y-88225000D02*
X151385000Y-89555000D01*
X170475000Y-71075000D02*
X172235000Y-71075000D01*
X150055000Y-84095000D02*
X149985000Y-84025000D01*
X151385000Y-89555000D02*
X151385000Y-90162500D01*
%TO.N,/Valve*%
X160922500Y-69825000D02*
X160385000Y-69287500D01*
X174260000Y-70600000D02*
X173485000Y-69825000D01*
X174350000Y-70600000D02*
X174260000Y-70600000D01*
X173485000Y-69825000D02*
X160922500Y-69825000D01*
%TO.N,/SDA1*%
X147515000Y-90042500D02*
X147535000Y-90062500D01*
X147515000Y-88225000D02*
X147515000Y-84395000D01*
X147515000Y-88225000D02*
X147872767Y-88225000D01*
X147515000Y-88225000D02*
X147515000Y-90042500D01*
X147515000Y-84395000D02*
X147835000Y-84075000D01*
%TO.N,/SCL0*%
X151480000Y-94750000D02*
X155530000Y-98800000D01*
X155530000Y-98800000D02*
X164450000Y-98800000D01*
X165550000Y-97700000D02*
X165550000Y-97200000D01*
X170475000Y-76155000D02*
X172235000Y-76155000D01*
X166425000Y-96325000D02*
X165550000Y-97200000D01*
X151480000Y-94120000D02*
X151480000Y-94750000D01*
X164450000Y-98800000D02*
X165550000Y-97700000D01*
X166400000Y-83100000D02*
X166425000Y-83125000D01*
X171930000Y-75850000D02*
X172235000Y-76155000D01*
X166425000Y-83125000D02*
X166425000Y-96325000D01*
%TO.N,/Pump*%
X172235000Y-81235000D02*
X169620000Y-81235000D01*
X169620000Y-81235000D02*
X165110000Y-76725000D01*
%TO.N,Net-(Q1-E)*%
X162197500Y-72675000D02*
X162197500Y-70912500D01*
X162235000Y-70875000D02*
X162235000Y-72637500D01*
X162197500Y-70912500D02*
X162235000Y-70875000D01*
X162235000Y-72637500D02*
X162197500Y-72675000D01*
X161572500Y-72050000D02*
X159547500Y-72050000D01*
X162197500Y-72675000D02*
X161572500Y-72050000D01*
X159547500Y-72050000D02*
X158672500Y-72925000D01*
X157085000Y-72925000D02*
X158672500Y-72925000D01*
%TO.N,Net-(D1-K)*%
X148547500Y-58225000D02*
X147697500Y-59075000D01*
X150060000Y-58675000D02*
X150510000Y-58225000D01*
X150510000Y-58225000D02*
X148547500Y-58225000D01*
%TO.N,Net-(D3-A)*%
X153600000Y-82602183D02*
X153600000Y-81810000D01*
X163147500Y-73800000D02*
X164272500Y-72675000D01*
X153335000Y-82602183D02*
X153335000Y-82075000D01*
X164272500Y-72675000D02*
X164885000Y-72675000D01*
X156135000Y-78925000D02*
X161260000Y-73800000D01*
X161260000Y-73800000D02*
X163147500Y-73800000D01*
X164885000Y-72675000D02*
X165635000Y-71925000D01*
X156135000Y-79275000D02*
X156135000Y-78925000D01*
X153600000Y-81810000D02*
X156135000Y-79275000D01*
%TO.N,Net-(J1-CC1)*%
X147515000Y-54043909D02*
X145822500Y-55736409D01*
X147515000Y-52560000D02*
X147515000Y-54043909D01*
%TO.N,Net-(J1-CC2)*%
X146515000Y-52560000D02*
X146515000Y-53428909D01*
X146515000Y-53428909D02*
X144207500Y-55736409D01*
X144207500Y-55736409D02*
X144426858Y-55736409D01*
%TO.N,Net-(Q2-G)*%
X162045000Y-77965000D02*
X163285000Y-76725000D01*
X162045000Y-80735000D02*
X162045000Y-77965000D01*
%TO.N,Net-(D4-A)*%
X161397183Y-82627183D02*
X162045000Y-83275000D01*
X162045000Y-83275000D02*
X164285000Y-85515000D01*
X157850000Y-82627183D02*
X161397183Y-82627183D01*
X164285000Y-85515000D02*
X164285000Y-90975000D01*
%TO.N,+3.3V*%
X161745000Y-94842500D02*
X161200000Y-95387500D01*
X157122183Y-86412183D02*
X157135000Y-86425000D01*
X161072500Y-52956409D02*
X156895000Y-52956409D01*
X156947500Y-86425000D02*
X157250000Y-86425000D01*
X161200000Y-95387500D02*
X165537500Y-95387500D01*
D45*
X161147500Y-56156409D02*
X161456409Y-56156409D01*
D43*
X164600000Y-58300000D02*
X165972818Y-59672818D01*
X161147500Y-53031409D02*
X161072500Y-52956409D01*
X161147500Y-56156409D02*
X161147500Y-53031409D01*
X156895000Y-52956409D02*
X156785000Y-53066409D01*
X150185000Y-79275000D02*
X145435000Y-84025000D01*
X153595000Y-79275000D02*
X150185000Y-79275000D01*
X161745000Y-90332183D02*
X161745000Y-90975000D01*
X160335000Y-90975000D02*
X156560000Y-94750000D01*
X156560000Y-94750000D02*
X160562500Y-94750000D01*
X144975000Y-89327500D02*
X147535000Y-91887500D01*
X144975000Y-84485000D02*
X145435000Y-84025000D01*
X157850000Y-86437183D02*
X161745000Y-90332183D01*
X153600000Y-86412183D02*
X150462817Y-83275000D01*
X150462817Y-83275000D02*
X150462817Y-79552817D01*
X144975000Y-88225000D02*
X144975000Y-84485000D01*
X157825000Y-86412183D02*
X157850000Y-86437183D01*
X144975000Y-88225000D02*
X144975000Y-89327500D01*
X165972818Y-59672818D02*
X165972818Y-59800000D01*
X161745000Y-90975000D02*
X160335000Y-90975000D01*
X153600000Y-86412183D02*
X157825000Y-86412183D01*
X151385000Y-91987500D02*
X153797500Y-91987500D01*
X163291091Y-58300000D02*
X164600000Y-58300000D01*
X157237183Y-86412183D02*
X157250000Y-86425000D01*
X157135000Y-86425000D02*
X157195000Y-86425000D01*
X161745000Y-90975000D02*
X161745000Y-94842500D01*
X153335000Y-86314339D02*
X153335000Y-86412183D01*
X150462817Y-79552817D02*
X150185000Y-79275000D01*
X160562500Y-94750000D02*
X161200000Y-95387500D01*
X165537500Y-95387500D02*
X165550000Y-95375000D01*
X161147500Y-56156409D02*
X163291091Y-58300000D01*
X153797500Y-91987500D02*
X156560000Y-94750000D01*
%TD*%
%TA.AperFunction,Conductor*%
%TO.N,GND*%
G36*
X169027539Y-70595185D02*
G01*
X169073294Y-70647989D01*
X169084500Y-70699500D01*
X169084500Y-71972870D01*
X169084501Y-71972876D01*
X169090908Y-72032483D01*
X169141202Y-72167328D01*
X169141203Y-72167330D01*
X169218578Y-72270689D01*
X169242995Y-72336153D01*
X169228144Y-72404426D01*
X169218578Y-72419311D01*
X169141203Y-72522669D01*
X169141202Y-72522671D01*
X169090908Y-72657517D01*
X169084501Y-72717116D01*
X169084501Y-72717123D01*
X169084500Y-72717135D01*
X169084500Y-74512870D01*
X169084501Y-74512876D01*
X169090908Y-74572483D01*
X169141202Y-74707328D01*
X169141203Y-74707330D01*
X169218578Y-74810689D01*
X169242995Y-74876153D01*
X169228144Y-74944426D01*
X169218578Y-74959311D01*
X169141203Y-75062669D01*
X169141202Y-75062671D01*
X169090908Y-75197517D01*
X169084501Y-75257116D01*
X169084501Y-75257123D01*
X169084500Y-75257135D01*
X169084500Y-77052870D01*
X169084501Y-77052876D01*
X169090908Y-77112483D01*
X169141202Y-77247328D01*
X169141206Y-77247335D01*
X169218889Y-77351105D01*
X169243307Y-77416569D01*
X169228456Y-77484842D01*
X169218890Y-77499727D01*
X169141647Y-77602910D01*
X169141645Y-77602913D01*
X169091403Y-77737620D01*
X169091401Y-77737627D01*
X169085000Y-77797155D01*
X169085000Y-78445000D01*
X171789428Y-78445000D01*
X171766318Y-78480960D01*
X171725000Y-78621673D01*
X171725000Y-78768327D01*
X171766318Y-78909040D01*
X171789428Y-78945000D01*
X169085000Y-78945000D01*
X169085000Y-79339270D01*
X169065315Y-79406309D01*
X169012511Y-79452064D01*
X168943353Y-79462008D01*
X168879797Y-79432983D01*
X168873319Y-79426951D01*
X166134318Y-76687950D01*
X166100833Y-76626627D01*
X166097999Y-76600269D01*
X166097999Y-76438330D01*
X166097998Y-76438313D01*
X166087674Y-76337247D01*
X166047721Y-76216679D01*
X166033408Y-76173484D01*
X165942840Y-76026650D01*
X165820850Y-75904660D01*
X165674016Y-75814092D01*
X165510253Y-75759826D01*
X165510251Y-75759825D01*
X165409178Y-75749500D01*
X164810830Y-75749500D01*
X164810812Y-75749501D01*
X164709747Y-75759825D01*
X164545984Y-75814092D01*
X164545981Y-75814093D01*
X164399148Y-75904661D01*
X164285181Y-76018629D01*
X164223858Y-76052114D01*
X164154166Y-76047130D01*
X164109819Y-76018629D01*
X163995851Y-75904661D01*
X163995850Y-75904660D01*
X163849016Y-75814092D01*
X163685253Y-75759826D01*
X163685251Y-75759825D01*
X163584178Y-75749500D01*
X162985830Y-75749500D01*
X162985812Y-75749501D01*
X162884747Y-75759825D01*
X162720984Y-75814092D01*
X162720981Y-75814093D01*
X162574148Y-75904661D01*
X162452161Y-76026648D01*
X162361593Y-76173481D01*
X162361591Y-76173486D01*
X162334219Y-76256088D01*
X162307326Y-76337247D01*
X162307326Y-76337248D01*
X162307325Y-76337248D01*
X162297000Y-76438315D01*
X162297000Y-76600269D01*
X162277315Y-76667308D01*
X162260681Y-76687950D01*
X161559358Y-77389272D01*
X161545729Y-77401051D01*
X161526468Y-77415390D01*
X161492898Y-77455397D01*
X161489253Y-77459376D01*
X161483409Y-77465222D01*
X161463059Y-77490959D01*
X161413695Y-77549789D01*
X161409729Y-77555819D01*
X161409682Y-77555788D01*
X161405630Y-77562147D01*
X161405679Y-77562177D01*
X161401889Y-77568321D01*
X161369424Y-77637941D01*
X161334960Y-77706566D01*
X161332488Y-77713357D01*
X161332432Y-77713336D01*
X161329960Y-77720450D01*
X161330015Y-77720469D01*
X161327742Y-77727327D01*
X161319975Y-77764946D01*
X161312207Y-77802565D01*
X161299001Y-77858284D01*
X161294498Y-77877286D01*
X161293661Y-77884454D01*
X161293601Y-77884447D01*
X161292835Y-77891945D01*
X161292895Y-77891951D01*
X161292265Y-77899140D01*
X161294500Y-77975916D01*
X161294500Y-79185500D01*
X161274815Y-79252539D01*
X161222011Y-79298294D01*
X161170501Y-79309500D01*
X161072130Y-79309500D01*
X161072123Y-79309501D01*
X161012516Y-79315908D01*
X160877671Y-79366202D01*
X160877664Y-79366206D01*
X160762455Y-79452452D01*
X160762452Y-79452455D01*
X160676206Y-79567664D01*
X160676202Y-79567671D01*
X160625908Y-79702517D01*
X160619501Y-79762116D01*
X160619501Y-79762123D01*
X160619500Y-79762135D01*
X160619500Y-81707870D01*
X160619501Y-81707878D01*
X160622893Y-81739431D01*
X160610486Y-81808190D01*
X160562874Y-81859326D01*
X160499603Y-81876683D01*
X159336647Y-81876683D01*
X159269608Y-81856998D01*
X159230919Y-81817472D01*
X159228529Y-81813572D01*
X159148836Y-81683524D01*
X158985224Y-81491959D01*
X158858571Y-81383787D01*
X158793656Y-81328344D01*
X158793653Y-81328343D01*
X158578859Y-81196716D01*
X158346110Y-81100309D01*
X158101151Y-81041500D01*
X157850000Y-81021734D01*
X157598848Y-81041500D01*
X157353889Y-81100309D01*
X157121140Y-81196716D01*
X156906346Y-81328343D01*
X156906343Y-81328344D01*
X156714776Y-81491959D01*
X156551161Y-81683526D01*
X156551160Y-81683529D01*
X156419533Y-81898323D01*
X156323126Y-82131072D01*
X156264317Y-82376031D01*
X156244551Y-82627183D01*
X156264317Y-82878334D01*
X156323126Y-83123293D01*
X156419533Y-83356042D01*
X156551160Y-83570836D01*
X156551161Y-83570839D01*
X156606604Y-83635754D01*
X156714776Y-83762407D01*
X156861215Y-83887478D01*
X156906343Y-83926021D01*
X156906346Y-83926022D01*
X157121140Y-84057649D01*
X157328059Y-84143357D01*
X157353889Y-84154056D01*
X157598852Y-84212866D01*
X157850000Y-84232632D01*
X158101148Y-84212866D01*
X158346111Y-84154056D01*
X158578859Y-84057649D01*
X158793659Y-83926019D01*
X158985224Y-83762407D01*
X159148836Y-83570842D01*
X159230920Y-83436893D01*
X159282731Y-83390018D01*
X159336647Y-83377683D01*
X160508974Y-83377683D01*
X160576013Y-83397368D01*
X160621768Y-83450172D01*
X160632550Y-83491440D01*
X160633758Y-83506022D01*
X160634124Y-83510436D01*
X160692117Y-83739445D01*
X160787013Y-83955787D01*
X160916225Y-84153562D01*
X161076223Y-84327364D01*
X161076233Y-84327373D01*
X161230523Y-84447462D01*
X161271336Y-84504172D01*
X161275011Y-84573945D01*
X161240379Y-84634628D01*
X161230522Y-84643170D01*
X161228386Y-84644832D01*
X161228385Y-84644833D01*
X161824432Y-85240879D01*
X161746367Y-85271788D01*
X161620657Y-85363121D01*
X161521611Y-85482847D01*
X161469671Y-85593224D01*
X160875749Y-84999302D01*
X160787454Y-85134450D01*
X160692591Y-85350716D01*
X160634617Y-85579652D01*
X160615116Y-85814994D01*
X160615116Y-85815005D01*
X160634617Y-86050347D01*
X160692591Y-86279283D01*
X160787454Y-86495549D01*
X160875749Y-86630695D01*
X161470229Y-86036217D01*
X161484109Y-86078935D01*
X161567368Y-86210131D01*
X161680639Y-86316500D01*
X161816804Y-86391357D01*
X161821093Y-86392458D01*
X161228386Y-86985165D01*
X161228386Y-86985167D01*
X161262919Y-87012045D01*
X161262925Y-87012049D01*
X161470621Y-87124449D01*
X161470629Y-87124452D01*
X161693981Y-87201129D01*
X161926921Y-87240000D01*
X162163079Y-87240000D01*
X162396018Y-87201129D01*
X162619370Y-87124452D01*
X162619388Y-87124445D01*
X162827066Y-87012054D01*
X162827075Y-87012048D01*
X162861612Y-86985166D01*
X162861613Y-86985165D01*
X162265567Y-86389120D01*
X162343633Y-86358212D01*
X162469343Y-86266879D01*
X162568389Y-86147153D01*
X162620328Y-86036776D01*
X163214248Y-86630696D01*
X163305351Y-86491256D01*
X163306790Y-86492196D01*
X163350664Y-86447992D01*
X163418880Y-86432883D01*
X163484436Y-86457054D01*
X163526518Y-86512829D01*
X163534500Y-86556600D01*
X163534500Y-89787298D01*
X163514815Y-89854337D01*
X163481625Y-89888872D01*
X163413599Y-89936505D01*
X163291673Y-90058431D01*
X163230350Y-90091915D01*
X163160658Y-90086931D01*
X163104725Y-90045059D01*
X163087810Y-90014082D01*
X163038797Y-89882671D01*
X163038793Y-89882664D01*
X162952547Y-89767455D01*
X162952544Y-89767452D01*
X162837335Y-89681206D01*
X162837328Y-89681202D01*
X162702482Y-89630908D01*
X162702483Y-89630908D01*
X162642883Y-89624501D01*
X162642881Y-89624500D01*
X162642873Y-89624500D01*
X162642865Y-89624500D01*
X162150046Y-89624500D01*
X162083007Y-89604815D01*
X162062365Y-89588181D01*
X159486818Y-87012634D01*
X159453333Y-86951311D01*
X159450499Y-86924953D01*
X159450499Y-85289312D01*
X159450498Y-85289306D01*
X159450497Y-85289299D01*
X159444091Y-85229700D01*
X159441469Y-85222671D01*
X159393797Y-85094854D01*
X159393793Y-85094847D01*
X159307547Y-84979638D01*
X159307544Y-84979635D01*
X159192335Y-84893389D01*
X159192328Y-84893385D01*
X159057482Y-84843091D01*
X159057483Y-84843091D01*
X158997883Y-84836684D01*
X158997881Y-84836683D01*
X158997873Y-84836683D01*
X158997864Y-84836683D01*
X156702129Y-84836683D01*
X156702123Y-84836684D01*
X156642516Y-84843091D01*
X156507671Y-84893385D01*
X156507664Y-84893389D01*
X156392455Y-84979635D01*
X156392452Y-84979638D01*
X156306206Y-85094847D01*
X156306202Y-85094854D01*
X156255908Y-85229700D01*
X156249501Y-85289299D01*
X156249501Y-85289306D01*
X156249500Y-85289318D01*
X156249500Y-85537683D01*
X156229815Y-85604722D01*
X156177011Y-85650477D01*
X156125500Y-85661683D01*
X155324499Y-85661683D01*
X155257460Y-85641998D01*
X155211705Y-85589194D01*
X155200499Y-85537683D01*
X155200499Y-85264312D01*
X155200498Y-85264306D01*
X155196022Y-85222668D01*
X155194091Y-85204700D01*
X155190721Y-85195665D01*
X155143797Y-85069854D01*
X155143793Y-85069847D01*
X155057547Y-84954638D01*
X155057544Y-84954635D01*
X154942335Y-84868389D01*
X154942328Y-84868385D01*
X154807482Y-84818091D01*
X154807483Y-84818091D01*
X154747883Y-84811684D01*
X154747881Y-84811683D01*
X154747873Y-84811683D01*
X154747865Y-84811683D01*
X153112230Y-84811683D01*
X153045191Y-84791998D01*
X153024549Y-84775364D01*
X151249636Y-83000451D01*
X151216151Y-82939128D01*
X151213317Y-82912770D01*
X151213317Y-80149500D01*
X151233002Y-80082461D01*
X151285806Y-80036706D01*
X151337317Y-80025500D01*
X152120501Y-80025500D01*
X152187540Y-80045185D01*
X152233295Y-80097989D01*
X152244501Y-80149500D01*
X152244501Y-80172876D01*
X152250908Y-80232483D01*
X152301202Y-80367328D01*
X152301206Y-80367335D01*
X152387452Y-80482544D01*
X152387455Y-80482547D01*
X152502664Y-80568793D01*
X152502671Y-80568797D01*
X152637517Y-80619091D01*
X152637516Y-80619091D01*
X152644444Y-80619835D01*
X152697127Y-80625500D01*
X153423769Y-80625499D01*
X153490808Y-80645183D01*
X153536563Y-80697987D01*
X153546507Y-80767146D01*
X153517482Y-80830702D01*
X153511450Y-80837180D01*
X153351578Y-80997052D01*
X153292844Y-81029945D01*
X153103888Y-81075309D01*
X152871140Y-81171716D01*
X152656346Y-81303343D01*
X152656343Y-81303344D01*
X152464776Y-81466959D01*
X152301161Y-81658526D01*
X152301160Y-81658529D01*
X152169533Y-81873323D01*
X152073126Y-82106072D01*
X152014317Y-82351031D01*
X151994551Y-82602183D01*
X152014317Y-82853334D01*
X152073126Y-83098293D01*
X152169533Y-83331042D01*
X152301160Y-83545836D01*
X152301161Y-83545839D01*
X152356604Y-83610754D01*
X152464776Y-83737407D01*
X152591208Y-83845390D01*
X152656343Y-83901021D01*
X152656346Y-83901022D01*
X152871140Y-84032649D01*
X153005550Y-84088323D01*
X153103889Y-84129056D01*
X153348852Y-84187866D01*
X153600000Y-84207632D01*
X153851148Y-84187866D01*
X154096111Y-84129056D01*
X154328859Y-84032649D01*
X154543659Y-83901019D01*
X154735224Y-83737407D01*
X154898836Y-83545842D01*
X155030466Y-83331042D01*
X155126873Y-83098294D01*
X155185683Y-82853331D01*
X155205449Y-82602183D01*
X155185683Y-82351035D01*
X155126873Y-82106072D01*
X155090205Y-82017547D01*
X155030466Y-81873323D01*
X154917238Y-81688552D01*
X154898993Y-81621106D01*
X154920109Y-81554504D01*
X154935279Y-81536086D01*
X155823498Y-80647867D01*
X155884819Y-80614384D01*
X155921983Y-80612022D01*
X156064861Y-80624522D01*
X156134999Y-80630659D01*
X156135000Y-80630659D01*
X156135001Y-80630659D01*
X156193966Y-80625500D01*
X156370408Y-80610063D01*
X156598663Y-80548903D01*
X156812830Y-80449035D01*
X157006401Y-80313495D01*
X157173495Y-80146401D01*
X157309035Y-79952830D01*
X157408903Y-79738663D01*
X157470063Y-79510408D01*
X157490659Y-79275000D01*
X157470063Y-79039592D01*
X157408903Y-78811337D01*
X157407502Y-78806107D01*
X157409071Y-78805686D01*
X157405102Y-78743367D01*
X157438376Y-78682990D01*
X161534548Y-74586819D01*
X161595871Y-74553334D01*
X161622229Y-74550500D01*
X163083795Y-74550500D01*
X163101765Y-74551809D01*
X163125523Y-74555289D01*
X163177568Y-74550735D01*
X163182970Y-74550500D01*
X163191204Y-74550500D01*
X163191209Y-74550500D01*
X163202827Y-74549141D01*
X163223776Y-74546693D01*
X163236528Y-74545577D01*
X163300297Y-74539999D01*
X163300305Y-74539996D01*
X163307366Y-74538539D01*
X163307378Y-74538598D01*
X163314743Y-74536965D01*
X163314729Y-74536906D01*
X163321746Y-74535241D01*
X163321755Y-74535241D01*
X163393923Y-74508974D01*
X163466834Y-74484814D01*
X163466843Y-74484807D01*
X163473382Y-74481760D01*
X163473408Y-74481816D01*
X163480190Y-74478532D01*
X163480163Y-74478478D01*
X163486606Y-74475240D01*
X163486617Y-74475237D01*
X163550783Y-74433034D01*
X163616156Y-74392712D01*
X163616162Y-74392705D01*
X163621825Y-74388229D01*
X163621862Y-74388277D01*
X163627704Y-74383518D01*
X163627664Y-74383471D01*
X163633186Y-74378835D01*
X163633196Y-74378830D01*
X163685886Y-74322981D01*
X164072048Y-73936817D01*
X164133371Y-73903333D01*
X164159729Y-73900499D01*
X164660002Y-73900499D01*
X164660008Y-73900499D01*
X164762797Y-73889999D01*
X164929334Y-73834814D01*
X165078656Y-73742712D01*
X165202712Y-73618656D01*
X165294814Y-73469334D01*
X165349999Y-73302797D01*
X165350000Y-73302784D01*
X165350219Y-73301763D01*
X165350552Y-73301128D01*
X165352129Y-73296370D01*
X165352914Y-73296630D01*
X165381280Y-73242611D01*
X165410465Y-73211677D01*
X165423388Y-73197980D01*
X165564454Y-73056911D01*
X165854179Y-72767186D01*
X165894111Y-72742729D01*
X165893329Y-72740972D01*
X165899263Y-72738329D01*
X165899267Y-72738329D01*
X166062593Y-72665612D01*
X166207230Y-72560526D01*
X166326859Y-72427665D01*
X166416250Y-72272835D01*
X166471497Y-72102803D01*
X166490185Y-71925000D01*
X166471497Y-71747197D01*
X166422399Y-71596089D01*
X166416252Y-71577170D01*
X166416249Y-71577164D01*
X166326859Y-71422335D01*
X166275397Y-71365181D01*
X166207235Y-71289478D01*
X166207232Y-71289476D01*
X166207231Y-71289475D01*
X166207230Y-71289474D01*
X166062593Y-71184388D01*
X165899267Y-71111671D01*
X165899265Y-71111670D01*
X165771594Y-71084533D01*
X165724391Y-71074500D01*
X165545609Y-71074500D01*
X165514954Y-71081015D01*
X165370733Y-71111670D01*
X165370728Y-71111672D01*
X165207408Y-71184387D01*
X165062768Y-71289475D01*
X164943137Y-71422339D01*
X164939363Y-71427533D01*
X164884029Y-71470193D01*
X164814415Y-71476166D01*
X164800049Y-71472344D01*
X164762800Y-71460001D01*
X164660010Y-71449500D01*
X163884998Y-71449500D01*
X163884980Y-71449501D01*
X163782203Y-71460000D01*
X163782200Y-71460001D01*
X163615668Y-71515185D01*
X163615663Y-71515187D01*
X163466342Y-71607289D01*
X163342285Y-71731346D01*
X163340537Y-71734182D01*
X163338829Y-71735717D01*
X163337807Y-71737011D01*
X163337585Y-71736836D01*
X163288589Y-71780905D01*
X163219626Y-71792126D01*
X163155544Y-71764282D01*
X163129463Y-71734182D01*
X163127714Y-71731347D01*
X163127713Y-71731346D01*
X163127712Y-71731344D01*
X163021818Y-71625450D01*
X162988334Y-71564127D01*
X162985500Y-71537769D01*
X162985500Y-71309320D01*
X163002112Y-71247322D01*
X163016250Y-71222835D01*
X163071497Y-71052803D01*
X163090185Y-70875000D01*
X163073101Y-70712460D01*
X163085670Y-70643732D01*
X163133402Y-70592708D01*
X163196422Y-70575500D01*
X168960500Y-70575500D01*
X169027539Y-70595185D01*
G37*
%TD.AperFunction*%
%TA.AperFunction,Conductor*%
G36*
X197342539Y-45970185D02*
G01*
X197388294Y-46022989D01*
X197399500Y-46074500D01*
X197399500Y-99925500D01*
X197379815Y-99992539D01*
X197327011Y-100038294D01*
X197275500Y-100049500D01*
X139974500Y-100049500D01*
X139907461Y-100029815D01*
X139861706Y-99977011D01*
X139850500Y-99925500D01*
X139850500Y-70875001D01*
X140609532Y-70875001D01*
X140629364Y-71101686D01*
X140629366Y-71101697D01*
X140688258Y-71321488D01*
X140688261Y-71321497D01*
X140784431Y-71527732D01*
X140784432Y-71527734D01*
X140914954Y-71714141D01*
X141075858Y-71875045D01*
X141075861Y-71875047D01*
X141262266Y-72005568D01*
X141468504Y-72101739D01*
X141468509Y-72101740D01*
X141468511Y-72101741D01*
X141501089Y-72110470D01*
X141688308Y-72160635D01*
X141846786Y-72174500D01*
X141914998Y-72180468D01*
X141915000Y-72180468D01*
X141915002Y-72180468D01*
X141983214Y-72174500D01*
X142141692Y-72160635D01*
X142361496Y-72101739D01*
X142567734Y-72005568D01*
X142754139Y-71875047D01*
X142915047Y-71714139D01*
X143045568Y-71527734D01*
X143141739Y-71321496D01*
X143200635Y-71101692D01*
X143206039Y-71039906D01*
X143231490Y-70974840D01*
X143241878Y-70963041D01*
X144063487Y-70141433D01*
X144128053Y-70080059D01*
X144163112Y-70029686D01*
X144165925Y-70025957D01*
X144204698Y-69978407D01*
X144220607Y-69947948D01*
X144224667Y-69941248D01*
X144244295Y-69913049D01*
X144268492Y-69856660D01*
X144270498Y-69852435D01*
X144298909Y-69798049D01*
X144308360Y-69765015D01*
X144310991Y-69757628D01*
X144311543Y-69756342D01*
X144324540Y-69726058D01*
X144336893Y-69665940D01*
X144338006Y-69661412D01*
X144354887Y-69602418D01*
X144357495Y-69568155D01*
X144358587Y-69560376D01*
X144360638Y-69550399D01*
X144365500Y-69526741D01*
X144365500Y-69465401D01*
X144365679Y-69460692D01*
X144370337Y-69399525D01*
X144365997Y-69365441D01*
X144365500Y-69357602D01*
X144365500Y-67840172D01*
X144385185Y-67773133D01*
X144401814Y-67752496D01*
X148235289Y-63919021D01*
X148296608Y-63885539D01*
X148366300Y-63890523D01*
X148422233Y-63932395D01*
X148424541Y-63935581D01*
X148535342Y-64093820D01*
X148696179Y-64254657D01*
X148882518Y-64385134D01*
X148882520Y-64385135D01*
X148940865Y-64412342D01*
X148993305Y-64458514D01*
X149012457Y-64525707D01*
X148992242Y-64592589D01*
X148940867Y-64637105D01*
X148882268Y-64664431D01*
X148882264Y-64664433D01*
X148695858Y-64794954D01*
X148534954Y-64955858D01*
X148404432Y-65142265D01*
X148404431Y-65142267D01*
X148308261Y-65348502D01*
X148308258Y-65348511D01*
X148249366Y-65568302D01*
X148249364Y-65568313D01*
X148229532Y-65794998D01*
X148229532Y-65795001D01*
X148249364Y-66021686D01*
X148249366Y-66021697D01*
X148308258Y-66241488D01*
X148308261Y-66241497D01*
X148404431Y-66447732D01*
X148404432Y-66447734D01*
X148534954Y-66634141D01*
X148695858Y-66795045D01*
X148695861Y-66795047D01*
X148882266Y-66925568D01*
X148939747Y-66952372D01*
X148940275Y-66952618D01*
X148992714Y-66998791D01*
X149011866Y-67065984D01*
X148991650Y-67132865D01*
X148940275Y-67177381D01*
X148925010Y-67184500D01*
X148882267Y-67204431D01*
X148882265Y-67204432D01*
X148695858Y-67334954D01*
X148534954Y-67495858D01*
X148404432Y-67682265D01*
X148404431Y-67682267D01*
X148308261Y-67888502D01*
X148308258Y-67888511D01*
X148249366Y-68108302D01*
X148249364Y-68108313D01*
X148229532Y-68334998D01*
X148229532Y-68335003D01*
X148244129Y-68501861D01*
X148230362Y-68570360D01*
X148208282Y-68600348D01*
X147849358Y-68959272D01*
X147835729Y-68971051D01*
X147816468Y-68985390D01*
X147782898Y-69025397D01*
X147779253Y-69029376D01*
X147773409Y-69035222D01*
X147753059Y-69060959D01*
X147703695Y-69119789D01*
X147699729Y-69125819D01*
X147699682Y-69125788D01*
X147695630Y-69132147D01*
X147695679Y-69132177D01*
X147691889Y-69138321D01*
X147659424Y-69207941D01*
X147624960Y-69276566D01*
X147622488Y-69283357D01*
X147622432Y-69283336D01*
X147619960Y-69290450D01*
X147620015Y-69290469D01*
X147617742Y-69297327D01*
X147611879Y-69325726D01*
X147602207Y-69372565D01*
X147595818Y-69399525D01*
X147584498Y-69447286D01*
X147583661Y-69454454D01*
X147583601Y-69454447D01*
X147582835Y-69461945D01*
X147582895Y-69461951D01*
X147582265Y-69469140D01*
X147584500Y-69545916D01*
X147584500Y-69585655D01*
X147582835Y-69601945D01*
X147582895Y-69601951D01*
X147582265Y-69609140D01*
X147584500Y-69685916D01*
X147584500Y-72011294D01*
X147583191Y-72029263D01*
X147579710Y-72053025D01*
X147583577Y-72097215D01*
X147584228Y-72104660D01*
X147584264Y-72105064D01*
X147584500Y-72110470D01*
X147584500Y-72118709D01*
X147588306Y-72151274D01*
X147595000Y-72227791D01*
X147596461Y-72234867D01*
X147596403Y-72234878D01*
X147598034Y-72242237D01*
X147598092Y-72242224D01*
X147599757Y-72249250D01*
X147626025Y-72321424D01*
X147650185Y-72394331D01*
X147653236Y-72400874D01*
X147653182Y-72400898D01*
X147656470Y-72407688D01*
X147656521Y-72407663D01*
X147659761Y-72414113D01*
X147659762Y-72414114D01*
X147659763Y-72414117D01*
X147668674Y-72427665D01*
X147701965Y-72478283D01*
X147742287Y-72543655D01*
X147746766Y-72549319D01*
X147746719Y-72549356D01*
X147751482Y-72555202D01*
X147751528Y-72555164D01*
X147756173Y-72560700D01*
X147812019Y-72613387D01*
X148609269Y-73410637D01*
X148621049Y-73424268D01*
X148635389Y-73443530D01*
X148635391Y-73443532D01*
X148675409Y-73477110D01*
X148679399Y-73480766D01*
X148685227Y-73486594D01*
X148710947Y-73506931D01*
X148769788Y-73556304D01*
X148775818Y-73560270D01*
X148775785Y-73560319D01*
X148782143Y-73564369D01*
X148782175Y-73564319D01*
X148788320Y-73568109D01*
X148788323Y-73568111D01*
X148857936Y-73600572D01*
X148926567Y-73635040D01*
X148926572Y-73635041D01*
X148933361Y-73637513D01*
X148933340Y-73637570D01*
X148940455Y-73640043D01*
X148940475Y-73639986D01*
X148947330Y-73642258D01*
X149022558Y-73657790D01*
X149097279Y-73675500D01*
X149097289Y-73675500D01*
X149104452Y-73676338D01*
X149104444Y-73676397D01*
X149111945Y-73677164D01*
X149111951Y-73677105D01*
X149119143Y-73677733D01*
X149119145Y-73677734D01*
X149119146Y-73677733D01*
X149119147Y-73677734D01*
X149131222Y-73677383D01*
X149198806Y-73695107D01*
X149246078Y-73746557D01*
X149258031Y-73815397D01*
X149230868Y-73879770D01*
X149222513Y-73889011D01*
X149093400Y-74018124D01*
X148967900Y-74197357D01*
X148967898Y-74197361D01*
X148897382Y-74348583D01*
X148851209Y-74401022D01*
X148784016Y-74420174D01*
X148717135Y-74399958D01*
X148672618Y-74348583D01*
X148658118Y-74317488D01*
X148602102Y-74197362D01*
X148602100Y-74197359D01*
X148602099Y-74197357D01*
X148476599Y-74018124D01*
X148405446Y-73946971D01*
X148321877Y-73863402D01*
X148168730Y-73756167D01*
X148142638Y-73737897D01*
X148012864Y-73677383D01*
X147944330Y-73645425D01*
X147944326Y-73645424D01*
X147944322Y-73645422D01*
X147732977Y-73588793D01*
X147515002Y-73569723D01*
X147514998Y-73569723D01*
X147369682Y-73582436D01*
X147297023Y-73588793D01*
X147297020Y-73588793D01*
X147085677Y-73645422D01*
X147085668Y-73645426D01*
X146887361Y-73737898D01*
X146887357Y-73737900D01*
X146708121Y-73863402D01*
X146553402Y-74018121D01*
X146427900Y-74197357D01*
X146427898Y-74197361D01*
X146357382Y-74348583D01*
X146311209Y-74401022D01*
X146244016Y-74420174D01*
X146177135Y-74399958D01*
X146132618Y-74348583D01*
X146118118Y-74317488D01*
X146062102Y-74197362D01*
X146062100Y-74197359D01*
X146062099Y-74197357D01*
X145936599Y-74018124D01*
X145865446Y-73946971D01*
X145781877Y-73863402D01*
X145628730Y-73756167D01*
X145602638Y-73737897D01*
X145472864Y-73677383D01*
X145404330Y-73645425D01*
X145404326Y-73645424D01*
X145404322Y-73645422D01*
X145192977Y-73588793D01*
X144975002Y-73569723D01*
X144974998Y-73569723D01*
X144829682Y-73582436D01*
X144757023Y-73588793D01*
X144757020Y-73588793D01*
X144545677Y-73645422D01*
X144545668Y-73645426D01*
X144347361Y-73737898D01*
X144347357Y-73737900D01*
X144168121Y-73863402D01*
X144013402Y-74018121D01*
X143887900Y-74197357D01*
X143887898Y-74197361D01*
X143817382Y-74348583D01*
X143771209Y-74401022D01*
X143704016Y-74420174D01*
X143637135Y-74399958D01*
X143592618Y-74348583D01*
X143578118Y-74317488D01*
X143522102Y-74197362D01*
X143522100Y-74197359D01*
X143522099Y-74197357D01*
X143396599Y-74018124D01*
X143325446Y-73946971D01*
X143241877Y-73863402D01*
X143088730Y-73756167D01*
X143062638Y-73737897D01*
X142932864Y-73677383D01*
X142864330Y-73645425D01*
X142864326Y-73645424D01*
X142864322Y-73645422D01*
X142652977Y-73588793D01*
X142435002Y-73569723D01*
X142434998Y-73569723D01*
X142289682Y-73582436D01*
X142217023Y-73588793D01*
X142217020Y-73588793D01*
X142005677Y-73645422D01*
X142005668Y-73645426D01*
X141807361Y-73737898D01*
X141807357Y-73737900D01*
X141628121Y-73863402D01*
X141473402Y-74018121D01*
X141347900Y-74197357D01*
X141347898Y-74197361D01*
X141255426Y-74395668D01*
X141255422Y-74395677D01*
X141198793Y-74607020D01*
X141198793Y-74607024D01*
X141179723Y-74824997D01*
X141179723Y-74825002D01*
X141198793Y-75042975D01*
X141198793Y-75042979D01*
X141255422Y-75254322D01*
X141255424Y-75254326D01*
X141255425Y-75254330D01*
X141277382Y-75301416D01*
X141347897Y-75452638D01*
X141347898Y-75452639D01*
X141473402Y-75631877D01*
X141628123Y-75786598D01*
X141807361Y-75912102D01*
X142005670Y-76004575D01*
X142217023Y-76061207D01*
X142399926Y-76077208D01*
X142434998Y-76080277D01*
X142435000Y-76080277D01*
X142435002Y-76080277D01*
X142463254Y-76077805D01*
X142652977Y-76061207D01*
X142864330Y-76004575D01*
X143062639Y-75912102D01*
X143241877Y-75786598D01*
X143396598Y-75631877D01*
X143522102Y-75452639D01*
X143592618Y-75301414D01*
X143638790Y-75248977D01*
X143705984Y-75229825D01*
X143772865Y-75250041D01*
X143817381Y-75301414D01*
X143887898Y-75452639D01*
X144013402Y-75631877D01*
X144168123Y-75786598D01*
X144347361Y-75912102D01*
X144545670Y-76004575D01*
X144757023Y-76061207D01*
X144939926Y-76077208D01*
X144974998Y-76080277D01*
X144975000Y-76080277D01*
X144975002Y-76080277D01*
X145003254Y-76077805D01*
X145192977Y-76061207D01*
X145404330Y-76004575D01*
X145602639Y-75912102D01*
X145781877Y-75786598D01*
X145936598Y-75631877D01*
X146062102Y-75452639D01*
X146132618Y-75301414D01*
X146178790Y-75248977D01*
X146245984Y-75229825D01*
X146312865Y-75250041D01*
X146357381Y-75301414D01*
X146427898Y-75452639D01*
X146553402Y-75631877D01*
X146708123Y-75786598D01*
X146887361Y-75912102D01*
X147085670Y-76004575D01*
X147297023Y-76061207D01*
X147479926Y-76077208D01*
X147514998Y-76080277D01*
X147515000Y-76080277D01*
X147515002Y-76080277D01*
X147543254Y-76077805D01*
X147732977Y-76061207D01*
X147944330Y-76004575D01*
X148142639Y-75912102D01*
X148321877Y-75786598D01*
X148476598Y-75631877D01*
X148602102Y-75452639D01*
X148672618Y-75301414D01*
X148718790Y-75248977D01*
X148785984Y-75229825D01*
X148852865Y-75250041D01*
X148897381Y-75301414D01*
X148967898Y-75452639D01*
X149093402Y-75631877D01*
X149248123Y-75786598D01*
X149427361Y-75912102D01*
X149625670Y-76004575D01*
X149837023Y-76061207D01*
X150019926Y-76077208D01*
X150054998Y-76080277D01*
X150055000Y-76080277D01*
X150055002Y-76080277D01*
X150083254Y-76077805D01*
X150272977Y-76061207D01*
X150484330Y-76004575D01*
X150682639Y-75912102D01*
X150861877Y-75786598D01*
X151016598Y-75631877D01*
X151142102Y-75452639D01*
X151234575Y-75254330D01*
X151291207Y-75042977D01*
X151310277Y-74825000D01*
X151310062Y-74822546D01*
X151306569Y-74782618D01*
X151291207Y-74607023D01*
X151234575Y-74395670D01*
X151142102Y-74197362D01*
X151142100Y-74197359D01*
X151142099Y-74197357D01*
X151016599Y-74018124D01*
X151012325Y-74013850D01*
X150885654Y-73887179D01*
X150852171Y-73825859D01*
X150857155Y-73756167D01*
X150899026Y-73700233D01*
X150964490Y-73675816D01*
X150973337Y-73675500D01*
X154427948Y-73675500D01*
X154494987Y-73695185D01*
X154515629Y-73711819D01*
X154549150Y-73745340D01*
X154695984Y-73835908D01*
X154859747Y-73890174D01*
X154960823Y-73900500D01*
X155559176Y-73900499D01*
X155559184Y-73900498D01*
X155559187Y-73900498D01*
X155614530Y-73894844D01*
X155660253Y-73890174D01*
X155824016Y-73835908D01*
X155970850Y-73745340D01*
X156084819Y-73631371D01*
X156146142Y-73597886D01*
X156215834Y-73602870D01*
X156260181Y-73631371D01*
X156374150Y-73745340D01*
X156520984Y-73835908D01*
X156684747Y-73890174D01*
X156785823Y-73900500D01*
X157384176Y-73900499D01*
X157384184Y-73900498D01*
X157384187Y-73900498D01*
X157439530Y-73894844D01*
X157485253Y-73890174D01*
X157649016Y-73835908D01*
X157795850Y-73745340D01*
X157795852Y-73745338D01*
X157801513Y-73740862D01*
X157803476Y-73743345D01*
X157852392Y-73716636D01*
X157922084Y-73721620D01*
X157954651Y-73742550D01*
X157955987Y-73740862D01*
X157961647Y-73745338D01*
X157961649Y-73745339D01*
X157961650Y-73745340D01*
X158108484Y-73835908D01*
X158272247Y-73890174D01*
X158373323Y-73900500D01*
X158971676Y-73900499D01*
X158971684Y-73900498D01*
X158971687Y-73900498D01*
X159027030Y-73894844D01*
X159072753Y-73890174D01*
X159236516Y-73835908D01*
X159383350Y-73745340D01*
X159497675Y-73631014D01*
X159558994Y-73597532D01*
X159628686Y-73602516D01*
X159673034Y-73631017D01*
X159786961Y-73744944D01*
X159786965Y-73744947D01*
X159939844Y-73839245D01*
X159938535Y-73841365D01*
X159982148Y-73879775D01*
X160001292Y-73946971D01*
X159981068Y-74013850D01*
X159964977Y-74033653D01*
X156105862Y-77892768D01*
X156044539Y-77926253D01*
X156028990Y-77928615D01*
X155899595Y-77939936D01*
X155899586Y-77939938D01*
X155671344Y-78001094D01*
X155671335Y-78001098D01*
X155457171Y-78100964D01*
X155457169Y-78100965D01*
X155263600Y-78236503D01*
X155141673Y-78358430D01*
X155080350Y-78391914D01*
X155010658Y-78386930D01*
X154954725Y-78345058D01*
X154937810Y-78314081D01*
X154888797Y-78182671D01*
X154888793Y-78182664D01*
X154802547Y-78067455D01*
X154802544Y-78067452D01*
X154687335Y-77981206D01*
X154687328Y-77981202D01*
X154552482Y-77930908D01*
X154552483Y-77930908D01*
X154492883Y-77924501D01*
X154492881Y-77924500D01*
X154492873Y-77924500D01*
X154492864Y-77924500D01*
X152697129Y-77924500D01*
X152697123Y-77924501D01*
X152637516Y-77930908D01*
X152502671Y-77981202D01*
X152502664Y-77981206D01*
X152387455Y-78067452D01*
X152387452Y-78067455D01*
X152301206Y-78182664D01*
X152301202Y-78182671D01*
X152250908Y-78317517D01*
X152244501Y-78377116D01*
X152244500Y-78377135D01*
X152244500Y-78400500D01*
X152224815Y-78467539D01*
X152172011Y-78513294D01*
X152120500Y-78524500D01*
X150274342Y-78524500D01*
X150258054Y-78522836D01*
X150258049Y-78522896D01*
X150250857Y-78522266D01*
X150250856Y-78522266D01*
X150250854Y-78522266D01*
X150239634Y-78522592D01*
X150218069Y-78521335D01*
X150206981Y-78519711D01*
X150206972Y-78519710D01*
X150161890Y-78523655D01*
X150154933Y-78524264D01*
X150149532Y-78524500D01*
X150141291Y-78524500D01*
X150141287Y-78524500D01*
X150141277Y-78524501D01*
X150133114Y-78525455D01*
X150127722Y-78525848D01*
X150075491Y-78527368D01*
X150075480Y-78527370D01*
X150064640Y-78530274D01*
X150043378Y-78534023D01*
X150032207Y-78535001D01*
X150025127Y-78536463D01*
X150025115Y-78536406D01*
X150017752Y-78538038D01*
X150017766Y-78538095D01*
X150010741Y-78539759D01*
X149961661Y-78557623D01*
X149956502Y-78559250D01*
X149906031Y-78572774D01*
X149906017Y-78572779D01*
X149896143Y-78578103D01*
X149876316Y-78586655D01*
X149865671Y-78590183D01*
X149859129Y-78593234D01*
X149859104Y-78593181D01*
X149852310Y-78596470D01*
X149852336Y-78596521D01*
X149845886Y-78599760D01*
X149802232Y-78628471D01*
X149797587Y-78631244D01*
X149751599Y-78656040D01*
X149751598Y-78656041D01*
X149743214Y-78663502D01*
X149725889Y-78676400D01*
X149716347Y-78682285D01*
X149710686Y-78686763D01*
X149710650Y-78686717D01*
X149704798Y-78691484D01*
X149704835Y-78691528D01*
X149699305Y-78696168D01*
X149663456Y-78734165D01*
X149659576Y-78737934D01*
X149620540Y-78772674D01*
X149620536Y-78772678D01*
X149614100Y-78781870D01*
X149600213Y-78798418D01*
X145215820Y-83182810D01*
X145175894Y-83207289D01*
X145176669Y-83209029D01*
X145170736Y-83211670D01*
X145170733Y-83211671D01*
X145007410Y-83284387D01*
X145007406Y-83284389D01*
X144862768Y-83389475D01*
X144743140Y-83522336D01*
X144653750Y-83677164D01*
X144653746Y-83677174D01*
X144630354Y-83749164D01*
X144600105Y-83798525D01*
X144489358Y-83909272D01*
X144475729Y-83921051D01*
X144456468Y-83935390D01*
X144422898Y-83975397D01*
X144419253Y-83979376D01*
X144413409Y-83985222D01*
X144393059Y-84010959D01*
X144343695Y-84069789D01*
X144339729Y-84075819D01*
X144339682Y-84075788D01*
X144335630Y-84082147D01*
X144335679Y-84082177D01*
X144331889Y-84088321D01*
X144299424Y-84157941D01*
X144264960Y-84226566D01*
X144262488Y-84233357D01*
X144262432Y-84233336D01*
X144259960Y-84240450D01*
X144260015Y-84240469D01*
X144257742Y-84247327D01*
X144249975Y-84284946D01*
X144242207Y-84322565D01*
X144230295Y-84372829D01*
X144224498Y-84397286D01*
X144223661Y-84404454D01*
X144223601Y-84404447D01*
X144222835Y-84411945D01*
X144222895Y-84411951D01*
X144222265Y-84419140D01*
X144224500Y-84495916D01*
X144224500Y-87159376D01*
X144204815Y-87226415D01*
X144171625Y-87260950D01*
X144168125Y-87263400D01*
X144013400Y-87418124D01*
X143887900Y-87597357D01*
X143887900Y-87597358D01*
X143887898Y-87597361D01*
X143887898Y-87597362D01*
X143887779Y-87597617D01*
X143817105Y-87749176D01*
X143770932Y-87801615D01*
X143703738Y-87820766D01*
X143636857Y-87800550D01*
X143592341Y-87749174D01*
X143521669Y-87597617D01*
X143478123Y-87535428D01*
X142832953Y-88180598D01*
X142820165Y-88099852D01*
X142762641Y-87986955D01*
X142673045Y-87897359D01*
X142560148Y-87839835D01*
X142479401Y-87827046D01*
X143124572Y-87181875D01*
X143124571Y-87181873D01*
X143062391Y-87138335D01*
X142864159Y-87045898D01*
X142864150Y-87045894D01*
X142652894Y-86989289D01*
X142652884Y-86989287D01*
X142435001Y-86970225D01*
X142434999Y-86970225D01*
X142217115Y-86989287D01*
X142217105Y-86989289D01*
X142005849Y-87045894D01*
X142005840Y-87045898D01*
X141807614Y-87138332D01*
X141807612Y-87138333D01*
X141745428Y-87181875D01*
X141745427Y-87181875D01*
X142390599Y-87827046D01*
X142309852Y-87839835D01*
X142196955Y-87897359D01*
X142107359Y-87986955D01*
X142049835Y-88099852D01*
X142037046Y-88180598D01*
X141391875Y-87535427D01*
X141391875Y-87535428D01*
X141348333Y-87597612D01*
X141348332Y-87597614D01*
X141255898Y-87795840D01*
X141255894Y-87795849D01*
X141199289Y-88007105D01*
X141199287Y-88007115D01*
X141180225Y-88224999D01*
X141180225Y-88225000D01*
X141199287Y-88442884D01*
X141199289Y-88442894D01*
X141255894Y-88654150D01*
X141255898Y-88654159D01*
X141348335Y-88852391D01*
X141391873Y-88914571D01*
X141391875Y-88914572D01*
X142037046Y-88269400D01*
X142049835Y-88350148D01*
X142107359Y-88463045D01*
X142196955Y-88552641D01*
X142309852Y-88610165D01*
X142390599Y-88622953D01*
X141745426Y-89268124D01*
X141807611Y-89311666D01*
X141807613Y-89311667D01*
X142005840Y-89404101D01*
X142005849Y-89404105D01*
X142217105Y-89460710D01*
X142217115Y-89460712D01*
X142434999Y-89479775D01*
X142435001Y-89479775D01*
X142652884Y-89460712D01*
X142652894Y-89460710D01*
X142864150Y-89404105D01*
X142864159Y-89404101D01*
X143062387Y-89311666D01*
X143124572Y-89268124D01*
X142479401Y-88622953D01*
X142560148Y-88610165D01*
X142673045Y-88552641D01*
X142762641Y-88463045D01*
X142820165Y-88350148D01*
X142832953Y-88269400D01*
X143478124Y-88914572D01*
X143521667Y-88852386D01*
X143521668Y-88852384D01*
X143592341Y-88700825D01*
X143638513Y-88648385D01*
X143705706Y-88629233D01*
X143772587Y-88649448D01*
X143817105Y-88700824D01*
X143887897Y-88852638D01*
X143887898Y-88852639D01*
X144013402Y-89031877D01*
X144111328Y-89129803D01*
X144168129Y-89186604D01*
X144172268Y-89190077D01*
X144171553Y-89190928D01*
X144211680Y-89241119D01*
X144218671Y-89298275D01*
X144219921Y-89298312D01*
X144219710Y-89305523D01*
X144224264Y-89357564D01*
X144224500Y-89362970D01*
X144224500Y-89371209D01*
X144228306Y-89403774D01*
X144235000Y-89480291D01*
X144236461Y-89487367D01*
X144236403Y-89487378D01*
X144238034Y-89494737D01*
X144238092Y-89494724D01*
X144239757Y-89501750D01*
X144266025Y-89573924D01*
X144290185Y-89646831D01*
X144293236Y-89653374D01*
X144293182Y-89653398D01*
X144296470Y-89660188D01*
X144296521Y-89660163D01*
X144299761Y-89666613D01*
X144299762Y-89666614D01*
X144299763Y-89666617D01*
X144341965Y-89730783D01*
X144382287Y-89796155D01*
X144386766Y-89801819D01*
X144386719Y-89801856D01*
X144391482Y-89807702D01*
X144391528Y-89807664D01*
X144396173Y-89813200D01*
X144452017Y-89865885D01*
X146523181Y-91937049D01*
X146556666Y-91998372D01*
X146559500Y-92024729D01*
X146559500Y-92186668D01*
X146559501Y-92186687D01*
X146569825Y-92287752D01*
X146591241Y-92352379D01*
X146624092Y-92451516D01*
X146714660Y-92598350D01*
X146836650Y-92720340D01*
X146983484Y-92810908D01*
X147147247Y-92865174D01*
X147248323Y-92875500D01*
X147821676Y-92875499D01*
X147821684Y-92875498D01*
X147821687Y-92875498D01*
X147877030Y-92869844D01*
X147922753Y-92865174D01*
X148086516Y-92810908D01*
X148233350Y-92720340D01*
X148355340Y-92598350D01*
X148445908Y-92451516D01*
X148500174Y-92287753D01*
X148510500Y-92186677D01*
X148510499Y-91588324D01*
X148500174Y-91487247D01*
X148445908Y-91323484D01*
X148355340Y-91176650D01*
X148241371Y-91062681D01*
X148207886Y-91001358D01*
X148212870Y-90931666D01*
X148241371Y-90887319D01*
X148255340Y-90873350D01*
X148355340Y-90773350D01*
X148445908Y-90626516D01*
X148500174Y-90462753D01*
X148510500Y-90361677D01*
X148510499Y-89763324D01*
X148509432Y-89752883D01*
X148500174Y-89662247D01*
X148495066Y-89646831D01*
X148445908Y-89498484D01*
X148355340Y-89351650D01*
X148343763Y-89340073D01*
X148310278Y-89278750D01*
X148315262Y-89209058D01*
X148343759Y-89164715D01*
X148476598Y-89031877D01*
X148602102Y-88852639D01*
X148672618Y-88701414D01*
X148718790Y-88648977D01*
X148785984Y-88629825D01*
X148852865Y-88650041D01*
X148897381Y-88701414D01*
X148967898Y-88852639D01*
X149093402Y-89031877D01*
X149248123Y-89186598D01*
X149427361Y-89312102D01*
X149625670Y-89404575D01*
X149837023Y-89461207D01*
X150019926Y-89477208D01*
X150054998Y-89480277D01*
X150055000Y-89480277D01*
X150055001Y-89480277D01*
X150070266Y-89478941D01*
X150175708Y-89469716D01*
X150244206Y-89483482D01*
X150274195Y-89505563D01*
X150393383Y-89624751D01*
X150426868Y-89686074D01*
X150423408Y-89751435D01*
X150419826Y-89762243D01*
X150409500Y-89863315D01*
X150409500Y-90461669D01*
X150409501Y-90461687D01*
X150419825Y-90562752D01*
X150474092Y-90726515D01*
X150474093Y-90726518D01*
X150564661Y-90873351D01*
X150678629Y-90987319D01*
X150712114Y-91048642D01*
X150707130Y-91118334D01*
X150678629Y-91162681D01*
X150564661Y-91276648D01*
X150474093Y-91423481D01*
X150474091Y-91423486D01*
X150450237Y-91495472D01*
X150419826Y-91587247D01*
X150419826Y-91587248D01*
X150419825Y-91587248D01*
X150409500Y-91688315D01*
X150409500Y-92286669D01*
X150409501Y-92286687D01*
X150419825Y-92387752D01*
X150474092Y-92551515D01*
X150474093Y-92551518D01*
X150494437Y-92584500D01*
X150564660Y-92698350D01*
X150686650Y-92820340D01*
X150833484Y-92910908D01*
X150997247Y-92965174D01*
X151098323Y-92975500D01*
X151671676Y-92975499D01*
X151671684Y-92975498D01*
X151671687Y-92975498D01*
X151727030Y-92969844D01*
X151772753Y-92965174D01*
X151936516Y-92910908D01*
X152083350Y-92820340D01*
X152129371Y-92774319D01*
X152190694Y-92740834D01*
X152217052Y-92738000D01*
X153435270Y-92738000D01*
X153502309Y-92757685D01*
X153522951Y-92774319D01*
X153945047Y-93196415D01*
X153978532Y-93257738D01*
X153973548Y-93327430D01*
X153931676Y-93383363D01*
X153868174Y-93407624D01*
X153784596Y-93414936D01*
X153784586Y-93414938D01*
X153556344Y-93476094D01*
X153556335Y-93476098D01*
X153342171Y-93575964D01*
X153342169Y-93575965D01*
X153148597Y-93711505D01*
X152981505Y-93878597D01*
X152851575Y-94064158D01*
X152796998Y-94107783D01*
X152727500Y-94114977D01*
X152665145Y-94083454D01*
X152648425Y-94064158D01*
X152518494Y-93878597D01*
X152351402Y-93711506D01*
X152351395Y-93711501D01*
X152157834Y-93575967D01*
X152157830Y-93575965D01*
X152157828Y-93575964D01*
X151943663Y-93476097D01*
X151943659Y-93476096D01*
X151943657Y-93476095D01*
X151813998Y-93441353D01*
X151784096Y-93428967D01*
X151779287Y-93426191D01*
X151779277Y-93426186D01*
X151611218Y-93375872D01*
X151611212Y-93375870D01*
X151611210Y-93375870D01*
X151611209Y-93375869D01*
X151611205Y-93375869D01*
X151436066Y-93365669D01*
X151436065Y-93365669D01*
X151378473Y-93375824D01*
X151263287Y-93396135D01*
X151263285Y-93396135D01*
X151187183Y-93428962D01*
X151170166Y-93434877D01*
X151016337Y-93476096D01*
X150802171Y-93575964D01*
X150802169Y-93575965D01*
X150608597Y-93711505D01*
X150441505Y-93878597D01*
X150311575Y-94064158D01*
X150256998Y-94107783D01*
X150187500Y-94114977D01*
X150125145Y-94083454D01*
X150108425Y-94064158D01*
X149978494Y-93878597D01*
X149811402Y-93711506D01*
X149811395Y-93711501D01*
X149617834Y-93575967D01*
X149617830Y-93575965D01*
X149617828Y-93575964D01*
X149403663Y-93476097D01*
X149403659Y-93476096D01*
X149403655Y-93476094D01*
X149175413Y-93414938D01*
X149175403Y-93414936D01*
X148940001Y-93394341D01*
X148939999Y-93394341D01*
X148704596Y-93414936D01*
X148704586Y-93414938D01*
X148476344Y-93476094D01*
X148476335Y-93476098D01*
X148262171Y-93575964D01*
X148262169Y-93575965D01*
X148068597Y-93711505D01*
X147901505Y-93878597D01*
X147771575Y-94064158D01*
X147716998Y-94107783D01*
X147647500Y-94114977D01*
X147585145Y-94083454D01*
X147568425Y-94064158D01*
X147438494Y-93878597D01*
X147271402Y-93711506D01*
X147271395Y-93711501D01*
X147077834Y-93575967D01*
X147077830Y-93575965D01*
X147077828Y-93575964D01*
X146863663Y-93476097D01*
X146863659Y-93476096D01*
X146863655Y-93476094D01*
X146635413Y-93414938D01*
X146635403Y-93414936D01*
X146400001Y-93394341D01*
X146399999Y-93394341D01*
X146164596Y-93414936D01*
X146164586Y-93414938D01*
X145936344Y-93476094D01*
X145936335Y-93476098D01*
X145722171Y-93575964D01*
X145722169Y-93575965D01*
X145528597Y-93711505D01*
X145361508Y-93878594D01*
X145231269Y-94064595D01*
X145176692Y-94108219D01*
X145107193Y-94115412D01*
X145044839Y-94083890D01*
X145028119Y-94064594D01*
X144898113Y-93878926D01*
X144898108Y-93878920D01*
X144731082Y-93711894D01*
X144537578Y-93576399D01*
X144323492Y-93476570D01*
X144323486Y-93476567D01*
X144110000Y-93419364D01*
X144110000Y-94314498D01*
X144002315Y-94265320D01*
X143895763Y-94250000D01*
X143824237Y-94250000D01*
X143717685Y-94265320D01*
X143610000Y-94314498D01*
X143610000Y-93419364D01*
X143609999Y-93419364D01*
X143396513Y-93476567D01*
X143396507Y-93476570D01*
X143182422Y-93576399D01*
X143182420Y-93576400D01*
X142988926Y-93711886D01*
X142988920Y-93711891D01*
X142821891Y-93878920D01*
X142821886Y-93878926D01*
X142686400Y-94072420D01*
X142686399Y-94072422D01*
X142586570Y-94286507D01*
X142586567Y-94286513D01*
X142529364Y-94499999D01*
X142529364Y-94500000D01*
X143426314Y-94500000D01*
X143400507Y-94540156D01*
X143360000Y-94678111D01*
X143360000Y-94821889D01*
X143400507Y-94959844D01*
X143426314Y-95000000D01*
X142529364Y-95000000D01*
X142586567Y-95213486D01*
X142586570Y-95213492D01*
X142686399Y-95427578D01*
X142821894Y-95621082D01*
X142988917Y-95788105D01*
X143182421Y-95923600D01*
X143396507Y-96023429D01*
X143396516Y-96023433D01*
X143610000Y-96080634D01*
X143610000Y-95185501D01*
X143717685Y-95234680D01*
X143824237Y-95250000D01*
X143895763Y-95250000D01*
X144002315Y-95234680D01*
X144110000Y-95185501D01*
X144110000Y-96080633D01*
X144323483Y-96023433D01*
X144323492Y-96023429D01*
X144537578Y-95923600D01*
X144731082Y-95788105D01*
X144898105Y-95621082D01*
X145028119Y-95435405D01*
X145082696Y-95391781D01*
X145152195Y-95384588D01*
X145214549Y-95416110D01*
X145231269Y-95435405D01*
X145361505Y-95621401D01*
X145528599Y-95788495D01*
X145625384Y-95856265D01*
X145722165Y-95924032D01*
X145722167Y-95924033D01*
X145722170Y-95924035D01*
X145936337Y-96023903D01*
X146164592Y-96085063D01*
X146344337Y-96100789D01*
X146399999Y-96105659D01*
X146400000Y-96105659D01*
X146400001Y-96105659D01*
X146455663Y-96100789D01*
X146635408Y-96085063D01*
X146863663Y-96023903D01*
X147077830Y-95924035D01*
X147271401Y-95788495D01*
X147438495Y-95621401D01*
X147568425Y-95435842D01*
X147623002Y-95392217D01*
X147692500Y-95385023D01*
X147754855Y-95416546D01*
X147771575Y-95435842D01*
X147901281Y-95621082D01*
X147901505Y-95621401D01*
X148068599Y-95788495D01*
X148165384Y-95856265D01*
X148262165Y-95924032D01*
X148262167Y-95924033D01*
X148262170Y-95924035D01*
X148476337Y-96023903D01*
X148704592Y-96085063D01*
X148884337Y-96100789D01*
X148939999Y-96105659D01*
X148940000Y-96105659D01*
X148940001Y-96105659D01*
X148995663Y-96100789D01*
X149175408Y-96085063D01*
X149403663Y-96023903D01*
X149617830Y-95924035D01*
X149811401Y-95788495D01*
X149978495Y-95621401D01*
X150108425Y-95435842D01*
X150163002Y-95392217D01*
X150232500Y-95385023D01*
X150294855Y-95416546D01*
X150311575Y-95435842D01*
X150441281Y-95621082D01*
X150441505Y-95621401D01*
X150608599Y-95788495D01*
X150705384Y-95856265D01*
X150802165Y-95924032D01*
X150802167Y-95924033D01*
X150802170Y-95924035D01*
X151016337Y-96023903D01*
X151244592Y-96085063D01*
X151424337Y-96100789D01*
X151479999Y-96105659D01*
X151480000Y-96105659D01*
X151480001Y-96105659D01*
X151515284Y-96102571D01*
X151693013Y-96087022D01*
X151761512Y-96100788D01*
X151791501Y-96122869D01*
X154954270Y-99285638D01*
X154966051Y-99299270D01*
X154980388Y-99318528D01*
X155020409Y-99352111D01*
X155024397Y-99355766D01*
X155030216Y-99361585D01*
X155030220Y-99361588D01*
X155030223Y-99361591D01*
X155055959Y-99381940D01*
X155114786Y-99431302D01*
X155114787Y-99431302D01*
X155114789Y-99431304D01*
X155120818Y-99435270D01*
X155120785Y-99435319D01*
X155127147Y-99439372D01*
X155127179Y-99439321D01*
X155133319Y-99443108D01*
X155133323Y-99443111D01*
X155168132Y-99459343D01*
X155202941Y-99475575D01*
X155221336Y-99484813D01*
X155271567Y-99510040D01*
X155271569Y-99510040D01*
X155278357Y-99512511D01*
X155278336Y-99512567D01*
X155285457Y-99515043D01*
X155285476Y-99514986D01*
X155292322Y-99517254D01*
X155292327Y-99517257D01*
X155292332Y-99517258D01*
X155292335Y-99517259D01*
X155367565Y-99532792D01*
X155442279Y-99550500D01*
X155442282Y-99550500D01*
X155442286Y-99550501D01*
X155449453Y-99551339D01*
X155449446Y-99551398D01*
X155456944Y-99552164D01*
X155456950Y-99552105D01*
X155464139Y-99552734D01*
X155464143Y-99552733D01*
X155464144Y-99552734D01*
X155540917Y-99550500D01*
X164386295Y-99550500D01*
X164404265Y-99551809D01*
X164428023Y-99555289D01*
X164480068Y-99550735D01*
X164485470Y-99550500D01*
X164493704Y-99550500D01*
X164493709Y-99550500D01*
X164505327Y-99549141D01*
X164526276Y-99546693D01*
X164539028Y-99545577D01*
X164602797Y-99539999D01*
X164602805Y-99539996D01*
X164609866Y-99538539D01*
X164609878Y-99538598D01*
X164617243Y-99536965D01*
X164617229Y-99536906D01*
X164624246Y-99535241D01*
X164624255Y-99535241D01*
X164696423Y-99508974D01*
X164769334Y-99484814D01*
X164769343Y-99484807D01*
X164775882Y-99481760D01*
X164775908Y-99481816D01*
X164782690Y-99478532D01*
X164782663Y-99478478D01*
X164789106Y-99475240D01*
X164789117Y-99475237D01*
X164853283Y-99433034D01*
X164918656Y-99392712D01*
X164918662Y-99392705D01*
X164924325Y-99388229D01*
X164924363Y-99388277D01*
X164930200Y-99383522D01*
X164930161Y-99383475D01*
X164935696Y-99378830D01*
X164988385Y-99322983D01*
X165512010Y-98799357D01*
X166035642Y-98275724D01*
X166049271Y-98263947D01*
X166068530Y-98249610D01*
X166102101Y-98209601D01*
X166105761Y-98205606D01*
X166111590Y-98199778D01*
X166131941Y-98174039D01*
X166137948Y-98166879D01*
X166181302Y-98115214D01*
X166181306Y-98115205D01*
X166185274Y-98109175D01*
X166185325Y-98109208D01*
X166189372Y-98102856D01*
X166189320Y-98102824D01*
X166193110Y-98096678D01*
X166193109Y-98096678D01*
X166193111Y-98096677D01*
X166196904Y-98088543D01*
X166243074Y-98036102D01*
X166244100Y-98035461D01*
X166248350Y-98032840D01*
X166370340Y-97910850D01*
X166460908Y-97764016D01*
X166515174Y-97600253D01*
X166525500Y-97499177D01*
X166525499Y-97337229D01*
X166545183Y-97270190D01*
X166561813Y-97249553D01*
X166910642Y-96900724D01*
X166924271Y-96888947D01*
X166943530Y-96874610D01*
X166977101Y-96834601D01*
X166980761Y-96830606D01*
X166986590Y-96824778D01*
X167006941Y-96799039D01*
X167029188Y-96772526D01*
X167056302Y-96740214D01*
X167056306Y-96740205D01*
X167060274Y-96734175D01*
X167060325Y-96734208D01*
X167064372Y-96727856D01*
X167064320Y-96727824D01*
X167068112Y-96721675D01*
X167100575Y-96652058D01*
X167135036Y-96583440D01*
X167135040Y-96583433D01*
X167135042Y-96583421D01*
X167137509Y-96576646D01*
X167137567Y-96576667D01*
X167140043Y-96569546D01*
X167139986Y-96569528D01*
X167142257Y-96562673D01*
X167157792Y-96487434D01*
X167160739Y-96474999D01*
X167175500Y-96412721D01*
X167175500Y-96412710D01*
X167176338Y-96405548D01*
X167176398Y-96405555D01*
X167177164Y-96398055D01*
X167177105Y-96398050D01*
X167177734Y-96390860D01*
X167175500Y-96314082D01*
X167175500Y-83485172D01*
X167181569Y-83446854D01*
X167218111Y-83334388D01*
X167236497Y-83277803D01*
X167255185Y-83100000D01*
X167236497Y-82922197D01*
X167181250Y-82752165D01*
X167091859Y-82597335D01*
X167016687Y-82513848D01*
X166972235Y-82464478D01*
X166972232Y-82464476D01*
X166972231Y-82464475D01*
X166972230Y-82464474D01*
X166827593Y-82359388D01*
X166664267Y-82286671D01*
X166664265Y-82286670D01*
X166536594Y-82259533D01*
X166489391Y-82249500D01*
X166310609Y-82249500D01*
X166279954Y-82256015D01*
X166135733Y-82286670D01*
X166135728Y-82286672D01*
X165972408Y-82359387D01*
X165827768Y-82464475D01*
X165708140Y-82597336D01*
X165618750Y-82752164D01*
X165618747Y-82752170D01*
X165563504Y-82922192D01*
X165563503Y-82922194D01*
X165544815Y-83100000D01*
X165563503Y-83277805D01*
X165563504Y-83277807D01*
X165618747Y-83447829D01*
X165618750Y-83447835D01*
X165657887Y-83515621D01*
X165674500Y-83577621D01*
X165674500Y-90211608D01*
X165654815Y-90278647D01*
X165602011Y-90324402D01*
X165532853Y-90334346D01*
X165469297Y-90305321D01*
X165448925Y-90282731D01*
X165323494Y-90103597D01*
X165156404Y-89936507D01*
X165088375Y-89888872D01*
X165044751Y-89834294D01*
X165035500Y-89787298D01*
X165035500Y-85578705D01*
X165036809Y-85560735D01*
X165038225Y-85551065D01*
X165040289Y-85536977D01*
X165035735Y-85484933D01*
X165035500Y-85479532D01*
X165035500Y-85471297D01*
X165035500Y-85471291D01*
X165031691Y-85438707D01*
X165024998Y-85362202D01*
X165024996Y-85362197D01*
X165023538Y-85355133D01*
X165023597Y-85355120D01*
X165021967Y-85347764D01*
X165021908Y-85347779D01*
X165020242Y-85340753D01*
X165020241Y-85340745D01*
X164993973Y-85268573D01*
X164992559Y-85264306D01*
X164969815Y-85195666D01*
X164966763Y-85189121D01*
X164966817Y-85189095D01*
X164963533Y-85182312D01*
X164963480Y-85182340D01*
X164960238Y-85175885D01*
X164960237Y-85175883D01*
X164918029Y-85111709D01*
X164877711Y-85046344D01*
X164877710Y-85046343D01*
X164877709Y-85046341D01*
X164873233Y-85040681D01*
X164873280Y-85040643D01*
X164868519Y-85034799D01*
X164868474Y-85034838D01*
X164863834Y-85029308D01*
X164807964Y-84976596D01*
X163482646Y-83651279D01*
X163449161Y-83589956D01*
X163450122Y-83533155D01*
X163454562Y-83515621D01*
X163455876Y-83510434D01*
X163457450Y-83491444D01*
X163475385Y-83275005D01*
X163475385Y-83274994D01*
X163455876Y-83039569D01*
X163455876Y-83039566D01*
X163397883Y-82810555D01*
X163302986Y-82594212D01*
X163218225Y-82464475D01*
X163173777Y-82396441D01*
X163108014Y-82325004D01*
X163077092Y-82262350D01*
X163084952Y-82192923D01*
X163129099Y-82138768D01*
X163155912Y-82124839D01*
X163212326Y-82103798D01*
X163212326Y-82103797D01*
X163212331Y-82103796D01*
X163327546Y-82017546D01*
X163413796Y-81902331D01*
X163464091Y-81767483D01*
X163470500Y-81707873D01*
X163470499Y-79762128D01*
X163464091Y-79702517D01*
X163423179Y-79592827D01*
X163413797Y-79567671D01*
X163413793Y-79567664D01*
X163327547Y-79452455D01*
X163327544Y-79452452D01*
X163212335Y-79366206D01*
X163212328Y-79366202D01*
X163077482Y-79315908D01*
X163077483Y-79315908D01*
X163017883Y-79309501D01*
X163017881Y-79309500D01*
X163017873Y-79309500D01*
X163017865Y-79309500D01*
X162919500Y-79309500D01*
X162852461Y-79289815D01*
X162806706Y-79237011D01*
X162795500Y-79185500D01*
X162795500Y-78327229D01*
X162815185Y-78260190D01*
X162831815Y-78239552D01*
X163334549Y-77736817D01*
X163395872Y-77703333D01*
X163422230Y-77700499D01*
X163584170Y-77700499D01*
X163584176Y-77700499D01*
X163685253Y-77690174D01*
X163849016Y-77635908D01*
X163995850Y-77545340D01*
X164109819Y-77431371D01*
X164171142Y-77397886D01*
X164240834Y-77402870D01*
X164285181Y-77431371D01*
X164399150Y-77545340D01*
X164545984Y-77635908D01*
X164709747Y-77690174D01*
X164810823Y-77700500D01*
X164972768Y-77700499D01*
X165039808Y-77720183D01*
X165060450Y-77736818D01*
X169044267Y-81720634D01*
X169056046Y-81734264D01*
X169059960Y-81739521D01*
X169084207Y-81805048D01*
X169084500Y-81813572D01*
X169084500Y-82132869D01*
X169084501Y-82132876D01*
X169090908Y-82192483D01*
X169141202Y-82327328D01*
X169141203Y-82327330D01*
X169218578Y-82430689D01*
X169242995Y-82496153D01*
X169228144Y-82564426D01*
X169218578Y-82579311D01*
X169141203Y-82682669D01*
X169141202Y-82682671D01*
X169090908Y-82817517D01*
X169087058Y-82853331D01*
X169084501Y-82877123D01*
X169084500Y-82877135D01*
X169084500Y-84672870D01*
X169084501Y-84672876D01*
X169090908Y-84732483D01*
X169141202Y-84867328D01*
X169141203Y-84867330D01*
X169218578Y-84970689D01*
X169242995Y-85036153D01*
X169228144Y-85104426D01*
X169218578Y-85119311D01*
X169141203Y-85222669D01*
X169141202Y-85222671D01*
X169090908Y-85357517D01*
X169090306Y-85363121D01*
X169084501Y-85417123D01*
X169084500Y-85417135D01*
X169084500Y-87212870D01*
X169084501Y-87212876D01*
X169090908Y-87272483D01*
X169141202Y-87407328D01*
X169141203Y-87407330D01*
X169218578Y-87510689D01*
X169242995Y-87576153D01*
X169228144Y-87644426D01*
X169218578Y-87659311D01*
X169141203Y-87762669D01*
X169141202Y-87762671D01*
X169090908Y-87897517D01*
X169084624Y-87955976D01*
X169084501Y-87957123D01*
X169084500Y-87957135D01*
X169084500Y-89752870D01*
X169084501Y-89752876D01*
X169090908Y-89812483D01*
X169141202Y-89947328D01*
X169141206Y-89947335D01*
X169218889Y-90051105D01*
X169243307Y-90116569D01*
X169228456Y-90184842D01*
X169218890Y-90199727D01*
X169141647Y-90302910D01*
X169141645Y-90302913D01*
X169091403Y-90437620D01*
X169091401Y-90437627D01*
X169085000Y-90497155D01*
X169085000Y-91145000D01*
X171789428Y-91145000D01*
X171766318Y-91180960D01*
X171725000Y-91321673D01*
X171725000Y-91468327D01*
X171766318Y-91609040D01*
X171789428Y-91645000D01*
X169085000Y-91645000D01*
X169085000Y-92292844D01*
X169091401Y-92352372D01*
X169091403Y-92352379D01*
X169141645Y-92487086D01*
X169141646Y-92487088D01*
X169218890Y-92590272D01*
X169243307Y-92655736D01*
X169228456Y-92724009D01*
X169218890Y-92738894D01*
X169141204Y-92842669D01*
X169141202Y-92842671D01*
X169090908Y-92977517D01*
X169084501Y-93037116D01*
X169084501Y-93037123D01*
X169084500Y-93037135D01*
X169084500Y-94832870D01*
X169084501Y-94832876D01*
X169090908Y-94892483D01*
X169141202Y-95027328D01*
X169141203Y-95027330D01*
X169218578Y-95130689D01*
X169242995Y-95196153D01*
X169228144Y-95264426D01*
X169218578Y-95279311D01*
X169141203Y-95382669D01*
X169141202Y-95382671D01*
X169090908Y-95517517D01*
X169086614Y-95557461D01*
X169084501Y-95577123D01*
X169084500Y-95577135D01*
X169084500Y-97372870D01*
X169084501Y-97372876D01*
X169090908Y-97432483D01*
X169141202Y-97567328D01*
X169141206Y-97567335D01*
X169227452Y-97682544D01*
X169227455Y-97682547D01*
X169342664Y-97768793D01*
X169342671Y-97768797D01*
X169477517Y-97819091D01*
X169477516Y-97819091D01*
X169484444Y-97819835D01*
X169537127Y-97825500D01*
X172173317Y-97825499D01*
X172178721Y-97825734D01*
X172201774Y-97827751D01*
X172234999Y-97830659D01*
X172234999Y-97830658D01*
X172235000Y-97830659D01*
X172291280Y-97825734D01*
X172296682Y-97825499D01*
X173132871Y-97825499D01*
X173132872Y-97825499D01*
X173192483Y-97819091D01*
X173327331Y-97768796D01*
X173442546Y-97682546D01*
X173528796Y-97567331D01*
X173579091Y-97432483D01*
X173585500Y-97372873D01*
X173585499Y-96536677D01*
X173585735Y-96531272D01*
X173590659Y-96475000D01*
X173590659Y-96474999D01*
X173585735Y-96418726D01*
X173585499Y-96413319D01*
X173585499Y-96245001D01*
X177229341Y-96245001D01*
X177234264Y-96301269D01*
X177234500Y-96306675D01*
X177234500Y-98942870D01*
X177234501Y-98942876D01*
X177240908Y-99002483D01*
X177291202Y-99137328D01*
X177291206Y-99137335D01*
X177377452Y-99252544D01*
X177377455Y-99252547D01*
X177492664Y-99338793D01*
X177492671Y-99338797D01*
X177627517Y-99389091D01*
X177627516Y-99389091D01*
X177634444Y-99389835D01*
X177687127Y-99395500D01*
X179482872Y-99395499D01*
X179542483Y-99389091D01*
X179677331Y-99338796D01*
X179781106Y-99261109D01*
X179846570Y-99236692D01*
X179914843Y-99251543D01*
X179929729Y-99261110D01*
X180032910Y-99338352D01*
X180032913Y-99338354D01*
X180167620Y-99388596D01*
X180167627Y-99388598D01*
X180227155Y-99394999D01*
X180227172Y-99395000D01*
X180875000Y-99395000D01*
X180875000Y-96691494D01*
X180979839Y-96739373D01*
X181088527Y-96755000D01*
X181161473Y-96755000D01*
X181270161Y-96739373D01*
X181375000Y-96691494D01*
X181375000Y-99395000D01*
X182022828Y-99395000D01*
X182022844Y-99394999D01*
X182082372Y-99388598D01*
X182082379Y-99388596D01*
X182217086Y-99338354D01*
X182217089Y-99338352D01*
X182320271Y-99261110D01*
X182385735Y-99236692D01*
X182454008Y-99251543D01*
X182468888Y-99261105D01*
X182551546Y-99322983D01*
X182572668Y-99338795D01*
X182572671Y-99338797D01*
X182707517Y-99389091D01*
X182707516Y-99389091D01*
X182714444Y-99389835D01*
X182767127Y-99395500D01*
X184562872Y-99395499D01*
X184622483Y-99389091D01*
X184757331Y-99338796D01*
X184872546Y-99252546D01*
X184958796Y-99137331D01*
X185009091Y-99002483D01*
X185015500Y-98942873D01*
X185015499Y-96475001D01*
X188659341Y-96475001D01*
X188664264Y-96531271D01*
X188664500Y-96536677D01*
X188664500Y-97372870D01*
X188664501Y-97372876D01*
X188670908Y-97432483D01*
X188721202Y-97567328D01*
X188721206Y-97567335D01*
X188807452Y-97682544D01*
X188807455Y-97682547D01*
X188922664Y-97768793D01*
X188922671Y-97768797D01*
X189057517Y-97819091D01*
X189057516Y-97819091D01*
X189064444Y-97819835D01*
X189117127Y-97825500D01*
X189953322Y-97825499D01*
X189958727Y-97825734D01*
X190015000Y-97830659D01*
X190071272Y-97825734D01*
X190076678Y-97825499D01*
X192712871Y-97825499D01*
X192712872Y-97825499D01*
X192772483Y-97819091D01*
X192907331Y-97768796D01*
X193022546Y-97682546D01*
X193108796Y-97567331D01*
X193159091Y-97432483D01*
X193165500Y-97372873D01*
X193165499Y-95577128D01*
X193159091Y-95517517D01*
X193128628Y-95435842D01*
X193108797Y-95382671D01*
X193108795Y-95382668D01*
X193082195Y-95347135D01*
X193031421Y-95279309D01*
X193007004Y-95213848D01*
X193021855Y-95145575D01*
X193031416Y-95130696D01*
X193108796Y-95027331D01*
X193159091Y-94892483D01*
X193165500Y-94832873D01*
X193165499Y-93037128D01*
X193159091Y-92977517D01*
X193158338Y-92975499D01*
X193108797Y-92842671D01*
X193108795Y-92842668D01*
X193031109Y-92738893D01*
X193006692Y-92673430D01*
X193021543Y-92605157D01*
X193031110Y-92590271D01*
X193108352Y-92487089D01*
X193108354Y-92487086D01*
X193158596Y-92352379D01*
X193158598Y-92352372D01*
X193164999Y-92292844D01*
X193165000Y-92292827D01*
X193165000Y-91645000D01*
X190460572Y-91645000D01*
X190483682Y-91609040D01*
X190525000Y-91468327D01*
X190525000Y-91321673D01*
X190483682Y-91180960D01*
X190460572Y-91145000D01*
X193165000Y-91145000D01*
X193165000Y-90497172D01*
X193164999Y-90497155D01*
X193158598Y-90437627D01*
X193158596Y-90437620D01*
X193108354Y-90302913D01*
X193108352Y-90302910D01*
X193031110Y-90199729D01*
X193006692Y-90134265D01*
X193021543Y-90065992D01*
X193031105Y-90051111D01*
X193108796Y-89947331D01*
X193159091Y-89812483D01*
X193165500Y-89752873D01*
X193165499Y-87957128D01*
X193159091Y-87897517D01*
X193158051Y-87894729D01*
X193108797Y-87762671D01*
X193108795Y-87762668D01*
X193098695Y-87749176D01*
X193031421Y-87659309D01*
X193007004Y-87593848D01*
X193021855Y-87525575D01*
X193031416Y-87510696D01*
X193108796Y-87407331D01*
X193159091Y-87272483D01*
X193165500Y-87212873D01*
X193165499Y-85417128D01*
X193159091Y-85357517D01*
X193156927Y-85351716D01*
X193108797Y-85222671D01*
X193108795Y-85222668D01*
X193095344Y-85204700D01*
X193031421Y-85119309D01*
X193007004Y-85053848D01*
X193021855Y-84985575D01*
X193031416Y-84970696D01*
X193108796Y-84867331D01*
X193159091Y-84732483D01*
X193165500Y-84672873D01*
X193165499Y-82877128D01*
X193159091Y-82817517D01*
X193156494Y-82810555D01*
X193108797Y-82682671D01*
X193108795Y-82682668D01*
X193067259Y-82627183D01*
X193031421Y-82579309D01*
X193007004Y-82513848D01*
X193021855Y-82445575D01*
X193031416Y-82430696D01*
X193108796Y-82327331D01*
X193159091Y-82192483D01*
X193165500Y-82132873D01*
X193165499Y-80337128D01*
X193159091Y-80277517D01*
X193142294Y-80232483D01*
X193108797Y-80142671D01*
X193108795Y-80142668D01*
X193031109Y-80038893D01*
X193006692Y-79973430D01*
X193021543Y-79905157D01*
X193031110Y-79890271D01*
X193108352Y-79787089D01*
X193108354Y-79787086D01*
X193158596Y-79652379D01*
X193158598Y-79652372D01*
X193164999Y-79592844D01*
X193165000Y-79592827D01*
X193165000Y-78945000D01*
X190460572Y-78945000D01*
X190483682Y-78909040D01*
X190525000Y-78768327D01*
X190525000Y-78621673D01*
X190483682Y-78480960D01*
X190460572Y-78445000D01*
X193165000Y-78445000D01*
X193165000Y-77797172D01*
X193164999Y-77797155D01*
X193158598Y-77737627D01*
X193158596Y-77737620D01*
X193108354Y-77602913D01*
X193108352Y-77602910D01*
X193031110Y-77499729D01*
X193006692Y-77434265D01*
X193021543Y-77365992D01*
X193031105Y-77351111D01*
X193108796Y-77247331D01*
X193159091Y-77112483D01*
X193165500Y-77052873D01*
X193165499Y-75257128D01*
X193159091Y-75197517D01*
X193108796Y-75062669D01*
X193031421Y-74959309D01*
X193007004Y-74893848D01*
X193021855Y-74825575D01*
X193031416Y-74810696D01*
X193108796Y-74707331D01*
X193159091Y-74572483D01*
X193165500Y-74512873D01*
X193165499Y-72717128D01*
X193159091Y-72657517D01*
X193116623Y-72543655D01*
X193108797Y-72522671D01*
X193108795Y-72522668D01*
X193031421Y-72419309D01*
X193007004Y-72353848D01*
X193021855Y-72285575D01*
X193031416Y-72270696D01*
X193108796Y-72167331D01*
X193159091Y-72032483D01*
X193165500Y-71972873D01*
X193165499Y-70177128D01*
X193159763Y-70123772D01*
X193159091Y-70117516D01*
X193108797Y-69982671D01*
X193108795Y-69982668D01*
X193095178Y-69964478D01*
X193031421Y-69879309D01*
X193007004Y-69813848D01*
X193021855Y-69745575D01*
X193031416Y-69730696D01*
X193108796Y-69627331D01*
X193159091Y-69492483D01*
X193165500Y-69432873D01*
X193165499Y-67637128D01*
X193159091Y-67577517D01*
X193128635Y-67495861D01*
X193108797Y-67442671D01*
X193108795Y-67442668D01*
X193082591Y-67407664D01*
X193031421Y-67339309D01*
X193007004Y-67273848D01*
X193021855Y-67205575D01*
X193031416Y-67190696D01*
X193108796Y-67087331D01*
X193159091Y-66952483D01*
X193165500Y-66892873D01*
X193165499Y-65097128D01*
X193159091Y-65037517D01*
X193128635Y-64955861D01*
X193108797Y-64902671D01*
X193108795Y-64902668D01*
X193103466Y-64895549D01*
X193031421Y-64799309D01*
X193007004Y-64733848D01*
X193021855Y-64665575D01*
X193031416Y-64650696D01*
X193108796Y-64547331D01*
X193159091Y-64412483D01*
X193165500Y-64352873D01*
X193165499Y-62557128D01*
X193159091Y-62497517D01*
X193128635Y-62415861D01*
X193108797Y-62362671D01*
X193108795Y-62362668D01*
X193059862Y-62297302D01*
X193031421Y-62259309D01*
X193007004Y-62193848D01*
X193021855Y-62125575D01*
X193031416Y-62110696D01*
X193108796Y-62007331D01*
X193159091Y-61872483D01*
X193165500Y-61812873D01*
X193165499Y-60017128D01*
X193159091Y-59957517D01*
X193140637Y-59908040D01*
X193108797Y-59822671D01*
X193108795Y-59822668D01*
X193031421Y-59719309D01*
X193007004Y-59653848D01*
X193021855Y-59585575D01*
X193031416Y-59570696D01*
X193108796Y-59467331D01*
X193159091Y-59332483D01*
X193165500Y-59272873D01*
X193165499Y-57477128D01*
X193159091Y-57417517D01*
X193134095Y-57350500D01*
X193108797Y-57282671D01*
X193108795Y-57282668D01*
X193104639Y-57277116D01*
X193031421Y-57179309D01*
X193007004Y-57113848D01*
X193021855Y-57045575D01*
X193031416Y-57030696D01*
X193108796Y-56927331D01*
X193159091Y-56792483D01*
X193165500Y-56732873D01*
X193165499Y-54937128D01*
X193159091Y-54877517D01*
X193139690Y-54825501D01*
X193108797Y-54742671D01*
X193108795Y-54742668D01*
X193031109Y-54638893D01*
X193006692Y-54573430D01*
X193021543Y-54505157D01*
X193031110Y-54490271D01*
X193108352Y-54387089D01*
X193108354Y-54387086D01*
X193158596Y-54252379D01*
X193158598Y-54252372D01*
X193164999Y-54192844D01*
X193165000Y-54192827D01*
X193165000Y-53545000D01*
X190460572Y-53545000D01*
X190483682Y-53509040D01*
X190525000Y-53368327D01*
X190525000Y-53221673D01*
X190483682Y-53080960D01*
X190460572Y-53045000D01*
X193165000Y-53045000D01*
X193165000Y-52397172D01*
X193164999Y-52397155D01*
X193158598Y-52337627D01*
X193158596Y-52337620D01*
X193108354Y-52202913D01*
X193108352Y-52202910D01*
X193031110Y-52099729D01*
X193006692Y-52034265D01*
X193021543Y-51965992D01*
X193031105Y-51951111D01*
X193108796Y-51847331D01*
X193159091Y-51712483D01*
X193165500Y-51652873D01*
X193165499Y-49857128D01*
X193159091Y-49797517D01*
X193148728Y-49769733D01*
X193108797Y-49662671D01*
X193108795Y-49662668D01*
X193098011Y-49648262D01*
X193031421Y-49559309D01*
X193007004Y-49493848D01*
X193021855Y-49425575D01*
X193031416Y-49410696D01*
X193108796Y-49307331D01*
X193159091Y-49172483D01*
X193165500Y-49112873D01*
X193165499Y-47317128D01*
X193159091Y-47257517D01*
X193156817Y-47251421D01*
X193108797Y-47122671D01*
X193108793Y-47122664D01*
X193022547Y-47007455D01*
X193022544Y-47007452D01*
X192907335Y-46921206D01*
X192907328Y-46921202D01*
X192772482Y-46870908D01*
X192772483Y-46870908D01*
X192712883Y-46864501D01*
X192712881Y-46864500D01*
X192712873Y-46864500D01*
X192712865Y-46864500D01*
X190076680Y-46864500D01*
X190071278Y-46864264D01*
X190032494Y-46860871D01*
X190015001Y-46859341D01*
X190014998Y-46859341D01*
X189987715Y-46861727D01*
X189958719Y-46864264D01*
X189953319Y-46864500D01*
X189117129Y-46864500D01*
X189117123Y-46864501D01*
X189057516Y-46870908D01*
X188922671Y-46921202D01*
X188922664Y-46921206D01*
X188807455Y-47007452D01*
X188807452Y-47007455D01*
X188721206Y-47122664D01*
X188721202Y-47122671D01*
X188670908Y-47257517D01*
X188664877Y-47313621D01*
X188664501Y-47317123D01*
X188664500Y-47317135D01*
X188664500Y-48153322D01*
X188664264Y-48158728D01*
X188659341Y-48214998D01*
X188659341Y-48215001D01*
X188664264Y-48271271D01*
X188664500Y-48276677D01*
X188664500Y-49112870D01*
X188664501Y-49112876D01*
X188670908Y-49172483D01*
X188721202Y-49307328D01*
X188721203Y-49307330D01*
X188798578Y-49410689D01*
X188822995Y-49476153D01*
X188808144Y-49544426D01*
X188798578Y-49559311D01*
X188721203Y-49662669D01*
X188721202Y-49662671D01*
X188670908Y-49797517D01*
X188664501Y-49857116D01*
X188664501Y-49857123D01*
X188664500Y-49857135D01*
X188664500Y-50693322D01*
X188664264Y-50698728D01*
X188659341Y-50754998D01*
X188659341Y-50755001D01*
X188664264Y-50811271D01*
X188664500Y-50816677D01*
X188664500Y-51652870D01*
X188664501Y-51652876D01*
X188670908Y-51712483D01*
X188721202Y-51847328D01*
X188721206Y-51847335D01*
X188798889Y-51951105D01*
X188823307Y-52016569D01*
X188808456Y-52084842D01*
X188798890Y-52099727D01*
X188721647Y-52202910D01*
X188721645Y-52202913D01*
X188671403Y-52337620D01*
X188671401Y-52337627D01*
X188665000Y-52397155D01*
X188665000Y-53045000D01*
X189569428Y-53045000D01*
X189546318Y-53080960D01*
X189505000Y-53221673D01*
X189505000Y-53368327D01*
X189546318Y-53509040D01*
X189569428Y-53545000D01*
X188665000Y-53545000D01*
X188665000Y-54192844D01*
X188671401Y-54252372D01*
X188671403Y-54252379D01*
X188721645Y-54387086D01*
X188721646Y-54387088D01*
X188798890Y-54490272D01*
X188823307Y-54555736D01*
X188808456Y-54624009D01*
X188798890Y-54638894D01*
X188721204Y-54742669D01*
X188721202Y-54742671D01*
X188670908Y-54877517D01*
X188664501Y-54937116D01*
X188664501Y-54937123D01*
X188664500Y-54937135D01*
X188664500Y-55773322D01*
X188664264Y-55778728D01*
X188659958Y-55827952D01*
X188659341Y-55835000D01*
X188662758Y-55874064D01*
X188664264Y-55891271D01*
X188664500Y-55896677D01*
X188664500Y-56732870D01*
X188664501Y-56732876D01*
X188670908Y-56792483D01*
X188721202Y-56927328D01*
X188721203Y-56927330D01*
X188798578Y-57030689D01*
X188822995Y-57096153D01*
X188808144Y-57164426D01*
X188798578Y-57179311D01*
X188721203Y-57282669D01*
X188721202Y-57282671D01*
X188670908Y-57417517D01*
X188665987Y-57463294D01*
X188664501Y-57477123D01*
X188664500Y-57477135D01*
X188664500Y-58313322D01*
X188664264Y-58318728D01*
X188659341Y-58374998D01*
X188659341Y-58375001D01*
X188664264Y-58431271D01*
X188664500Y-58436677D01*
X188664500Y-59272870D01*
X188664501Y-59272876D01*
X188670908Y-59332483D01*
X188721202Y-59467328D01*
X188721203Y-59467330D01*
X188721204Y-59467331D01*
X188797158Y-59568793D01*
X188798578Y-59570689D01*
X188822995Y-59636153D01*
X188808144Y-59704426D01*
X188798578Y-59719311D01*
X188721203Y-59822669D01*
X188721202Y-59822671D01*
X188670908Y-59957517D01*
X188664925Y-60013171D01*
X188664501Y-60017123D01*
X188664500Y-60017135D01*
X188664500Y-60853322D01*
X188664264Y-60858728D01*
X188659341Y-60914998D01*
X188659341Y-60915001D01*
X188664264Y-60971271D01*
X188664500Y-60976677D01*
X188664500Y-61812870D01*
X188664501Y-61812876D01*
X188670908Y-61872483D01*
X188721202Y-62007328D01*
X188721203Y-62007330D01*
X188731036Y-62020465D01*
X188781659Y-62088089D01*
X188798578Y-62110689D01*
X188822995Y-62176153D01*
X188808144Y-62244426D01*
X188798578Y-62259311D01*
X188721203Y-62362669D01*
X188721202Y-62362671D01*
X188670908Y-62497517D01*
X188664501Y-62557116D01*
X188664501Y-62557123D01*
X188664500Y-62557135D01*
X188664500Y-63393322D01*
X188664264Y-63398728D01*
X188659341Y-63454998D01*
X188659341Y-63455001D01*
X188664264Y-63511271D01*
X188664500Y-63516677D01*
X188664500Y-64352870D01*
X188664501Y-64352876D01*
X188670908Y-64412483D01*
X188721202Y-64547328D01*
X188721203Y-64547330D01*
X188721204Y-64547331D01*
X188789321Y-64638324D01*
X188798578Y-64650689D01*
X188822995Y-64716153D01*
X188808144Y-64784426D01*
X188798578Y-64799309D01*
X188798265Y-64799729D01*
X188721203Y-64902669D01*
X188721202Y-64902671D01*
X188670908Y-65037517D01*
X188666095Y-65082288D01*
X188664501Y-65097123D01*
X188664500Y-65097135D01*
X188664500Y-66892870D01*
X188664501Y-66892876D01*
X188670908Y-66952483D01*
X188721202Y-67087328D01*
X188721203Y-67087330D01*
X188798578Y-67190689D01*
X188822995Y-67256153D01*
X188808144Y-67324426D01*
X188798578Y-67339311D01*
X188721203Y-67442669D01*
X188721202Y-67442671D01*
X188670908Y-67577517D01*
X188668262Y-67602135D01*
X188664501Y-67637123D01*
X188664500Y-67637135D01*
X188664500Y-68473322D01*
X188664264Y-68478728D01*
X188659795Y-68529815D01*
X188659341Y-68535000D01*
X188662984Y-68576648D01*
X188664264Y-68591271D01*
X188664500Y-68596677D01*
X188664500Y-69432870D01*
X188664501Y-69432876D01*
X188670908Y-69492483D01*
X188721202Y-69627328D01*
X188721203Y-69627330D01*
X188798578Y-69730689D01*
X188822995Y-69796153D01*
X188808144Y-69864426D01*
X188798578Y-69879311D01*
X188721203Y-69982669D01*
X188721202Y-69982671D01*
X188670908Y-70117517D01*
X188664501Y-70177116D01*
X188664501Y-70177123D01*
X188664500Y-70177135D01*
X188664500Y-71013322D01*
X188664264Y-71018728D01*
X188659341Y-71074998D01*
X188659341Y-71075001D01*
X188664264Y-71131271D01*
X188664500Y-71136677D01*
X188664500Y-71972870D01*
X188664501Y-71972876D01*
X188670908Y-72032483D01*
X188721202Y-72167328D01*
X188721203Y-72167330D01*
X188798578Y-72270689D01*
X188822995Y-72336153D01*
X188808144Y-72404426D01*
X188798578Y-72419311D01*
X188721203Y-72522669D01*
X188721202Y-72522671D01*
X188670908Y-72657517D01*
X188664501Y-72717116D01*
X188664501Y-72717123D01*
X188664500Y-72717135D01*
X188664500Y-73553322D01*
X188664264Y-73558723D01*
X188659341Y-73615000D01*
X188663084Y-73657790D01*
X188664264Y-73671271D01*
X188664500Y-73676677D01*
X188664500Y-74512870D01*
X188664501Y-74512876D01*
X188670908Y-74572483D01*
X188721202Y-74707328D01*
X188721203Y-74707330D01*
X188798578Y-74810689D01*
X188822995Y-74876153D01*
X188808144Y-74944426D01*
X188798578Y-74959311D01*
X188721203Y-75062669D01*
X188721202Y-75062671D01*
X188670908Y-75197517D01*
X188664501Y-75257116D01*
X188664501Y-75257123D01*
X188664500Y-75257135D01*
X188664500Y-76093322D01*
X188664264Y-76098728D01*
X188659341Y-76154998D01*
X188659341Y-76155001D01*
X188664264Y-76211271D01*
X188664500Y-76216677D01*
X188664500Y-77052870D01*
X188664501Y-77052876D01*
X188670908Y-77112483D01*
X188721202Y-77247328D01*
X188721206Y-77247335D01*
X188798889Y-77351105D01*
X188823307Y-77416569D01*
X188808456Y-77484842D01*
X188798890Y-77499727D01*
X188721647Y-77602910D01*
X188721645Y-77602913D01*
X188671403Y-77737620D01*
X188671401Y-77737627D01*
X188665000Y-77797155D01*
X188665000Y-78445000D01*
X189569428Y-78445000D01*
X189546318Y-78480960D01*
X189505000Y-78621673D01*
X189505000Y-78768327D01*
X189546318Y-78909040D01*
X189569428Y-78945000D01*
X188665000Y-78945000D01*
X188665000Y-79592844D01*
X188671401Y-79652372D01*
X188671403Y-79652379D01*
X188721645Y-79787086D01*
X188721646Y-79787088D01*
X188798890Y-79890272D01*
X188823307Y-79955736D01*
X188808456Y-80024009D01*
X188798890Y-80038894D01*
X188721204Y-80142669D01*
X188721202Y-80142671D01*
X188670908Y-80277517D01*
X188667040Y-80313498D01*
X188664501Y-80337123D01*
X188664500Y-80337135D01*
X188664500Y-81173322D01*
X188664264Y-81178728D01*
X188659341Y-81234998D01*
X188659341Y-81235001D01*
X188664264Y-81291271D01*
X188664500Y-81296677D01*
X188664500Y-82132870D01*
X188664501Y-82132876D01*
X188670908Y-82192483D01*
X188721202Y-82327328D01*
X188721203Y-82327330D01*
X188798578Y-82430689D01*
X188822995Y-82496153D01*
X188808144Y-82564426D01*
X188798578Y-82579311D01*
X188721203Y-82682669D01*
X188721202Y-82682671D01*
X188670908Y-82817517D01*
X188667058Y-82853331D01*
X188664501Y-82877123D01*
X188664500Y-82877135D01*
X188664500Y-83713322D01*
X188664264Y-83718728D01*
X188659341Y-83774998D01*
X188659341Y-83775001D01*
X188664264Y-83831271D01*
X188664500Y-83836677D01*
X188664500Y-84672870D01*
X188664501Y-84672876D01*
X188670908Y-84732483D01*
X188721202Y-84867328D01*
X188721203Y-84867330D01*
X188798578Y-84970689D01*
X188822995Y-85036153D01*
X188808144Y-85104426D01*
X188798578Y-85119311D01*
X188721203Y-85222669D01*
X188721202Y-85222671D01*
X188670908Y-85357517D01*
X188670306Y-85363121D01*
X188664501Y-85417123D01*
X188664500Y-85417135D01*
X188664500Y-86253322D01*
X188664264Y-86258728D01*
X188659341Y-86314998D01*
X188659341Y-86315001D01*
X188664264Y-86371271D01*
X188664500Y-86376677D01*
X188664500Y-87212870D01*
X188664501Y-87212876D01*
X188670908Y-87272483D01*
X188721202Y-87407328D01*
X188721203Y-87407330D01*
X188798578Y-87510689D01*
X188822995Y-87576153D01*
X188808144Y-87644426D01*
X188798578Y-87659311D01*
X188721203Y-87762669D01*
X188721202Y-87762671D01*
X188670908Y-87897517D01*
X188664624Y-87955976D01*
X188664501Y-87957123D01*
X188664500Y-87957135D01*
X188664500Y-88793322D01*
X188664264Y-88798728D01*
X188659341Y-88854998D01*
X188659341Y-88855001D01*
X188664264Y-88911271D01*
X188664500Y-88916677D01*
X188664500Y-89752870D01*
X188664501Y-89752876D01*
X188670908Y-89812483D01*
X188721202Y-89947328D01*
X188721206Y-89947335D01*
X188798889Y-90051105D01*
X188823307Y-90116569D01*
X188808456Y-90184842D01*
X188798890Y-90199727D01*
X188721647Y-90302910D01*
X188721645Y-90302913D01*
X188671403Y-90437620D01*
X188671401Y-90437627D01*
X188665000Y-90497155D01*
X188665000Y-91145000D01*
X189569428Y-91145000D01*
X189546318Y-91180960D01*
X189505000Y-91321673D01*
X189505000Y-91468327D01*
X189546318Y-91609040D01*
X189569428Y-91645000D01*
X188665000Y-91645000D01*
X188665000Y-92292844D01*
X188671401Y-92352372D01*
X188671403Y-92352379D01*
X188721645Y-92487086D01*
X188721646Y-92487088D01*
X188798890Y-92590272D01*
X188823307Y-92655736D01*
X188808456Y-92724009D01*
X188798890Y-92738894D01*
X188721204Y-92842669D01*
X188721202Y-92842671D01*
X188670908Y-92977517D01*
X188664501Y-93037116D01*
X188664501Y-93037123D01*
X188664500Y-93037135D01*
X188664500Y-93873322D01*
X188664264Y-93878723D01*
X188661626Y-93908875D01*
X188659341Y-93934998D01*
X188659341Y-93935001D01*
X188664264Y-93991271D01*
X188664500Y-93996677D01*
X188664500Y-94832870D01*
X188664501Y-94832876D01*
X188670908Y-94892483D01*
X188721202Y-95027328D01*
X188721203Y-95027330D01*
X188798578Y-95130689D01*
X188822995Y-95196153D01*
X188808144Y-95264426D01*
X188798578Y-95279311D01*
X188721203Y-95382669D01*
X188721202Y-95382671D01*
X188670908Y-95517517D01*
X188666614Y-95557461D01*
X188664501Y-95577123D01*
X188664500Y-95577135D01*
X188664500Y-96413322D01*
X188664264Y-96418728D01*
X188659341Y-96474998D01*
X188659341Y-96475001D01*
X185015499Y-96475001D01*
X185015499Y-96306675D01*
X185015735Y-96301274D01*
X185015736Y-96301269D01*
X185020659Y-96245000D01*
X185015734Y-96188720D01*
X185015499Y-96183316D01*
X185015499Y-95347129D01*
X185015498Y-95347123D01*
X185015497Y-95347116D01*
X185009091Y-95287517D01*
X185006030Y-95279311D01*
X184958797Y-95152671D01*
X184958793Y-95152664D01*
X184872547Y-95037455D01*
X184872544Y-95037452D01*
X184757335Y-94951206D01*
X184757328Y-94951202D01*
X184622482Y-94900908D01*
X184622483Y-94900908D01*
X184562883Y-94894501D01*
X184562881Y-94894500D01*
X184562873Y-94894500D01*
X184562865Y-94894500D01*
X183726677Y-94894500D01*
X183721275Y-94894264D01*
X183690849Y-94891602D01*
X183665002Y-94889341D01*
X183664999Y-94889341D01*
X183647750Y-94890849D01*
X183608722Y-94894264D01*
X183603322Y-94894500D01*
X182767129Y-94894500D01*
X182767123Y-94894501D01*
X182707516Y-94900908D01*
X182572671Y-94951202D01*
X182572669Y-94951204D01*
X182468894Y-95028890D01*
X182403430Y-95053307D01*
X182335157Y-95038456D01*
X182320272Y-95028890D01*
X182217088Y-94951646D01*
X182217086Y-94951645D01*
X182082379Y-94901403D01*
X182082372Y-94901401D01*
X182022844Y-94895000D01*
X181375000Y-94895000D01*
X181375000Y-95798505D01*
X181270161Y-95750627D01*
X181161473Y-95735000D01*
X181088527Y-95735000D01*
X180979839Y-95750627D01*
X180875000Y-95798505D01*
X180875000Y-94895000D01*
X180227155Y-94895000D01*
X180167627Y-94901401D01*
X180167620Y-94901403D01*
X180032913Y-94951645D01*
X180032910Y-94951647D01*
X179929727Y-95028890D01*
X179864262Y-95053307D01*
X179795989Y-95038455D01*
X179781105Y-95028889D01*
X179677335Y-94951206D01*
X179677328Y-94951202D01*
X179542482Y-94900908D01*
X179542483Y-94900908D01*
X179482883Y-94894501D01*
X179482881Y-94894500D01*
X179482873Y-94894500D01*
X179482865Y-94894500D01*
X178646677Y-94894500D01*
X178641275Y-94894264D01*
X178610849Y-94891602D01*
X178585002Y-94889341D01*
X178584999Y-94889341D01*
X178567750Y-94890849D01*
X178528722Y-94894264D01*
X178523322Y-94894500D01*
X177687129Y-94894500D01*
X177687123Y-94894501D01*
X177627516Y-94900908D01*
X177492671Y-94951202D01*
X177492664Y-94951206D01*
X177377455Y-95037452D01*
X177377452Y-95037455D01*
X177291206Y-95152664D01*
X177291202Y-95152671D01*
X177240908Y-95287517D01*
X177234501Y-95347116D01*
X177234501Y-95347123D01*
X177234500Y-95347135D01*
X177234500Y-96183324D01*
X177234264Y-96188730D01*
X177229341Y-96244998D01*
X177229341Y-96245001D01*
X173585499Y-96245001D01*
X173585499Y-95577129D01*
X173585498Y-95577123D01*
X173585497Y-95577116D01*
X173579091Y-95517517D01*
X173548628Y-95435842D01*
X173528797Y-95382671D01*
X173528795Y-95382668D01*
X173502195Y-95347135D01*
X173451421Y-95279309D01*
X173427004Y-95213848D01*
X173441855Y-95145575D01*
X173451416Y-95130696D01*
X173528796Y-95027331D01*
X173579091Y-94892483D01*
X173585500Y-94832873D01*
X173585499Y-93996677D01*
X173585735Y-93991272D01*
X173590659Y-93935000D01*
X173590659Y-93934999D01*
X173585735Y-93878726D01*
X173585499Y-93873319D01*
X173585499Y-93037129D01*
X173585498Y-93037123D01*
X173585497Y-93037116D01*
X173579091Y-92977517D01*
X173578338Y-92975499D01*
X173528797Y-92842671D01*
X173528795Y-92842668D01*
X173451109Y-92738893D01*
X173426692Y-92673430D01*
X173441543Y-92605157D01*
X173451110Y-92590271D01*
X173528352Y-92487089D01*
X173528354Y-92487086D01*
X173578596Y-92352379D01*
X173578598Y-92352372D01*
X173584999Y-92292844D01*
X173585000Y-92292827D01*
X173585000Y-91645000D01*
X172680572Y-91645000D01*
X172703682Y-91609040D01*
X172745000Y-91468327D01*
X172745000Y-91321673D01*
X172703682Y-91180960D01*
X172680572Y-91145000D01*
X173585000Y-91145000D01*
X173585000Y-90497172D01*
X173584999Y-90497155D01*
X173578598Y-90437627D01*
X173578596Y-90437620D01*
X173528354Y-90302913D01*
X173528352Y-90302910D01*
X173451110Y-90199729D01*
X173426692Y-90134265D01*
X173441543Y-90065992D01*
X173451105Y-90051111D01*
X173528796Y-89947331D01*
X173579091Y-89812483D01*
X173585500Y-89752873D01*
X173585499Y-88916677D01*
X173585735Y-88911272D01*
X173590659Y-88855000D01*
X173590659Y-88854999D01*
X173585735Y-88798726D01*
X173585499Y-88793319D01*
X173585499Y-87957129D01*
X173585498Y-87957123D01*
X173585497Y-87957116D01*
X173579091Y-87897517D01*
X173578051Y-87894729D01*
X173528797Y-87762671D01*
X173528795Y-87762668D01*
X173518695Y-87749176D01*
X173451421Y-87659309D01*
X173427004Y-87593848D01*
X173441855Y-87525575D01*
X173451416Y-87510696D01*
X173528796Y-87407331D01*
X173579091Y-87272483D01*
X173585500Y-87212873D01*
X173585499Y-86376677D01*
X173585735Y-86371272D01*
X173590659Y-86315000D01*
X173590659Y-86314999D01*
X173587534Y-86279283D01*
X173585734Y-86258722D01*
X173585499Y-86253319D01*
X173585499Y-85417129D01*
X173585498Y-85417123D01*
X173585497Y-85417116D01*
X173579091Y-85357517D01*
X173576927Y-85351716D01*
X173528797Y-85222671D01*
X173528795Y-85222668D01*
X173515344Y-85204700D01*
X173451421Y-85119309D01*
X173427004Y-85053848D01*
X173441855Y-84985575D01*
X173451416Y-84970696D01*
X173528796Y-84867331D01*
X173579091Y-84732483D01*
X173585500Y-84672873D01*
X173585499Y-83836677D01*
X173585735Y-83831272D01*
X173588601Y-83798525D01*
X173590659Y-83775000D01*
X173585734Y-83718722D01*
X173585499Y-83713319D01*
X173585499Y-82877129D01*
X173585498Y-82877123D01*
X173585497Y-82877116D01*
X173579091Y-82817517D01*
X173576494Y-82810555D01*
X173528797Y-82682671D01*
X173528795Y-82682668D01*
X173487259Y-82627183D01*
X173451421Y-82579309D01*
X173427004Y-82513848D01*
X173441855Y-82445575D01*
X173451416Y-82430696D01*
X173528796Y-82327331D01*
X173579091Y-82192483D01*
X173585500Y-82132873D01*
X173585499Y-81296677D01*
X173585735Y-81291272D01*
X173590659Y-81235000D01*
X173590659Y-81234999D01*
X173585735Y-81178726D01*
X173585499Y-81173319D01*
X173585499Y-80337129D01*
X173585498Y-80337123D01*
X173585497Y-80337116D01*
X173579091Y-80277517D01*
X173562294Y-80232483D01*
X173528797Y-80142671D01*
X173528795Y-80142668D01*
X173451109Y-80038893D01*
X173426692Y-79973430D01*
X173441543Y-79905157D01*
X173451110Y-79890271D01*
X173528352Y-79787089D01*
X173528354Y-79787086D01*
X173578596Y-79652379D01*
X173578598Y-79652372D01*
X173584999Y-79592844D01*
X173585000Y-79592827D01*
X173585000Y-78945000D01*
X172680572Y-78945000D01*
X172703682Y-78909040D01*
X172745000Y-78768327D01*
X172745000Y-78621673D01*
X172703682Y-78480960D01*
X172680572Y-78445000D01*
X173585000Y-78445000D01*
X173585000Y-77797172D01*
X173584999Y-77797155D01*
X173578598Y-77737627D01*
X173578596Y-77737620D01*
X173528354Y-77602913D01*
X173528352Y-77602910D01*
X173451110Y-77499729D01*
X173426692Y-77434265D01*
X173441543Y-77365992D01*
X173451105Y-77351111D01*
X173528796Y-77247331D01*
X173579091Y-77112483D01*
X173585500Y-77052873D01*
X173585499Y-76216677D01*
X173585735Y-76211272D01*
X173590659Y-76155000D01*
X173590659Y-76154999D01*
X173585735Y-76098726D01*
X173585499Y-76093319D01*
X173585499Y-75257129D01*
X173585498Y-75257123D01*
X173585497Y-75257116D01*
X173579091Y-75197517D01*
X173528796Y-75062669D01*
X173451421Y-74959309D01*
X173427004Y-74893848D01*
X173441855Y-74825575D01*
X173451416Y-74810696D01*
X173528796Y-74707331D01*
X173579091Y-74572483D01*
X173585500Y-74512873D01*
X173585499Y-73676677D01*
X173585735Y-73671272D01*
X173589227Y-73631371D01*
X173590659Y-73615000D01*
X173585734Y-73558722D01*
X173585499Y-73553319D01*
X173585499Y-72717129D01*
X173585498Y-72717123D01*
X173585497Y-72717116D01*
X173579091Y-72657517D01*
X173536623Y-72543655D01*
X173528797Y-72522671D01*
X173528795Y-72522668D01*
X173451421Y-72419309D01*
X173427004Y-72353848D01*
X173441855Y-72285575D01*
X173451416Y-72270696D01*
X173528796Y-72167331D01*
X173579091Y-72032483D01*
X173585500Y-71972873D01*
X173585499Y-71339195D01*
X173605183Y-71272157D01*
X173657987Y-71226402D01*
X173727146Y-71216458D01*
X173782385Y-71238879D01*
X173922401Y-71340608D01*
X173922402Y-71340609D01*
X173922404Y-71340610D01*
X173922407Y-71340612D01*
X174085733Y-71413329D01*
X174260609Y-71450500D01*
X174260610Y-71450500D01*
X174439389Y-71450500D01*
X174439391Y-71450500D01*
X174614267Y-71413329D01*
X174777593Y-71340612D01*
X174922230Y-71235526D01*
X174930446Y-71226402D01*
X174994544Y-71155213D01*
X175041859Y-71102665D01*
X175131250Y-70947835D01*
X175186497Y-70777803D01*
X175205185Y-70600000D01*
X175186497Y-70422197D01*
X175146796Y-70300009D01*
X175131252Y-70252170D01*
X175131249Y-70252164D01*
X175113988Y-70222267D01*
X175041859Y-70097335D01*
X174989788Y-70039504D01*
X174922235Y-69964478D01*
X174922232Y-69964476D01*
X174922231Y-69964475D01*
X174922230Y-69964474D01*
X174777593Y-69859388D01*
X174614267Y-69786671D01*
X174614265Y-69786670D01*
X174614266Y-69786670D01*
X174515289Y-69765632D01*
X174453808Y-69732439D01*
X174453390Y-69732023D01*
X174261741Y-69540374D01*
X174060729Y-69339361D01*
X174048949Y-69325730D01*
X174041482Y-69315701D01*
X174034612Y-69306472D01*
X174034610Y-69306470D01*
X173994587Y-69272886D01*
X173990612Y-69269244D01*
X173987690Y-69266322D01*
X173984780Y-69263411D01*
X173959040Y-69243059D01*
X173900209Y-69193694D01*
X173894180Y-69189729D01*
X173894212Y-69189680D01*
X173887853Y-69185628D01*
X173887822Y-69185679D01*
X173881680Y-69181891D01*
X173881678Y-69181890D01*
X173881677Y-69181889D01*
X173842474Y-69163608D01*
X173812058Y-69149424D01*
X173753042Y-69119786D01*
X173743433Y-69114960D01*
X173743431Y-69114959D01*
X173743430Y-69114959D01*
X173736645Y-69112489D01*
X173736665Y-69112433D01*
X173729549Y-69109959D01*
X173729531Y-69110015D01*
X173722674Y-69107743D01*
X173684422Y-69099844D01*
X173622749Y-69067008D01*
X173588618Y-69006042D01*
X173585499Y-68978406D01*
X173585499Y-68596679D01*
X173585735Y-68591272D01*
X173587015Y-68576650D01*
X173590659Y-68535000D01*
X173585734Y-68478722D01*
X173585499Y-68473319D01*
X173585499Y-67637129D01*
X173585498Y-67637123D01*
X173585497Y-67637116D01*
X173579091Y-67577517D01*
X173548635Y-67495861D01*
X173528797Y-67442671D01*
X173528795Y-67442668D01*
X173502591Y-67407664D01*
X173451109Y-67338893D01*
X173426692Y-67273430D01*
X173441543Y-67205157D01*
X173451110Y-67190271D01*
X173528352Y-67087089D01*
X173528354Y-67087086D01*
X173578596Y-66952379D01*
X173578598Y-66952372D01*
X173584999Y-66892844D01*
X173585000Y-66892827D01*
X173585000Y-66245000D01*
X172680572Y-66245000D01*
X172703682Y-66209040D01*
X172745000Y-66068327D01*
X172745000Y-65921673D01*
X172703682Y-65780960D01*
X172680572Y-65745000D01*
X173585000Y-65745000D01*
X173585000Y-65097172D01*
X173584999Y-65097155D01*
X173578598Y-65037627D01*
X173578596Y-65037620D01*
X173528354Y-64902913D01*
X173528352Y-64902910D01*
X173451110Y-64799729D01*
X173426692Y-64734265D01*
X173441543Y-64665992D01*
X173451105Y-64651111D01*
X173528796Y-64547331D01*
X173579091Y-64412483D01*
X173585500Y-64352873D01*
X173585499Y-63516677D01*
X173585735Y-63511272D01*
X173590659Y-63455000D01*
X173590659Y-63454999D01*
X173585735Y-63398726D01*
X173585499Y-63393319D01*
X173585499Y-62557129D01*
X173585498Y-62557123D01*
X173585497Y-62557116D01*
X173579091Y-62497517D01*
X173548635Y-62415861D01*
X173528797Y-62362671D01*
X173528795Y-62362668D01*
X173479862Y-62297302D01*
X173451421Y-62259309D01*
X173427004Y-62193848D01*
X173441855Y-62125575D01*
X173451416Y-62110696D01*
X173528796Y-62007331D01*
X173579091Y-61872483D01*
X173585500Y-61812873D01*
X173585499Y-60976677D01*
X173585735Y-60971272D01*
X173587783Y-60947873D01*
X173590659Y-60915000D01*
X173585734Y-60858722D01*
X173585499Y-60853319D01*
X173585499Y-60017129D01*
X173585498Y-60017123D01*
X173585497Y-60017116D01*
X173579091Y-59957517D01*
X173560637Y-59908040D01*
X173528797Y-59822671D01*
X173528795Y-59822668D01*
X173451421Y-59719309D01*
X173427004Y-59653848D01*
X173441855Y-59585575D01*
X173451416Y-59570696D01*
X173528796Y-59467331D01*
X173579091Y-59332483D01*
X173585500Y-59272873D01*
X173585499Y-58436677D01*
X173585735Y-58431272D01*
X173590659Y-58375000D01*
X173590659Y-58374999D01*
X173585735Y-58318726D01*
X173585499Y-58313319D01*
X173585499Y-57477129D01*
X173585498Y-57477123D01*
X173585497Y-57477116D01*
X173579091Y-57417517D01*
X173554095Y-57350500D01*
X173528797Y-57282671D01*
X173528795Y-57282668D01*
X173524639Y-57277116D01*
X173451421Y-57179309D01*
X173427004Y-57113848D01*
X173441855Y-57045575D01*
X173451416Y-57030696D01*
X173528796Y-56927331D01*
X173579091Y-56792483D01*
X173585500Y-56732873D01*
X173585499Y-55896677D01*
X173585735Y-55891272D01*
X173586993Y-55876902D01*
X173590659Y-55835000D01*
X173585734Y-55778722D01*
X173585499Y-55773319D01*
X173585499Y-54937129D01*
X173585498Y-54937123D01*
X173585497Y-54937116D01*
X173579091Y-54877517D01*
X173559690Y-54825501D01*
X173528797Y-54742671D01*
X173528795Y-54742668D01*
X173451109Y-54638893D01*
X173426692Y-54573430D01*
X173441543Y-54505157D01*
X173451110Y-54490271D01*
X173528352Y-54387089D01*
X173528354Y-54387086D01*
X173578596Y-54252379D01*
X173578598Y-54252372D01*
X173584999Y-54192844D01*
X173585000Y-54192827D01*
X173585000Y-53545000D01*
X172680572Y-53545000D01*
X172703682Y-53509040D01*
X172745000Y-53368327D01*
X172745000Y-53221673D01*
X172703682Y-53080960D01*
X172680572Y-53045000D01*
X173585000Y-53045000D01*
X173585000Y-52397172D01*
X173584999Y-52397155D01*
X173578598Y-52337627D01*
X173578596Y-52337620D01*
X173528354Y-52202913D01*
X173528352Y-52202910D01*
X173451110Y-52099729D01*
X173426692Y-52034265D01*
X173441543Y-51965992D01*
X173451105Y-51951111D01*
X173528796Y-51847331D01*
X173579091Y-51712483D01*
X173585500Y-51652873D01*
X173585500Y-51375003D01*
X177444723Y-51375003D01*
X177446688Y-51397470D01*
X177446862Y-51405660D01*
X177445709Y-51431324D01*
X177445710Y-51431328D01*
X177445710Y-51431330D01*
X177449594Y-51460001D01*
X177456641Y-51512031D01*
X177456966Y-51514949D01*
X177463792Y-51592972D01*
X177463795Y-51592987D01*
X177470482Y-51617941D01*
X177472034Y-51625670D01*
X177475924Y-51654381D01*
X177475926Y-51654392D01*
X177500075Y-51728713D01*
X177500997Y-51731825D01*
X177520423Y-51804324D01*
X177520427Y-51804336D01*
X177532736Y-51830732D01*
X177535512Y-51837779D01*
X177545483Y-51868464D01*
X177580970Y-51934411D01*
X177582558Y-51937576D01*
X177612898Y-52002639D01*
X177614560Y-52005012D01*
X177631490Y-52029191D01*
X177635303Y-52035378D01*
X177652146Y-52066678D01*
X177652152Y-52066687D01*
X177696792Y-52122663D01*
X177699106Y-52125758D01*
X177721733Y-52158072D01*
X177738402Y-52181877D01*
X177738405Y-52181880D01*
X177763646Y-52207121D01*
X177768283Y-52212309D01*
X177792492Y-52242666D01*
X177843959Y-52287632D01*
X177847008Y-52290483D01*
X177893116Y-52336592D01*
X177893122Y-52336597D01*
X177893123Y-52336598D01*
X177894583Y-52337620D01*
X177925055Y-52358957D01*
X177930290Y-52363057D01*
X177962004Y-52390765D01*
X177962013Y-52390771D01*
X178017849Y-52424131D01*
X178021613Y-52426568D01*
X178072359Y-52462101D01*
X178072364Y-52462104D01*
X178094917Y-52472620D01*
X178110677Y-52479969D01*
X178116271Y-52482935D01*
X178153349Y-52505088D01*
X178155236Y-52506215D01*
X178173828Y-52513192D01*
X178213083Y-52527925D01*
X178217503Y-52529782D01*
X178270670Y-52554575D01*
X178270674Y-52554577D01*
X178301069Y-52562720D01*
X178314677Y-52566366D01*
X178320413Y-52568207D01*
X178337264Y-52574531D01*
X178365976Y-52585307D01*
X178423545Y-52595754D01*
X178428511Y-52596868D01*
X178482023Y-52611207D01*
X178530689Y-52615464D01*
X178536306Y-52616218D01*
X178587453Y-52625500D01*
X178642691Y-52625500D01*
X178648092Y-52625735D01*
X178676548Y-52628225D01*
X178699998Y-52630277D01*
X178700000Y-52630277D01*
X178752992Y-52625640D01*
X178756121Y-52625500D01*
X178756155Y-52625500D01*
X178810172Y-52620638D01*
X178917977Y-52611207D01*
X178918000Y-52611200D01*
X178918475Y-52611117D01*
X178923713Y-52610419D01*
X178924188Y-52610377D01*
X179027997Y-52581726D01*
X179129330Y-52554575D01*
X179129337Y-52554571D01*
X179136254Y-52552053D01*
X179140948Y-52550554D01*
X179141170Y-52550493D01*
X179141181Y-52550487D01*
X179141183Y-52550487D01*
X179235454Y-52505088D01*
X179327639Y-52462102D01*
X179327644Y-52462097D01*
X179332327Y-52459395D01*
X179332400Y-52459522D01*
X179343164Y-52453218D01*
X179343973Y-52452829D01*
X179426156Y-52393118D01*
X179506877Y-52336598D01*
X179507747Y-52335727D01*
X179522550Y-52323084D01*
X179526078Y-52320522D01*
X179594131Y-52249343D01*
X179661598Y-52181877D01*
X179664285Y-52178039D01*
X179676239Y-52163465D01*
X179681629Y-52157828D01*
X179681628Y-52157828D01*
X179681632Y-52157825D01*
X179734164Y-52078241D01*
X179787102Y-52002639D01*
X179790543Y-51995259D01*
X179799432Y-51979364D01*
X179805635Y-51969968D01*
X179841889Y-51885146D01*
X179879575Y-51804330D01*
X179882570Y-51793148D01*
X179888325Y-51776505D01*
X179894103Y-51762988D01*
X179913936Y-51676092D01*
X179936207Y-51592977D01*
X179937887Y-51573766D01*
X179939206Y-51565377D01*
X179939848Y-51562564D01*
X179944191Y-51543537D01*
X179948050Y-51457602D01*
X179955277Y-51375003D01*
X182294723Y-51375003D01*
X182296688Y-51397470D01*
X182296862Y-51405660D01*
X182295709Y-51431324D01*
X182295710Y-51431328D01*
X182295710Y-51431330D01*
X182299594Y-51460001D01*
X182306641Y-51512031D01*
X182306966Y-51514949D01*
X182313792Y-51592972D01*
X182313795Y-51592987D01*
X182320482Y-51617941D01*
X182322034Y-51625670D01*
X182325924Y-51654381D01*
X182325926Y-51654392D01*
X182350075Y-51728713D01*
X182350997Y-51731825D01*
X182370423Y-51804324D01*
X182370427Y-51804336D01*
X182382736Y-51830732D01*
X182385512Y-51837779D01*
X182395483Y-51868464D01*
X182430970Y-51934411D01*
X182432558Y-51937576D01*
X182462898Y-52002639D01*
X182464560Y-52005012D01*
X182481490Y-52029191D01*
X182485303Y-52035378D01*
X182502146Y-52066678D01*
X182502152Y-52066687D01*
X182546792Y-52122663D01*
X182549106Y-52125758D01*
X182571733Y-52158072D01*
X182588402Y-52181877D01*
X182588405Y-52181880D01*
X182613646Y-52207121D01*
X182618283Y-52212309D01*
X182642492Y-52242666D01*
X182693959Y-52287632D01*
X182697008Y-52290483D01*
X182743116Y-52336592D01*
X182743122Y-52336597D01*
X182743123Y-52336598D01*
X182744583Y-52337620D01*
X182775055Y-52358957D01*
X182780290Y-52363057D01*
X182812004Y-52390765D01*
X182812013Y-52390771D01*
X182867849Y-52424131D01*
X182871613Y-52426568D01*
X182922359Y-52462101D01*
X182922364Y-52462104D01*
X182944917Y-52472620D01*
X182960677Y-52479969D01*
X182966271Y-52482935D01*
X183003349Y-52505088D01*
X183005236Y-52506215D01*
X183023828Y-52513192D01*
X183063083Y-52527925D01*
X183067503Y-52529782D01*
X183120670Y-52554575D01*
X183120674Y-52554577D01*
X183151069Y-52562720D01*
X183164677Y-52566366D01*
X183170413Y-52568207D01*
X183187264Y-52574531D01*
X183215976Y-52585307D01*
X183273545Y-52595754D01*
X183278511Y-52596868D01*
X183332023Y-52611207D01*
X183380689Y-52615464D01*
X183386306Y-52616218D01*
X183437453Y-52625500D01*
X183492691Y-52625500D01*
X183498092Y-52625735D01*
X183526548Y-52628225D01*
X183549998Y-52630277D01*
X183550000Y-52630277D01*
X183602992Y-52625640D01*
X183606121Y-52625500D01*
X183606155Y-52625500D01*
X183660172Y-52620638D01*
X183767977Y-52611207D01*
X183768000Y-52611200D01*
X183768475Y-52611117D01*
X183773713Y-52610419D01*
X183774188Y-52610377D01*
X183877997Y-52581726D01*
X183979330Y-52554575D01*
X183979337Y-52554571D01*
X183986254Y-52552053D01*
X183990948Y-52550554D01*
X183991170Y-52550493D01*
X183991181Y-52550487D01*
X183991183Y-52550487D01*
X184085454Y-52505088D01*
X184177639Y-52462102D01*
X184177644Y-52462097D01*
X184182327Y-52459395D01*
X184182400Y-52459522D01*
X184193164Y-52453218D01*
X184193973Y-52452829D01*
X184276156Y-52393118D01*
X184356877Y-52336598D01*
X184357747Y-52335727D01*
X184372550Y-52323084D01*
X184376078Y-52320522D01*
X184444131Y-52249343D01*
X184511598Y-52181877D01*
X184514285Y-52178039D01*
X184526239Y-52163465D01*
X184531629Y-52157828D01*
X184531628Y-52157828D01*
X184531632Y-52157825D01*
X184584164Y-52078241D01*
X184637102Y-52002639D01*
X184640543Y-51995259D01*
X184649432Y-51979364D01*
X184655635Y-51969968D01*
X184691889Y-51885146D01*
X184729575Y-51804330D01*
X184732570Y-51793148D01*
X184738325Y-51776505D01*
X184744103Y-51762988D01*
X184763936Y-51676092D01*
X184786207Y-51592977D01*
X184787887Y-51573766D01*
X184789206Y-51565377D01*
X184789848Y-51562564D01*
X184794191Y-51543537D01*
X184798050Y-51457602D01*
X184805277Y-51375000D01*
X184803310Y-51352528D01*
X184803137Y-51344334D01*
X184804290Y-51318670D01*
X184793353Y-51237939D01*
X184793034Y-51235067D01*
X184786207Y-51157023D01*
X184779515Y-51132053D01*
X184777963Y-51124322D01*
X184774076Y-51095618D01*
X184774075Y-51095616D01*
X184774075Y-51095613D01*
X184749921Y-51021276D01*
X184748998Y-51018161D01*
X184729576Y-50945673D01*
X184729574Y-50945669D01*
X184717266Y-50919274D01*
X184714488Y-50912222D01*
X184704519Y-50881541D01*
X184704517Y-50881537D01*
X184704517Y-50881536D01*
X184691988Y-50858253D01*
X184669027Y-50815583D01*
X184667432Y-50812405D01*
X184652338Y-50780036D01*
X184637102Y-50747362D01*
X184618512Y-50720813D01*
X184614698Y-50714625D01*
X184614359Y-50713995D01*
X184597852Y-50683319D01*
X184553192Y-50627318D01*
X184550896Y-50624247D01*
X184511598Y-50568123D01*
X184486353Y-50542878D01*
X184481715Y-50537689D01*
X184476058Y-50530595D01*
X184457508Y-50507334D01*
X184449866Y-50500657D01*
X184406039Y-50462366D01*
X184402990Y-50459515D01*
X184356878Y-50413402D01*
X184324940Y-50391039D01*
X184319705Y-50386939D01*
X184287996Y-50359235D01*
X184287994Y-50359233D01*
X184287992Y-50359232D01*
X184232149Y-50325868D01*
X184228386Y-50323431D01*
X184177641Y-50287899D01*
X184139333Y-50270035D01*
X184133735Y-50267067D01*
X184094769Y-50243787D01*
X184094767Y-50243786D01*
X184036928Y-50222079D01*
X184032515Y-50220226D01*
X183979330Y-50195425D01*
X183935321Y-50183632D01*
X183929581Y-50181790D01*
X183884025Y-50164692D01*
X183826456Y-50154245D01*
X183821480Y-50153128D01*
X183767977Y-50138793D01*
X183719327Y-50134536D01*
X183713659Y-50133775D01*
X183662551Y-50124500D01*
X183662547Y-50124500D01*
X183607309Y-50124500D01*
X183601907Y-50124264D01*
X183573451Y-50121774D01*
X183550002Y-50119723D01*
X183549997Y-50119723D01*
X183497050Y-50124355D01*
X183493862Y-50124499D01*
X183493851Y-50124500D01*
X183493845Y-50124500D01*
X183447671Y-50128655D01*
X183439826Y-50129361D01*
X183332020Y-50138793D01*
X183331468Y-50138891D01*
X183326275Y-50139581D01*
X183325812Y-50139622D01*
X183325809Y-50139623D01*
X183222002Y-50168273D01*
X183120659Y-50195428D01*
X183113739Y-50197946D01*
X183109050Y-50199444D01*
X183108849Y-50199499D01*
X183108832Y-50199505D01*
X183014528Y-50244919D01*
X182922358Y-50287899D01*
X182917670Y-50290606D01*
X182917598Y-50290481D01*
X182906871Y-50296764D01*
X182906030Y-50297168D01*
X182823831Y-50356889D01*
X182743123Y-50413401D01*
X182742241Y-50414284D01*
X182727461Y-50426906D01*
X182723928Y-50429472D01*
X182723916Y-50429483D01*
X182692477Y-50462366D01*
X182655868Y-50500656D01*
X182633379Y-50523144D01*
X182588403Y-50568120D01*
X182588402Y-50568121D01*
X182585711Y-50571965D01*
X182573773Y-50586521D01*
X182568368Y-50592174D01*
X182551892Y-50617134D01*
X182515828Y-50671768D01*
X182462898Y-50747362D01*
X182462891Y-50747374D01*
X182459457Y-50754738D01*
X182450572Y-50770628D01*
X182444362Y-50780035D01*
X182444362Y-50780036D01*
X182428701Y-50816679D01*
X182408108Y-50864858D01*
X182400331Y-50881536D01*
X182370425Y-50945669D01*
X182370424Y-50945671D01*
X182367425Y-50956860D01*
X182361681Y-50973475D01*
X182355899Y-50987005D01*
X182355896Y-50987016D01*
X182336063Y-51073907D01*
X182313793Y-51157022D01*
X182313793Y-51157023D01*
X182312112Y-51176226D01*
X182310793Y-51184625D01*
X182305809Y-51206459D01*
X182305809Y-51206464D01*
X182301949Y-51292397D01*
X182294723Y-51374996D01*
X182294723Y-51375003D01*
X179955277Y-51375003D01*
X179955277Y-51375000D01*
X179953310Y-51352528D01*
X179953137Y-51344334D01*
X179954290Y-51318670D01*
X179943353Y-51237939D01*
X179943034Y-51235067D01*
X179936207Y-51157023D01*
X179929515Y-51132053D01*
X179927963Y-51124322D01*
X179924076Y-51095618D01*
X179924075Y-51095616D01*
X179924075Y-51095613D01*
X179899921Y-51021276D01*
X179898998Y-51018161D01*
X179879576Y-50945673D01*
X179879574Y-50945669D01*
X179867266Y-50919274D01*
X179864488Y-50912222D01*
X179854519Y-50881541D01*
X179854517Y-50881537D01*
X179854517Y-50881536D01*
X179841988Y-50858253D01*
X179819027Y-50815583D01*
X179817432Y-50812405D01*
X179802338Y-50780036D01*
X179787102Y-50747362D01*
X179768512Y-50720813D01*
X179764698Y-50714625D01*
X179764359Y-50713995D01*
X179747852Y-50683319D01*
X179703192Y-50627318D01*
X179700896Y-50624247D01*
X179661598Y-50568123D01*
X179636353Y-50542878D01*
X179631715Y-50537689D01*
X179626058Y-50530595D01*
X179607508Y-50507334D01*
X179599866Y-50500657D01*
X179556039Y-50462366D01*
X179552990Y-50459515D01*
X179506878Y-50413402D01*
X179474940Y-50391039D01*
X179469705Y-50386939D01*
X179437996Y-50359235D01*
X179437994Y-50359233D01*
X179437992Y-50359232D01*
X179382149Y-50325868D01*
X179378386Y-50323431D01*
X179327641Y-50287899D01*
X179289333Y-50270035D01*
X179283735Y-50267067D01*
X179244769Y-50243787D01*
X179244767Y-50243786D01*
X179186928Y-50222079D01*
X179182515Y-50220226D01*
X179129330Y-50195425D01*
X179085321Y-50183632D01*
X179079581Y-50181790D01*
X179034025Y-50164692D01*
X178976456Y-50154245D01*
X178971480Y-50153128D01*
X178917977Y-50138793D01*
X178869327Y-50134536D01*
X178863659Y-50133775D01*
X178812551Y-50124500D01*
X178812547Y-50124500D01*
X178757309Y-50124500D01*
X178751907Y-50124264D01*
X178723451Y-50121774D01*
X178700002Y-50119723D01*
X178699997Y-50119723D01*
X178647050Y-50124355D01*
X178643862Y-50124499D01*
X178643851Y-50124500D01*
X178643845Y-50124500D01*
X178597671Y-50128655D01*
X178589826Y-50129361D01*
X178482020Y-50138793D01*
X178481468Y-50138891D01*
X178476275Y-50139581D01*
X178475812Y-50139622D01*
X178475809Y-50139623D01*
X178372002Y-50168273D01*
X178270659Y-50195428D01*
X178263739Y-50197946D01*
X178259050Y-50199444D01*
X178258849Y-50199499D01*
X178258832Y-50199505D01*
X178164528Y-50244919D01*
X178072358Y-50287899D01*
X178067670Y-50290606D01*
X178067598Y-50290481D01*
X178056871Y-50296764D01*
X178056030Y-50297168D01*
X177973831Y-50356889D01*
X177893123Y-50413401D01*
X177892241Y-50414284D01*
X177877461Y-50426906D01*
X177873928Y-50429472D01*
X177873916Y-50429483D01*
X177842477Y-50462366D01*
X177805868Y-50500656D01*
X177783379Y-50523144D01*
X177738403Y-50568120D01*
X177738402Y-50568121D01*
X177735711Y-50571965D01*
X177723773Y-50586521D01*
X177718368Y-50592174D01*
X177701892Y-50617134D01*
X177665828Y-50671768D01*
X177612898Y-50747362D01*
X177612891Y-50747374D01*
X177609457Y-50754738D01*
X177600572Y-50770628D01*
X177594362Y-50780035D01*
X177594362Y-50780036D01*
X177578701Y-50816679D01*
X177558108Y-50864858D01*
X177550331Y-50881536D01*
X177520425Y-50945669D01*
X177520424Y-50945671D01*
X177517425Y-50956860D01*
X177511681Y-50973475D01*
X177505899Y-50987005D01*
X177505896Y-50987016D01*
X177486063Y-51073907D01*
X177463793Y-51157022D01*
X177463793Y-51157023D01*
X177462112Y-51176226D01*
X177460793Y-51184625D01*
X177455809Y-51206459D01*
X177455809Y-51206464D01*
X177451949Y-51292397D01*
X177444723Y-51374996D01*
X177444723Y-51375003D01*
X173585500Y-51375003D01*
X173585499Y-50816677D01*
X173585735Y-50811272D01*
X173589292Y-50770628D01*
X173590659Y-50755000D01*
X173585734Y-50698722D01*
X173585499Y-50693319D01*
X173585499Y-49857129D01*
X173585498Y-49857123D01*
X173585497Y-49857116D01*
X173579091Y-49797517D01*
X173568728Y-49769733D01*
X173528797Y-49662671D01*
X173528795Y-49662668D01*
X173518011Y-49648262D01*
X173451421Y-49559309D01*
X173427004Y-49493848D01*
X173441855Y-49425575D01*
X173451416Y-49410696D01*
X173528796Y-49307331D01*
X173579091Y-49172483D01*
X173585500Y-49112873D01*
X173585499Y-48345000D01*
X176994700Y-48345000D01*
X176997359Y-48377097D01*
X177001955Y-48432567D01*
X177005819Y-48523523D01*
X177005820Y-48523534D01*
X177010939Y-48547284D01*
X177012120Y-48555233D01*
X177013865Y-48576301D01*
X177036205Y-48664519D01*
X177056046Y-48756582D01*
X177063883Y-48776084D01*
X177066458Y-48783987D01*
X177070844Y-48801303D01*
X177108655Y-48887504D01*
X177144934Y-48977787D01*
X177144935Y-48977788D01*
X177154232Y-48992888D01*
X177158218Y-49000495D01*
X177164076Y-49013850D01*
X177217275Y-49095277D01*
X177269930Y-49180794D01*
X177276543Y-49188308D01*
X177287263Y-49202402D01*
X177289738Y-49206189D01*
X177291021Y-49208153D01*
X177359027Y-49282028D01*
X177427436Y-49359755D01*
X177432564Y-49363895D01*
X177445882Y-49376377D01*
X177448216Y-49378913D01*
X177529933Y-49442515D01*
X177612920Y-49509523D01*
X177612922Y-49509524D01*
X177615678Y-49511064D01*
X177631360Y-49521460D01*
X177631367Y-49521465D01*
X177631371Y-49521467D01*
X177631374Y-49521470D01*
X177679389Y-49547454D01*
X177725162Y-49572225D01*
X177821046Y-49625790D01*
X177823849Y-49627058D01*
X177830695Y-49630097D01*
X177830794Y-49629873D01*
X177835490Y-49631932D01*
X177835497Y-49631936D01*
X177939276Y-49667563D01*
X178045829Y-49705211D01*
X178046398Y-49705308D01*
X178051129Y-49706312D01*
X178055007Y-49707294D01*
X178055019Y-49707298D01*
X178166324Y-49725871D01*
X178280791Y-49745499D01*
X178280800Y-49745500D01*
X178516044Y-49745500D01*
X178516049Y-49745500D01*
X178549073Y-49739988D01*
X178572469Y-49736085D01*
X178577407Y-49735463D01*
X178637541Y-49730346D01*
X178689615Y-49716786D01*
X178695017Y-49715634D01*
X178744981Y-49707298D01*
X178802186Y-49687658D01*
X178806663Y-49686309D01*
X178868249Y-49670275D01*
X178871610Y-49668756D01*
X178879262Y-49665296D01*
X178914297Y-49649459D01*
X178919681Y-49647322D01*
X178964503Y-49631936D01*
X179020554Y-49601601D01*
X179024527Y-49599632D01*
X179033156Y-49595730D01*
X179085486Y-49572077D01*
X179124647Y-49545608D01*
X179129820Y-49542469D01*
X179168626Y-49521470D01*
X179221532Y-49480290D01*
X179224850Y-49477881D01*
X179283003Y-49438579D01*
X179314770Y-49408131D01*
X179319548Y-49404002D01*
X179351784Y-49378913D01*
X179354109Y-49376388D01*
X179369420Y-49359755D01*
X179399389Y-49327198D01*
X179402101Y-49324432D01*
X179455118Y-49273621D01*
X179479329Y-49240883D01*
X179483540Y-49235785D01*
X179508979Y-49208153D01*
X179549206Y-49146578D01*
X179551241Y-49143652D01*
X179596879Y-49081947D01*
X179613733Y-49048517D01*
X179617170Y-49042552D01*
X179635924Y-49013849D01*
X179666805Y-48943445D01*
X179668174Y-48940538D01*
X179704207Y-48869074D01*
X179714208Y-48836413D01*
X179716701Y-48829694D01*
X179729157Y-48801300D01*
X179748827Y-48723621D01*
X179749635Y-48720732D01*
X179774016Y-48641123D01*
X179777936Y-48610508D01*
X179779330Y-48603170D01*
X179786134Y-48576305D01*
X179793132Y-48491845D01*
X179804298Y-48404654D01*
X179803126Y-48377079D01*
X179803281Y-48369355D01*
X179805300Y-48345000D01*
X182444700Y-48345000D01*
X182447359Y-48377097D01*
X182451955Y-48432567D01*
X182455819Y-48523523D01*
X182455820Y-48523534D01*
X182460939Y-48547284D01*
X182462120Y-48555233D01*
X182463865Y-48576301D01*
X182486205Y-48664519D01*
X182506046Y-48756582D01*
X182513883Y-48776084D01*
X182516458Y-48783987D01*
X182520844Y-48801303D01*
X182558655Y-48887504D01*
X182594934Y-48977787D01*
X182594935Y-48977788D01*
X182604232Y-48992888D01*
X182608218Y-49000495D01*
X182614076Y-49013850D01*
X182667275Y-49095277D01*
X182719930Y-49180794D01*
X182726543Y-49188308D01*
X182737263Y-49202402D01*
X182739738Y-49206189D01*
X182741021Y-49208153D01*
X182809027Y-49282028D01*
X182877436Y-49359755D01*
X182882564Y-49363895D01*
X182895882Y-49376377D01*
X182898216Y-49378913D01*
X182979933Y-49442515D01*
X183062920Y-49509523D01*
X183062922Y-49509524D01*
X183065678Y-49511064D01*
X183081360Y-49521460D01*
X183081367Y-49521465D01*
X183081371Y-49521467D01*
X183081374Y-49521470D01*
X183129389Y-49547454D01*
X183175162Y-49572225D01*
X183271046Y-49625790D01*
X183273849Y-49627058D01*
X183280695Y-49630097D01*
X183280794Y-49629873D01*
X183285490Y-49631932D01*
X183285497Y-49631936D01*
X183389276Y-49667563D01*
X183495829Y-49705211D01*
X183496398Y-49705308D01*
X183501129Y-49706312D01*
X183505007Y-49707294D01*
X183505019Y-49707298D01*
X183616324Y-49725871D01*
X183730791Y-49745499D01*
X183730800Y-49745500D01*
X183966044Y-49745500D01*
X183966049Y-49745500D01*
X183999073Y-49739988D01*
X184022469Y-49736085D01*
X184027407Y-49735463D01*
X184087541Y-49730346D01*
X184139615Y-49716786D01*
X184145017Y-49715634D01*
X184194981Y-49707298D01*
X184252186Y-49687658D01*
X184256663Y-49686309D01*
X184318249Y-49670275D01*
X184321610Y-49668756D01*
X184329262Y-49665296D01*
X184364297Y-49649459D01*
X184369681Y-49647322D01*
X184414503Y-49631936D01*
X184470554Y-49601601D01*
X184474527Y-49599632D01*
X184483156Y-49595730D01*
X184535486Y-49572077D01*
X184574647Y-49545608D01*
X184579820Y-49542469D01*
X184618626Y-49521470D01*
X184671532Y-49480290D01*
X184674850Y-49477881D01*
X184733003Y-49438579D01*
X184764770Y-49408131D01*
X184769548Y-49404002D01*
X184801784Y-49378913D01*
X184804109Y-49376388D01*
X184819420Y-49359755D01*
X184849389Y-49327198D01*
X184852101Y-49324432D01*
X184905118Y-49273621D01*
X184929329Y-49240883D01*
X184933540Y-49235785D01*
X184958979Y-49208153D01*
X184999206Y-49146578D01*
X185001241Y-49143652D01*
X185046879Y-49081947D01*
X185063733Y-49048517D01*
X185067170Y-49042552D01*
X185085924Y-49013849D01*
X185116805Y-48943445D01*
X185118174Y-48940538D01*
X185154207Y-48869074D01*
X185164208Y-48836413D01*
X185166701Y-48829694D01*
X185179157Y-48801300D01*
X185198827Y-48723621D01*
X185199635Y-48720732D01*
X185224016Y-48641123D01*
X185227936Y-48610508D01*
X185229330Y-48603170D01*
X185236134Y-48576305D01*
X185243132Y-48491845D01*
X185254298Y-48404654D01*
X185253126Y-48377079D01*
X185253281Y-48369355D01*
X185255300Y-48345000D01*
X185253553Y-48323920D01*
X185248044Y-48257432D01*
X185246426Y-48219334D01*
X185244180Y-48166468D01*
X185239059Y-48142709D01*
X185237879Y-48134762D01*
X185236134Y-48113695D01*
X185236133Y-48113692D01*
X185236133Y-48113688D01*
X185213794Y-48025480D01*
X185213794Y-48025479D01*
X185193954Y-47933419D01*
X185186115Y-47913912D01*
X185183541Y-47906015D01*
X185179157Y-47888700D01*
X185141344Y-47802495D01*
X185105064Y-47712210D01*
X185095768Y-47697112D01*
X185091779Y-47689500D01*
X185085924Y-47676151D01*
X185032724Y-47594721D01*
X184980071Y-47509208D01*
X184980070Y-47509207D01*
X184980069Y-47509205D01*
X184973451Y-47501686D01*
X184962727Y-47487584D01*
X184958978Y-47481845D01*
X184890972Y-47407971D01*
X184822565Y-47330246D01*
X184817439Y-47326107D01*
X184804117Y-47313621D01*
X184801785Y-47311088D01*
X184801783Y-47311086D01*
X184720066Y-47247484D01*
X184637080Y-47180477D01*
X184637073Y-47180472D01*
X184634311Y-47178929D01*
X184618643Y-47168542D01*
X184618634Y-47168535D01*
X184618628Y-47168532D01*
X184618626Y-47168530D01*
X184524837Y-47117774D01*
X184428954Y-47064210D01*
X184428953Y-47064209D01*
X184428952Y-47064209D01*
X184426381Y-47063047D01*
X184419284Y-47059898D01*
X184419188Y-47060119D01*
X184414506Y-47058065D01*
X184310723Y-47022436D01*
X184268322Y-47007455D01*
X184204171Y-46984789D01*
X184204170Y-46984788D01*
X184204168Y-46984788D01*
X184204160Y-46984786D01*
X184203612Y-46984692D01*
X184198889Y-46983691D01*
X184194989Y-46982703D01*
X184083675Y-46964128D01*
X183969209Y-46944500D01*
X183969200Y-46944500D01*
X183966049Y-46944500D01*
X183733951Y-46944500D01*
X183733950Y-46944500D01*
X183677533Y-46953913D01*
X183672587Y-46954535D01*
X183670099Y-46954747D01*
X183612469Y-46959652D01*
X183612461Y-46959653D01*
X183560397Y-46973208D01*
X183554981Y-46974363D01*
X183505013Y-46982703D01*
X183447840Y-47002331D01*
X183443330Y-47003690D01*
X183381749Y-47019725D01*
X183381744Y-47019727D01*
X183335711Y-47040535D01*
X183330304Y-47042680D01*
X183285503Y-47058060D01*
X183285498Y-47058063D01*
X183229448Y-47088395D01*
X183225478Y-47090363D01*
X183164514Y-47117922D01*
X183125359Y-47144385D01*
X183120149Y-47147544D01*
X183081379Y-47168526D01*
X183081367Y-47168533D01*
X183028487Y-47209692D01*
X183025124Y-47212133D01*
X182967001Y-47251417D01*
X182966994Y-47251422D01*
X182935248Y-47281847D01*
X182930430Y-47286011D01*
X182898218Y-47311085D01*
X182898209Y-47311093D01*
X182850613Y-47362795D01*
X182847900Y-47365564D01*
X182794882Y-47416378D01*
X182794880Y-47416380D01*
X182770681Y-47449098D01*
X182766448Y-47454223D01*
X182741022Y-47481845D01*
X182700797Y-47543412D01*
X182698741Y-47546367D01*
X182653124Y-47608047D01*
X182653120Y-47608054D01*
X182636268Y-47641475D01*
X182632811Y-47647472D01*
X182614076Y-47676149D01*
X182583219Y-47746496D01*
X182581803Y-47749503D01*
X182545790Y-47820931D01*
X182535792Y-47853573D01*
X182533288Y-47860323D01*
X182520845Y-47888691D01*
X182520845Y-47888692D01*
X182501178Y-47966347D01*
X182500358Y-47969279D01*
X182475984Y-48048876D01*
X182475983Y-48048879D01*
X182472063Y-48079485D01*
X182470668Y-48086830D01*
X182463867Y-48113688D01*
X182463864Y-48113705D01*
X182456867Y-48198154D01*
X182445702Y-48285344D01*
X182445701Y-48285344D01*
X182446872Y-48312900D01*
X182446716Y-48320655D01*
X182444700Y-48344995D01*
X182444700Y-48345000D01*
X179805300Y-48345000D01*
X179803553Y-48323920D01*
X179798044Y-48257432D01*
X179796426Y-48219334D01*
X179794180Y-48166468D01*
X179789059Y-48142709D01*
X179787879Y-48134762D01*
X179786134Y-48113695D01*
X179786133Y-48113692D01*
X179786133Y-48113688D01*
X179763794Y-48025480D01*
X179763794Y-48025479D01*
X179743954Y-47933419D01*
X179736115Y-47913912D01*
X179733541Y-47906015D01*
X179729157Y-47888700D01*
X179691344Y-47802495D01*
X179655064Y-47712210D01*
X179645768Y-47697112D01*
X179641779Y-47689500D01*
X179635924Y-47676151D01*
X179582724Y-47594721D01*
X179530071Y-47509208D01*
X179530070Y-47509207D01*
X179530069Y-47509205D01*
X179523451Y-47501686D01*
X179512727Y-47487584D01*
X179508978Y-47481845D01*
X179440972Y-47407971D01*
X179372565Y-47330246D01*
X179367439Y-47326107D01*
X179354117Y-47313621D01*
X179351785Y-47311088D01*
X179351783Y-47311086D01*
X179270066Y-47247484D01*
X179187080Y-47180477D01*
X179187073Y-47180472D01*
X179184311Y-47178929D01*
X179168643Y-47168542D01*
X179168634Y-47168535D01*
X179168628Y-47168532D01*
X179168626Y-47168530D01*
X179074837Y-47117774D01*
X178978954Y-47064210D01*
X178978953Y-47064209D01*
X178978952Y-47064209D01*
X178976381Y-47063047D01*
X178969284Y-47059898D01*
X178969188Y-47060119D01*
X178964506Y-47058065D01*
X178860723Y-47022436D01*
X178818322Y-47007455D01*
X178754171Y-46984789D01*
X178754170Y-46984788D01*
X178754168Y-46984788D01*
X178754160Y-46984786D01*
X178753612Y-46984692D01*
X178748889Y-46983691D01*
X178744989Y-46982703D01*
X178633675Y-46964128D01*
X178519209Y-46944500D01*
X178519200Y-46944500D01*
X178516049Y-46944500D01*
X178283951Y-46944500D01*
X178283950Y-46944500D01*
X178227533Y-46953913D01*
X178222587Y-46954535D01*
X178220099Y-46954747D01*
X178162469Y-46959652D01*
X178162461Y-46959653D01*
X178110397Y-46973208D01*
X178104981Y-46974363D01*
X178055013Y-46982703D01*
X177997840Y-47002331D01*
X177993330Y-47003690D01*
X177931749Y-47019725D01*
X177931744Y-47019727D01*
X177885711Y-47040535D01*
X177880304Y-47042680D01*
X177835503Y-47058060D01*
X177835498Y-47058063D01*
X177779448Y-47088395D01*
X177775478Y-47090363D01*
X177714514Y-47117922D01*
X177675359Y-47144385D01*
X177670149Y-47147544D01*
X177631379Y-47168526D01*
X177631367Y-47168533D01*
X177578487Y-47209692D01*
X177575124Y-47212133D01*
X177517001Y-47251417D01*
X177516994Y-47251422D01*
X177485248Y-47281847D01*
X177480430Y-47286011D01*
X177448218Y-47311085D01*
X177448209Y-47311093D01*
X177400613Y-47362795D01*
X177397900Y-47365564D01*
X177344882Y-47416378D01*
X177344880Y-47416380D01*
X177320681Y-47449098D01*
X177316448Y-47454223D01*
X177291022Y-47481845D01*
X177250797Y-47543412D01*
X177248741Y-47546367D01*
X177203124Y-47608047D01*
X177203120Y-47608054D01*
X177186268Y-47641475D01*
X177182811Y-47647472D01*
X177164076Y-47676149D01*
X177133219Y-47746496D01*
X177131803Y-47749503D01*
X177095790Y-47820931D01*
X177085792Y-47853573D01*
X177083288Y-47860323D01*
X177070845Y-47888691D01*
X177070845Y-47888692D01*
X177051178Y-47966347D01*
X177050358Y-47969279D01*
X177025984Y-48048876D01*
X177025983Y-48048879D01*
X177022063Y-48079485D01*
X177020668Y-48086830D01*
X177013867Y-48113688D01*
X177013864Y-48113705D01*
X177006867Y-48198154D01*
X176995702Y-48285344D01*
X176995701Y-48285344D01*
X176996872Y-48312900D01*
X176996716Y-48320655D01*
X176994700Y-48344995D01*
X176994700Y-48345000D01*
X173585499Y-48345000D01*
X173585499Y-48276677D01*
X173585735Y-48271272D01*
X173590659Y-48215000D01*
X173590659Y-48214999D01*
X173586413Y-48166474D01*
X173585734Y-48158722D01*
X173585499Y-48153319D01*
X173585499Y-47317129D01*
X173585498Y-47317123D01*
X173585497Y-47317116D01*
X173579091Y-47257517D01*
X173576817Y-47251421D01*
X173528797Y-47122671D01*
X173528793Y-47122664D01*
X173442547Y-47007455D01*
X173442544Y-47007452D01*
X173327335Y-46921206D01*
X173327328Y-46921202D01*
X173192482Y-46870908D01*
X173192483Y-46870908D01*
X173132883Y-46864501D01*
X173132881Y-46864500D01*
X173132873Y-46864500D01*
X173132865Y-46864500D01*
X172296674Y-46864500D01*
X172291272Y-46864264D01*
X172251117Y-46860751D01*
X172235001Y-46859341D01*
X172234998Y-46859341D01*
X172201895Y-46862237D01*
X172178726Y-46864264D01*
X172173323Y-46864500D01*
X169537129Y-46864500D01*
X169537123Y-46864501D01*
X169477516Y-46870908D01*
X169342671Y-46921202D01*
X169342664Y-46921206D01*
X169227455Y-47007452D01*
X169227452Y-47007455D01*
X169141206Y-47122664D01*
X169141202Y-47122671D01*
X169090908Y-47257517D01*
X169084877Y-47313621D01*
X169084501Y-47317123D01*
X169084500Y-47317135D01*
X169084500Y-49112870D01*
X169084501Y-49112876D01*
X169090908Y-49172483D01*
X169141202Y-49307328D01*
X169141203Y-49307330D01*
X169218578Y-49410689D01*
X169242995Y-49476153D01*
X169228144Y-49544426D01*
X169218578Y-49559311D01*
X169141203Y-49662669D01*
X169141202Y-49662671D01*
X169090908Y-49797517D01*
X169084501Y-49857116D01*
X169084501Y-49857123D01*
X169084500Y-49857135D01*
X169084500Y-51652870D01*
X169084501Y-51652876D01*
X169090908Y-51712483D01*
X169141202Y-51847328D01*
X169141206Y-51847335D01*
X169218889Y-51951105D01*
X169243307Y-52016569D01*
X169228456Y-52084842D01*
X169218890Y-52099727D01*
X169141647Y-52202910D01*
X169141645Y-52202913D01*
X169091403Y-52337620D01*
X169091401Y-52337627D01*
X169085000Y-52397155D01*
X169085000Y-53045000D01*
X171789428Y-53045000D01*
X171766318Y-53080960D01*
X171725000Y-53221673D01*
X171725000Y-53368327D01*
X171766318Y-53509040D01*
X171789428Y-53545000D01*
X169085000Y-53545000D01*
X169085000Y-54192844D01*
X169091401Y-54252372D01*
X169091403Y-54252379D01*
X169141645Y-54387086D01*
X169141646Y-54387088D01*
X169218890Y-54490272D01*
X169243307Y-54555736D01*
X169228456Y-54624009D01*
X169218890Y-54638894D01*
X169141204Y-54742669D01*
X169141202Y-54742671D01*
X169090908Y-54877517D01*
X169084501Y-54937116D01*
X169084501Y-54937123D01*
X169084500Y-54937135D01*
X169084500Y-56732870D01*
X169084501Y-56732876D01*
X169090908Y-56792483D01*
X169141202Y-56927328D01*
X169141203Y-56927330D01*
X169218578Y-57030689D01*
X169242995Y-57096153D01*
X169228144Y-57164426D01*
X169218578Y-57179311D01*
X169141203Y-57282669D01*
X169141202Y-57282671D01*
X169090908Y-57417517D01*
X169085987Y-57463294D01*
X169084501Y-57477123D01*
X169084500Y-57477135D01*
X169084500Y-59272870D01*
X169084501Y-59272876D01*
X169090908Y-59332483D01*
X169141202Y-59467328D01*
X169141203Y-59467330D01*
X169141204Y-59467331D01*
X169217158Y-59568793D01*
X169218578Y-59570689D01*
X169242995Y-59636153D01*
X169228144Y-59704426D01*
X169218578Y-59719311D01*
X169141203Y-59822669D01*
X169141202Y-59822671D01*
X169090908Y-59957517D01*
X169084925Y-60013171D01*
X169084501Y-60017123D01*
X169084500Y-60017135D01*
X169084500Y-61812870D01*
X169084501Y-61812876D01*
X169090908Y-61872483D01*
X169141202Y-62007328D01*
X169141203Y-62007330D01*
X169151036Y-62020465D01*
X169201659Y-62088089D01*
X169218578Y-62110689D01*
X169242995Y-62176153D01*
X169228144Y-62244426D01*
X169218578Y-62259311D01*
X169141203Y-62362669D01*
X169141202Y-62362671D01*
X169090908Y-62497517D01*
X169084501Y-62557116D01*
X169084501Y-62557123D01*
X169084500Y-62557135D01*
X169084500Y-64352870D01*
X169084501Y-64352876D01*
X169090908Y-64412483D01*
X169141202Y-64547328D01*
X169141206Y-64547335D01*
X169218889Y-64651105D01*
X169243307Y-64716569D01*
X169228456Y-64784842D01*
X169218890Y-64799727D01*
X169141647Y-64902910D01*
X169141645Y-64902913D01*
X169091403Y-65037620D01*
X169091401Y-65037627D01*
X169085000Y-65097155D01*
X169085000Y-65745000D01*
X171789428Y-65745000D01*
X171766318Y-65780960D01*
X171725000Y-65921673D01*
X171725000Y-66068327D01*
X171766318Y-66209040D01*
X171789428Y-66245000D01*
X169085000Y-66245000D01*
X169085000Y-66892844D01*
X169091401Y-66952372D01*
X169091403Y-66952379D01*
X169141645Y-67087086D01*
X169141646Y-67087088D01*
X169218890Y-67190272D01*
X169243307Y-67255736D01*
X169228456Y-67324009D01*
X169218890Y-67338894D01*
X169141204Y-67442669D01*
X169141202Y-67442671D01*
X169090908Y-67577517D01*
X169088262Y-67602135D01*
X169084500Y-67637127D01*
X169084500Y-68348642D01*
X169084501Y-68950500D01*
X169064816Y-69017539D01*
X169012013Y-69063294D01*
X168960501Y-69074500D01*
X166424853Y-69074500D01*
X166357814Y-69054815D01*
X166312059Y-69002011D01*
X166302115Y-68932853D01*
X166313852Y-68895229D01*
X166317826Y-68887248D01*
X166402405Y-68717389D01*
X166460756Y-68512310D01*
X166480429Y-68300000D01*
X166460756Y-68087690D01*
X166402405Y-67882611D01*
X166402403Y-67882606D01*
X166402403Y-67882605D01*
X166307367Y-67691746D01*
X166178872Y-67521593D01*
X166021302Y-67377948D01*
X165840019Y-67265702D01*
X165840017Y-67265701D01*
X165740608Y-67227190D01*
X165641198Y-67188679D01*
X165431610Y-67149500D01*
X165334429Y-67149500D01*
X165267390Y-67129815D01*
X165221635Y-67077011D01*
X165212616Y-67035554D01*
X165210958Y-67035708D01*
X165206297Y-66985404D01*
X165190756Y-66817690D01*
X165132405Y-66612611D01*
X165132403Y-66612606D01*
X165132403Y-66612605D01*
X165037367Y-66421746D01*
X164908872Y-66251593D01*
X164809739Y-66161221D01*
X164751302Y-66107948D01*
X164570019Y-65995702D01*
X164570017Y-65995701D01*
X164470608Y-65957190D01*
X164371198Y-65918679D01*
X164161610Y-65879500D01*
X163948390Y-65879500D01*
X163738802Y-65918679D01*
X163738799Y-65918679D01*
X163738799Y-65918680D01*
X163539982Y-65995701D01*
X163539980Y-65995702D01*
X163358699Y-66107947D01*
X163201127Y-66251593D01*
X163072632Y-66421746D01*
X162977596Y-66612605D01*
X162977596Y-66612607D01*
X162919244Y-66817689D01*
X162899042Y-67035708D01*
X162896638Y-67035485D01*
X162879886Y-67092539D01*
X162827082Y-67138294D01*
X162775571Y-67149500D01*
X162087129Y-67149500D01*
X162087123Y-67149501D01*
X162027516Y-67155908D01*
X161892671Y-67206202D01*
X161892664Y-67206206D01*
X161777455Y-67292452D01*
X161777452Y-67292455D01*
X161691206Y-67407664D01*
X161691202Y-67407671D01*
X161640908Y-67542517D01*
X161634675Y-67600499D01*
X161634500Y-67602127D01*
X161634500Y-68299999D01*
X161634501Y-68950500D01*
X161614816Y-69017539D01*
X161562013Y-69063294D01*
X161510501Y-69074500D01*
X161481281Y-69074500D01*
X161414242Y-69054815D01*
X161368487Y-69002011D01*
X161357923Y-68963102D01*
X161354833Y-68932853D01*
X161350174Y-68887247D01*
X161295908Y-68723484D01*
X161205340Y-68576650D01*
X161091371Y-68462681D01*
X161057886Y-68401358D01*
X161062870Y-68331666D01*
X161091371Y-68287319D01*
X161139558Y-68239132D01*
X161205340Y-68173350D01*
X161295908Y-68026516D01*
X161350174Y-67862753D01*
X161360500Y-67761677D01*
X161360499Y-67163324D01*
X161359741Y-67155908D01*
X161350174Y-67062247D01*
X161336751Y-67021739D01*
X161295908Y-66898484D01*
X161205340Y-66751650D01*
X161083350Y-66629660D01*
X160936516Y-66539092D01*
X160772753Y-66484826D01*
X160772751Y-66484825D01*
X160671684Y-66474500D01*
X160671677Y-66474500D01*
X160404007Y-66474500D01*
X160361591Y-66467020D01*
X160355935Y-66464961D01*
X160355933Y-66464960D01*
X160355930Y-66464959D01*
X160349144Y-66462489D01*
X160349164Y-66462433D01*
X160342049Y-66459959D01*
X160342031Y-66460015D01*
X160335171Y-66457742D01*
X160307341Y-66451996D01*
X160259934Y-66442207D01*
X160210972Y-66430603D01*
X160185219Y-66424499D01*
X160178047Y-66423661D01*
X160178053Y-66423601D01*
X160170555Y-66422835D01*
X160170550Y-66422895D01*
X160163360Y-66422265D01*
X160086583Y-66424500D01*
X158673667Y-66424500D01*
X158606628Y-66404815D01*
X158560873Y-66352011D01*
X158551574Y-66316752D01*
X158551459Y-66316776D01*
X158551019Y-66314648D01*
X158550139Y-66311309D01*
X158549998Y-66309702D01*
X158516642Y-66209040D01*
X158494814Y-66143165D01*
X158473647Y-66108849D01*
X158461479Y-66082753D01*
X158458409Y-66073487D01*
X158458408Y-66073486D01*
X158458408Y-66073484D01*
X158367840Y-65926650D01*
X158321819Y-65880629D01*
X158288334Y-65819306D01*
X158285500Y-65792948D01*
X158285500Y-65757052D01*
X158305185Y-65690013D01*
X158321819Y-65669371D01*
X158333603Y-65657587D01*
X158367840Y-65623350D01*
X158458408Y-65476516D01*
X158512674Y-65312753D01*
X158523000Y-65211677D01*
X158522999Y-64638324D01*
X158518505Y-64594334D01*
X158512674Y-64537247D01*
X158503435Y-64509365D01*
X158458408Y-64373484D01*
X158420458Y-64311958D01*
X158402019Y-64244568D01*
X158422941Y-64177904D01*
X158438317Y-64159182D01*
X158447500Y-64149999D01*
X158447500Y-63175000D01*
X157610001Y-63175000D01*
X157610001Y-63449986D01*
X157620494Y-63552697D01*
X157652389Y-63648950D01*
X157654791Y-63718779D01*
X157619059Y-63778820D01*
X157556538Y-63810013D01*
X157487079Y-63802452D01*
X157447002Y-63775635D01*
X157326367Y-63655000D01*
X157123229Y-63451861D01*
X157111449Y-63438230D01*
X157103982Y-63428201D01*
X157097112Y-63418972D01*
X157097110Y-63418970D01*
X157057087Y-63385386D01*
X157053112Y-63381744D01*
X157050190Y-63378822D01*
X157047280Y-63375911D01*
X157021540Y-63355559D01*
X156962709Y-63306194D01*
X156956680Y-63302229D01*
X156956712Y-63302180D01*
X156950353Y-63298128D01*
X156950322Y-63298179D01*
X156944180Y-63294391D01*
X156944178Y-63294390D01*
X156944177Y-63294389D01*
X156904974Y-63276108D01*
X156874558Y-63261924D01*
X156840394Y-63244767D01*
X156805933Y-63227460D01*
X156805931Y-63227459D01*
X156805930Y-63227459D01*
X156799145Y-63224989D01*
X156799165Y-63224933D01*
X156792049Y-63222459D01*
X156792031Y-63222515D01*
X156785171Y-63220242D01*
X156757341Y-63214496D01*
X156709934Y-63204707D01*
X156660972Y-63193103D01*
X156635219Y-63186999D01*
X156628047Y-63186161D01*
X156628053Y-63186101D01*
X156620555Y-63185335D01*
X156620550Y-63185395D01*
X156613360Y-63184765D01*
X156536583Y-63187000D01*
X153506248Y-63187000D01*
X153439209Y-63167315D01*
X153408468Y-63136002D01*
X153407193Y-63137011D01*
X153402711Y-63131343D01*
X153278657Y-63007289D01*
X153278656Y-63007288D01*
X153129334Y-62915186D01*
X152962797Y-62860001D01*
X152962795Y-62860000D01*
X152860010Y-62849500D01*
X151809998Y-62849500D01*
X151809980Y-62849501D01*
X151707203Y-62860000D01*
X151707200Y-62860001D01*
X151540668Y-62915185D01*
X151540663Y-62915187D01*
X151391342Y-63007289D01*
X151267289Y-63131342D01*
X151175187Y-63280663D01*
X151175185Y-63280668D01*
X151150369Y-63355559D01*
X151120001Y-63447203D01*
X151120001Y-63447204D01*
X151120000Y-63447204D01*
X151109500Y-63549983D01*
X151109500Y-64325001D01*
X151109501Y-64325019D01*
X151120000Y-64427796D01*
X151120001Y-64427799D01*
X151140458Y-64489532D01*
X151175186Y-64594334D01*
X151264681Y-64739430D01*
X151267289Y-64743657D01*
X151391346Y-64867714D01*
X151394182Y-64869463D01*
X151395717Y-64871170D01*
X151397011Y-64872193D01*
X151396836Y-64872414D01*
X151440905Y-64921411D01*
X151452126Y-64990374D01*
X151424282Y-65054456D01*
X151394182Y-65080537D01*
X151391346Y-65082285D01*
X151267289Y-65206342D01*
X151175187Y-65355663D01*
X151175186Y-65355666D01*
X151120001Y-65522203D01*
X151120001Y-65522204D01*
X151120000Y-65522204D01*
X151109500Y-65624983D01*
X151109500Y-66008770D01*
X151089815Y-66075809D01*
X151037011Y-66121564D01*
X150967853Y-66131508D01*
X150904297Y-66102483D01*
X150897819Y-66096451D01*
X150861716Y-66060348D01*
X150828231Y-65999025D01*
X150825869Y-65961863D01*
X150840468Y-65795000D01*
X150840288Y-65792948D01*
X150825593Y-65624983D01*
X150820635Y-65568308D01*
X150761739Y-65348504D01*
X150665568Y-65142266D01*
X150537815Y-64959814D01*
X150535045Y-64955858D01*
X150374141Y-64794954D01*
X150187734Y-64664432D01*
X150187732Y-64664431D01*
X150131758Y-64638330D01*
X150129132Y-64637105D01*
X150076694Y-64590934D01*
X150057542Y-64523740D01*
X150077758Y-64456859D01*
X150129134Y-64412341D01*
X150187484Y-64385132D01*
X150373820Y-64254657D01*
X150534657Y-64093820D01*
X150665134Y-63907482D01*
X150761265Y-63701326D01*
X150761269Y-63701317D01*
X150813872Y-63505000D01*
X149850686Y-63505000D01*
X149862641Y-63493045D01*
X149920165Y-63380148D01*
X149939986Y-63255000D01*
X149920165Y-63129852D01*
X149862641Y-63016955D01*
X149850686Y-63005000D01*
X150813872Y-63005000D01*
X150813872Y-63004999D01*
X150761269Y-62808682D01*
X150761265Y-62808673D01*
X150698933Y-62675000D01*
X157610000Y-62675000D01*
X158447500Y-62675000D01*
X158447500Y-61700000D01*
X158310027Y-61700000D01*
X158310012Y-61700001D01*
X158207302Y-61710494D01*
X158040880Y-61765641D01*
X158040875Y-61765643D01*
X157891654Y-61857684D01*
X157767684Y-61981654D01*
X157675643Y-62130875D01*
X157675641Y-62130880D01*
X157620494Y-62297302D01*
X157620493Y-62297309D01*
X157610000Y-62400013D01*
X157610000Y-62675000D01*
X150698933Y-62675000D01*
X150665134Y-62602517D01*
X150534657Y-62416179D01*
X150373820Y-62255342D01*
X150215581Y-62144541D01*
X150171956Y-62089964D01*
X150164764Y-62020465D01*
X150196286Y-61958110D01*
X150198961Y-61955349D01*
X150917492Y-61236819D01*
X150978815Y-61203334D01*
X151005173Y-61200500D01*
X152707284Y-61200500D01*
X152796358Y-61202757D01*
X152796358Y-61202756D01*
X152796363Y-61202757D01*
X152856753Y-61191932D01*
X152861412Y-61191280D01*
X152903607Y-61186988D01*
X152922438Y-61185074D01*
X152955227Y-61174786D01*
X152962840Y-61172918D01*
X152996653Y-61166858D01*
X153053621Y-61144101D01*
X153058053Y-61142524D01*
X153058678Y-61142328D01*
X153116588Y-61124159D01*
X153146627Y-61107484D01*
X153153708Y-61104122D01*
X153185617Y-61091377D01*
X153236854Y-61057608D01*
X153240851Y-61055187D01*
X153294502Y-61025409D01*
X153320568Y-61003030D01*
X153326843Y-60998300D01*
X153355519Y-60979402D01*
X153398917Y-60936002D01*
X153402336Y-60932834D01*
X153448895Y-60892866D01*
X153469931Y-60865688D01*
X153475101Y-60859818D01*
X153748487Y-60586433D01*
X153813053Y-60525059D01*
X153848119Y-60474675D01*
X153850912Y-60470972D01*
X153889697Y-60423408D01*
X153905604Y-60392952D01*
X153909666Y-60386248D01*
X153929295Y-60358049D01*
X153953497Y-60301650D01*
X153955500Y-60297431D01*
X153983909Y-60243049D01*
X153993357Y-60210022D01*
X153995988Y-60202633D01*
X154009540Y-60171058D01*
X154021895Y-60110930D01*
X154022999Y-60106429D01*
X154039886Y-60047418D01*
X154042494Y-60013157D01*
X154043585Y-60005389D01*
X154050500Y-59971743D01*
X154050500Y-59910398D01*
X154050679Y-59905688D01*
X154051497Y-59894944D01*
X154055337Y-59844524D01*
X154050997Y-59810442D01*
X154050500Y-59802603D01*
X154050500Y-59350067D01*
X154070185Y-59283028D01*
X154122989Y-59237273D01*
X154177642Y-59226107D01*
X154242767Y-59227757D01*
X154242767Y-59227756D01*
X154242772Y-59227757D01*
X154303162Y-59216932D01*
X154307821Y-59216280D01*
X154350016Y-59211988D01*
X154368847Y-59210074D01*
X154401636Y-59199786D01*
X154409249Y-59197918D01*
X154443062Y-59191858D01*
X154500030Y-59169101D01*
X154504462Y-59167524D01*
X154562997Y-59149159D01*
X154593036Y-59132484D01*
X154600117Y-59129122D01*
X154632026Y-59116377D01*
X154683263Y-59082608D01*
X154687260Y-59080187D01*
X154740911Y-59050409D01*
X154766977Y-59028030D01*
X154773252Y-59023300D01*
X154790675Y-59011818D01*
X154801928Y-59004402D01*
X154845301Y-58961027D01*
X154848759Y-58957823D01*
X154852022Y-58955020D01*
X154895304Y-58917866D01*
X154916337Y-58890691D01*
X154921507Y-58884821D01*
X156710601Y-57095728D01*
X156771924Y-57062243D01*
X156798282Y-57059409D01*
X156892598Y-57059409D01*
X156892600Y-57059409D01*
X157072476Y-57044504D01*
X157305905Y-56985392D01*
X157526422Y-56888664D01*
X157629706Y-56821184D01*
X157696595Y-56800997D01*
X157763781Y-56820176D01*
X157785209Y-56837312D01*
X160525999Y-59578102D01*
X160559484Y-59639425D01*
X160562318Y-59665783D01*
X160562318Y-60947870D01*
X160562319Y-60947876D01*
X160568726Y-61007483D01*
X160619020Y-61142328D01*
X160619024Y-61142335D01*
X160705270Y-61257544D01*
X160705271Y-61257544D01*
X160705272Y-61257546D01*
X160736387Y-61280838D01*
X160773580Y-61308682D01*
X160815450Y-61364616D01*
X160820434Y-61434308D01*
X160786949Y-61495629D01*
X160619397Y-61663181D01*
X160558074Y-61696666D01*
X160531717Y-61699500D01*
X160384999Y-61699500D01*
X160384980Y-61699501D01*
X160282203Y-61710000D01*
X160282200Y-61710001D01*
X160115668Y-61765185D01*
X160115663Y-61765187D01*
X159966342Y-61857289D01*
X159842288Y-61981343D01*
X159842283Y-61981349D01*
X159840241Y-61984661D01*
X159838247Y-61986453D01*
X159837807Y-61987011D01*
X159837711Y-61986935D01*
X159788291Y-62031383D01*
X159719328Y-62042602D01*
X159655247Y-62014755D01*
X159629168Y-61984656D01*
X159627319Y-61981659D01*
X159627316Y-61981655D01*
X159503345Y-61857684D01*
X159354124Y-61765643D01*
X159354119Y-61765641D01*
X159187697Y-61710494D01*
X159187690Y-61710493D01*
X159084986Y-61700000D01*
X158947500Y-61700000D01*
X158947500Y-64149999D01*
X159084972Y-64149999D01*
X159084986Y-64149998D01*
X159187697Y-64139505D01*
X159354119Y-64084358D01*
X159354124Y-64084356D01*
X159503345Y-63992315D01*
X159627318Y-63868342D01*
X159629165Y-63865348D01*
X159630969Y-63863724D01*
X159631798Y-63862677D01*
X159631976Y-63862818D01*
X159681110Y-63818621D01*
X159750073Y-63807396D01*
X159814156Y-63835236D01*
X159840243Y-63865341D01*
X159842288Y-63868656D01*
X159966344Y-63992712D01*
X160115666Y-64084814D01*
X160282203Y-64139999D01*
X160384991Y-64150500D01*
X161160008Y-64150499D01*
X161160016Y-64150498D01*
X161160019Y-64150498D01*
X161216302Y-64144748D01*
X161262797Y-64139999D01*
X161429334Y-64084814D01*
X161578656Y-63992712D01*
X161702712Y-63868656D01*
X161794814Y-63719334D01*
X161849999Y-63552797D01*
X161860500Y-63450009D01*
X161860499Y-63303282D01*
X161880183Y-63236243D01*
X161896813Y-63215606D01*
X162861305Y-62251115D01*
X162925871Y-62189741D01*
X162960930Y-62139368D01*
X162963743Y-62135639D01*
X163002516Y-62088089D01*
X163018425Y-62057630D01*
X163022485Y-62050930D01*
X163042113Y-62022731D01*
X163066310Y-61966342D01*
X163068316Y-61962117D01*
X163096727Y-61907731D01*
X163106178Y-61874697D01*
X163108809Y-61867310D01*
X163122358Y-61835740D01*
X163134711Y-61775622D01*
X163135824Y-61771094D01*
X163152705Y-61712100D01*
X163155313Y-61677837D01*
X163156405Y-61670058D01*
X163157819Y-61663181D01*
X163163318Y-61636423D01*
X163163318Y-61575083D01*
X163163497Y-61570373D01*
X163167708Y-61515082D01*
X163192427Y-61449731D01*
X163248553Y-61408119D01*
X163291350Y-61400499D01*
X163310689Y-61400499D01*
X163310690Y-61400499D01*
X163370301Y-61394091D01*
X163505149Y-61343796D01*
X163620364Y-61257546D01*
X163706614Y-61142331D01*
X163756909Y-61007483D01*
X163763318Y-60947873D01*
X163763317Y-59174499D01*
X163783002Y-59107461D01*
X163835805Y-59061706D01*
X163887317Y-59050500D01*
X164237770Y-59050500D01*
X164304809Y-59070185D01*
X164325451Y-59086819D01*
X164415897Y-59177265D01*
X164449382Y-59238588D01*
X164446365Y-59298979D01*
X164447082Y-59299152D01*
X164446166Y-59302967D01*
X164446152Y-59303249D01*
X164445946Y-59303881D01*
X164387135Y-59548848D01*
X164367369Y-59800000D01*
X164387135Y-60051151D01*
X164445944Y-60296110D01*
X164542351Y-60528859D01*
X164673978Y-60743653D01*
X164673979Y-60743656D01*
X164673982Y-60743659D01*
X164837594Y-60935224D01*
X164978041Y-61055177D01*
X165029161Y-61098838D01*
X165029164Y-61098839D01*
X165243958Y-61230466D01*
X165432790Y-61308682D01*
X165476707Y-61326873D01*
X165721670Y-61385683D01*
X165972818Y-61405449D01*
X166223966Y-61385683D01*
X166468929Y-61326873D01*
X166701677Y-61230466D01*
X166916477Y-61098836D01*
X167108042Y-60935224D01*
X167271654Y-60743659D01*
X167403284Y-60528859D01*
X167499691Y-60296111D01*
X167558501Y-60051148D01*
X167578267Y-59800000D01*
X167558501Y-59548852D01*
X167499691Y-59303889D01*
X167472098Y-59237273D01*
X167403284Y-59071140D01*
X167271657Y-58856346D01*
X167271656Y-58856343D01*
X167127319Y-58687347D01*
X167108042Y-58664776D01*
X166942862Y-58523699D01*
X166916474Y-58501161D01*
X166916471Y-58501160D01*
X166701677Y-58369533D01*
X166468928Y-58273126D01*
X166223969Y-58214317D01*
X166035605Y-58199492D01*
X165972818Y-58194551D01*
X165972817Y-58194551D01*
X165721677Y-58214316D01*
X165721664Y-58214318D01*
X165671469Y-58226368D01*
X165601686Y-58222876D01*
X165554843Y-58193475D01*
X165175729Y-57814361D01*
X165163949Y-57800730D01*
X165156482Y-57790701D01*
X165149612Y-57781472D01*
X165149610Y-57781470D01*
X165109587Y-57747886D01*
X165105612Y-57744244D01*
X165102690Y-57741322D01*
X165099780Y-57738411D01*
X165074040Y-57718059D01*
X165015209Y-57668694D01*
X165009180Y-57664729D01*
X165009212Y-57664680D01*
X165002853Y-57660628D01*
X165002822Y-57660679D01*
X164996680Y-57656891D01*
X164996678Y-57656890D01*
X164996677Y-57656889D01*
X164953423Y-57636719D01*
X164927058Y-57624424D01*
X164892894Y-57607267D01*
X164858433Y-57589960D01*
X164858431Y-57589959D01*
X164858430Y-57589959D01*
X164851645Y-57587489D01*
X164851665Y-57587433D01*
X164844549Y-57584959D01*
X164844531Y-57585015D01*
X164837671Y-57582742D01*
X164809841Y-57576996D01*
X164762434Y-57567207D01*
X164713472Y-57555603D01*
X164687719Y-57549499D01*
X164680547Y-57548661D01*
X164680553Y-57548601D01*
X164673055Y-57547835D01*
X164673050Y-57547895D01*
X164665860Y-57547265D01*
X164589083Y-57549500D01*
X163937208Y-57549500D01*
X163870169Y-57529815D01*
X163824414Y-57477011D01*
X163814470Y-57407853D01*
X163843495Y-57344297D01*
X163874020Y-57321253D01*
X163872975Y-57319558D01*
X164028345Y-57223724D01*
X164152315Y-57099754D01*
X164244356Y-56950533D01*
X164244358Y-56950528D01*
X164299505Y-56784106D01*
X164299506Y-56784099D01*
X164309999Y-56681395D01*
X164310000Y-56681382D01*
X164310000Y-56406409D01*
X163096500Y-56406409D01*
X163029461Y-56386724D01*
X162983706Y-56333920D01*
X162972500Y-56282409D01*
X162972500Y-54931409D01*
X163472500Y-54931409D01*
X163472500Y-55906409D01*
X164309999Y-55906409D01*
X164309999Y-55631437D01*
X164309998Y-55631422D01*
X164299505Y-55528711D01*
X164244358Y-55362289D01*
X164244356Y-55362284D01*
X164152315Y-55213063D01*
X164028345Y-55089093D01*
X163879124Y-54997052D01*
X163879119Y-54997050D01*
X163712697Y-54941903D01*
X163712690Y-54941902D01*
X163609986Y-54931409D01*
X163472500Y-54931409D01*
X162972500Y-54931409D01*
X162835027Y-54931409D01*
X162835012Y-54931410D01*
X162732302Y-54941903D01*
X162565880Y-54997050D01*
X162565875Y-54997052D01*
X162416654Y-55089093D01*
X162292683Y-55213064D01*
X162292679Y-55213069D01*
X162290826Y-55216074D01*
X162289018Y-55217699D01*
X162288202Y-55218732D01*
X162288025Y-55218592D01*
X162238874Y-55262794D01*
X162169911Y-55274010D01*
X162105831Y-55246161D01*
X162079753Y-55216062D01*
X162079737Y-55216037D01*
X162077712Y-55212753D01*
X161953656Y-55088697D01*
X161947989Y-55084216D01*
X161949430Y-55082393D01*
X161910175Y-55038744D01*
X161898000Y-54985161D01*
X161898000Y-53787461D01*
X161917685Y-53720422D01*
X161970489Y-53674667D01*
X162039647Y-53664723D01*
X162103203Y-53693748D01*
X162109681Y-53699780D01*
X162186650Y-53776749D01*
X162333484Y-53867317D01*
X162497247Y-53921583D01*
X162598323Y-53931909D01*
X163196676Y-53931908D01*
X163196684Y-53931907D01*
X163196687Y-53931907D01*
X163252030Y-53926253D01*
X163297753Y-53921583D01*
X163461516Y-53867317D01*
X163608350Y-53776749D01*
X163730340Y-53654759D01*
X163820908Y-53507925D01*
X163875174Y-53344162D01*
X163885500Y-53243086D01*
X163885499Y-52669733D01*
X163880980Y-52625498D01*
X163875174Y-52568656D01*
X163874674Y-52567146D01*
X163820908Y-52404893D01*
X163730340Y-52258059D01*
X163608350Y-52136069D01*
X163495854Y-52066681D01*
X163461518Y-52045502D01*
X163461513Y-52045500D01*
X163421304Y-52032176D01*
X163297753Y-51991235D01*
X163297751Y-51991234D01*
X163196684Y-51980909D01*
X163196677Y-51980909D01*
X163034729Y-51980909D01*
X162967690Y-51961224D01*
X162947048Y-51944590D01*
X162177280Y-51174822D01*
X162143795Y-51113499D01*
X162148779Y-51043807D01*
X162190651Y-50987874D01*
X162256115Y-50963457D01*
X162303965Y-50969435D01*
X162459848Y-51021089D01*
X162560851Y-51031408D01*
X162609999Y-51031407D01*
X162610000Y-51031407D01*
X162610000Y-50306409D01*
X163110000Y-50306409D01*
X163110000Y-51031408D01*
X163159140Y-51031408D01*
X163159154Y-51031407D01*
X163260152Y-51021089D01*
X163423800Y-50966862D01*
X163423811Y-50966857D01*
X163570534Y-50876356D01*
X163570538Y-50876353D01*
X163692444Y-50754447D01*
X163692447Y-50754443D01*
X163782948Y-50607720D01*
X163782953Y-50607709D01*
X163837180Y-50444061D01*
X163847499Y-50343063D01*
X163847500Y-50343050D01*
X163847500Y-50306409D01*
X163110000Y-50306409D01*
X162610000Y-50306409D01*
X162610000Y-49081409D01*
X163110000Y-49081409D01*
X163110000Y-49806409D01*
X163847499Y-49806409D01*
X163847499Y-49769769D01*
X163847498Y-49769754D01*
X163837180Y-49668756D01*
X163782953Y-49505108D01*
X163782948Y-49505097D01*
X163692447Y-49358374D01*
X163692444Y-49358370D01*
X163570538Y-49236464D01*
X163570534Y-49236461D01*
X163423811Y-49145960D01*
X163423800Y-49145955D01*
X163260152Y-49091728D01*
X163159154Y-49081409D01*
X163110000Y-49081409D01*
X162610000Y-49081409D01*
X162609999Y-49081408D01*
X162560861Y-49081409D01*
X162560843Y-49081410D01*
X162459847Y-49091728D01*
X162296199Y-49145955D01*
X162296188Y-49145960D01*
X162149465Y-49236461D01*
X162035534Y-49350392D01*
X161974211Y-49383876D01*
X161904519Y-49378892D01*
X161860172Y-49350391D01*
X161745851Y-49236070D01*
X161745850Y-49236069D01*
X161600767Y-49146581D01*
X161599018Y-49145502D01*
X161599013Y-49145500D01*
X161552572Y-49130111D01*
X161435253Y-49091235D01*
X161435251Y-49091234D01*
X161334178Y-49080909D01*
X160735830Y-49080909D01*
X160735812Y-49080910D01*
X160634747Y-49091234D01*
X160470984Y-49145501D01*
X160470981Y-49145502D01*
X160324148Y-49236070D01*
X160202161Y-49358057D01*
X160111593Y-49504890D01*
X160111591Y-49504895D01*
X160093559Y-49559312D01*
X160057689Y-49667563D01*
X160057326Y-49668657D01*
X160055908Y-49675280D01*
X160053563Y-49674778D01*
X160031341Y-49729218D01*
X159974154Y-49769361D01*
X159934391Y-49775909D01*
X158409499Y-49775909D01*
X158342460Y-49756224D01*
X158296705Y-49703420D01*
X158285499Y-49651909D01*
X158285499Y-49526038D01*
X158285498Y-49526032D01*
X158285497Y-49526025D01*
X158279091Y-49466426D01*
X158268704Y-49438578D01*
X158228797Y-49331580D01*
X158228793Y-49331573D01*
X158142547Y-49216364D01*
X158142544Y-49216361D01*
X158027335Y-49130115D01*
X158027328Y-49130111D01*
X157892482Y-49079817D01*
X157892483Y-49079817D01*
X157832883Y-49073410D01*
X157832881Y-49073409D01*
X157832873Y-49073409D01*
X157832864Y-49073409D01*
X155737129Y-49073409D01*
X155737123Y-49073410D01*
X155677516Y-49079817D01*
X155542671Y-49130111D01*
X155542664Y-49130115D01*
X155427455Y-49216361D01*
X155427452Y-49216364D01*
X155341206Y-49331573D01*
X155341202Y-49331580D01*
X155290908Y-49466426D01*
X155285615Y-49515667D01*
X155284501Y-49526032D01*
X155284500Y-49526044D01*
X155284500Y-51526779D01*
X155284501Y-51526785D01*
X155290908Y-51586392D01*
X155341202Y-51721237D01*
X155341206Y-51721244D01*
X155427452Y-51836453D01*
X155427455Y-51836456D01*
X155542664Y-51922702D01*
X155542673Y-51922707D01*
X155573311Y-51934134D01*
X155629245Y-51976004D01*
X155653663Y-52041468D01*
X155638812Y-52109741D01*
X155627833Y-52126478D01*
X155516929Y-52268968D01*
X155402321Y-52480743D01*
X155402318Y-52480752D01*
X155324134Y-52708492D01*
X155284500Y-52946011D01*
X155284500Y-53186806D01*
X155324134Y-53424325D01*
X155402318Y-53652065D01*
X155402321Y-53652074D01*
X155516929Y-53863850D01*
X155560451Y-53919767D01*
X155664829Y-54053872D01*
X155841990Y-54216960D01*
X155865931Y-54232602D01*
X155911287Y-54285748D01*
X155920710Y-54354979D01*
X155891207Y-54418315D01*
X155865933Y-54440215D01*
X155841990Y-54455858D01*
X155804606Y-54490272D01*
X155671483Y-54612821D01*
X155664829Y-54618946D01*
X155652709Y-54634518D01*
X155516929Y-54808967D01*
X155402321Y-55020743D01*
X155402318Y-55020752D01*
X155324134Y-55248492D01*
X155284500Y-55486011D01*
X155284500Y-55640625D01*
X155264815Y-55707664D01*
X155248181Y-55728306D01*
X154112757Y-56863729D01*
X154051434Y-56897214D01*
X153981742Y-56892230D01*
X153925809Y-56850358D01*
X153921560Y-56844315D01*
X153912724Y-56830907D01*
X153907620Y-56823161D01*
X153905179Y-56819133D01*
X153875407Y-56765495D01*
X153853033Y-56739434D01*
X153848302Y-56733159D01*
X153848120Y-56732883D01*
X153829402Y-56704481D01*
X153786033Y-56661112D01*
X153782829Y-56657656D01*
X153742867Y-56611106D01*
X153715698Y-56590075D01*
X153709804Y-56584883D01*
X153101451Y-55976531D01*
X153040061Y-55911949D01*
X153040060Y-55911948D01*
X153040059Y-55911947D01*
X153010353Y-55891271D01*
X152989709Y-55876902D01*
X152985946Y-55874064D01*
X152938413Y-55835305D01*
X152938406Y-55835300D01*
X152907959Y-55819397D01*
X152901251Y-55815334D01*
X152873049Y-55795705D01*
X152873046Y-55795703D01*
X152873045Y-55795703D01*
X152873041Y-55795701D01*
X152816680Y-55771514D01*
X152812424Y-55769493D01*
X152758057Y-55741094D01*
X152758050Y-55741091D01*
X152758049Y-55741091D01*
X152752008Y-55739362D01*
X152725030Y-55731642D01*
X152717630Y-55729008D01*
X152686057Y-55715459D01*
X152686058Y-55715459D01*
X152625966Y-55703109D01*
X152621391Y-55701986D01*
X152562420Y-55685113D01*
X152562425Y-55685113D01*
X152528158Y-55682503D01*
X152520380Y-55681412D01*
X152486742Y-55674500D01*
X152486741Y-55674500D01*
X152425402Y-55674500D01*
X152420695Y-55674321D01*
X152415121Y-55673896D01*
X152359524Y-55669662D01*
X152339589Y-55672201D01*
X152325440Y-55674003D01*
X152317611Y-55674500D01*
X151539373Y-55674500D01*
X151472334Y-55654815D01*
X151451692Y-55638181D01*
X149571819Y-53758308D01*
X149538334Y-53696985D01*
X149535500Y-53670627D01*
X149535500Y-53659999D01*
X150015000Y-53659999D01*
X150021581Y-53659999D01*
X150092102Y-53653591D01*
X150092107Y-53653590D01*
X150254396Y-53603018D01*
X150399876Y-53515073D01*
X150402024Y-53512925D01*
X150403987Y-53511852D01*
X150405783Y-53510446D01*
X150406016Y-53510744D01*
X150463345Y-53479436D01*
X150533037Y-53484415D01*
X150585563Y-53521934D01*
X150588946Y-53526057D01*
X150748826Y-53657267D01*
X150748833Y-53657271D01*
X150931233Y-53754766D01*
X151085000Y-53801410D01*
X151085000Y-52946110D01*
X151109457Y-52985610D01*
X151198962Y-53053201D01*
X151306840Y-53083895D01*
X151418521Y-53073546D01*
X151518922Y-53023552D01*
X151585000Y-52951069D01*
X151585000Y-53801410D01*
X151738766Y-53754766D01*
X151921166Y-53657271D01*
X151921173Y-53657267D01*
X152081055Y-53526055D01*
X152212267Y-53366173D01*
X152212271Y-53366166D01*
X152309766Y-53183766D01*
X152369808Y-52985834D01*
X152385000Y-52831584D01*
X152385000Y-52730000D01*
X151635000Y-52730000D01*
X151635000Y-52230000D01*
X152385000Y-52230000D01*
X152385000Y-52128415D01*
X152369808Y-51974165D01*
X152309766Y-51776233D01*
X152212271Y-51593833D01*
X152212267Y-51593826D01*
X152081055Y-51433944D01*
X151921173Y-51302732D01*
X151921166Y-51302728D01*
X151738763Y-51205232D01*
X151585000Y-51158587D01*
X151585000Y-52013889D01*
X151560543Y-51974390D01*
X151471038Y-51906799D01*
X151363160Y-51876105D01*
X151251479Y-51886454D01*
X151151078Y-51936448D01*
X151085000Y-52008930D01*
X151085000Y-51158587D01*
X150931236Y-51205232D01*
X150748833Y-51302728D01*
X150748826Y-51302732D01*
X150588944Y-51433944D01*
X150500574Y-51541623D01*
X150442828Y-51580957D01*
X150372983Y-51582828D01*
X150340571Y-51569075D01*
X150254396Y-51516980D01*
X150092105Y-51466409D01*
X150092106Y-51466409D01*
X150021572Y-51460000D01*
X150015000Y-51460000D01*
X150015000Y-52310000D01*
X150245000Y-52310000D01*
X150263290Y-52291709D01*
X150264685Y-52286961D01*
X150317489Y-52241206D01*
X150369000Y-52230000D01*
X151035000Y-52230000D01*
X151035000Y-52730000D01*
X150705000Y-52730000D01*
X150686709Y-52748290D01*
X150685315Y-52753039D01*
X150632511Y-52798794D01*
X150581000Y-52810000D01*
X150015000Y-52810000D01*
X150015000Y-53659999D01*
X149535500Y-53659999D01*
X149535500Y-51821139D01*
X149537757Y-51732065D01*
X149537756Y-51732064D01*
X149537757Y-51732061D01*
X149526933Y-51671673D01*
X149526280Y-51667011D01*
X149522618Y-51631003D01*
X149520074Y-51605986D01*
X149520072Y-51605982D01*
X149518809Y-51599828D01*
X149519424Y-51599701D01*
X149515000Y-51570817D01*
X149515000Y-51460000D01*
X149496749Y-51441752D01*
X149491858Y-51440317D01*
X149450465Y-51396171D01*
X149442489Y-51381802D01*
X149439118Y-51374704D01*
X149426379Y-51342811D01*
X149426375Y-51342804D01*
X149392621Y-51291588D01*
X149390180Y-51287558D01*
X149372120Y-51255021D01*
X149360409Y-51233922D01*
X149360407Y-51233919D01*
X149338033Y-51207858D01*
X149333302Y-51201583D01*
X149314402Y-51172905D01*
X149271033Y-51129536D01*
X149267829Y-51126080D01*
X149227867Y-51079530D01*
X149200698Y-51058499D01*
X149194804Y-51053307D01*
X148753026Y-50611530D01*
X148749394Y-50607709D01*
X148691635Y-50546947D01*
X148668146Y-50530598D01*
X148641285Y-50511902D01*
X148637520Y-50509064D01*
X148635398Y-50507334D01*
X148607507Y-50484591D01*
X148589984Y-50470302D01*
X148589982Y-50470300D01*
X148559535Y-50454397D01*
X148552827Y-50450334D01*
X148524625Y-50430705D01*
X148524622Y-50430703D01*
X148524621Y-50430703D01*
X148524617Y-50430701D01*
X148468256Y-50406514D01*
X148464000Y-50404493D01*
X148409633Y-50376094D01*
X148409626Y-50376091D01*
X148409625Y-50376091D01*
X148403584Y-50374362D01*
X148376606Y-50366642D01*
X148369206Y-50364008D01*
X148337633Y-50350459D01*
X148337634Y-50350459D01*
X148277542Y-50338109D01*
X148272967Y-50336986D01*
X148213996Y-50320113D01*
X148214001Y-50320113D01*
X148179734Y-50317503D01*
X148171956Y-50316412D01*
X148138318Y-50309500D01*
X148138317Y-50309500D01*
X148076978Y-50309500D01*
X148072271Y-50309321D01*
X148066697Y-50308896D01*
X148011100Y-50304662D01*
X147991165Y-50307201D01*
X147977016Y-50309003D01*
X147969187Y-50309500D01*
X146006141Y-50309500D01*
X145917061Y-50307243D01*
X145917052Y-50307243D01*
X145865900Y-50316412D01*
X145856678Y-50318064D01*
X145852019Y-50318718D01*
X145790988Y-50324925D01*
X145790986Y-50324926D01*
X145758204Y-50335210D01*
X145750580Y-50337081D01*
X145747481Y-50337637D01*
X145716773Y-50343141D01*
X145659805Y-50365895D01*
X145655369Y-50367474D01*
X145596838Y-50385840D01*
X145596834Y-50385842D01*
X145566802Y-50402510D01*
X145559708Y-50405879D01*
X145527806Y-50418623D01*
X145527801Y-50418625D01*
X145476580Y-50452381D01*
X145472552Y-50454822D01*
X145418925Y-50484588D01*
X145392858Y-50506965D01*
X145386589Y-50511692D01*
X145357908Y-50530595D01*
X145357902Y-50530600D01*
X145314534Y-50573967D01*
X145311080Y-50577168D01*
X145264526Y-50617136D01*
X145243500Y-50644298D01*
X145238309Y-50650192D01*
X144796530Y-51091972D01*
X144731949Y-51153362D01*
X144731946Y-51153366D01*
X144696899Y-51203718D01*
X144694062Y-51207480D01*
X144655302Y-51255016D01*
X144655299Y-51255021D01*
X144639392Y-51285471D01*
X144635324Y-51292185D01*
X144615701Y-51320380D01*
X144591511Y-51376751D01*
X144589490Y-51381005D01*
X144583013Y-51393407D01*
X144534529Y-51443716D01*
X144530113Y-51444886D01*
X144515000Y-51460000D01*
X144515000Y-51579059D01*
X144510216Y-51613169D01*
X144505114Y-51631000D01*
X144505113Y-51631003D01*
X144502503Y-51665265D01*
X144501414Y-51673032D01*
X144495980Y-51699476D01*
X144494500Y-51706682D01*
X144494500Y-51768021D01*
X144494321Y-51772730D01*
X144489662Y-51833898D01*
X144491374Y-51847335D01*
X144494003Y-51867984D01*
X144494500Y-51875812D01*
X144494500Y-52610743D01*
X144509925Y-52762439D01*
X144511190Y-52768588D01*
X144510573Y-52768714D01*
X144515000Y-52797604D01*
X144515000Y-53659999D01*
X144521581Y-53659999D01*
X144592102Y-53653591D01*
X144592107Y-53653590D01*
X144754395Y-53603019D01*
X144754398Y-53603018D01*
X144821759Y-53562296D01*
X144889313Y-53544459D01*
X144950057Y-53562294D01*
X145019529Y-53604291D01*
X145020939Y-53604730D01*
X145021843Y-53605332D01*
X145026370Y-53607370D01*
X145026031Y-53608122D01*
X145079089Y-53643461D01*
X145107069Y-53707483D01*
X145095995Y-53776470D01*
X145071740Y-53810799D01*
X144157949Y-54724590D01*
X144096626Y-54758075D01*
X144070269Y-54760909D01*
X143908331Y-54760909D01*
X143908312Y-54760910D01*
X143807247Y-54771234D01*
X143643484Y-54825501D01*
X143643481Y-54825502D01*
X143496651Y-54916068D01*
X143382327Y-55030392D01*
X143321004Y-55063876D01*
X143251312Y-55058892D01*
X143206965Y-55030391D01*
X143093038Y-54916464D01*
X143093034Y-54916461D01*
X142946311Y-54825960D01*
X142946300Y-54825955D01*
X142782652Y-54771728D01*
X142681654Y-54761409D01*
X142632500Y-54761409D01*
X142632500Y-56711408D01*
X142681640Y-56711408D01*
X142681654Y-56711407D01*
X142782652Y-56701089D01*
X142946300Y-56646862D01*
X142946311Y-56646857D01*
X143093033Y-56556357D01*
X143206964Y-56442426D01*
X143268287Y-56408941D01*
X143337979Y-56413925D01*
X143382327Y-56442426D01*
X143496650Y-56556749D01*
X143643484Y-56647317D01*
X143807247Y-56701583D01*
X143908323Y-56711909D01*
X144506676Y-56711908D01*
X144506684Y-56711907D01*
X144506687Y-56711907D01*
X144579412Y-56704478D01*
X144607753Y-56701583D01*
X144771516Y-56647317D01*
X144918350Y-56556749D01*
X144927319Y-56547780D01*
X144988642Y-56514295D01*
X145058334Y-56519279D01*
X145102681Y-56547780D01*
X145111650Y-56556749D01*
X145258484Y-56647317D01*
X145422247Y-56701583D01*
X145523323Y-56711909D01*
X146121676Y-56711908D01*
X146121684Y-56711907D01*
X146121687Y-56711907D01*
X146194412Y-56704478D01*
X146222753Y-56701583D01*
X146386516Y-56647317D01*
X146533350Y-56556749D01*
X146647675Y-56442423D01*
X146708994Y-56408941D01*
X146778686Y-56413925D01*
X146823034Y-56442426D01*
X146936961Y-56556353D01*
X146936965Y-56556356D01*
X147083688Y-56646857D01*
X147083699Y-56646862D01*
X147247347Y-56701089D01*
X147348351Y-56711408D01*
X147397499Y-56711407D01*
X147397500Y-56711407D01*
X147397500Y-55610409D01*
X147417185Y-55543370D01*
X147469989Y-55497615D01*
X147521500Y-55486409D01*
X147773500Y-55486409D01*
X147840539Y-55506094D01*
X147886294Y-55558898D01*
X147897500Y-55610409D01*
X147897500Y-56711408D01*
X147946640Y-56711408D01*
X147946654Y-56711407D01*
X148047652Y-56701089D01*
X148211300Y-56646862D01*
X148211311Y-56646857D01*
X148358034Y-56556356D01*
X148358038Y-56556353D01*
X148479944Y-56434447D01*
X148479947Y-56434443D01*
X148570448Y-56287720D01*
X148570453Y-56287709D01*
X148624680Y-56124061D01*
X148634999Y-56023063D01*
X148634999Y-55950692D01*
X148654683Y-55883652D01*
X148707486Y-55837896D01*
X148776644Y-55827952D01*
X148840200Y-55856976D01*
X148846680Y-55863009D01*
X149601020Y-56617349D01*
X149634505Y-56678672D01*
X149629521Y-56748364D01*
X149587649Y-56804297D01*
X149526596Y-56828319D01*
X149502519Y-56830907D01*
X149367671Y-56881202D01*
X149367664Y-56881206D01*
X149252455Y-56967452D01*
X149252452Y-56967455D01*
X149166206Y-57082664D01*
X149166202Y-57082671D01*
X149115908Y-57217517D01*
X149109501Y-57277116D01*
X149109500Y-57277135D01*
X149109500Y-57350500D01*
X149089815Y-57417539D01*
X149037011Y-57463294D01*
X148985500Y-57474500D01*
X148611208Y-57474500D01*
X148593237Y-57473191D01*
X148569479Y-57469711D01*
X148569473Y-57469710D01*
X148524403Y-57473654D01*
X148517431Y-57474264D01*
X148512030Y-57474500D01*
X148503789Y-57474500D01*
X148482305Y-57477011D01*
X148471224Y-57478306D01*
X148455919Y-57479645D01*
X148394699Y-57485001D01*
X148387632Y-57486460D01*
X148387620Y-57486404D01*
X148380263Y-57488035D01*
X148380277Y-57488092D01*
X148373243Y-57489759D01*
X148301075Y-57516025D01*
X148228175Y-57540181D01*
X148221626Y-57543236D01*
X148221601Y-57543183D01*
X148214808Y-57546471D01*
X148214834Y-57546523D01*
X148208380Y-57549764D01*
X148144208Y-57591971D01*
X148078847Y-57632285D01*
X148073183Y-57636765D01*
X148073147Y-57636719D01*
X148067298Y-57641484D01*
X148067335Y-57641528D01*
X148061810Y-57646164D01*
X148061804Y-57646169D01*
X148061804Y-57646170D01*
X148044294Y-57664729D01*
X148009098Y-57702034D01*
X147647949Y-58063181D01*
X147586626Y-58096666D01*
X147560269Y-58099500D01*
X147398331Y-58099500D01*
X147398312Y-58099501D01*
X147297247Y-58109825D01*
X147133484Y-58164092D01*
X147133481Y-58164093D01*
X146986651Y-58254659D01*
X146872327Y-58368983D01*
X146811004Y-58402467D01*
X146741312Y-58397483D01*
X146696965Y-58368982D01*
X146583038Y-58255055D01*
X146583034Y-58255052D01*
X146436311Y-58164551D01*
X146436300Y-58164546D01*
X146272652Y-58110319D01*
X146171654Y-58100000D01*
X146122500Y-58100000D01*
X146122500Y-60049999D01*
X146171640Y-60049999D01*
X146171654Y-60049998D01*
X146272652Y-60039680D01*
X146436300Y-59985453D01*
X146436311Y-59985448D01*
X146583033Y-59894948D01*
X146696964Y-59781017D01*
X146758287Y-59747532D01*
X146827979Y-59752516D01*
X146872327Y-59781017D01*
X146986650Y-59895340D01*
X147133484Y-59985908D01*
X147297247Y-60040174D01*
X147398323Y-60050500D01*
X147996676Y-60050499D01*
X147996684Y-60050498D01*
X147996687Y-60050498D01*
X148052030Y-60044844D01*
X148097753Y-60040174D01*
X148261516Y-59985908D01*
X148408350Y-59895340D01*
X148530340Y-59773350D01*
X148620908Y-59626516D01*
X148675174Y-59462753D01*
X148685500Y-59361677D01*
X148685499Y-59199728D01*
X148705183Y-59132689D01*
X148721813Y-59112052D01*
X148822049Y-59011818D01*
X148883372Y-58978334D01*
X148909729Y-58975500D01*
X148985501Y-58975500D01*
X149052540Y-58995185D01*
X149098295Y-59047989D01*
X149109501Y-59099500D01*
X149109501Y-59172876D01*
X149115908Y-59232483D01*
X149166202Y-59367328D01*
X149166206Y-59367335D01*
X149252452Y-59482544D01*
X149252455Y-59482547D01*
X149367664Y-59568793D01*
X149367673Y-59568798D01*
X149469485Y-59606771D01*
X149525419Y-59648642D01*
X149549837Y-59714106D01*
X149534986Y-59782379D01*
X149513834Y-59810634D01*
X143431743Y-65892725D01*
X143370420Y-65926210D01*
X143300728Y-65921226D01*
X143244795Y-65879354D01*
X143220378Y-65813890D01*
X143220486Y-65800414D01*
X143220468Y-65800414D01*
X143220468Y-65794998D01*
X143205593Y-65624983D01*
X143200635Y-65568308D01*
X143141739Y-65348504D01*
X143045568Y-65142266D01*
X142917815Y-64959814D01*
X142915045Y-64955858D01*
X142754141Y-64794954D01*
X142567734Y-64664432D01*
X142567728Y-64664429D01*
X142511758Y-64638330D01*
X142509724Y-64637381D01*
X142457285Y-64591210D01*
X142438133Y-64524017D01*
X142458348Y-64457135D01*
X142509725Y-64412618D01*
X142510319Y-64412341D01*
X142567734Y-64385568D01*
X142754139Y-64255047D01*
X142915047Y-64094139D01*
X143045568Y-63907734D01*
X143141739Y-63701496D01*
X143200635Y-63481692D01*
X143220468Y-63255000D01*
X143218058Y-63227459D01*
X143213469Y-63175000D01*
X143200635Y-63028308D01*
X143141739Y-62808504D01*
X143045568Y-62602266D01*
X142915047Y-62415861D01*
X142915045Y-62415858D01*
X142754141Y-62254954D01*
X142567734Y-62124432D01*
X142567732Y-62124431D01*
X142361497Y-62028261D01*
X142361488Y-62028258D01*
X142141697Y-61969366D01*
X142141693Y-61969365D01*
X142141692Y-61969365D01*
X142141691Y-61969364D01*
X142141686Y-61969364D01*
X141915002Y-61949532D01*
X141914998Y-61949532D01*
X141688313Y-61969364D01*
X141688302Y-61969366D01*
X141468511Y-62028258D01*
X141468502Y-62028261D01*
X141262267Y-62124431D01*
X141262265Y-62124432D01*
X141075858Y-62254954D01*
X140914954Y-62415858D01*
X140784432Y-62602265D01*
X140784431Y-62602267D01*
X140688261Y-62808502D01*
X140688258Y-62808511D01*
X140629366Y-63028302D01*
X140629364Y-63028313D01*
X140609532Y-63254998D01*
X140609532Y-63255001D01*
X140629364Y-63481686D01*
X140629366Y-63481697D01*
X140688258Y-63701488D01*
X140688261Y-63701497D01*
X140784431Y-63907732D01*
X140784432Y-63907734D01*
X140914954Y-64094141D01*
X141075858Y-64255045D01*
X141075861Y-64255047D01*
X141262266Y-64385568D01*
X141319681Y-64412341D01*
X141320275Y-64412618D01*
X141372714Y-64458791D01*
X141391866Y-64525984D01*
X141371650Y-64592865D01*
X141320275Y-64637381D01*
X141318242Y-64638330D01*
X141262267Y-64664431D01*
X141262265Y-64664432D01*
X141075858Y-64794954D01*
X140914954Y-64955858D01*
X140784432Y-65142265D01*
X140784431Y-65142267D01*
X140688261Y-65348502D01*
X140688258Y-65348511D01*
X140629366Y-65568302D01*
X140629364Y-65568313D01*
X140609532Y-65794998D01*
X140609532Y-65795001D01*
X140629364Y-66021686D01*
X140629366Y-66021697D01*
X140688258Y-66241488D01*
X140688261Y-66241497D01*
X140784431Y-66447732D01*
X140784432Y-66447734D01*
X140914954Y-66634141D01*
X141075858Y-66795045D01*
X141075861Y-66795047D01*
X141262266Y-66925568D01*
X141319747Y-66952372D01*
X141320275Y-66952618D01*
X141372714Y-66998791D01*
X141391866Y-67065984D01*
X141371650Y-67132865D01*
X141320275Y-67177381D01*
X141305010Y-67184500D01*
X141262267Y-67204431D01*
X141262265Y-67204432D01*
X141075858Y-67334954D01*
X140914954Y-67495858D01*
X140784432Y-67682265D01*
X140784431Y-67682267D01*
X140688261Y-67888502D01*
X140688258Y-67888511D01*
X140629366Y-68108302D01*
X140629364Y-68108313D01*
X140609532Y-68334998D01*
X140609532Y-68335001D01*
X140629364Y-68561686D01*
X140629366Y-68561697D01*
X140688258Y-68781488D01*
X140688261Y-68781497D01*
X140784431Y-68987732D01*
X140784432Y-68987734D01*
X140914954Y-69174141D01*
X141075858Y-69335045D01*
X141075861Y-69335047D01*
X141262266Y-69465568D01*
X141287136Y-69477165D01*
X141320275Y-69492618D01*
X141372714Y-69538791D01*
X141391866Y-69605984D01*
X141371650Y-69672865D01*
X141320275Y-69717381D01*
X141320118Y-69717455D01*
X141262267Y-69744431D01*
X141262265Y-69744432D01*
X141075858Y-69874954D01*
X140914954Y-70035858D01*
X140784432Y-70222265D01*
X140784431Y-70222267D01*
X140688261Y-70428502D01*
X140688258Y-70428511D01*
X140629366Y-70648302D01*
X140629364Y-70648313D01*
X140609532Y-70874998D01*
X140609532Y-70875001D01*
X139850500Y-70875001D01*
X139850500Y-59325000D01*
X144885001Y-59325000D01*
X144885001Y-59361654D01*
X144895319Y-59462652D01*
X144949546Y-59626300D01*
X144949551Y-59626311D01*
X145040052Y-59773034D01*
X145040055Y-59773038D01*
X145161961Y-59894944D01*
X145161965Y-59894947D01*
X145308688Y-59985448D01*
X145308699Y-59985453D01*
X145472347Y-60039680D01*
X145573351Y-60049999D01*
X145622499Y-60049998D01*
X145622500Y-60049998D01*
X145622500Y-59325000D01*
X144885001Y-59325000D01*
X139850500Y-59325000D01*
X139850500Y-58825000D01*
X144885000Y-58825000D01*
X145622500Y-58825000D01*
X145622500Y-58100000D01*
X145622499Y-58099999D01*
X145573361Y-58100000D01*
X145573343Y-58100001D01*
X145472347Y-58110319D01*
X145308699Y-58164546D01*
X145308688Y-58164551D01*
X145161965Y-58255052D01*
X145161961Y-58255055D01*
X145040055Y-58376961D01*
X145040052Y-58376965D01*
X144949551Y-58523688D01*
X144949546Y-58523699D01*
X144895319Y-58687347D01*
X144885000Y-58788345D01*
X144885000Y-58825000D01*
X139850500Y-58825000D01*
X139850500Y-55986409D01*
X141395001Y-55986409D01*
X141395001Y-56023063D01*
X141405319Y-56124061D01*
X141459546Y-56287709D01*
X141459551Y-56287720D01*
X141550052Y-56434443D01*
X141550055Y-56434447D01*
X141671961Y-56556353D01*
X141671965Y-56556356D01*
X141818688Y-56646857D01*
X141818699Y-56646862D01*
X141982347Y-56701089D01*
X142083351Y-56711408D01*
X142132499Y-56711407D01*
X142132500Y-56711407D01*
X142132500Y-55986409D01*
X141395001Y-55986409D01*
X139850500Y-55986409D01*
X139850500Y-55486409D01*
X141395000Y-55486409D01*
X142132500Y-55486409D01*
X142132500Y-54761409D01*
X142132499Y-54761408D01*
X142083361Y-54761409D01*
X142083343Y-54761410D01*
X141982347Y-54771728D01*
X141818699Y-54825955D01*
X141818688Y-54825960D01*
X141671965Y-54916461D01*
X141671961Y-54916464D01*
X141550055Y-55038370D01*
X141550052Y-55038374D01*
X141459551Y-55185097D01*
X141459546Y-55185108D01*
X141405319Y-55348756D01*
X141395000Y-55449754D01*
X141395000Y-55486409D01*
X139850500Y-55486409D01*
X139850500Y-52831584D01*
X141645000Y-52831584D01*
X141660191Y-52985834D01*
X141720233Y-53183766D01*
X141817728Y-53366166D01*
X141817732Y-53366173D01*
X141948944Y-53526055D01*
X142108826Y-53657267D01*
X142108833Y-53657271D01*
X142291233Y-53754766D01*
X142445000Y-53801410D01*
X142445000Y-52946110D01*
X142469457Y-52985610D01*
X142558962Y-53053201D01*
X142666840Y-53083895D01*
X142778521Y-53073546D01*
X142878922Y-53023552D01*
X142945000Y-52951069D01*
X142945000Y-53801410D01*
X143098766Y-53754766D01*
X143281166Y-53657271D01*
X143281173Y-53657267D01*
X143441051Y-53526058D01*
X143444425Y-53521947D01*
X143502166Y-53482605D01*
X143572011Y-53480726D01*
X143624047Y-53510662D01*
X143624217Y-53510446D01*
X143625728Y-53511629D01*
X143627969Y-53512919D01*
X143630122Y-53515072D01*
X143775604Y-53603019D01*
X143775603Y-53603019D01*
X143937894Y-53653590D01*
X143937893Y-53653590D01*
X144008408Y-53659998D01*
X144008426Y-53659999D01*
X144014999Y-53659998D01*
X144015000Y-53659998D01*
X144015000Y-52810000D01*
X143449000Y-52810000D01*
X143381961Y-52790315D01*
X143360190Y-52765190D01*
X143325000Y-52730000D01*
X142995000Y-52730000D01*
X142995000Y-52230000D01*
X143661000Y-52230000D01*
X143728039Y-52249685D01*
X143749809Y-52274809D01*
X143785000Y-52310000D01*
X144015000Y-52310000D01*
X144015000Y-51460000D01*
X144014999Y-51459999D01*
X144008436Y-51460000D01*
X144008417Y-51460001D01*
X143937897Y-51466408D01*
X143937892Y-51466409D01*
X143775601Y-51516981D01*
X143775599Y-51516982D01*
X143689427Y-51569075D01*
X143621872Y-51586911D01*
X143555399Y-51565393D01*
X143529425Y-51541623D01*
X143441055Y-51433944D01*
X143281173Y-51302732D01*
X143281166Y-51302728D01*
X143098763Y-51205232D01*
X142945000Y-51158587D01*
X142945000Y-52013889D01*
X142920543Y-51974390D01*
X142831038Y-51906799D01*
X142723160Y-51876105D01*
X142611479Y-51886454D01*
X142511078Y-51936448D01*
X142445000Y-52008930D01*
X142445000Y-51158587D01*
X142291236Y-51205232D01*
X142108833Y-51302728D01*
X142108826Y-51302732D01*
X141948944Y-51433944D01*
X141817732Y-51593826D01*
X141817728Y-51593833D01*
X141720233Y-51776233D01*
X141660191Y-51974165D01*
X141645000Y-52128415D01*
X141645000Y-52230000D01*
X142395000Y-52230000D01*
X142395000Y-52730000D01*
X141645000Y-52730000D01*
X141645000Y-52831584D01*
X139850500Y-52831584D01*
X139850500Y-49031584D01*
X141645000Y-49031584D01*
X141660191Y-49185834D01*
X141720233Y-49383766D01*
X141817728Y-49566166D01*
X141817732Y-49566173D01*
X141948944Y-49726055D01*
X142108826Y-49857267D01*
X142108833Y-49857271D01*
X142291233Y-49954766D01*
X142445000Y-50001410D01*
X142445000Y-49146110D01*
X142469457Y-49185610D01*
X142558962Y-49253201D01*
X142666840Y-49283895D01*
X142778521Y-49273546D01*
X142878922Y-49223552D01*
X142945000Y-49151069D01*
X142945000Y-50001410D01*
X143098766Y-49954766D01*
X143281166Y-49857271D01*
X143281173Y-49857267D01*
X143441055Y-49726055D01*
X143572267Y-49566173D01*
X143572271Y-49566166D01*
X143669766Y-49383766D01*
X143729808Y-49185834D01*
X143745000Y-49031584D01*
X150285000Y-49031584D01*
X150300191Y-49185834D01*
X150360233Y-49383766D01*
X150457728Y-49566166D01*
X150457732Y-49566173D01*
X150588944Y-49726055D01*
X150748826Y-49857267D01*
X150748833Y-49857271D01*
X150931233Y-49954766D01*
X151085000Y-50001410D01*
X151085000Y-49146110D01*
X151109457Y-49185610D01*
X151198962Y-49253201D01*
X151306840Y-49283895D01*
X151418521Y-49273546D01*
X151518922Y-49223552D01*
X151585000Y-49151069D01*
X151585000Y-50001410D01*
X151738766Y-49954766D01*
X151921166Y-49857271D01*
X151921173Y-49857267D01*
X152081055Y-49726055D01*
X152212267Y-49566173D01*
X152212271Y-49566166D01*
X152309766Y-49383766D01*
X152369808Y-49185834D01*
X152385000Y-49031584D01*
X152385000Y-48930000D01*
X151635000Y-48930000D01*
X151635000Y-48430000D01*
X152385000Y-48430000D01*
X152385000Y-48328415D01*
X152369808Y-48174165D01*
X152309766Y-47976233D01*
X152212271Y-47793833D01*
X152212267Y-47793826D01*
X152081055Y-47633944D01*
X151921173Y-47502732D01*
X151921166Y-47502728D01*
X151738763Y-47405232D01*
X151585000Y-47358587D01*
X151585000Y-48213889D01*
X151560543Y-48174390D01*
X151471038Y-48106799D01*
X151363160Y-48076105D01*
X151251479Y-48086454D01*
X151151078Y-48136448D01*
X151085000Y-48208930D01*
X151085000Y-47358587D01*
X150931236Y-47405232D01*
X150748833Y-47502728D01*
X150748826Y-47502732D01*
X150588944Y-47633944D01*
X150457732Y-47793826D01*
X150457728Y-47793833D01*
X150360233Y-47976233D01*
X150300191Y-48174165D01*
X150285000Y-48328415D01*
X150285000Y-48430000D01*
X151035000Y-48430000D01*
X151035000Y-48930000D01*
X150285000Y-48930000D01*
X150285000Y-49031584D01*
X143745000Y-49031584D01*
X143745000Y-48930000D01*
X142995000Y-48930000D01*
X142995000Y-48430000D01*
X143745000Y-48430000D01*
X143745000Y-48328415D01*
X143729808Y-48174165D01*
X143669766Y-47976233D01*
X143572271Y-47793833D01*
X143572267Y-47793826D01*
X143441055Y-47633944D01*
X143281173Y-47502732D01*
X143281166Y-47502728D01*
X143098763Y-47405232D01*
X142945000Y-47358587D01*
X142945000Y-48213889D01*
X142920543Y-48174390D01*
X142831038Y-48106799D01*
X142723160Y-48076105D01*
X142611479Y-48086454D01*
X142511078Y-48136448D01*
X142445000Y-48208930D01*
X142445000Y-47358587D01*
X142291236Y-47405232D01*
X142108833Y-47502728D01*
X142108826Y-47502732D01*
X141948944Y-47633944D01*
X141817732Y-47793826D01*
X141817728Y-47793833D01*
X141720233Y-47976233D01*
X141660191Y-48174165D01*
X141645000Y-48328415D01*
X141645000Y-48430000D01*
X142395000Y-48430000D01*
X142395000Y-48930000D01*
X141645000Y-48930000D01*
X141645000Y-49031584D01*
X139850500Y-49031584D01*
X139850500Y-46074500D01*
X139870185Y-46007461D01*
X139922989Y-45961706D01*
X139974500Y-45950500D01*
X197275500Y-45950500D01*
X197342539Y-45970185D01*
G37*
%TD.AperFunction*%
%TD*%
M02*
